<svg width="312" height="54" viewBox="0 0 312 54" fill="none" xmlns="http://www.w3.org/2000/svg">
<g clip-path="url(#clip0_396_5130)">
<path d="M6.40584 41.765C5.42807 41.8154 5.09934 41.4373 5.09934 40.5129L4.63574 8.84905C4.63574 7.92468 4.96447 7.59695 5.94224 7.59695L26.2477 7.13477C27.2255 7.13477 27.5964 7.4625 27.5542 8.38687L26.5765 40.0507C26.5259 40.9751 26.2477 41.2608 25.27 41.3028L6.40584 41.765ZM10.8732 36.286L20.7942 36.0507L21.5443 12.6054L10.5529 12.8827L10.8732 36.286ZM38.4024 26.8154V39.118C38.4024 40.0423 38.0736 40.3701 37.0959 40.3701H33.8339C32.8561 40.3701 32.5274 40.0423 32.5274 39.118V9.31124C32.5274 8.38687 32.8561 8.05914 33.8339 8.05914H37.0959C38.0736 8.05914 38.4024 8.38687 38.4024 9.31124V21.4289L41.892 21.286C42.777 21.2356 43.0552 21.5213 43.0552 22.4961V25.4709C43.0552 26.4457 42.777 26.6306 41.892 26.681L38.4024 26.8154Z" fill="#191919" stroke="white" stroke-width="11" stroke-miterlimit="10"/>
<path d="M48.1802 8.84905C48.1802 7.92468 48.5089 7.59695 49.4867 7.59695L77.6649 7.13477C78.6426 7.13477 79.0135 7.4625 78.9714 8.38687L77.3446 31.2776L78.5584 31.2272C79.4434 31.2272 79.7216 31.4625 79.7216 32.4373V35.3196C79.7216 36.3869 79.3928 36.6222 78.6005 36.6222L66.6313 36.807V45.6306C66.6313 46.5549 66.3026 46.8827 65.3248 46.8827H62.0628C61.085 46.8827 60.7563 46.5549 60.7563 45.6306V36.8911L48.7871 37.0759C47.9947 37.0759 47.666 36.8406 47.666 35.7734V32.8911C47.666 31.9163 47.9442 31.681 48.8292 31.681L71.4611 31.3533L71.9247 24.8491L50.2706 25.2188C49.2928 25.2188 48.9641 24.8911 48.9641 23.9667V21.0843C48.9641 20.16 49.2928 19.8322 50.2706 19.8322L72.2956 19.4625L72.776 12.6054L49.4867 12.9751C48.5089 12.9751 48.1802 12.6474 48.1802 11.723V8.84905V8.84905Z" fill="#191919" stroke="white" stroke-width="11" stroke-miterlimit="10"/>
<path d="M110.799 27.3784C111.557 27.3784 111.793 27.5801 111.793 28.4121V30.4793C111.793 31.3952 111.515 31.5885 110.841 31.5885L86.1439 31.9835C85.4696 31.9835 85.1914 31.7818 85.1914 30.8742V28.807C85.1914 27.9751 85.4274 27.7734 86.186 27.7734L110.799 27.3784ZM87.3324 25.9163C86.6581 25.9163 86.4136 25.7146 86.3799 24.807L86.1439 18.4121C86.1017 17.5801 86.3799 17.4205 87.1385 17.3784L106.374 16.5801L106.449 15.1936L86.2956 15.5129C85.6213 15.5129 85.3431 15.3112 85.3431 14.4036V12.6053C85.3431 11.7734 85.5791 11.5717 86.3378 11.5717L110.639 11.1768C111.397 11.1768 111.675 11.3784 111.633 12.2104L111.271 18.6473C111.229 19.5633 110.993 19.723 110.318 19.7566L91.235 20.5885L91.2772 21.8994L109.678 21.5801C110.436 21.5801 110.672 21.7818 110.672 22.6137V24.4036C110.672 25.3196 110.394 25.5129 109.72 25.5129L87.3324 25.9163ZM88.091 48.1095C87.4167 48.1095 87.1722 47.9078 87.1385 47.0003L86.9025 40.6053C86.8604 39.7734 87.1385 39.6137 87.8971 39.5717L105.665 38.7734L105.741 37.3868L87.0626 37.7062C86.3883 37.7062 86.1102 37.5045 86.1102 36.5969V34.807C86.1102 33.9751 86.3462 33.7734 87.1048 33.7734L109.931 33.3784C110.689 33.3784 110.967 33.5801 110.925 34.4121L110.563 40.849C110.521 41.765 110.285 41.9247 109.61 41.9583L92.0021 42.7482L92.0442 44.1011L108.97 43.7818C109.728 43.7818 109.964 43.9835 109.964 44.8154V46.6053C109.964 47.5213 109.686 47.7146 109.012 47.7146L88.091 48.1095Z" fill="#191919" stroke="white" stroke-width="11" stroke-miterlimit="10"/>
<path d="M127.961 8.84905C127.961 7.92468 128.29 7.59695 129.267 7.59695L150.972 7.13477C151.95 7.13477 152.414 7.4625 152.279 8.38687L148.502 40.0507C148.359 40.9751 148.039 41.3028 147.061 41.3028H143.799C142.821 41.3028 142.493 40.9751 142.636 40.0507L145.898 12.6558L129.276 12.9835C128.298 12.9835 127.969 12.6558 127.969 11.7314V8.84905H127.961ZM158.187 9.31124C158.187 8.38687 158.516 8.05914 159.494 8.05914H162.756C163.734 8.05914 164.062 8.38687 164.062 9.31124V39.118C164.062 40.0423 163.734 40.3701 162.756 40.3701H159.494C158.516 40.3701 158.187 40.0423 158.187 39.118V9.31124Z" fill="#191919" stroke="white" stroke-width="11" stroke-miterlimit="10"/>
<path d="M169.271 18.3193C169.271 11.3529 174.253 6.20166 182.497 6.20166C189.526 6.20166 194.188 10.0084 195.444 15.4454L202.195 15.3025V8.38653C202.195 7.45376 202.524 7.13443 203.502 7.13443H206.764C207.742 7.13443 208.07 7.46216 208.07 8.38653V28.4454C208.07 29.3697 207.742 29.6975 206.764 29.6975H203.502C202.524 29.6975 202.195 29.3697 202.195 28.4454V20.6891L195.536 20.8319C194.415 26.4538 189.762 30.3949 182.497 30.3949C174.253 30.3949 169.271 25.2353 169.271 18.3193ZM189.906 18.3193C189.906 14.4201 187.343 11.5882 182.497 11.5882C177.793 11.5882 175.138 14.4706 175.138 18.3193C175.138 22.084 177.793 25.0084 182.497 25.0084C187.293 25.0084 189.906 22.0756 189.906 18.3193ZM201.453 49.3781C200.476 49.3781 200.105 49.0504 200.147 48.126L200.425 38.1008L180.583 38.4706C179.698 38.4706 179.42 38.2353 179.42 37.2605V34.2857C179.42 33.3109 179.698 33.0756 180.583 33.0756L205.263 32.6134C206.148 32.6134 206.477 32.8487 206.427 33.8235L206.005 48.126C205.955 49.0504 205.676 49.3781 204.699 49.3781H201.453Z" fill="#191919" stroke="white" stroke-width="11" stroke-miterlimit="10"/>
<path d="M222.231 8.61367V5.87417C222.231 4.9498 222.56 4.62207 223.537 4.62207H226.799C227.777 4.62207 228.106 4.9498 228.106 5.87417V8.47081L236.35 8.28594C237.235 8.28594 237.513 8.52123 237.513 9.49602V12.3784C237.513 13.4456 237.184 13.6809 236.392 13.6809L213.853 14.1431C213.06 14.1431 212.731 13.9078 212.731 12.8406V9.9582C212.731 8.98341 213.01 8.74812 213.895 8.74812L222.231 8.61367ZM213.844 28.0674C213.844 21.4288 218.362 16.9246 225.628 16.9246C232.894 16.9246 237.412 21.4288 237.412 28.0674C237.412 34.7565 232.894 39.1683 225.628 39.1683C218.362 39.1683 213.844 34.7565 213.844 28.0674ZM231.68 28.0674C231.68 24.5885 229.396 22.2187 225.628 22.2187C221.86 22.2187 219.576 24.5885 219.576 28.0674C219.576 31.454 221.767 33.8742 225.628 33.8742C229.396 33.8742 231.68 31.4624 231.68 28.0674ZM247.425 26.8153V39.1179C247.425 40.0422 247.097 40.37 246.119 40.37H242.857C241.879 40.37 241.55 40.0422 241.55 39.1179V9.31115C241.55 8.38678 241.879 8.05905 242.857 8.05905H246.119C247.097 8.05905 247.425 8.38678 247.425 9.31115V21.4288L250.915 21.2859C251.8 21.2355 252.078 21.5212 252.078 22.496V25.4708C252.078 26.4456 251.8 26.6305 250.915 26.6809L247.425 26.8153Z" fill="#191919" stroke="white" stroke-width="11" stroke-miterlimit="10"/>
<path d="M279.186 7.12646C280.071 7.12646 280.349 7.36176 280.349 8.33655V11.2189C280.349 12.2861 280.021 12.5214 279.228 12.5214L271.406 12.7063V23.5214C271.406 24.6391 271.457 25.0508 272.148 25.9332L280.67 37.2189C281.091 37.7735 281.04 38.2441 280.484 38.6559L277.551 40.8407C276.944 41.3534 276.666 41.3029 276.152 40.6979L268.464 30.5802L260.642 41.3029C260.221 41.908 259.85 41.95 259.243 41.4458L256.31 39.2609C255.796 38.8408 255.703 38.3786 256.124 37.8239L264.789 25.9416C265.396 25.0592 265.531 24.6391 265.531 23.5298V12.8408L257.616 12.9836C256.824 12.9836 256.495 12.7483 256.495 11.6811V8.79873C256.495 7.82394 256.773 7.58865 257.658 7.58865L279.186 7.12646ZM290.506 26.8155V39.1181C290.506 40.0424 290.177 40.3702 289.2 40.3702H285.938C284.96 40.3702 284.631 40.0424 284.631 39.1181V9.31134C284.631 8.38697 284.96 8.05924 285.938 8.05924H289.2C290.177 8.05924 290.506 8.38697 290.506 9.31134V21.429L293.996 21.2861C294.881 21.2357 295.159 21.5214 295.159 22.4962V25.471C295.159 26.4458 294.881 26.6307 293.996 26.6811L290.506 26.8155Z" fill="#191919" stroke="white" stroke-width="11" stroke-miterlimit="10"/>
<path d="M304.153 36.9413C305.973 36.9413 307.364 38.1934 307.364 40.0085C307.364 41.8237 305.965 43.0253 304.153 43.0253C302.239 43.0253 300.891 41.8153 300.891 40.0085C300.891 38.2018 302.239 36.9413 304.153 36.9413ZM301.312 8.57156C301.312 7.59677 301.59 7.26904 302.661 7.26904H305.83C306.901 7.26904 307.179 7.59677 307.179 8.57156V32.0674C307.179 33.0422 306.901 33.3699 305.83 33.3699H302.661C301.59 33.3699 301.312 33.0422 301.312 32.0674V8.57156Z" fill="#191919" stroke="white" stroke-width="11" stroke-miterlimit="10"/>
<path d="M6.40584 41.765C5.42807 41.8154 5.09934 41.4373 5.09934 40.5129L4.63574 8.84905C4.63574 7.92468 4.96447 7.59695 5.94224 7.59695L26.2477 7.13477C27.2255 7.13477 27.5964 7.4625 27.5542 8.38687L26.5765 40.0507C26.5259 40.9751 26.2477 41.2608 25.27 41.3028L6.40584 41.765ZM10.8732 36.286L20.7942 36.0507L21.5443 12.6054L10.5529 12.8827L10.8732 36.286ZM38.4024 26.8154V39.118C38.4024 40.0423 38.0736 40.3701 37.0959 40.3701H33.8339C32.8561 40.3701 32.5274 40.0423 32.5274 39.118V9.31124C32.5274 8.38687 32.8561 8.05914 33.8339 8.05914H37.0959C38.0736 8.05914 38.4024 8.38687 38.4024 9.31124V21.4289L41.892 21.286C42.777 21.2356 43.0552 21.5213 43.0552 22.4961V25.4709C43.0552 26.4457 42.777 26.6306 41.892 26.681L38.4024 26.8154Z" fill="#FF65BE"/>
<path d="M48.1802 8.84905C48.1802 7.92468 48.5089 7.59695 49.4867 7.59695L77.6649 7.13477C78.6426 7.13477 79.0135 7.4625 78.9714 8.38687L77.3446 31.2776L78.5584 31.2272C79.4434 31.2272 79.7216 31.4625 79.7216 32.4373V35.3196C79.7216 36.3869 79.3928 36.6222 78.6005 36.6222L66.6313 36.807V45.6306C66.6313 46.5549 66.3026 46.8827 65.3248 46.8827H62.0628C61.085 46.8827 60.7563 46.5549 60.7563 45.6306V36.8911L48.7871 37.0759C47.9947 37.0759 47.666 36.8406 47.666 35.7734V32.8911C47.666 31.9163 47.9442 31.681 48.8292 31.681L71.4611 31.3533L71.9247 24.8491L50.2706 25.2188C49.2928 25.2188 48.9641 24.8911 48.9641 23.9667V21.0843C48.9641 20.16 49.2928 19.8322 50.2706 19.8322L72.2956 19.4625L72.776 12.6054L49.4867 12.9751C48.5089 12.9751 48.1802 12.6474 48.1802 11.723V8.84905V8.84905Z" fill="#FF65BE"/>
<path d="M110.799 27.3784C111.557 27.3784 111.793 27.5801 111.793 28.4121V30.4793C111.793 31.3952 111.515 31.5885 110.841 31.5885L86.1439 31.9835C85.4696 31.9835 85.1914 31.7818 85.1914 30.8742V28.807C85.1914 27.9751 85.4274 27.7734 86.186 27.7734L110.799 27.3784ZM87.3324 25.9163C86.6581 25.9163 86.4136 25.7146 86.3799 24.807L86.1439 18.4121C86.1017 17.5801 86.3799 17.4205 87.1385 17.3784L106.374 16.5801L106.449 15.1936L86.2956 15.5129C85.6213 15.5129 85.3431 15.3112 85.3431 14.4036V12.6053C85.3431 11.7734 85.5791 11.5717 86.3378 11.5717L110.639 11.1768C111.397 11.1768 111.675 11.3784 111.633 12.2104L111.271 18.6473C111.229 19.5633 110.993 19.723 110.318 19.7566L91.235 20.5885L91.2772 21.8994L109.678 21.5801C110.436 21.5801 110.672 21.7818 110.672 22.6137V24.4036C110.672 25.3196 110.394 25.5129 109.72 25.5129L87.3324 25.9163ZM88.091 48.1095C87.4167 48.1095 87.1722 47.9078 87.1385 47.0003L86.9025 40.6053C86.8604 39.7734 87.1385 39.6137 87.8971 39.5717L105.665 38.7734L105.741 37.3868L87.0626 37.7062C86.3883 37.7062 86.1102 37.5045 86.1102 36.5969V34.807C86.1102 33.9751 86.3462 33.7734 87.1048 33.7734L109.931 33.3784C110.689 33.3784 110.967 33.5801 110.925 34.4121L110.563 40.849C110.521 41.765 110.285 41.9247 109.61 41.9583L92.0021 42.7482L92.0442 44.1011L108.97 43.7818C109.728 43.7818 109.964 43.9835 109.964 44.8154V46.6053C109.964 47.5213 109.686 47.7146 109.012 47.7146L88.091 48.1095Z" fill="#191919"/>
<path d="M127.961 8.84905C127.961 7.92468 128.29 7.59695 129.267 7.59695L150.972 7.13477C151.95 7.13477 152.414 7.4625 152.279 8.38687L148.502 40.0507C148.359 40.9751 148.039 41.3028 147.061 41.3028H143.799C142.821 41.3028 142.493 40.9751 142.636 40.0507L145.898 12.6558L129.276 12.9835C128.298 12.9835 127.969 12.6558 127.969 11.7314V8.84905H127.961ZM158.187 9.31124C158.187 8.38687 158.516 8.05914 159.494 8.05914H162.756C163.734 8.05914 164.062 8.38687 164.062 9.31124V39.118C164.062 40.0423 163.734 40.3701 162.756 40.3701H159.494C158.516 40.3701 158.187 40.0423 158.187 39.118V9.31124Z" fill="#FF65BE"/>
<path d="M169.271 18.3193C169.271 11.3529 174.253 6.20166 182.497 6.20166C189.526 6.20166 194.188 10.0084 195.444 15.4454L202.195 15.3025V8.38653C202.195 7.45376 202.524 7.13443 203.502 7.13443H206.764C207.742 7.13443 208.07 7.46216 208.07 8.38653V28.4454C208.07 29.3697 207.742 29.6975 206.764 29.6975H203.502C202.524 29.6975 202.195 29.3697 202.195 28.4454V20.6891L195.536 20.8319C194.415 26.4538 189.762 30.3949 182.497 30.3949C174.253 30.3949 169.271 25.2353 169.271 18.3193ZM189.906 18.3193C189.906 14.4201 187.343 11.5882 182.497 11.5882C177.793 11.5882 175.138 14.4706 175.138 18.3193C175.138 22.084 177.793 25.0084 182.497 25.0084C187.293 25.0084 189.906 22.0756 189.906 18.3193ZM201.453 49.3781C200.476 49.3781 200.105 49.0504 200.147 48.126L200.425 38.1008L180.583 38.4706C179.698 38.4706 179.42 38.2353 179.42 37.2605V34.2857C179.42 33.3109 179.698 33.0756 180.583 33.0756L205.263 32.6134C206.148 32.6134 206.477 32.8487 206.427 33.8235L206.005 48.126C205.955 49.0504 205.676 49.3781 204.699 49.3781H201.453Z" fill="#FF65BE"/>
<path d="M222.231 8.61367V5.87417C222.231 4.9498 222.56 4.62207 223.537 4.62207H226.799C227.777 4.62207 228.106 4.9498 228.106 5.87417V8.47081L236.35 8.28594C237.235 8.28594 237.513 8.52123 237.513 9.49602V12.3784C237.513 13.4456 237.184 13.6809 236.392 13.6809L213.853 14.1431C213.06 14.1431 212.731 13.9078 212.731 12.8406V9.9582C212.731 8.98341 213.01 8.74812 213.895 8.74812L222.231 8.61367ZM213.844 28.0674C213.844 21.4288 218.362 16.9246 225.628 16.9246C232.894 16.9246 237.412 21.4288 237.412 28.0674C237.412 34.7565 232.894 39.1683 225.628 39.1683C218.362 39.1683 213.844 34.7565 213.844 28.0674ZM231.68 28.0674C231.68 24.5885 229.396 22.2187 225.628 22.2187C221.86 22.2187 219.576 24.5885 219.576 28.0674C219.576 31.454 221.767 33.8742 225.628 33.8742C229.396 33.8742 231.68 31.4624 231.68 28.0674ZM247.425 26.8153V39.1179C247.425 40.0422 247.097 40.37 246.119 40.37H242.857C241.879 40.37 241.55 40.0422 241.55 39.1179V9.31115C241.55 8.38678 241.879 8.05905 242.857 8.05905H246.119C247.097 8.05905 247.425 8.38678 247.425 9.31115V21.4288L250.915 21.2859C251.8 21.2355 252.078 21.5212 252.078 22.496V25.4708C252.078 26.4456 251.8 26.6305 250.915 26.6809L247.425 26.8153Z" fill="#FF65BE"/>
<path d="M279.186 7.12646C280.071 7.12646 280.349 7.36176 280.349 8.33655V11.2189C280.349 12.2861 280.021 12.5214 279.228 12.5214L271.406 12.7063V23.5214C271.406 24.6391 271.457 25.0508 272.148 25.9332L280.67 37.2189C281.091 37.7735 281.04 38.2441 280.484 38.6559L277.551 40.8407C276.944 41.3534 276.666 41.3029 276.152 40.6979L268.464 30.5802L260.642 41.3029C260.221 41.908 259.85 41.95 259.243 41.4458L256.31 39.2609C255.796 38.8408 255.703 38.3786 256.124 37.8239L264.789 25.9416C265.396 25.0592 265.531 24.6391 265.531 23.5298V12.8408L257.616 12.9836C256.824 12.9836 256.495 12.7483 256.495 11.6811V8.79873C256.495 7.82394 256.773 7.58865 257.658 7.58865L279.186 7.12646ZM290.506 26.8155V39.1181C290.506 40.0424 290.177 40.3702 289.2 40.3702H285.938C284.96 40.3702 284.631 40.0424 284.631 39.1181V9.31134C284.631 8.38697 284.96 8.05924 285.938 8.05924H289.2C290.177 8.05924 290.506 8.38697 290.506 9.31134V21.429L293.996 21.2861C294.881 21.2357 295.159 21.5214 295.159 22.4962V25.471C295.159 26.4458 294.881 26.6307 293.996 26.6811L290.506 26.8155Z" fill="#FF65BE"/>
<path d="M304.153 36.9413C305.973 36.9413 307.364 38.1934 307.364 40.0085C307.364 41.8237 305.965 43.0253 304.153 43.0253C302.239 43.0253 300.891 41.8153 300.891 40.0085C300.891 38.2018 302.239 36.9413 304.153 36.9413ZM301.312 8.57156C301.312 7.59677 301.59 7.26904 302.661 7.26904H305.83C306.901 7.26904 307.179 7.59677 307.179 8.57156V32.0674C307.179 33.0422 306.901 33.3699 305.83 33.3699H302.661C301.59 33.3699 301.312 33.0422 301.312 32.0674V8.57156Z" fill="#FF65BE"/>
</g>
<defs>
<clipPath id="clip0_396_5130">
<rect width="312" height="54" fill="white"/>
</clipPath>
</defs>
</svg>
