<svg width="281" height="100" viewBox="0 0 281 100" fill="none" xmlns="http://www.w3.org/2000/svg">
<g clip-path="url(#clip0_396_4881)">
<path d="M5.76951 88.9407C4.8889 88.9862 4.59283 88.6444 4.59283 87.8089L4.17529 59.1799C4.17529 58.3444 4.47136 58.0481 5.35198 58.0481L23.6399 57.6304C24.5206 57.6304 24.8546 57.9266 24.8166 58.7622L23.936 87.3835C23.8905 88.2191 23.6399 88.4773 22.7593 88.5153L5.76951 88.9407ZM9.79302 83.9881L18.7282 83.7755L19.3963 62.5829L9.49695 62.8336L9.79302 83.9881ZM34.5869 75.4276V86.548C34.5869 87.3835 34.2908 87.6797 33.4102 87.6797H30.4723C29.5917 87.6797 29.2956 87.3835 29.2956 86.548V59.6053C29.2956 58.7698 29.5917 58.4735 30.4723 58.4735H33.4102C34.2908 58.4735 34.5869 58.7698 34.5869 59.6053V70.5586L37.7298 70.4295C38.5269 70.3839 38.7774 70.6421 38.7774 71.5233V74.2122C38.7774 75.0933 38.5269 75.2604 37.7298 75.306L34.5869 75.4276Z" fill="#191919" stroke="white" stroke-width="11" stroke-miterlimit="10"/>
<path d="M43.3933 59.1799C43.3933 58.3444 43.6893 58.0481 44.5699 58.0481L69.9484 57.6304C70.829 57.6304 71.163 57.9266 71.1251 58.7622L69.6599 79.4534L70.7531 79.4078C71.5502 79.4078 71.8007 79.6205 71.8007 80.5016V83.107C71.8007 84.0717 71.5046 84.2844 70.791 84.2844L60.0111 84.4515V92.4272C60.0111 93.2627 59.715 93.559 58.8344 93.559H55.8965C55.0159 93.559 54.7198 93.2627 54.7198 92.4272V84.535L43.9398 84.7022C43.2262 84.7022 42.9302 84.4895 42.9302 83.5248V80.9194C42.9302 80.0383 43.1807 79.8256 43.9778 79.8256L64.361 79.5293L64.7786 73.6501L45.276 73.9843C44.3953 73.9843 44.0993 73.6881 44.0993 72.8526V70.2623C44.0993 69.4268 44.3953 69.1306 45.276 69.1306L65.1126 68.7963L65.5301 62.5829L44.5548 62.9171C43.6741 62.9171 43.3781 62.6209 43.3781 61.7853V59.1799H43.3933Z" fill="#191919" stroke="white" stroke-width="11" stroke-miterlimit="10"/>
<path d="M99.7906 75.9364C100.474 75.9364 100.686 76.1187 100.686 76.8707V78.7393C100.686 79.5672 100.436 79.7419 99.8285 79.7419L77.5854 80.0989C76.9781 80.0989 76.7275 79.9166 76.7275 79.0963V77.2277C76.7275 76.4757 76.9401 76.2934 77.6233 76.2934L99.7906 75.9364ZM78.6558 74.6071C78.0485 74.6071 77.8283 74.4248 77.7979 73.6045L77.5854 67.824C77.5474 67.072 77.7979 66.9277 78.4812 66.8897L95.805 66.1681L95.8733 64.9147L77.722 65.2034C77.1147 65.2034 76.8642 65.0211 76.8642 64.2007V62.5828C76.8642 61.8308 77.0767 61.6485 77.76 61.6485L99.6463 61.2915C100.33 61.2915 100.58 61.4738 100.542 62.2258L100.216 68.0443C100.178 68.8722 99.9652 69.0165 99.3579 69.0469L82.1707 69.7989L82.2086 70.9839L98.7809 70.6952C99.4641 70.6952 99.6767 70.8775 99.6767 71.6295V73.2474C99.6767 74.0754 99.4262 74.2501 98.8189 74.2501L78.6558 74.6071ZM79.339 94.6755C78.7317 94.6755 78.5115 94.4932 78.4812 93.6728L78.2686 87.8923C78.2307 87.1403 78.4812 86.996 79.1644 86.958L95.1673 86.2364L95.2357 84.9831L78.4129 85.2718C77.8055 85.2718 77.555 85.0895 77.555 84.2691V82.6512C77.555 81.8992 77.7676 81.7169 78.4508 81.7169L99.0086 81.3599C99.6919 81.3599 99.9424 81.5422 99.9044 82.2942L99.578 88.1126C99.54 88.9406 99.3275 89.0849 98.7202 89.1153L82.8615 89.8293L82.8994 91.0522L98.1432 90.7636C98.8264 90.7636 99.039 90.9459 99.039 91.6979V93.3158C99.039 94.1438 98.7885 94.3185 98.1812 94.3185L79.339 94.6755Z" fill="#191919" stroke="white" stroke-width="11" stroke-miterlimit="10"/>
<path d="M115.247 59.1799C115.247 58.3444 115.543 58.0481 116.423 58.0481L135.971 57.6304C136.852 57.6304 137.27 57.9266 137.148 58.7622L133.747 87.3835C133.618 88.2191 133.33 88.5153 132.449 88.5153H129.511C128.63 88.5153 128.334 88.2191 128.463 87.3835L131.401 62.6209L116.431 62.9171C115.55 62.9171 115.254 62.6209 115.254 61.7853V59.1799H115.247ZM142.47 59.6053C142.47 58.7698 142.766 58.4735 143.646 58.4735H146.584C147.465 58.4735 147.761 58.7698 147.761 59.6053V86.548C147.761 87.3835 147.465 87.6797 146.584 87.6797H143.646C142.766 87.6797 142.47 87.3835 142.47 86.548V59.6053Z" fill="#191919" stroke="white" stroke-width="11" stroke-miterlimit="10"/>
<path d="M152.453 67.7482C152.453 61.4512 156.939 56.7949 164.364 56.7949C170.695 56.7949 174.893 60.2359 176.024 65.1504L182.105 65.0213V58.7699C182.105 57.9267 182.401 57.6381 183.282 57.6381H186.22C187.1 57.6381 187.396 57.9343 187.396 58.7699V76.9013C187.396 77.7368 187.1 78.0331 186.22 78.0331H183.282C182.401 78.0331 182.105 77.7368 182.105 76.9013V69.8827L176.108 70.0118C175.098 75.0934 170.908 78.6559 164.364 78.6559C156.939 78.6559 152.453 73.9996 152.453 67.7482ZM171.037 67.7482C171.037 64.2237 168.729 61.6639 164.364 61.6639C160.128 61.6639 157.736 64.2693 157.736 67.7482C157.736 71.1512 160.128 73.7945 164.364 73.7945C168.683 73.787 171.037 71.1436 171.037 67.7482ZM181.437 95.8227C180.556 95.8227 180.222 95.5264 180.26 94.6909L180.511 85.629L162.64 85.9632C161.843 85.9632 161.593 85.7505 161.593 84.8694V82.1804C161.593 81.2993 161.843 81.0866 162.64 81.0866L184.868 80.6688C185.666 80.6688 185.962 80.8815 185.916 81.7626L185.536 94.6909C185.491 95.5264 185.24 95.8227 184.36 95.8227H181.437Z" fill="#191919" stroke="white" stroke-width="11" stroke-miterlimit="10"/>
<path d="M200.15 58.9748V56.4985C200.15 55.6629 200.446 55.3667 201.327 55.3667H204.265C205.146 55.3667 205.442 55.6629 205.442 56.4985V58.8456L212.866 58.6785C213.663 58.6785 213.914 58.8912 213.914 59.7723V62.3777C213.914 63.3424 213.618 63.5551 212.904 63.5551L192.604 63.9729C191.891 63.9729 191.595 63.7602 191.595 62.7955V60.1901C191.595 59.309 191.845 59.0963 192.642 59.0963L200.15 58.9748ZM192.597 76.5593C192.597 70.5585 196.666 66.4871 203.21 66.4871C209.754 66.4871 213.823 70.5585 213.823 76.5593C213.823 82.6056 209.754 86.5934 203.21 86.5934C196.666 86.5934 192.597 82.598 192.597 76.5593ZM208.66 76.5593C208.66 73.4146 206.603 71.2725 203.21 71.2725C199.816 71.2725 197.759 73.4146 197.759 76.5593C197.759 79.6204 199.733 81.808 203.21 81.808C206.603 81.8004 208.66 79.6204 208.66 76.5593ZM222.841 75.4275V86.5479C222.841 87.3834 222.545 87.6797 221.665 87.6797H218.727C217.846 87.6797 217.55 87.3834 217.55 86.5479V59.6052C217.55 58.7697 217.846 58.4734 218.727 58.4734H221.665C222.545 58.4734 222.841 58.7697 222.841 59.6052V70.5585L225.984 70.4294C226.781 70.3838 227.032 70.6421 227.032 71.5232V74.2121C227.032 75.0932 226.781 75.2604 225.984 75.3059L222.841 75.4275Z" fill="#191919" stroke="white" stroke-width="11" stroke-miterlimit="10"/>
<path d="M251.446 57.6304C252.243 57.6304 252.494 57.8431 252.494 58.7242V61.3296C252.494 62.2942 252.198 62.5069 251.484 62.5069L244.439 62.674V72.45C244.439 73.4602 244.485 73.8324 245.107 74.63L252.782 84.8313C253.162 85.3326 253.117 85.758 252.615 86.1302L249.974 88.1051C249.427 88.5685 249.176 88.5229 248.713 87.976L241.79 78.8305L234.745 88.5229C234.365 89.0698 234.031 89.1078 233.485 88.652L230.843 86.6771C230.38 86.2973 230.296 85.8795 230.676 85.3782L238.48 74.6376C239.027 73.84 239.148 73.4602 239.148 72.4576V62.7956L232.02 62.9247C231.306 62.9247 231.01 62.712 231.01 61.7473V59.142C231.01 58.2608 231.261 58.0481 232.058 58.0481L251.446 57.6304ZM261.642 75.4276V86.548C261.642 87.3835 261.346 87.6797 260.465 87.6797H257.527C256.647 87.6797 256.35 87.3835 256.35 86.548V59.6053C256.35 58.7698 256.647 58.4735 257.527 58.4735H260.465C261.346 58.4735 261.642 58.7698 261.642 59.6053V70.5586L264.785 70.4295C265.582 70.3839 265.832 70.6421 265.832 71.5233V74.2122C265.832 75.0933 265.582 75.2604 264.785 75.306L261.642 75.4276Z" fill="#191919" stroke="white" stroke-width="11" stroke-miterlimit="10"/>
<path d="M273.932 84.5731C275.572 84.5731 276.824 85.7049 276.824 87.3456C276.824 88.9863 275.564 90.0725 273.932 90.0725C272.209 90.0725 270.994 88.9787 270.994 87.3456C270.994 85.7125 272.209 84.5731 273.932 84.5731ZM271.374 58.9293C271.374 58.0482 271.624 57.752 272.588 57.752H275.443C276.407 57.752 276.657 58.0482 276.657 58.9293V80.1674C276.657 81.0486 276.407 81.3448 275.443 81.3448H272.588C271.624 81.3448 271.374 81.0486 271.374 80.1674V58.9293Z" fill="#191919" stroke="white" stroke-width="11" stroke-miterlimit="10"/>
<path d="M5.76951 88.9407C4.8889 88.9862 4.59283 88.6444 4.59283 87.8089L4.17529 59.1799C4.17529 58.3444 4.47136 58.0481 5.35198 58.0481L23.6399 57.6304C24.5206 57.6304 24.8546 57.9266 24.8166 58.7622L23.936 87.3835C23.8905 88.2191 23.6399 88.4773 22.7593 88.5153L5.76951 88.9407ZM9.79302 83.9881L18.7282 83.7755L19.3963 62.5829L9.49695 62.8336L9.79302 83.9881ZM34.5869 75.4276V86.548C34.5869 87.3835 34.2908 87.6797 33.4102 87.6797H30.4723C29.5917 87.6797 29.2956 87.3835 29.2956 86.548V59.6053C29.2956 58.7698 29.5917 58.4735 30.4723 58.4735H33.4102C34.2908 58.4735 34.5869 58.7698 34.5869 59.6053V70.5586L37.7298 70.4295C38.5269 70.3839 38.7774 70.6421 38.7774 71.5233V74.2122C38.7774 75.0933 38.5269 75.2604 37.7298 75.306L34.5869 75.4276Z" fill="#FF65BE"/>
<path d="M43.3933 59.1799C43.3933 58.3444 43.6893 58.0481 44.5699 58.0481L69.9484 57.6304C70.829 57.6304 71.163 57.9266 71.1251 58.7622L69.6599 79.4534L70.7531 79.4078C71.5502 79.4078 71.8007 79.6205 71.8007 80.5016V83.107C71.8007 84.0717 71.5046 84.2844 70.791 84.2844L60.0111 84.4515V92.4272C60.0111 93.2627 59.715 93.559 58.8344 93.559H55.8965C55.0159 93.559 54.7198 93.2627 54.7198 92.4272V84.535L43.9398 84.7022C43.2262 84.7022 42.9302 84.4895 42.9302 83.5248V80.9194C42.9302 80.0383 43.1807 79.8256 43.9778 79.8256L64.361 79.5293L64.7786 73.6501L45.276 73.9843C44.3953 73.9843 44.0993 73.6881 44.0993 72.8526V70.2623C44.0993 69.4268 44.3953 69.1306 45.276 69.1306L65.1126 68.7963L65.5301 62.5829L44.5548 62.9171C43.6741 62.9171 43.3781 62.6209 43.3781 61.7853V59.1799H43.3933Z" fill="#FF65BE"/>
<path d="M99.7906 75.9364C100.474 75.9364 100.686 76.1187 100.686 76.8707V78.7393C100.686 79.5672 100.436 79.7419 99.8285 79.7419L77.5854 80.0989C76.9781 80.0989 76.7275 79.9166 76.7275 79.0963V77.2277C76.7275 76.4757 76.9401 76.2934 77.6233 76.2934L99.7906 75.9364ZM78.6558 74.6071C78.0485 74.6071 77.8283 74.4248 77.7979 73.6045L77.5854 67.824C77.5474 67.072 77.7979 66.9277 78.4812 66.8897L95.805 66.1681L95.8733 64.9147L77.722 65.2034C77.1147 65.2034 76.8642 65.0211 76.8642 64.2007V62.5828C76.8642 61.8308 77.0767 61.6485 77.76 61.6485L99.6463 61.2915C100.33 61.2915 100.58 61.4738 100.542 62.2258L100.216 68.0443C100.178 68.8722 99.9652 69.0165 99.3579 69.0469L82.1707 69.7989L82.2086 70.9839L98.7809 70.6952C99.4641 70.6952 99.6767 70.8775 99.6767 71.6295V73.2474C99.6767 74.0754 99.4262 74.2501 98.8189 74.2501L78.6558 74.6071ZM79.339 94.6755C78.7317 94.6755 78.5115 94.4932 78.4812 93.6728L78.2686 87.8923C78.2307 87.1403 78.4812 86.996 79.1644 86.958L95.1673 86.2364L95.2357 84.9831L78.4129 85.2718C77.8055 85.2718 77.555 85.0895 77.555 84.2691V82.6512C77.555 81.8992 77.7676 81.7169 78.4508 81.7169L99.0086 81.3599C99.6919 81.3599 99.9424 81.5422 99.9044 82.2942L99.578 88.1126C99.54 88.9406 99.3275 89.0849 98.7202 89.1153L82.8615 89.8293L82.8994 91.0522L98.1432 90.7636C98.8264 90.7636 99.039 90.9459 99.039 91.6979V93.3158C99.039 94.1438 98.7885 94.3185 98.1812 94.3185L79.339 94.6755Z" fill="#191919"/>
<path d="M115.247 59.1799C115.247 58.3444 115.543 58.0481 116.423 58.0481L135.971 57.6304C136.852 57.6304 137.27 57.9266 137.148 58.7622L133.747 87.3835C133.618 88.2191 133.33 88.5153 132.449 88.5153H129.511C128.63 88.5153 128.334 88.2191 128.463 87.3835L131.401 62.6209L116.431 62.9171C115.55 62.9171 115.254 62.6209 115.254 61.7853V59.1799H115.247ZM142.47 59.6053C142.47 58.7698 142.766 58.4735 143.646 58.4735H146.584C147.465 58.4735 147.761 58.7698 147.761 59.6053V86.548C147.761 87.3835 147.465 87.6797 146.584 87.6797H143.646C142.766 87.6797 142.47 87.3835 142.47 86.548V59.6053Z" fill="#FF65BE"/>
<path d="M152.453 67.7482C152.453 61.4512 156.939 56.7949 164.364 56.7949C170.695 56.7949 174.893 60.2359 176.024 65.1504L182.105 65.0213V58.7699C182.105 57.9267 182.401 57.6381 183.282 57.6381H186.22C187.1 57.6381 187.396 57.9343 187.396 58.7699V76.9013C187.396 77.7368 187.1 78.0331 186.22 78.0331H183.282C182.401 78.0331 182.105 77.7368 182.105 76.9013V69.8827L176.108 70.0118C175.098 75.0934 170.908 78.6559 164.364 78.6559C156.939 78.6559 152.453 73.9996 152.453 67.7482ZM171.037 67.7482C171.037 64.2237 168.729 61.6639 164.364 61.6639C160.128 61.6639 157.736 64.2693 157.736 67.7482C157.736 71.1512 160.128 73.7945 164.364 73.7945C168.683 73.787 171.037 71.1436 171.037 67.7482ZM181.437 95.8227C180.556 95.8227 180.222 95.5264 180.26 94.6909L180.511 85.629L162.64 85.9632C161.843 85.9632 161.593 85.7505 161.593 84.8694V82.1804C161.593 81.2993 161.843 81.0866 162.64 81.0866L184.868 80.6688C185.666 80.6688 185.962 80.8815 185.916 81.7626L185.536 94.6909C185.491 95.5264 185.24 95.8227 184.36 95.8227H181.437Z" fill="#FF65BE"/>
<path d="M200.15 58.9748V56.4985C200.15 55.6629 200.446 55.3667 201.327 55.3667H204.265C205.146 55.3667 205.442 55.6629 205.442 56.4985V58.8456L212.866 58.6785C213.663 58.6785 213.914 58.8912 213.914 59.7723V62.3777C213.914 63.3424 213.618 63.5551 212.904 63.5551L192.604 63.9729C191.891 63.9729 191.595 63.7602 191.595 62.7955V60.1901C191.595 59.309 191.845 59.0963 192.642 59.0963L200.15 58.9748ZM192.597 76.5593C192.597 70.5585 196.666 66.4871 203.21 66.4871C209.754 66.4871 213.823 70.5585 213.823 76.5593C213.823 82.6056 209.754 86.5934 203.21 86.5934C196.666 86.5934 192.597 82.598 192.597 76.5593ZM208.66 76.5593C208.66 73.4146 206.603 71.2725 203.21 71.2725C199.816 71.2725 197.759 73.4146 197.759 76.5593C197.759 79.6204 199.733 81.808 203.21 81.808C206.603 81.8004 208.66 79.6204 208.66 76.5593ZM222.841 75.4275V86.5479C222.841 87.3834 222.545 87.6797 221.665 87.6797H218.727C217.846 87.6797 217.55 87.3834 217.55 86.5479V59.6052C217.55 58.7697 217.846 58.4734 218.727 58.4734H221.665C222.545 58.4734 222.841 58.7697 222.841 59.6052V70.5585L225.984 70.4294C226.781 70.3838 227.032 70.6421 227.032 71.5232V74.2121C227.032 75.0932 226.781 75.2604 225.984 75.3059L222.841 75.4275Z" fill="#FF65BE"/>
<path d="M251.446 57.6304C252.243 57.6304 252.494 57.8431 252.494 58.7242V61.3296C252.494 62.2942 252.198 62.5069 251.484 62.5069L244.439 62.674V72.45C244.439 73.4602 244.485 73.8324 245.107 74.63L252.782 84.8313C253.162 85.3326 253.117 85.758 252.615 86.1302L249.974 88.1051C249.427 88.5685 249.176 88.5229 248.713 87.976L241.79 78.8305L234.745 88.5229C234.365 89.0698 234.031 89.1078 233.485 88.652L230.843 86.6771C230.38 86.2973 230.296 85.8795 230.676 85.3782L238.48 74.6376C239.027 73.84 239.148 73.4602 239.148 72.4576V62.7956L232.02 62.9247C231.306 62.9247 231.01 62.712 231.01 61.7473V59.142C231.01 58.2608 231.261 58.0481 232.058 58.0481L251.446 57.6304ZM261.642 75.4276V86.548C261.642 87.3835 261.346 87.6797 260.465 87.6797H257.527C256.647 87.6797 256.35 87.3835 256.35 86.548V59.6053C256.35 58.7698 256.647 58.4735 257.527 58.4735H260.465C261.346 58.4735 261.642 58.7698 261.642 59.6053V70.5586L264.785 70.4295C265.582 70.3839 265.832 70.6421 265.832 71.5233V74.2122C265.832 75.0933 265.582 75.2604 264.785 75.306L261.642 75.4276Z" fill="#FF65BE"/>
<path d="M273.932 84.5731C275.572 84.5731 276.824 85.7049 276.824 87.3456C276.824 88.9863 275.564 90.0725 273.932 90.0725C272.209 90.0725 270.994 88.9787 270.994 87.3456C270.994 85.7125 272.209 84.5731 273.932 84.5731ZM271.374 58.9293C271.374 58.0482 271.624 57.752 272.588 57.752H275.443C276.407 57.752 276.657 58.0482 276.657 58.9293V80.1674C276.657 81.0486 276.407 81.3448 275.443 81.3448H272.588C271.624 81.3448 271.374 81.0486 271.374 80.1674V58.9293Z" fill="#FF65BE"/>
<path d="M93.7782 29.989C93.7402 31.0297 93.5656 31.3183 92.5939 31.4247C90.4759 31.6753 88.2515 31.8576 85.8526 31.8197C78.9292 31.7133 71.8994 27.5128 71.8994 17.8204C71.8994 8.20401 80.2577 3.71483 89.0866 4.57317C89.9444 4.67951 90.0887 4.82384 90.0887 5.54545L90.0507 7.95335C90.0507 8.70534 89.7623 8.7813 89.079 8.74332C81.4344 8.45467 76.4543 11.9032 76.4543 18.4357C76.4543 24.8618 81.366 28.1281 88.8285 27.3761L89.5801 27.3077L89.7243 21.4892H84.5621C83.8105 21.4892 83.56 21.2766 83.56 20.517V18.2534C83.56 17.5014 83.8105 17.3191 84.5621 17.3191H93.1025C93.8541 17.3191 94.1805 17.5014 94.1426 18.2534L93.7782 29.989Z" fill="#3A3A3A" stroke="white" stroke-width="11" stroke-miterlimit="10" stroke-linecap="round" stroke-linejoin="round"/>
<path d="M96.7843 31.4622C95.7822 31.0673 95.5621 30.885 95.9569 29.7759L103.67 6.19068C104.133 4.75506 104.459 4.50439 105.712 4.50439H109.265C110.517 4.50439 110.844 4.75506 111.307 6.19068L119.058 29.7759C119.453 30.9609 119.202 31.0673 118.23 31.4622L116.469 32.1079C115.573 32.4345 115.323 32.2142 114.996 31.2496L113.023 25.4007H101.939L100.003 31.2496C99.7146 32.0775 99.4262 32.4345 98.5304 32.1079L96.7843 31.4622ZM107.481 8.91761L103.359 21.2306H111.649L107.481 8.91761Z" fill="#3A3A3A" stroke="white" stroke-width="11" stroke-miterlimit="10" stroke-linecap="round" stroke-linejoin="round"/>
<path d="M125.662 31.2422C125.556 31.9259 125.45 32.0702 124.767 31.9638L121.935 31.6752C121.328 31.5689 121.145 31.4245 121.252 30.5966L123.939 5.72001C124.045 4.60341 124.228 4.49707 125.374 4.49707H128.175C129.147 4.49707 129.215 4.67937 129.572 5.89472L135.387 24.5958L141.202 5.90231C141.559 4.67937 141.635 4.50467 142.599 4.50467H145.4C146.547 4.50467 146.729 4.61101 146.835 5.72761L149.523 30.6042C149.629 31.4321 149.454 31.5764 148.839 31.6828L146.008 31.9714C145.324 32.0778 145.218 31.9335 145.112 31.2498L143.176 12.8374L137.581 30.8548C137.331 31.7132 137.186 31.8271 136.215 31.8271H134.567C133.596 31.8271 133.459 31.7208 133.201 30.8548L127.53 12.6551L125.662 31.2422Z" fill="#3A3A3A" stroke="white" stroke-width="11" stroke-miterlimit="10" stroke-linecap="round" stroke-linejoin="round"/>
<path d="M154.328 31.8192C153.577 31.8192 153.326 31.6369 153.326 30.8849L152.969 5.43869C152.969 4.6867 153.258 4.50439 154.009 4.50439H169.367C170.118 4.50439 170.407 4.6867 170.407 5.43869V7.70227C170.407 8.45426 170.118 8.67454 169.367 8.67454H157.494L157.562 15.8906H168.038C168.79 15.8906 169.078 16.0729 169.078 16.8249V19.0885C169.078 19.8405 168.79 20.0608 168.038 20.0608H157.638L157.744 27.6719H168.183C168.934 27.6719 169.185 27.8846 169.185 28.6442V30.9077C169.185 31.6597 168.934 31.842 168.183 31.842H154.328V31.8192Z" fill="#3A3A3A" stroke="white" stroke-width="11" stroke-miterlimit="10" stroke-linecap="round" stroke-linejoin="round"/>
<path d="M184.641 28.5532C184.641 28.2645 184.823 27.7252 185.142 27.4062C188.118 24.7173 196.301 18.0708 196.301 13.4449C196.301 10.1028 194.366 8.56078 191.063 8.56078C188.444 8.56078 186.007 9.67738 184.747 10.3534C184.034 10.7864 183.745 10.7864 183.495 9.95843L182.849 7.9835C182.599 7.12516 182.705 6.87449 183.388 6.47951C185.4 5.33253 187.655 4.18555 191.709 4.18555C196.195 4.18555 200.818 6.37316 200.818 12.8373C200.818 18.4355 195.656 23.5323 190.919 27.6949H199.171C199.923 27.6949 200.173 27.8772 200.173 28.6291V30.8927C200.173 31.6447 199.923 31.827 199.171 31.827H185.643C184.891 31.827 184.641 31.6447 184.641 30.8927V28.5532V28.5532Z" fill="#3A3A3A" stroke="white" stroke-width="11" stroke-miterlimit="10" stroke-linecap="round" stroke-linejoin="round"/>
<path d="M203.332 29.9129C203.332 28.3329 204.554 27.1479 206.239 27.1479C207.856 27.1479 209.109 28.3329 209.109 29.9129C209.109 31.4928 207.856 32.6778 206.239 32.6778C204.554 32.6778 203.332 31.4928 203.332 29.9129Z" fill="#3A3A3A" stroke="white" stroke-width="11" stroke-miterlimit="10" stroke-linecap="round" stroke-linejoin="round"/>
<path d="M93.7782 29.989C93.7402 31.0297 93.5656 31.3183 92.5939 31.4247C90.4759 31.6753 88.2515 31.8576 85.8526 31.8197C78.9292 31.7133 71.8994 27.5128 71.8994 17.8204C71.8994 8.20401 80.2577 3.71483 89.0866 4.57317C89.9444 4.67951 90.0887 4.82384 90.0887 5.54545L90.0507 7.95335C90.0507 8.70534 89.7623 8.7813 89.079 8.74332C81.4344 8.45467 76.4543 11.9032 76.4543 18.4357C76.4543 24.8618 81.366 28.1281 88.8285 27.3761L89.5801 27.3077L89.7243 21.4892H84.5621C83.8105 21.4892 83.56 21.2766 83.56 20.517V18.2534C83.56 17.5014 83.8105 17.3191 84.5621 17.3191H93.1025C93.8541 17.3191 94.1805 17.5014 94.1426 18.2534L93.7782 29.989Z" fill="#4CBCAF"/>
<path d="M96.7843 31.4622C95.7822 31.0673 95.5621 30.885 95.9569 29.7759L103.67 6.19068C104.133 4.75506 104.459 4.50439 105.712 4.50439H109.265C110.517 4.50439 110.844 4.75506 111.307 6.19068L119.058 29.7759C119.453 30.9609 119.202 31.0673 118.23 31.4622L116.469 32.1079C115.573 32.4345 115.323 32.2142 114.996 31.2496L113.023 25.4007H101.939L100.003 31.2496C99.7146 32.0775 99.4262 32.4345 98.5304 32.1079L96.7843 31.4622ZM107.481 8.91761L103.359 21.2306H111.649L107.481 8.91761Z" fill="#4CBCAF"/>
<path d="M125.662 31.2422C125.556 31.9259 125.45 32.0702 124.767 31.9638L121.935 31.6752C121.328 31.5689 121.145 31.4245 121.252 30.5966L123.939 5.72001C124.045 4.60341 124.228 4.49707 125.374 4.49707H128.175C129.147 4.49707 129.215 4.67937 129.572 5.89472L135.387 24.5958L141.202 5.90231C141.559 4.67937 141.635 4.50467 142.599 4.50467H145.4C146.547 4.50467 146.729 4.61101 146.835 5.72761L149.523 30.6042C149.629 31.4321 149.454 31.5764 148.839 31.6828L146.008 31.9714C145.324 32.0778 145.218 31.9335 145.112 31.2498L143.176 12.8374L137.581 30.8548C137.331 31.7132 137.186 31.8271 136.215 31.8271H134.567C133.596 31.8271 133.459 31.7208 133.201 30.8548L127.53 12.6551L125.662 31.2422Z" fill="#4CBCAF"/>
<path d="M154.328 31.8192C153.577 31.8192 153.326 31.6369 153.326 30.8849L152.969 5.43869C152.969 4.6867 153.258 4.50439 154.009 4.50439H169.367C170.118 4.50439 170.407 4.6867 170.407 5.43869V7.70227C170.407 8.45426 170.118 8.67454 169.367 8.67454H157.494L157.562 15.8906H168.038C168.79 15.8906 169.078 16.0729 169.078 16.8249V19.0885C169.078 19.8405 168.79 20.0608 168.038 20.0608H157.638L157.744 27.6719H168.183C168.934 27.6719 169.185 27.8846 169.185 28.6442V30.9077C169.185 31.6597 168.934 31.842 168.183 31.842H154.328V31.8192Z" fill="#4CBCAF"/>
<path d="M184.641 28.5532C184.641 28.2645 184.823 27.7252 185.142 27.4062C188.118 24.7173 196.301 18.0708 196.301 13.4449C196.301 10.1028 194.366 8.56078 191.063 8.56078C188.444 8.56078 186.007 9.67738 184.747 10.3534C184.034 10.7864 183.745 10.7864 183.495 9.95843L182.849 7.9835C182.599 7.12516 182.705 6.87449 183.388 6.47951C185.4 5.33253 187.655 4.18555 191.709 4.18555C196.195 4.18555 200.818 6.37316 200.818 12.8373C200.818 18.4355 195.656 23.5323 190.919 27.6949H199.171C199.923 27.6949 200.173 27.8772 200.173 28.6291V30.8927C200.173 31.6447 199.923 31.827 199.171 31.827H185.643C184.891 31.827 184.641 31.6447 184.641 30.8927V28.5532V28.5532Z" fill="#4CBCAF"/>
<path d="M203.332 29.9129C203.332 28.3329 204.554 27.1479 206.239 27.1479C207.856 27.1479 209.109 28.3329 209.109 29.9129C209.109 31.4928 207.856 32.6778 206.239 32.6778C204.554 32.6778 203.332 31.4928 203.332 29.9129Z" fill="#4CBCAF"/>
</g>
<defs>
<clipPath id="clip0_396_4881">
<rect width="281" height="100" fill="white"/>
</clipPath>
</defs>
</svg>
