<svg width="357" height="109" viewBox="0 0 357 109" fill="none" xmlns="http://www.w3.org/2000/svg">
<g clip-path="url(#clip0_293_193)">
<path d="M70.56 64.6701C70.98 65.8401 71.29 67.1601 71.5 68.6301C71.71 70.1001 71.81 71.5801 71.81 73.0901C71.81 74.6001 71.7 76.0901 71.5 77.5501C71.29 79.0201 71.02 80.2901 70.68 81.3801C69.34 86.0701 66.66 89.9901 62.64 93.1301C58.62 96.2701 54.04 98.5501 48.88 99.9801C43.73 101.4 38.41 101.91 32.93 101.49C27.44 101.07 22.57 99.6901 18.3 97.3401C15.62 95.8301 13.32 93.9901 11.39 91.8101C9.46004 89.6301 7.83004 87.2101 6.49004 84.5201C5.99004 83.6001 5.67004 82.5301 5.55004 81.3201C5.42004 80.1101 5.53004 78.9301 5.86004 77.8001C6.19004 76.6701 6.74004 75.6601 7.49004 74.7901C8.24004 73.9101 9.29004 73.3001 10.63 72.9701C11.47 72.8001 12.41 72.7201 13.46 72.7201C14.51 72.7201 15.53 72.8701 16.54 73.1601C17.54 73.4501 18.47 73.9101 19.3 74.5401C20.14 75.1701 20.81 76.0301 21.31 77.1201C22.23 78.8801 23.55 80.4901 25.27 81.9601C26.99 83.4301 28.81 84.6201 30.73 85.5401C33.49 86.4601 36.28 86.8401 39.08 86.6701C41.88 86.5001 44.44 85.8801 46.74 84.7901C49.04 83.7001 50.91 82.2101 52.33 80.3301C53.75 78.4501 54.47 76.2901 54.47 73.8601C54.47 71.8501 54.18 70.2001 53.59 68.9001C53 67.6001 52.19 66.5101 51.14 65.6301C50.09 64.7501 48.84 64.0201 47.37 63.4301C45.9 62.8401 44.29 62.3401 42.53 61.9201C40.52 61.5001 38.49 61.2101 36.44 61.0401C34.39 60.8701 32.31 60.6601 30.22 60.4101C28.13 60.1601 26.07 59.8301 24.06 59.4101C22.05 58.9901 20.08 58.3601 18.16 57.5301C14.31 55.9401 11.38 53.5101 9.37004 50.2401C7.36004 46.9701 6.17004 43.4601 5.79004 39.6901C5.41004 35.9201 5.85004 32.1701 7.11004 28.4501C8.37004 24.7201 10.38 21.5201 13.14 18.8401C15.82 16.4101 19.02 14.6701 22.75 13.6301C26.48 12.5801 30.6 11.9801 35.12 11.8101C37.63 11.7301 40.16 11.8101 42.72 12.0601C45.27 12.3101 47.75 12.7301 50.13 13.3201C52.52 13.9101 54.73 14.6601 56.79 15.5801C58.84 16.5001 60.62 17.5901 62.13 18.8501C63.22 19.6901 64.31 20.8001 65.4 22.1801C66.49 23.5601 67.33 25.0301 67.91 26.5801C68.5 28.1301 68.68 29.6201 68.48 31.0401C68.27 32.4701 67.37 33.6801 65.78 34.6801C64.44 35.5201 63.16 35.8701 61.95 35.7501C60.74 35.6201 59.58 35.2501 58.5 34.6201C57.41 33.9901 56.36 33.2601 55.36 32.4201C54.35 31.5801 53.43 30.8301 52.6 30.1601C50.34 28.4901 47.53 27.3601 44.18 26.7701C40.83 26.1901 37.69 26.0601 34.76 26.3901C32.92 26.6401 31.2 27.0601 29.61 27.6501C28.02 28.2401 26.66 29.0301 25.53 30.0401C24.4 31.0401 23.52 32.2801 22.89 33.7501C22.26 35.2201 22.03 36.8701 22.2 38.7101C22.28 40.0501 22.68 41.1801 23.39 42.1001C24.1 43.0201 24.98 43.7801 26.03 44.3601C27.08 44.9501 28.23 45.4101 29.49 45.7401C30.75 46.0801 32 46.3301 33.26 46.4901C37.03 46.9901 40.8 47.3701 44.57 47.6201C48.34 47.8701 52.02 48.7101 55.62 50.1301C59.3 51.5601 62.44 53.4801 65.04 55.9101C67.63 58.3001 69.47 61.2301 70.56 64.6701Z" fill="black" stroke="white" stroke-width="11" stroke-miterlimit="10" stroke-linecap="round" stroke-linejoin="round"/>
<path d="M128.72 45.82C129.39 47.41 129.45 49.17 128.91 51.1C128.36 53.03 127.38 54.28 125.96 54.87C125.21 55.21 124.2 55.48 122.95 55.69C121.69 55.9 120.33 56.09 118.87 56.26C117.4 56.43 115.96 56.55 114.54 56.64C113.11 56.72 111.9 56.77 110.9 56.77C110.98 59.28 111.07 61.86 111.15 64.5C111.23 67.14 111.32 69.71 111.4 72.23C111.48 74.74 111.53 77.15 111.53 79.45C111.53 81.75 111.49 83.83 111.4 85.67C111.4 86.93 111.4 88.37 111.4 90C111.4 91.63 111.29 93.2 111.09 94.71C110.88 96.22 110.57 97.54 110.15 98.67C109.73 99.8 109.1 100.53 108.27 100.87C105.67 101.96 103.31 102.27 101.17 101.81C99.0301 101.35 97.5101 100.45 96.5801 99.11C95.9101 98.02 95.4101 96.74 95.0701 95.28C94.7301 93.81 94.5001 92.31 94.3801 90.76C94.2501 89.21 94.2101 87.7 94.2501 86.24C94.2901 84.78 94.3101 83.5 94.3101 82.41C94.3901 78.89 94.4601 74.89 94.5001 70.41C94.5401 65.93 94.5601 61.43 94.5601 56.91H92.6801C91.6701 56.91 90.4001 56.89 88.8501 56.85C87.3001 56.81 85.7501 56.68 84.2001 56.47C82.6501 56.26 81.2001 55.97 79.8701 55.59C78.5301 55.21 77.5701 54.65 76.9801 53.89C76.0601 52.8 75.4901 51.63 75.2801 50.37C75.0701 49.11 75.1501 47.92 75.5301 46.79C75.9101 45.66 76.5101 44.65 77.3501 43.78C78.1901 42.9 79.1501 42.34 80.2401 42.08C81.7501 41.66 83.8801 41.43 86.6501 41.39C89.4101 41.35 92.0101 41.37 94.4401 41.45C94.3601 40.61 94.3101 39.8 94.3101 39C94.3101 38.2 94.2701 37.43 94.1801 36.68C94.1001 35.67 94.0501 34.4 94.0501 32.85C94.0501 31.3 94.1501 29.75 94.3601 28.2C94.5701 26.65 94.9301 25.19 95.4301 23.8C95.9301 22.42 96.6401 21.35 97.5701 20.6C98.8301 19.6 100.1 19.03 101.4 18.9C102.7 18.77 103.91 18.96 105.04 19.47C106.17 19.97 107.13 20.71 107.93 21.67C108.72 22.63 109.29 23.7 109.63 24.87C109.88 25.87 110.09 27.07 110.26 28.45C110.43 29.83 110.53 31.28 110.57 32.78C110.61 34.29 110.63 35.79 110.63 37.3C110.63 38.81 110.63 40.19 110.63 41.45H111.89C113.15 41.45 114.61 41.41 116.29 41.32C117.96 41.24 119.62 41.28 121.25 41.45C122.88 41.62 124.37 42.02 125.71 42.64C127.05 43.25 128.05 44.32 128.72 45.82Z" fill="black" stroke="white" stroke-width="11" stroke-miterlimit="10" stroke-linecap="round" stroke-linejoin="round"/>
<path d="M148.7 48.34C151.21 47.08 153.85 46.18 156.61 45.64C159.37 45.1 162.12 44.97 164.84 45.26C167.56 45.55 170.18 46.26 172.69 47.4C175.2 48.53 177.55 50.14 179.72 52.24C181.9 54.42 183.57 56.81 184.74 59.4C185.91 62 186.75 64.89 187.25 68.07C187.58 70.25 188.13 72.26 188.88 74.1C189.63 75.94 190.45 77.79 191.33 79.63C192.21 81.47 193.05 83.32 193.84 85.16C194.63 87 195.28 88.93 195.79 90.94C196.21 92.87 196.06 94.73 195.35 96.53C194.64 98.33 193.19 99.44 191.02 99.86C189.76 100.11 188.57 100.01 187.44 99.55C186.31 99.09 185.28 98.42 184.36 97.54C183.44 96.66 182.62 95.7 181.91 94.65C181.2 93.6 180.55 92.62 179.96 91.7C178.03 94.21 175.94 96.16 173.68 97.54C171.42 98.92 168.7 99.82 165.51 100.24C162.83 100.57 160.27 100.66 157.85 100.49C155.42 100.32 152.82 99.86 150.06 99.11C146.46 98.19 143.51 96.58 141.2 94.27C138.9 91.97 137.14 89.29 135.92 86.23C134.71 83.17 134.06 79.89 133.97 76.37C133.89 72.85 134.3 69.38 135.23 65.94C136.4 61.42 138.16 57.73 140.51 54.88C142.87 52.02 145.6 49.84 148.7 48.34ZM151.84 63.03C150.67 64.2 149.75 65.59 149.08 67.18C148.41 68.77 148.01 70.45 147.89 72.2C147.76 73.96 147.91 75.72 148.33 77.48C148.75 79.24 149.42 80.79 150.34 82.13C151.18 83.3 152.6 84.29 154.61 85.08C156.62 85.88 158.71 86.36 160.89 86.52C163.4 86.69 165.6 86.02 167.48 84.51C169.36 83 170.79 81.1 171.75 78.79C172.71 76.49 173.15 74.02 173.07 71.38C172.99 68.74 172.27 66.34 170.93 64.16C169.92 62.57 168.61 61.4 166.97 60.64C165.34 59.89 163.6 59.49 161.76 59.45C159.92 59.41 158.1 59.7 156.3 60.33C154.49 60.96 153.01 61.86 151.84 63.03Z" fill="black" stroke="white" stroke-width="11" stroke-miterlimit="10" stroke-linecap="round" stroke-linejoin="round"/>
<path d="M206.36 56.7499C206.36 55.7499 206.36 54.5899 206.36 53.2999C206.36 51.9999 206.4 50.6599 206.49 49.2799C206.57 47.8999 206.72 46.5599 206.93 45.2599C207.14 43.9599 207.45 42.8099 207.87 41.8099C208.54 40.2999 209.59 39.2799 211.01 38.7299C212.43 38.1899 213.98 37.9599 215.66 38.0399C217.42 38.0399 218.8 38.3299 219.81 38.9199C220.82 39.5099 221.57 40.2799 222.07 41.2399C222.57 42.1999 222.89 43.2899 223.01 44.5099C223.14 45.7199 223.2 46.9999 223.2 48.3399C223.95 46.9999 224.98 45.9099 226.28 45.0699C227.58 44.2299 228.9 43.5599 230.24 43.0599C231.58 42.5599 232.79 42.1999 233.88 41.9899C234.97 41.7799 235.6 41.6799 235.76 41.6799C237.85 41.5099 239.76 41.4699 241.48 41.5499C243.2 41.6299 245.1 42.0099 247.2 42.6799C248.54 43.1799 249.92 43.8699 251.35 44.7499C252.77 45.6299 254.03 46.6599 255.12 47.8299C256.21 48.9999 256.94 50.2799 257.32 51.6599C257.7 53.0399 257.51 54.4899 256.75 55.9899C255.58 58.0799 254.28 59.1099 252.86 59.0699C251.43 59.0299 249.89 58.7999 248.21 58.3799C247.29 58.2099 246.2 57.8399 244.94 57.2499C243.68 56.6699 242.59 56.2899 241.67 56.1199C238.82 55.6999 236.31 55.9099 234.13 56.7499C231.95 57.5899 230.07 58.5899 228.48 59.7599C226.64 61.1899 225.04 62.8199 223.71 64.6599V82.7499C223.71 85.0099 223.69 87.3599 223.65 89.7799C223.61 92.2099 223.27 94.4099 222.65 96.3799C222.02 98.3499 220.97 99.9399 219.51 101.15C218.04 102.36 215.93 102.89 213.17 102.72C211.66 102.64 210.32 101.9 209.15 100.52C207.98 99.1399 207.27 97.7799 207.01 96.4399C206.84 95.1799 206.72 93.6799 206.63 91.9199C206.55 90.1599 206.48 88.3199 206.44 86.3899C206.4 84.4599 206.38 82.5199 206.38 80.5499C206.38 78.5799 206.38 76.7599 206.38 75.0899V56.7499H206.36Z" fill="black" stroke="white" stroke-width="11" stroke-miterlimit="10" stroke-linecap="round" stroke-linejoin="round"/>
<path d="M317.4 45.82C318.07 47.41 318.13 49.17 317.59 51.1C317.04 53.03 316.06 54.28 314.64 54.87C313.89 55.21 312.88 55.48 311.63 55.69C310.37 55.9 309.01 56.09 307.55 56.26C306.08 56.43 304.64 56.55 303.22 56.64C301.79 56.72 300.58 56.77 299.58 56.77C299.66 59.28 299.75 61.86 299.83 64.5C299.91 67.14 300 69.71 300.08 72.23C300.16 74.74 300.21 77.15 300.21 79.45C300.21 81.75 300.17 83.83 300.08 85.67C300.08 86.93 300.08 88.37 300.08 90C300.08 91.63 299.97 93.2 299.77 94.71C299.56 96.22 299.25 97.54 298.83 98.67C298.41 99.8 297.78 100.53 296.95 100.87C294.35 101.96 291.99 102.27 289.85 101.81C287.71 101.35 286.19 100.45 285.26 99.11C284.59 98.02 284.09 96.74 283.75 95.28C283.41 93.81 283.18 92.31 283.06 90.76C282.93 89.21 282.89 87.7 282.93 86.24C282.97 84.78 282.99 83.5 282.99 82.41C283.07 78.89 283.14 74.89 283.18 70.41C283.22 65.93 283.24 61.43 283.24 56.91H281.36C280.35 56.91 279.08 56.89 277.53 56.85C275.98 56.81 274.43 56.68 272.88 56.47C271.33 56.26 269.88 55.97 268.55 55.59C267.21 55.21 266.25 54.65 265.66 53.89C264.74 52.8 264.17 51.63 263.96 50.37C263.75 49.11 263.83 47.92 264.21 46.79C264.59 45.66 265.19 44.65 266.03 43.78C266.87 42.9 267.83 42.34 268.92 42.08C270.43 41.66 272.56 41.43 275.33 41.39C278.09 41.35 280.69 41.37 283.12 41.45C283.04 40.61 282.99 39.8 282.99 39C282.99 38.2 282.95 37.43 282.86 36.68C282.78 35.67 282.73 34.4 282.73 32.85C282.73 31.3 282.83 29.75 283.04 28.2C283.25 26.65 283.61 25.19 284.11 23.8C284.61 22.42 285.32 21.35 286.25 20.6C287.51 19.6 288.78 19.03 290.08 18.9C291.38 18.77 292.59 18.96 293.72 19.47C294.85 19.97 295.81 20.71 296.61 21.67C297.4 22.63 297.97 23.7 298.31 24.87C298.56 25.87 298.77 27.07 298.94 28.45C299.11 29.83 299.21 31.28 299.25 32.78C299.29 34.29 299.31 35.79 299.31 37.3C299.31 38.81 299.31 40.19 299.31 41.45H300.57C301.83 41.45 303.29 41.41 304.97 41.32C306.64 41.24 308.3 41.28 309.93 41.45C311.56 41.62 313.05 42.02 314.39 42.64C315.73 43.25 316.73 44.32 317.4 45.82Z" fill="black" stroke="white" stroke-width="11" stroke-miterlimit="10" stroke-linecap="round" stroke-linejoin="round"/>
<path d="M333.73 8.64C334.4 7.55 335.32 6.76 336.49 6.25C337.66 5.75 338.79 5.5 339.88 5.5C340.8 5.5 341.7 5.52 342.58 5.56C343.46 5.6 344.32 5.71 345.15 5.87C346.91 6.37 348.16 7.48 348.92 9.2C349.67 10.92 350.15 12.89 350.36 15.1C350.57 17.32 350.61 19.52 350.49 21.7C350.36 23.88 350.3 25.64 350.3 26.98V64.04C350.3 65.72 350.3 67.39 350.3 69.06C350.3 70.74 350.01 72.33 349.42 73.83C348.83 75.26 347.74 76.3 346.15 76.97C344.56 77.64 342.88 77.96 341.12 77.91C339.36 77.87 337.69 77.49 336.1 76.78C334.51 76.07 333.42 75.04 332.83 73.7C332.58 72.95 332.39 72 332.26 70.87C332.13 69.74 332.03 68.71 331.95 67.79C331.87 66.37 331.84 64.88 331.89 63.33C331.93 61.78 331.95 60.21 331.95 58.62V16.55C331.95 15.54 332.08 14.25 332.33 12.66C332.6 11.07 333.06 9.73 333.73 8.64ZM348.18 89.41C348.43 89.83 348.66 90.23 348.87 90.6C349.08 90.98 349.27 91.42 349.44 91.92C349.69 92.84 349.86 93.8 349.94 94.81C350.02 95.81 349.94 96.8 349.69 97.76C349.44 98.72 349.02 99.62 348.43 100.46C347.84 101.3 347.05 101.92 346.04 102.34C345.12 102.76 344.03 103.01 342.77 103.09C341.51 103.17 340.3 103.09 339.13 102.84C337.96 102.59 336.87 102.13 335.86 101.46C334.86 100.79 334.14 99.91 333.72 98.82C333.3 97.65 333.07 96.29 333.03 94.74C332.99 93.19 333.18 91.83 333.6 90.66C334.1 89.4 334.9 88.55 335.99 88.08C337.08 87.62 338.25 87.39 339.51 87.39C341.1 87.31 342.67 87.35 344.22 87.52C345.77 87.7 347.09 88.33 348.18 89.41Z" fill="black" stroke="white" stroke-width="11" stroke-miterlimit="10" stroke-linecap="round" stroke-linejoin="round"/>
<path d="M70.56 64.6701C70.98 65.8401 71.29 67.1601 71.5 68.6301C71.71 70.1001 71.81 71.5801 71.81 73.0901C71.81 74.6001 71.7 76.0901 71.5 77.5501C71.29 79.0201 71.02 80.2901 70.68 81.3801C69.34 86.0701 66.66 89.9901 62.64 93.1301C58.62 96.2701 54.04 98.5501 48.88 99.9801C43.73 101.4 38.41 101.91 32.93 101.49C27.44 101.07 22.57 99.6901 18.3 97.3401C15.62 95.8301 13.32 93.9901 11.39 91.8101C9.46004 89.6301 7.83004 87.2101 6.49004 84.5201C5.99004 83.6001 5.67004 82.5301 5.55004 81.3201C5.42004 80.1101 5.53004 78.9301 5.86004 77.8001C6.19004 76.6701 6.74004 75.6601 7.49004 74.7901C8.24004 73.9101 9.29004 73.3001 10.63 72.9701C11.47 72.8001 12.41 72.7201 13.46 72.7201C14.51 72.7201 15.53 72.8701 16.54 73.1601C17.54 73.4501 18.47 73.9101 19.3 74.5401C20.14 75.1701 20.81 76.0301 21.31 77.1201C22.23 78.8801 23.55 80.4901 25.27 81.9601C26.99 83.4301 28.81 84.6201 30.73 85.5401C33.49 86.4601 36.28 86.8401 39.08 86.6701C41.88 86.5001 44.44 85.8801 46.74 84.7901C49.04 83.7001 50.91 82.2101 52.33 80.3301C53.75 78.4501 54.47 76.2901 54.47 73.8601C54.47 71.8501 54.18 70.2001 53.59 68.9001C53 67.6001 52.19 66.5101 51.14 65.6301C50.09 64.7501 48.84 64.0201 47.37 63.4301C45.9 62.8401 44.29 62.3401 42.53 61.9201C40.52 61.5001 38.49 61.2101 36.44 61.0401C34.39 60.8701 32.31 60.6601 30.22 60.4101C28.13 60.1601 26.07 59.8301 24.06 59.4101C22.05 58.9901 20.08 58.3601 18.16 57.5301C14.31 55.9401 11.38 53.5101 9.37004 50.2401C7.36004 46.9701 6.17004 43.4601 5.79004 39.6901C5.41004 35.9201 5.85004 32.1701 7.11004 28.4501C8.37004 24.7201 10.38 21.5201 13.14 18.8401C15.82 16.4101 19.02 14.6701 22.75 13.6301C26.48 12.5801 30.6 11.9801 35.12 11.8101C37.63 11.7301 40.16 11.8101 42.72 12.0601C45.27 12.3101 47.75 12.7301 50.13 13.3201C52.52 13.9101 54.73 14.6601 56.79 15.5801C58.84 16.5001 60.62 17.5901 62.13 18.8501C63.22 19.6901 64.31 20.8001 65.4 22.1801C66.49 23.5601 67.33 25.0301 67.91 26.5801C68.5 28.1301 68.68 29.6201 68.48 31.0401C68.27 32.4701 67.37 33.6801 65.78 34.6801C64.44 35.5201 63.16 35.8701 61.95 35.7501C60.74 35.6201 59.58 35.2501 58.5 34.6201C57.41 33.9901 56.36 33.2601 55.36 32.4201C54.35 31.5801 53.43 30.8301 52.6 30.1601C50.34 28.4901 47.53 27.3601 44.18 26.7701C40.83 26.1901 37.69 26.0601 34.76 26.3901C32.92 26.6401 31.2 27.0601 29.61 27.6501C28.02 28.2401 26.66 29.0301 25.53 30.0401C24.4 31.0401 23.52 32.2801 22.89 33.7501C22.26 35.2201 22.03 36.8701 22.2 38.7101C22.28 40.0501 22.68 41.1801 23.39 42.1001C24.1 43.0201 24.98 43.7801 26.03 44.3601C27.08 44.9501 28.23 45.4101 29.49 45.7401C30.75 46.0801 32 46.3301 33.26 46.4901C37.03 46.9901 40.8 47.3701 44.57 47.6201C48.34 47.8701 52.02 48.7101 55.62 50.1301C59.3 51.5601 62.44 53.4801 65.04 55.9101C67.63 58.3001 69.47 61.2301 70.56 64.6701Z" fill="#0DC9A5"/>
<path d="M128.72 45.82C129.39 47.41 129.45 49.17 128.91 51.1C128.36 53.03 127.38 54.28 125.96 54.87C125.21 55.21 124.2 55.48 122.95 55.69C121.69 55.9 120.33 56.09 118.87 56.26C117.4 56.43 115.96 56.55 114.54 56.64C113.11 56.72 111.9 56.77 110.9 56.77C110.98 59.28 111.07 61.86 111.15 64.5C111.23 67.14 111.32 69.71 111.4 72.23C111.48 74.74 111.53 77.15 111.53 79.45C111.53 81.75 111.49 83.83 111.4 85.67C111.4 86.93 111.4 88.37 111.4 90C111.4 91.63 111.29 93.2 111.09 94.71C110.88 96.22 110.57 97.54 110.15 98.67C109.73 99.8 109.1 100.53 108.27 100.87C105.67 101.96 103.31 102.27 101.17 101.81C99.0301 101.35 97.5101 100.45 96.5801 99.11C95.9101 98.02 95.4101 96.74 95.0701 95.28C94.7301 93.81 94.5001 92.31 94.3801 90.76C94.2501 89.21 94.2101 87.7 94.2501 86.24C94.2901 84.78 94.3101 83.5 94.3101 82.41C94.3901 78.89 94.4601 74.89 94.5001 70.41C94.5401 65.93 94.5601 61.43 94.5601 56.91H92.6801C91.6701 56.91 90.4001 56.89 88.8501 56.85C87.3001 56.81 85.7501 56.68 84.2001 56.47C82.6501 56.26 81.2001 55.97 79.8701 55.59C78.5301 55.21 77.5701 54.65 76.9801 53.89C76.0601 52.8 75.4901 51.63 75.2801 50.37C75.0701 49.11 75.1501 47.92 75.5301 46.79C75.9101 45.66 76.5101 44.65 77.3501 43.78C78.1901 42.9 79.1501 42.34 80.2401 42.08C81.7501 41.66 83.8801 41.43 86.6501 41.39C89.4101 41.35 92.0101 41.37 94.4401 41.45C94.3601 40.61 94.3101 39.8 94.3101 39C94.3101 38.2 94.2701 37.43 94.1801 36.68C94.1001 35.67 94.0501 34.4 94.0501 32.85C94.0501 31.3 94.1501 29.75 94.3601 28.2C94.5701 26.65 94.9301 25.19 95.4301 23.8C95.9301 22.42 96.6401 21.35 97.5701 20.6C98.8301 19.6 100.1 19.03 101.4 18.9C102.7 18.77 103.91 18.96 105.04 19.47C106.17 19.97 107.13 20.71 107.93 21.67C108.72 22.63 109.29 23.7 109.63 24.87C109.88 25.87 110.09 27.07 110.26 28.45C110.43 29.83 110.53 31.28 110.57 32.78C110.61 34.29 110.63 35.79 110.63 37.3C110.63 38.81 110.63 40.19 110.63 41.45H111.89C113.15 41.45 114.61 41.41 116.29 41.32C117.96 41.24 119.62 41.28 121.25 41.45C122.88 41.62 124.37 42.02 125.71 42.64C127.05 43.25 128.05 44.32 128.72 45.82Z" fill="#0DC9A5"/>
<path d="M148.7 48.34C151.21 47.08 153.85 46.18 156.61 45.64C159.37 45.1 162.12 44.97 164.84 45.26C167.56 45.55 170.18 46.26 172.69 47.4C175.2 48.53 177.55 50.14 179.72 52.24C181.9 54.42 183.57 56.81 184.74 59.4C185.91 62 186.75 64.89 187.25 68.07C187.58 70.25 188.13 72.26 188.88 74.1C189.63 75.94 190.45 77.79 191.33 79.63C192.21 81.47 193.05 83.32 193.84 85.16C194.63 87 195.28 88.93 195.79 90.94C196.21 92.87 196.06 94.73 195.35 96.53C194.64 98.33 193.19 99.44 191.02 99.86C189.76 100.11 188.57 100.01 187.44 99.55C186.31 99.09 185.28 98.42 184.36 97.54C183.44 96.66 182.62 95.7 181.91 94.65C181.2 93.6 180.55 92.62 179.96 91.7C178.03 94.21 175.94 96.16 173.68 97.54C171.42 98.92 168.7 99.82 165.51 100.24C162.83 100.57 160.27 100.66 157.85 100.49C155.42 100.32 152.82 99.86 150.06 99.11C146.46 98.19 143.51 96.58 141.2 94.27C138.9 91.97 137.14 89.29 135.92 86.23C134.71 83.17 134.06 79.89 133.97 76.37C133.89 72.85 134.3 69.38 135.23 65.94C136.4 61.42 138.16 57.73 140.51 54.88C142.87 52.02 145.6 49.84 148.7 48.34ZM151.84 63.03C150.67 64.2 149.75 65.59 149.08 67.18C148.41 68.77 148.01 70.45 147.89 72.2C147.76 73.96 147.91 75.72 148.33 77.48C148.75 79.24 149.42 80.79 150.34 82.13C151.18 83.3 152.6 84.29 154.61 85.08C156.62 85.88 158.71 86.36 160.89 86.52C163.4 86.69 165.6 86.02 167.48 84.51C169.36 83 170.79 81.1 171.75 78.79C172.71 76.49 173.15 74.02 173.07 71.38C172.99 68.74 172.27 66.34 170.93 64.16C169.92 62.57 168.61 61.4 166.97 60.64C165.34 59.89 163.6 59.49 161.76 59.45C159.92 59.41 158.1 59.7 156.3 60.33C154.49 60.96 153.01 61.86 151.84 63.03Z" fill="#0DC9A5"/>
<path d="M206.36 56.7499C206.36 55.7499 206.36 54.5899 206.36 53.2999C206.36 51.9999 206.4 50.6599 206.49 49.2799C206.57 47.8999 206.72 46.5599 206.93 45.2599C207.14 43.9599 207.45 42.8099 207.87 41.8099C208.54 40.2999 209.59 39.2799 211.01 38.7299C212.43 38.1899 213.98 37.9599 215.66 38.0399C217.42 38.0399 218.8 38.3299 219.81 38.9199C220.82 39.5099 221.57 40.2799 222.07 41.2399C222.57 42.1999 222.89 43.2899 223.01 44.5099C223.14 45.7199 223.2 46.9999 223.2 48.3399C223.95 46.9999 224.98 45.9099 226.28 45.0699C227.58 44.2299 228.9 43.5599 230.24 43.0599C231.58 42.5599 232.79 42.1999 233.88 41.9899C234.97 41.7799 235.6 41.6799 235.76 41.6799C237.85 41.5099 239.76 41.4699 241.48 41.5499C243.2 41.6299 245.1 42.0099 247.2 42.6799C248.54 43.1799 249.92 43.8699 251.35 44.7499C252.77 45.6299 254.03 46.6599 255.12 47.8299C256.21 48.9999 256.94 50.2799 257.32 51.6599C257.7 53.0399 257.51 54.4899 256.75 55.9899C255.58 58.0799 254.28 59.1099 252.86 59.0699C251.43 59.0299 249.89 58.7999 248.21 58.3799C247.29 58.2099 246.2 57.8399 244.94 57.2499C243.68 56.6699 242.59 56.2899 241.67 56.1199C238.82 55.6999 236.31 55.9099 234.13 56.7499C231.95 57.5899 230.07 58.5899 228.48 59.7599C226.64 61.1899 225.04 62.8199 223.71 64.6599V82.7499C223.71 85.0099 223.69 87.3599 223.65 89.7799C223.61 92.2099 223.27 94.4099 222.65 96.3799C222.02 98.3499 220.97 99.9399 219.51 101.15C218.04 102.36 215.93 102.89 213.17 102.72C211.66 102.64 210.32 101.9 209.15 100.52C207.98 99.1399 207.27 97.7799 207.01 96.4399C206.84 95.1799 206.72 93.6799 206.63 91.9199C206.55 90.1599 206.48 88.3199 206.44 86.3899C206.4 84.4599 206.38 82.5199 206.38 80.5499C206.38 78.5799 206.38 76.7599 206.38 75.0899V56.7499H206.36Z" fill="#0DC9A5"/>
<path d="M317.4 45.82C318.07 47.41 318.13 49.17 317.59 51.1C317.04 53.03 316.06 54.28 314.64 54.87C313.89 55.21 312.88 55.48 311.63 55.69C310.37 55.9 309.01 56.09 307.55 56.26C306.08 56.43 304.64 56.55 303.22 56.64C301.79 56.72 300.58 56.77 299.58 56.77C299.66 59.28 299.75 61.86 299.83 64.5C299.91 67.14 300 69.71 300.08 72.23C300.16 74.74 300.21 77.15 300.21 79.45C300.21 81.75 300.17 83.83 300.08 85.67C300.08 86.93 300.08 88.37 300.08 90C300.08 91.63 299.97 93.2 299.77 94.71C299.56 96.22 299.25 97.54 298.83 98.67C298.41 99.8 297.78 100.53 296.95 100.87C294.35 101.96 291.99 102.27 289.85 101.81C287.71 101.35 286.19 100.45 285.26 99.11C284.59 98.02 284.09 96.74 283.75 95.28C283.41 93.81 283.18 92.31 283.06 90.76C282.93 89.21 282.89 87.7 282.93 86.24C282.97 84.78 282.99 83.5 282.99 82.41C283.07 78.89 283.14 74.89 283.18 70.41C283.22 65.93 283.24 61.43 283.24 56.91H281.36C280.35 56.91 279.08 56.89 277.53 56.85C275.98 56.81 274.43 56.68 272.88 56.47C271.33 56.26 269.88 55.97 268.55 55.59C267.21 55.21 266.25 54.65 265.66 53.89C264.74 52.8 264.17 51.63 263.96 50.37C263.75 49.11 263.83 47.92 264.21 46.79C264.59 45.66 265.19 44.65 266.03 43.78C266.87 42.9 267.83 42.34 268.92 42.08C270.43 41.66 272.56 41.43 275.33 41.39C278.09 41.35 280.69 41.37 283.12 41.45C283.04 40.61 282.99 39.8 282.99 39C282.99 38.2 282.95 37.43 282.86 36.68C282.78 35.67 282.73 34.4 282.73 32.85C282.73 31.3 282.83 29.75 283.04 28.2C283.25 26.65 283.61 25.19 284.11 23.8C284.61 22.42 285.32 21.35 286.25 20.6C287.51 19.6 288.78 19.03 290.08 18.9C291.38 18.77 292.59 18.96 293.72 19.47C294.85 19.97 295.81 20.71 296.61 21.67C297.4 22.63 297.97 23.7 298.31 24.87C298.56 25.87 298.77 27.07 298.94 28.45C299.11 29.83 299.21 31.28 299.25 32.78C299.29 34.29 299.31 35.79 299.31 37.3C299.31 38.81 299.31 40.19 299.31 41.45H300.57C301.83 41.45 303.29 41.41 304.97 41.32C306.64 41.24 308.3 41.28 309.93 41.45C311.56 41.62 313.05 42.02 314.39 42.64C315.73 43.25 316.73 44.32 317.4 45.82Z" fill="#0DC9A5"/>
<path d="M333.73 8.64C334.4 7.55 335.32 6.76 336.49 6.25C337.66 5.75 338.79 5.5 339.88 5.5C340.8 5.5 341.7 5.52 342.58 5.56C343.46 5.6 344.32 5.71 345.15 5.87C346.91 6.37 348.16 7.48 348.92 9.2C349.67 10.92 350.15 12.89 350.36 15.1C350.57 17.32 350.61 19.52 350.49 21.7C350.36 23.88 350.3 25.64 350.3 26.98V64.04C350.3 65.72 350.3 67.39 350.3 69.06C350.3 70.74 350.01 72.33 349.42 73.83C348.83 75.26 347.74 76.3 346.15 76.97C344.56 77.64 342.88 77.96 341.12 77.91C339.36 77.87 337.69 77.49 336.1 76.78C334.51 76.07 333.42 75.04 332.83 73.7C332.58 72.95 332.39 72 332.26 70.87C332.13 69.74 332.03 68.71 331.95 67.79C331.87 66.37 331.84 64.88 331.89 63.33C331.93 61.78 331.95 60.21 331.95 58.62V16.55C331.95 15.54 332.08 14.25 332.33 12.66C332.6 11.07 333.06 9.73 333.73 8.64ZM348.18 89.41C348.43 89.83 348.66 90.23 348.87 90.6C349.08 90.98 349.27 91.42 349.44 91.92C349.69 92.84 349.86 93.8 349.94 94.81C350.02 95.81 349.94 96.8 349.69 97.76C349.44 98.72 349.02 99.62 348.43 100.46C347.84 101.3 347.05 101.92 346.04 102.34C345.12 102.76 344.03 103.01 342.77 103.09C341.51 103.17 340.3 103.09 339.13 102.84C337.96 102.59 336.87 102.13 335.86 101.46C334.86 100.79 334.14 99.91 333.72 98.82C333.3 97.65 333.07 96.29 333.03 94.74C332.99 93.19 333.18 91.83 333.6 90.66C334.1 89.4 334.9 88.55 335.99 88.08C337.08 87.62 338.25 87.39 339.51 87.39C341.1 87.31 342.67 87.35 344.22 87.52C345.77 87.7 347.09 88.33 348.18 89.41Z" fill="#0DC9A5"/>
</g>
<defs>
<clipPath id="clip0_293_193">
<rect width="356.07" height="108.64" fill="white"/>
</clipPath>
</defs>
</svg>
