<svg width="339" height="128" viewBox="0 0 339 128" fill="none" xmlns="http://www.w3.org/2000/svg">
<g clip-path="url(#clip0_293_180)">
<path d="M70.32 88.8102C70.4 89.6502 70.32 90.4402 70.07 91.2002C69.9 91.7002 69.67 92.1202 69.38 92.4602C69.09 92.7902 68.73 93.1302 68.31 93.4602C67.56 93.9602 66.63 94.4202 65.55 94.8402C64.88 95.0102 64.23 95.1502 63.6 95.2802C62.97 95.4102 62.32 95.3802 61.65 95.2202C60.31 95.1402 59.14 94.6302 58.13 93.7102C56.7 92.5402 55.53 91.2402 54.61 89.8202C54.19 89.1502 53.73 88.3902 53.23 87.5602C52.73 86.7202 52.27 85.8402 51.85 84.9202L37.91 58.4102C37.24 58.4102 36.57 58.4302 35.9 58.4702C35.23 58.5102 34.56 58.5802 33.89 58.6602C32.13 58.8302 30.48 58.8702 28.93 58.7902C27.38 58.7102 25.77 58.7102 24.09 58.7902H21.7V81.5302C21.7 82.2002 21.68 82.8302 21.64 83.4102C21.6 84.0002 21.58 84.6202 21.58 85.2902C21.58 85.7102 21.56 86.2502 21.52 86.9202C21.48 87.5902 21.41 88.2202 21.33 88.8002C21.16 89.7202 20.78 90.6602 20.2 91.6302C19.61 92.5902 18.82 93.4102 17.81 94.0802C16.05 95.1702 13.92 95.4602 11.4 94.9602C10.31 94.7102 9.26 94.2902 8.26 93.7002C7.92 93.4502 7.63 93.1302 7.38 92.7602C7.13 92.3802 6.92 91.9802 6.75 91.5702C6.58 91.1502 6.44 90.7102 6.31 90.2502C6.18 89.7902 6.04 89.3502 5.87 88.9302C5.63 88.1002 5.5 87.3002 5.5 86.5502V15.1902C5.5 14.6902 5.52 14.1702 5.56 13.6202C5.6 13.0802 5.66 12.6002 5.75 12.1802C5.83 11.2602 6.13 10.3402 6.63 9.42023C6.88 8.42023 7.3 7.70023 7.89 7.28023C8.39 6.78023 9.17 6.34023 10.21 5.96023C11.26 5.58023 12.79 5.44023 14.8 5.52023C18.57 5.60023 22.29 5.65023 25.98 5.65023C29.66 5.65023 33.35 5.73023 37.03 5.90023C39.46 6.07023 42.03 6.34023 44.76 6.72023C47.48 7.10023 50.01 7.75023 52.36 8.67023C53.87 9.26023 55.25 9.84023 56.51 10.4302C58.1 11.3502 59.36 12.2302 60.28 13.0702C63.21 15.7502 65.43 18.9702 66.94 22.7402C68.45 26.5102 69.2 30.3202 69.2 34.1702C69.2 38.6902 68.13 42.8402 66 46.6102C63.86 50.3802 60.45 53.1902 55.76 55.0302C55.59 55.2002 55.36 55.3002 55.07 55.3402C54.78 55.3802 54.55 55.4502 54.38 55.5302L65.94 78.7702L67.07 80.7802C67.24 81.1202 67.45 81.4902 67.7 81.9102C67.95 82.3302 68.16 82.7502 68.33 83.1702C68.58 83.5902 68.81 84.0502 69.02 84.5502C69.23 85.0502 69.46 85.5102 69.71 85.9302C69.94 87.0902 70.15 88.0602 70.32 88.8102ZM38.92 44.0902C40.43 44.0902 41.87 43.8202 43.25 43.2702C44.63 42.7302 45.89 41.9902 47.02 41.0702C48.15 40.1502 49.09 39.0802 49.85 37.8702C50.6 36.6602 51.02 35.3402 51.11 33.9102C51.44 29.7202 50.36 26.6002 47.84 24.5502C45.33 22.5002 42.02 21.3902 37.92 21.2202C35.49 21.0502 32.83 20.9702 29.94 20.9702C27.05 20.9702 24.31 20.9702 21.71 20.9702C21.79 24.4102 21.81 27.9002 21.77 31.4602C21.73 35.0202 21.71 39.2302 21.71 44.0802H38.92V44.0902Z" fill="black" stroke="white" stroke-width="11" stroke-miterlimit="10" stroke-linecap="round" stroke-linejoin="round"/>
<path d="M123.96 77.1302C124.97 76.8802 125.99 76.7102 127.04 76.6302C128.09 76.5502 129.05 76.6702 129.93 77.0102C130.81 77.3502 131.54 77.9102 132.13 78.7102C132.71 79.5102 133.01 80.6202 133.01 82.0402C133.01 83.0402 132.76 84.0102 132.26 84.9302C131.76 85.8502 131.13 86.6902 130.38 87.4402C129.63 88.1902 128.79 88.8402 127.87 89.3902C126.95 89.9302 126.07 90.3702 125.23 90.7102C122.8 91.8002 120.02 92.6402 116.88 93.2202C113.74 93.8002 110.49 94.0102 107.14 93.8502C102.62 93.6802 98.28 92.7802 94.14 91.1502C89.99 89.5202 86.75 86.8202 84.4 83.0502C82.22 79.3702 80.92 75.2602 80.51 70.7402C80.09 66.2202 80.3 61.9502 81.14 57.9302C82.06 53.0702 83.63 49.1202 85.85 46.0602C88.07 43.0002 90.73 40.5502 93.83 38.7102C97.6 36.5302 101.83 35.4002 106.52 35.3202C111.21 35.2402 115.69 36.1602 119.96 38.0802C122.81 39.3402 125.36 41.0302 127.62 43.1702C129.88 45.3102 131.6 47.8802 132.77 50.9002C133.1 51.6502 133.38 52.5802 133.59 53.6602C133.8 54.7502 133.95 55.9002 134.03 57.1102C134.11 58.3202 134.11 59.5202 134.03 60.6902C133.95 61.8602 133.74 62.9102 133.4 63.8302C132.9 65.3402 132.27 66.5102 131.52 67.3502C130.77 68.1902 129.8 68.8202 128.63 69.2302C127.46 69.6502 126.05 69.9202 124.42 70.0502C122.79 70.1802 120.84 70.2802 118.58 70.3602C116.57 70.4402 114.69 70.4902 112.93 70.4902C111.17 70.4902 109.37 70.4702 107.53 70.4302C105.69 70.3902 103.78 70.3502 101.81 70.3002C99.84 70.2602 97.64 70.2002 95.21 70.1102C94.96 71.7902 95.19 73.2302 95.9 74.4402C96.61 75.6602 97.6 76.6602 98.85 77.4502C100.11 78.2502 101.53 78.8502 103.12 79.2702C104.71 79.6902 106.26 79.9402 107.77 80.0202C110.62 80.1902 113.34 79.9602 115.94 79.3302C118.51 78.7002 121.2 77.9602 123.96 77.1302ZM118.56 52.7602C116.97 50.9202 115.29 49.5802 113.53 48.7402C112.19 48.1602 110.79 47.8802 109.32 47.9202C107.85 47.9602 106.45 48.1902 105.11 48.6102C102.68 49.2002 100.63 50.4502 98.95 52.3802C98.78 52.5502 98.49 52.9502 98.07 53.5702C97.65 54.2002 97.25 54.8502 96.88 55.5202C96.5 56.1902 96.23 56.8202 96.06 57.4002C95.89 57.9902 95.98 58.2802 96.31 58.2802H120.93C120.85 57.1102 120.64 56.1202 120.3 55.3302C119.98 54.5402 119.39 53.6802 118.56 52.7602Z" fill="black" stroke="white" stroke-width="11" stroke-miterlimit="10" stroke-linecap="round" stroke-linejoin="round"/>
<path d="M157.62 41.4503C160.13 40.1903 162.77 39.2903 165.53 38.7503C168.29 38.2103 171.04 38.0803 173.76 38.3703C176.48 38.6603 179.1 39.3703 181.61 40.5103C184.12 41.6403 186.47 43.2503 188.64 45.3503C190.82 47.5303 192.49 49.9203 193.66 52.5103C194.83 55.1103 195.67 58.0003 196.17 61.1803C196.5 63.3603 197.05 65.3703 197.8 67.2103C198.55 69.0503 199.37 70.9003 200.25 72.7403C201.13 74.5803 201.97 76.4303 202.76 78.2703C203.55 80.1103 204.2 82.0403 204.71 84.0503C205.13 85.9803 204.98 87.8403 204.27 89.6403C203.56 91.4403 202.11 92.5503 199.94 92.9703C198.68 93.2203 197.49 93.1203 196.36 92.6603C195.23 92.2003 194.2 91.5303 193.28 90.6503C192.36 89.7703 191.54 88.8103 190.83 87.7603C190.12 86.7103 189.47 85.7303 188.88 84.8103C186.95 87.3203 184.86 89.2703 182.6 90.6503C180.34 92.0303 177.62 92.9303 174.43 93.3503C171.75 93.6803 169.19 93.7703 166.77 93.6003C164.34 93.4303 161.74 92.9703 158.98 92.2203C155.38 91.3003 152.43 89.6903 150.12 87.3803C147.82 85.0803 146.06 82.4003 144.84 79.3403C143.63 76.2803 142.98 73.0003 142.89 69.4803C142.81 65.9603 143.22 62.4903 144.15 59.0503C145.32 54.5303 147.08 50.8403 149.43 47.9903C151.8 45.1403 154.52 42.9603 157.62 41.4503ZM160.76 56.1503C159.59 57.3203 158.67 58.7103 158 60.3003C157.33 61.8903 156.93 63.5703 156.81 65.3203C156.68 67.0803 156.83 68.8403 157.25 70.6003C157.67 72.3603 158.34 73.9103 159.26 75.2503C160.1 76.4203 161.52 77.4103 163.53 78.2003C165.54 79.0003 167.63 79.4803 169.81 79.6403C172.32 79.8103 174.52 79.1403 176.4 77.6303C178.28 76.1203 179.71 74.2203 180.67 71.9103C181.63 69.6103 182.07 67.1403 181.99 64.5003C181.91 61.8603 181.19 59.4603 179.85 57.2803C178.84 55.6903 177.53 54.5203 175.89 53.7603C174.26 53.0103 172.52 52.6103 170.68 52.5703C168.84 52.5303 167.02 52.8203 165.22 53.4503C163.42 54.0703 161.94 54.9803 160.76 56.1503Z" fill="black" stroke="white" stroke-width="11" stroke-miterlimit="10" stroke-linecap="round" stroke-linejoin="round"/>
<path d="M254.35 6.53015C255.94 6.11015 257.34 6.05015 258.56 6.34015C259.77 6.63015 260.82 7.20015 261.7 8.04015C262.58 8.88015 263.25 9.92015 263.71 11.1802C264.17 12.4402 264.4 13.8202 264.4 15.3302C264.48 19.5202 264.5 22.7802 264.46 25.1302C264.42 27.4802 264.4 29.5302 264.4 31.2902V69.8602C264.4 74.3802 264.4 78.1502 264.4 81.1702C264.4 84.1802 264.25 86.6301 263.96 88.5201C263.67 90.4001 263.16 91.8102 262.45 92.7302C261.74 93.6502 260.67 94.3002 259.25 94.6802C257.82 95.0602 255.96 95.2502 253.66 95.2502C251.36 95.2502 248.49 95.2502 245.06 95.2502C236.02 95.2502 228.87 93.1101 223.64 88.8401C218.41 84.5701 215.62 77.7902 215.29 68.4902C215.12 64.4702 215.62 60.7902 216.8 57.4302C217.97 54.0802 219.71 51.2102 222.01 48.8302C224.31 46.4402 227.16 44.6002 230.55 43.3002C233.94 42.0002 237.81 41.4002 242.17 41.4802H249.08V18.9602C249.08 17.6202 249.08 16.3002 249.08 15.0002C249.08 13.7002 249.21 12.4902 249.46 11.3602C249.71 10.2302 250.21 9.25015 250.97 8.41015C251.71 7.58015 252.84 6.95015 254.35 6.53015ZM232.49 76.2502C234.25 78.6802 237.43 80.0201 242.04 80.2701C242.96 80.3501 243.84 80.3802 244.68 80.3302C245.52 80.2902 246.27 80.1801 246.94 80.0201C247.69 79.9401 248.4 79.8102 249.08 79.6402V56.4002C246.15 55.9002 243.49 55.5802 241.1 55.4602C238.71 55.3402 236.35 56.1902 234 58.0302C232.74 59.0402 231.78 60.3102 231.11 61.8602C230.44 63.4102 230.06 65.0402 229.98 66.7602C229.9 68.4802 230.06 70.1702 230.48 71.8502C230.9 73.5302 231.57 74.9902 232.49 76.2502Z" fill="black" stroke="white" stroke-width="11" stroke-miterlimit="10" stroke-linecap="round" stroke-linejoin="round"/>
<path d="M332.24 38.3105C332.99 39.4805 333.33 40.7405 333.25 42.0805C333.25 44.0105 332.91 45.6804 332.24 47.1004C332.07 47.5204 331.84 48.0604 331.55 48.7304C331.26 49.4004 330.96 50.1104 330.67 50.8704C330.38 51.6204 330.06 52.3404 329.73 53.0104C329.39 53.6804 329.14 54.1805 328.98 54.5205L328.73 55.1505C327.56 57.7505 326.43 60.2604 325.34 62.6904C324.25 65.1204 323.04 67.7205 321.7 70.4805C320.36 73.1605 319.08 75.7805 317.87 78.3305C316.66 80.8905 315.46 83.3805 314.29 85.8005C313.95 86.4705 313.66 87.1205 313.41 87.7505C313.16 88.3805 312.82 89.0304 312.41 89.7004L306.38 102.64C305.29 104.82 304.26 106.95 303.3 109.05C302.34 111.14 301.27 113.24 300.1 115.33C299.85 115.75 299.62 116.15 299.41 116.52C299.2 116.9 299.01 117.29 298.84 117.71C298.25 118.71 297.4 119.7 296.27 120.66C295.14 121.62 293.95 122.15 292.69 122.23C290.43 122.4 288.46 121.73 286.79 120.22C285.78 119.63 284.99 118.79 284.4 117.71C284.06 116.96 283.9 115.99 283.9 114.82C283.98 114.32 284.05 113.83 284.09 113.38C284.13 112.92 284.19 112.48 284.28 112.06C284.45 111.64 284.57 111.22 284.66 110.8C284.74 110.38 284.87 110.05 285.04 109.79C285.29 109.12 285.5 108.79 285.67 108.79L294.84 88.9405C294.42 88.0205 294 87.0805 293.58 86.1105C293.16 85.1505 292.78 84.2904 292.45 83.5304C291.36 80.9404 290.21 78.1905 289 75.3005C287.79 72.4105 286.55 69.5204 285.29 66.6304C284.03 63.7404 282.73 60.9105 281.4 58.1505C280.06 55.3905 278.72 52.7505 277.38 50.2405C276.88 49.4005 276.42 48.5005 276 47.5405C275.58 46.5805 275.25 45.6105 275 44.6505C274.75 43.6905 274.66 42.7004 274.75 41.7004C274.83 40.7004 275.21 39.6904 275.88 38.6904C276.55 37.4304 277.43 36.5305 278.52 35.9905C279.61 35.4505 280.76 35.1905 281.97 35.2405C283.18 35.2805 284.34 35.5505 285.42 36.0605C286.51 36.5605 287.39 37.2304 288.06 38.0704C289.48 39.5804 290.61 41.2504 291.45 43.1004C292.29 44.9404 293.08 46.8304 293.84 48.7504C295.43 52.1004 297.06 55.6204 298.74 59.3004C300.41 62.9904 302.09 66.5904 303.77 70.1004L310.3 56.2804C310.97 54.9404 311.58 53.6404 312.12 52.3904C312.66 51.1304 313.23 49.9204 313.82 48.7504C314.49 47.3304 315.14 45.8604 315.77 44.3504C316.4 42.8404 317.13 41.4604 317.97 40.2004C318.14 39.8704 318.3 39.5704 318.47 39.3204C318.64 39.0704 318.8 38.7804 318.97 38.4404C319.72 37.4304 320.39 36.6404 320.98 36.0504C321.4 35.7204 321.75 35.4404 322.05 35.2304C322.34 35.0204 322.7 34.8705 323.12 34.7905C323.7 34.6205 324.27 34.5204 324.82 34.4804C325.36 34.4404 325.89 34.4605 326.39 34.5405C327.23 34.7905 328.23 35.1704 329.4 35.6704C330.6 36.1704 331.56 37.0505 332.24 38.3105Z" fill="black" stroke="white" stroke-width="11" stroke-miterlimit="10" stroke-linecap="round" stroke-linejoin="round"/>
<path d="M70.32 88.8102C70.4 89.6502 70.32 90.4402 70.07 91.2002C69.9 91.7002 69.67 92.1202 69.38 92.4602C69.09 92.7902 68.73 93.1302 68.31 93.4602C67.56 93.9602 66.63 94.4202 65.55 94.8402C64.88 95.0102 64.23 95.1502 63.6 95.2802C62.97 95.4102 62.32 95.3802 61.65 95.2202C60.31 95.1402 59.14 94.6302 58.13 93.7102C56.7 92.5402 55.53 91.2402 54.61 89.8202C54.19 89.1502 53.73 88.3902 53.23 87.5602C52.73 86.7202 52.27 85.8402 51.85 84.9202L37.91 58.4102C37.24 58.4102 36.57 58.4302 35.9 58.4702C35.23 58.5102 34.56 58.5802 33.89 58.6602C32.13 58.8302 30.48 58.8702 28.93 58.7902C27.38 58.7102 25.77 58.7102 24.09 58.7902H21.7V81.5302C21.7 82.2002 21.68 82.8302 21.64 83.4102C21.6 84.0002 21.58 84.6202 21.58 85.2902C21.58 85.7102 21.56 86.2502 21.52 86.9202C21.48 87.5902 21.41 88.2202 21.33 88.8002C21.16 89.7202 20.78 90.6602 20.2 91.6302C19.61 92.5902 18.82 93.4102 17.81 94.0802C16.05 95.1702 13.92 95.4602 11.4 94.9602C10.31 94.7102 9.26 94.2902 8.26 93.7002C7.92 93.4502 7.63 93.1302 7.38 92.7602C7.13 92.3802 6.92 91.9802 6.75 91.5702C6.58 91.1502 6.44 90.7102 6.31 90.2502C6.18 89.7902 6.04 89.3502 5.87 88.9302C5.63 88.1002 5.5 87.3002 5.5 86.5502V15.1902C5.5 14.6902 5.52 14.1702 5.56 13.6202C5.6 13.0802 5.66 12.6002 5.75 12.1802C5.83 11.2602 6.13 10.3402 6.63 9.42023C6.88 8.42023 7.3 7.70023 7.89 7.28023C8.39 6.78023 9.17 6.34023 10.21 5.96023C11.26 5.58023 12.79 5.44023 14.8 5.52023C18.57 5.60023 22.29 5.65023 25.98 5.65023C29.66 5.65023 33.35 5.73023 37.03 5.90023C39.46 6.07023 42.03 6.34023 44.76 6.72023C47.48 7.10023 50.01 7.75023 52.36 8.67023C53.87 9.26023 55.25 9.84023 56.51 10.4302C58.1 11.3502 59.36 12.2302 60.28 13.0702C63.21 15.7502 65.43 18.9702 66.94 22.7402C68.45 26.5102 69.2 30.3202 69.2 34.1702C69.2 38.6902 68.13 42.8402 66 46.6102C63.86 50.3802 60.45 53.1902 55.76 55.0302C55.59 55.2002 55.36 55.3002 55.07 55.3402C54.78 55.3802 54.55 55.4502 54.38 55.5302L65.94 78.7702L67.07 80.7802C67.24 81.1202 67.45 81.4902 67.7 81.9102C67.95 82.3302 68.16 82.7502 68.33 83.1702C68.58 83.5902 68.81 84.0502 69.02 84.5502C69.23 85.0502 69.46 85.5102 69.71 85.9302C69.94 87.0902 70.15 88.0602 70.32 88.8102ZM38.92 44.0902C40.43 44.0902 41.87 43.8202 43.25 43.2702C44.63 42.7302 45.89 41.9902 47.02 41.0702C48.15 40.1502 49.09 39.0802 49.85 37.8702C50.6 36.6602 51.02 35.3402 51.11 33.9102C51.44 29.7202 50.36 26.6002 47.84 24.5502C45.33 22.5002 42.02 21.3902 37.92 21.2202C35.49 21.0502 32.83 20.9702 29.94 20.9702C27.05 20.9702 24.31 20.9702 21.71 20.9702C21.79 24.4102 21.81 27.9002 21.77 31.4602C21.73 35.0202 21.71 39.2302 21.71 44.0802H38.92V44.0902Z" fill="#CC3366"/>
<path d="M123.96 77.1302C124.97 76.8802 125.99 76.7102 127.04 76.6302C128.09 76.5502 129.05 76.6702 129.93 77.0102C130.81 77.3502 131.54 77.9102 132.13 78.7102C132.71 79.5102 133.01 80.6202 133.01 82.0402C133.01 83.0402 132.76 84.0102 132.26 84.9302C131.76 85.8502 131.13 86.6902 130.38 87.4402C129.63 88.1902 128.79 88.8402 127.87 89.3902C126.95 89.9302 126.07 90.3702 125.23 90.7102C122.8 91.8002 120.02 92.6402 116.88 93.2202C113.74 93.8002 110.49 94.0102 107.14 93.8502C102.62 93.6802 98.28 92.7802 94.14 91.1502C89.99 89.5202 86.75 86.8202 84.4 83.0502C82.22 79.3702 80.92 75.2602 80.51 70.7402C80.09 66.2202 80.3 61.9502 81.14 57.9302C82.06 53.0702 83.63 49.1202 85.85 46.0602C88.07 43.0002 90.73 40.5502 93.83 38.7102C97.6 36.5302 101.83 35.4002 106.52 35.3202C111.21 35.2402 115.69 36.1602 119.96 38.0802C122.81 39.3402 125.36 41.0302 127.62 43.1702C129.88 45.3102 131.6 47.8802 132.77 50.9002C133.1 51.6502 133.38 52.5802 133.59 53.6602C133.8 54.7502 133.95 55.9002 134.03 57.1102C134.11 58.3202 134.11 59.5202 134.03 60.6902C133.95 61.8602 133.74 62.9102 133.4 63.8302C132.9 65.3402 132.27 66.5102 131.52 67.3502C130.77 68.1902 129.8 68.8202 128.63 69.2302C127.46 69.6502 126.05 69.9202 124.42 70.0502C122.79 70.1802 120.84 70.2802 118.58 70.3602C116.57 70.4402 114.69 70.4902 112.93 70.4902C111.17 70.4902 109.37 70.4702 107.53 70.4302C105.69 70.3902 103.78 70.3502 101.81 70.3002C99.84 70.2602 97.64 70.2002 95.21 70.1102C94.96 71.7902 95.19 73.2302 95.9 74.4402C96.61 75.6602 97.6 76.6602 98.85 77.4502C100.11 78.2502 101.53 78.8502 103.12 79.2702C104.71 79.6902 106.26 79.9402 107.77 80.0202C110.62 80.1902 113.34 79.9602 115.94 79.3302C118.51 78.7002 121.2 77.9602 123.96 77.1302ZM118.56 52.7602C116.97 50.9202 115.29 49.5802 113.53 48.7402C112.19 48.1602 110.79 47.8802 109.32 47.9202C107.85 47.9602 106.45 48.1902 105.11 48.6102C102.68 49.2002 100.63 50.4502 98.95 52.3802C98.78 52.5502 98.49 52.9502 98.07 53.5702C97.65 54.2002 97.25 54.8502 96.88 55.5202C96.5 56.1902 96.23 56.8202 96.06 57.4002C95.89 57.9902 95.98 58.2802 96.31 58.2802H120.93C120.85 57.1102 120.64 56.1202 120.3 55.3302C119.98 54.5402 119.39 53.6802 118.56 52.7602Z" fill="#CC3366"/>
<path d="M157.62 41.4503C160.13 40.1903 162.77 39.2903 165.53 38.7503C168.29 38.2103 171.04 38.0803 173.76 38.3703C176.48 38.6603 179.1 39.3703 181.61 40.5103C184.12 41.6403 186.47 43.2503 188.64 45.3503C190.82 47.5303 192.49 49.9203 193.66 52.5103C194.83 55.1103 195.67 58.0003 196.17 61.1803C196.5 63.3603 197.05 65.3703 197.8 67.2103C198.55 69.0503 199.37 70.9003 200.25 72.7403C201.13 74.5803 201.97 76.4303 202.76 78.2703C203.55 80.1103 204.2 82.0403 204.71 84.0503C205.13 85.9803 204.98 87.8403 204.27 89.6403C203.56 91.4403 202.11 92.5503 199.94 92.9703C198.68 93.2203 197.49 93.1203 196.36 92.6603C195.23 92.2003 194.2 91.5303 193.28 90.6503C192.36 89.7703 191.54 88.8103 190.83 87.7603C190.12 86.7103 189.47 85.7303 188.88 84.8103C186.95 87.3203 184.86 89.2703 182.6 90.6503C180.34 92.0303 177.62 92.9303 174.43 93.3503C171.75 93.6803 169.19 93.7703 166.77 93.6003C164.34 93.4303 161.74 92.9703 158.98 92.2203C155.38 91.3003 152.43 89.6903 150.12 87.3803C147.82 85.0803 146.06 82.4003 144.84 79.3403C143.63 76.2803 142.98 73.0003 142.89 69.4803C142.81 65.9603 143.22 62.4903 144.15 59.0503C145.32 54.5303 147.08 50.8403 149.43 47.9903C151.8 45.1403 154.52 42.9603 157.62 41.4503ZM160.76 56.1503C159.59 57.3203 158.67 58.7103 158 60.3003C157.33 61.8903 156.93 63.5703 156.81 65.3203C156.68 67.0803 156.83 68.8403 157.25 70.6003C157.67 72.3603 158.34 73.9103 159.26 75.2503C160.1 76.4203 161.52 77.4103 163.53 78.2003C165.54 79.0003 167.63 79.4803 169.81 79.6403C172.32 79.8103 174.52 79.1403 176.4 77.6303C178.28 76.1203 179.71 74.2203 180.67 71.9103C181.63 69.6103 182.07 67.1403 181.99 64.5003C181.91 61.8603 181.19 59.4603 179.85 57.2803C178.84 55.6903 177.53 54.5203 175.89 53.7603C174.26 53.0103 172.52 52.6103 170.68 52.5703C168.84 52.5303 167.02 52.8203 165.22 53.4503C163.42 54.0703 161.94 54.9803 160.76 56.1503Z" fill="#CC3366"/>
<path d="M254.35 6.53015C255.94 6.11015 257.34 6.05015 258.56 6.34015C259.77 6.63015 260.82 7.20015 261.7 8.04015C262.58 8.88015 263.25 9.92015 263.71 11.1802C264.17 12.4402 264.4 13.8202 264.4 15.3302C264.48 19.5202 264.5 22.7802 264.46 25.1302C264.42 27.4802 264.4 29.5302 264.4 31.2902V69.8602C264.4 74.3802 264.4 78.1502 264.4 81.1702C264.4 84.1802 264.25 86.6301 263.96 88.5201C263.67 90.4001 263.16 91.8102 262.45 92.7302C261.74 93.6502 260.67 94.3002 259.25 94.6802C257.82 95.0602 255.96 95.2502 253.66 95.2502C251.36 95.2502 248.49 95.2502 245.06 95.2502C236.02 95.2502 228.87 93.1101 223.64 88.8401C218.41 84.5701 215.62 77.7902 215.29 68.4902C215.12 64.4702 215.62 60.7902 216.8 57.4302C217.97 54.0802 219.71 51.2102 222.01 48.8302C224.31 46.4402 227.16 44.6002 230.55 43.3002C233.94 42.0002 237.81 41.4002 242.17 41.4802H249.08V18.9602C249.08 17.6202 249.08 16.3002 249.08 15.0002C249.08 13.7002 249.21 12.4902 249.46 11.3602C249.71 10.2302 250.21 9.25015 250.97 8.41015C251.71 7.58015 252.84 6.95015 254.35 6.53015ZM232.49 76.2502C234.25 78.6802 237.43 80.0201 242.04 80.2701C242.96 80.3501 243.84 80.3802 244.68 80.3302C245.52 80.2902 246.27 80.1801 246.94 80.0201C247.69 79.9401 248.4 79.8102 249.08 79.6402V56.4002C246.15 55.9002 243.49 55.5802 241.1 55.4602C238.71 55.3402 236.35 56.1902 234 58.0302C232.74 59.0402 231.78 60.3102 231.11 61.8602C230.44 63.4102 230.06 65.0402 229.98 66.7602C229.9 68.4802 230.06 70.1702 230.48 71.8502C230.9 73.5302 231.57 74.9902 232.49 76.2502Z" fill="#CC3366"/>
<path d="M332.24 38.3105C332.99 39.4805 333.33 40.7405 333.25 42.0805C333.25 44.0105 332.91 45.6804 332.24 47.1004C332.07 47.5204 331.84 48.0604 331.55 48.7304C331.26 49.4004 330.96 50.1104 330.67 50.8704C330.38 51.6204 330.06 52.3404 329.73 53.0104C329.39 53.6804 329.14 54.1805 328.98 54.5205L328.73 55.1505C327.56 57.7505 326.43 60.2604 325.34 62.6904C324.25 65.1204 323.04 67.7205 321.7 70.4805C320.36 73.1605 319.08 75.7805 317.87 78.3305C316.66 80.8905 315.46 83.3805 314.29 85.8005C313.95 86.4705 313.66 87.1205 313.41 87.7505C313.16 88.3805 312.82 89.0304 312.41 89.7004L306.38 102.64C305.29 104.82 304.26 106.95 303.3 109.05C302.34 111.14 301.27 113.24 300.1 115.33C299.85 115.75 299.62 116.15 299.41 116.52C299.2 116.9 299.01 117.29 298.84 117.71C298.25 118.71 297.4 119.7 296.27 120.66C295.14 121.62 293.95 122.15 292.69 122.23C290.43 122.4 288.46 121.73 286.79 120.22C285.78 119.63 284.99 118.79 284.4 117.71C284.06 116.96 283.9 115.99 283.9 114.82C283.98 114.32 284.05 113.83 284.09 113.38C284.13 112.92 284.19 112.48 284.28 112.06C284.45 111.64 284.57 111.22 284.66 110.8C284.74 110.38 284.87 110.05 285.04 109.79C285.29 109.12 285.5 108.79 285.67 108.79L294.84 88.9405C294.42 88.0205 294 87.0805 293.58 86.1105C293.16 85.1505 292.78 84.2904 292.45 83.5304C291.36 80.9404 290.21 78.1905 289 75.3005C287.79 72.4105 286.55 69.5204 285.29 66.6304C284.03 63.7404 282.73 60.9105 281.4 58.1505C280.06 55.3905 278.72 52.7505 277.38 50.2405C276.88 49.4005 276.42 48.5005 276 47.5405C275.58 46.5805 275.25 45.6105 275 44.6505C274.75 43.6905 274.66 42.7004 274.75 41.7004C274.83 40.7004 275.21 39.6904 275.88 38.6904C276.55 37.4304 277.43 36.5305 278.52 35.9905C279.61 35.4505 280.76 35.1905 281.97 35.2405C283.18 35.2805 284.34 35.5505 285.42 36.0605C286.51 36.5605 287.39 37.2304 288.06 38.0704C289.48 39.5804 290.61 41.2504 291.45 43.1004C292.29 44.9404 293.08 46.8304 293.84 48.7504C295.43 52.1004 297.06 55.6204 298.74 59.3004C300.41 62.9904 302.09 66.5904 303.77 70.1004L310.3 56.2804C310.97 54.9404 311.58 53.6404 312.12 52.3904C312.66 51.1304 313.23 49.9204 313.82 48.7504C314.49 47.3304 315.14 45.8604 315.77 44.3504C316.4 42.8404 317.13 41.4604 317.97 40.2004C318.14 39.8704 318.3 39.5704 318.47 39.3204C318.64 39.0704 318.8 38.7804 318.97 38.4404C319.72 37.4304 320.39 36.6404 320.98 36.0504C321.4 35.7204 321.75 35.4404 322.05 35.2304C322.34 35.0204 322.7 34.8705 323.12 34.7905C323.7 34.6205 324.27 34.5204 324.82 34.4804C325.36 34.4404 325.89 34.4605 326.39 34.5405C327.23 34.7905 328.23 35.1704 329.4 35.6704C330.6 36.1704 331.56 37.0505 332.24 38.3105Z" fill="#CC3366"/>
</g>
<defs>
<clipPath id="clip0_293_180">
<rect width="338.75" height="127.75" fill="white"/>
</clipPath>
</defs>
</svg>
