<svg width="287" height="105" viewBox="0 0 287 105" fill="none" xmlns="http://www.w3.org/2000/svg">
<g clip-path="url(#clip0_396_4368)">
<path d="M27.4498 2.50012C28.8698 2.45012 29.5298 3.21012 29.3898 4.77012L27.9298 25.5601C27.7898 27.0701 27.3598 27.5001 25.9898 27.5001H19.1798C17.8998 27.5001 17.3798 27.0701 17.5298 25.7501L17.7198 23.0101L11.2898 23.2001C10.1598 23.2501 9.58977 22.7701 9.58977 21.6901V16.1101C9.58977 15.0201 10.1598 14.6501 11.2898 14.6001L18.4298 14.3601L18.6198 11.7601L10.2098 12.0401C9.07977 12.0901 8.50977 11.6101 8.50977 10.5301V4.49012C8.50977 3.40012 9.07977 3.03012 10.2098 2.98012L27.4498 2.50012ZM22.3998 47.4001C21.0798 47.4501 20.5098 46.7401 20.4598 45.6501L20.0298 31.8501C19.9798 30.5701 20.3598 29.9101 21.7298 29.8701L45.0298 29.4001C46.3998 29.3501 47.2498 30.1101 47.1998 31.3801L46.7698 45.1801C46.7198 46.2701 46.1598 46.8801 44.8298 46.9301L22.3998 47.4001ZM30.1998 40.2101L37.0498 39.9701V36.7601L30.1998 37.0001V40.2101ZM42.5798 19.8501L40.3098 19.9001V25.0001C40.3098 26.5601 39.6498 27.3601 38.2798 27.3601H33.1298C31.7598 27.3601 31.0998 26.5601 31.0998 25.0001V5.81012C31.0998 4.25012 31.7598 3.45012 33.1298 3.45012H38.2798C39.6498 3.45012 40.3098 4.25012 40.3098 5.81012V10.3501L42.5798 10.3001V5.34012C42.5798 3.78012 43.2398 2.98012 44.6098 2.98012H49.7598C51.1298 2.98012 51.7898 3.78012 51.7898 5.34012V24.5301C51.7898 26.0901 51.1298 26.8901 49.7598 26.8901H44.6098C43.2398 26.8901 42.5798 26.0901 42.5798 24.5301V19.8501Z" fill="#3A3A3A" stroke="#3A3A3A" stroke-width="5" stroke-miterlimit="10"/>
<path d="M81.3698 10.2501C81.3698 11.9001 81.0398 12.2301 79.6698 12.2801L78.7198 12.3301L78.1498 29.9101L79.1398 29.8601C80.5098 29.8101 80.8398 30.2401 80.8398 31.8901V37.1401C80.8398 38.7901 80.5098 39.1201 79.1398 39.1701L57.4498 39.6401C56.1298 39.6901 55.7498 39.2601 55.7498 37.6101V32.3601C55.7498 30.7101 56.1298 30.3801 57.4498 30.3301H57.8298L57.6398 12.7501H56.9798C55.6598 12.8001 55.2798 12.3701 55.2798 10.7201V5.48013C55.2798 3.83013 55.6598 3.50013 56.9798 3.45013L79.6598 2.98013C81.0298 2.93013 81.3598 3.36013 81.3598 5.01013V10.2501H81.3698ZM66.6798 30.1501L69.4198 30.1001L69.7998 12.4701L66.4898 12.5601L66.6798 30.1501ZM83.8798 25.2801L81.9898 25.3301C80.8598 25.3801 80.2898 24.9001 80.2898 23.8201V17.3001C80.2898 16.2101 80.8598 15.8301 81.9898 15.7901L83.8798 15.7401V6.28013C83.8798 4.72013 84.5398 3.92013 85.9098 3.92013H92.2398C93.6098 3.92013 94.2698 4.72013 94.2698 6.28013V35.8601C94.2698 37.4201 93.6098 38.2201 92.2398 38.2201H85.9098C84.5398 38.2201 83.8798 37.4201 83.8798 35.8601V25.2801Z" fill="#3A3A3A" stroke="#3A3A3A" stroke-width="5" stroke-miterlimit="10"/>
<path d="M116.15 22.49L104.57 29.44C103.48 30.15 102.92 30.29 102.21 29.11L98.7599 23.25C98.2399 22.45 98.6699 21.93 99.5599 21.41L109.25 15.64C110.34 15.03 110.86 14.6 110.86 12.76V5.23997C110.86 3.58997 111.47 2.96997 112.8 2.96997H119.42C120.79 2.96997 121.36 3.57997 121.36 5.23997V12.75C121.36 14.59 121.83 15.02 122.97 15.63L132.75 20.92C133.65 21.44 134.07 21.86 133.55 22.76L130.1 28.76C129.39 29.89 128.92 29.61 127.78 29L116.15 22.49ZM101.83 40.69C100.7 40.69 100.13 40.17 100.13 39.18V33.6C100.13 32.61 100.7 32.09 101.83 32.09L130.47 31.62C131.6 31.62 132.17 32.14 132.17 33.13V38.71C132.17 39.7 131.6 40.22 130.47 40.22L101.83 40.69Z" fill="#3A3A3A" stroke="#3A3A3A" stroke-width="5" stroke-miterlimit="10"/>
<path d="M137.13 19.75C137.13 11.62 141.9 6.22995 149.37 6.22995C155.56 6.22995 159.86 9.81995 161.23 15.73L163.88 15.64V6.27995C163.88 4.71995 164.54 3.91995 165.91 3.91995H171.06C172.43 3.91995 173.09 4.71995 173.09 6.27995V35.86C173.09 37.42 172.43 38.22 171.06 38.22H165.91C164.54 38.22 163.88 37.42 163.88 35.86V25.19L160.76 25.28C159.06 30.19 154.99 33.22 149.37 33.22C141.91 33.22 137.13 27.88 137.13 19.75ZM152.73 19.75C152.73 16.73 151.27 15.31 149.38 15.31C147.49 15.31 146.07 16.73 146.07 19.75C146.07 22.77 147.49 24.15 149.38 24.15C151.27 24.15 152.73 22.78 152.73 19.75ZM174.89 5.80995C174.89 4.24995 175.55 3.44995 176.92 3.44995H182.07C183.44 3.44995 184.1 4.24995 184.1 5.80995V35.3899C184.1 36.9499 183.44 37.75 182.07 37.75H176.92C175.55 37.75 174.89 36.9499 174.89 35.3899V5.80995Z" fill="#3A3A3A"/>
<path d="M226.68 12.3799C226.68 14.0299 226.35 14.3599 224.98 14.4099L219.36 14.5499V19.2799C219.36 20.4099 219.5 21.3099 220.12 22.2099L227.26 32.0399C227.87 32.9399 227.97 33.5999 227.07 34.3099L221.73 38.2799C220.97 38.7999 220.31 38.6599 219.75 37.8499L214.17 30.4799L208.5 38.9899C207.93 39.8899 207.22 39.8399 206.42 39.2299L201.17 35.2599C200.27 34.5999 200.13 33.7899 200.74 32.8499L208.21 21.9799C208.78 21.0799 208.97 20.1799 208.97 19.0499V14.7999L203.25 14.8899C201.93 14.9399 201.55 14.5099 201.55 12.8599V7.36992C201.55 5.71992 201.93 5.38992 203.25 5.33992L208.97 5.24992V2.68992C208.97 1.03992 209.58 0.419922 210.91 0.419922H217.43C218.75 0.419922 219.37 1.02992 219.37 2.68992V5.00992L224.99 4.86992C226.36 4.81992 226.69 5.24992 226.69 6.89992V12.3799H226.68ZM228.95 24.9999L224.7 25.0899C223.57 25.1399 223 24.6599 223 23.5799V17.0599C223 15.9699 223.57 15.5999 224.7 15.5499L228.95 15.4599V6.27992C228.95 4.71992 229.61 3.91992 230.98 3.91992H237.31C238.68 3.91992 239.34 4.71992 239.34 6.27992V35.8599C239.34 37.4199 238.68 38.2199 237.31 38.2199H230.98C229.61 38.2199 228.95 37.4199 228.95 35.8599V24.9999Z" fill="#3A3A3A"/>
<path d="M276.49 22.63C277.62 22.63 278.19 23.15 278.19 24.14V29.24C278.19 30.23 277.62 30.75 276.49 30.75L245.96 31.22C244.83 31.22 244.26 30.7 244.26 29.71V24.61C244.26 23.62 244.83 23.1 245.96 23.1L276.49 22.63ZM248.66 47.4C247.34 47.45 246.77 46.74 246.72 45.65L246.29 34.69C246.24 33.41 247.09 32.75 248.46 32.71L274.03 32.24C275.4 32.19 276.25 32.95 276.2 34.22L275.77 45.18C275.72 46.27 275.16 46.88 273.83 46.93L248.66 47.4ZM247.14 11.06C247.14 4.49004 252.57 0.290039 261.22 0.290039C269.92 0.290039 275.3 4.50004 275.3 11.06C275.3 17.63 269.91 21.83 261.22 21.83C252.58 21.83 247.14 17.62 247.14 11.06ZM256.92 41.16L265.57 40.97V38.7L256.92 38.89V41.16ZM265.15 11.06C265.15 9.17004 263.64 8.04004 261.23 8.04004C258.82 8.04004 257.31 9.17004 257.31 11.06C257.31 12.95 258.82 14.08 261.23 14.08C263.64 14.08 265.15 12.95 265.15 11.06Z" fill="#3A3A3A"/>
<path d="M21.69 59.21C23.06 59.21 23.77 60.01 23.72 61.57L23.06 80.9C23.01 82.55 22.4 83.22 21.03 83.26L2.36 83.74C1.04 83.79 0.38 82.98 0.33 81.38L0 61.48C0 60.3 0.61 59.68 1.8 59.68H7.23C8.36 59.68 8.93 60.2 8.93 61.24V63.18L14.65 62.99L14.7 60.82C14.7 59.73 15.27 59.21 16.4 59.21H21.69ZM17.67 97.49V98.25L32.46 97.82C33.55 97.77 34.07 98.29 34.07 99.38V102.12C34.07 103.11 33.55 103.63 32.46 103.63L9.5 104.1C8.03 104.15 7.52 103.53 7.47 102.07L7.19 94.41C7.14 92.95 7.76 92.47 9.22 92.33L24.63 91.43V90.53L7.47 91.01C6.52 91.06 6.24 90.49 6.24 89.88V86.48C6.24 85.77 6.52 85.25 7.47 85.25L33.18 84.78C34.64 84.73 35.31 85.39 35.21 86.81L34.78 94.94C34.64 96.31 34.45 96.55 32.98 96.69L17.67 97.49ZM9.07 74.9L14.46 74.66L14.51 70.88L9.03 71.07L9.07 74.9ZM25.75 62.04C25.75 60.48 26.41 59.68 27.78 59.68H34.11C35.48 59.68 36.14 60.48 36.14 62.04V66.53L38.6 66.44C39.78 66.39 40.4 66.91 40.4 68.05V74.38C40.4 75.37 39.79 75.94 38.6 75.99L36.14 76.08V80.76C36.14 82.32 35.48 83.12 34.11 83.12H27.78C26.41 83.12 25.75 82.32 25.75 80.76V62.04Z" fill="#3A3A3A"/>
<path d="M46.0701 84.4C44.9401 84.4 44.3701 83.88 44.3701 82.89V79.01C44.3701 78.02 44.9401 77.5 46.0701 77.5L76.6001 77.03C77.7301 77.03 78.3001 77.55 78.3001 78.54V82.42C78.3001 83.41 77.7301 83.93 76.6001 83.93L46.0701 84.4ZM57.3701 97.39V98.29L74.1901 97.82C75.3201 97.77 75.6501 98.15 75.6501 99.24V102.26C75.6501 103.35 75.3201 103.63 74.1901 103.63L48.9601 104.1C47.4901 104.15 47.2101 103.77 47.1601 102.3L46.8801 94.41C46.8301 92.95 47.2101 92.61 48.6801 92.57L66.2101 91.67V90.91L47.1701 91.38C46.2201 91.38 45.9401 91.05 45.9401 90.44V86.66C45.9401 85.95 46.2201 85.62 47.1701 85.62L75.0001 85.15C76.4601 85.15 76.9401 85.48 76.8001 86.95L76.3701 94.79C76.2301 96.16 76.0401 96.49 74.5701 96.54L57.3701 97.39ZM47.2501 66.58C47.2501 59.92 53.1601 56.99 61.3301 56.99C69.5501 56.99 75.4101 59.92 75.4101 66.58C75.4101 73.24 69.5501 76.17 61.3301 76.17C53.1601 76.17 47.2501 73.24 47.2501 66.58ZM65.2601 66.58C65.2601 64.93 63.6101 64.26 61.3401 64.26C59.0701 64.26 57.4201 64.92 57.4201 66.58C57.4201 68.24 59.0701 68.9 61.3401 68.9C63.6101 68.9 65.2601 68.23 65.2601 66.58Z" fill="#3A3A3A"/>
<path d="M116.29 94.3199C116.29 95.4499 115.72 95.8299 114.59 95.8799L98.8499 96.3499C97.5699 96.3999 96.9099 95.6399 96.8699 94.0799L96.3999 61.3399C96.3999 60.2499 96.9699 59.6899 98.0999 59.6899H105.28C106.41 59.6899 106.98 60.2599 106.98 61.3399L107.26 86.7199L114.58 86.4799C115.71 86.4299 116.28 86.9499 116.28 87.9899V94.3199H116.29ZM130 81.8899L127.73 81.9399V92.5699C127.73 94.1299 127.07 94.9299 125.7 94.9299H120.55C119.18 94.9299 118.52 94.1299 118.52 92.5699V62.9899C118.52 61.4299 119.18 60.6299 120.55 60.6299H125.7C127.07 60.6299 127.73 61.4299 127.73 62.9899V72.3899L130 72.3399V62.5099C130 60.9499 130.66 60.1499 132.03 60.1499H137.18C138.55 60.1499 139.21 60.9499 139.21 62.5099V92.0999C139.21 93.6599 138.55 94.4599 137.18 94.4599H132.03C130.66 94.4599 130 93.6599 130 92.0999V81.8899Z" fill="#3A3A3A"/>
<path d="M145.92 84.6801C144.55 84.7301 144.03 84.0701 143.98 82.4101L143.65 61.9501C143.6 60.3001 144.12 59.7301 145.59 59.6801L166.57 59.2101C167.7 59.1601 168.27 59.6801 168.27 60.7201V67.2401C168.27 68.3301 167.7 68.7001 166.57 68.7501L154.24 69.0301L154.33 74.9401L165.96 74.6601C167.09 74.6101 167.66 75.1301 167.66 76.1701V82.6901C167.66 83.6801 167.09 84.2001 165.96 84.2001L145.92 84.6801ZM153.15 104.1C151.78 104.15 151.12 103.34 151.12 101.74V88.9301C151.12 87.2801 151.83 86.6101 153.15 86.5701L176.59 86.1001C177.77 86.1001 178.39 86.6201 178.39 87.7101V92.4401C178.39 93.4301 177.78 94.0001 176.59 94.0501L161.52 94.4301V96.0801L177.59 95.7001C178.72 95.6501 179.29 96.3101 179.29 97.5901V101.75C179.29 102.98 178.68 103.59 177.49 103.64L153.15 104.1ZM170.83 62.0401C170.83 60.4801 171.49 59.6801 172.86 59.6801H179.19C180.56 59.6801 181.22 60.4801 181.22 62.0401V81.7001C181.22 83.2601 180.56 84.0601 179.19 84.0601H172.86C171.49 84.0601 170.83 83.2601 170.83 81.7001V62.0401Z" fill="#3A3A3A"/>
<path d="M216.67 76.36L212.84 76.41C211.19 81.23 206.84 84.73 199.7 84.73C190.39 84.73 185.81 78.73 185.81 71.73C185.81 64.74 190.39 58.73 199.7 58.73C206.74 58.73 211.04 62.18 212.79 66.86L216.67 66.81V62.04C216.67 60.48 217.33 59.68 218.7 59.68H225.03C226.4 59.68 227.06 60.48 227.06 62.04V81.7C227.06 83.26 226.4 84.06 225.03 84.06H218.7C217.33 84.06 216.67 83.26 216.67 81.7V76.36ZM211.75 88.22C211.75 86.57 212.36 86.09 213.69 86.09H219.36C220.73 86.09 221.3 86.56 221.3 88.22V91.81C221.3 93.61 221.77 93.61 222.91 94.22L226.69 96.3C227.49 96.77 227.68 97.43 227.16 98.24L224.04 103.3C223.52 104.2 223 104.39 221.87 103.77L216.53 100.75C211.99 103.02 209.96 104.15 209.44 104.15C208.87 104.15 206.89 103.44 202.35 101.22L197.01 104.24C195.88 104.85 195.36 104.67 194.84 103.77L191.72 98.71C191.2 97.91 191.39 97.25 192.19 96.77L195.97 94.69C197.1 94.08 197.58 93.65 197.58 91.81V88.7C197.58 87.05 198.19 86.57 199.52 86.57H205.19C206.56 86.57 207.13 87.09 207.13 88.55V91.81C207.13 92.52 207.18 93.65 208.26 94.22L209.44 94.83L210.62 94.22C211.71 93.65 211.75 92.38 211.75 91.81V88.22ZM203.72 71.73C203.72 69.84 202.54 68.04 199.7 68.04C196.86 68.04 195.68 69.84 195.68 71.73C195.68 73.62 196.86 75.42 199.7 75.42C202.54 75.42 203.72 73.62 203.72 71.73Z" fill="#3A3A3A"/>
<path d="M232.02 62.0401C232.02 60.7601 232.35 60.2001 233.82 60.1501L253.57 59.6801C254.7 59.6301 255.27 60.15 255.27 61.19V67.85C255.27 68.9401 254.7 69.3101 253.57 69.3601L242.65 69.6401L242.89 86.7501L253.05 86.4701C254.18 86.4201 254.75 86.9401 254.75 87.9801V94.3601C254.75 95.4501 254.18 95.8301 253.05 95.8701L234.43 96.34C233.06 96.39 232.54 95.73 232.49 94.07L232.02 62.0401ZM257.78 62.9901C257.78 61.4301 258.44 60.6301 259.81 60.6301H266.14C267.51 60.6301 268.17 61.4301 268.17 62.9901V72.8701L270.63 72.7801C271.81 72.7301 272.43 73.2501 272.43 74.3901V80.7201C272.43 81.7101 271.82 82.2801 270.63 82.3301L268.17 82.42V92.5801C268.17 94.1401 267.51 94.9401 266.14 94.9401H259.81C258.44 94.9401 257.78 94.1401 257.78 92.5801V62.9901Z" fill="#3A3A3A"/>
<path d="M276.58 63.2701C276.58 61.6201 277.05 61.1401 278.38 61.1401H285.04C286.41 61.1401 286.84 61.6101 286.84 63.2701V82.4601C286.84 84.1101 286.41 84.5901 285.04 84.5901H278.38C277.06 84.5901 276.58 84.1201 276.58 82.4601V63.2701ZM281.64 86.6201C284.66 86.6201 286.65 88.8401 286.65 91.4901C286.65 92.8101 286.18 93.9901 285.28 94.8901C284.38 95.7901 283.15 96.3101 281.64 96.3101C280.08 96.3101 278.76 95.7901 277.95 94.8901C277.05 93.9901 276.58 92.8101 276.58 91.4901C276.58 88.8401 278.43 86.6201 281.64 86.6201Z" fill="#3A3A3A"/>
<path d="M27.9898 2.50012C29.4098 2.45012 30.0698 3.21012 29.9298 4.77012L28.4698 25.5601C28.3298 27.0701 27.8998 27.5001 26.5298 27.5001H19.7198C18.4398 27.5001 17.9198 27.0701 18.0698 25.7501L18.2598 23.0101L11.8298 23.2001C10.6998 23.2501 10.1298 22.7701 10.1298 21.6901V16.1101C10.1298 15.0201 10.6998 14.6501 11.8298 14.6001L18.9698 14.3601L19.1598 11.7601L10.7498 12.0401C9.6198 12.0901 9.0498 11.6101 9.0498 10.5301V4.49012C9.0498 3.40012 9.6198 3.03012 10.7498 2.98012L27.9898 2.50012ZM22.9298 47.4001C21.6098 47.4501 21.0398 46.7401 20.9898 45.6501L20.5598 31.8501C20.5098 30.5701 20.8898 29.9101 22.2598 29.8701L45.5598 29.4001C46.9298 29.3501 47.7798 30.1101 47.7298 31.3801L47.2998 45.1801C47.2498 46.2701 46.6898 46.8801 45.3598 46.9301L22.9298 47.4001ZM30.7298 40.2101L37.5798 39.9701V36.7601L30.7298 37.0001V40.2101ZM43.1098 19.8501L40.8398 19.9001V25.0001C40.8398 26.5601 40.1798 27.3601 38.8098 27.3601H33.6598C32.2898 27.3601 31.6298 26.5601 31.6298 25.0001V5.81012C31.6298 4.25012 32.2898 3.45012 33.6598 3.45012H38.8098C40.1798 3.45012 40.8398 4.25012 40.8398 5.81012V10.3501L43.1098 10.3001V5.34012C43.1098 3.78012 43.7698 2.98012 45.1398 2.98012H50.2898C51.6598 2.98012 52.3198 3.78012 52.3198 5.34012V24.5301C52.3198 26.0901 51.6598 26.8901 50.2898 26.8901H45.1398C43.7698 26.8901 43.1098 26.0901 43.1098 24.5301V19.8501Z" fill="#F5DF70"/>
<path d="M81.9096 10.2501C81.9096 11.9001 81.5796 12.2301 80.2096 12.2801L79.2696 12.3301L78.6996 29.9101L79.6896 29.8601C81.0596 29.8101 81.3896 30.2401 81.3896 31.8901V37.1401C81.3896 38.7901 81.0596 39.1201 79.6896 39.1701L57.9996 39.6501C56.6796 39.7001 56.2996 39.2701 56.2996 37.6201V32.3701C56.2996 30.7201 56.6796 30.3901 57.9996 30.3401H58.3796L58.1896 12.7601H57.5296C56.2096 12.8101 55.8296 12.3801 55.8296 10.7301V5.48013C55.8296 3.83013 56.2096 3.50013 57.5296 3.45013L80.2096 2.98013C81.5796 2.93013 81.9096 3.36013 81.9096 5.01013V10.2501V10.2501ZM67.2096 30.1501L69.9496 30.1001L70.3296 12.4701L67.0196 12.5601L67.2096 30.1501ZM84.4096 25.2801L82.5196 25.3301C81.3896 25.3801 80.8196 24.9001 80.8196 23.8201V17.3001C80.8196 16.2101 81.3896 15.8301 82.5196 15.7901L84.4096 15.7401V6.28013C84.4096 4.72013 85.0696 3.92013 86.4396 3.92013H92.7696C94.1396 3.92013 94.7996 4.72013 94.7996 6.28013V35.8601C94.7996 37.4201 94.1396 38.2201 92.7696 38.2201H86.4396C85.0696 38.2201 84.4096 37.4201 84.4096 35.8601V25.2801Z" fill="#F5DF70"/>
<path d="M116.69 22.4902L105.11 29.4402C104.02 30.1502 103.46 30.2902 102.75 29.1102L99.3 23.2502C98.78 22.4502 99.21 21.9302 100.1 21.4102L109.79 15.6402C110.88 15.0302 111.4 14.6002 111.4 12.7602V5.24021C111.4 3.59021 112.01 2.97021 113.34 2.97021H119.96C121.33 2.97021 121.9 3.58021 121.9 5.24021V12.7502C121.9 14.5902 122.37 15.0202 123.51 15.6302L133.29 20.9202C134.19 21.4402 134.61 21.8602 134.09 22.7602L130.64 28.7602C129.93 29.8902 129.46 29.6102 128.32 29.0002L116.69 22.4902ZM102.37 40.6902C101.24 40.6902 100.67 40.1702 100.67 39.1802V33.6002C100.67 32.6102 101.24 32.0902 102.37 32.0902L131.01 31.6202C132.14 31.6202 132.71 32.1402 132.71 33.1302V38.7102C132.71 39.7002 132.14 40.2202 131.01 40.2202L102.37 40.6902Z" fill="#F5DF70"/>
</g>
<defs>
<clipPath id="clip0_396_4368">
<rect width="286.84" height="104.6" fill="white"/>
</clipPath>
</defs>
</svg>
