<svg width="246" height="81" viewBox="0 0 246 81" fill="none" xmlns="http://www.w3.org/2000/svg">
<g clip-path="url(#clip0_396_4758)">
<path d="M47.0935 3.98926C47.7513 3.98926 47.956 4.16495 47.956 4.88966V7.02722C47.956 7.82514 47.7148 7.99351 47.13 7.99351L40.9829 8.13259V16.1923C40.9829 17.0195 41.0195 17.3343 41.5385 17.9931L48.1387 26.3311C48.453 26.7483 48.4165 27.0924 47.9998 27.4072L45.8948 29.1055C45.4489 29.4861 45.2369 29.4495 44.8568 29.003L38.8121 21.3898L32.665 29.4495C32.2849 29.8961 32.0803 29.9327 31.6271 29.552L29.449 27.9269C29.0323 27.6121 29.0031 27.2681 29.3101 26.8581L36.0784 18.0005C36.5243 17.3416 36.6339 17.0342 36.6339 16.1997V8.2424L30.4065 8.34488C29.8217 8.34488 29.5805 8.16919 29.5805 7.37859V5.23372C29.5805 4.509 29.7852 4.33332 30.443 4.33332L47.0935 3.98926ZM51.8226 5.61438C51.8226 4.92627 52.0638 4.67737 52.7874 4.67737H55.2067C55.9304 4.67737 56.1716 4.91895 56.1716 5.61438V27.8171C56.1716 28.5125 55.9304 28.7541 55.2067 28.7541H52.7874C52.0638 28.7541 51.8226 28.5125 51.8226 27.8171V5.61438Z" fill="#3A3A3A" stroke="#3A3A3A" stroke-width="9" stroke-miterlimit="10" stroke-linecap="round" stroke-linejoin="round"/>
<path d="M82.8432 17.1002C83.501 17.1002 83.7057 17.2759 83.7057 18.0006V20.1455C83.7057 20.9434 83.4645 21.1117 82.8797 21.1117L61.4636 21.4558C60.8789 21.4558 60.6377 21.2801 60.6377 20.4895V18.3446C60.6377 17.6199 60.8424 17.4442 61.5002 17.4442L82.8432 17.1002ZM60.7693 4.57501C60.7693 3.87958 61.0105 3.638 61.7341 3.638L82.5947 3.29395C83.3183 3.29395 83.596 3.53552 83.5595 4.23095L83.2452 13.8792C83.2087 14.5746 82.9309 14.8162 82.2073 14.8162H79.7879C79.0643 14.8162 78.8523 14.5746 78.8889 13.8792L79.0935 7.37872L61.7195 7.65689C60.9959 7.65689 60.7546 7.41532 60.7546 6.71988V4.57501H60.7693ZM63.0497 35.467C62.3261 35.467 62.1142 35.2254 62.0849 34.53L61.7706 24.9476C61.7341 24.2595 62.0118 24.0106 62.7355 24.0106L81.6299 23.6666C82.3535 23.6666 82.6312 23.9081 82.5947 24.6036L82.2804 34.1859C82.2438 34.8741 82.0392 35.123 81.3156 35.123L63.0497 35.467ZM66.3316 31.3822L78.041 31.1773L78.1433 27.7513L66.2293 27.9563L66.3316 31.3822Z" fill="#3A3A3A" stroke="#3A3A3A" stroke-width="9" stroke-miterlimit="10" stroke-linecap="round" stroke-linejoin="round"/>
<path d="M115.135 3.98926C115.793 3.98926 115.998 4.16495 115.998 4.88966V7.02722C115.998 7.82514 115.757 7.99351 115.172 7.99351L109.025 8.13259V16.1923C109.025 17.0195 109.061 17.3343 109.58 17.9931L116.181 26.3311C116.495 26.7483 116.458 27.0924 116.042 27.4072L113.937 29.1055C113.491 29.4861 113.279 29.4495 112.899 29.003L106.854 21.3898L100.707 29.4495C100.327 29.8961 100.122 29.9327 99.6691 29.552L97.491 27.9269C97.0743 27.6121 97.0451 27.2681 97.3521 26.8581L104.12 18.0005C104.566 17.3416 104.676 17.0342 104.676 16.1997V8.2424L98.4558 8.34488C97.871 8.34488 97.6298 8.16919 97.6298 7.37859V5.23372C97.6298 4.509 97.8345 4.33332 98.4923 4.33332L115.135 3.98926ZM119.865 5.61438C119.865 4.92627 120.106 4.67737 120.829 4.67737H123.249C123.972 4.67737 124.214 4.91895 124.214 5.61438V27.8171C124.214 28.5125 123.972 28.7541 123.249 28.7541H120.829C120.106 28.7541 119.865 28.5125 119.865 27.8171V5.61438Z" fill="#3A3A3A" stroke="#3A3A3A" stroke-width="9" stroke-miterlimit="10" stroke-linecap="round" stroke-linejoin="round"/>
<path d="M131.749 3.98926C132.473 3.98926 132.714 4.23083 132.714 4.92627L132.992 25.7161L144.182 25.438C144.906 25.4014 145.147 25.6795 145.147 26.375V28.5198C145.147 29.208 144.906 29.4203 144.182 29.4569L129.674 29.8009C128.95 29.8375 128.709 29.5593 128.709 28.8639L128.365 4.92627C128.365 4.23083 128.606 3.98926 129.33 3.98926H131.749V3.98926ZM153.407 18.652V27.8171C153.407 28.5125 153.166 28.7541 152.442 28.7541H150.023C149.299 28.7541 149.058 28.5125 149.058 27.8171V5.61438C149.058 4.92627 149.299 4.67737 150.023 4.67737H152.442C153.166 4.67737 153.407 4.91895 153.407 5.61438V14.6404L155.994 14.5379C156.652 14.5013 156.857 14.7136 156.857 15.4383V17.6491C156.857 18.3738 156.652 18.5129 155.994 18.5495L153.407 18.652Z" fill="#3A3A3A" stroke="#3A3A3A" stroke-width="9" stroke-miterlimit="10" stroke-linecap="round" stroke-linejoin="round"/>
<path d="M159.97 5.263C159.97 4.56756 160.211 4.32599 160.935 4.32599L176.343 3.98193C177.067 3.98193 177.41 4.22351 177.308 4.91894L174.508 28.5125C174.406 29.2006 174.165 29.4495 173.434 29.4495H171.014C170.291 29.4495 170.05 29.208 170.152 28.5125L172.571 8.10331L160.928 8.34488C160.204 8.34488 159.963 8.10331 159.963 7.40787V5.263H159.97ZM185.355 18.652V27.8171C185.355 28.5125 185.114 28.7541 184.39 28.7541H181.971C181.247 28.7541 181.006 28.5125 181.006 27.8171V5.61438C181.006 4.92626 181.247 4.67737 181.971 4.67737H184.39C185.114 4.67737 185.355 4.91894 185.355 5.61438V14.6404L187.943 14.5379C188.601 14.5013 188.805 14.7136 188.805 15.4383V17.6491C188.805 18.3738 188.601 18.5129 187.943 18.5495L185.355 18.652Z" fill="#3A3A3A" stroke="#3A3A3A" stroke-width="9" stroke-miterlimit="10" stroke-linecap="round" stroke-linejoin="round"/>
<path d="M214.782 19.172C215.44 19.172 215.644 19.3477 215.644 20.0724V22.2173C215.644 23.0152 215.403 23.1836 214.818 23.1836L193.402 23.5277C192.817 23.5277 192.576 23.352 192.576 22.5614V20.4165C192.576 19.6918 192.781 19.5161 193.439 19.5161L214.782 19.172ZM196.092 3.63818C196.816 3.63818 197.028 3.87976 197.057 4.57519L197.261 13.0156L214.219 12.7008C214.942 12.7008 215.184 12.9424 215.184 13.6378V15.7827C215.184 16.4781 214.942 16.7197 214.219 16.7197L193.98 17.0638C193.256 17.0638 193.015 16.8222 193.015 16.1268L192.7 4.57519C192.664 3.87976 192.942 3.63818 193.665 3.63818H196.092V3.63818ZM194.126 35.4672C193.402 35.4672 193.161 35.2256 193.161 34.5302V26.8877C193.161 26.1923 193.402 25.9507 194.126 25.9507H196.545C197.269 25.9507 197.51 26.1923 197.51 26.8877V31.3824L214.263 31.1408C214.921 31.1408 215.125 31.3165 215.125 32.0413V34.252C215.125 34.9767 214.95 35.1524 214.299 35.1524L194.126 35.4672Z" fill="#3A3A3A" stroke="#3A3A3A" stroke-width="9" stroke-miterlimit="10" stroke-linecap="round" stroke-linejoin="round"/>
<path d="M20.5827 45.4961C21.2405 45.4961 21.4452 45.6718 21.4452 46.3965V48.5414C21.4452 49.3393 21.204 49.5077 20.6192 49.5077L14.8157 49.6467V57.7065C14.8157 58.5337 14.8522 58.8485 15.3712 59.5073L21.6937 67.9111C22.008 68.3284 21.9715 68.6724 21.5548 68.9799L19.3767 70.605C18.9308 70.9857 18.7188 70.9491 18.3388 70.5025L12.6375 62.9625L6.834 70.9564C6.51971 71.4029 6.24927 71.4395 5.79609 71.0589L3.61794 69.4337C3.23786 69.119 3.17207 68.7749 3.47906 68.365L9.90389 59.5073C10.3498 58.8485 10.4594 58.541 10.4594 57.7065V49.7492L4.59007 49.8517C4.00533 49.8517 3.76412 49.676 3.76412 48.8854V46.7406C3.76412 46.0158 3.96878 45.8401 4.62661 45.8401L20.5827 45.4961ZM28.9737 60.1661V69.3312C28.9737 70.0267 28.7325 70.2683 28.0089 70.2683H25.5895C24.8659 70.2683 24.6247 70.0267 24.6247 69.3312V47.1212C24.6247 46.4331 24.8659 46.1842 25.5895 46.1842H28.0089C28.7325 46.1842 28.9737 46.4258 28.9737 47.1212V56.1472L31.5612 56.0448C32.219 56.0082 32.4237 56.2204 32.4237 56.9452V59.1559C32.4237 59.8806 32.219 60.0197 31.5612 60.0563L28.9737 60.1661Z" fill="#3A3A3A" stroke="#3A3A3A" stroke-width="9" stroke-miterlimit="10" stroke-linecap="round" stroke-linejoin="round"/>
<path d="M59.1317 47.8822C59.1317 48.5703 58.8905 48.8192 58.1669 48.8192L40.7855 49.1266L40.8878 52.7941L57.8453 52.4794C58.5689 52.4794 58.8101 52.7209 58.8101 53.4164V55.5613C58.8101 56.2567 58.5689 56.4983 57.8453 56.4983L49.9001 56.6373V58.9213L58.4008 58.7822C59.0586 58.7822 59.2633 58.9579 59.2633 59.6826V61.8275C59.2633 62.6254 59.0221 62.7938 58.4373 62.7938L37.0213 63.1378C36.4365 63.1378 36.1953 62.9622 36.1953 62.1716V60.0267C36.1953 59.302 36.4 59.1263 37.0578 59.1263L45.5585 58.9872V56.7032L37.6133 56.8423C36.8897 56.8423 36.6777 56.6007 36.6485 55.9053L36.3342 46.0814C36.2976 45.3859 36.5754 45.1443 37.299 45.1443L58.1596 44.8003C58.8832 44.8003 59.1244 45.0419 59.1244 45.7373V47.8822H59.1317ZM38.9948 71.2342C38.9948 67.6399 41.6919 64.763 47.7366 64.763C53.7814 64.763 56.4785 67.6326 56.4785 71.2342C56.4785 74.8358 53.7814 77.7054 47.7366 77.7054C41.7211 77.7054 38.9948 74.8358 38.9948 71.2342ZM51.9467 71.2342C51.9467 69.5725 50.6311 68.4305 47.7293 68.4305C44.8275 68.4305 43.5119 69.5725 43.5119 71.2342C43.5119 72.8959 44.8275 74.0379 47.7293 74.0379C50.6311 74.0379 51.9467 72.8959 51.9467 71.2342Z" fill="#3A3A3A" stroke="#3A3A3A" stroke-width="9" stroke-miterlimit="10" stroke-linecap="round" stroke-linejoin="round"/>
<path d="M74.5686 47.0187L80.3356 46.8796C80.9935 46.8796 81.1981 47.0553 81.1981 47.78V49.9249C81.1981 50.7228 80.9569 50.8912 80.3722 50.8912L74.5686 51.0303V57.7065C74.5686 58.5337 74.6052 58.8485 75.1241 59.5073L81.4466 67.9111C81.7609 68.3284 81.7244 68.6724 81.3078 68.9799L79.1296 70.605C78.6837 70.9856 78.4718 70.949 78.0917 70.5025L72.3905 62.9625L66.5869 70.9564C66.2726 71.4029 66.0022 71.4395 65.549 71.0589L63.3709 69.4337C62.9908 69.119 62.925 68.7749 63.232 68.365L69.6568 59.5073C70.1027 58.8485 70.2123 58.541 70.2123 57.7065V51.1328L64.343 51.2426C63.7583 51.2426 63.5171 51.0669 63.5171 50.2763V48.1314C63.5171 47.4067 63.7217 47.231 64.3795 47.231L70.2196 47.1285V44.5664C70.2196 43.871 70.4608 43.6294 71.1845 43.6294H73.6038C74.3274 43.6294 74.5686 43.871 74.5686 44.5664V47.0187ZM88.7266 60.1661V69.3312C88.7266 70.0267 88.4854 70.2683 87.7618 70.2683H85.3425C84.6188 70.2683 84.3776 70.0267 84.3776 69.3312V47.1212C84.3776 46.4331 84.6188 46.1842 85.3425 46.1842H87.7618C88.4854 46.1842 88.7266 46.4258 88.7266 47.1212V56.1472L91.3141 56.0448C91.9719 56.0082 92.1766 56.2204 92.1766 56.9452V59.1559C92.1766 59.8806 91.9719 60.0197 91.3141 60.0563L88.7266 60.1661Z" fill="#3A3A3A" stroke="#3A3A3A" stroke-width="9" stroke-miterlimit="10" stroke-linecap="round" stroke-linejoin="round"/>
<path d="M118.154 57.5378C118.812 57.5378 119.016 57.7134 119.016 58.4382V60.4073C119.016 61.2053 118.775 61.3736 118.19 61.3736L96.7742 61.7177C96.1894 61.7177 95.9482 61.542 95.9482 60.7514V58.7822C95.9482 58.0575 96.1529 57.8818 96.8107 57.8818L118.154 57.5378ZM118.885 47.8822C118.885 48.5703 118.643 48.8192 117.92 48.8192L100.546 49.134L100.648 52.106L117.606 51.7913C118.329 51.7913 118.57 52.0328 118.57 52.7283V54.8731C118.57 55.5686 118.329 55.8101 117.606 55.8101L97.3662 56.1542C96.6426 56.1542 96.4306 55.9126 96.4014 55.2172L96.0871 46.0814C96.0506 45.3859 96.3283 45.1443 97.0519 45.1443L117.913 44.8003C118.636 44.8003 118.877 45.0419 118.877 45.7373V47.8822H118.885ZM98.4699 76.9807C97.8852 76.9807 97.6732 76.805 97.644 76.0144L97.4393 69.8213C97.4028 69.0966 97.644 68.9575 98.3018 68.9209L113.71 68.2255L113.775 66.8054L97.5782 67.0835C96.9935 67.0835 96.7523 66.9078 96.7523 66.1172V64.353C96.7523 63.6283 96.9569 63.4526 97.6147 63.4526L117.408 63.1086C118.066 63.1086 118.307 63.2843 118.271 64.009L117.956 70.2386C117.92 71.0365 117.715 71.1756 117.13 71.2049L101.861 71.9003L101.898 73.2839L116.575 73.0057C117.233 73.0057 117.437 73.1814 117.437 73.9061V75.6703C117.437 76.4683 117.196 76.6366 116.611 76.6366L98.4699 76.9807Z" fill="#3A3A3A" stroke="#3A3A3A" stroke-width="9" stroke-miterlimit="10" stroke-linecap="round" stroke-linejoin="round"/>
<path d="M123.168 55.0123C123.168 49.1633 127.276 44.9468 133.496 44.9468C139.716 44.9468 143.86 49.1706 143.86 55.0123C143.86 60.8247 139.716 65.0412 133.496 65.0412C127.276 65.0412 123.168 60.8247 123.168 55.0123ZM143.473 67.7058C144.131 67.7058 144.336 67.8815 144.336 68.6062V70.7511C144.336 71.549 144.094 71.7174 143.51 71.7174L124.096 72.0615C123.512 72.0615 123.27 71.8858 123.27 71.0952V68.9503C123.27 68.2256 123.475 68.0499 124.133 68.0499L143.473 67.7058ZM139.504 55.0123C139.504 51.1398 136.807 48.9583 133.496 48.9583C130.185 48.9583 127.517 51.1398 127.517 55.0123C127.517 58.8189 130.178 61.0297 133.496 61.0297C136.814 61.0297 139.504 58.8189 139.504 55.0123ZM146.894 47.1209C146.894 46.4328 147.135 46.1839 147.859 46.1839H150.278C151.002 46.1839 151.243 46.4255 151.243 47.1209V69.331C151.243 70.0264 151.002 70.268 150.278 70.268H147.859C147.135 70.268 146.894 70.0264 146.894 69.331V47.1209Z" fill="#3A3A3A" stroke="#3A3A3A" stroke-width="9" stroke-miterlimit="10" stroke-linecap="round" stroke-linejoin="round"/>
<path d="M174.735 52.7943C174.735 53.6215 174.735 54.0754 175.29 54.5952L180.129 59.1997C180.509 59.5803 180.509 59.961 180.093 60.3783L178.265 62.2083C177.849 62.6256 177.571 62.5524 177.125 62.1425L172.601 57.8527L167.835 62.6988C167.455 63.0795 167.177 63.1161 166.768 62.7354L164.831 60.8687C164.451 60.5247 164.451 60.144 164.794 59.7633L169.838 54.6098C170.357 54.0534 170.393 53.6435 170.393 52.809V46.0962C170.393 45.4008 170.634 45.1592 171.358 45.1592H173.777C174.501 45.1592 174.742 45.4008 174.742 46.0962V52.7943H174.735ZM188.308 76.9809C187.585 76.9809 187.307 76.7393 187.343 76.0439L187.548 68.5698L172.834 68.8479C172.177 68.8479 171.972 68.6722 171.972 67.9475V65.7368C171.972 65.0121 172.177 64.8364 172.834 64.8364L191.144 64.4923C191.802 64.4923 192.043 64.668 192.007 65.3927L191.692 76.0512C191.656 76.7393 191.451 76.9882 190.727 76.9882H188.308V76.9809ZM190.625 55.803L187.102 55.8689V61.3665C187.102 62.0619 186.861 62.3035 186.137 62.3035H183.718C182.994 62.3035 182.753 62.0619 182.753 61.3665V46.777C182.753 46.0815 182.994 45.84 183.718 45.84H186.137C186.861 45.84 187.102 46.0815 187.102 46.777V51.8646L190.625 51.7988V46.4402C190.625 45.7448 190.866 45.5032 191.59 45.5032H194.009C194.733 45.5032 194.974 45.7448 194.974 46.4402V61.0371C194.974 61.7325 194.733 61.9741 194.009 61.9741H191.59C190.866 61.9741 190.625 61.7325 190.625 61.0371V55.803Z" fill="#3A3A3A" stroke="#3A3A3A" stroke-width="9" stroke-miterlimit="10" stroke-linecap="round" stroke-linejoin="round"/>
<path d="M221.258 61.7179C221.916 61.7179 222.121 61.8936 222.121 62.6183V64.7632C222.121 65.5611 221.88 65.7295 221.295 65.7295L199.879 66.0735C199.294 66.0735 199.053 65.8978 199.053 65.1072V62.9624C199.053 62.2377 199.257 62.062 199.915 62.062L221.258 61.7179ZM200.602 76.9809C199.879 76.9809 199.637 76.7393 199.637 76.0439V69.4336C199.637 68.7455 199.879 68.4966 200.602 68.4966H203.022C203.745 68.4966 203.986 68.7381 203.986 69.4336V72.8961L220.739 72.6546C221.397 72.6546 221.602 72.8302 221.602 73.555V75.7657C221.602 76.4904 221.426 76.6661 220.776 76.6661L200.602 76.9809ZM200.982 51.5865C200.982 46.4988 204.82 43.3511 210.587 43.3511C216.39 43.3511 220.191 46.4988 220.191 51.5865C220.191 56.6742 216.39 59.8219 210.587 59.8219C204.82 59.8219 200.982 56.6742 200.982 51.5865ZM215.528 51.5865C215.528 49.0976 213.869 47.1943 210.587 47.1943C207.305 47.1943 205.646 49.0976 205.646 51.5865C205.646 54.0754 207.305 55.9787 210.587 55.9787C213.869 55.9787 215.528 54.0754 215.528 51.5865Z" fill="#3A3A3A" stroke="#3A3A3A" stroke-width="9" stroke-miterlimit="10" stroke-linecap="round" stroke-linejoin="round"/>
<path d="M231.206 57.7064C231.206 56.7693 231.382 56.5644 232.208 56.5644C235.628 56.5644 238.457 55.5249 238.457 52.8603C238.457 50.7813 236.557 49.3318 233.516 49.3318C231.17 49.3318 229.372 49.9541 227.296 51.1619C226.601 51.5426 226.397 51.4401 226.229 50.7813L225.571 48.6364C225.395 47.9776 225.395 47.6994 226.053 47.3187C227.99 46.2134 229.854 45.2397 233.86 45.2397C238.969 45.2397 242.704 47.3846 242.704 52.7797C242.704 56.8938 239.868 58.5189 238.04 59.251C237.317 59.5291 236.213 59.8073 235.555 59.9098V64.0604C235.555 64.7852 235.351 65.0633 234.554 65.0633H232.208C231.411 65.0633 231.206 64.7852 231.206 64.0604V57.7064V57.7064ZM233.311 67.706C234.656 67.706 235.694 68.643 235.694 69.99C235.694 71.3369 234.656 72.2739 233.311 72.2739C231.893 72.2739 230.892 71.3369 230.892 69.99C230.892 68.643 231.893 67.706 233.311 67.706Z" fill="#3A3A3A" stroke="#3A3A3A" stroke-width="9" stroke-miterlimit="10" stroke-linecap="round" stroke-linejoin="round"/>
<path d="M47.0935 3.98926C47.7513 3.98926 47.956 4.16495 47.956 4.88966V7.02722C47.956 7.82514 47.7148 7.99351 47.13 7.99351L40.9829 8.13259V16.1923C40.9829 17.0195 41.0195 17.3343 41.5385 17.9931L48.1387 26.3311C48.453 26.7483 48.4165 27.0924 47.9998 27.4072L45.8948 29.1055C45.4489 29.4861 45.2369 29.4495 44.8568 29.003L38.8121 21.3898L32.665 29.4495C32.2849 29.8961 32.0803 29.9327 31.6271 29.552L29.449 27.9269C29.0323 27.6121 29.0031 27.2681 29.3101 26.8581L36.0784 18.0005C36.5243 17.3416 36.6339 17.0342 36.6339 16.1997V8.2424L30.4065 8.34488C29.8217 8.34488 29.5805 8.16919 29.5805 7.37859V5.23372C29.5805 4.509 29.7852 4.33332 30.443 4.33332L47.0935 3.98926ZM51.8226 5.61438C51.8226 4.92627 52.0638 4.67737 52.7874 4.67737H55.2067C55.9304 4.67737 56.1716 4.91895 56.1716 5.61438V27.8171C56.1716 28.5125 55.9304 28.7541 55.2067 28.7541H52.7874C52.0638 28.7541 51.8226 28.5125 51.8226 27.8171V5.61438Z" fill="white"/>
<path d="M82.8432 17.1002C83.501 17.1002 83.7057 17.2759 83.7057 18.0006V20.1455C83.7057 20.9434 83.4645 21.1117 82.8797 21.1117L61.4636 21.4558C60.8789 21.4558 60.6377 21.2801 60.6377 20.4895V18.3446C60.6377 17.6199 60.8424 17.4442 61.5002 17.4442L82.8432 17.1002ZM60.7693 4.57501C60.7693 3.87958 61.0105 3.638 61.7341 3.638L82.5947 3.29395C83.3183 3.29395 83.596 3.53552 83.5595 4.23095L83.2452 13.8792C83.2087 14.5746 82.9309 14.8162 82.2073 14.8162H79.7879C79.0643 14.8162 78.8523 14.5746 78.8889 13.8792L79.0935 7.37872L61.7195 7.65689C60.9959 7.65689 60.7546 7.41532 60.7546 6.71988V4.57501H60.7693ZM63.0497 35.467C62.3261 35.467 62.1142 35.2254 62.0849 34.53L61.7706 24.9476C61.7341 24.2595 62.0118 24.0106 62.7355 24.0106L81.6299 23.6666C82.3535 23.6666 82.6312 23.9081 82.5947 24.6036L82.2804 34.1859C82.2438 34.8741 82.0392 35.123 81.3156 35.123L63.0497 35.467ZM66.3316 31.3822L78.041 31.1773L78.1433 27.7513L66.2293 27.9563L66.3316 31.3822Z" fill="white"/>
<path d="M115.135 3.98926C115.793 3.98926 115.998 4.16495 115.998 4.88966V7.02722C115.998 7.82514 115.757 7.99351 115.172 7.99351L109.025 8.13259V16.1923C109.025 17.0195 109.061 17.3343 109.58 17.9931L116.181 26.3311C116.495 26.7483 116.458 27.0924 116.042 27.4072L113.937 29.1055C113.491 29.4861 113.279 29.4495 112.899 29.003L106.854 21.3898L100.707 29.4495C100.327 29.8961 100.122 29.9327 99.6691 29.552L97.491 27.9269C97.0743 27.6121 97.0451 27.2681 97.3521 26.8581L104.12 18.0005C104.566 17.3416 104.676 17.0342 104.676 16.1997V8.2424L98.4558 8.34488C97.871 8.34488 97.6298 8.16919 97.6298 7.37859V5.23372C97.6298 4.509 97.8345 4.33332 98.4923 4.33332L115.135 3.98926ZM119.865 5.61438C119.865 4.92627 120.106 4.67737 120.829 4.67737H123.249C123.972 4.67737 124.214 4.91895 124.214 5.61438V27.8171C124.214 28.5125 123.972 28.7541 123.249 28.7541H120.829C120.106 28.7541 119.865 28.5125 119.865 27.8171V5.61438Z" fill="white"/>
<path d="M131.749 3.98926C132.473 3.98926 132.714 4.23083 132.714 4.92627L132.992 25.7161L144.182 25.438C144.906 25.4014 145.147 25.6795 145.147 26.375V28.5198C145.147 29.208 144.906 29.4203 144.182 29.4569L129.674 29.8009C128.95 29.8375 128.709 29.5593 128.709 28.8639L128.365 4.92627C128.365 4.23083 128.606 3.98926 129.33 3.98926H131.749V3.98926ZM153.407 18.652V27.8171C153.407 28.5125 153.166 28.7541 152.442 28.7541H150.023C149.299 28.7541 149.058 28.5125 149.058 27.8171V5.61438C149.058 4.92627 149.299 4.67737 150.023 4.67737H152.442C153.166 4.67737 153.407 4.91895 153.407 5.61438V14.6404L155.994 14.5379C156.652 14.5013 156.857 14.7136 156.857 15.4383V17.6491C156.857 18.3738 156.652 18.5129 155.994 18.5495L153.407 18.652Z" fill="white"/>
<path d="M159.97 5.263C159.97 4.56756 160.211 4.32599 160.935 4.32599L176.343 3.98193C177.067 3.98193 177.41 4.22351 177.308 4.91894L174.508 28.5125C174.406 29.2006 174.165 29.4495 173.434 29.4495H171.014C170.291 29.4495 170.05 29.208 170.152 28.5125L172.571 8.10331L160.928 8.34488C160.204 8.34488 159.963 8.10331 159.963 7.40787V5.263H159.97ZM185.355 18.652V27.8171C185.355 28.5125 185.114 28.7541 184.39 28.7541H181.971C181.247 28.7541 181.006 28.5125 181.006 27.8171V5.61438C181.006 4.92626 181.247 4.67737 181.971 4.67737H184.39C185.114 4.67737 185.355 4.91894 185.355 5.61438V14.6404L187.943 14.5379C188.601 14.5013 188.805 14.7136 188.805 15.4383V17.6491C188.805 18.3738 188.601 18.5129 187.943 18.5495L185.355 18.652Z" fill="white"/>
<path d="M214.782 19.172C215.44 19.172 215.644 19.3477 215.644 20.0724V22.2173C215.644 23.0152 215.403 23.1836 214.818 23.1836L193.402 23.5277C192.817 23.5277 192.576 23.352 192.576 22.5614V20.4165C192.576 19.6918 192.781 19.5161 193.439 19.5161L214.782 19.172ZM196.092 3.63818C196.816 3.63818 197.028 3.87976 197.057 4.57519L197.261 13.0156L214.219 12.7008C214.942 12.7008 215.184 12.9424 215.184 13.6378V15.7827C215.184 16.4781 214.942 16.7197 214.219 16.7197L193.98 17.0638C193.256 17.0638 193.015 16.8222 193.015 16.1268L192.7 4.57519C192.664 3.87976 192.942 3.63818 193.665 3.63818H196.092V3.63818ZM194.126 35.4672C193.402 35.4672 193.161 35.2256 193.161 34.5302V26.8877C193.161 26.1923 193.402 25.9507 194.126 25.9507H196.545C197.269 25.9507 197.51 26.1923 197.51 26.8877V31.3824L214.263 31.1408C214.921 31.1408 215.125 31.3165 215.125 32.0413V34.252C215.125 34.9767 214.95 35.1524 214.299 35.1524L194.126 35.4672Z" fill="white"/>
<path d="M20.5827 45.4961C21.2405 45.4961 21.4452 45.6718 21.4452 46.3965V48.5414C21.4452 49.3393 21.204 49.5077 20.6192 49.5077L14.8157 49.6467V57.7065C14.8157 58.5337 14.8522 58.8485 15.3712 59.5073L21.6937 67.9111C22.008 68.3284 21.9715 68.6724 21.5548 68.9799L19.3767 70.605C18.9308 70.9857 18.7188 70.9491 18.3388 70.5025L12.6375 62.9625L6.834 70.9564C6.51971 71.4029 6.24927 71.4395 5.79609 71.0589L3.61794 69.4337C3.23786 69.119 3.17207 68.7749 3.47906 68.365L9.90389 59.5073C10.3498 58.8485 10.4594 58.541 10.4594 57.7065V49.7492L4.59007 49.8517C4.00533 49.8517 3.76412 49.676 3.76412 48.8854V46.7406C3.76412 46.0158 3.96878 45.8401 4.62661 45.8401L20.5827 45.4961ZM28.9737 60.1661V69.3312C28.9737 70.0267 28.7325 70.2683 28.0089 70.2683H25.5895C24.8659 70.2683 24.6247 70.0267 24.6247 69.3312V47.1212C24.6247 46.4331 24.8659 46.1842 25.5895 46.1842H28.0089C28.7325 46.1842 28.9737 46.4258 28.9737 47.1212V56.1472L31.5612 56.0448C32.219 56.0082 32.4237 56.2204 32.4237 56.9452V59.1559C32.4237 59.8806 32.219 60.0197 31.5612 60.0563L28.9737 60.1661Z" fill="white"/>
<path d="M59.1317 47.8822C59.1317 48.5703 58.8905 48.8192 58.1669 48.8192L40.7855 49.1266L40.8878 52.7941L57.8453 52.4794C58.5689 52.4794 58.8101 52.7209 58.8101 53.4164V55.5613C58.8101 56.2567 58.5689 56.4983 57.8453 56.4983L49.9001 56.6373V58.9213L58.4008 58.7822C59.0586 58.7822 59.2633 58.9579 59.2633 59.6826V61.8275C59.2633 62.6254 59.0221 62.7938 58.4373 62.7938L37.0213 63.1378C36.4365 63.1378 36.1953 62.9622 36.1953 62.1716V60.0267C36.1953 59.302 36.4 59.1263 37.0578 59.1263L45.5585 58.9872V56.7032L37.6133 56.8423C36.8897 56.8423 36.6777 56.6007 36.6485 55.9053L36.3342 46.0814C36.2976 45.3859 36.5754 45.1443 37.299 45.1443L58.1596 44.8003C58.8832 44.8003 59.1244 45.0419 59.1244 45.7373V47.8822H59.1317ZM38.9948 71.2342C38.9948 67.6399 41.6919 64.763 47.7366 64.763C53.7814 64.763 56.4785 67.6326 56.4785 71.2342C56.4785 74.8358 53.7814 77.7054 47.7366 77.7054C41.7211 77.7054 38.9948 74.8358 38.9948 71.2342ZM51.9467 71.2342C51.9467 69.5725 50.6311 68.4305 47.7293 68.4305C44.8275 68.4305 43.5119 69.5725 43.5119 71.2342C43.5119 72.8959 44.8275 74.0379 47.7293 74.0379C50.6311 74.0379 51.9467 72.8959 51.9467 71.2342Z" fill="white"/>
<path d="M74.5686 47.0187L80.3356 46.8796C80.9935 46.8796 81.1981 47.0553 81.1981 47.78V49.9249C81.1981 50.7228 80.9569 50.8912 80.3722 50.8912L74.5686 51.0303V57.7065C74.5686 58.5337 74.6052 58.8485 75.1241 59.5073L81.4466 67.9111C81.7609 68.3284 81.7244 68.6724 81.3078 68.9799L79.1296 70.605C78.6837 70.9856 78.4718 70.949 78.0917 70.5025L72.3905 62.9625L66.5869 70.9564C66.2726 71.4029 66.0022 71.4395 65.549 71.0589L63.3709 69.4337C62.9908 69.119 62.925 68.7749 63.232 68.365L69.6568 59.5073C70.1027 58.8485 70.2123 58.541 70.2123 57.7065V51.1328L64.343 51.2426C63.7583 51.2426 63.5171 51.0669 63.5171 50.2763V48.1314C63.5171 47.4067 63.7217 47.231 64.3795 47.231L70.2196 47.1285V44.5664C70.2196 43.871 70.4608 43.6294 71.1845 43.6294H73.6038C74.3274 43.6294 74.5686 43.871 74.5686 44.5664V47.0187ZM88.7266 60.1661V69.3312C88.7266 70.0267 88.4854 70.2683 87.7618 70.2683H85.3425C84.6188 70.2683 84.3776 70.0267 84.3776 69.3312V47.1212C84.3776 46.4331 84.6188 46.1842 85.3425 46.1842H87.7618C88.4854 46.1842 88.7266 46.4258 88.7266 47.1212V56.1472L91.3141 56.0448C91.9719 56.0082 92.1766 56.2204 92.1766 56.9452V59.1559C92.1766 59.8806 91.9719 60.0197 91.3141 60.0563L88.7266 60.1661Z" fill="white"/>
<path d="M118.154 57.5378C118.812 57.5378 119.016 57.7134 119.016 58.4382V60.4073C119.016 61.2053 118.775 61.3736 118.19 61.3736L96.7742 61.7177C96.1894 61.7177 95.9482 61.542 95.9482 60.7514V58.7822C95.9482 58.0575 96.1529 57.8818 96.8107 57.8818L118.154 57.5378ZM118.885 47.8822C118.885 48.5703 118.643 48.8192 117.92 48.8192L100.546 49.134L100.648 52.106L117.606 51.7913C118.329 51.7913 118.57 52.0328 118.57 52.7283V54.8731C118.57 55.5686 118.329 55.8101 117.606 55.8101L97.3662 56.1542C96.6426 56.1542 96.4306 55.9126 96.4014 55.2172L96.0871 46.0814C96.0506 45.3859 96.3283 45.1443 97.0519 45.1443L117.913 44.8003C118.636 44.8003 118.877 45.0419 118.877 45.7373V47.8822H118.885ZM98.4699 76.9807C97.8852 76.9807 97.6732 76.805 97.644 76.0144L97.4393 69.8213C97.4028 69.0966 97.644 68.9575 98.3018 68.9209L113.71 68.2255L113.775 66.8054L97.5782 67.0835C96.9935 67.0835 96.7523 66.9078 96.7523 66.1172V64.353C96.7523 63.6283 96.9569 63.4526 97.6147 63.4526L117.408 63.1086C118.066 63.1086 118.307 63.2843 118.271 64.009L117.956 70.2386C117.92 71.0365 117.715 71.1756 117.13 71.2049L101.861 71.9003L101.898 73.2839L116.575 73.0057C117.233 73.0057 117.437 73.1814 117.437 73.9061V75.6703C117.437 76.4683 117.196 76.6366 116.611 76.6366L98.4699 76.9807Z" fill="white"/>
<path d="M123.168 55.0123C123.168 49.1633 127.276 44.9468 133.496 44.9468C139.716 44.9468 143.86 49.1706 143.86 55.0123C143.86 60.8247 139.716 65.0412 133.496 65.0412C127.276 65.0412 123.168 60.8247 123.168 55.0123ZM143.473 67.7058C144.131 67.7058 144.336 67.8815 144.336 68.6062V70.7511C144.336 71.549 144.094 71.7174 143.51 71.7174L124.096 72.0615C123.512 72.0615 123.27 71.8858 123.27 71.0952V68.9503C123.27 68.2256 123.475 68.0499 124.133 68.0499L143.473 67.7058ZM139.504 55.0123C139.504 51.1398 136.807 48.9583 133.496 48.9583C130.185 48.9583 127.517 51.1398 127.517 55.0123C127.517 58.8189 130.178 61.0297 133.496 61.0297C136.814 61.0297 139.504 58.8189 139.504 55.0123ZM146.894 47.1209C146.894 46.4328 147.135 46.1839 147.859 46.1839H150.278C151.002 46.1839 151.243 46.4255 151.243 47.1209V69.331C151.243 70.0264 151.002 70.268 150.278 70.268H147.859C147.135 70.268 146.894 70.0264 146.894 69.331V47.1209Z" fill="white"/>
<path d="M174.735 52.7943C174.735 53.6215 174.735 54.0754 175.29 54.5952L180.129 59.1997C180.509 59.5803 180.509 59.961 180.093 60.3783L178.265 62.2083C177.849 62.6256 177.571 62.5524 177.125 62.1425L172.601 57.8527L167.835 62.6988C167.455 63.0795 167.177 63.1161 166.768 62.7354L164.831 60.8687C164.451 60.5247 164.451 60.144 164.794 59.7633L169.838 54.6098C170.357 54.0534 170.393 53.6435 170.393 52.809V46.0962C170.393 45.4008 170.634 45.1592 171.358 45.1592H173.777C174.501 45.1592 174.742 45.4008 174.742 46.0962V52.7943H174.735ZM188.308 76.9809C187.585 76.9809 187.307 76.7393 187.343 76.0439L187.548 68.5698L172.834 68.8479C172.177 68.8479 171.972 68.6722 171.972 67.9475V65.7368C171.972 65.0121 172.177 64.8364 172.834 64.8364L191.144 64.4923C191.802 64.4923 192.043 64.668 192.007 65.3927L191.692 76.0512C191.656 76.7393 191.451 76.9882 190.727 76.9882H188.308V76.9809ZM190.625 55.803L187.102 55.8689V61.3665C187.102 62.0619 186.861 62.3035 186.137 62.3035H183.718C182.994 62.3035 182.753 62.0619 182.753 61.3665V46.777C182.753 46.0815 182.994 45.84 183.718 45.84H186.137C186.861 45.84 187.102 46.0815 187.102 46.777V51.8646L190.625 51.7988V46.4402C190.625 45.7448 190.866 45.5032 191.59 45.5032H194.009C194.733 45.5032 194.974 45.7448 194.974 46.4402V61.0371C194.974 61.7325 194.733 61.9741 194.009 61.9741H191.59C190.866 61.9741 190.625 61.7325 190.625 61.0371V55.803Z" fill="#FF8DBE"/>
<path d="M221.258 61.7179C221.916 61.7179 222.121 61.8936 222.121 62.6183V64.7632C222.121 65.5611 221.88 65.7295 221.295 65.7295L199.879 66.0735C199.294 66.0735 199.053 65.8978 199.053 65.1072V62.9624C199.053 62.2377 199.257 62.062 199.915 62.062L221.258 61.7179ZM200.602 76.9809C199.879 76.9809 199.637 76.7393 199.637 76.0439V69.4336C199.637 68.7455 199.879 68.4966 200.602 68.4966H203.022C203.745 68.4966 203.986 68.7381 203.986 69.4336V72.8961L220.739 72.6546C221.397 72.6546 221.602 72.8302 221.602 73.555V75.7657C221.602 76.4904 221.426 76.6661 220.776 76.6661L200.602 76.9809ZM200.982 51.5865C200.982 46.4988 204.82 43.3511 210.587 43.3511C216.39 43.3511 220.191 46.4988 220.191 51.5865C220.191 56.6742 216.39 59.8219 210.587 59.8219C204.82 59.8219 200.982 56.6742 200.982 51.5865ZM215.528 51.5865C215.528 49.0976 213.869 47.1943 210.587 47.1943C207.305 47.1943 205.646 49.0976 205.646 51.5865C205.646 54.0754 207.305 55.9787 210.587 55.9787C213.869 55.9787 215.528 54.0754 215.528 51.5865Z" fill="white"/>
<path d="M231.206 57.7064C231.206 56.7693 231.382 56.5644 232.208 56.5644C235.628 56.5644 238.457 55.5249 238.457 52.8603C238.457 50.7813 236.557 49.3318 233.516 49.3318C231.17 49.3318 229.372 49.9541 227.296 51.1619C226.601 51.5426 226.397 51.4401 226.229 50.7813L225.571 48.6364C225.395 47.9776 225.395 47.6994 226.053 47.3187C227.99 46.2134 229.854 45.2397 233.86 45.2397C238.969 45.2397 242.704 47.3846 242.704 52.7797C242.704 56.8938 239.868 58.5189 238.04 59.251C237.317 59.5291 236.213 59.8073 235.555 59.9098V64.0604C235.555 64.7852 235.351 65.0633 234.554 65.0633H232.208C231.411 65.0633 231.206 64.7852 231.206 64.0604V57.7064V57.7064ZM233.311 67.706C234.656 67.706 235.694 68.643 235.694 69.99C235.694 71.3369 234.656 72.2739 233.311 72.2739C231.893 72.2739 230.892 71.3369 230.892 69.99C230.892 68.643 231.893 67.706 233.311 67.706Z" fill="white"/>
</g>
<defs>
<clipPath id="clip0_396_4758">
<rect width="246" height="81" fill="white"/>
</clipPath>
</defs>
</svg>
