<svg width="300" height="48" viewBox="0 0 300 48" fill="none" xmlns="http://www.w3.org/2000/svg">
<g clip-path="url(#clip0_396_4689)">
<path d="M279.8 48H20.2C9.04 48 0 38.96 0 27.8V20.2C0 9.04 9.04 0 20.2 0H279.8C290.96 0 300 9.04 300 20.2V27.8C300 38.96 290.96 48 279.8 48Z" fill="#31B2A3"/>
<path d="M108.45 31.9295C107.43 31.9095 106.6 31.6395 105.97 31.1095C105.34 30.5795 104.84 29.9095 104.48 29.0995C104.12 28.2995 103.88 27.4195 103.75 26.4595C103.62 25.4995 103.56 24.5895 103.56 23.7195C103.56 23.2395 103.61 22.7495 103.7 22.2395C103.79 21.7295 103.94 21.2295 104.15 20.7395C104.35 20.2495 104.61 19.7695 104.91 19.3095C105.21 18.8495 105.58 18.4395 106.01 18.0595C106.93 17.2795 107.86 16.7395 108.8 16.4295C109.74 16.1195 110.75 15.9295 111.82 15.8395C112.11 15.8195 112.38 15.8395 112.62 15.8995C112.87 15.9595 112.99 16.1295 112.99 16.4195C112.99 16.5595 112.96 16.7195 112.91 16.8995C112.86 17.0895 112.79 17.2695 112.71 17.4295C112.61 17.5995 112.49 17.7395 112.37 17.8595C112.24 17.9795 112.1 18.0395 111.95 18.0395C111.63 18.0195 111.27 18.0395 110.88 18.0795C110.49 18.1195 110.09 18.1995 109.68 18.3195C109.26 18.4395 108.84 18.5995 108.43 18.7995C108.02 18.9995 107.63 19.2695 107.26 19.5895C106.72 20.0695 106.3 20.6795 106.01 21.4195C105.72 22.1695 105.58 22.9595 105.58 23.7895C105.58 24.2995 105.61 24.8995 105.67 25.5995C105.73 26.2995 105.86 26.9595 106.06 27.5895C106.26 28.2395 106.57 28.7895 106.98 29.2595C107.39 29.7295 107.95 29.9895 108.66 30.0595C108.95 30.0895 109.27 30.0695 109.62 29.9795C109.97 29.8995 110.33 29.7695 110.7 29.5995C111.06 29.4295 111.42 29.2195 111.8 28.9595C112.18 28.6995 112.52 28.4095 112.84 28.0695C112.99 27.8995 113.19 27.8395 113.43 27.8895C113.67 27.9395 113.87 28.0495 114.04 28.2195C114.21 28.3895 114.32 28.5995 114.37 28.8395C114.42 29.0895 114.34 29.3195 114.14 29.5395C113.73 29.9995 113.27 30.3795 112.76 30.6695C112.25 30.9695 111.73 31.2095 111.21 31.3995C110.68 31.5895 110.18 31.7095 109.69 31.7795C109.2 31.8495 108.79 31.9295 108.45 31.9295Z" fill="#F5DF70"/>
<path d="M120.239 20.4698C120.409 20.3498 120.589 20.3298 120.789 20.4098C120.979 20.4898 121.159 20.5898 121.309 20.7298C121.449 20.8798 121.539 21.0398 121.599 21.2098C121.659 21.3798 121.639 21.4998 121.539 21.5698C121.509 21.5998 121.449 21.6498 121.389 21.6998C121.319 21.7498 121.249 21.8398 121.159 21.9498C121.719 22.1698 122.279 22.4898 122.849 22.9198C123.419 23.3398 123.869 23.8698 124.209 24.4998C124.409 24.8698 124.579 25.3098 124.709 25.8198C124.839 26.3298 124.899 26.8398 124.899 27.3498C124.899 27.6898 124.869 28.0098 124.809 28.3198C124.749 28.6298 124.669 28.9198 124.569 29.2098C124.399 29.6498 124.089 30.0498 123.649 30.3898C123.209 30.7398 122.699 31.0298 122.119 31.2698C121.539 31.5098 120.919 31.6898 120.259 31.8298C119.599 31.9698 118.959 32.0298 118.349 32.0298C118.129 32.0298 117.889 32.0198 117.619 31.9998C117.359 31.9798 117.129 31.9598 116.939 31.9198C116.669 31.8698 116.449 31.7498 116.279 31.5498C116.109 31.3498 115.979 31.1298 115.899 30.8798C115.799 30.6298 115.729 30.3498 115.699 30.0498C115.669 29.7498 115.649 29.4798 115.649 29.2198C115.649 28.7098 115.729 28.1098 115.879 27.4098C115.999 26.8798 116.209 26.2798 116.499 25.5998C116.799 24.9198 117.149 24.2498 117.559 23.5898C117.949 22.9298 118.379 22.3198 118.849 21.7598C119.319 21.2098 119.779 20.7798 120.239 20.4698ZM122.349 25.2398C122.199 24.9298 121.939 24.5998 121.589 24.2298C121.229 23.8698 120.739 23.5998 120.109 23.4298C119.909 23.6298 119.689 23.9098 119.449 24.2498C119.209 24.5898 118.989 24.9498 118.789 25.3198C118.569 25.7098 118.369 26.1098 118.179 26.5298C117.989 26.9498 117.849 27.3298 117.749 27.6898C117.699 27.8598 117.649 28.0998 117.609 28.4198C117.569 28.7298 117.549 29.0398 117.549 29.3198C117.549 29.6798 117.629 29.9298 117.779 30.0798C117.929 30.2298 118.199 30.3098 118.589 30.3098C118.909 30.3098 119.279 30.2598 119.699 30.1698C120.119 30.0798 120.509 29.9498 120.879 29.7798C121.249 29.6098 121.589 29.4098 121.889 29.1798C122.189 28.9498 122.389 28.7098 122.489 28.4498C122.569 28.2498 122.629 28.0198 122.659 27.7798C122.689 27.5298 122.699 27.2798 122.699 26.9998C122.699 26.7298 122.679 26.4398 122.639 26.1298C122.579 25.8198 122.489 25.5198 122.349 25.2398Z" fill="#F5DF70"/>
<path d="M136.82 24.4196C136.89 24.9596 136.93 25.5296 136.96 26.1296C136.99 26.7296 137 27.4496 137 28.2896L136.97 31.0896C136.97 31.1196 136.94 31.1796 136.87 31.2596C136.8 31.3396 136.72 31.4196 136.62 31.4996C136.5 31.5796 136.37 31.6596 136.24 31.7196C136.11 31.7796 135.97 31.8096 135.83 31.8096C135.68 31.7796 135.48 31.7496 135.24 31.7496C135 31.7396 134.82 31.7396 134.71 31.7396C134.59 31.7596 134.43 31.7696 134.23 31.7796C134.03 31.7896 133.81 31.7796 133.57 31.7696C133.84 31.5696 134.05 31.3896 134.18 31.2496C134.32 31.1096 134.42 30.9696 134.49 30.8596C134.52 30.7896 134.56 30.6496 134.59 30.4396C134.62 30.2296 134.66 29.9596 134.69 29.6396C134.71 29.3296 134.72 28.9896 134.73 28.6096C134.74 28.2296 134.74 27.8396 134.74 27.4496L134.69 24.9796C134.67 24.4396 134.58 23.9996 134.4 23.6596C134.22 23.3196 133.87 23.1096 133.34 23.0196C133.25 22.9996 133.07 22.9896 132.79 22.9896C132.51 22.9896 132.05 22.9896 131.4 22.9896C130.98 22.9896 130.62 23.1296 130.34 23.4196C130.06 23.7096 129.92 24.1696 129.92 24.7996V31.1396L129.69 31.3696L129.38 31.3396C129.19 31.3196 129.04 31.3396 128.91 31.3896C128.78 31.4396 128.63 31.5396 128.44 31.6996C128.41 31.7196 128.36 31.7496 128.3 31.7996C128.24 31.8496 128.19 31.8796 128.13 31.8796C128.04 31.8796 127.95 31.8296 127.84 31.7296C127.73 31.6296 127.67 31.5296 127.67 31.4196C127.67 30.2496 127.7 29.0596 127.75 27.8396C127.8 26.6296 127.86 25.4596 127.93 24.3396C128.01 23.1996 128.32 22.4196 128.85 21.9796C129.38 21.5396 130.19 21.3296 131.3 21.3296H133.21C133.67 21.3296 134.1 21.3996 134.51 21.5296C134.92 21.6696 135.28 21.8596 135.61 22.1196C135.93 22.3896 136.2 22.7196 136.42 23.0996C136.63 23.4696 136.77 23.9096 136.82 24.4196Z" fill="#F5DF70"/>
<path d="M144.82 27.6299C144.82 28.1399 144.83 28.6699 144.86 29.2099C144.89 29.7499 144.9 30.3599 144.9 31.0199V31.3299L144.67 31.5599C144.42 31.5299 144.19 31.5299 143.98 31.5599C143.77 31.5899 143.56 31.7099 143.32 31.9199C143.29 31.9399 143.25 31.9599 143.21 31.9799C143.17 32.0099 143.1 32.0399 143.02 32.0899C142.9 32.0399 142.79 31.9799 142.7 31.8999C142.61 31.8199 142.56 31.7299 142.56 31.6299C142.56 30.9199 142.56 30.1799 142.56 29.4099C142.56 28.6499 142.58 27.9099 142.61 27.1899C142.64 26.5399 142.68 25.8999 142.72 25.2699C142.76 24.6299 142.81 23.9899 142.86 23.3499H142.83C142.39 23.3499 141.9 23.3199 141.37 23.2699C140.84 23.2199 140.32 23.1599 139.83 23.0899C139.8 23.0899 139.73 23.0899 139.64 23.0799C139.55 23.0699 139.48 23.0699 139.45 23.0699C139.38 23.0499 139.35 22.9799 139.35 22.8499C139.35 22.7199 139.37 22.5799 139.4 22.4299C139.43 22.2799 139.49 22.1399 139.57 22.0199C139.65 21.8999 139.73 21.8399 139.81 21.8399C139.95 21.8399 140.13 21.8399 140.37 21.8299C140.61 21.8199 140.85 21.8099 141.11 21.7899C141.35 21.7899 141.57 21.7799 141.77 21.7599C141.97 21.7399 142.11 21.7299 142.18 21.7299C142.33 21.7099 142.47 21.6999 142.6 21.6899C142.73 21.6799 142.86 21.6699 143 21.6499C143.03 21.1599 143.06 20.6599 143.09 20.1599C143.12 19.6599 143.13 19.1599 143.13 18.6699C143.13 18.2099 143.14 17.7899 143.16 17.4099C143.18 17.0299 143.19 16.7699 143.21 16.6299C143.24 16.2899 143.35 16.0899 143.52 16.0299C143.69 15.9699 143.89 15.9399 144.13 15.9399C144.27 15.9399 144.39 15.9799 144.5 16.0699C144.61 16.1599 144.67 16.3299 144.69 16.6099C144.69 16.7299 144.7 16.9799 144.72 17.3599C144.74 17.7399 144.75 18.1699 144.77 18.6499C144.79 19.1399 144.8 19.6399 144.82 20.1499C144.84 20.6599 144.85 21.0999 144.85 21.4699C145.12 21.4399 145.33 21.3999 145.49 21.3699C145.64 21.3399 145.79 21.2899 145.92 21.2399C145.97 21.2399 146.1 21.2099 146.3 21.1499C146.5 21.0899 146.62 21.0399 146.66 20.9799C146.74 20.8599 146.77 20.6999 146.74 20.4799C146.71 20.2599 146.67 20.0499 146.64 19.8299C146.61 19.6899 146.58 19.5599 146.55 19.4199C146.52 19.2799 146.55 19.1999 146.64 19.1699C146.78 19.0999 146.89 19.1699 146.98 19.3899C147.07 19.5999 147.2 19.8299 147.35 20.0599C147.49 20.2499 147.6 20.4299 147.69 20.6199C147.78 20.8099 147.87 20.8899 147.96 20.8699C148.08 20.8699 148.2 20.9099 148.32 20.9999C148.42 21.0799 148.48 21.2099 148.49 21.3799C148.5 21.5499 148.48 21.7299 148.43 21.9199C148.38 22.1099 148.3 22.2799 148.19 22.4299C148.08 22.5799 147.96 22.6799 147.82 22.7099C147.72 22.7399 147.56 22.7799 147.35 22.8099C147.14 22.8399 146.9 22.8799 146.62 22.9099C146.33 22.9599 146.03 23.0099 145.72 23.0599C145.41 23.1099 145.11 23.1499 144.84 23.1899C144.84 23.3599 144.84 23.5599 144.84 23.7899C144.84 24.0199 144.84 24.2999 144.84 24.6399C144.84 24.9799 144.84 25.3899 144.85 25.8799C144.81 26.3899 144.82 26.9699 144.82 27.6299Z" fill="#F5DF70"/>
<path d="M153.219 30.5098V31.7798L152.989 32.0098H152.759C152.589 31.9798 152.429 31.9698 152.289 31.9798C152.149 31.9998 151.949 32.0998 151.719 32.2898C151.689 32.3198 151.639 32.3598 151.579 32.3898C151.519 32.4198 151.449 32.4698 151.359 32.5198C151.239 32.4698 151.129 32.4098 151.039 32.3298C150.949 32.2498 150.899 32.1598 150.899 32.0598C150.899 31.4998 150.899 30.8198 150.899 30.0198C150.899 29.2198 150.929 28.4498 150.979 27.6998C151.009 27.2798 151.049 26.8298 151.089 26.3798C151.129 25.9298 151.189 25.4698 151.259 25.0298C151.309 24.7098 151.339 24.4898 151.349 24.3898C151.359 24.2898 151.369 24.2098 151.389 24.1598C151.439 23.7998 151.479 23.4398 151.519 23.0798C151.549 22.7198 151.569 22.3398 151.569 21.9498C151.569 21.6098 151.699 21.4098 151.969 21.3498C152.229 21.2898 152.509 21.2598 152.799 21.2598C153.119 21.2598 153.289 21.4898 153.309 21.9498C153.329 22.0898 153.329 22.3498 153.319 22.7498C153.309 23.1498 153.299 23.5398 153.279 23.9298L153.219 30.5098ZM151.239 16.5798C151.219 16.4398 151.249 16.3098 151.329 16.1798C151.409 16.0498 151.509 15.9698 151.649 15.9398C151.889 15.8698 152.149 15.8398 152.439 15.8398C152.729 15.8398 153.009 15.8898 153.279 15.9898C153.359 16.0198 153.419 16.0998 153.459 16.2198C153.489 16.3398 153.499 16.4698 153.489 16.6298C153.459 16.9198 153.409 17.2598 153.359 17.6598C153.309 18.0598 153.239 18.4498 153.159 18.8198C153.129 18.9198 153.029 18.9898 152.869 19.0398C152.709 19.0798 152.529 19.0998 152.349 19.0998C152.179 19.0998 152.009 19.0698 151.849 19.0198C151.689 18.9698 151.589 18.8898 151.559 18.7898C151.479 18.4698 151.409 18.0898 151.369 17.6598C151.309 17.2298 151.269 16.8598 151.239 16.5798Z" fill="#F5DF70"/>
<path d="M165.849 24.4196C165.919 24.9596 165.959 25.5296 165.989 26.1296C166.019 26.7296 166.029 27.4496 166.029 28.2896L165.999 31.0896C165.999 31.1196 165.969 31.1796 165.899 31.2596C165.829 31.3396 165.749 31.4196 165.649 31.4996C165.529 31.5796 165.399 31.6596 165.269 31.7196C165.139 31.7796 164.999 31.8096 164.859 31.8096C164.709 31.7796 164.509 31.7496 164.269 31.7496C164.029 31.7396 163.849 31.7396 163.739 31.7396C163.619 31.7596 163.459 31.7696 163.259 31.7796C163.059 31.7896 162.839 31.7796 162.599 31.7696C162.869 31.5696 163.079 31.3896 163.209 31.2496C163.349 31.1096 163.449 30.9696 163.519 30.8596C163.549 30.7896 163.589 30.6496 163.619 30.4396C163.649 30.2296 163.689 29.9596 163.719 29.6396C163.739 29.3296 163.749 28.9896 163.759 28.6096C163.769 28.2296 163.769 27.8396 163.769 27.4496L163.719 24.9796C163.699 24.4396 163.609 23.9996 163.429 23.6596C163.249 23.3196 162.899 23.1096 162.369 23.0196C162.279 22.9996 162.099 22.9896 161.819 22.9896C161.539 22.9896 161.079 22.9896 160.429 22.9896C160.009 22.9896 159.649 23.1296 159.369 23.4196C159.089 23.7096 158.949 24.1696 158.949 24.7996V31.1396L158.719 31.3696L158.409 31.3396C158.219 31.3196 158.069 31.3396 157.939 31.3896C157.809 31.4396 157.659 31.5396 157.469 31.6996C157.439 31.7196 157.389 31.7496 157.329 31.7996C157.269 31.8496 157.219 31.8796 157.159 31.8796C157.069 31.8796 156.979 31.8296 156.869 31.7296C156.759 31.6296 156.699 31.5296 156.699 31.4196C156.699 30.2496 156.729 29.0596 156.779 27.8396C156.829 26.6296 156.889 25.4596 156.959 24.3396C157.039 23.1996 157.349 22.4196 157.879 21.9796C158.409 21.5396 159.219 21.3296 160.329 21.3296H162.239C162.699 21.3296 163.129 21.3996 163.539 21.5296C163.949 21.6696 164.309 21.8596 164.639 22.1196C164.959 22.3896 165.229 22.7196 165.449 23.0996C165.669 23.4696 165.799 23.9096 165.849 24.4196Z" fill="#F5DF70"/>
<path d="M168.989 21.8498C168.989 21.6298 169.109 21.4798 169.359 21.3898C169.609 21.3098 169.849 21.2698 170.089 21.2898C170.329 21.2898 170.549 21.3498 170.749 21.4698C170.949 21.5898 171.059 21.6898 171.059 21.7798C171.059 22.0298 171.059 22.2598 171.049 22.4498C171.039 22.6498 171.039 22.8298 171.039 22.9998C171.039 23.1898 171.039 23.3698 171.039 23.5598C171.039 23.7498 171.039 23.9498 171.039 24.1698C171.039 24.7798 171.059 25.3798 171.089 25.9798C171.119 26.5698 171.199 27.1298 171.319 27.6398C171.369 27.8598 171.429 28.0898 171.509 28.3298C171.589 28.5698 171.679 28.7898 171.779 28.9898C171.879 29.1898 171.999 29.3698 172.119 29.5098C172.249 29.6498 172.399 29.7498 172.569 29.7998C172.909 29.9198 173.249 29.9798 173.599 29.9798C173.949 29.9798 174.289 29.9498 174.629 29.8998C174.869 29.8698 175.069 29.7798 175.229 29.6298C175.389 29.4898 175.519 29.3098 175.629 29.1098C175.729 28.9198 175.809 28.7198 175.869 28.4998C175.929 28.2798 175.979 28.0698 176.009 27.8598C176.089 27.3498 176.169 26.7098 176.229 25.9398C176.289 25.1698 176.319 24.4498 176.319 23.7898C176.319 23.4298 176.319 23.0898 176.319 22.7498C176.319 22.4098 176.309 22.0998 176.289 21.8098C176.289 21.7298 176.389 21.6198 176.579 21.4898C176.769 21.3598 176.989 21.2998 177.229 21.2998C177.449 21.2998 177.679 21.3298 177.899 21.3798C178.129 21.4298 178.269 21.5798 178.319 21.8398C178.349 21.9798 178.369 22.1698 178.359 22.4098C178.349 22.6598 178.349 23.0598 178.349 23.6198C178.349 24.4398 178.339 25.2598 178.309 26.0898C178.279 26.9198 178.199 27.6898 178.069 28.4098C177.929 29.1198 177.689 29.7598 177.339 30.3098C176.989 30.8598 176.509 31.2298 175.899 31.4198C175.119 31.6398 174.279 31.7498 173.389 31.7498C172.499 31.7498 171.699 31.5698 171.009 31.2198C170.279 30.8498 169.769 30.0398 169.479 28.7998C169.339 28.2598 169.249 27.6698 169.189 27.0498C169.129 26.4298 169.079 25.8098 169.049 25.1798C169.019 24.5698 168.999 23.9798 168.999 23.4098C168.989 22.8198 168.989 22.3098 168.989 21.8498Z" fill="#F5DF70"/>
<path d="M185.24 31.6798C183.92 31.6098 182.87 31.1698 182.11 30.3398C181.35 29.5198 180.96 28.3798 180.96 26.9398C180.96 26.7198 180.97 26.4998 180.99 26.2798C181.01 26.0598 181.03 25.8298 181.07 25.5898C181.31 24.1998 181.85 23.1298 182.69 22.3898C183.53 21.6498 184.67 21.2798 186.12 21.2798C186.58 21.2798 187.03 21.3398 187.47 21.4498C187.91 21.5598 188.32 21.7298 188.69 21.9498C189.05 22.1698 189.35 22.4498 189.61 22.7898C189.86 23.1298 190.03 23.5298 190.12 23.9898C190.2 24.3998 190.21 24.7998 190.15 25.2098C190.08 25.6198 189.95 25.9798 189.77 26.3098C189.57 26.6298 189.3 26.9098 188.97 27.1398C188.64 27.3698 188.25 27.5098 187.81 27.5598C187.47 27.6098 187.14 27.6398 186.82 27.6398C186.17 27.6398 185.55 27.5598 184.96 27.3898C184.37 27.2198 183.79 26.8798 183.23 26.3698C183.21 26.5198 183.2 26.6598 183.19 26.7898C183.18 26.9198 183.18 27.0598 183.18 27.2098C183.18 27.5798 183.22 27.9398 183.29 28.2698C183.37 28.5998 183.5 28.8898 183.69 29.1498C183.88 29.3998 184.12 29.5998 184.43 29.7498C184.74 29.8998 185.11 29.9698 185.55 29.9698C185.77 29.9698 186.04 29.9498 186.36 29.9198C186.68 29.8898 187.02 29.8398 187.38 29.7698C187.74 29.6998 188.08 29.6098 188.42 29.4898C188.76 29.3698 189.07 29.2398 189.36 29.0798C189.48 29.0098 189.61 29.0598 189.76 29.2198C189.9 29.3798 190.03 29.5698 190.13 29.7898C190.23 30.0298 190.3 30.2598 190.32 30.4898C190.35 30.7198 190.3 30.8698 190.18 30.9398C189.79 31.1398 189.35 31.2998 188.86 31.4098C188.37 31.5198 187.89 31.5998 187.43 31.6498C186.95 31.6998 186.52 31.7298 186.12 31.7298C185.72 31.7298 185.41 31.6998 185.24 31.6798ZM186.1 23.0198C185.83 23.0198 185.55 23.0598 185.27 23.1498C184.99 23.2398 184.73 23.3598 184.49 23.5298C184.24 23.7198 184.01 23.9398 183.83 24.1898C183.64 24.4398 183.51 24.7298 183.42 25.0598C184.1 25.3998 184.67 25.6198 185.13 25.7298C185.59 25.8398 186.07 25.8998 186.58 25.8998C186.92 25.8998 187.21 25.8498 187.46 25.7298C187.71 25.6198 187.89 25.4298 188.01 25.1598C188.18 24.7698 188.2 24.3898 188.06 24.0098C187.96 23.7398 187.72 23.5098 187.33 23.3098C186.96 23.1198 186.54 23.0198 186.1 23.0198Z" fill="#F5DF70"/>
<path d="M196.24 22.6898C196.24 23.0298 196.25 23.4498 196.27 23.9598C196.29 24.4698 196.3 24.9698 196.32 25.4598C196.32 25.9698 196.32 26.4298 196.33 26.8398C196.34 27.2498 196.33 27.5198 196.32 27.6498C196.3 28.0398 196.17 28.2398 195.91 28.2398C195.64 28.2398 195.38 28.2098 195.12 28.1598C194.87 28.1098 194.74 27.9398 194.74 27.6498C194.74 27.3798 194.73 27.0498 194.71 26.6598C194.69 26.2698 194.67 25.8598 194.63 25.4398C194.6 25.0198 194.56 24.6098 194.53 24.2298C194.5 23.8498 194.46 23.5398 194.43 23.2998C194.4 23.0798 194.37 22.7598 194.34 22.3298C194.31 21.9098 194.29 21.4598 194.28 21.0098C194.25 20.5698 194.22 20.1398 194.2 19.7198C194.18 19.2998 194.17 18.9898 194.15 18.7598C194.1 18.0298 194.07 17.4198 194.06 16.9398C194.05 16.4598 194.05 15.9298 194.05 15.3698C194.05 15.2998 194.1 15.2298 194.2 15.1398C194.3 15.0598 194.38 15.0098 194.43 15.0098C194.48 15.0098 194.54 15.0398 194.61 15.0998C194.68 15.1598 194.73 15.2098 194.76 15.2398C195.05 15.4898 195.4 15.5998 195.8 15.5498C195.85 15.5498 195.91 15.5498 195.97 15.5398C196.03 15.5298 196.08 15.5298 196.11 15.5298L196.24 15.6598V15.9698C196.24 16.5798 196.24 17.1198 196.23 17.5698C196.22 18.0298 196.22 18.5498 196.22 19.1198C196.22 19.2698 196.22 19.5098 196.22 19.8498C196.22 20.1798 196.23 20.5298 196.25 20.9098C196.25 21.2798 196.25 21.6398 196.25 21.9798C196.24 22.3098 196.24 22.5498 196.24 22.6898ZM194.76 30.0198C194.81 29.9398 194.9 29.8698 195.01 29.8298C195.13 29.7898 195.26 29.7698 195.39 29.7698C195.53 29.7698 195.65 29.7898 195.77 29.8198C195.89 29.8498 195.97 29.9098 196.02 29.9998C196.14 30.1898 196.23 30.4298 196.3 30.7398C196.37 31.0498 196.41 31.3498 196.43 31.6598C196.43 31.9498 196.41 32.2098 196.37 32.4398C196.33 32.6698 196.26 32.8098 196.15 32.8598C195.96 32.9398 195.73 32.9898 195.44 32.9898C195.15 32.9898 194.94 32.9598 194.8 32.9098C194.66 32.8598 194.56 32.7398 194.49 32.5698C194.42 32.3998 194.39 32.1898 194.39 31.9698C194.39 31.8498 194.4 31.6998 194.42 31.5198C194.44 31.3398 194.46 31.1598 194.5 30.9698C194.53 30.7698 194.57 30.5798 194.61 30.4198C194.67 30.2598 194.71 30.1298 194.76 30.0198Z" fill="#F5DF70"/>
</g>
<defs>
<clipPath id="clip0_396_4689">
<rect width="300" height="48" fill="white"/>
</clipPath>
</defs>
</svg>
