<svg width="76" height="25" viewBox="0 0 76 25" fill="none" xmlns="http://www.w3.org/2000/svg">
<g clip-path="url(#clip0_396_5184)">
<path d="M6.14485 23.1857C4.26911 23.2351 2.88925 22.9387 2.01246 22.2964C1.13568 21.6611 0.553551 20.7718 0.258894 19.6355C0.0648514 18.8802 -0.0213897 18.0897 0.00735732 17.278C0.0289176 16.4593 0.115159 15.6052 0.258894 14.7089C0.402629 13.8831 0.718847 13.0502 1.20036 12.2103C1.68187 11.3703 2.21369 10.7281 2.78863 10.2763C3.41388 9.78226 4.12537 9.42935 4.91592 9.23172C5.70646 9.0341 6.48982 8.92822 7.26599 8.92822C7.94154 8.92822 8.54523 8.98469 9.09142 9.10468C9.63043 9.22467 10.0616 9.37995 10.3707 9.56346C10.6581 9.75403 10.924 10.0152 11.1684 10.3469C11.4056 10.6786 11.5134 10.9751 11.4918 11.2362C11.4918 11.3986 11.4127 11.575 11.2546 11.7515C11.0965 11.9279 10.9097 12.055 10.6941 12.1256C10.4569 12.2173 10.1982 12.2526 9.93946 12.2314C9.67355 12.2103 9.42202 12.0903 9.17767 11.8785C8.81833 11.575 8.21464 11.4198 7.37379 11.4198C7.01445 11.4198 6.65511 11.4692 6.31015 11.5609C5.958 11.6527 5.64178 11.7868 5.35431 11.9491C4.87279 12.2103 4.41284 12.6126 3.96726 13.1561C3.52168 13.6995 3.2414 14.3136 3.11923 14.9982C3.0258 15.5417 2.96112 16.1346 2.93956 16.7698C2.918 17.4051 2.96112 18.0615 3.08329 18.7179C3.20547 19.4237 3.50731 19.9037 4.0032 20.1507C4.49908 20.3977 5.28244 20.5248 6.36764 20.5248C6.65511 20.5248 7.02164 20.4754 7.46722 20.3836C7.9128 20.2919 8.37275 20.1578 8.85426 19.9954C9.31421 19.8331 9.75261 19.6213 10.1694 19.3743C10.5863 19.1273 10.9456 18.8591 11.2331 18.5767C11.4487 18.365 11.7146 18.3015 12.0308 18.3791C12.3398 18.4638 12.6345 18.612 12.9004 18.8238C13.1376 19.0567 13.3244 19.3249 13.4394 19.6213C13.5616 19.9178 13.5472 20.1719 13.4035 20.3836C12.9723 20.9483 12.4045 21.4141 11.7074 21.767C11.0103 22.1199 10.2988 22.4022 9.58012 22.6211C8.8327 22.8328 8.14996 22.981 7.52471 23.0657C6.88509 23.1434 6.43232 23.1857 6.14485 23.1857Z" fill="#F5DF70"/>
<path d="M20.0365 17.5535C20.0365 18.2594 20.0581 18.9934 20.094 19.7486C20.13 20.5039 20.1515 21.3438 20.1515 22.2684V22.6919L19.8281 23.0095L19.5047 22.9742C19.2388 22.9742 19.0017 22.9883 18.8004 23.0095C18.5992 23.0307 18.3764 23.1507 18.1321 23.3624C18.0386 23.433 17.9452 23.4965 17.859 23.56C17.7727 23.6165 17.6721 23.6871 17.5499 23.7577C17.3846 23.6871 17.2265 23.5953 17.0828 23.4753C16.9391 23.3554 16.8672 23.2283 16.8672 23.0871C16.8672 22.0919 16.8816 21.0685 16.9031 20.0168C16.9247 18.9652 16.9606 17.9417 17.0109 16.9465C17.0612 16.0713 17.0972 15.1891 17.1187 14.2856C17.1403 13.3892 17.205 12.4787 17.2984 11.5541C17.32 11.2718 17.3559 10.8271 17.4062 10.2272C17.4565 9.62723 17.4996 8.992 17.5499 8.32853C17.5715 7.66507 17.6074 7.03689 17.6434 6.42989C17.6793 5.82289 17.7009 5.38528 17.7009 5.10295C17.7009 4.46772 17.7009 3.88189 17.7009 3.34547C17.7009 2.80905 17.7152 2.45614 17.7368 2.26557C17.7871 1.79268 17.938 1.51741 18.1896 1.43271C18.4411 1.34801 18.7357 1.30566 19.0735 1.30566C19.2676 1.30566 19.44 1.36213 19.5982 1.48212C19.7563 1.60211 19.8425 1.84914 19.8713 2.22322C19.8713 2.4138 19.8856 2.83728 19.9072 3.50075C19.9287 4.16422 19.9575 4.89827 19.9791 5.69584C20.0006 6.50047 20.0294 7.28392 20.0509 8.05326C20.0725 8.8226 20.0869 9.39432 20.0869 9.77546L20.0365 17.5535Z" fill="#F5DF70"/>
<path d="M30.1486 23.1858C28.2729 23.094 26.7924 22.4729 25.7072 21.3224C24.622 20.1719 24.083 18.598 24.083 16.5864C24.083 16.2829 24.0974 15.9723 24.1189 15.6618C24.1405 15.3583 24.1764 15.0336 24.2267 14.7018C24.5645 12.7609 25.3263 11.2786 26.5193 10.2552C27.7123 9.22472 29.3293 8.70947 31.3776 8.70947C32.0244 8.70947 32.664 8.78711 33.2892 8.94239C33.9145 9.09767 34.4894 9.32353 35.0213 9.63409C35.5243 9.94465 35.9627 10.3328 36.3221 10.8057C36.6814 11.2786 36.9258 11.8362 37.0407 12.4715C37.1629 13.0361 37.1701 13.6078 37.0767 14.1725C36.9832 14.7371 36.7964 15.2453 36.5377 15.697C36.2502 16.1488 35.8693 16.5299 35.4022 16.8475C34.935 17.1651 34.3816 17.3628 33.7564 17.4334C33.2749 17.5039 32.8077 17.5392 32.3478 17.5392C31.4351 17.5392 30.5511 17.4192 29.7102 17.1863C28.8694 16.9534 28.0501 16.4805 27.2524 15.7676C27.2308 15.9794 27.2093 16.177 27.1949 16.3535C27.1805 16.5299 27.1805 16.7275 27.1805 16.9393C27.1805 17.4616 27.238 17.9486 27.3458 18.4074C27.4536 18.8662 27.6405 19.2755 27.9064 19.6284C28.1723 19.9814 28.5172 20.2637 28.9556 20.4613C29.3868 20.6589 29.9187 20.7648 30.5439 20.7648C30.8529 20.7648 31.241 20.7436 31.701 20.6942C32.1609 20.6448 32.6424 20.5742 33.1455 20.4825C33.6486 20.3907 34.1445 20.2566 34.626 20.0943C35.1075 19.9319 35.5531 19.7414 35.9627 19.5296C36.128 19.4379 36.3149 19.5014 36.5233 19.7273C36.7245 19.9531 36.9042 20.2213 37.0479 20.5248C37.1917 20.8566 37.2851 21.1812 37.321 21.4989C37.357 21.8165 37.2923 22.0282 37.1198 22.12C36.5664 22.4023 35.9412 22.6211 35.244 22.7764C34.5469 22.9317 33.8714 23.0446 33.2246 23.1152C32.549 23.1858 31.931 23.221 31.3632 23.221C30.7954 23.221 30.3858 23.214 30.1486 23.1858ZM31.3776 11.1304C30.9895 11.1304 30.6014 11.1869 30.2061 11.3069C29.8109 11.4269 29.4443 11.6033 29.1066 11.8362C28.7472 12.0974 28.431 12.4009 28.1651 12.7609C27.8992 13.1138 27.7051 13.5161 27.5901 13.9678C28.5532 14.4407 29.3581 14.7513 30.0121 14.9065C30.6589 15.0618 31.3488 15.1395 32.0675 15.1395C32.549 15.1395 32.9658 15.0618 33.3108 14.9065C33.6558 14.7513 33.9217 14.4901 34.087 14.109C34.3241 13.5655 34.3529 13.0361 34.1588 12.5138C34.0151 12.1327 33.6701 11.808 33.1311 11.5398C32.5849 11.2716 32.0028 11.1304 31.3776 11.1304Z" fill="#F5DF70"/>
<path d="M50.0776 10.1775C50.1494 10.2692 50.2213 10.361 50.2932 10.4457C50.365 10.5304 50.4225 10.608 50.4728 10.6786C50.6166 10.7704 50.8322 10.9609 51.1196 11.2433C51.2131 11.335 51.2777 11.4338 51.2993 11.5256C51.3209 11.6174 51.3568 11.7162 51.4071 11.8079C51.6011 12.0902 51.7521 12.5067 51.8742 13.0502C51.9964 13.5936 52.0539 14.0807 52.0539 14.5041C52.0539 15.1888 51.9605 15.8875 51.7664 16.5934C51.788 17.1157 51.8599 17.6168 51.982 18.1038C52.1042 18.5908 52.248 19.0284 52.4133 19.4307C52.5785 19.8331 52.7654 20.1789 52.9523 20.4753C53.1463 20.7718 53.3403 20.9906 53.5272 21.1318C53.8865 21.3929 54.0375 21.6188 53.98 21.8235C53.9225 22.0211 53.6997 22.3105 53.3116 22.6916C53.1894 22.8116 53.0313 22.9175 52.8229 23.0092C52.6145 23.101 52.4204 23.0939 52.2264 22.9739C51.8168 22.734 51.4215 22.4093 51.0334 21.9787C50.6453 21.5552 50.3147 21.0329 50.0201 20.4189C49.9266 20.56 49.8188 20.7153 49.6967 20.8777C49.5745 21.04 49.4307 21.2165 49.2655 21.407C48.7121 22.0211 48.0437 22.494 47.2603 22.8257C46.477 23.1574 45.6649 23.3198 44.824 23.3198C43.7676 23.3198 42.862 23.0092 42.1146 22.3952C41.4894 21.8517 41.0366 21.0682 40.7635 20.0519C40.4832 19.0355 40.3467 17.9273 40.3467 16.7204C40.3467 15.7958 40.4257 14.8641 40.5838 13.9183C40.742 12.9725 40.9863 12.182 41.3241 11.5397C41.8559 10.5022 42.5602 9.73988 43.437 9.25287C44.3138 8.76586 45.2265 8.52588 46.1608 8.52588C46.8579 8.52588 47.5478 8.64587 48.2162 8.87879C48.9061 9.13288 49.5242 9.56343 50.0776 10.1775ZM44.2635 20.92C44.6947 21.1318 45.1331 21.1741 45.5643 21.0471C45.9955 20.92 46.4051 20.7012 46.7932 20.3906C47.1525 20.0871 47.4759 19.7201 47.7706 19.3107C48.0653 18.9014 48.2881 18.5132 48.4533 18.1603C48.5037 18.0403 48.5755 17.8426 48.669 17.5603C48.7624 17.278 48.8342 17.0733 48.8846 16.9604C48.8127 16.6075 48.748 16.2263 48.6833 15.824C48.6258 15.4217 48.5827 15.0053 48.554 14.5818C48.5037 14.1795 48.4749 13.7842 48.4605 13.396C48.4462 13.0078 48.4462 12.6549 48.4462 12.3514C48.3959 12.302 48.3384 12.2596 48.2665 12.2244C48.1946 12.1891 48.1371 12.1467 48.0868 12.0973C47.8712 11.7867 47.5909 11.5538 47.2532 11.3915C46.9154 11.2292 46.5704 11.1445 46.2039 11.1445C45.6721 11.1445 45.1402 11.3421 44.5941 11.7444C44.055 12.1467 43.6742 12.669 43.4585 13.3043C43.3148 13.7277 43.1854 14.3206 43.0776 15.0759C42.9698 15.8311 42.9124 16.5792 42.9124 17.3133C42.9124 18.0897 43.0058 18.8308 43.1855 19.5296C43.3795 20.2142 43.7316 20.68 44.2635 20.92Z" fill="#F5DF70"/>
<path d="M57.0418 17.8358C57.0921 17.4335 57.1424 17.01 57.2071 16.5583C57.2646 16.1066 57.3221 15.7325 57.3724 15.4219C57.4658 14.9278 57.5161 14.3279 57.5161 13.6291C57.5161 12.9304 57.5521 12.2387 57.6239 11.554C57.6743 11.2505 57.703 10.94 57.7174 10.6294C57.7317 10.3189 57.7605 9.99419 57.8108 9.63423C57.8611 9.16133 58.0695 8.88606 58.4432 8.80136C58.817 8.71667 59.205 8.67432 59.6147 8.67432C60.0459 8.67432 60.2902 8.99193 60.3334 9.63423V10.1636C61.1742 9.54953 62.1085 9.14721 63.129 8.95664C64.1495 8.76607 65.1557 8.67432 66.1403 8.67432C66.6721 8.67432 67.132 8.70255 67.5273 8.76607C67.9226 8.82254 68.1238 8.98488 68.1238 9.24603L68.1597 10.3118C68.1597 10.573 68.0663 10.8129 67.8723 11.0388C67.6782 11.2647 67.4842 11.4129 67.2973 11.4835C67.1752 11.5329 66.9739 11.554 66.6865 11.554C66.399 11.554 65.9031 11.554 65.206 11.554C64.8898 11.554 64.552 11.5611 64.1783 11.5752C63.8046 11.5893 63.4165 11.6387 63.0068 11.7376C62.5972 11.8293 62.1732 11.9846 61.7276 12.1963C61.282 12.4081 60.8436 12.7045 60.4124 13.0857C60.4124 13.368 60.4052 13.6503 60.3909 13.9185C60.3765 14.1938 60.3765 14.4338 60.3765 14.6455C60.3262 15.1184 60.3118 15.5984 60.319 16.0783C60.3334 16.5653 60.3334 17.0806 60.3334 17.6241C60.3118 18.4005 60.2974 19.1627 60.2974 19.8897C60.2974 20.6238 60.2974 21.4002 60.2974 22.233V22.6565L59.974 22.9741C59.9237 23.0236 59.8447 23.0306 59.7369 22.9883C59.6291 22.953 59.5644 22.9318 59.5356 22.9318C59.2697 22.8824 59.011 22.8965 58.7595 22.9671C58.5079 23.0377 58.2492 23.1929 57.9833 23.4259C57.933 23.447 57.8611 23.5035 57.7677 23.5882C57.6743 23.6729 57.6024 23.7011 57.5521 23.68C57.4587 23.6306 57.3221 23.5529 57.1568 23.4329C56.9915 23.3129 56.9053 23.1859 56.9053 23.0447C56.9053 22.0072 56.9125 21.1037 56.9196 20.3344C56.9268 19.5651 56.97 18.7322 57.0418 17.8358Z" fill="#F5DF70"/>
<path d="M75.7056 10.6717C75.7056 11.1446 75.72 11.7375 75.7415 12.4433C75.7631 13.1491 75.7919 13.8479 75.8134 14.5325C75.8134 15.2383 75.8206 15.8806 75.835 16.4453C75.8493 17.0099 75.8422 17.3911 75.8134 17.5817C75.7919 18.1251 75.5978 18.4004 75.2385 18.4004C74.8504 18.4004 74.4839 18.3651 74.1173 18.2945C73.758 18.2239 73.5783 17.991 73.5783 17.5887C73.5783 17.2076 73.564 16.7488 73.5424 16.2053C73.5208 15.6618 73.4849 15.0972 73.4346 14.5043C73.3843 13.9114 73.3412 13.3538 73.2909 12.8174C73.2406 12.288 73.1974 11.8575 73.1471 11.5258C73.0968 11.2152 73.0537 10.7705 73.0178 10.1776C72.9818 9.58476 72.9531 8.9707 72.9243 8.33546C72.874 7.7214 72.8381 7.12146 72.8165 6.54269C72.795 5.96392 72.7662 5.51926 72.7447 5.21576C72.6728 4.19938 72.6297 3.3524 72.6153 2.68188C72.6009 2.01135 72.5938 1.28436 72.5938 0.500907C72.5938 0.409151 72.6656 0.303279 72.8093 0.18329C72.9531 0.0633012 73.0609 0.00683594 73.1328 0.00683594C73.2046 0.00683594 73.2909 0.0491849 73.3843 0.133883C73.4777 0.218581 73.5496 0.282104 73.5999 0.331511C74.0095 0.684419 74.5054 0.825583 75.0804 0.755001C75.1522 0.755001 75.2313 0.747943 75.3175 0.740885C75.4038 0.726768 75.4685 0.71971 75.5188 0.71971L75.6984 0.896164V1.31965C75.6984 2.17369 75.6912 2.9148 75.6769 3.55709C75.6625 4.19232 75.6625 4.91932 75.6625 5.71689C75.6625 5.92863 75.6625 6.26742 75.6625 6.7262C75.6625 7.18498 75.6769 7.67906 75.6984 8.1943C75.6984 8.7166 75.6984 9.21068 75.6984 9.68357C75.7056 10.1494 75.7056 10.4811 75.7056 10.6717ZM73.6143 20.8849C73.6861 20.7649 73.8083 20.6802 73.9736 20.6167C74.1389 20.5602 74.3186 20.5249 74.5126 20.5249C74.7067 20.5249 74.8863 20.5461 75.0516 20.5955C75.2169 20.6449 75.3391 20.7225 75.411 20.8425C75.5763 21.1037 75.7128 21.4425 75.8062 21.873C75.8997 22.2965 75.9643 22.7271 75.9859 23.1505C75.9859 23.5529 75.9572 23.9128 75.8925 24.2304C75.835 24.5481 75.7272 24.7457 75.5834 24.8163C75.3175 24.9363 74.9798 24.9927 74.5701 24.9927C74.1605 24.9927 73.8586 24.9574 73.6646 24.8868C73.4705 24.8163 73.3268 24.6539 73.2334 24.4069C73.1399 24.1599 73.0896 23.8775 73.0896 23.574C73.0896 23.4117 73.104 23.2 73.1256 22.9529C73.1471 22.7059 73.1831 22.4518 73.2334 22.1906C73.2837 21.9083 73.334 21.6542 73.3987 21.4284C73.4777 21.2095 73.5424 21.026 73.6143 20.8849Z" fill="#F5DF70"/>
</g>
<defs>
<clipPath id="clip0_396_5184">
<rect width="76" height="25" fill="white"/>
</clipPath>
</defs>
</svg>
