<svg width="337" height="98" viewBox="0 0 337 98" fill="none" xmlns="http://www.w3.org/2000/svg">
<path d="M140.395 30.2366C140.371 30.7566 140.288 31.1115 140.148 31.3014C140.007 31.4912 139.694 31.6068 139.223 31.6563C138.183 31.7719 137.102 31.8792 135.996 31.9617C134.882 32.0443 133.734 32.0773 132.554 32.0525C130.853 32.0278 129.17 31.7389 127.511 31.1858C125.851 30.6328 124.374 29.7991 123.07 28.6848C121.766 27.5705 120.717 26.1508 119.925 24.4257C119.133 22.7005 118.736 20.6287 118.736 18.2102C118.736 15.8165 119.207 13.753 120.156 12.0114C121.105 10.2697 122.368 8.85826 123.953 7.7687C125.538 6.67915 127.354 5.91151 129.401 5.45753C131.448 5.01181 133.561 4.88799 135.74 5.1026C136.169 5.15213 136.442 5.23467 136.557 5.35023C136.673 5.46579 136.739 5.70516 136.739 6.06009L136.706 8.43729C136.706 8.81699 136.631 9.0481 136.475 9.13065C136.318 9.21319 136.078 9.2462 135.748 9.22144C133.858 9.14715 132.141 9.30398 130.598 9.68368C129.062 10.0634 127.742 10.6577 126.66 11.4748C125.571 12.292 124.729 13.3155 124.143 14.5454C123.549 15.7753 123.251 17.195 123.251 18.8045C123.251 20.4141 123.54 21.8091 124.118 22.9977C124.696 24.178 125.53 25.1438 126.603 25.8949C127.676 26.6378 128.972 27.166 130.474 27.4714C131.976 27.7768 133.652 27.8429 135.501 27.6448L136.243 27.5705L136.384 21.8173H131.274C130.895 21.8173 130.639 21.7513 130.49 21.6192C130.35 21.4872 130.276 21.2313 130.276 20.8598V18.623C130.276 18.2433 130.35 17.9956 130.49 17.8801C130.631 17.7645 130.895 17.7067 131.274 17.7067H139.727C140.106 17.7067 140.379 17.7645 140.544 17.8801C140.709 17.9956 140.783 18.2515 140.758 18.623L140.395 30.2366Z" fill="white" stroke="white" stroke-width="10" stroke-miterlimit="10" stroke-linecap="round" stroke-linejoin="round"/>
<path d="M143.383 31.6888C142.888 31.499 142.574 31.3091 142.459 31.1193C142.343 30.9294 142.376 30.5662 142.566 30.0215L150.201 6.69513C150.441 5.98527 150.68 5.53129 150.928 5.32494C151.175 5.12684 151.605 5.01953 152.224 5.01953H155.74C156.359 5.01953 156.788 5.11858 157.036 5.32494C157.283 5.52304 157.523 5.98527 157.762 6.69513L165.43 30.0215C165.521 30.3021 165.587 30.5332 165.604 30.7148C165.628 30.8881 165.604 31.0367 165.529 31.1605C165.455 31.2761 165.348 31.3751 165.191 31.4412C165.034 31.5155 164.844 31.598 164.605 31.6888L162.863 32.3244C162.418 32.4895 162.104 32.506 161.922 32.3739C161.741 32.2418 161.576 31.9447 161.411 31.4659L159.454 25.6798H148.493L146.578 31.4659C146.437 31.8704 146.272 32.151 146.082 32.3161C145.893 32.4812 145.571 32.4812 145.125 32.3161L143.383 31.6888ZM153.965 9.39425L149.879 21.5692H158.084L153.965 9.39425Z" fill="white" stroke="white" stroke-width="10" stroke-miterlimit="10" stroke-linecap="round" stroke-linejoin="round"/>
<path d="M171.96 31.4742C171.91 31.8044 171.836 32.019 171.729 32.1098C171.621 32.2006 171.407 32.2253 171.068 32.1841L168.262 31.9034C167.956 31.8539 167.75 31.7631 167.659 31.6393C167.568 31.5072 167.544 31.2431 167.585 30.8386L170.251 6.2329C170.301 5.68812 170.408 5.3497 170.573 5.21763C170.738 5.08556 171.109 5.01953 171.671 5.01953H174.436C174.675 5.01953 174.865 5.03604 175.005 5.07731C175.146 5.11033 175.261 5.17636 175.344 5.27541C175.426 5.36621 175.501 5.50653 175.575 5.67987C175.649 5.86146 175.732 6.10083 175.823 6.40623L181.576 24.9039L187.329 6.40623C187.42 6.10083 187.502 5.8532 187.577 5.67987C187.651 5.50653 187.725 5.36621 187.808 5.27541C187.89 5.18461 188.006 5.11858 188.146 5.07731C188.286 5.04429 188.476 5.01953 188.716 5.01953H191.489C192.059 5.01953 192.422 5.08556 192.587 5.21763C192.752 5.3497 192.859 5.68812 192.909 6.2329L195.575 30.8386C195.624 31.2431 195.6 31.5072 195.501 31.6393C195.41 31.7713 195.203 31.8621 194.898 31.9034L192.092 32.1841C191.761 32.2336 191.539 32.2088 191.431 32.1098C191.324 32.0107 191.25 31.8044 191.2 31.4742L189.285 13.2572L183.747 31.078C183.631 31.5072 183.491 31.7713 183.342 31.8786C183.194 31.986 182.872 32.0355 182.401 32.0355H180.767C180.296 32.0355 179.983 31.986 179.826 31.8786C179.669 31.7713 179.537 31.5072 179.421 31.078L173.809 13.0756L171.96 31.4742Z" fill="white" stroke="white" stroke-width="10" stroke-miterlimit="10" stroke-linecap="round" stroke-linejoin="round"/>
<path d="M200.329 32.0448C199.949 32.0448 199.694 31.987 199.545 31.8714C199.405 31.7559 199.33 31.5 199.33 31.1285L198.975 5.95328C198.975 5.57358 199.05 5.32596 199.207 5.2104C199.363 5.09484 199.628 5.02881 200.007 5.02881H215.203C215.583 5.02881 215.847 5.08659 216.004 5.2104C216.161 5.32596 216.235 5.57358 216.235 5.95328V8.19016C216.235 8.56985 216.161 8.82573 216.004 8.94955C215.847 9.08161 215.583 9.14765 215.203 9.14765H203.449L203.524 16.2875H213.891C214.27 16.2875 214.535 16.3453 214.691 16.4609C214.848 16.5764 214.923 16.8323 214.923 17.2037V19.4406C214.923 19.8203 214.848 20.0762 214.691 20.2C214.535 20.3321 214.27 20.3981 213.891 20.3981H203.598L203.705 27.9259H214.039C214.419 27.9259 214.675 27.992 214.824 28.124C214.964 28.2561 215.038 28.512 215.038 28.8834V31.1203C215.038 31.5 214.964 31.7476 214.824 31.8632C214.683 31.9787 214.419 32.0365 214.039 32.0365H200.329V32.0448Z" fill="white" stroke="white" stroke-width="10" stroke-miterlimit="10" stroke-linecap="round" stroke-linejoin="round"/>
<path d="M230.861 12.7712C230.366 13.0106 230.02 12.9116 229.83 12.4906L228.625 10.1794C228.36 9.58512 228.484 9.16415 228.979 8.90002L235.409 5.41676C235.665 5.3012 235.896 5.20215 236.103 5.13611C236.301 5.06183 236.615 5.02881 237.044 5.02881H239.14C239.611 5.02881 239.925 5.11135 240.081 5.27643C240.238 5.44152 240.312 5.74692 240.312 6.2009L240.387 31.0543C240.387 31.4339 240.312 31.6898 240.172 31.8384C240.032 31.987 239.759 32.053 239.355 32.053H236.945C236.54 32.053 236.268 31.9787 236.128 31.8384C235.987 31.6981 235.913 31.4339 235.913 31.0543L235.806 10.2124L230.861 12.7712Z" fill="white" stroke="white" stroke-width="10" stroke-miterlimit="10" stroke-linecap="round" stroke-linejoin="round"/>
<path d="M246.519 32.8944C245.694 32.8944 245.001 32.6302 244.456 32.1102C243.911 31.5902 243.639 30.9381 243.639 30.154C243.639 29.3698 243.911 28.7177 244.456 28.1977C245.001 27.6777 245.686 27.4136 246.519 27.4136C247.32 27.4136 247.997 27.6777 248.542 28.1977C249.086 28.7177 249.359 29.3698 249.359 30.154C249.359 30.9381 249.086 31.5819 248.542 32.1102C247.997 32.6385 247.328 32.8944 246.519 32.8944Z" fill="white" stroke="white" stroke-width="10" stroke-miterlimit="10" stroke-linecap="round" stroke-linejoin="round"/>
<path d="M140.395 30.2366C140.371 30.7566 140.288 31.1115 140.148 31.3014C140.007 31.4912 139.694 31.6068 139.223 31.6563C138.183 31.7719 137.102 31.8792 135.996 31.9617C134.882 32.0443 133.734 32.0773 132.554 32.0525C130.853 32.0278 129.17 31.7389 127.511 31.1858C125.851 30.6328 124.374 29.7991 123.07 28.6848C121.766 27.5705 120.717 26.1508 119.925 24.4257C119.133 22.7005 118.736 20.6287 118.736 18.2102C118.736 15.8165 119.207 13.753 120.156 12.0114C121.105 10.2697 122.368 8.85826 123.953 7.7687C125.538 6.67915 127.354 5.91151 129.401 5.45753C131.448 5.01181 133.561 4.88799 135.74 5.1026C136.169 5.15213 136.442 5.23467 136.557 5.35023C136.673 5.46579 136.739 5.70516 136.739 6.06009L136.706 8.43729C136.706 8.81699 136.631 9.0481 136.475 9.13065C136.318 9.21319 136.078 9.2462 135.748 9.22144C133.858 9.14715 132.141 9.30398 130.598 9.68368C129.062 10.0634 127.742 10.6577 126.66 11.4748C125.571 12.292 124.729 13.3155 124.143 14.5454C123.549 15.7753 123.251 17.195 123.251 18.8045C123.251 20.4141 123.54 21.8091 124.118 22.9977C124.696 24.178 125.53 25.1438 126.603 25.8949C127.676 26.6378 128.972 27.166 130.474 27.4714C131.976 27.7768 133.652 27.8429 135.501 27.6448L136.243 27.5705L136.384 21.8173H131.274C130.895 21.8173 130.639 21.7513 130.49 21.6192C130.35 21.4872 130.276 21.2313 130.276 20.8598V18.623C130.276 18.2433 130.35 17.9956 130.49 17.8801C130.631 17.7645 130.895 17.7067 131.274 17.7067H139.727C140.106 17.7067 140.379 17.7645 140.544 17.8801C140.709 17.9956 140.783 18.2515 140.758 18.623L140.395 30.2366Z" fill="#4CBCAF"/>
<path d="M143.383 31.6888C142.888 31.499 142.574 31.3091 142.459 31.1193C142.343 30.9294 142.376 30.5662 142.566 30.0215L150.201 6.69513C150.441 5.98527 150.68 5.53129 150.928 5.32494C151.175 5.12684 151.605 5.01953 152.224 5.01953H155.74C156.359 5.01953 156.788 5.11858 157.036 5.32494C157.283 5.52304 157.523 5.98527 157.762 6.69513L165.43 30.0215C165.521 30.3021 165.587 30.5332 165.604 30.7148C165.628 30.8881 165.604 31.0367 165.529 31.1605C165.455 31.2761 165.348 31.3751 165.191 31.4412C165.034 31.5155 164.844 31.598 164.605 31.6888L162.863 32.3244C162.418 32.4895 162.104 32.506 161.922 32.3739C161.741 32.2418 161.576 31.9447 161.411 31.4659L159.454 25.6798H148.493L146.578 31.4659C146.437 31.8704 146.272 32.151 146.082 32.3161C145.893 32.4812 145.571 32.4812 145.125 32.3161L143.383 31.6888ZM153.965 9.39425L149.879 21.5692H158.084L153.965 9.39425Z" fill="#4CBCAF"/>
<path d="M171.96 31.4742C171.91 31.8044 171.836 32.019 171.729 32.1098C171.621 32.2006 171.407 32.2253 171.068 32.1841L168.262 31.9034C167.956 31.8539 167.75 31.7631 167.659 31.6393C167.568 31.5072 167.544 31.2431 167.585 30.8386L170.251 6.2329C170.301 5.68812 170.408 5.3497 170.573 5.21763C170.738 5.08556 171.109 5.01953 171.671 5.01953H174.436C174.675 5.01953 174.865 5.03604 175.005 5.07731C175.146 5.11033 175.261 5.17636 175.344 5.27541C175.426 5.36621 175.501 5.50653 175.575 5.67987C175.649 5.86146 175.732 6.10083 175.823 6.40623L181.576 24.9039L187.329 6.40623C187.42 6.10083 187.502 5.8532 187.577 5.67987C187.651 5.50653 187.725 5.36621 187.808 5.27541C187.89 5.18461 188.006 5.11858 188.146 5.07731C188.286 5.04429 188.476 5.01953 188.716 5.01953H191.489C192.059 5.01953 192.422 5.08556 192.587 5.21763C192.752 5.3497 192.859 5.68812 192.909 6.2329L195.575 30.8386C195.624 31.2431 195.6 31.5072 195.501 31.6393C195.41 31.7713 195.203 31.8621 194.898 31.9034L192.092 32.1841C191.761 32.2336 191.539 32.2088 191.431 32.1098C191.324 32.0107 191.25 31.8044 191.2 31.4742L189.285 13.2572L183.747 31.078C183.631 31.5072 183.491 31.7713 183.342 31.8786C183.194 31.986 182.872 32.0355 182.401 32.0355H180.767C180.296 32.0355 179.983 31.986 179.826 31.8786C179.669 31.7713 179.537 31.5072 179.421 31.078L173.809 13.0756L171.96 31.4742Z" fill="#4CBCAF"/>
<path d="M200.329 32.0448C199.949 32.0448 199.694 31.987 199.545 31.8714C199.405 31.7559 199.33 31.5 199.33 31.1285L198.975 5.95328C198.975 5.57358 199.05 5.32596 199.207 5.2104C199.363 5.09484 199.628 5.02881 200.007 5.02881H215.203C215.583 5.02881 215.847 5.08659 216.004 5.2104C216.161 5.32596 216.235 5.57358 216.235 5.95328V8.19016C216.235 8.56985 216.161 8.82573 216.004 8.94955C215.847 9.08161 215.583 9.14765 215.203 9.14765H203.449L203.524 16.2875H213.891C214.27 16.2875 214.535 16.3453 214.691 16.4609C214.848 16.5764 214.923 16.8323 214.923 17.2037V19.4406C214.923 19.8203 214.848 20.0762 214.691 20.2C214.535 20.3321 214.27 20.3981 213.891 20.3981H203.598L203.705 27.9259H214.039C214.419 27.9259 214.675 27.992 214.824 28.124C214.964 28.2561 215.038 28.512 215.038 28.8834V31.1203C215.038 31.5 214.964 31.7476 214.824 31.8632C214.683 31.9787 214.419 32.0365 214.039 32.0365H200.329V32.0448Z" fill="#4CBCAF"/>
<path d="M230.861 12.7712C230.366 13.0106 230.02 12.9116 229.83 12.4906L228.625 10.1794C228.36 9.58512 228.484 9.16415 228.979 8.90002L235.409 5.41676C235.665 5.3012 235.896 5.20215 236.103 5.13611C236.301 5.06183 236.615 5.02881 237.044 5.02881H239.14C239.611 5.02881 239.925 5.11135 240.081 5.27643C240.238 5.44152 240.312 5.74692 240.312 6.2009L240.387 31.0543C240.387 31.4339 240.312 31.6898 240.172 31.8384C240.032 31.987 239.759 32.053 239.355 32.053H236.945C236.54 32.053 236.268 31.9787 236.128 31.8384C235.987 31.6981 235.913 31.4339 235.913 31.0543L235.806 10.2124L230.861 12.7712Z" fill="#4CBCAF"/>
<path d="M246.519 32.8944C245.694 32.8944 245.001 32.6302 244.456 32.1102C243.911 31.5902 243.639 30.9381 243.639 30.154C243.639 29.3698 243.911 28.7177 244.456 28.1977C245.001 27.6777 245.686 27.4136 246.519 27.4136C247.32 27.4136 247.997 27.6777 248.542 28.1977C249.086 28.7177 249.359 29.3698 249.359 30.154C249.359 30.9381 249.086 31.5819 248.542 32.1102C247.997 32.6385 247.328 32.8944 246.519 32.8944Z" fill="#4CBCAF"/>
<g opacity="0.94">
<path d="M57.8533 55.783L57.2673 78.6636L59.8509 78.6223C60.3379 78.6223 60.668 78.7131 60.8496 78.8947C61.0312 79.0763 61.122 79.3899 61.122 79.8439V82.6586C61.122 83.1126 61.0312 83.4345 60.8496 83.6161C60.668 83.7977 60.3379 83.8885 59.8509 83.8885L37.8369 84.3425C37.3499 84.3425 37.0198 84.2517 36.8382 84.0701C36.6566 83.8885 36.5658 83.5748 36.5658 83.1126V80.2979C36.5658 79.8439 36.6566 79.522 36.8382 79.3404C37.0198 79.1588 37.3499 79.068 37.8369 79.068L40.5608 79.0268L40.3792 56.1462L37.383 56.1957C36.896 56.1957 36.5658 56.1049 36.3842 55.9233C36.2026 55.7417 36.1118 55.4198 36.1118 54.9658V52.1511C36.1118 51.6972 36.2026 51.3835 36.3842 51.1937C36.5658 51.0121 36.896 50.9213 37.383 50.9213L60.3544 50.4673C60.8414 50.4673 61.1715 50.5581 61.3531 50.7397C61.5347 50.9213 61.6255 51.2432 61.6255 51.6972V54.5118C61.6255 54.9658 61.5347 55.2795 61.3531 55.4611C61.1715 55.6427 60.8414 55.7335 60.3544 55.7335L57.8533 55.783ZM46.2727 78.936L51.5389 78.7957L52.0837 55.915L46.0911 56.0058L46.2727 78.936ZM66.025 52.6051C66.025 52.1511 66.1158 51.8375 66.2974 51.6559C66.479 51.4743 66.8091 51.3835 67.2961 51.3835H70.474C70.961 51.3835 71.2912 51.4743 71.4727 51.6559C71.6543 51.8375 71.7451 52.1511 71.7451 52.6051V81.7506C71.7451 82.2046 71.6543 82.5183 71.4727 82.6999C71.2912 82.8815 70.961 82.9723 70.474 82.9723H67.2961C66.8091 82.9723 66.479 82.8815 66.2974 82.6999C66.1158 82.5183 66.025 82.2046 66.025 81.7506V52.6051Z" fill="#191919" stroke="white" stroke-width="10" stroke-miterlimit="10" stroke-linecap="round" stroke-linejoin="round"/>
<path d="M95.7979 77.5578C96.1281 77.5578 96.3592 77.6156 96.4913 77.7311C96.6233 77.8467 96.6894 78.0943 96.6894 78.474V80.6779C96.6894 81.0823 96.6233 81.3465 96.4913 81.4785C96.3592 81.6106 96.1446 81.6766 95.8309 81.6766L88.7323 81.8169V87.0336C88.7323 87.3885 88.658 87.6362 88.5177 87.7765C88.3774 87.9168 88.1133 87.9911 87.7336 87.9911H85.2491C84.8694 87.9911 84.6135 87.9168 84.4649 87.7765C84.3163 87.6362 84.2503 87.3885 84.2503 87.0336V81.883L77.292 82.0233C76.9866 82.0233 76.7638 81.9573 76.6317 81.8252C76.4996 81.6931 76.4336 81.429 76.4336 81.0245V78.8207C76.4336 78.441 76.4996 78.1934 76.6317 78.0778C76.7638 77.9622 76.9949 77.9045 77.325 77.9045L95.7979 77.5578ZM95.1211 73.9012C95.1211 74.2561 95.0468 74.4955 94.9065 74.6276C94.7661 74.7596 94.502 74.8339 94.1223 74.8587L78.3321 75.2136C77.9524 75.2384 77.6965 75.1723 77.5479 75.0155C77.4076 74.8587 77.3333 74.611 77.3333 74.2561L76.9784 58.9198C76.9784 58.5649 77.0527 58.3173 77.193 58.177C77.3333 58.0366 77.5974 57.9624 77.9771 57.9624L94.8734 57.6074C95.2531 57.6074 95.509 57.6817 95.6576 57.822C95.7979 57.9624 95.8722 58.21 95.8722 58.5649V60.7688C95.8722 61.1237 95.7979 61.3713 95.6576 61.5117C95.5173 61.652 95.2531 61.7263 94.8734 61.7263L81.5264 62.0069L81.5594 64.4584L93.916 64.1778C94.2956 64.1778 94.5515 64.252 94.7001 64.3924C94.8487 64.5327 94.9147 64.7803 94.9147 65.1352V67.3391C94.9147 67.694 94.8404 67.9417 94.7001 68.082C94.5598 68.2223 94.2956 68.2966 93.916 68.2966L81.6668 68.5772L81.6998 71.0287L94.1223 70.7481C94.502 70.7233 94.7579 70.7894 94.9065 70.9462C95.0468 71.103 95.1211 71.3506 95.1211 71.7056V73.9012V73.9012ZM99.3142 59.2748C99.3142 58.9198 99.3885 58.6722 99.5288 58.5319C99.6691 58.3916 99.9333 58.3173 100.313 58.3173H102.797C103.177 58.3173 103.433 58.3916 103.582 58.5319C103.722 58.6722 103.796 58.9198 103.796 59.2748V83.4843C103.796 83.8392 103.722 84.0868 103.582 84.2272C103.441 84.3675 103.177 84.4418 102.797 84.4418H100.313C99.9333 84.4418 99.6774 84.3675 99.5288 84.2272C99.3885 84.0868 99.3142 83.8392 99.3142 83.4843V59.2748Z" fill="#191919" stroke="white" stroke-width="10" stroke-miterlimit="10" stroke-linecap="round" stroke-linejoin="round"/>
<path d="M107.692 58.9198C107.692 58.5649 107.766 58.3173 107.907 58.177C108.047 58.0366 108.311 57.9624 108.691 57.9624L125.232 57.6074C125.612 57.6074 125.884 57.6817 126.049 57.822C126.214 57.9624 126.272 58.21 126.223 58.5649L123.35 82.7744C123.301 83.1294 123.202 83.377 123.045 83.5173C122.888 83.6576 122.624 83.7319 122.244 83.7319H119.76C119.38 83.7319 119.124 83.6576 119 83.5173C118.868 83.377 118.827 83.1294 118.877 82.7744L121.361 61.8253L108.683 62.0729C108.303 62.0729 108.047 61.9986 107.898 61.8583C107.75 61.718 107.684 61.4704 107.684 61.1155V58.9198H107.692ZM130.738 59.2748C130.738 58.9198 130.812 58.6722 130.952 58.5319C131.093 58.3916 131.357 58.3173 131.737 58.3173H134.221C134.601 58.3173 134.857 58.3916 135.005 58.5319C135.146 58.6722 135.22 58.9198 135.22 59.2748V82.0728C135.22 82.4278 135.146 82.6754 135.005 82.8157C134.865 82.956 134.601 83.0303 134.221 83.0303H131.737C131.357 83.0303 131.101 82.956 130.952 82.8157C130.812 82.6754 130.738 82.4278 130.738 82.0728V59.2748Z" fill="#191919" stroke="white" stroke-width="10" stroke-miterlimit="10" stroke-linecap="round" stroke-linejoin="round"/>
<path d="M162.615 73.1918C162.945 73.1918 163.177 73.2495 163.309 73.3651C163.441 73.4807 163.507 73.7365 163.507 74.108V76.3118C163.507 76.7163 163.441 76.9804 163.309 77.1125C163.177 77.2446 162.962 77.3106 162.648 77.3106L140.634 77.6655C140.329 77.6655 140.106 77.5995 139.974 77.4674C139.842 77.3354 139.776 77.0712 139.776 76.6668V74.4629C139.776 74.0832 139.842 73.8356 139.974 73.72C140.106 73.6045 140.337 73.5384 140.667 73.5384L162.615 73.1918ZM143.408 57.2529C143.788 57.2529 144.043 57.3272 144.167 57.4675C144.299 57.6079 144.374 57.8555 144.398 58.2104L144.613 66.8773L162.046 66.5554C162.425 66.5554 162.681 66.6297 162.83 66.77C162.97 66.9103 163.045 67.158 163.045 67.5129V69.7168C163.045 70.0717 162.97 70.3193 162.83 70.4596C162.69 70.5999 162.425 70.6742 162.046 70.6742L141.245 71.0292C140.866 71.0292 140.61 70.9549 140.461 70.8146C140.313 70.6742 140.246 70.4266 140.246 70.0717L139.925 58.2104C139.9 57.8555 139.966 57.6079 140.123 57.4675C140.28 57.3272 140.544 57.2529 140.923 57.2529H143.408V57.2529ZM141.386 89.9147C141.006 89.9147 140.75 89.8405 140.601 89.7001C140.461 89.5598 140.387 89.3122 140.387 88.9573V81.1075C140.387 80.7526 140.461 80.505 140.601 80.3646C140.742 80.2243 141.006 80.15 141.386 80.15H143.87C144.25 80.15 144.506 80.2243 144.654 80.3646C144.803 80.505 144.869 80.7526 144.869 81.1075V85.7216L162.087 85.474C162.417 85.474 162.648 85.5318 162.78 85.6473C162.912 85.7629 162.979 86.0105 162.979 86.3902V88.6601C162.979 89.0398 162.921 89.2874 162.805 89.403C162.69 89.5185 162.459 89.5763 162.128 89.5763L141.386 89.9147Z" fill="#191919" stroke="white" stroke-width="10" stroke-miterlimit="10" stroke-linecap="round" stroke-linejoin="round"/>
<path d="M190.316 60.5952C190.737 60.3558 191.001 60.1494 191.109 59.9844C191.216 59.8193 191.266 59.4809 191.266 58.9608V51.6972C191.266 51.2432 191.356 50.9213 191.538 50.7397C191.72 50.5581 192.05 50.4673 192.537 50.4673H195.715C196.202 50.4673 196.532 50.5581 196.713 50.7397C196.895 50.9213 196.986 51.2432 196.986 51.6972V58.87C196.986 59.3818 197.035 59.7285 197.126 59.8936C197.217 60.0587 197.489 60.265 197.943 60.5044L209.384 66.3153C209.804 66.5299 210.052 66.7528 210.11 67.0004C210.168 67.2398 210.077 67.5617 209.837 67.9496L208.162 70.7643C207.947 71.0945 207.733 71.2926 207.502 71.3504C207.279 71.4082 206.949 71.3174 206.528 71.078L193.998 64.5819L181.831 71.532C181.468 71.7466 181.162 71.8126 180.923 71.7383C180.684 71.664 180.428 71.4164 180.147 70.9872L178.653 68.577C178.414 68.2138 178.315 67.9001 178.356 67.6442C178.397 67.3884 178.637 67.1407 179.058 66.8931L190.316 60.5952ZM208.154 74.033C208.575 74.033 208.872 74.1073 209.037 74.2641C209.202 74.4127 209.284 74.7346 209.284 75.2216V78.0363C209.284 78.548 209.202 78.8947 209.037 79.0598C208.872 79.2249 208.591 79.3074 208.195 79.3074L196.986 79.489V88.1146C196.986 88.5686 196.895 88.8823 196.713 89.0639C196.532 89.2454 196.202 89.3362 195.715 89.3362H192.537C192.05 89.3362 191.72 89.2454 191.538 89.0639C191.356 88.8823 191.266 88.5686 191.266 88.1146V79.5715L180.056 79.7531C179.66 79.7531 179.38 79.6706 179.214 79.5055C179.049 79.3404 178.967 79.002 178.967 78.482V75.6673C178.967 75.1803 179.049 74.8667 179.214 74.7098C179.38 74.5613 179.677 74.487 180.098 74.487L208.154 74.033Z" fill="#191919" stroke="white" stroke-width="10" stroke-miterlimit="10" stroke-linecap="round" stroke-linejoin="round"/>
<path d="M214.65 51.698C214.65 51.244 214.74 50.9221 214.922 50.7405C215.104 50.5589 215.434 50.4681 215.921 50.4681L236.168 50.0142C236.655 50.0142 237.002 50.105 237.217 50.2865C237.431 50.4681 237.506 50.7901 237.439 51.244L234.674 70.988C234.617 71.442 234.484 71.7557 234.286 71.9455C234.088 72.1271 233.75 72.2179 233.263 72.2179H230.085C229.598 72.2179 229.276 72.1271 229.111 71.9455C228.946 71.7639 228.888 71.442 228.954 70.988L231.133 55.4124L215.929 55.7261C215.442 55.7261 215.112 55.6353 214.93 55.4537C214.749 55.2721 214.658 54.9584 214.658 54.5044V51.698H214.65ZM236.078 92.6883C234.08 92.6883 232.347 92.4407 230.877 91.9372C229.408 91.4337 228.195 90.7733 227.221 89.9397C226.255 89.106 225.537 88.1485 225.066 87.0589C224.596 85.9694 224.365 84.8386 224.365 83.65C224.365 82.4696 224.596 81.3388 225.066 80.241C225.537 79.1514 226.255 78.1939 227.221 77.3603C228.187 76.5266 229.408 75.858 230.877 75.3628C232.347 74.8593 234.08 74.6116 236.078 74.6116C238.075 74.6116 239.808 74.8593 241.278 75.3628C242.747 75.858 243.96 76.5266 244.934 77.3603C245.9 78.1939 246.618 79.1514 247.089 80.241C247.559 81.3305 247.79 82.4696 247.79 83.65C247.79 84.8303 247.559 85.9694 247.089 87.0589C246.618 88.1485 245.9 89.106 244.934 89.9397C243.969 90.7733 242.747 91.4337 241.278 91.9372C239.8 92.4407 238.067 92.6883 236.078 92.6883ZM236.078 87.744C238.075 87.744 239.553 87.3561 240.502 86.5885C241.451 85.8126 241.93 84.8386 241.93 83.6582C241.93 82.4779 241.451 81.5039 240.502 80.728C239.544 79.9521 238.075 79.5724 236.078 79.5724C234.08 79.5724 232.603 79.9603 231.653 80.728C230.696 81.4956 230.225 82.4779 230.225 83.6582C230.225 84.8386 230.704 85.8126 231.653 86.5885C232.603 87.3561 234.08 87.744 236.078 87.744ZM242.293 51.698C242.293 51.244 242.384 50.9221 242.565 50.7405C242.747 50.5589 243.077 50.4681 243.564 50.4681H246.742C247.229 50.4681 247.559 50.5589 247.741 50.7405C247.922 50.9221 248.013 51.244 248.013 51.698V58.8214L251.422 58.6811C251.843 58.648 252.14 58.7223 252.305 58.8874C252.47 59.0525 252.553 59.3827 252.553 59.8614V62.6761C252.553 63.1878 252.47 63.5263 252.305 63.6748C252.14 63.8234 251.86 63.9142 251.463 63.9472L248.013 64.0875V71.31C248.013 71.7639 247.922 72.0858 247.741 72.2674C247.559 72.449 247.229 72.5398 246.742 72.5398H243.564C243.077 72.5398 242.747 72.449 242.565 72.2674C242.384 72.0858 242.293 71.7639 242.293 71.31V51.698Z" fill="#191919" stroke="white" stroke-width="10" stroke-miterlimit="10" stroke-linecap="round" stroke-linejoin="round"/>
<path d="M271.843 61.8176C271.843 62.3624 271.86 62.8164 271.893 63.1796C271.926 63.5428 272.148 63.8729 272.578 64.1783L281.162 70.2617C281.467 70.501 281.608 70.7322 281.591 70.9468C281.575 71.1614 281.451 71.4173 281.203 71.7144L279.115 74.2154C278.876 74.5208 278.628 74.6694 278.389 74.6694C278.149 74.6694 277.86 74.5456 277.522 74.3062L269.037 68.2724L260.683 74.9005C260.353 75.1399 260.081 75.2555 259.866 75.2389C259.652 75.2224 259.396 75.0656 259.09 74.7602L256.771 72.449C256.226 71.9043 256.226 71.409 256.771 70.955L265.397 64.1453C265.793 63.8152 266.007 63.4685 266.057 63.1218C266.106 62.7751 266.123 62.3294 266.123 61.7846V51.244C266.123 50.7901 266.214 50.4681 266.395 50.2865C266.577 50.105 266.907 50.0142 267.394 50.0142H270.572C271.059 50.0142 271.389 50.105 271.571 50.2865C271.752 50.4681 271.843 50.7901 271.843 51.244V61.8176V61.8176ZM265.537 91.7803C265.05 91.7803 264.72 91.6895 264.538 91.5079C264.356 91.3264 264.266 91.0044 264.266 90.5505V78.0289C264.266 77.5749 264.356 77.253 264.538 77.0714C264.72 76.8898 265.05 76.799 265.537 76.799H268.715C269.202 76.799 269.532 76.8898 269.713 77.0714C269.895 77.253 269.986 77.5666 269.986 78.0289V86.4234L289.738 86.0602C290.159 86.0602 290.456 86.1345 290.621 86.2913C290.786 86.4399 290.869 86.7618 290.869 87.2405V90.146C290.869 90.633 290.795 90.9467 290.638 91.1035C290.489 91.2521 290.2 91.3264 289.779 91.3264L265.537 91.7803ZM286.098 51.698C286.098 51.244 286.189 50.9221 286.37 50.7405C286.552 50.5589 286.882 50.4681 287.369 50.4681H290.547C291.034 50.4681 291.364 50.5589 291.546 50.7405C291.727 50.9221 291.818 51.244 291.818 51.698V75.3958C291.818 75.8498 291.727 76.1634 291.546 76.3533C291.364 76.5349 291.034 76.6256 290.547 76.6256H287.369C286.882 76.6256 286.552 76.5349 286.37 76.3533C286.189 76.1717 286.098 75.8498 286.098 75.3958V51.698Z" fill="#191919" stroke="white" stroke-width="10" stroke-miterlimit="10" stroke-linecap="round" stroke-linejoin="round"/>
<path d="M306.305 51.2434V48.7919C306.305 48.338 306.395 48.0243 306.577 47.8427C306.759 47.6611 307.089 47.5703 307.576 47.5703H310.754C311.241 47.5703 311.571 47.6611 311.752 47.8427C311.934 48.0243 312.025 48.338 312.025 48.7919V51.1114L320.064 50.9298C320.485 50.9298 320.782 51.0041 320.947 51.1609C321.113 51.3095 321.195 51.6314 321.195 52.1184V54.933C321.195 55.4448 321.113 55.7915 320.947 55.9566C320.782 56.1216 320.502 56.2042 320.106 56.2042L312.025 56.3858V59.5636C312.025 60.1084 312.041 60.5624 312.074 60.9256C312.107 61.2888 312.33 61.6189 312.759 61.9243L321.344 68.0077C321.649 68.247 321.789 68.4782 321.773 68.6928C321.756 68.9074 321.633 69.1633 321.385 69.4604L319.297 71.9614C319.057 72.2668 318.81 72.4154 318.57 72.4154C318.331 72.4154 318.042 72.2916 317.704 72.0522L309.218 66.0184L300.865 72.6465C300.535 72.8859 300.262 73.0015 300.048 72.9849C299.833 72.9684 299.577 72.8116 299.272 72.5062L296.953 70.195C296.408 69.6503 296.408 69.155 296.953 68.701L305.578 61.8913C305.974 61.5612 306.189 61.2145 306.238 60.8678C306.288 60.5211 306.305 60.0754 306.305 59.5306V56.5344L298.133 56.6747C297.737 56.6747 297.456 56.5921 297.291 56.427C297.126 56.262 297.043 55.9235 297.043 55.4035V52.5889C297.043 52.1019 297.126 51.7882 297.291 51.6314C297.456 51.4828 297.753 51.4085 298.174 51.4085L306.305 51.2434ZM317.786 92.6877C315.789 92.6877 314.055 92.4401 312.586 91.9366C311.117 91.4331 309.903 90.7727 308.929 89.939C307.964 89.1054 307.245 88.1479 306.775 87.0583C306.305 85.9688 306.073 84.838 306.073 83.6494C306.073 82.469 306.305 81.3382 306.775 80.2404C307.245 79.1508 307.964 78.1933 308.929 77.3597C309.895 76.526 311.117 75.8574 312.586 75.3622C314.055 74.8586 315.789 74.611 317.786 74.611C319.784 74.611 321.517 74.8586 322.986 75.3622C324.455 75.8574 325.669 76.526 326.643 77.3597C327.609 78.1933 328.327 79.1508 328.797 80.2404C329.268 81.3299 329.499 82.469 329.499 83.6494C329.499 84.8297 329.268 85.9688 328.797 87.0583C328.327 88.1479 327.609 89.1054 326.643 89.939C325.677 90.7727 324.455 91.4331 322.986 91.9366C321.517 92.4401 319.784 92.6877 317.786 92.6877ZM317.786 87.7434C319.784 87.7434 321.261 87.3555 322.21 86.5878C323.168 85.8119 323.638 84.838 323.638 83.6576C323.638 82.4773 323.16 81.5033 322.21 80.7274C321.261 79.9515 319.784 79.5718 317.786 79.5718C315.789 79.5718 314.311 79.9597 313.362 80.7274C312.413 81.495 311.934 82.4773 311.934 83.6576C311.934 84.838 312.413 85.8119 313.362 86.5878C314.319 87.3555 315.789 87.7434 317.786 87.7434ZM326.28 58.7382V51.6974C326.28 51.2434 326.37 50.9215 326.552 50.7399C326.734 50.5583 327.064 50.4675 327.551 50.4675H330.729C331.216 50.4675 331.546 50.5583 331.727 50.7399C331.909 50.9215 332 51.2434 332 51.6974V71.3093C332 71.7633 331.909 72.0852 331.727 72.2668C331.546 72.4484 331.216 72.5392 330.729 72.5392H327.551C327.064 72.5392 326.734 72.4484 326.552 72.2668C326.37 72.0852 326.28 71.7633 326.28 71.3093V64.0044L319.924 64.1447C319.503 64.1447 319.206 64.0704 319.041 63.9136C318.876 63.765 318.793 63.4431 318.793 62.9561V60.0506C318.793 59.5636 318.876 59.25 319.041 59.0932C319.206 58.9446 319.503 58.862 319.924 58.862L326.28 58.7382Z" fill="#191919" stroke="white" stroke-width="10" stroke-miterlimit="10" stroke-linecap="round" stroke-linejoin="round"/>
</g>
<path d="M57.8533 55.783L57.2673 78.6636L59.8509 78.6223C60.3379 78.6223 60.668 78.7131 60.8496 78.8947C61.0312 79.0763 61.122 79.3899 61.122 79.8439V82.6586C61.122 83.1126 61.0312 83.4345 60.8496 83.6161C60.668 83.7977 60.3379 83.8885 59.8509 83.8885L37.8369 84.3425C37.3499 84.3425 37.0198 84.2517 36.8382 84.0701C36.6566 83.8885 36.5658 83.5748 36.5658 83.1126V80.2979C36.5658 79.8439 36.6566 79.522 36.8382 79.3404C37.0198 79.1588 37.3499 79.068 37.8369 79.068L40.5608 79.0268L40.3792 56.1462L37.383 56.1957C36.896 56.1957 36.5658 56.1049 36.3842 55.9233C36.2026 55.7417 36.1118 55.4198 36.1118 54.9658V52.1511C36.1118 51.6972 36.2026 51.3835 36.3842 51.1937C36.5658 51.0121 36.896 50.9213 37.383 50.9213L60.3544 50.4673C60.8414 50.4673 61.1715 50.5581 61.3531 50.7397C61.5347 50.9213 61.6255 51.2432 61.6255 51.6972V54.5118C61.6255 54.9658 61.5347 55.2795 61.3531 55.4611C61.1715 55.6427 60.8414 55.7335 60.3544 55.7335L57.8533 55.783ZM46.2727 78.936L51.5389 78.7957L52.0837 55.915L46.0911 56.0058L46.2727 78.936ZM66.025 52.6051C66.025 52.1511 66.1158 51.8375 66.2974 51.6559C66.479 51.4743 66.8091 51.3835 67.2961 51.3835H70.474C70.961 51.3835 71.2912 51.4743 71.4727 51.6559C71.6543 51.8375 71.7451 52.1511 71.7451 52.6051V81.7506C71.7451 82.2046 71.6543 82.5183 71.4727 82.6999C71.2912 82.8815 70.961 82.9723 70.474 82.9723H67.2961C66.8091 82.9723 66.479 82.8815 66.2974 82.6999C66.1158 82.5183 66.025 82.2046 66.025 81.7506V52.6051Z" fill="#E42A27"/>
<path d="M95.7979 77.5578C96.1281 77.5578 96.3592 77.6156 96.4913 77.7311C96.6233 77.8467 96.6894 78.0943 96.6894 78.474V80.6779C96.6894 81.0823 96.6233 81.3465 96.4913 81.4785C96.3592 81.6106 96.1446 81.6766 95.8309 81.6766L88.7323 81.8169V87.0336C88.7323 87.3885 88.658 87.6362 88.5177 87.7765C88.3774 87.9168 88.1133 87.9911 87.7336 87.9911H85.2491C84.8694 87.9911 84.6135 87.9168 84.4649 87.7765C84.3163 87.6362 84.2503 87.3885 84.2503 87.0336V81.883L77.292 82.0233C76.9866 82.0233 76.7638 81.9573 76.6317 81.8252C76.4996 81.6931 76.4336 81.429 76.4336 81.0245V78.8207C76.4336 78.441 76.4996 78.1934 76.6317 78.0778C76.7638 77.9622 76.9949 77.9045 77.325 77.9045L95.7979 77.5578ZM95.1211 73.9012C95.1211 74.2561 95.0468 74.4955 94.9065 74.6276C94.7661 74.7596 94.502 74.8339 94.1223 74.8587L78.3321 75.2136C77.9524 75.2384 77.6965 75.1723 77.5479 75.0155C77.4076 74.8587 77.3333 74.611 77.3333 74.2561L76.9784 58.9198C76.9784 58.5649 77.0527 58.3173 77.193 58.177C77.3333 58.0366 77.5974 57.9624 77.9771 57.9624L94.8734 57.6074C95.2531 57.6074 95.509 57.6817 95.6576 57.822C95.7979 57.9624 95.8722 58.21 95.8722 58.5649V60.7688C95.8722 61.1237 95.7979 61.3713 95.6576 61.5117C95.5173 61.652 95.2531 61.7263 94.8734 61.7263L81.5264 62.0069L81.5594 64.4584L93.916 64.1778C94.2956 64.1778 94.5515 64.252 94.7001 64.3924C94.8487 64.5327 94.9147 64.7803 94.9147 65.1352V67.3391C94.9147 67.694 94.8404 67.9417 94.7001 68.082C94.5598 68.2223 94.2956 68.2966 93.916 68.2966L81.6668 68.5772L81.6998 71.0287L94.1223 70.7481C94.502 70.7233 94.7579 70.7894 94.9065 70.9462C95.0468 71.103 95.1211 71.3506 95.1211 71.7056V73.9012V73.9012ZM99.3142 59.2748C99.3142 58.9198 99.3885 58.6722 99.5288 58.5319C99.6691 58.3916 99.9333 58.3173 100.313 58.3173H102.797C103.177 58.3173 103.433 58.3916 103.582 58.5319C103.722 58.6722 103.796 58.9198 103.796 59.2748V83.4843C103.796 83.8392 103.722 84.0868 103.582 84.2272C103.441 84.3675 103.177 84.4418 102.797 84.4418H100.313C99.9333 84.4418 99.6774 84.3675 99.5288 84.2272C99.3885 84.0868 99.3142 83.8392 99.3142 83.4843V59.2748Z" fill="#2F4038"/>
<path d="M107.692 58.9198C107.692 58.5649 107.766 58.3173 107.907 58.177C108.047 58.0366 108.311 57.9624 108.691 57.9624L125.232 57.6074C125.612 57.6074 125.884 57.6817 126.049 57.822C126.214 57.9624 126.272 58.21 126.223 58.5649L123.35 82.7744C123.301 83.1294 123.202 83.377 123.045 83.5173C122.888 83.6576 122.624 83.7319 122.244 83.7319H119.76C119.38 83.7319 119.124 83.6576 119 83.5173C118.868 83.377 118.827 83.1294 118.877 82.7744L121.361 61.8253L108.683 62.0729C108.303 62.0729 108.047 61.9986 107.898 61.8583C107.75 61.718 107.684 61.4704 107.684 61.1155V58.9198H107.692ZM130.738 59.2748C130.738 58.9198 130.812 58.6722 130.952 58.5319C131.093 58.3916 131.357 58.3173 131.737 58.3173H134.221C134.601 58.3173 134.857 58.3916 135.005 58.5319C135.146 58.6722 135.22 58.9198 135.22 59.2748V82.0728C135.22 82.4278 135.146 82.6754 135.005 82.8157C134.865 82.956 134.601 83.0303 134.221 83.0303H131.737C131.357 83.0303 131.101 82.956 130.952 82.8157C130.812 82.6754 130.738 82.4278 130.738 82.0728V59.2748Z" fill="#2F4038"/>
<path d="M162.615 73.1918C162.945 73.1918 163.177 73.2495 163.309 73.3651C163.441 73.4807 163.507 73.7365 163.507 74.108V76.3118C163.507 76.7163 163.441 76.9804 163.309 77.1125C163.177 77.2446 162.962 77.3106 162.648 77.3106L140.634 77.6655C140.329 77.6655 140.106 77.5995 139.974 77.4674C139.842 77.3354 139.776 77.0712 139.776 76.6668V74.4629C139.776 74.0832 139.842 73.8356 139.974 73.72C140.106 73.6045 140.337 73.5384 140.667 73.5384L162.615 73.1918ZM143.408 57.2529C143.788 57.2529 144.043 57.3272 144.167 57.4675C144.299 57.6079 144.374 57.8555 144.398 58.2104L144.613 66.8773L162.046 66.5554C162.425 66.5554 162.681 66.6297 162.83 66.77C162.97 66.9103 163.045 67.158 163.045 67.5129V69.7168C163.045 70.0717 162.97 70.3193 162.83 70.4596C162.69 70.5999 162.425 70.6742 162.046 70.6742L141.245 71.0292C140.866 71.0292 140.61 70.9549 140.461 70.8146C140.313 70.6742 140.246 70.4266 140.246 70.0717L139.925 58.2104C139.9 57.8555 139.966 57.6079 140.123 57.4675C140.28 57.3272 140.544 57.2529 140.923 57.2529H143.408V57.2529ZM141.386 89.9147C141.006 89.9147 140.75 89.8405 140.601 89.7001C140.461 89.5598 140.387 89.3122 140.387 88.9573V81.1075C140.387 80.7526 140.461 80.505 140.601 80.3646C140.742 80.2243 141.006 80.15 141.386 80.15H143.87C144.25 80.15 144.506 80.2243 144.654 80.3646C144.803 80.505 144.869 80.7526 144.869 81.1075V85.7216L162.087 85.474C162.417 85.474 162.648 85.5318 162.78 85.6473C162.912 85.7629 162.979 86.0105 162.979 86.3902V88.6601C162.979 89.0398 162.921 89.2874 162.805 89.403C162.69 89.5185 162.459 89.5763 162.128 89.5763L141.386 89.9147Z" fill="#2F4038"/>
<path d="M190.316 60.5952C190.737 60.3558 191.001 60.1494 191.109 59.9844C191.216 59.8193 191.266 59.4809 191.266 58.9608V51.6972C191.266 51.2432 191.356 50.9213 191.538 50.7397C191.72 50.5581 192.05 50.4673 192.537 50.4673H195.715C196.202 50.4673 196.532 50.5581 196.713 50.7397C196.895 50.9213 196.986 51.2432 196.986 51.6972V58.87C196.986 59.3818 197.035 59.7285 197.126 59.8936C197.217 60.0587 197.489 60.265 197.943 60.5044L209.384 66.3153C209.804 66.5299 210.052 66.7528 210.11 67.0004C210.168 67.2398 210.077 67.5617 209.837 67.9496L208.162 70.7643C207.947 71.0945 207.733 71.2926 207.502 71.3504C207.279 71.4082 206.949 71.3174 206.528 71.078L193.998 64.5819L181.831 71.532C181.468 71.7466 181.162 71.8126 180.923 71.7383C180.684 71.664 180.428 71.4164 180.147 70.9872L178.653 68.577C178.414 68.2138 178.315 67.9001 178.356 67.6442C178.397 67.3884 178.637 67.1407 179.058 66.8931L190.316 60.5952ZM208.154 74.033C208.575 74.033 208.872 74.1073 209.037 74.2641C209.202 74.4127 209.284 74.7346 209.284 75.2216V78.0363C209.284 78.548 209.202 78.8947 209.037 79.0598C208.872 79.2249 208.591 79.3074 208.195 79.3074L196.986 79.489V88.1146C196.986 88.5686 196.895 88.8823 196.713 89.0639C196.532 89.2454 196.202 89.3362 195.715 89.3362H192.537C192.05 89.3362 191.72 89.2454 191.538 89.0639C191.356 88.8823 191.266 88.5686 191.266 88.1146V79.5715L180.056 79.7531C179.66 79.7531 179.38 79.6706 179.214 79.5055C179.049 79.3404 178.967 79.002 178.967 78.482V75.6673C178.967 75.1803 179.049 74.8667 179.214 74.7098C179.38 74.5613 179.677 74.487 180.098 74.487L208.154 74.033Z" fill="#E42A27"/>
<path d="M214.65 51.698C214.65 51.244 214.74 50.9221 214.922 50.7405C215.104 50.5589 215.434 50.4681 215.921 50.4681L236.168 50.0142C236.655 50.0142 237.002 50.105 237.217 50.2865C237.431 50.4681 237.506 50.7901 237.439 51.244L234.674 70.988C234.617 71.442 234.484 71.7557 234.286 71.9455C234.088 72.1271 233.75 72.2179 233.263 72.2179H230.085C229.598 72.2179 229.276 72.1271 229.111 71.9455C228.946 71.7639 228.888 71.442 228.954 70.988L231.133 55.4124L215.929 55.7261C215.442 55.7261 215.112 55.6353 214.93 55.4537C214.749 55.2721 214.658 54.9584 214.658 54.5044V51.698H214.65ZM236.078 92.6883C234.08 92.6883 232.347 92.4407 230.877 91.9372C229.408 91.4337 228.195 90.7733 227.221 89.9397C226.255 89.106 225.537 88.1485 225.066 87.0589C224.596 85.9694 224.365 84.8386 224.365 83.65C224.365 82.4696 224.596 81.3388 225.066 80.241C225.537 79.1514 226.255 78.1939 227.221 77.3603C228.187 76.5266 229.408 75.858 230.877 75.3628C232.347 74.8593 234.08 74.6116 236.078 74.6116C238.075 74.6116 239.808 74.8593 241.278 75.3628C242.747 75.858 243.96 76.5266 244.934 77.3603C245.9 78.1939 246.618 79.1514 247.089 80.241C247.559 81.3305 247.79 82.4696 247.79 83.65C247.79 84.8303 247.559 85.9694 247.089 87.0589C246.618 88.1485 245.9 89.106 244.934 89.9397C243.969 90.7733 242.747 91.4337 241.278 91.9372C239.8 92.4407 238.067 92.6883 236.078 92.6883ZM236.078 87.744C238.075 87.744 239.553 87.3561 240.502 86.5885C241.451 85.8126 241.93 84.8386 241.93 83.6582C241.93 82.4779 241.451 81.5039 240.502 80.728C239.544 79.9521 238.075 79.5724 236.078 79.5724C234.08 79.5724 232.603 79.9603 231.653 80.728C230.696 81.4956 230.225 82.4779 230.225 83.6582C230.225 84.8386 230.704 85.8126 231.653 86.5885C232.603 87.3561 234.08 87.744 236.078 87.744ZM242.293 51.698C242.293 51.244 242.384 50.9221 242.565 50.7405C242.747 50.5589 243.077 50.4681 243.564 50.4681H246.742C247.229 50.4681 247.559 50.5589 247.741 50.7405C247.922 50.9221 248.013 51.244 248.013 51.698V58.8214L251.422 58.6811C251.843 58.648 252.14 58.7223 252.305 58.8874C252.47 59.0525 252.553 59.3827 252.553 59.8614V62.6761C252.553 63.1878 252.47 63.5263 252.305 63.6748C252.14 63.8234 251.86 63.9142 251.463 63.9472L248.013 64.0875V71.31C248.013 71.7639 247.922 72.0858 247.741 72.2674C247.559 72.449 247.229 72.5398 246.742 72.5398H243.564C243.077 72.5398 242.747 72.449 242.565 72.2674C242.384 72.0858 242.293 71.7639 242.293 71.31V51.698Z" fill="#E42A27"/>
<path d="M271.843 61.8176C271.843 62.3624 271.86 62.8164 271.893 63.1796C271.926 63.5428 272.148 63.8729 272.578 64.1783L281.162 70.2617C281.467 70.501 281.608 70.7322 281.591 70.9468C281.575 71.1614 281.451 71.4173 281.203 71.7144L279.115 74.2154C278.876 74.5208 278.628 74.6694 278.389 74.6694C278.149 74.6694 277.86 74.5456 277.522 74.3062L269.037 68.2724L260.683 74.9005C260.353 75.1399 260.081 75.2555 259.866 75.2389C259.652 75.2224 259.396 75.0656 259.09 74.7602L256.771 72.449C256.226 71.9043 256.226 71.409 256.771 70.955L265.397 64.1453C265.793 63.8152 266.007 63.4685 266.057 63.1218C266.106 62.7751 266.123 62.3294 266.123 61.7846V51.244C266.123 50.7901 266.214 50.4681 266.395 50.2865C266.577 50.105 266.907 50.0142 267.394 50.0142H270.572C271.059 50.0142 271.389 50.105 271.571 50.2865C271.752 50.4681 271.843 50.7901 271.843 51.244V61.8176V61.8176ZM265.537 91.7803C265.05 91.7803 264.72 91.6895 264.538 91.5079C264.356 91.3264 264.266 91.0044 264.266 90.5505V78.0289C264.266 77.5749 264.356 77.253 264.538 77.0714C264.72 76.8898 265.05 76.799 265.537 76.799H268.715C269.202 76.799 269.532 76.8898 269.713 77.0714C269.895 77.253 269.986 77.5666 269.986 78.0289V86.4234L289.738 86.0602C290.159 86.0602 290.456 86.1345 290.621 86.2913C290.786 86.4399 290.869 86.7618 290.869 87.2405V90.146C290.869 90.633 290.795 90.9467 290.638 91.1035C290.489 91.2521 290.2 91.3264 289.779 91.3264L265.537 91.7803ZM286.098 51.698C286.098 51.244 286.189 50.9221 286.37 50.7405C286.552 50.5589 286.882 50.4681 287.369 50.4681H290.547C291.034 50.4681 291.364 50.5589 291.546 50.7405C291.727 50.9221 291.818 51.244 291.818 51.698V75.3958C291.818 75.8498 291.727 76.1634 291.546 76.3533C291.364 76.5349 291.034 76.6256 290.547 76.6256H287.369C286.882 76.6256 286.552 76.5349 286.37 76.3533C286.189 76.1717 286.098 75.8498 286.098 75.3958V51.698Z" fill="#E42A27"/>
<path d="M306.305 51.2434V48.7919C306.305 48.338 306.395 48.0243 306.577 47.8427C306.759 47.6611 307.089 47.5703 307.576 47.5703H310.754C311.241 47.5703 311.571 47.6611 311.752 47.8427C311.934 48.0243 312.025 48.338 312.025 48.7919V51.1114L320.064 50.9298C320.485 50.9298 320.782 51.0041 320.947 51.1609C321.113 51.3095 321.195 51.6314 321.195 52.1184V54.933C321.195 55.4448 321.113 55.7915 320.947 55.9566C320.782 56.1216 320.502 56.2042 320.106 56.2042L312.025 56.3858V59.5636C312.025 60.1084 312.041 60.5624 312.074 60.9256C312.107 61.2888 312.33 61.6189 312.759 61.9243L321.344 68.0077C321.649 68.247 321.789 68.4782 321.773 68.6928C321.756 68.9074 321.633 69.1633 321.385 69.4604L319.297 71.9614C319.057 72.2668 318.81 72.4154 318.57 72.4154C318.331 72.4154 318.042 72.2916 317.704 72.0522L309.218 66.0184L300.865 72.6465C300.535 72.8859 300.262 73.0015 300.048 72.9849C299.833 72.9684 299.577 72.8116 299.272 72.5062L296.953 70.195C296.408 69.6503 296.408 69.155 296.953 68.701L305.578 61.8913C305.974 61.5612 306.189 61.2145 306.238 60.8678C306.288 60.5211 306.305 60.0754 306.305 59.5306V56.5344L298.133 56.6747C297.737 56.6747 297.456 56.5921 297.291 56.427C297.126 56.262 297.043 55.9235 297.043 55.4035V52.5889C297.043 52.1019 297.126 51.7882 297.291 51.6314C297.456 51.4828 297.753 51.4085 298.174 51.4085L306.305 51.2434ZM317.786 92.6877C315.789 92.6877 314.055 92.4401 312.586 91.9366C311.117 91.4331 309.903 90.7727 308.929 89.939C307.964 89.1054 307.245 88.1479 306.775 87.0583C306.305 85.9688 306.073 84.838 306.073 83.6494C306.073 82.469 306.305 81.3382 306.775 80.2404C307.245 79.1508 307.964 78.1933 308.929 77.3597C309.895 76.526 311.117 75.8574 312.586 75.3622C314.055 74.8586 315.789 74.611 317.786 74.611C319.784 74.611 321.517 74.8586 322.986 75.3622C324.455 75.8574 325.669 76.526 326.643 77.3597C327.609 78.1933 328.327 79.1508 328.797 80.2404C329.268 81.3299 329.499 82.469 329.499 83.6494C329.499 84.8297 329.268 85.9688 328.797 87.0583C328.327 88.1479 327.609 89.1054 326.643 89.939C325.677 90.7727 324.455 91.4331 322.986 91.9366C321.517 92.4401 319.784 92.6877 317.786 92.6877ZM317.786 87.7434C319.784 87.7434 321.261 87.3555 322.21 86.5878C323.168 85.8119 323.638 84.838 323.638 83.6576C323.638 82.4773 323.16 81.5033 322.21 80.7274C321.261 79.9515 319.784 79.5718 317.786 79.5718C315.789 79.5718 314.311 79.9597 313.362 80.7274C312.413 81.495 311.934 82.4773 311.934 83.6576C311.934 84.838 312.413 85.8119 313.362 86.5878C314.319 87.3555 315.789 87.7434 317.786 87.7434ZM326.28 58.7382V51.6974C326.28 51.2434 326.37 50.9215 326.552 50.7399C326.734 50.5583 327.064 50.4675 327.551 50.4675H330.729C331.216 50.4675 331.546 50.5583 331.727 50.7399C331.909 50.9215 332 51.2434 332 51.6974V71.3093C332 71.7633 331.909 72.0852 331.727 72.2668C331.546 72.4484 331.216 72.5392 330.729 72.5392H327.551C327.064 72.5392 326.734 72.4484 326.552 72.2668C326.37 72.0852 326.28 71.7633 326.28 71.3093V64.0044L319.924 64.1447C319.503 64.1447 319.206 64.0704 319.041 63.9136C318.876 63.765 318.793 63.4431 318.793 62.9561V60.0506C318.793 59.5636 318.876 59.25 319.041 59.0932C319.206 58.9446 319.503 58.862 319.924 58.862L326.28 58.7382Z" fill="#E42A27"/>
<path d="M26 54.8939C26 57.274 22.4279 55.2145 19.0315 56.4486C16.9903 57.1938 10.2059 61.3449 7.42021 61.7857C0.476834 62.8996 0 59.3655 0 55.559C0 51.7526 6.18211 47.9941 13.2342 47.9941C20.2864 47.9941 26 51.0874 26 54.8939Z" fill="#DC2721"/>
</svg>
