<svg width="300" height="48" viewBox="0 0 300 48" fill="none" xmlns="http://www.w3.org/2000/svg">
<rect width="300" height="48" rx="24" fill="#D9D9D9"/>
<path d="M137.301 30.9247C137.276 30.8507 137.219 30.8222 137.137 30.7995C137.08 30.7995 137.024 30.8222 136.942 30.8222C136.86 30.845 136.747 30.8735 136.64 30.8962C136.501 30.919 136.419 30.919 136.331 30.919C136.274 30.919 136.218 30.8962 136.218 30.8165H135.109V30.7653H134.996C134.996 30.7425 134.801 30.7425 134.41 30.7425V30.6913H134.329V30.6401H133.995V30.5889H133.913V30.5376H133.693V30.4978H133.529V30.4466H133.277C133.22 30.3726 133.082 30.2986 132.861 30.2701L132.805 30.1677H132.635C132.609 30.0937 132.578 30.0652 132.496 30.0652V30.014H132.389V29.9628H132.219C132.219 29.94 132.194 29.9116 132.162 29.8888H131.973C131.948 29.8376 131.917 29.7863 131.892 29.7636C131.866 29.7408 131.835 29.7123 131.81 29.6896C131.785 29.6668 131.785 29.6668 131.753 29.6668H131.665C131.64 29.6668 131.608 29.6156 131.608 29.5416C131.388 29.4904 131.249 29.4164 131.193 29.2627L130.972 29.2115C130.916 29.109 130.834 29.0635 130.72 29.0123C130.607 28.9895 130.525 28.9098 130.5 28.7846H130.33C129.996 28.4317 129.832 28.2553 129.832 28.2325H129.776C129.751 28.1585 129.694 28.1073 129.662 28.0845V27.9365L129.499 27.8853L129.303 27.4356H129.196L128.945 26.7583L128.831 26.7071V26.5819L128.718 26.5307V26.3315L128.554 26.229V26.1038H128.529V25.9558H128.472V25.8306H128.416V25.6826H128.359C128.359 25.6086 128.334 25.5574 128.246 25.5346V25.3069H128.195V25.2045H128.139V24.9768H128.082V24.8288H128.057V24.7776H128.082V24.4532H128.057V24.3052H128C128 23.8783 128.025 23.4514 128.057 23.0246H128.082L128.057 22.8481H128.082V22.7457C128.139 22.7457 128.139 22.7229 128.164 22.6944L128.082 22.4668H128.139V22.2163H128.195V22.1423H128.252V21.7155H128.309V21.5162C128.334 21.5162 128.365 21.4935 128.39 21.4422C128.39 21.3683 128.416 21.3398 128.472 21.3398V21.0381H128.529L128.554 20.7137L128.718 20.6625L128.831 20.2356L128.945 20.1844V20.0592H128.97V19.9567H129.026V19.8087L129.14 19.7575V19.6323L129.253 19.5811L129.366 19.2794H129.423C129.448 19.2566 129.448 19.2054 129.48 19.1542C129.48 19.1314 129.505 19.1029 129.562 19.1029V19.0005H129.618V18.898H129.675V18.7728L129.895 18.6248V18.4484C129.921 18.4256 129.952 18.3972 129.977 18.3972C130.002 18.2719 130.091 18.1695 130.198 18.0955V17.976C130.254 17.9532 130.336 17.902 130.418 17.8508C130.5 17.7995 130.557 17.7028 130.557 17.6003C130.638 17.5263 130.72 17.4751 130.777 17.4523V17.3499H130.802L130.916 17.2474C130.916 17.2702 130.941 17.2987 130.972 17.2987V17.1734C131.054 17.1507 131.086 17.0995 131.086 17.0255L131.249 16.923V16.8206L131.558 16.6953V16.5929L131.753 16.4449C131.753 16.3937 131.81 16.3425 131.866 16.3197V16.2685H131.98C132.005 16.1945 132.062 16.166 132.143 16.166C132.169 16.092 132.225 16.0408 132.282 15.9896C132.364 15.9896 132.421 15.9668 132.446 15.8871H132.559L132.641 15.7391C132.723 15.7391 132.779 15.7164 132.861 15.6879C132.887 15.6367 132.943 15.6139 133.025 15.6139C133.025 15.5627 133.082 15.5399 133.164 15.5115C133.189 15.4375 133.22 15.3862 133.22 15.3635C133.302 15.3635 133.359 15.3407 133.441 15.3122V15.261C133.579 15.261 133.636 15.2383 133.636 15.187C133.749 15.1643 133.856 15.1358 133.97 15.1358L133.995 15.0334C134.108 15.0106 134.19 14.9821 134.272 14.9821V14.9309H134.385V14.8797C134.442 14.8797 134.499 14.8284 134.524 14.7772C134.719 14.7772 134.801 14.7772 134.826 14.7545C134.826 14.7317 134.826 14.7317 134.851 14.7032H134.99L135.046 14.6008H135.267L135.323 14.4983H135.626V14.4471H135.764V14.3959H136.098V14.3731H136.211V14.3333H137.131C137.187 14.282 137.213 14.2593 137.269 14.2593L137.294 14.282V14.3333H138.126L138.182 14.4073H138.655L138.711 14.5097H139.02V14.5609H139.133V14.6122H139.354L139.379 14.7146C139.517 14.7146 139.631 14.7658 139.713 14.8911H139.851L139.908 14.9935C139.99 14.9935 140.021 15.0163 140.021 15.096H140.134L140.298 15.2724H140.38C140.437 15.3749 140.519 15.4204 140.6 15.4204V15.7448H140.657V15.944C140.632 15.944 140.632 15.944 140.6 15.9668C140.575 15.9896 140.575 15.9896 140.575 16.018H140.38L140.355 16.0692C140.355 16.1717 140.191 16.2172 139.857 16.2172V16.166H139.662V16.1148H139.549V16.0636H139.385L139.36 15.9896H139.083V15.9383H138.97V15.8871H138.611L138.554 15.7847H137.25V15.8359H136.999V15.8871H136.526L136.47 15.9896H136.249C136.249 16.0123 136.224 16.0123 136.167 16.0123V16.0636L135.695 16.166V16.2172C135.613 16.2172 135.556 16.24 135.531 16.3197C135.475 16.3197 135.393 16.3425 135.336 16.3709V16.4221L134.946 16.4449C134.946 16.5189 134.889 16.5474 134.75 16.5474C134.694 16.6498 134.612 16.6953 134.53 16.6953V16.7466C134.505 16.7693 134.448 16.7693 134.392 16.7693C134.31 16.7693 134.253 16.8206 134.228 16.9173H134.007V16.9685H133.97V17.1165L133.579 17.219C133.554 17.2417 133.523 17.293 133.497 17.3442H133.384C133.359 17.4182 133.302 17.4466 133.22 17.4466V17.4979L133.057 17.5491C133.057 17.6231 133 17.6971 132.861 17.7255V17.828H132.748C132.723 17.9304 132.666 18.0044 132.609 18.0557C132.528 18.1297 132.471 18.2037 132.446 18.3061C132.332 18.3289 132.282 18.3573 132.282 18.4086C132.282 18.4313 132.257 18.4825 132.225 18.5338H132.162C132.162 18.585 132.162 18.6362 132.137 18.659V18.733C132.055 18.733 131.999 18.7557 131.917 18.7842C131.722 19.1086 131.501 19.4388 131.281 19.7632H131.136C131.136 19.9909 131.111 20.1673 131.023 20.2925H130.972V20.395H130.916C130.916 20.4974 130.859 20.5714 130.777 20.6226L130.72 20.8731H130.664C130.638 20.9755 130.607 21.0723 130.607 21.1975L130.443 21.3V21.5276C130.361 21.5788 130.305 21.6528 130.305 21.7553C130.28 21.7553 130.248 21.7781 130.248 21.8065C130.273 21.8065 130.305 21.8577 130.305 21.9545L130.191 22.0057V22.3302H130.141V22.4326H130.084V22.9107H130.028V22.9847H129.971V24.641H130.028V24.7435H130.084V25.0679L130.198 25.1191V25.3183H130.254C130.28 25.3695 130.28 25.4208 130.311 25.4663C130.311 25.5175 130.311 25.5688 130.311 25.6428C130.424 25.6428 130.475 25.7167 130.475 25.8192C130.475 25.842 130.5 25.8704 130.557 25.8704V26.0184L130.67 26.0696V26.2176H130.727V26.2916H130.783V26.542C130.84 26.5648 130.865 26.616 130.865 26.6673H130.922V26.7697H130.979V26.8722H131.035V26.9746L131.199 27.0771C131.199 27.2251 131.256 27.3047 131.337 27.3047V27.4072C131.419 27.4072 131.451 27.4584 131.451 27.5324L131.615 27.6349V27.7828C131.64 27.7828 131.671 27.8056 131.671 27.8341H131.866V27.9081C132.005 27.9593 132.118 28.0105 132.169 28.0845C132.251 28.1585 132.307 28.2097 132.389 28.2097V28.2609H132.502V28.3122C132.584 28.3122 132.616 28.3122 132.616 28.3349H132.698V28.3862H132.811L132.924 28.5342L133.227 28.5854V28.6366L133.447 28.6878V28.7106H133.586V28.7618H133.699V28.7903H133.976L134.001 28.8927H134.335V28.944H134.417V28.9952H134.75V29.0464H134.864V29.0976H135.361V29.1204H135.475V29.1716H137.307V29.1204C137.389 29.1204 137.42 29.1204 137.42 29.0976H137.836V29.0464H137.949V28.9952H138.145V28.944H138.258V28.8927H138.478L138.504 28.7903H138.724V28.7391H138.837V28.6878H139.058C139.114 28.5626 139.221 28.5114 139.36 28.5114L139.385 28.4089C139.687 28.2097 139.883 28.0845 139.914 27.9821H140.078C140.134 27.7544 140.298 27.5779 140.55 27.4527C140.575 27.3503 140.663 27.2251 140.827 27.0258C140.909 26.9746 140.966 26.9234 140.966 26.8494H141.022C141.022 26.7982 141.048 26.7014 141.136 26.5762H141.192V26.4282H141.218C141.218 26.3542 141.243 26.303 141.331 26.2802V26.1038H141.388L141.444 25.9046H141.501V25.7281H141.558V25.5801H141.614V25.4037H141.671V25.2557H141.696V25.1533H141.753V25.028H141.809V24.8288C141.835 24.8288 141.891 24.5784 141.973 24.0775H142.03V23.9751H142.087V23.7986H142.112V23.7474H142.087V23.5482C141.891 23.5254 141.696 23.497 141.451 23.497V23.5482C141.369 23.5482 141.287 23.5254 141.199 23.497L140.645 23.5197L139.87 23.497C139.618 23.497 139.423 23.497 139.234 23.5197C139.07 23.5197 138.9 23.5425 138.762 23.5425C138.566 23.5425 138.371 23.5197 138.208 23.4913C137.956 23.514 137.622 23.5425 137.263 23.5425V23.497C137.238 23.5197 137.181 23.5482 137.124 23.5482C137.099 23.5254 137.099 23.5254 137.099 23.497C137.074 23.4742 137.043 23.4742 137.017 23.4742C136.992 23.4514 136.936 23.423 136.854 23.4002C136.854 23.3262 136.854 23.2978 136.828 23.275C136.803 23.275 136.772 23.2522 136.747 23.1725H136.608C136.608 23.1498 136.583 23.1213 136.551 23.1213V22.8936H136.495L136.438 22.6432C136.495 22.6204 136.551 22.592 136.577 22.5692C136.602 22.5464 136.658 22.4952 136.74 22.4668C136.766 22.3415 136.822 22.2675 136.904 22.2163V22.1651H137.156V22.1423H137.269V22.0911H137.603V22.0399H137.685V21.9887L138.214 21.9374L138.271 21.835L138.629 21.8862V21.835C138.686 21.835 138.711 21.835 138.711 21.835C138.711 21.8577 138.711 21.8577 138.737 21.8862C139.486 21.8862 139.933 21.8862 140.071 21.8634C140.21 21.8634 140.38 21.8634 140.544 21.8634C140.796 21.8634 140.934 21.8862 140.991 21.9374C141.048 21.9374 141.129 21.9147 141.211 21.8862C141.293 21.8634 141.375 21.835 141.463 21.835V21.8862H141.576V21.9374H141.879V21.9887L141.992 21.9374C142.017 21.9374 142.049 21.9602 142.049 21.9887H142.244V22.0399H142.464V22.0911H142.578V22.1423C142.634 22.1423 142.691 22.1651 142.716 22.2163C142.83 22.2391 142.911 22.2676 142.993 22.2676L143.189 22.518C143.327 22.518 143.44 22.592 143.547 22.7457H143.604C143.604 22.8196 143.629 22.8709 143.717 22.8936V23.1668C143.774 23.1668 143.799 23.1896 143.831 23.2181V24.0206L143.717 24.0718V24.9768H143.661V25.0508H143.604C143.604 25.3297 143.579 25.4777 143.491 25.4777V25.8306L143.409 25.8533V26.1038L143.296 26.155V26.3827L143.182 26.4339V26.6616H143.126V26.764H143.05V27.0145L142.968 27.0657V27.1909L142.855 27.2421V27.3901C142.798 27.4129 142.741 27.4641 142.741 27.5153H142.685V27.6178H142.628C142.628 27.7202 142.571 27.817 142.464 27.8967C142.439 27.9707 142.408 28.0219 142.326 28.0447V28.1926C142.269 28.2154 142.212 28.2666 142.212 28.3179C142.131 28.3691 142.074 28.4431 142.017 28.4943C141.961 28.5455 141.904 28.5968 141.797 28.6195V28.6935H141.74C141.684 28.87 141.602 28.9724 141.488 28.9952C141.463 29.018 141.463 29.0464 141.463 29.0464C141.463 29.0692 141.463 29.0692 141.438 29.0692C141.413 29.0919 141.356 29.0919 141.325 29.1204C141.325 29.1432 141.299 29.1716 141.268 29.1716V29.2741H141.211L141.016 29.5245H140.903C140.878 29.6497 140.764 29.775 140.594 29.8489C140.399 29.9002 140.292 29.9742 140.292 30.0766H140.179V30.1278L139.958 30.1791L139.901 30.2815H139.776C139.719 30.3327 139.662 30.3555 139.612 30.3555C139.587 30.4295 139.53 30.458 139.448 30.458V30.4978C139.114 30.549 138.951 30.6003 138.951 30.6458H138.73V30.697H138.617V30.7482H138.308V30.771C138.113 30.7938 137.893 30.8222 137.672 30.8222V30.8735H137.37V30.9247H137.301V30.9247Z" fill="white" stroke="white" stroke-miterlimit="10" stroke-linecap="round" stroke-linejoin="round"/>
<path d="M152.13 31.4034V31.3521C152.105 31.3521 152.074 31.3521 152.049 31.3749C152.023 31.3977 151.967 31.3977 151.935 31.3977C151.879 31.3977 151.853 31.3749 151.853 31.3465H151.772V31.3977C151.746 31.3977 151.715 31.3749 151.715 31.3465H151.601V31.2952C151.293 31.2725 151.016 31.244 150.77 31.244V31.1928H150.688V31.1416H150.38V31.0903H150.241V31.0163H149.964L148.686 30.4415V30.339C148.384 30.265 148.132 30.0601 147.937 29.6845C147.716 29.5593 147.521 29.3828 147.326 29.2064V29.1039H147.269V29.0015C147.187 28.9502 147.131 28.899 147.105 28.825C147.08 28.751 147.024 28.677 146.942 28.5974C146.828 28.5234 146.778 28.3981 146.778 28.2729H146.696V28.1705H146.639V27.846H146.576C146.576 27.772 146.52 27.6981 146.438 27.6696L146.52 27.4704L146.381 27.3964V26.9467C146.299 26.924 146.268 26.8728 146.243 26.8215C146.243 26.6963 146.299 26.5939 146.381 26.4686C146.381 26.4174 146.381 26.3946 146.356 26.3662C146.331 26.3662 146.299 26.3662 146.274 26.3662V24.9376H146.331V24.8351H146.388V24.0838H146.444V23.9814H146.526V23.5032H146.576V23.4008H146.633V23.0422C146.658 23.0194 146.715 22.991 146.772 22.991V22.6893L146.885 22.6153V22.2624H146.91C146.935 22.2397 146.992 22.2112 147.024 22.2112C147.049 22.1088 147.049 22.0348 147.08 21.9608C147.08 21.9096 147.137 21.8356 147.275 21.7616V21.5339L147.496 21.3347V21.1867L147.634 21.1355V20.9363C147.773 20.8111 147.911 20.7086 148.05 20.6118C148.05 20.5378 148.075 20.4639 148.107 20.3842H148.163C148.22 20.2817 148.277 20.2362 148.358 20.2362V20.185H148.522L148.799 19.8833H148.913L149.076 19.6556H149.272C149.272 19.5816 149.328 19.5304 149.435 19.4564C149.549 19.4052 149.631 19.3312 149.656 19.206C149.819 19.206 149.908 19.1832 149.908 19.1035H150.021C150.021 19.0011 150.134 18.9271 150.323 18.9043L150.38 18.8019H150.518C150.518 18.7279 150.575 18.6994 150.682 18.6767C150.764 18.6539 150.821 18.6254 150.846 18.6027C150.846 18.5799 150.846 18.5799 150.871 18.5514H151.123L151.261 18.3238C151.343 18.3238 151.513 18.1985 151.759 17.9197H151.954L152.011 17.7944H153.346V17.8684H153.459V17.9197H153.85V18.0221H154.133L154.19 18.0961H154.58L154.719 18.3238H154.882L154.939 18.4262H155.134V18.5002C155.216 18.5002 155.247 18.5002 155.273 18.523C155.298 18.5457 155.329 18.5742 155.411 18.597C155.493 18.6197 155.55 18.6482 155.606 18.7222C155.663 18.7962 155.72 18.8702 155.77 18.9499H155.991C156.016 19.0751 156.072 19.1491 156.104 19.2003H156.268C156.293 19.2231 156.324 19.2515 156.324 19.3255C156.406 19.3255 156.463 19.3995 156.463 19.5247H156.715C156.771 19.5987 156.853 19.6727 156.935 19.7524C157.017 19.8264 157.099 19.9516 157.156 20.0768H157.319C157.344 20.1508 157.433 20.2533 157.514 20.3785H157.571V20.5265L157.823 20.7029L157.987 21.181C158.069 21.2038 158.1 21.255 158.1 21.329H158.157V21.5282L158.295 21.551V21.7502C158.352 21.773 158.377 21.8242 158.409 21.8982H158.465V22.0006H158.522V22.3023L158.635 22.3535V22.5015H158.692V22.6779H158.749V22.8544H158.805V23.1276L158.919 23.1788V23.6057H159.032C159.057 24.0838 159.089 24.5334 159.089 25.0116H159.032V25.5124H158.919L158.944 25.6149C158.944 25.6889 158.944 25.7629 158.919 25.8425H158.862V26.0418H158.805V26.1442H158.749V26.5711C158.723 26.5939 158.692 26.6223 158.635 26.6223V26.9012H158.579V27.0264H158.522V27.2769C158.497 27.2996 158.44 27.3281 158.409 27.3281V27.5785C158.327 27.6013 158.295 27.6525 158.295 27.7265H158.213V27.8517H158.157V28.1249L158.043 28.1762V28.3241H157.987V28.4266H157.93C157.93 28.5006 157.905 28.529 157.817 28.5518C157.817 28.677 157.792 28.751 157.735 28.751V28.8535L157.571 28.9559C157.571 29.0299 157.546 29.0811 157.489 29.1039C157.433 29.1551 157.407 29.2064 157.407 29.2804H157.269C157.244 29.3031 157.244 29.3031 157.244 29.3031C157.244 29.3259 157.244 29.3543 157.218 29.3771C157.193 29.3999 157.162 29.4511 157.162 29.5023H157.048V29.5536L156.885 29.6048C156.86 29.6788 156.803 29.7812 156.69 29.878C156.608 29.9008 156.576 29.952 156.576 29.9804C156.551 30.0032 156.519 30.0317 156.494 30.0317C156.469 30.0544 156.412 30.0829 156.331 30.1057C156.274 30.2081 156.192 30.3049 156.054 30.4301C155.972 30.4301 155.915 30.4813 155.89 30.5553H155.77L155.575 30.7545H155.411V30.8057C155.298 30.8285 155.247 30.857 155.216 30.8797C155.191 30.9025 155.077 30.931 154.882 30.931V31.005L154.63 31.0789V31.1302H154.549V31.1814H154.297V31.2326H154.183V31.2838H153.686L153.629 31.3863H152.13V31.4034ZM152.855 29.5706H153.547V29.5194H153.661V29.4966H153.856V29.4454H153.938V29.3942L154.215 29.343V29.2917H154.467C154.467 29.2177 154.492 29.1893 154.523 29.1665H154.687L154.744 29.0641C154.857 29.0641 154.939 29.0413 154.996 28.9901C155.052 28.9389 155.134 28.8876 155.247 28.8649C155.304 28.7396 155.361 28.6372 155.468 28.5632C155.493 28.5404 155.525 28.512 155.581 28.4892C155.638 28.4892 155.663 28.438 155.663 28.364C155.72 28.2615 155.827 28.1648 155.997 28.0623V27.7379H156.11L156.192 27.5387H156.249V27.2882H156.305V27.1858H156.387C156.387 27.1118 156.444 27.0606 156.501 27.0378V26.8614L156.614 26.8101V26.5312H156.671V26.4288H156.727V26.0531C156.784 26.0531 156.809 26.0304 156.841 26.0019V25.6263C156.897 25.6263 156.923 25.6263 156.954 25.6263C156.954 25.6035 156.979 25.6035 157.011 25.575V23.7935L156.847 23.7423V23.3382L156.734 23.287V23.0422L156.62 22.991V22.7178L156.507 22.6666V22.4901L156.394 22.4389V22.2909L156.255 22.2169V22.0689L156.173 22.0177V21.8697L155.978 21.7217L155.953 21.5225C155.896 21.5225 155.871 21.4998 155.839 21.4713C155.783 21.4201 155.758 21.3973 155.726 21.3973C155.613 21.2949 155.531 21.1981 155.474 21.0444C155.31 20.9932 155.14 20.868 155.002 20.6688C155.002 20.646 154.889 20.6175 154.725 20.5948C154.668 20.572 154.611 20.5208 154.586 20.4468C154.504 20.4468 154.423 20.3956 154.391 20.3443C154.309 20.3443 154.253 20.2931 154.227 20.2419H154.064C154.064 20.1907 154.064 20.1679 154.007 20.1394C153.868 20.0882 153.787 20.0654 153.787 20.037L153.566 19.9858V19.9345H153.402L153.346 19.8093H152.483V19.8605H152.37V19.9345H152.206V19.9858H152.093V20.037H151.954L151.929 20.1394H151.734C151.709 20.1907 151.652 20.2419 151.595 20.2419V20.2931C151.513 20.2931 151.457 20.3159 151.431 20.3956L151.18 20.4468L151.123 20.5492H150.959V20.6005H150.846C150.821 20.6745 150.764 20.7029 150.682 20.7029L150.518 20.9021H150.405V20.9533C150.323 20.9533 150.267 20.9761 150.241 21.0558H150.185C150.159 21.1298 150.128 21.181 150.128 21.2322H150.071V21.3347C149.989 21.3575 149.933 21.3859 149.933 21.4371C149.908 21.4884 149.908 21.5111 149.876 21.5111C149.851 21.5339 149.819 21.5624 149.819 21.6136C149.794 21.6648 149.738 21.6876 149.656 21.6876C149.656 21.9152 149.599 22.012 149.492 22.012L149.41 22.0348V22.234L149.272 22.308V22.5072H149.215C149.19 22.5812 149.158 22.6324 149.158 22.6836C149.158 22.7064 149.102 22.7349 148.994 22.7349V23.1105H148.881V23.4862H148.824V23.5602H148.768C148.743 23.7081 148.711 23.8106 148.711 23.9131H148.629V24.4879H148.573V24.7384H148.516V25.3644L148.403 25.4157C148.459 25.5181 148.459 25.6149 148.459 25.6946C148.434 25.6946 148.403 25.7173 148.403 25.7686C148.484 26.0418 148.516 26.4231 148.516 26.8728H148.573V27.1516H148.629V27.4021L148.768 27.4533V27.6525H148.824V27.755H148.881V28.0794H148.994V28.2274C149.076 28.2274 149.158 28.2786 149.215 28.3754V28.4778L149.712 28.8819L149.769 28.9844L150.021 29.0356C150.021 29.1381 150.134 29.1836 150.298 29.1836V29.2576L150.632 29.36V29.4113H150.852V29.4625H150.965V29.5137H151.494L151.551 29.5877H151.998C152.332 29.6389 152.609 29.6389 152.886 29.6389V29.5706H152.855Z" fill="white" stroke="white" stroke-miterlimit="10" stroke-linecap="round" stroke-linejoin="round"/>
<path d="M164.101 32.1317L163.767 31.7788H163.572L163.295 31.4771H163.238V30.6974C163.32 30.6746 163.352 30.6234 163.352 30.5721C163.352 30.5209 163.352 30.4981 163.408 30.4697C163.433 30.4697 163.465 30.4469 163.465 30.4469C163.465 30.4242 163.49 30.4242 163.49 30.4242C163.515 30.4242 163.547 30.4242 163.572 30.4014C163.597 30.3274 163.629 30.2534 163.654 30.2249C163.711 30.2022 163.736 30.1509 163.767 30.0485C164.019 29.9973 164.126 29.9005 164.158 29.7468C164.24 29.7241 164.321 29.6956 164.46 29.6956H165.014C165.071 29.7696 165.127 29.7981 165.178 29.7981C165.234 29.7981 165.26 29.8208 165.316 29.8721C165.43 30.0713 165.619 30.1965 165.87 30.2989V30.6518L166.009 30.703V31.0787C165.896 31.1299 165.845 31.2039 165.814 31.3064C165.789 31.4088 165.732 31.4828 165.593 31.5568L165.203 31.9609L164.951 32.0349L164.869 32.1374H164.101V32.1317ZM165.656 28.0905C165.6 28.0165 165.436 27.9653 165.159 27.9653C165.159 27.9426 165.134 27.8913 165.102 27.8913C165.077 27.8686 165.046 27.8401 165.02 27.7889C164.995 27.7661 164.907 27.7377 164.743 27.7377C164.718 27.5384 164.687 27.2595 164.687 26.9067V26.2521H164.743C164.8 26.1269 164.825 26.0244 164.825 25.8765H164.882V25.774C164.938 25.774 164.938 25.7512 164.938 25.7L164.882 25.5008H164.938V25.3983H165.02V25.2219H165.077C165.102 25.1991 165.134 24.9487 165.159 24.5218H165.241L165.266 23.8957C165.266 23.8445 165.291 23.8217 165.348 23.7933V23.5656H165.404V23.3664H165.486V22.8655H165.543V22.7175H165.6V22.2679L165.738 22.2167V21.5621H165.795C165.82 21.5394 165.877 21.2377 165.959 20.6344H166.015V20.4067H166.072V20.2303H166.129L166.072 19.9798H166.129C166.154 19.9058 166.185 19.8546 166.267 19.8034C166.267 19.7806 166.242 19.7521 166.211 19.7521C166.211 19.6782 166.236 19.6269 166.267 19.5757C166.267 19.5245 166.242 19.4505 166.211 19.3765H166.267V19.2C166.292 19.2 166.324 19.1773 166.324 19.1488H166.267C166.267 19.1261 166.292 19.0976 166.324 19.0976C166.324 18.9212 166.349 18.8472 166.349 18.8472C166.374 18.8472 166.406 18.8244 166.406 18.7959H166.324V18.7219H166.406V18.3747H166.462V18.2268H166.519V17.7259H166.632V17.6234H166.689C166.632 17.5494 166.632 17.4755 166.632 17.4242H166.689V17.1966H166.746V16.9689H166.802V16.5932H166.884V16.468H166.941V15.8647H166.998V15.7622H167.054V15.4378L167.25 15.3354V14.6296H167.331V14.3336H167.413V13.958H167.47V13.8555H167.527V13.5026H167.608V13.4002H167.665V12.8993L167.797 12.8538V12.5521L168.188 12.2504C168.188 12.1252 168.213 12.0512 168.27 12H168.855L168.88 12.0512C169.296 12.4553 169.548 12.6773 169.655 12.757V14.641C169.542 14.715 169.491 14.7662 169.46 14.789L169.435 15.3411H169.353V15.7679L169.239 15.8192C169.265 16.0184 169.296 16.2233 169.296 16.4225H169.239L169.183 16.6501H169.101C169.126 16.8266 169.126 16.9746 169.183 17.1283H169.101V17.4299L168.988 17.5039V17.6804L168.849 17.7316V18.5113L168.906 18.5626C168.906 18.6138 168.906 18.6366 168.849 18.6366C168.792 18.7846 168.736 18.887 168.685 18.887V19.4391H168.629V19.6383H168.572V20.1904L168.433 20.2416V20.845H168.377V21.0214H168.32V21.4255H168.263V21.5735H168.181V22.0231L168.043 22.0744C168.043 22.5752 167.986 22.8257 167.904 22.8769V23.4802L167.797 23.4973V23.9754H167.716V24.1006H167.659V24.5275L167.52 24.5787V24.8064H167.464V24.9544H167.407V25.6089H167.325V25.7114H167.243V25.9391C167.218 25.9618 167.187 25.9618 167.161 26.0131H167.048C167.048 26.2407 167.048 26.3887 166.991 26.4912H166.935V26.6676L166.796 26.7188V27.0831C166.714 27.0831 166.683 27.1059 166.683 27.1343L166.519 27.4872H166.462C166.406 27.6352 166.299 27.7377 166.129 27.7377L165.795 28.0905H165.656V28.0905Z" fill="white" stroke="white" stroke-miterlimit="10" stroke-linecap="round" stroke-linejoin="round"/>
</svg>
