<svg width="215" height="28" viewBox="0 0 215 28" fill="none" xmlns="http://www.w3.org/2000/svg">
<path d="M9.6383 7.39629C9.6383 7.73489 9.64873 8.01619 9.66437 8.2454C9.68524 8.4694 9.82605 8.67777 10.0868 8.86531L15.4274 12.6473C15.6152 12.7983 15.7039 12.939 15.6934 13.0692C15.683 13.1994 15.6048 13.3609 15.4535 13.5485L14.1549 15.1008C14.0036 15.2884 13.8524 15.3821 13.7011 15.3821C13.5499 15.3821 13.3726 15.3092 13.1639 15.1581L7.88069 11.4022L2.68611 15.5228C2.4775 15.6739 2.3106 15.7468 2.175 15.7364C2.04461 15.726 1.88294 15.627 1.69518 15.4394L0.255718 14.0017C-0.0832861 13.6631 -0.0832861 13.3505 0.255718 13.0692L5.62241 8.83405C5.86753 8.62568 6.00313 8.41731 6.03443 8.19852C6.06572 7.97973 6.07615 7.70363 6.07615 7.36503V2.22866C6.07615 1.94736 6.13352 1.7494 6.24826 1.6348C6.363 1.52019 6.5664 1.46289 6.8689 1.46289H8.84555C9.14804 1.46289 9.35666 1.52019 9.46619 1.6348C9.57571 1.7494 9.6383 1.94736 9.6383 2.22866V7.39629ZM13.2265 27.9991C11.9852 27.9991 10.9056 27.8428 9.99295 27.5354C9.08024 27.2229 8.31879 26.8114 7.71901 26.2956C7.11402 25.7799 6.67071 25.1808 6.37865 24.5036C6.08658 23.8264 5.94055 23.118 5.94055 22.3887C5.94055 21.6541 6.08658 20.9509 6.37865 20.2737C6.67071 19.5965 7.11924 18.9974 7.71901 18.4817C8.32401 17.966 9.08024 17.5492 9.99295 17.2419C10.9056 16.9293 11.9852 16.7782 13.2265 16.7782C14.4678 16.7782 15.5474 16.9345 16.4601 17.2419C17.3728 17.5544 18.1343 17.966 18.734 18.4817C19.339 18.9974 19.7823 19.5965 20.0744 20.2737C20.3665 20.9509 20.5125 21.6541 20.5125 22.3887C20.5125 23.1232 20.3665 23.8264 20.0744 24.5036C19.7823 25.1808 19.3338 25.7799 18.734 26.2956C18.129 26.8114 17.3728 27.2281 16.4601 27.5354C15.5474 27.8428 14.4678 27.9991 13.2265 27.9991ZM13.2265 24.9204C14.4678 24.9204 15.3857 24.6807 15.9803 24.2015C16.5748 23.7222 16.8721 23.1128 16.8721 22.3834C16.8721 21.6489 16.5748 21.0447 15.9803 20.5602C15.3857 20.0809 14.4678 19.8413 13.2265 19.8413C11.9852 19.8413 11.0621 20.0809 10.4728 20.5602C9.87821 21.0394 9.58093 21.6489 9.58093 22.3834C9.58093 23.118 9.87821 23.7222 10.4728 24.2015C11.0621 24.6807 11.98 24.9204 13.2265 24.9204ZM18.5098 5.75536V2.50996C18.5098 2.22866 18.5671 2.0307 18.6819 1.9161C18.7966 1.8015 19 1.74419 19.3025 1.74419H21.2792C21.5817 1.74419 21.7903 1.8015 21.8998 1.9161C22.0093 2.0307 22.0719 2.22866 22.0719 2.50996V14.7049C22.0719 14.9862 22.0145 15.1842 21.8998 15.2988C21.7851 15.4134 21.5817 15.4707 21.2792 15.4707H19.3025C19 15.4707 18.7914 15.4134 18.6819 15.2988C18.5723 15.1842 18.5098 14.9862 18.5098 14.7049V9.03201L14.2696 9.11536C14.0036 9.11536 13.8211 9.06847 13.7168 8.9747C13.6125 8.88094 13.5603 8.68298 13.5603 8.38084V6.57322C13.5603 6.27108 13.6125 6.07312 13.7168 5.97936C13.8211 5.88559 14.0036 5.8387 14.2696 5.8387L18.5098 5.75536Z" fill="#333333"/>
<path d="M26.4476 15.2675C26.1451 15.2884 25.9365 15.2363 25.827 15.1113C25.7123 14.9914 25.6549 14.7883 25.6549 14.5018L25.4619 2.50996C25.4619 2.22866 25.5193 2.0307 25.634 1.9161C25.7488 1.8015 25.9522 1.74419 26.2547 1.74419H28.2313C28.5338 1.74419 28.7424 1.8015 28.852 1.9161C28.9615 2.0307 29.0241 2.22866 29.0241 2.50996L29.0501 5.3334L35.6894 5.19275L35.8041 2.22866C35.8198 1.94736 35.8824 1.7494 35.9867 1.6348C36.091 1.52019 36.2944 1.46289 36.5969 1.46289H38.5735C38.876 1.46289 39.0846 1.52019 39.2098 1.6348C39.3298 1.7494 39.3819 1.94736 39.3663 2.22866L39.3089 4.00503L43.5178 3.89043V2.50996C43.5178 2.22866 43.5751 2.0307 43.6899 1.9161C43.8046 1.8015 44.008 1.74419 44.3105 1.74419H46.2872C46.5897 1.74419 46.7983 1.8015 46.9078 1.9161C47.0173 2.0307 47.0799 2.22866 47.0799 2.50996V14.1371C47.0799 14.4184 47.0226 14.6164 46.9078 14.731C46.7931 14.8456 46.5897 14.9029 46.2872 14.9029H44.3105C44.008 14.9029 43.7994 14.8456 43.6899 14.731C43.5804 14.6164 43.5178 14.4184 43.5178 14.1371V12.6994L38.996 12.814L38.9699 14.2257C38.949 14.507 38.8917 14.6997 38.7874 14.8039C38.6831 14.9081 38.4797 14.9706 38.1824 14.9862L26.4476 15.2675ZM29.1649 11.9388L35.4964 11.7669L35.6112 8.46419L29.1127 8.60484L29.1649 11.9388ZM33.937 23.4566L33.9631 24.4984L44.8425 24.2744C45.1085 24.2744 45.291 24.3213 45.3953 24.4151C45.4996 24.5088 45.5518 24.7068 45.5518 25.0089V26.4207C45.5518 26.7228 45.4996 26.9208 45.3953 27.0145C45.291 27.1083 45.1085 27.1552 44.8425 27.1552L31.1937 27.4365C30.9277 27.4365 30.7504 27.3896 30.6565 27.2958C30.5626 27.2021 30.5052 27.0041 30.4844 26.702L30.3123 21.8208C30.2914 21.5187 30.3384 21.326 30.4531 21.2426C30.5678 21.1593 30.7556 21.1072 31.0164 21.0863L42.5164 20.4664L42.5738 19.3933L30.4531 19.6173C30.1871 19.6173 30.0046 19.5704 29.9003 19.4767C29.7959 19.3829 29.7438 19.1849 29.7438 18.8828V17.4711C29.7438 17.1689 29.7959 16.971 29.9003 16.8772C30.0046 16.7834 30.1871 16.7366 30.4531 16.7366L45.5153 16.4553C45.7813 16.4553 45.969 16.5021 46.0786 16.5959C46.1881 16.6897 46.2402 16.8876 46.2194 17.1898L45.9638 22.1594C45.943 22.4616 45.8908 22.6543 45.7917 22.7377C45.6978 22.821 45.5205 22.8731 45.2545 22.894L33.937 23.4566ZM39.1107 9.53731L43.5178 9.4227V7.16708L39.1942 7.28168L39.1107 9.53731Z" fill="#333333"/>
<path d="M68.8959 12.1383C69.1618 12.1383 69.3444 12.1852 69.4487 12.279C69.553 12.3727 69.6052 12.5707 69.6052 12.8728V14.4825C69.6052 14.8003 69.553 15.0139 69.4487 15.118C69.3444 15.2222 69.1723 15.2743 68.9271 15.2743L51.4085 15.5556C51.1634 15.5556 50.9912 15.5035 50.8869 15.3993C50.7826 15.2952 50.7305 15.0868 50.7305 14.7638V13.1541C50.7305 12.852 50.7826 12.654 50.8869 12.5603C50.9912 12.4665 51.1738 12.4196 51.4398 12.4196L68.8959 12.1383ZM52.7854 27.438C52.5402 27.438 52.3733 27.386 52.2742 27.2818C52.1804 27.1776 52.123 26.964 52.1021 26.6462L51.93 21.9058C51.9092 21.6036 51.9561 21.4109 52.0708 21.3275C52.1856 21.2442 52.3733 21.1921 52.6341 21.1713L65.2398 20.6087L65.2972 19.6501L52.05 19.8689C51.8049 19.8689 51.6327 19.8168 51.5284 19.7127C51.4241 19.6085 51.372 19.4001 51.372 19.0771V17.6967C51.372 17.3945 51.4241 17.1966 51.5284 17.1028C51.6327 17.009 51.8153 16.9621 52.0813 16.9621L68.2752 16.6808C68.5412 16.6808 68.729 16.7277 68.8385 16.8215C68.948 16.9153 69.0002 17.1132 68.9793 17.4153L68.7237 22.1871C68.7029 22.5048 68.6455 22.7132 68.5516 22.807C68.4578 22.9007 68.2856 22.958 68.0405 22.9789L55.5495 23.5415L55.5756 24.474L67.5868 24.25C67.8528 24.25 68.0353 24.2968 68.1396 24.3906C68.2439 24.4844 68.2961 24.6823 68.2961 24.9845V26.3701C68.2961 26.6879 68.2439 26.9015 68.1396 27.0057C68.0353 27.1099 67.8632 27.162 67.6181 27.162L52.7854 27.438ZM60.16 11.1798C59.0491 11.1798 58.0164 11.0652 57.0672 10.8256C56.118 10.5912 55.2888 10.2421 54.5795 9.78372C53.8754 9.3253 53.3173 8.74186 52.9105 8.04902C52.5037 7.35098 52.3003 6.53311 52.3003 5.59544C52.3003 4.67339 52.5037 3.86074 52.9105 3.15228C53.3173 2.44902 53.8702 1.86558 54.5795 1.40195C55.2836 0.943534 56.1128 0.594511 57.0672 0.360092C58.0164 0.125673 59.0491 0.00585938 60.16 0.00585938C61.2709 0.00585938 62.3087 0.125673 63.2684 0.360092C64.228 0.594511 65.0625 0.943534 65.7666 1.40195C66.4707 1.86558 67.0235 2.44381 67.4199 3.15228C67.8163 3.85553 68.0144 4.67339 68.0144 5.59544C68.0144 6.53832 67.8163 7.35618 67.4199 8.04902C67.0235 8.74707 66.4759 9.3253 65.7666 9.78372C65.0625 10.2473 64.228 10.5912 63.2684 10.8256C62.3087 11.06 61.2709 11.1798 60.16 11.1798ZM60.16 8.18446C61.4951 8.18446 62.5069 7.95525 63.1849 7.49163C63.863 7.03321 64.202 6.39767 64.202 5.58502C64.202 4.77237 63.863 4.14205 63.1849 3.67842C62.5069 3.22 61.5004 2.98558 60.16 2.98558C58.8248 2.98558 57.813 3.21479 57.135 3.67842C56.457 4.14205 56.118 4.77758 56.118 5.58502C56.118 6.39246 56.457 7.028 57.135 7.49163C57.813 7.95525 58.8248 8.18446 60.16 8.18446Z" fill="#333333"/>
<path d="M90.3159 8.80801C90.3159 9.14661 90.3263 9.42791 90.342 9.65712C90.3628 9.88112 90.5036 10.0895 90.7644 10.277L96.105 14.059C96.2928 14.2101 96.3814 14.3507 96.371 14.4809C96.3606 14.6112 96.2823 14.7727 96.1311 14.9602L94.8324 16.5126C94.6812 16.7001 94.53 16.7939 94.3787 16.7939C94.2275 16.7939 94.0501 16.7209 93.8415 16.5699L88.5583 12.814L83.3585 16.9345C83.1499 17.0856 82.983 17.1533 82.8474 17.1481C82.717 17.1377 82.5553 17.0387 82.3675 16.8512L80.9281 15.4134C80.5891 15.0748 80.5891 14.7622 80.9281 14.4809L86.2948 10.2458C86.5399 10.0374 86.6755 9.82903 86.7068 9.61024C86.7381 9.39145 86.7485 9.11536 86.7485 8.77675V2.22866C86.7485 1.94736 86.8059 1.7494 86.9206 1.6348C87.0354 1.52019 87.2388 1.46289 87.5413 1.46289H89.5179C89.8204 1.46289 90.029 1.52019 90.1386 1.6348C90.2481 1.7494 90.3107 1.94736 90.3107 2.22866V8.80801H90.3159ZM86.3834 27.4365C86.0809 27.4365 85.8723 27.3792 85.7628 27.2646C85.6481 27.15 85.5959 26.952 85.5959 26.6707V18.8828C85.5959 18.6015 85.6533 18.4035 85.7628 18.2889C85.8775 18.1743 86.0809 18.117 86.3834 18.117H88.3601C88.6626 18.117 88.8712 18.1743 88.9807 18.2889C89.0955 18.4035 89.1476 18.6015 89.1476 18.8828V24.1025L101.44 23.8785C101.706 23.8785 101.889 23.9254 101.993 24.0192C102.098 24.1129 102.15 24.3109 102.15 24.613V26.4207C102.15 26.7228 102.103 26.9208 102.009 27.0145C101.915 27.1083 101.738 27.1552 101.472 27.1552L86.3834 27.4365ZM99.1873 6.46382V2.50996C99.1873 2.22866 99.2447 2.0307 99.3594 1.9161C99.4742 1.8015 99.6776 1.74419 99.9801 1.74419H101.957C102.259 1.74419 102.468 1.8015 102.577 1.9161C102.687 2.0307 102.749 2.22866 102.749 2.50996V17.2419C102.749 17.5232 102.692 17.7211 102.577 17.8357C102.463 17.9503 102.259 18.0076 101.957 18.0076H99.9801C99.6776 18.0076 99.469 17.9503 99.3594 17.8357C99.2499 17.7211 99.1873 17.5232 99.1873 17.2419V9.73526L94.9472 9.81861C94.6812 9.81861 94.4987 9.77173 94.3944 9.67796C94.29 9.58419 94.2379 9.38624 94.2379 9.0841V7.27647C94.2379 6.97433 94.29 6.77638 94.3944 6.68261C94.4987 6.58884 94.6812 6.54196 94.9472 6.54196L99.1873 6.46382Z" fill="#333333"/>
<path d="M117.666 14.7895C117.666 15.0708 117.608 15.2635 117.494 15.3677C117.379 15.4719 117.175 15.5344 116.873 15.5501L107.125 15.8366C106.823 15.8574 106.614 15.8053 106.505 15.6803C106.39 15.5605 106.332 15.3573 106.332 15.0708L106.134 2.51117C106.134 2.22987 106.192 2.03712 106.306 1.93294C106.421 1.82875 106.625 1.76624 106.927 1.75061L117.269 1.46931C117.572 1.44847 117.78 1.50056 117.89 1.62559C118.005 1.75061 118.062 1.94856 118.062 2.23508V3.9854C118.062 4.2667 118.005 4.45945 117.89 4.56363C117.775 4.66782 117.572 4.73033 117.269 4.74596L109.723 4.96996L109.749 7.08494L116.868 6.88698C117.17 6.86615 117.379 6.91824 117.488 7.04326C117.603 7.16829 117.66 7.36624 117.66 7.65275V9.40308C117.66 9.68438 117.603 9.87712 117.488 9.98131C117.374 10.0855 117.17 10.148 116.868 10.1636L109.801 10.3616L109.827 12.4766L116.862 12.2786C117.165 12.2578 117.374 12.3099 117.483 12.4349C117.598 12.5599 117.655 12.7579 117.655 13.0444V14.7895H117.666ZM125.155 27.4377C124.852 27.4377 124.644 27.3804 124.519 27.2658C124.394 27.1512 124.347 26.9532 124.362 26.6719L124.534 20.577L112.497 20.801C112.231 20.801 112.049 20.7541 111.944 20.6604C111.84 20.5666 111.788 20.3687 111.788 20.0665V18.2589C111.788 17.9568 111.84 17.7588 111.944 17.665C112.049 17.5713 112.231 17.5244 112.497 17.5244L127.476 17.2431C127.742 17.2431 127.93 17.29 128.039 17.3837C128.154 17.4775 128.201 17.6754 128.18 17.9776L127.924 26.6719C127.904 26.9532 127.846 27.1512 127.742 27.2658C127.638 27.3804 127.434 27.4377 127.137 27.4377H125.155ZM127.048 10.1636L124.164 10.2209V14.7061C124.164 14.9874 124.107 15.1854 123.992 15.3C123.877 15.4146 123.674 15.4719 123.371 15.4719H121.395C121.092 15.4719 120.884 15.4146 120.774 15.3C120.665 15.1854 120.602 14.9874 120.602 14.7061V2.79247C120.602 2.51117 120.659 2.31322 120.774 2.19861C120.889 2.08401 121.092 2.0267 121.395 2.0267H123.371C123.674 2.0267 123.882 2.08401 123.992 2.19861C124.107 2.31322 124.164 2.51117 124.164 2.79247V6.93908L127.048 6.88177V2.50596C127.048 2.22466 127.106 2.0267 127.215 1.9121C127.33 1.79749 127.533 1.74019 127.836 1.74019H129.812C130.115 1.74019 130.323 1.79749 130.433 1.9121C130.548 2.0267 130.6 2.22466 130.6 2.50596V14.4196C130.6 14.7009 130.543 14.8989 130.433 15.0135C130.318 15.1281 130.115 15.1854 129.812 15.1854H127.836C127.533 15.1854 127.325 15.1281 127.215 15.0135C127.1 14.8989 127.048 14.7009 127.048 14.4196V10.1636Z" fill="#333333"/>
<path d="M138.892 2.65214V0.990377C138.892 0.709074 138.95 0.511121 139.065 0.396516C139.179 0.281912 139.383 0.224609 139.685 0.224609H141.662C141.964 0.224609 142.173 0.281912 142.282 0.396516C142.397 0.511121 142.449 0.709074 142.449 0.990377V2.5688L147.451 2.45419C147.717 2.45419 147.9 2.50107 148.004 2.59484C148.108 2.68861 148.16 2.88656 148.16 3.1887V4.93903C148.16 5.262 148.108 5.47038 148.004 5.57456C147.9 5.67875 147.727 5.73084 147.482 5.73084L133.807 6.01214C133.562 6.01214 133.39 5.96005 133.286 5.85586C133.182 5.75168 133.129 5.54331 133.129 5.22033V3.47C133.129 3.16787 133.182 2.96991 133.286 2.87614C133.39 2.78238 133.573 2.73549 133.839 2.73549L138.892 2.65214ZM140.953 21.2285C139.842 21.2285 138.846 21.067 137.969 20.7493C137.093 20.4315 136.342 19.9731 135.721 19.3792C135.101 18.7854 134.626 18.0769 134.292 17.2486C133.964 16.4203 133.797 15.4983 133.797 14.4825C133.797 13.4667 133.964 12.5446 134.292 11.7163C134.621 10.8881 135.096 10.1796 135.721 9.58573C136.342 8.99186 137.093 8.53345 137.969 8.20526C138.846 7.87707 139.836 7.71038 140.953 7.71038C142.043 7.71038 143.034 7.87707 143.92 8.20526C144.807 8.53345 145.558 8.99707 146.178 9.58573C146.799 10.1744 147.274 10.8881 147.607 11.7163C147.936 12.5446 148.103 13.4667 148.103 14.4825C148.103 15.4983 147.936 16.4203 147.607 17.2486C147.279 18.0769 146.804 18.7854 146.178 19.3792C145.553 19.9731 144.802 20.4263 143.92 20.7493C143.034 21.067 142.048 21.2285 140.953 21.2285ZM140.953 18.0092C142.1 18.0092 143.002 17.681 143.649 17.0194C144.301 16.363 144.624 15.5139 144.624 14.4773C144.624 13.425 144.301 12.5654 143.649 11.9091C142.997 11.2527 142.1 10.9193 140.953 10.9193C139.805 10.9193 138.903 11.2475 138.256 11.9091C137.609 12.5707 137.281 13.425 137.281 14.4773C137.281 15.5139 137.599 16.3578 138.241 17.0194C138.882 17.681 139.784 18.0092 140.953 18.0092ZM154.179 13.7167V21.1973C154.179 21.4786 154.122 21.6765 154.007 21.7911C153.892 21.9057 153.689 21.963 153.386 21.963H151.41C151.107 21.963 150.898 21.9057 150.789 21.7911C150.679 21.6765 150.622 21.4786 150.622 21.1973V3.07931C150.622 2.798 150.679 2.60005 150.789 2.48545C150.898 2.37084 151.107 2.31875 151.41 2.31875H153.386C153.689 2.31875 153.897 2.37605 154.007 2.48545C154.122 2.60005 154.179 2.798 154.179 3.07931V10.4453L156.296 10.3619C156.562 10.3411 156.745 10.388 156.849 10.4869C156.954 10.5911 157.006 10.7943 157.006 11.0964V12.9041C157.006 13.2062 156.954 13.3989 156.849 13.4823C156.745 13.5656 156.562 13.6177 156.296 13.6386L154.179 13.7167Z" fill="#333333"/>
<path d="M167.739 11.7147C167.739 12.0533 167.77 12.319 167.838 12.5066C167.906 12.6941 168.02 12.9181 168.193 13.1838L172.401 20.2111C172.626 20.5706 172.574 20.8623 172.229 21.0863L170.451 22.274C170.091 22.498 169.799 22.4355 169.575 22.076L165.955 16.1791L162.252 22.4459C162.137 22.6543 162.023 22.7741 161.898 22.8106C161.772 22.847 161.6 22.7897 161.376 22.6387L159.598 21.4509C159.279 21.2426 159.222 20.9613 159.431 20.6018L163.728 13.1786C163.879 12.9181 163.994 12.6889 164.067 12.5013C164.14 12.3138 164.182 12.0481 164.182 11.7095V2.50991C164.182 2.22861 164.239 2.03065 164.354 1.91605C164.469 1.80144 164.672 1.74414 164.975 1.74414H166.951C167.254 1.74414 167.462 1.80144 167.572 1.91605C167.681 2.03065 167.739 2.22861 167.739 2.50991V11.7147V11.7147ZM174.582 9.51121V3.07772C174.582 2.79642 174.639 2.59847 174.754 2.48386C174.868 2.36926 175.072 2.31716 175.374 2.31716H177.351C177.653 2.31716 177.862 2.37447 177.972 2.48386C178.081 2.59326 178.144 2.79642 178.144 3.07772V21.2009C178.144 21.4822 178.086 21.6801 177.972 21.7947C177.857 21.9094 177.653 21.9667 177.351 21.9667H175.374C175.072 21.9667 174.863 21.9094 174.754 21.7947C174.644 21.6801 174.582 21.4822 174.582 21.2009V12.7827L170.962 12.8973C170.696 12.8973 170.513 12.8504 170.409 12.7566C170.305 12.6628 170.253 12.4649 170.253 12.1627V10.3551C170.253 10.053 170.305 9.85502 170.409 9.76126C170.513 9.66749 170.696 9.62061 170.962 9.62061L174.582 9.51121ZM180.741 2.79121C180.741 2.50991 180.798 2.31195 180.908 2.19735C181.023 2.08275 181.226 2.02544 181.528 2.02544H183.505C183.808 2.02544 184.016 2.08275 184.126 2.19735C184.241 2.31195 184.293 2.50991 184.293 2.79121V20.9144C184.293 21.1957 184.235 21.3936 184.126 21.5082C184.011 21.6228 183.808 21.6801 183.505 21.6801H181.528C181.226 21.6801 181.017 21.6228 180.908 21.5082C180.793 21.3936 180.741 21.1957 180.741 20.9144V2.79121Z" fill="#333333"/>
<path d="M187.892 9.39668C187.892 8.1152 188.116 6.97957 188.57 5.97938C189.023 4.9844 189.66 4.13529 190.478 3.43724C191.297 2.7392 192.267 2.21306 193.389 1.85882C194.51 1.49938 195.741 1.32227 197.076 1.32227C198.411 1.32227 199.642 1.49938 200.763 1.85882C201.885 2.21827 202.855 2.74441 203.674 3.43724C204.492 4.13529 205.129 4.9792 205.582 5.97938C206.036 6.97957 206.26 8.1152 206.26 9.39668C206.26 10.9386 205.937 12.2774 205.285 13.4026C204.633 14.5331 203.747 15.4343 202.615 16.1115V19.9195L205.525 19.8622C205.791 19.8622 205.974 19.9091 206.078 20.0028C206.182 20.0966 206.234 20.2945 206.234 20.5967V22.347C206.234 22.6648 206.182 22.8784 206.078 22.9825C205.974 23.0867 205.801 23.1388 205.556 23.1388L188.601 23.4201C188.356 23.4201 188.184 23.368 188.079 23.2638C187.975 23.1597 187.923 22.9461 187.923 22.6283V20.878C187.923 20.5758 187.975 20.3779 188.079 20.2841C188.184 20.1904 188.366 20.1435 188.632 20.1435L191.542 20.1174V16.1115C190.411 15.4343 189.524 14.5331 188.872 13.4026C188.215 12.2774 187.892 10.9386 187.892 9.39668ZM197.076 14.1945C198.901 14.1945 200.299 13.7621 201.259 12.8973C202.218 12.0326 202.698 10.8657 202.698 9.39668C202.698 7.92766 202.218 6.76078 201.259 5.89603C200.299 5.03129 198.901 4.59892 197.076 4.59892C195.251 4.59892 193.853 5.03129 192.893 5.89603C191.934 6.76078 191.454 7.92766 191.454 9.39668C191.454 10.8657 191.934 12.0326 192.893 12.8973C193.853 13.7621 195.245 14.1945 197.076 14.1945ZM197.076 17.4711C196.716 17.4711 196.377 17.4555 196.059 17.4294C195.741 17.4034 195.417 17.3669 195.099 17.3305V20.0705L199.058 19.9872V17.3357C198.74 17.3721 198.411 17.4086 198.083 17.4346C197.749 17.4555 197.415 17.4711 197.076 17.4711Z" fill="#333333"/>
<path d="M211.742 23.9891C211.085 23.9891 210.537 23.7807 210.104 23.3692C209.671 22.9576 209.452 22.4367 209.452 21.8168C209.452 21.1969 209.666 20.6812 210.104 20.2644C210.537 19.8529 211.085 19.6445 211.742 19.6445C212.383 19.6445 212.92 19.8529 213.353 20.2644C213.786 20.676 214.005 21.1969 214.005 21.8168C214.005 22.4367 213.786 22.9576 213.353 23.3692C212.915 23.7859 212.378 23.9891 211.742 23.9891Z" fill="#333333"/>
</svg>
