<svg width="62" height="15" viewBox="0 0 62 15" fill="none" xmlns="http://www.w3.org/2000/svg">
<path d="M1.59775 0C1.77227 0 1.89263 0.0330984 1.95582 0.0992952C2.019 0.165492 2.05512 0.279832 2.05512 0.442315L2.13635 6.37596L7.54945 6.24657C7.72396 6.23454 7.84432 6.26463 7.90751 6.33684C7.97371 6.40906 8.00681 6.5234 8.00681 6.68889V7.69989C8.00681 7.86238 7.97371 7.97371 7.90751 8.03389C7.84131 8.09407 7.72396 8.13017 7.54945 8.1392L0.571698 8.30168C0.397179 8.31372 0.27683 8.28363 0.213642 8.21142C0.147445 8.14221 0.114341 8.02486 0.114341 7.85937L0 0.442315C0 0.279832 0.0331036 0.165492 0.0993004 0.0992952C0.165497 0.0330984 0.282847 0 0.457366 0H1.59775ZM3.11426 14.9996C2.93974 14.9996 2.82239 14.9665 2.76522 14.9003C2.70504 14.8341 2.66893 14.7198 2.65991 14.5573L2.51247 9.71589C2.50044 9.55341 2.53052 9.43906 2.60274 9.37287C2.67194 9.30667 2.79531 9.27357 2.96983 9.27357L10.9435 9.11109C11.1181 9.11109 11.2384 9.14419 11.3106 9.21039C11.3798 9.27658 11.4099 9.39092 11.4009 9.55341L11.2535 14.3948C11.2414 14.5573 11.2083 14.6716 11.1482 14.7378C11.088 14.804 10.9706 14.8341 10.7961 14.8341L3.11426 14.9996ZM4.66387 13.0739L9.22844 12.9746L9.29464 11.0338L4.60068 11.1331L4.66387 13.0739ZM9.76705 0.601789C9.76705 0.439306 9.80014 0.324966 9.86333 0.258769C9.92651 0.192573 10.0469 0.159474 10.2214 0.159474H11.3618C11.5363 0.159474 11.6567 0.192573 11.7199 0.258769C11.786 0.324966 11.8191 0.439306 11.8191 0.601789V3.1624L13.0408 3.11426C13.1942 3.10222 13.2995 3.1293 13.3597 3.18647C13.4199 3.24665 13.45 3.364 13.45 3.53852V4.54953C13.45 4.73307 13.4199 4.85343 13.3597 4.90759C13.2995 4.96175 13.2002 4.99485 13.0588 5.00689L11.8191 5.05503V7.64573C11.8191 7.80822 11.786 7.92256 11.7199 7.98875C11.6537 8.05495 11.5363 8.08805 11.3618 8.08805H10.2214C10.0469 8.08805 9.92651 8.05495 9.86333 7.98875C9.80014 7.92256 9.76705 7.80822 9.76705 7.64573V0.601789Z" fill="#333333"/>
<path d="M22.9403 0.162354C23.0937 0.162354 23.199 0.189434 23.2592 0.243595C23.3194 0.297756 23.3495 0.412096 23.3495 0.586615V1.59762C23.3495 1.78418 23.3194 1.90453 23.2592 1.96471C23.199 2.02489 23.0997 2.05498 22.9583 2.05498L20.2202 2.12118V5.91847C20.2202 6.11405 20.2322 6.26751 20.2623 6.37583C20.2894 6.48415 20.3616 6.61354 20.4819 6.76699L23.4668 10.7298C23.6203 10.9254 23.5962 11.0939 23.4006 11.2353L22.3746 12.0026C22.2662 12.0898 22.179 12.1289 22.1128 12.1259C22.0466 12.1199 21.9714 12.0627 21.8841 11.9544L19.1941 8.40085L16.456 12.1681C16.3807 12.2764 16.3055 12.3335 16.2363 12.3396C16.1641 12.3456 16.0768 12.3035 15.9685 12.2162L14.9425 11.4489C14.7589 11.3075 14.7348 11.139 14.8763 10.9434L17.9093 6.77C18.0176 6.61955 18.0898 6.48716 18.1199 6.37884C18.153 6.27052 18.1681 6.11706 18.1681 5.92148V2.16932L15.3968 2.21746C15.2554 2.21746 15.1561 2.18737 15.0959 2.1272C15.0357 2.06702 15.0057 1.94666 15.0057 1.7601V0.749098C15.0057 0.574579 15.0357 0.460239 15.0959 0.406078C15.1561 0.351917 15.2614 0.324837 15.4149 0.324837L22.9403 0.162354ZM26.9 7.07691V11.3978C26.9 11.5602 26.8669 11.6746 26.8007 11.7408C26.7345 11.807 26.6172 11.8401 26.4427 11.8401H25.3023C25.1277 11.8401 25.0074 11.807 24.9442 11.7408C24.881 11.6746 24.8479 11.5602 24.8479 11.3978V0.929635C24.8479 0.767152 24.881 0.652812 24.9442 0.586615C25.0074 0.520418 25.1277 0.490329 25.3023 0.490329H26.4427C26.6172 0.490329 26.7375 0.523427 26.8007 0.586615C26.8669 0.652812 26.9 0.767152 26.9 0.929635V5.18429L28.1217 5.13614C28.2751 5.12411 28.3804 5.15119 28.4406 5.20836C28.5008 5.26854 28.5309 5.38588 28.5309 5.5604V6.60451C28.5309 6.77903 28.5008 6.89036 28.4406 6.9385C28.3804 6.98664 28.2751 7.01673 28.1217 7.02877L26.9 7.07691Z" fill="#333333"/>
<path d="M35.346 12.3248C35.1714 12.3369 35.0511 12.3068 34.9879 12.2346C34.9217 12.1624 34.8916 12.048 34.8916 11.8825L34.7291 0.764466C34.7291 0.601983 34.7622 0.487643 34.8284 0.421446C34.8946 0.355249 35.012 0.322151 35.1865 0.322151L42.2936 0.159668C42.4681 0.159668 42.5885 0.192766 42.6607 0.258963C42.7299 0.32516 42.76 0.4395 42.751 0.601983L42.408 11.72C42.3959 11.8825 42.3628 11.9939 42.3026 12.054C42.2425 12.1142 42.1251 12.1503 41.9506 12.1593L35.346 12.3248ZM36.9106 10.4021L40.3829 10.3209L40.6447 2.0884L36.7963 2.1877L36.9106 10.4021ZM46.5453 7.07724V11.3981C46.5453 11.5606 46.5122 11.6749 46.446 11.7411C46.3798 11.8073 46.2624 11.8404 46.0879 11.8404H44.9475C44.773 11.8404 44.6526 11.8073 44.5894 11.7411C44.5263 11.6749 44.4932 11.5606 44.4932 11.3981V0.929958C44.4932 0.767475 44.5263 0.653135 44.5894 0.586938C44.6526 0.520742 44.773 0.490652 44.9475 0.490652H46.0879C46.2624 0.490652 46.3828 0.523751 46.446 0.586938C46.5122 0.653135 46.5453 0.767475 46.5453 0.929958V5.18461L47.7669 5.13647C47.9203 5.12443 48.0257 5.15151 48.0858 5.20868C48.146 5.26886 48.1761 5.38621 48.1761 5.56073V6.60483C48.1761 6.77935 48.146 6.89068 48.0858 6.93882C48.0257 6.98697 47.9203 7.01706 47.7669 7.02909L46.5453 7.07724Z" fill="#333333"/>
<path d="M49.9696 0.767152C49.9696 0.604669 50.0027 0.490329 50.0659 0.424132C50.1321 0.357935 50.2495 0.324837 50.424 0.324837L60.2873 0.162354C60.4618 0.162354 60.5822 0.195452 60.6544 0.261649C60.7236 0.327846 60.7537 0.442186 60.7447 0.604669L60.173 8.64156L60.5972 8.62652C60.7507 8.62652 60.856 8.6536 60.9162 8.70776C60.9764 8.76192 61.0065 8.87626 61.0065 9.05078V10.0618C61.0065 10.2453 60.9764 10.3687 60.9162 10.4289C60.856 10.4891 60.7567 10.5191 60.6153 10.5191L56.4268 10.5853V13.6816C56.4268 13.844 56.3937 13.9584 56.3275 14.0246C56.2613 14.0908 56.144 14.1239 55.9695 14.1239H54.8291C54.6546 14.1239 54.5342 14.0908 54.471 14.0246C54.4078 13.9584 54.3717 13.844 54.3717 13.6816V10.6124L50.1833 10.6786C50.0419 10.6786 49.9426 10.6485 49.8824 10.5884C49.8222 10.5282 49.7921 10.4078 49.7921 10.2213V9.21026C49.7921 9.03574 49.8222 8.9214 49.8824 8.86724C49.9426 8.81307 50.0479 8.78599 50.2013 8.78599L58.1239 8.67165L58.2864 6.38786L50.7068 6.51725C50.5323 6.51725 50.412 6.48415 50.3488 6.41795C50.2856 6.35176 50.2495 6.23742 50.2495 6.07493V5.06393C50.2495 4.90144 50.2826 4.7871 50.3488 4.72091C50.415 4.65471 50.5323 4.62161 50.7068 4.62161L58.4188 4.49223L58.5812 2.07905L50.43 2.20844C50.2555 2.20844 50.1351 2.17534 50.0719 2.10914C50.0057 2.04295 49.9757 1.92861 49.9757 1.76612V0.767152H49.9696Z" fill="#333333"/>
</svg>
