<svg width="351" height="222" viewBox="0 0 351 222" fill="none" xmlns="http://www.w3.org/2000/svg">
<path d="M13.6418 218.016C11.492 211.78 10.0641 205.483 8.9787 199.213C8.162 194.482 7.14508 189.724 6.91851 184.899C6.69721 180.179 5.45899 175.486 4.76348 170.777C3.88355 164.8 3.12482 158.812 2.2765 152.829C1.31227 146.035 0.695797 139.22 0.284813 132.399C0.0687835 128.76 0.279544 125.11 0.0740525 121.465C-0.12617 117.886 0.137281 114.318 0.189971 110.745C0.35858 99.3036 0.490305 87.8563 0.753756 76.4146C0.922365 69.2849 1.59153 62.1552 1.47561 55.031C1.41765 51.2648 1.40711 47.4711 1.48615 43.7271C1.61788 37.4686 1.42292 31.188 2.15532 24.924C2.4978 21.985 3.35138 18.8255 2.50834 16.1015C1.56519 13.0412 3.69387 12.5945 6.25988 11.6571C13.4574 9.03243 21.1396 7.72559 29.0589 6.82128C34.5967 6.18716 40.1239 5.61921 45.7038 5.29388C55.0405 4.74798 64.3666 4.17452 73.756 4.11386C80.4003 4.06975 87.0551 3.65068 93.6993 3.87124C101.777 4.13592 109.817 3.58451 117.868 3.58451C125.266 3.58451 132.658 3.35292 140.04 3.23161C147.891 3.10478 155.768 2.78497 163.624 2.39898C172.524 1.95785 181.45 1.63804 190.381 1.43402C198.537 1.25205 206.709 1.46159 214.834 1.09766C223.317 0.71167 231.779 0.948776 240.252 0.827466C245.463 0.755782 250.7 1.25205 255.901 1.08663C265.938 0.772325 275.981 0.965318 286.019 0.645501C290.639 0.49662 295.218 -0.187127 299.85 0.0554933C309.729 0.573818 319.63 0.281571 329.514 0.446994C333.334 0.513163 337.123 1.02597 340.99 0.937747C342.149 0.910177 344.905 0.799895 343.409 2.91179C343.356 2.98347 343.514 3.1489 343.604 3.24815C347.629 7.70353 347.471 12.8813 348.367 17.8605C349.679 25.1446 349.563 32.4838 349.299 39.7955C349.194 42.6353 349.447 45.4475 349.415 48.2762C349.368 52.6985 349.205 57.1263 349.526 61.5376C350.285 72.0529 349.921 82.5683 349.869 93.0782C349.853 96.2212 349.21 99.3587 349.041 102.507C348.936 104.437 349.178 106.367 349.025 108.319C348.193 118.862 347.987 129.422 346.928 139.959C346.718 142.038 347.034 144.144 346.755 146.217C345.532 155.404 345.227 164.607 345.1 173.832C345.037 178.497 344.594 183.162 344.679 187.827C344.736 191.13 343.778 194.427 343.973 197.664C344.268 202.489 342.845 207.209 343.082 212.001C343.172 213.765 342.829 215.541 342.608 217.311C342.487 218.287 341.723 219.009 340.337 218.463C337.723 217.437 335.005 217.961 332.36 218.016C327.465 218.121 322.586 218.535 317.696 218.65C304.465 218.97 291.235 219.307 278.004 219.428C270.907 219.494 263.799 219.378 256.696 219.263C248.498 219.13 240.283 219.753 232.069 219.996C217.632 220.421 203.205 220.906 188.752 221.049C182.983 221.104 177.224 221.584 171.454 221.711C164.989 221.854 158.524 221.81 152.054 221.942C148.102 222.025 144.061 222.02 140.061 221.92C130.356 221.672 120.629 221.805 110.913 221.727C105.096 221.683 99.2844 221.468 93.4674 221.441C81.8229 221.385 70.1573 221.11 58.5338 221.479C48.4437 221.799 38.3693 221.667 28.2897 221.683C24.2062 221.689 20.1121 221.126 16.0339 220.773C15.0908 220.691 14.1371 220.459 13.2782 220.161C12.2297 219.797 10.591 219.571 10.9282 218.441C11.2286 217.399 12.7671 218.347 13.6418 218.016Z" fill="#30363E"/>
<path d="M63.1864 6.41855C70.8844 5.91676 81.4857 6.24761 92.0712 6.06013C99.1843 5.93331 106.303 6.33032 113.39 6.03256C120.282 5.74031 127.168 5.53629 134.065 5.36535C140.362 5.21096 146.653 4.97937 152.949 4.90768C164.251 4.77535 175.496 3.98132 186.761 3.45197C193.331 3.14318 199.907 3.21486 206.488 3.18178C218.775 3.12112 231.057 3.03289 243.345 2.9943C253.514 2.96121 263.678 2.96121 273.847 2.9943C286.472 3.04392 299.059 1.95213 311.7 2.32709C320.536 2.58625 329.372 2.79579 338.208 3.0329C338.472 3.03841 338.935 3.00532 338.967 3.07149C339.636 4.52721 342.376 4.41693 342.966 6.09321C344.009 9.04877 344.842 12.0264 345.047 15.0536C345.495 21.676 346.333 28.2709 345.996 34.9374C345.727 40.2695 346.012 45.6237 345.991 50.9724C345.959 59.1277 347.013 67.2775 347.118 75.4329C347.192 81.2944 347.06 87.1724 346.47 93.0338C346.212 95.5869 346.359 98.1619 346.265 100.726C346.091 105.628 345.927 110.53 345.659 115.427C345.395 120.174 344.995 124.922 344.668 129.669C344.268 135.536 343.941 141.409 343.483 147.27C342.945 154.141 342.297 161.006 342.007 167.893C341.823 172.288 341.443 176.705 341.396 181.083C341.343 186.31 341.338 191.56 341.338 196.792C341.338 200.244 340.458 203.685 340.432 207.159C340.416 209.497 340.137 211.835 340.042 214.178C340 215.254 339.468 215.733 337.85 215.772C330.863 215.943 323.882 216.197 316.9 216.434C306.931 216.77 296.973 217.272 286.999 217.404C276.129 217.547 265.248 217.206 254.378 217.343C244.325 217.47 234.261 217.531 224.223 218.237C218.918 218.606 213.548 218.529 208.206 218.656C195.855 218.948 183.499 219.124 171.159 219.566C155.115 220.139 139.06 219.985 123.027 219.759C111.208 219.593 99.3951 219.698 87.5872 219.522C81.5647 219.428 75.537 219.169 69.5145 219.224C62.2485 219.29 54.9878 219.599 47.7324 219.836C40.714 220.067 33.7273 219.345 26.7142 219.488C25.4865 219.51 24.2589 219.45 23.0312 219.455C19.6432 219.461 17.6357 218.501 16.6873 216.191C14.7694 211.515 13.8631 206.685 12.7935 201.882C12.3772 200.018 12.4931 198.11 11.4183 196.307C10.4962 194.758 11.0916 193.059 10.9019 191.433C9.87443 182.533 8.88386 173.628 7.02389 164.794C5.79621 158.955 5.33781 153.071 4.61595 147.226C3.87302 141.199 3.10374 135.145 3.26708 129.052C3.47784 121.47 2.87717 113.877 3.18278 106.301C3.44623 99.7886 3.38827 93.271 3.66226 86.7588C3.90463 80.9856 3.95732 75.2013 4.15755 69.428C4.29454 65.4855 4.55272 61.5098 4.70026 57.5617C4.80564 54.6558 4.60014 51.6782 4.74768 48.7778C5.03747 43.1589 4.90048 37.5235 5.03747 31.8991C5.15866 26.9806 5.43265 22.062 5.51168 17.149C5.55911 14.232 7.50337 13.0796 11.06 12.2249C20.1438 10.0413 29.4541 8.86129 38.9015 7.90735C46.0252 7.19052 53.1278 6.60602 63.1864 6.41855Z" fill="#1AABB2"/>
<path d="M140.556 216.329C131.52 216.527 122.489 216.924 113.453 216.875C96.0807 216.786 78.7193 217.426 61.3262 217.062C53.781 216.902 46.2779 216.897 38.8011 216.053C35.4448 215.672 32.4572 214.586 29.4539 213.605C27.5202 212.971 26.3821 211.493 26.0923 209.91C25.0227 204.071 22.4198 198.441 21.993 192.502C20.9497 177.973 16.6871 163.719 14.7217 149.261C12.9408 136.165 12.6563 123.036 12.2664 109.907C11.829 95.1897 11.8501 80.456 10.6488 65.772C9.85314 56.0231 8.69396 46.2907 8.73084 36.5198C8.74138 33.3602 9.20505 30.1896 9.70034 27.0411C10.3326 22.9992 13.9419 20.8873 18.9527 19.393C36.4564 14.1767 54.7768 12.743 73.4924 12.3901C82.7817 12.2137 92.0657 11.6457 101.366 11.9325C106.002 12.0758 110.66 12.0869 115.276 12.5942C116.472 12.7265 117.763 12.7706 118.932 12.5942C135.714 10.0522 152.77 10.2176 169.768 9.87019C195.128 9.35187 220.488 10.179 245.853 9.8316C260.685 9.62757 275.48 10.6973 290.297 11.155C298.185 11.3976 306.099 11.0502 313.965 11.7284C315.704 11.8773 317.448 12.0041 319.187 12.1751C321.711 12.4177 324.161 12.6328 326.695 11.938C328.16 11.5354 329.398 11.5906 331.032 12.7982C336.58 16.8841 336.754 22.2162 337.618 27.1348C339.452 37.5509 338.308 48.0442 337.175 58.4934C336.748 62.4305 337.049 66.351 337.154 70.2881C337.302 75.8683 336.564 81.4541 336.97 87.0399C338.14 103.141 338.777 119.264 338.587 135.376C338.44 147.744 339.025 160.129 337.855 172.497C336.975 181.799 336.316 191.118 335.537 200.426C335.321 202.996 334.193 205.422 332.728 207.721C330.968 210.489 327.154 211.184 323.513 211.493C313.322 212.364 303.095 213.026 292.879 213.715C275.554 214.889 258.108 213.93 240.805 214.989C219.65 216.285 198.516 214.956 177.382 215.347C165.105 215.568 152.823 215.788 140.556 216.329Z" fill="#FDFDFD"/>
</svg>
