<svg width="62" height="14" viewBox="0 0 62 14" fill="none" xmlns="http://www.w3.org/2000/svg">
<path d="M4.71201 10.1094C3.96278 10.1094 3.2948 9.99205 2.70805 9.75735C2.12131 9.52265 1.62784 9.20371 1.22464 8.79449C0.821442 8.38828 0.517539 7.90685 0.31293 7.3532C0.102304 6.80257 0 6.19777 0 5.54483C0 4.89189 0.102304 4.28709 0.309921 3.72742C0.517539 3.16776 0.821442 2.68332 1.22163 2.27711C1.62483 1.8709 2.1183 1.54895 2.70504 1.31425C3.29179 1.07955 3.95977 0.962201 4.709 0.962201C5.57859 0.962201 6.33082 1.11566 6.96571 1.41956C7.6006 1.72346 8.12115 2.13569 8.52134 2.65925L11.5213 2.54491V0.769628C11.5213 0.607145 11.5544 0.492805 11.6206 0.426609C11.6867 0.360412 11.8041 0.330322 11.9786 0.330322H13.119C13.2935 0.330322 13.4139 0.363421 13.4771 0.426609C13.5403 0.489796 13.5764 0.607145 13.5764 0.769628V11.2378C13.5764 11.4002 13.5433 11.5146 13.4771 11.5808C13.4109 11.647 13.2935 11.6801 13.119 11.6801H11.9786C11.8041 11.6801 11.6837 11.647 11.6206 11.5808C11.5574 11.5146 11.5213 11.4002 11.5213 11.2378V8.35217L8.48824 8.46651C8.08504 8.98706 7.5675 9.39327 6.93261 9.68213C6.30073 9.96798 5.56053 10.1094 4.71201 10.1094ZM4.71201 8.21978C5.59363 8.21978 6.25861 7.97004 6.70995 7.47055C7.16129 6.97107 7.38696 6.33016 7.38696 5.54784C7.38696 4.73241 7.16129 4.07947 6.70995 3.59202C6.25861 3.10156 5.59363 2.85784 4.71201 2.85784C3.84242 2.85784 3.18347 3.10457 2.73212 3.60105C2.28078 4.09451 2.05511 4.74445 2.05511 5.54784C2.05511 6.33016 2.28078 6.97107 2.73212 7.47055C3.18046 7.97004 3.84242 8.21978 4.71201 8.21978ZM9.43907 5.54483C9.43907 5.90289 9.40597 6.23388 9.34278 6.53778L11.5273 6.45955V4.43753L9.34278 4.51878C9.40597 4.84374 9.43907 5.18676 9.43907 5.54483Z" fill="#333333"/>
<path d="M23.3945 0.00268555C23.548 0.00268555 23.6533 0.0297661 23.7135 0.0839271C23.7737 0.138088 23.8038 0.252428 23.8038 0.426947V1.43795C23.8038 1.62451 23.7737 1.74487 23.7135 1.80504C23.6533 1.86522 23.554 1.89531 23.4126 1.89531L20.6745 1.96151V5.7588C20.6745 5.95438 20.6865 6.10784 20.7166 6.21616C20.7437 6.32448 20.8159 6.45387 20.9362 6.60732L23.9211 10.5701C24.0746 10.7657 24.0505 10.9342 23.8549 11.0756L22.8289 11.8429C22.7205 11.9302 22.6333 11.9693 22.5671 11.9663C22.5009 11.9602 22.4257 11.9031 22.3384 11.7947L19.6454 8.23516L16.9073 12.0024C16.832 12.1107 16.7568 12.1679 16.6876 12.1739C16.6154 12.1799 16.5281 12.1378 16.4198 12.0505L15.3938 11.2832C15.2102 11.1418 15.1861 10.9733 15.3276 10.7777L18.3606 6.60431C18.4689 6.45387 18.5411 6.32147 18.5712 6.21315C18.6043 6.10483 18.6194 5.95137 18.6194 5.75579V2.00965L15.8481 2.0578C15.7067 2.0578 15.6074 2.02771 15.5472 1.96753C15.487 1.90735 15.4569 1.78699 15.4569 1.60044V0.58943C15.4569 0.414911 15.487 0.300571 15.5472 0.24641C15.6074 0.192249 15.7127 0.165169 15.8662 0.165169L23.3945 0.00268555ZM27.3573 6.91725V11.2381C27.3573 11.4006 27.3242 11.5149 27.258 11.5811C27.1918 11.6473 27.0745 11.6804 26.9 11.6804H25.7596C25.5851 11.6804 25.4647 11.6473 25.4015 11.5811C25.3383 11.5149 25.3052 11.4006 25.3052 11.2381V0.769967C25.3052 0.607484 25.3383 0.493144 25.4015 0.426947C25.4647 0.36075 25.5851 0.330661 25.7596 0.330661H26.9C27.0745 0.330661 27.1948 0.363759 27.258 0.426947C27.3242 0.493144 27.3573 0.607484 27.3573 0.769967V5.02462L28.579 4.97647C28.7324 4.96444 28.8377 4.99152 28.8979 5.04869C28.9581 5.10887 28.9882 5.22622 28.9882 5.40074V6.44484C28.9882 6.61936 28.9581 6.73069 28.8979 6.77883C28.8377 6.82698 28.7324 6.85707 28.579 6.8691L27.3573 6.91725Z" fill="#333333"/>
<path d="M35.8008 12.1652C35.6263 12.1772 35.5059 12.1471 35.4427 12.0749C35.3765 12.0027 35.3464 11.8883 35.3464 11.7229L35.184 0.604798C35.184 0.442315 35.2171 0.327975 35.2833 0.261778C35.3495 0.195582 35.4668 0.162483 35.6413 0.162483L42.7485 0C42.923 0 43.0433 0.0330984 43.1155 0.0992952C43.1847 0.165492 43.2148 0.279832 43.2058 0.442315L42.8628 11.5604C42.8508 11.7229 42.8177 11.8342 42.7575 11.8944C42.6973 11.9545 42.5799 11.9907 42.4054 11.9997L35.8008 12.1652ZM37.3685 10.2425L40.8408 10.1612L41.1026 1.92873L37.2541 2.02803L37.3685 10.2425ZM47.0031 6.91757V11.2384C47.0031 11.4009 46.97 11.5152 46.9038 11.5814C46.8376 11.6476 46.7203 11.6807 46.5457 11.6807H45.4053C45.2308 11.6807 45.1105 11.6476 45.0473 11.5814C44.9841 11.5152 44.951 11.4009 44.951 11.2384V0.77029C44.951 0.607807 44.9841 0.493467 45.0473 0.42727C45.1105 0.361074 45.2308 0.330984 45.4053 0.330984H46.5457C46.7203 0.330984 46.8406 0.364083 46.9038 0.42727C46.97 0.493467 47.0031 0.607807 47.0031 0.77029V5.02494L48.2247 4.9768C48.3782 4.96476 48.4835 4.99184 48.5437 5.04901C48.6039 5.10919 48.634 5.22654 48.634 5.40106V6.44516C48.634 6.61968 48.6039 6.73101 48.5437 6.77916C48.4835 6.8273 48.3782 6.85739 48.2247 6.86942L47.0031 6.91757Z" fill="#333333"/>
<path d="M50.4241 0.607484C50.4241 0.445001 50.4572 0.330661 50.5204 0.264464C50.5866 0.198267 50.7039 0.165169 50.8785 0.165169L60.7418 0.00268555C60.9163 0.00268555 61.0367 0.035784 61.1089 0.101981C61.1781 0.168178 61.2082 0.282518 61.1991 0.445001L60.6274 8.4819L61.0517 8.46685C61.2052 8.46685 61.3105 8.49393 61.3707 8.54809C61.4308 8.60225 61.4609 8.71659 61.4609 8.89111V9.90212C61.4609 10.0857 61.4308 10.209 61.3707 10.2692C61.3105 10.3294 61.2112 10.3595 61.0698 10.3595L56.8813 10.4257V13.5219C56.8813 13.6844 56.8482 13.7987 56.782 13.8649C56.7158 13.9311 56.5985 13.9642 56.4239 13.9642H55.2836C55.109 13.9642 54.9887 13.9311 54.9255 13.8649C54.8623 13.7987 54.8262 13.6844 54.8262 13.5219V10.4528L50.6377 10.519C50.4963 10.519 50.397 10.4889 50.3368 10.4287C50.2767 10.3685 50.2466 10.2481 50.2466 10.0616V9.05059C50.2466 8.87607 50.2767 8.76173 50.3368 8.70757C50.397 8.65341 50.5023 8.62633 50.6558 8.62633L58.5784 8.51199L58.7408 6.2282L51.1613 6.35758C50.9868 6.35758 50.8664 6.32448 50.8032 6.25828C50.74 6.19209 50.7039 6.07775 50.7039 5.91527V4.90426C50.7039 4.74178 50.737 4.62744 50.8032 4.56124C50.8694 4.49504 50.9868 4.46194 51.1613 4.46194L58.8732 4.33256L59.0357 1.91938L50.8815 2.0578C50.707 2.0578 50.5866 2.0247 50.5234 1.9585C50.4572 1.8923 50.4271 1.77796 50.4271 1.61548V0.607484H50.4241Z" fill="#333333"/>
</svg>
