<svg width="116" height="48" viewBox="0 0 116 48" fill="none" xmlns="http://www.w3.org/2000/svg">
<path d="M0 9.32578C0 5.46604 2.18359 2.30807 6.60028 2.30807C10.577 2.30807 12.733 4.87392 13.1511 8.21281L15.3347 8.16347V1.73788C15.3347 1.21704 15.5162 1.03611 16.0607 1.03611H17.8813C18.4258 1.03611 18.6073 1.21704 18.6073 1.73788V18.3666C18.6073 18.8874 18.4258 19.0683 17.8813 19.0683H16.0607C15.5162 19.0683 15.3347 18.8874 15.3347 18.3666V11.1679L13.0191 11.2447C12.3975 14.1724 10.2909 16.3215 6.60028 16.3215C2.18359 16.3215 0 13.1855 0 9.32578ZM10.0874 9.32578C10.0874 6.83668 8.86638 5.31253 6.60579 5.31253C4.42219 5.31253 3.14614 6.8641 3.14614 9.32578C3.14614 11.7107 4.42219 13.3171 6.60579 13.3171C8.86088 13.3171 10.0874 11.7107 10.0874 9.32578ZM20.9999 1.47472C20.9999 0.953874 21.1814 0.772949 21.7259 0.772949H23.5465C24.091 0.772949 24.2725 0.953874 24.2725 1.47472V18.1089C24.2725 18.6297 24.091 18.8106 23.5465 18.8106H21.7259C21.1814 18.8106 20.9999 18.6297 20.9999 18.1089V1.47472Z" fill="#E8D970"/>
<path d="M39.8714 18.8873C39.8714 19.4026 39.6899 19.5616 39.1454 19.589L28.0954 19.8467C27.5509 19.8741 27.3693 19.6658 27.3693 19.1449L27.1108 1.47459C27.1108 0.953743 27.2923 0.772818 27.8369 0.772818L39.6899 0.515137C40.2344 0.515137 40.4159 0.696062 40.4159 1.21691V2.8233C40.4159 3.34415 40.2344 3.52507 39.6899 3.52507L30.411 3.72793L30.5925 16.7874L39.1454 16.5791C39.6899 16.5517 39.8714 16.76 39.8714 17.2809V18.8873ZM43.7161 1.73775C43.7161 1.21691 43.8976 1.03598 44.4421 1.03598H46.2627C46.8072 1.03598 46.9887 1.21691 46.9887 1.73775V18.3664C46.9887 18.8873 46.8072 19.0682 46.2627 19.0682H44.4421C43.8976 19.0682 43.7161 18.8873 43.7161 18.3664V1.73775Z" fill="#E8D970"/>
<path d="M56.8449 6.29378C57.3399 6.00868 57.3894 5.95934 57.3894 5.36174V1.21691C57.3894 0.696062 57.5709 0.515137 58.1154 0.515137H59.936C60.4805 0.515137 60.6621 0.696062 60.6621 1.21691V5.3124C60.6621 5.91 60.6896 5.95934 61.2066 6.24443L67.7574 9.5614C68.2524 9.79166 68.3019 10.0548 68.0159 10.4934L67.0533 12.0998C66.8168 12.4891 66.6133 12.5658 66.1183 12.2808L58.946 8.57453L51.9827 12.5384C51.5647 12.7687 51.3337 12.7194 51.0201 12.2259L50.1621 10.8553C49.8761 10.4386 49.9036 10.1809 50.3986 9.89583L56.8449 6.29378ZM67.0588 13.9639C67.5538 13.9639 67.7079 14.0955 67.7079 14.6383V16.2447C67.7079 16.8423 67.5263 16.9684 67.0863 16.9684L64.1217 17.0177V21.7327C64.1217 22.2481 63.9402 22.4345 63.3957 22.4345H61.5751C61.0306 22.4345 60.8491 22.2536 60.8491 21.7327V17.067L57.2079 17.1164V21.9849C57.2079 22.5058 57.0264 22.6867 56.4819 22.6867H54.6613C54.1168 22.6867 53.9353 22.5058 53.9353 21.9849V17.1657L50.9706 17.2151C50.5306 17.2151 50.3491 17.0835 50.3491 16.4914V14.885C50.3491 14.3422 50.5031 14.2106 50.9981 14.2106L67.0588 13.9639Z" fill="#E8D970"/>
<path d="M83.279 18.8873C83.279 19.4026 83.0975 19.5616 82.553 19.589L72.0256 19.8467C71.481 19.8741 71.2995 19.6658 71.2995 19.1449L71.041 1.47459C71.041 0.953743 71.2225 0.772818 71.767 0.772818L83.0975 0.515137C83.6421 0.515137 83.8236 0.696062 83.8236 1.21691V2.8233C83.8236 3.34415 83.6421 3.52507 83.0975 3.52507L74.3357 3.72793L74.4127 8.75546L82.3935 8.54712C82.938 8.54712 83.1195 8.72804 83.1195 9.24889V10.8553C83.1195 11.3761 82.938 11.5571 82.3935 11.5571L74.4677 11.7654L74.5172 16.7929L82.5475 16.5846C83.092 16.5572 83.2735 16.7655 83.2735 17.2864V18.8873H83.279ZM89.8793 11.5022V18.3664C89.8793 18.8873 89.6978 19.0682 89.1533 19.0682H87.3327C86.7882 19.0682 86.6067 18.8873 86.6067 18.3664V1.73775C86.6067 1.21691 86.7882 1.03598 87.3327 1.03598H89.1533C89.6978 1.03598 89.8793 1.21691 89.8793 1.73775V8.49778L91.8264 8.42102C92.3214 8.39361 92.4754 8.5526 92.4754 9.09538V10.7511C92.4754 11.2939 92.3214 11.3981 91.8264 11.4255L89.8793 11.5022Z" fill="#E8D970"/>
<path d="M94.8682 7.02319C94.8682 3.15797 97.6513 0 102.249 0C106.848 0 109.658 3.15797 109.658 7.02319C109.658 10.8829 106.853 14.019 102.249 14.019C97.6458 14.019 94.8682 10.8829 94.8682 7.02319ZM106.38 7.02319C106.38 4.76985 104.923 3.00445 102.249 3.00445C99.6259 3.00445 98.1408 4.79178 98.1408 7.02319C98.1408 9.22718 99.6204 11.0145 102.249 11.0145C104.928 11.009 106.38 9.2217 106.38 7.02319ZM100.951 24.0959C100.407 24.0959 100.225 23.915 100.225 23.3942V16.2449C100.225 15.724 100.407 15.5431 100.951 15.5431H102.772C103.317 15.5431 103.498 15.724 103.498 16.2449V21.0367L114.807 20.8283C115.302 20.8283 115.456 20.9599 115.456 21.5027V23.1584C115.456 23.7012 115.324 23.8328 114.834 23.8328L100.951 24.0959ZM112.727 1.21713C112.727 0.696288 112.909 0.515363 113.453 0.515363H115.274C115.819 0.515363 116 0.696288 116 1.21713V14.7427C116 15.2635 115.819 15.4444 115.274 15.4444H113.453C112.909 15.4444 112.727 15.2635 112.727 14.7427V1.21713Z" fill="#E8D970"/>
<path d="M45.7343 30.3899C45.7343 30.8011 45.5913 30.9437 45.1623 30.9437L34.8548 31.1246L34.9153 33.2902L44.9807 33.1093C45.4098 33.1093 45.5528 33.2518 45.5528 33.663V34.9295C45.5528 35.3407 45.4098 35.4832 44.9807 35.4832L40.267 35.5655V36.9142L45.3108 36.832C45.7013 36.832 45.8223 36.9361 45.8223 37.3638V38.6302C45.8223 39.1018 45.6793 39.2004 45.3328 39.2004L32.6272 39.4033C32.2807 39.4033 32.1377 39.2991 32.1377 38.8331V37.5666C32.1377 37.139 32.2587 37.0348 32.6492 37.0348L37.6929 36.9526V35.6039L32.9792 35.6861C32.5502 35.6861 32.4237 35.5436 32.4072 35.1324L32.2202 29.3318C32.1982 28.9206 32.3632 28.7781 32.7922 28.7781L45.1733 28.5752C45.6023 28.5752 45.7453 28.7177 45.7453 29.1289V30.3899H45.7343ZM33.7878 44.1786C33.7878 42.0514 35.3883 40.3573 38.9745 40.3573C42.5606 40.3573 44.1612 42.0514 44.1612 44.1786C44.1612 46.3059 42.5606 48 38.9745 48C35.4048 48 33.7878 46.3059 33.7878 44.1786ZM41.4716 44.1786C41.4716 43.1972 40.6906 42.5229 38.969 42.5229C37.2474 42.5229 36.4664 43.1972 36.4664 44.1786C36.4664 45.16 37.2474 45.8344 38.969 45.8344C40.6906 45.8344 41.4716 45.16 41.4716 44.1786Z" fill="#E8D970"/>
<path d="M48.2754 35.9274C48.2754 32.6598 50.3875 30.1872 54.0946 30.1872C57.8018 30.1872 59.9359 32.6598 59.9359 35.9274C59.9359 39.1731 57.8018 41.6458 54.0946 41.6458C50.3875 41.6458 48.2754 39.1731 48.2754 35.9274ZM57.3508 35.9274C57.3508 33.8824 56.2232 32.5557 54.0946 32.5557C52.0266 32.5557 50.855 33.9044 50.855 35.9274C50.855 37.8902 52.0211 39.2773 54.0946 39.2773C56.2287 39.2773 57.3508 37.8847 57.3508 35.9274ZM64.5286 37.6435V43.0603C64.5286 43.4715 64.3856 43.614 63.9566 43.614H62.521C62.092 43.614 61.949 43.4715 61.949 43.0603V29.9405C61.949 29.5293 62.092 29.3867 62.521 29.3867H63.9566C64.3856 29.3867 64.5286 29.5293 64.5286 29.9405V35.275L66.0632 35.2147C66.4537 35.1928 66.5747 35.3189 66.5747 35.7465V37.0514C66.5747 37.479 66.4537 37.5612 66.0632 37.5832L64.5286 37.6435Z" fill="#E8D970"/>
<path d="M78.8899 37.0678C78.8679 37.479 78.7469 37.5557 78.3179 37.6215L71.3271 38.1917L71.3656 41.8047L78.3124 41.6402C78.7414 41.6183 78.8844 41.7828 78.8844 42.194V43.4605C78.8844 43.8716 78.7414 43.9923 78.3124 44.0142L69.3965 44.2171C68.9675 44.239 68.8245 44.0745 68.8245 43.6633L68.72 36.5743C68.72 36.1851 68.863 36.1028 69.292 36.0425L76.3653 35.4285L76.4698 31.3823L68.9895 31.5468C68.5605 31.5468 68.4175 31.4043 68.4175 31.015V29.7156C68.4175 29.3264 68.5605 29.1838 68.9895 29.1838L78.5379 28.981C78.9669 28.981 79.1319 29.1235 79.1099 29.5347L78.8899 37.0678ZM81.7171 29.9404C81.7171 29.5292 81.8601 29.3867 82.2891 29.3867H83.7246C84.1537 29.3867 84.2967 29.5292 84.2967 29.9404V43.0547C84.2967 43.4659 84.1537 43.6085 83.7246 43.6085H82.2891C81.8601 43.6085 81.7171 43.4659 81.7171 43.0547V29.9404Z" fill="#E8D970"/>
</svg>
