<svg width="300" height="48" viewBox="0 0 300 48" fill="none" xmlns="http://www.w3.org/2000/svg">
<rect width="300" height="48" rx="24" fill="#31B2A3"/>
<path d="M138.301 33.9378C138.276 33.856 138.219 33.8245 138.137 33.7993C138.08 33.7993 138.024 33.8245 137.942 33.8245C137.86 33.8497 137.747 33.8812 137.64 33.9063C137.501 33.9315 137.419 33.9315 137.331 33.9315C137.274 33.9315 137.218 33.9063 137.218 33.8182H136.109V33.7615H135.996C135.996 33.7363 135.801 33.7363 135.41 33.7363V33.6796H135.329V33.623H134.995V33.5663H134.913V33.5096H134.693V33.4655H134.529V33.4089H134.277C134.22 33.327 134.082 33.2452 133.861 33.2137L133.805 33.1003H133.635C133.609 33.0185 133.578 32.987 133.496 32.987V32.9303H133.389V32.8736H133.219C133.219 32.8484 133.194 32.817 133.162 32.7918H132.973C132.948 32.7351 132.917 32.6784 132.892 32.6532C132.866 32.628 132.835 32.5966 132.81 32.5714C132.785 32.5462 132.785 32.5462 132.753 32.5462H132.665C132.64 32.5462 132.608 32.4895 132.608 32.4076C132.388 32.351 132.249 32.2691 132.193 32.0991L131.972 32.0424C131.916 31.9291 131.834 31.8787 131.72 31.822C131.607 31.7968 131.525 31.7087 131.5 31.5701H131.33C130.996 31.1797 130.832 30.9845 130.832 30.9593H130.776C130.751 30.8775 130.694 30.8208 130.662 30.7956V30.6319L130.499 30.5752L130.303 30.0777H130.196L129.945 29.3284L129.831 29.2717V29.1332L129.718 29.0765V28.8561L129.554 28.7427V28.6042H129.529V28.4405H129.472V28.302H129.416V28.1382H129.359C129.359 28.0564 129.334 27.9997 129.246 27.9745V27.7226H129.195V27.6093H129.139V27.3574H129.082V27.1937H129.057V27.137H129.082V26.7781H129.057V26.6143H129C129 26.1421 129.025 25.6698 129.057 25.1975H129.082L129.057 25.0023H129.082V24.8889C129.139 24.8889 129.139 24.8637 129.164 24.8323L129.082 24.5804H129.139V24.3033H129.195V24.2214H129.252V23.7492H129.309V23.5288C129.334 23.5288 129.365 23.5036 129.39 23.4469C129.39 23.365 129.416 23.3336 129.472 23.3336V22.9998H129.529L129.554 22.6409L129.718 22.5842L129.831 22.1119L129.945 22.0553V21.9167H129.97V21.8034H130.026V21.6396L130.14 21.583V21.4444L130.253 21.3878L130.366 21.054H130.423C130.448 21.0288 130.448 20.9722 130.48 20.9155C130.48 20.8903 130.505 20.8588 130.562 20.8588V20.7455H130.618V20.6321H130.675V20.4936L130.895 20.3299V20.1346C130.921 20.1095 130.952 20.078 130.977 20.078C131.002 19.9394 131.091 19.8261 131.198 19.7442V19.612C131.254 19.5868 131.336 19.5301 131.418 19.4735C131.5 19.4168 131.557 19.3097 131.557 19.1964C131.638 19.1145 131.72 19.0578 131.777 19.0327V18.9193H131.802L131.916 18.806C131.916 18.8312 131.941 18.8626 131.972 18.8626V18.7241C132.054 18.6989 132.086 18.6422 132.086 18.5604L132.249 18.447V18.3337L132.558 18.1951V18.0818L132.753 17.9181C132.753 17.8614 132.81 17.8047 132.866 17.7795V17.7229H132.98C133.005 17.641 133.062 17.6095 133.143 17.6095C133.169 17.5277 133.225 17.471 133.282 17.4143C133.364 17.4143 133.421 17.3891 133.446 17.301H133.559L133.641 17.1372C133.723 17.1372 133.779 17.1121 133.861 17.0806C133.887 17.0239 133.943 16.9987 134.025 16.9987C134.025 16.942 134.082 16.9168 134.164 16.8854C134.189 16.8035 134.22 16.7468 134.22 16.7216C134.302 16.7216 134.359 16.6964 134.441 16.665V16.6083C134.579 16.6083 134.636 16.5831 134.636 16.5264C134.749 16.5012 134.856 16.4697 134.97 16.4697L134.995 16.3564C135.108 16.3312 135.19 16.2997 135.272 16.2997V16.2431H135.385V16.1864C135.442 16.1864 135.499 16.1297 135.524 16.073C135.719 16.073 135.801 16.073 135.826 16.0478C135.826 16.0227 135.826 16.0227 135.851 15.9912H135.99L136.046 15.8778H136.267L136.323 15.7645H136.626V15.7078H136.764V15.6511H137.098V15.6259H137.211V15.5819H138.131C138.187 15.5252 138.213 15.5 138.269 15.5L138.294 15.5252V15.5819H139.126L139.182 15.6637H139.655L139.711 15.7771H140.02V15.8337H140.133V15.8904H140.354L140.379 16.0038C140.517 16.0038 140.631 16.0604 140.713 16.199H140.851L140.908 16.3123C140.99 16.3123 141.021 16.3375 141.021 16.4257H141.134L141.298 16.6209H141.38C141.437 16.7342 141.519 16.7846 141.6 16.7846V17.1435H141.657V17.3639C141.632 17.3639 141.632 17.3639 141.6 17.3891C141.575 17.4143 141.575 17.4143 141.575 17.4458H141.38L141.355 17.5025C141.355 17.6158 141.191 17.6662 140.857 17.6662V17.6095H140.662V17.5528H140.549V17.4962H140.385L140.36 17.4143H140.083V17.3576H139.97V17.301H139.611L139.554 17.1876H138.25V17.2443H137.999V17.301H137.526L137.47 17.4143H137.249C137.249 17.4395 137.224 17.4395 137.167 17.4395V17.4962L136.695 17.6095V17.6662C136.613 17.6662 136.556 17.6914 136.531 17.7795C136.475 17.7795 136.393 17.8047 136.336 17.8362V17.8929L135.946 17.9181C135.946 17.9999 135.889 18.0314 135.75 18.0314C135.694 18.1448 135.612 18.1951 135.53 18.1951V18.2518C135.505 18.277 135.448 18.277 135.392 18.277C135.31 18.277 135.253 18.3337 135.228 18.4407H135.007V18.4974H134.97V18.6611L134.579 18.7745C134.554 18.7997 134.523 18.8563 134.497 18.913H134.384C134.359 18.9949 134.302 19.0264 134.22 19.0264V19.083L134.057 19.1397C134.057 19.2216 134 19.3034 133.861 19.3349V19.4483H133.748C133.723 19.5616 133.666 19.6435 133.609 19.7001C133.528 19.782 133.471 19.8639 133.446 19.9772C133.332 20.0024 133.282 20.0339 133.282 20.0906C133.282 20.1158 133.257 20.1724 133.225 20.2291H133.162C133.162 20.2858 133.162 20.3424 133.137 20.3676V20.4495C133.055 20.4495 132.999 20.4747 132.917 20.5062C132.722 20.8651 132.501 21.2303 132.281 21.5893H132.136C132.136 21.8412 132.111 22.0364 132.023 22.1749H131.972V22.2882H131.916C131.916 22.4016 131.859 22.4835 131.777 22.5401L131.72 22.8172H131.664C131.638 22.9305 131.607 23.0376 131.607 23.1761L131.443 23.2895V23.5414C131.361 23.598 131.305 23.6799 131.305 23.7932C131.28 23.7932 131.248 23.8184 131.248 23.8499C131.273 23.8499 131.305 23.9066 131.305 24.0136L131.191 24.0703V24.4293H131.141V24.5426H131.084V25.0715H131.028V25.1534H130.971V26.9859H131.028V27.0992H131.084V27.4581L131.198 27.5148V27.7352H131.254C131.28 27.7919 131.28 27.8486 131.311 27.8989C131.311 27.9556 131.311 28.0123 131.311 28.0941C131.424 28.0941 131.475 28.176 131.475 28.2894C131.475 28.3145 131.5 28.346 131.557 28.346V28.5098L131.67 28.5664V28.7302H131.727V28.812H131.783V29.0891C131.84 29.1143 131.865 29.1709 131.865 29.2276H131.922V29.341H131.979V29.4543H132.035V29.5677L132.199 29.681C132.199 29.8447 132.256 29.9329 132.337 29.9329V30.0462C132.419 30.0462 132.451 30.1029 132.451 30.1848L132.615 30.2981V30.4618C132.64 30.4618 132.671 30.487 132.671 30.5185H132.866V30.6004C133.005 30.6571 133.118 30.7137 133.169 30.7956C133.251 30.8775 133.307 30.9341 133.389 30.9341V30.9908H133.502V31.0475C133.584 31.0475 133.616 31.0475 133.616 31.0727H133.698V31.1293H133.811L133.924 31.2931L134.227 31.3497V31.4064L134.447 31.4631V31.4883H134.586V31.5449H134.699V31.5764H134.976L135.001 31.6898H135.335V31.7464H135.417V31.8031H135.75V31.8598H135.864V31.9165H136.361V31.9417H136.475V31.9983H138.307V31.9417C138.389 31.9417 138.42 31.9417 138.42 31.9165H138.836V31.8598H138.949V31.8031H139.145V31.7464H139.258V31.6898H139.478L139.504 31.5764H139.724V31.5198H139.837V31.4631H140.058C140.114 31.3245 140.221 31.2679 140.36 31.2679L140.385 31.1545C140.687 30.9341 140.883 30.7956 140.914 30.6822H141.078C141.134 30.4304 141.298 30.2352 141.55 30.0966C141.575 29.9833 141.663 29.8447 141.827 29.6243C141.909 29.5677 141.966 29.511 141.966 29.4291H142.022C142.022 29.3724 142.048 29.2654 142.136 29.1269H142.192V28.9631H142.218C142.218 28.8813 142.243 28.8246 142.331 28.7994V28.6042H142.388L142.444 28.3838H142.501V28.1886H142.558V28.0249H142.614V27.8297H142.671V27.6659H142.696V27.5526H142.753V27.4141H142.809V27.1937C142.835 27.1937 142.891 26.9166 142.973 26.3625H143.03V26.2491H143.087V26.0539H143.112V25.9972H143.087V25.7768C142.891 25.7516 142.696 25.7201 142.451 25.7201V25.7768C142.369 25.7768 142.287 25.7516 142.199 25.7201L141.645 25.7453L140.87 25.7201C140.618 25.7201 140.423 25.7201 140.234 25.7453C140.07 25.7453 139.9 25.7705 139.762 25.7705C139.566 25.7705 139.371 25.7453 139.208 25.7139C138.956 25.739 138.622 25.7705 138.263 25.7705V25.7201C138.238 25.7453 138.181 25.7768 138.124 25.7768C138.099 25.7516 138.099 25.7516 138.099 25.7201C138.074 25.695 138.043 25.695 138.017 25.695C137.992 25.6698 137.936 25.6383 137.854 25.6131C137.854 25.5312 137.854 25.4998 137.828 25.4746C137.803 25.4746 137.772 25.4494 137.747 25.3612H137.608C137.608 25.336 137.583 25.3045 137.551 25.3045V25.0527H137.495L137.438 24.7756C137.495 24.7504 137.551 24.7189 137.577 24.6937C137.602 24.6685 137.658 24.6119 137.74 24.5804C137.766 24.4418 137.822 24.36 137.904 24.3033V24.2466H138.156V24.2214H138.269V24.1648H138.603V24.1081H138.685V24.0514L139.214 23.9948L139.271 23.8814L139.629 23.9381V23.8814C139.686 23.8814 139.711 23.8814 139.711 23.8814C139.711 23.9066 139.711 23.9066 139.737 23.9381C140.486 23.9381 140.933 23.9381 141.071 23.9129C141.21 23.9129 141.38 23.9129 141.544 23.9129C141.796 23.9129 141.934 23.9381 141.991 23.9948C142.048 23.9948 142.129 23.9696 142.211 23.9381C142.293 23.9129 142.375 23.8814 142.463 23.8814V23.9381H142.576V23.9948H142.879V24.0514L142.992 23.9948C143.017 23.9948 143.049 24.0199 143.049 24.0514H143.244V24.1081H143.464V24.1648H143.578V24.2214C143.634 24.2214 143.691 24.2466 143.716 24.3033C143.83 24.3285 143.911 24.36 143.993 24.36L144.189 24.6371C144.327 24.6371 144.44 24.7189 144.547 24.8889H144.604C144.604 24.9708 144.629 25.0275 144.717 25.0527V25.3549C144.774 25.3549 144.799 25.3801 144.831 25.4116V26.2995L144.717 26.3562V27.3574H144.661V27.4393H144.604C144.604 27.7478 144.579 27.9115 144.491 27.9115V28.302L144.409 28.3271V28.6042L144.296 28.6609V28.9128L144.182 28.9694V29.2213H144.126V29.3347H144.05V29.6117L143.968 29.6684V29.807L143.855 29.8636V30.0273C143.798 30.0525 143.741 30.1092 143.741 30.1659H143.685V30.2792H143.628C143.628 30.3926 143.571 30.4996 143.464 30.5878C143.439 30.6696 143.408 30.7263 143.326 30.7515V30.9152C143.269 30.9404 143.212 30.9971 143.212 31.0538C143.131 31.1104 143.074 31.1923 143.017 31.249C142.961 31.3057 142.904 31.3623 142.797 31.3875V31.4694H142.74C142.684 31.6646 142.602 31.7779 142.488 31.8031C142.463 31.8283 142.463 31.8598 142.463 31.8598C142.463 31.885 142.463 31.885 142.438 31.885C142.413 31.9102 142.356 31.9102 142.325 31.9417C142.325 31.9668 142.299 31.9983 142.268 31.9983V32.1117H142.211L142.016 32.3888H141.903C141.878 32.5273 141.764 32.6658 141.594 32.7477C141.399 32.8044 141.292 32.8862 141.292 32.9996H141.179V33.0562L140.958 33.1129L140.901 33.2263H140.776C140.719 33.2829 140.662 33.3081 140.612 33.3081C140.587 33.39 140.53 33.4215 140.448 33.4215V33.4655C140.114 33.5222 139.951 33.5789 139.951 33.6293H139.73V33.6859H139.617V33.7426H139.308V33.7678C139.113 33.793 138.893 33.8245 138.672 33.8245V33.8812H138.37V33.9378H138.301V33.9378Z" fill="#E8D970" stroke="#E8D970" stroke-miterlimit="10" stroke-linecap="round" stroke-linejoin="round"/>
<path d="M153.13 34.4674V34.4108C153.105 34.4108 153.074 34.4108 153.049 34.436C153.023 34.4611 152.967 34.4611 152.935 34.4611C152.879 34.4611 152.853 34.4359 152.853 34.4045H152.772V34.4611C152.746 34.4611 152.715 34.4359 152.715 34.4045H152.601V34.3478C152.293 34.3226 152.016 34.2911 151.77 34.2911V34.2344H151.688V34.1778H151.38V34.1211H151.241V34.0392H150.964L149.686 33.4032V33.2899C149.384 33.208 149.132 32.9813 148.937 32.5657C148.716 32.4272 148.521 32.232 148.326 32.0368V31.9234H148.269V31.8101C148.187 31.7534 148.131 31.6967 148.105 31.6149C148.08 31.533 148.024 31.4511 147.942 31.363C147.828 31.2811 147.778 31.1426 147.778 31.004H147.696V30.8907H147.639V30.5318H147.576C147.576 30.4499 147.52 30.368 147.438 30.3366L147.52 30.1162L147.381 30.0343V29.5368C147.299 29.5116 147.268 29.455 147.243 29.3983C147.243 29.2598 147.299 29.1464 147.381 29.0079C147.381 28.9512 147.381 28.926 147.356 28.8945C147.331 28.8945 147.299 28.8945 147.274 28.8945V27.314H147.331V27.2006H147.388V26.3694H147.444V26.2561H147.526V25.7271H147.576V25.6137H147.633V25.217C147.658 25.1918 147.715 25.1604 147.772 25.1604V24.8266L147.885 24.7448V24.3543H147.91C147.935 24.3291 147.992 24.2977 148.024 24.2977C148.049 24.1843 148.049 24.1025 148.08 24.0206C148.08 23.9639 148.137 23.8821 148.275 23.8002V23.5483L148.496 23.3279V23.1642L148.634 23.1075V22.8871C148.773 22.7486 148.911 22.6352 149.05 22.5282C149.05 22.4463 149.075 22.3645 149.107 22.2763H149.163C149.22 22.163 149.277 22.1126 149.358 22.1126V22.0559H149.522L149.799 21.7222H149.913L150.076 21.4703H150.272C150.272 21.3884 150.328 21.3317 150.435 21.2499C150.549 21.1932 150.631 21.1113 150.656 20.9728C150.819 20.9728 150.908 20.9476 150.908 20.8595H151.021C151.021 20.7461 151.134 20.6642 151.323 20.6391L151.38 20.5257H151.518C151.518 20.4439 151.575 20.4124 151.682 20.3872C151.764 20.362 151.821 20.3305 151.846 20.3053C151.846 20.2801 151.846 20.2801 151.871 20.2486H152.123L152.261 19.9968C152.343 19.9968 152.513 19.8582 152.759 19.5497H152.954L153.011 19.4111H154.346V19.493H154.459V19.5497H154.85V19.663H155.133L155.19 19.7449H155.58L155.719 19.9968H155.882L155.939 20.1101H156.134V20.192C156.216 20.192 156.247 20.192 156.273 20.2172C156.298 20.2423 156.329 20.2738 156.411 20.299C156.493 20.3242 156.55 20.3557 156.606 20.4376C156.663 20.5194 156.72 20.6013 156.77 20.6894H156.991C157.016 20.828 157.072 20.9098 157.104 20.9665H157.268C157.293 20.9917 157.324 21.0232 157.324 21.105C157.406 21.105 157.463 21.1869 157.463 21.3254H157.715C157.771 21.4073 157.853 21.4892 157.935 21.5773C158.017 21.6592 158.099 21.7977 158.156 21.9363H158.319C158.344 22.0181 158.433 22.1315 158.514 22.27H158.571V22.4337L158.823 22.6289L158.987 23.1579C159.069 23.1831 159.1 23.2398 159.1 23.3216H159.157V23.542L159.295 23.5672V23.7876C159.352 23.8128 159.377 23.8695 159.409 23.9513H159.465V24.0647H159.522V24.3984L159.635 24.4551V24.6188H159.692V24.814H159.749V25.0092H159.805V25.3115L159.919 25.3682V25.8404H160.032C160.057 26.3694 160.089 26.8669 160.089 27.3958H160.032V27.95H159.919L159.944 28.0633C159.944 28.1452 159.944 28.227 159.919 28.3152H159.862V28.5356H159.805V28.6489H159.749V29.1212C159.723 29.1464 159.692 29.1779 159.635 29.1779V29.4865H159.579V29.625H159.522V29.9021C159.497 29.9272 159.44 29.9587 159.409 29.9587V30.2358C159.327 30.261 159.295 30.3177 159.295 30.3995H159.213V30.5381H159.157V30.8403L159.043 30.897V31.0607H158.987V31.1741H158.93C158.93 31.2559 158.905 31.2874 158.817 31.3126C158.817 31.4511 158.792 31.533 158.735 31.533V31.6463L158.571 31.7597C158.571 31.8416 158.546 31.8982 158.489 31.9234C158.433 31.9801 158.407 32.0368 158.407 32.1186H158.269C158.244 32.1438 158.244 32.1438 158.244 32.1438C158.244 32.169 158.244 32.2005 158.218 32.2257C158.193 32.2509 158.162 32.3075 158.162 32.3642H158.048V32.4209L157.885 32.4776C157.86 32.5594 157.803 32.6728 157.69 32.7798C157.608 32.805 157.576 32.8617 157.576 32.8932C157.551 32.9184 157.519 32.9498 157.494 32.9498C157.469 32.975 157.412 33.0065 157.331 33.0317C157.274 33.145 157.192 33.2521 157.054 33.3906C156.972 33.3906 156.915 33.4473 156.89 33.5292H156.77L156.575 33.7496H156.411V33.8062C156.298 33.8314 156.247 33.8629 156.216 33.8881C156.191 33.9133 156.077 33.9448 155.882 33.9448V34.0266L155.63 34.1085V34.1652H155.549V34.2218H155.297V34.2785H155.183V34.3352H154.686L154.629 34.4485H153.13V34.4674ZM153.855 32.4398H154.547V32.3831H154.661V32.3579H154.856V32.3012H154.938V32.2446L155.215 32.1879V32.1312H155.467C155.467 32.0494 155.492 32.0179 155.523 31.9927H155.687L155.744 31.8793C155.857 31.8793 155.939 31.8541 155.996 31.7975C156.052 31.7408 156.134 31.6841 156.247 31.6589C156.304 31.5204 156.361 31.4071 156.468 31.3252C156.493 31.3 156.525 31.2685 156.581 31.2433C156.638 31.2433 156.663 31.1867 156.663 31.1048C156.72 30.9915 156.827 30.8844 156.997 30.7711V30.4121H157.11L157.192 30.1917H157.249V29.9147H157.305V29.8013H157.387C157.387 29.7194 157.444 29.6628 157.501 29.6376V29.4424L157.614 29.3857V29.0771H157.671V28.9638H157.727V28.5482C157.784 28.5482 157.809 28.523 157.841 28.4915V28.0759C157.897 28.0759 157.923 28.0759 157.954 28.0759C157.954 28.0507 157.979 28.0507 158.011 28.0192V26.0482L157.847 25.9916V25.5445L157.734 25.4878V25.217L157.62 25.1604V24.8581L157.507 24.8014V24.6062L157.394 24.5495V24.3858L157.255 24.304V24.1402L157.173 24.0836V23.9198L156.978 23.7561L156.953 23.5357C156.896 23.5357 156.871 23.5105 156.839 23.479C156.783 23.4224 156.758 23.3972 156.726 23.3972C156.613 23.2838 156.531 23.1768 156.474 23.0068C156.31 22.9501 156.14 22.8116 156.002 22.5912C156.002 22.566 155.889 22.5345 155.725 22.5093C155.668 22.4841 155.611 22.4274 155.586 22.3456C155.504 22.3456 155.423 22.2889 155.391 22.2322C155.309 22.2322 155.253 22.1755 155.227 22.1189H155.064C155.064 22.0622 155.064 22.037 155.007 22.0055C154.868 21.9489 154.787 21.9237 154.787 21.8922L154.566 21.8355V21.7788H154.402L154.346 21.6403H153.483V21.697H153.37V21.7788H153.206V21.8355H153.093V21.8922H152.954L152.929 22.0055H152.734C152.709 22.0622 152.652 22.1189 152.595 22.1189V22.1755C152.513 22.1755 152.457 22.2007 152.431 22.2889L152.18 22.3456L152.123 22.4589H151.959V22.5156H151.846C151.821 22.5975 151.764 22.6289 151.682 22.6289L151.518 22.8493H151.405V22.906C151.323 22.906 151.267 22.9312 151.241 23.0194H151.185C151.159 23.1012 151.128 23.1579 151.128 23.2146H151.071V23.3279C150.989 23.3531 150.933 23.3846 150.933 23.4413C150.908 23.4979 150.908 23.5231 150.876 23.5231C150.851 23.5483 150.819 23.5798 150.819 23.6365C150.794 23.6931 150.738 23.7183 150.656 23.7183C150.656 23.9702 150.599 24.0773 150.492 24.0773L150.41 24.1025V24.3229L150.272 24.4047V24.6251H150.215C150.19 24.707 150.158 24.7636 150.158 24.8203C150.158 24.8455 150.102 24.877 149.994 24.877V25.2926H149.881V25.7082H149.824V25.7901H149.768C149.743 25.9538 149.711 26.0671 149.711 26.1805H149.629V26.8165H149.573V27.0936H149.516V27.7862L149.403 27.8429C149.459 27.9563 149.459 28.0633 149.459 28.1515C149.434 28.1515 149.403 28.1767 149.403 28.2333C149.484 28.5356 149.516 28.9575 149.516 29.455H149.573V29.7635H149.629V30.0406L149.768 30.0973V30.3177H149.824V30.431H149.881V30.7899H149.994V30.9537C150.076 30.9537 150.158 31.0103 150.215 31.1174V31.2307L150.712 31.6778L150.769 31.7912L151.021 31.8479C151.021 31.9612 151.134 32.0116 151.298 32.0116V32.0934L151.632 32.2068V32.2635H151.852V32.3201H151.965V32.3768H152.494L152.551 32.4587H152.998C153.332 32.5153 153.609 32.5153 153.886 32.5153V32.4398H153.855Z" fill="#E8D970" stroke="#E8D970" stroke-miterlimit="10" stroke-linecap="round" stroke-linejoin="round"/>
<path d="M165.101 35.2728L164.767 34.8823H164.572L164.295 34.5486H164.238V33.6859C164.32 33.6607 164.352 33.604 164.352 33.5474C164.352 33.4907 164.352 33.4655 164.408 33.434C164.433 33.434 164.465 33.4088 164.465 33.4088C164.465 33.3836 164.49 33.3836 164.49 33.3836C164.515 33.3836 164.547 33.3836 164.572 33.3584C164.597 33.2766 164.629 33.1947 164.654 33.1632C164.711 33.138 164.736 33.0814 164.767 32.968C165.019 32.9113 165.126 32.8043 165.158 32.6343C165.24 32.6091 165.321 32.5776 165.46 32.5776H166.014C166.071 32.6595 166.127 32.6909 166.178 32.6909C166.234 32.6909 166.26 32.7161 166.316 32.7728C166.43 32.9932 166.619 33.1317 166.87 33.2451V33.6355L167.009 33.6922V34.1078C166.896 34.1645 166.845 34.2463 166.814 34.3597C166.789 34.473 166.732 34.5549 166.593 34.6367L166.203 35.0838L165.951 35.1657L165.869 35.279H165.101V35.2728ZM166.656 30.8018C166.6 30.72 166.436 30.6633 166.159 30.6633C166.159 30.6381 166.134 30.5814 166.102 30.5814C166.077 30.5562 166.046 30.5248 166.02 30.4681C165.995 30.4429 165.907 30.4114 165.743 30.4114C165.718 30.191 165.687 29.8825 165.687 29.492V28.7679H165.743C165.8 28.6293 165.825 28.516 165.825 28.3523H165.882V28.2389C165.938 28.2389 165.938 28.2137 165.938 28.1571L165.882 27.9367H165.938V27.8233H166.02V27.6281H166.077C166.102 27.6029 166.134 27.3258 166.159 26.8536H166.241L166.266 26.1609C166.266 26.1042 166.291 26.079 166.348 26.0475V25.7957H166.404V25.5753H166.486V25.0211H166.543V24.8574H166.6V24.3599L166.738 24.3032V23.5791H166.795C166.82 23.5539 166.877 23.2201 166.959 22.5527H167.015V22.3008H167.072V22.1056H167.129L167.072 21.8285H167.129C167.154 21.7466 167.185 21.69 167.267 21.6333C167.267 21.6081 167.242 21.5766 167.211 21.5766C167.211 21.4948 167.236 21.4381 167.267 21.3814C167.267 21.3247 167.242 21.2429 167.211 21.161H167.267V20.9658C167.292 20.9658 167.324 20.9406 167.324 20.9091H167.267C167.267 20.8839 167.292 20.8525 167.324 20.8525C167.324 20.6572 167.349 20.5754 167.349 20.5754C167.374 20.5754 167.406 20.5502 167.406 20.5187H167.324V20.4368H167.406V20.0527H167.462V19.889H167.519V19.3349H167.632V19.2215H167.689C167.632 19.1396 167.632 19.0578 167.632 19.0011H167.689V18.7492H167.746V18.4973H167.802V18.0817H167.884V17.9432H167.941V17.2757H167.998V17.1624H168.054V16.8034L168.25 16.6901V15.9092H168.331V15.5818H168.413V15.1662H168.47V15.0528H168.527V14.6624H168.608V14.5491H168.665V13.9949L168.797 13.9446V13.6108L169.188 13.2771C169.188 13.1385 169.213 13.0567 169.27 13H169.855L169.88 13.0567C170.296 13.5038 170.548 13.7494 170.655 13.8375V15.9218C170.542 16.0037 170.491 16.0604 170.46 16.0856L170.435 16.6964H170.353V17.1687L170.239 17.2253C170.265 17.4457 170.296 17.6724 170.296 17.8928H170.239L170.183 18.1447H170.101C170.126 18.3399 170.126 18.5036 170.183 18.6737H170.101V19.0074L169.988 19.0893V19.2845L169.849 19.3412V20.2039L169.906 20.2605C169.906 20.3172 169.906 20.3424 169.849 20.3424C169.792 20.5061 169.736 20.6195 169.685 20.6195V21.2303H169.629V21.4507H169.572V22.0615L169.433 22.1182V22.7857H169.377V22.9809H169.32V23.428H169.263V23.5917H169.181V24.0891L169.043 24.1458C169.043 24.7 168.986 24.977 168.904 25.0337V25.7012L168.797 25.7201V26.249H168.716V26.3876H168.659V26.8599L168.52 26.9165V27.1684H168.464V27.3321H168.407V28.0563H168.325V28.1696H168.243V28.4215C168.218 28.4467 168.187 28.4467 168.161 28.5034H168.048C168.048 28.7553 168.048 28.919 167.991 29.0323H167.935V29.2276L167.796 29.2842V29.6872C167.714 29.6872 167.683 29.7124 167.683 29.7439L167.519 30.1343H167.462C167.406 30.2981 167.299 30.4114 167.129 30.4114L166.795 30.8018H166.656V30.8018Z" fill="#E8D970" stroke="#E8D970" stroke-miterlimit="10" stroke-linecap="round" stroke-linejoin="round"/>
</svg>
