<svg width="124" height="56" viewBox="0 0 124 56" fill="none" xmlns="http://www.w3.org/2000/svg">
<g opacity="0.94">
<path d="M27.1539 20.0764C27.1685 20.332 27.1466 20.5073 27.0735 20.6023C27.0005 20.7045 26.8106 20.7703 26.5038 20.8068C24.3127 21.0989 22.3553 21.0478 20.6317 20.6534C18.9007 20.2663 17.44 19.6017 16.2495 18.6741C15.059 17.7392 14.146 16.5706 13.5252 15.1464C12.9044 13.7222 12.5903 12.13 12.5903 10.3552C12.5903 8.5293 12.9555 6.9517 13.6859 5.62243C14.4162 4.29316 15.3876 3.21224 16.5927 2.37962C17.7978 1.547 19.1856 0.962701 20.7558 0.612125C22.3261 0.268853 23.9549 0.181212 25.642 0.341893C25.9488 0.378411 26.1459 0.444129 26.2263 0.531773C26.3066 0.619417 26.3504 0.802024 26.3504 1.07226L26.3212 2.92009C26.3212 3.21223 26.2628 3.38752 26.1459 3.44595C26.0291 3.50438 25.8392 3.53359 25.5909 3.51168C24.1447 3.46056 22.8301 3.57011 21.6542 3.84765C20.4783 4.12519 19.4704 4.57071 18.6305 5.17692C17.7905 5.78312 17.1405 6.55731 16.6877 7.49948C16.2349 8.44166 16.0085 9.54451 16.0085 10.808C16.0085 12.057 16.2568 13.1525 16.7534 14.102C17.2501 15.0515 17.9585 15.8184 18.8715 16.41C19.7845 16.9943 20.8727 17.4033 22.1289 17.6151C23.3852 17.8342 24.7729 17.8342 26.292 17.6151C26.5842 17.5786 26.7668 17.6005 26.8471 17.6808C26.9274 17.7611 26.9786 17.9364 26.9932 18.2067L27.1539 20.0764Z" fill="#191919"/>
<path d="M30.4932 20.9419C30.2011 20.9419 30.0039 20.8981 29.8943 20.8031C29.7848 20.7082 29.7336 20.5256 29.7336 20.2334L29.4634 0.995566C29.4634 0.703419 29.5218 0.513525 29.6387 0.425881C29.7555 0.338237 29.96 0.287109 30.2522 0.287109H41.865C42.1572 0.287109 42.3544 0.330933 42.4785 0.425881C42.6027 0.520829 42.6538 0.703419 42.6538 0.995566V2.70462C42.6538 2.99677 42.5954 3.18668 42.4785 3.28893C42.3617 3.39118 42.1572 3.4423 41.865 3.4423H32.8815L32.9326 8.89814H40.8571C41.1493 8.89814 41.3465 8.94197 41.4706 9.03691C41.5875 9.12456 41.6459 9.31445 41.6459 9.6066V11.3157C41.6459 11.6078 41.5875 11.7977 41.4706 11.9C41.3538 12.0022 41.1493 12.046 40.8571 12.046H32.9911L33.0714 17.8013H40.9667C41.2588 17.8013 41.456 17.8525 41.5656 17.9474C41.6751 18.0497 41.7262 18.2395 41.7262 18.5317V20.2407C41.7262 20.5329 41.6751 20.7228 41.5656 20.8104C41.456 20.8981 41.2588 20.9492 40.9667 20.9492H30.4932V20.9419Z" fill="#191919"/>
<path d="M62.3228 10.6341C62.3228 12.2775 62.0818 13.7601 61.5924 15.0675C61.1031 16.3821 60.4457 17.4923 59.6131 18.4052C58.7805 19.3182 57.8091 20.0193 56.699 20.5087C55.5888 20.998 54.3983 21.2391 53.1275 21.2391C51.8639 21.2391 50.6734 20.998 49.556 20.5087C48.4458 20.0193 47.4744 19.3182 46.6418 18.3906C45.8092 17.4704 45.1518 16.3529 44.6625 15.0383C44.1732 13.7236 43.9321 12.2482 43.9321 10.6049C43.9321 8.96159 44.1732 7.47894 44.6625 6.17159C45.1518 4.85693 45.8092 3.74679 46.6418 2.83383C47.4744 1.92087 48.4458 1.21971 49.556 0.730367C50.6661 0.241021 51.8566 0 53.1275 0C54.391 0 55.5815 0.248317 56.699 0.744966C57.8091 1.24162 58.7805 1.95008 59.6131 2.87765C60.4457 3.79791 61.1031 4.91537 61.5924 6.23003C62.0745 7.53739 62.3228 9.00542 62.3228 10.6341ZM58.7951 10.6341C58.7951 9.60432 58.6709 8.63293 58.4153 7.72727C58.1597 6.82162 57.7945 6.04013 57.3052 5.3828C56.8158 4.72547 56.2169 4.1996 55.5158 3.80521C54.8073 3.41811 54.0112 3.22092 53.1275 3.22092C52.2218 3.22092 51.4257 3.41811 50.7246 3.80521C50.0307 4.1923 49.4391 4.71817 48.9644 5.3828C48.4823 6.04013 48.1171 6.82162 47.8688 7.72727C47.6132 8.63293 47.489 9.59702 47.489 10.6341C47.489 11.664 47.6132 12.628 47.8688 13.5264C48.1244 14.4247 48.4896 15.2062 48.9644 15.8709C49.4464 16.5428 50.0307 17.0614 50.7246 17.4412C51.4184 17.821 52.2218 18.0109 53.1275 18.0109C54.0112 18.0109 54.8073 17.821 55.5158 17.4412C56.2242 17.0614 56.8158 16.5355 57.3052 15.8709C57.7945 15.1989 58.167 14.4174 58.4153 13.5264C58.6636 12.628 58.7951 11.664 58.7951 10.6341Z" fill="#191919"/>
<path d="M78.7339 10.9527C78.7193 11.2229 78.6536 11.4055 78.5586 11.4931C78.4564 11.5808 78.2665 11.6465 77.9744 11.683L68.7206 12.4426L68.7717 17.2484L77.967 17.0293C78.2592 17.0147 78.4564 17.0585 78.566 17.1754C78.6755 17.2923 78.7266 17.4895 78.7266 17.7597V19.4395C78.7266 19.7098 78.6755 19.8997 78.566 19.9946C78.4564 20.0969 78.2592 20.1553 77.967 20.1699L66.1643 20.4401C65.8722 20.4547 65.675 20.4109 65.5654 20.2941C65.4559 20.1772 65.4047 19.98 65.4047 19.7098L65.266 10.2954C65.266 10.0397 65.3171 9.87172 65.4267 9.77677C65.5362 9.68913 65.7334 9.62341 66.0255 9.58689L75.3888 8.77618L75.5276 3.40068L65.6238 3.61979C65.3317 3.61979 65.1345 3.56866 65.0249 3.4591C64.9154 3.34955 64.8643 3.16696 64.8643 2.91864V1.18036C64.8643 0.924734 64.9154 0.749453 65.0249 0.639898C65.1345 0.530343 65.3317 0.479217 65.6238 0.479217L78.2665 0.208984C78.5586 0.208984 78.7558 0.267415 78.88 0.369666C78.9969 0.479221 79.048 0.669116 79.0261 0.939351L78.7339 10.9527ZM82.4807 1.48713C82.4807 1.21689 82.5318 1.027 82.6414 0.917441C82.7509 0.807886 82.9481 0.75676 83.2403 0.75676H85.1393C85.4314 0.75676 85.6286 0.807886 85.7382 0.917441C85.8477 1.027 85.8988 1.21689 85.8988 1.48713V18.9064C85.8988 19.1766 85.8477 19.3665 85.7382 19.476C85.6286 19.5856 85.4314 19.6367 85.1393 19.6367H83.2403C82.9481 19.6367 82.7509 19.5856 82.6414 19.476C82.5318 19.3665 82.4807 19.1766 82.4807 18.9064V1.48713Z" fill="#191919"/>
<path d="M102.209 19.4468C102.209 19.7171 102.158 19.907 102.048 20.0019C101.939 20.0969 101.741 20.1626 101.449 20.1772L90.187 20.4474C89.8949 20.4621 89.6977 20.4182 89.5881 20.3014C89.4786 20.1845 89.4275 19.9873 89.4275 19.7171L89.1572 1.20958C89.1572 0.939348 89.2084 0.749453 89.3179 0.639898C89.4275 0.530343 89.6247 0.479217 89.9168 0.479217L102.019 0.208984C102.311 0.208984 102.508 0.267415 102.618 0.369666C102.727 0.479221 102.779 0.669116 102.779 0.939351V2.61919C102.779 2.88942 102.727 3.07932 102.618 3.18887C102.508 3.29843 102.311 3.34955 102.019 3.34955L92.6046 3.56865L92.7945 17.2411L101.449 17.022C101.741 17.0074 101.939 17.0512 102.048 17.1681C102.158 17.285 102.209 17.4822 102.209 17.7524V19.4468ZM106.496 8.2138V1.48713C106.496 1.21689 106.547 1.027 106.657 0.917441C106.766 0.807886 106.964 0.75676 107.256 0.75676H109.155C109.447 0.75676 109.644 0.807886 109.754 0.917441C109.863 1.027 109.914 1.21689 109.914 1.48713V18.9064C109.914 19.1766 109.863 19.3665 109.754 19.476C109.644 19.5856 109.447 19.6367 109.155 19.6367H107.256C106.964 19.6367 106.766 19.5856 106.657 19.476C106.547 19.3665 106.496 19.1766 106.496 18.9064V11.3617L101.34 11.4712C101.084 11.4712 100.909 11.4274 100.814 11.3325C100.712 11.2448 100.668 11.0549 100.668 10.7628V9.0245C100.668 8.73235 100.719 8.54246 100.814 8.45481C100.916 8.36717 101.091 8.31604 101.34 8.31604L106.496 8.2138Z" fill="#191919"/>
<path d="M17.3462 38.6801L13.1101 38.7896L12.9713 43.296C12.9567 43.5662 12.891 43.7561 12.796 43.8511C12.6938 43.9533 12.5039 44.0118 12.2117 44.0264L0.949468 44.2966C0.657321 44.3112 0.460128 44.2674 0.350573 44.1432C0.241018 44.0264 0.189891 43.8292 0.189891 43.5589L0 31.486C0 31.2157 0.0511154 31.0258 0.160671 30.9163C0.270226 30.8067 0.46743 30.7556 0.759577 30.7556L12.5915 30.4854C12.8837 30.4854 13.0809 30.5365 13.205 30.646C13.3219 30.7556 13.373 30.9455 13.3511 31.2157L13.2123 35.6417L17.3389 35.5322V31.486C17.3389 31.2157 17.39 31.0258 17.4996 30.9163C17.6091 30.8067 17.8063 30.7556 18.0985 30.7556H19.9974C20.2896 30.7556 20.4868 30.814 20.5963 30.9163C20.7059 31.0185 20.757 31.2157 20.757 31.486V44.0191C20.757 44.2893 20.7059 44.4792 20.5963 44.5887C20.4868 44.6983 20.2896 44.7494 19.9974 44.7494H18.0985C17.8063 44.7494 17.6091 44.6983 17.4996 44.5887C17.39 44.4792 17.3389 44.2893 17.3389 44.0191V38.6801H17.3462ZM3.56418 41.0976L9.61162 40.9369L9.85264 33.6917L3.44732 33.8524L3.56418 41.0976ZM10.2616 49.5918C10.5173 49.4457 10.6707 49.3215 10.7364 49.2266C10.8021 49.1243 10.8313 48.9271 10.8313 48.6131V46.3855C10.8313 46.1152 10.8825 45.9253 10.992 45.8157C11.1016 45.7062 11.2988 45.6551 11.5909 45.6551H13.4899C13.782 45.6551 13.9792 45.7062 14.0888 45.8157C14.1983 45.9253 14.2495 46.1152 14.2495 46.3855V48.6131C14.2495 48.9198 14.2787 49.1243 14.3444 49.2266C14.4101 49.3288 14.5635 49.4457 14.8191 49.5918L20.2969 52.5205C20.7497 52.7543 20.852 53.0975 20.5963 53.5504L19.8076 54.9892C19.6615 55.2448 19.5154 55.3909 19.362 55.4347C19.2086 55.4785 19.0114 55.442 18.7777 55.3105L12.4527 51.9216L6.26654 55.5296C6.01091 55.6757 5.81372 55.7195 5.66764 55.6684C5.52157 55.6173 5.3755 55.4566 5.23673 55.2083L4.47714 53.8206C4.33107 53.565 4.27994 53.375 4.31646 53.2363C4.35298 53.0975 4.49906 52.9587 4.74739 52.8127L10.2616 49.5918Z" fill="#191919"/>
<path d="M35.203 30.4946C35.4586 30.4946 35.6339 30.5385 35.7289 30.6334C35.8311 30.721 35.8749 30.9109 35.8749 31.2031V32.8829C35.8749 33.1897 35.8238 33.3942 35.7289 33.4964C35.6339 33.5987 35.4586 33.6425 35.2249 33.6425L31.6169 33.7521V36.4909C31.6169 36.8196 31.6315 37.0825 31.668 37.2943C31.7045 37.5061 31.8287 37.7033 32.0478 37.9078L35.8457 41.5159C36.1525 41.808 36.1452 42.1148 35.8165 42.4361L34.3777 43.875C34.217 44.0356 34.0709 44.1087 33.9468 44.0941C33.8226 44.0795 33.6692 43.9845 33.4866 43.8238L29.9297 40.4568L26.183 44.2547C26.0369 44.4008 25.9054 44.4739 25.7739 44.4885C25.6425 44.5031 25.5037 44.43 25.343 44.284L23.8239 42.8159C23.5317 42.5457 23.5244 42.2535 23.7947 41.9468L27.7532 37.9005C27.9504 37.6814 28.0746 37.4769 28.1184 37.2797C28.1622 37.0825 28.1842 36.8196 28.1842 36.4909V33.8324L24.5177 33.9127C24.284 33.9127 24.116 33.8616 24.0138 33.7667C23.9115 33.6644 23.8677 33.4672 23.8677 33.1532V31.4733C23.8677 31.1812 23.9188 30.9913 24.0138 30.9036C24.116 30.816 24.2913 30.7649 24.5396 30.7649L35.203 30.4946ZM37.1019 55.999C35.9115 55.999 34.8743 55.853 33.9979 55.5535C33.1214 55.2541 32.3911 54.8597 31.8141 54.363C31.2371 53.8664 30.8062 53.2894 30.5286 52.6394C30.2511 51.9893 30.105 51.3101 30.105 50.6016C30.105 49.8932 30.2438 49.2212 30.5286 48.5639C30.8062 47.9139 31.2371 47.3369 31.8141 46.8402C32.3911 46.3436 33.1214 45.9419 33.9979 45.6497C34.8743 45.3503 35.9115 45.2042 37.1019 45.2042C38.2924 45.2042 39.3296 45.3503 40.206 45.6497C41.0824 45.9492 41.8128 46.3436 42.3898 46.8402C42.9668 47.3369 43.3977 47.9139 43.6753 48.5639C43.9528 49.2139 44.0989 49.8932 44.0989 50.6016C44.0989 51.3101 43.9601 51.9893 43.6753 52.6394C43.3977 53.2894 42.9668 53.8664 42.3898 54.363C41.8128 54.8597 41.0824 55.2614 40.206 55.5535C39.3296 55.8457 38.2924 55.999 37.1019 55.999ZM37.1019 53.0411C38.2924 53.0411 39.1762 52.8073 39.7459 52.3472C40.3156 51.8871 40.6004 51.3028 40.6004 50.5943C40.6004 49.8859 40.3156 49.3089 39.7459 48.8414C39.1762 48.3813 38.2924 48.1476 37.1019 48.1476C35.9115 48.1476 35.0277 48.3813 34.458 48.8414C33.8883 49.3016 33.6035 49.8859 33.6035 50.5943C33.6035 51.3028 33.8883 51.8798 34.458 52.3472C35.0204 52.8073 35.9041 53.0411 37.1019 53.0411ZM44.0989 38.7113L41.3308 38.7624V42.9401C41.3308 43.2103 41.2796 43.4002 41.1701 43.5098C41.0605 43.6193 40.8633 43.6705 40.5712 43.6705H38.6722C38.3801 43.6705 38.1829 43.6193 38.0733 43.5098C37.9638 43.4002 37.9126 43.2103 37.9126 42.9401V31.7581C37.9126 31.4879 37.9638 31.298 38.0733 31.1885C38.1829 31.0789 38.3801 31.0278 38.6722 31.0278H40.5712C40.8633 31.0278 41.0605 31.0789 41.1701 31.1885C41.2796 31.298 41.3308 31.4879 41.3308 31.7581V35.6145L44.0989 35.5634V31.4952C44.0989 31.225 44.15 31.0351 44.2595 30.9255C44.3691 30.816 44.5663 30.7649 44.8584 30.7649H46.7574C47.0495 30.7649 47.2467 30.8233 47.3563 30.9255C47.4658 31.0351 47.517 31.225 47.517 31.4952V42.6771C47.517 42.9474 47.4658 43.1373 47.3563 43.2468C47.2467 43.3564 47.0495 43.4075 46.7574 43.4075H44.8584C44.5663 43.4075 44.3691 43.3564 44.2595 43.2468C44.15 43.1373 44.0989 42.9474 44.0989 42.6771V38.7113Z" fill="#191919"/>
<path d="M58.2393 47.5851C56.9903 47.5851 55.8729 47.3879 54.8723 47.0008C53.879 46.6137 53.039 46.0805 52.3598 45.4013C51.6806 44.722 51.162 43.9259 50.7968 42.9984C50.4317 42.0781 50.2563 41.0702 50.2563 39.9893C50.2563 38.9083 50.439 37.8931 50.7968 36.9655C51.162 36.0307 51.6806 35.2272 52.3598 34.548C53.039 33.8688 53.8717 33.3356 54.8723 32.9485C55.8656 32.5614 56.9903 32.3642 58.2393 32.3642C59.4882 32.3642 60.6057 32.5614 61.6063 32.9485C62.5996 33.3356 63.4395 33.8688 64.126 34.548C64.8126 35.2272 65.3384 36.0307 65.6963 36.9655C66.0615 37.9004 66.2368 38.9083 66.2368 39.9893C66.2368 41.0702 66.0542 42.0781 65.6963 42.9984C65.3311 43.9186 64.8126 44.722 64.126 45.4013C63.4395 46.0805 62.5996 46.6137 61.6063 47.0008C60.6057 47.3879 59.4809 47.5851 58.2393 47.5851ZM58.2393 44.4372C59.7073 44.4372 60.8321 44.0209 61.6282 43.1883C62.4243 42.3556 62.8187 41.2893 62.8187 39.9893C62.8187 38.6308 62.4243 37.5498 61.6282 36.7318C60.8321 35.9211 59.7 35.5121 58.2393 35.5121C56.7931 35.5121 55.6684 35.9211 54.8723 36.7464C54.0762 37.5717 53.6818 38.6527 53.6818 39.9893C53.6818 40.6393 53.784 41.2382 53.9958 41.7786C54.2003 42.3191 54.4998 42.7939 54.8942 43.1883C55.2813 43.5827 55.756 43.8967 56.3184 44.1085C56.8735 44.3276 57.5089 44.4372 58.2393 44.4372ZM69.4431 32.0355C69.4431 31.7653 69.4942 31.5754 69.6038 31.4659C69.7133 31.3563 69.9105 31.3052 70.2027 31.3052H72.1016C72.3938 31.3052 72.591 31.3563 72.7005 31.4659C72.8101 31.5754 72.8612 31.7653 72.8612 32.0355V49.4548C72.8612 49.725 72.8101 49.9149 72.7005 50.0245C72.591 50.134 72.3938 50.1852 72.1016 50.1852H70.2027C69.9105 50.1852 69.7133 50.134 69.6038 50.0245C69.4942 49.9149 69.4431 49.725 69.4431 49.4548V32.0355Z" fill="#191919"/>
<path d="M81.1075 31.3548V29.7553C81.1075 29.485 81.1586 29.2951 81.2682 29.1856C81.3777 29.076 81.5749 29.0249 81.867 29.0249H83.766C84.0582 29.0249 84.2554 29.076 84.3649 29.1856C84.4745 29.2951 84.5256 29.485 84.5256 29.7553V31.2744L89.3314 31.1649C89.587 31.1649 89.7623 31.2087 89.8573 31.3036C89.9595 31.3986 90.0033 31.5812 90.0033 31.8733V33.5532C90.0033 33.8599 89.9522 34.0644 89.8573 34.1667C89.755 34.2689 89.587 34.3128 89.3533 34.3128L76.2213 34.583C75.9876 34.583 75.8196 34.5319 75.7174 34.4369C75.6151 34.3347 75.5713 34.1375 75.5713 33.8234V32.1436C75.5713 31.8514 75.6224 31.6615 75.7174 31.5739C75.8196 31.4862 75.9949 31.4351 76.2432 31.4351L81.1075 31.3548ZM83.0941 45.4143C80.9614 45.4143 79.3035 45.0053 78.1276 44.18C76.9517 43.3547 76.3674 42.1496 76.3674 40.5574C76.3674 38.9652 76.9517 37.7528 78.1276 36.9202C79.3035 36.0875 80.9614 35.6712 83.0941 35.6712C85.2268 35.6712 86.8847 36.0875 88.0606 36.9202C89.2365 37.7528 89.8281 38.9652 89.8281 40.5574C89.8281 42.1496 89.2365 43.3547 88.0606 44.18C86.8774 45.0053 85.2268 45.4143 83.0941 45.4143ZM92.4793 55.4496C92.1871 55.4496 91.9826 55.3984 91.8658 55.2889C91.7489 55.1793 91.6978 54.9894 91.7197 54.7192L91.8804 49.9426L80.3187 50.1617C80.063 50.1617 79.8878 50.1179 79.7928 50.023C79.6906 49.9353 79.6467 49.7454 79.6467 49.4533V47.715C79.6467 47.4228 79.6979 47.2329 79.7928 47.1453C79.8951 47.0577 80.0703 47.0065 80.3187 47.0065L94.6996 46.7363C94.9552 46.7363 95.1305 46.7801 95.2401 46.8751C95.3496 46.9627 95.3934 47.1526 95.3788 47.4448L95.1378 54.7192C95.1232 54.9894 95.0575 55.1793 94.9625 55.2889C94.8603 55.3984 94.6704 55.4496 94.3782 55.4496H92.4793ZM83.0941 42.5367C84.0728 42.5367 84.8543 42.376 85.4532 42.062C86.0521 41.7479 86.3515 41.2439 86.3515 40.5574C86.3515 39.8709 86.0521 39.3669 85.4532 39.0382C84.8543 38.7096 84.0728 38.5489 83.0941 38.5489C82.1154 38.5489 81.3266 38.7096 80.735 39.0382C80.1361 39.3669 79.8366 39.8709 79.8366 40.5574C79.8366 41.2439 80.1361 41.7479 80.735 42.062C81.3266 42.376 82.1154 42.5367 83.0941 42.5367ZM92.3697 31.4935C92.3697 31.2233 92.4209 31.0334 92.5304 30.9239C92.64 30.8143 92.8372 30.7632 93.1293 30.7632H95.0283C95.3204 30.7632 95.5176 30.8216 95.6272 30.9239C95.7367 31.0334 95.7878 31.2233 95.7878 31.4935V36.2994L97.8256 36.219C98.0812 36.2044 98.2565 36.2409 98.3514 36.3432C98.4537 36.4454 98.4975 36.6353 98.4975 36.9275V38.6073C98.4975 38.9141 98.4464 39.1113 98.3514 39.2062C98.2492 39.2939 98.0812 39.3523 97.8475 39.3669L95.7878 39.4473V44.3042C95.7878 44.5744 95.7367 44.7643 95.6272 44.8739C95.5176 44.9834 95.3204 45.0346 95.0283 45.0346H93.1293C92.8372 45.0346 92.64 44.9834 92.5304 44.8739C92.4209 44.7643 92.3697 44.5744 92.3697 44.3042V31.4935V31.4935Z" fill="#191919"/>
<path d="M104.691 48.3943V39.5276C104.691 39.2574 104.742 39.0675 104.852 38.9579C104.961 38.8483 105.158 38.7972 105.451 38.7972H107.35C107.642 38.7972 107.839 38.8483 107.948 38.9579C108.058 39.0675 108.109 39.2574 108.109 39.5276V48.3431L114.785 48.1824C115.04 48.1824 115.216 48.2263 115.311 48.3212C115.413 48.4089 115.457 48.5988 115.457 48.8909V50.5707C115.457 50.8775 115.405 51.082 115.311 51.1842C115.208 51.2865 115.04 51.3376 114.807 51.3376L101.726 51.6079C101.492 51.6079 101.324 51.5567 101.222 51.4618C101.119 51.3595 101.076 51.155 101.076 50.8483V49.1684C101.076 48.8763 101.127 48.6864 101.222 48.5988C101.324 48.5111 101.499 48.46 101.748 48.46L104.691 48.3943ZM101.214 31.7638C101.214 31.4935 101.266 31.3037 101.375 31.1941C101.485 31.0845 101.682 31.0334 101.974 31.0334L114.076 30.7632C114.368 30.7632 114.566 30.8216 114.69 30.9239C114.807 31.0334 114.858 31.2233 114.836 31.4936L114.237 45.1149C114.222 45.3851 114.149 45.575 114.032 45.6846C113.916 45.7941 113.711 45.8453 113.419 45.8453H111.52C111.228 45.8453 111.038 45.7941 110.936 45.6846C110.833 45.575 110.797 45.3851 110.811 45.1149L111.301 33.9914L101.967 34.1813C101.675 34.1813 101.477 34.1302 101.368 34.0206C101.258 33.9111 101.207 33.7212 101.207 33.4509V31.7638H101.214ZM120.891 42.2665V49.4606C120.891 49.7308 120.839 49.9207 120.73 50.0303C120.62 50.1398 120.423 50.191 120.131 50.191H118.232C117.94 50.191 117.743 50.1398 117.633 50.0303C117.524 49.9207 117.472 49.7308 117.472 49.4606V32.0413C117.472 31.7711 117.524 31.5812 117.633 31.4716C117.743 31.3621 117.94 31.311 118.232 31.311H120.131C120.423 31.311 120.62 31.3621 120.73 31.4716C120.839 31.5812 120.891 31.7711 120.891 32.0413V39.1259L122.928 39.0455C123.184 39.0309 123.359 39.0675 123.454 39.1697C123.556 39.272 123.6 39.4619 123.6 39.754V41.4923C123.6 41.7844 123.549 41.967 123.454 42.0474C123.352 42.1277 123.177 42.1788 122.928 42.1934L120.891 42.2665Z" fill="#191919"/>
</g>
</svg>
