<svg width="99" height="56" viewBox="0 0 99 56" fill="none" xmlns="http://www.w3.org/2000/svg">
<g opacity="0.94">
<path d="M15.7238 12.8399C15.7238 13.1101 15.6726 13.3 15.5631 13.3949C15.4535 13.4972 15.2563 13.5556 14.9642 13.5702L3.78226 13.8405C3.49011 13.8551 3.29292 13.8112 3.18337 13.6871C3.07381 13.5702 3.02268 13.373 3.02268 13.1028L2.75244 1.0006C2.75244 0.730367 2.80357 0.540472 2.91312 0.430917C3.02268 0.321362 3.21988 0.270236 3.51203 0.270236L15.344 0C15.6361 0 15.8333 0.0511259 15.9429 0.160681C16.0524 0.270236 16.1036 0.460131 16.1036 0.730367V2.41021C16.1036 2.68045 16.0524 2.87034 15.9429 2.9799C15.8333 3.08945 15.6361 3.14058 15.344 3.14058L6.229 3.35969L6.25821 5.41932L14.9715 5.20021C15.2636 5.20021 15.4608 5.25134 15.5704 5.36089C15.68 5.47045 15.7311 5.66034 15.7311 5.93058V7.61042C15.7311 7.88066 15.68 8.07056 15.5704 8.18011C15.4608 8.28967 15.2636 8.34079 14.9715 8.34079L6.34586 8.5599L6.39698 10.6195L14.9715 10.4004C15.2636 10.3858 15.4608 10.4296 15.5704 10.5538C15.68 10.6707 15.7311 10.8679 15.7311 11.1381V12.8399H15.7238ZM7.93805 24.9712C7.64591 24.9712 7.45601 24.9201 7.35376 24.8106C7.2515 24.701 7.19308 24.5111 7.17848 24.2409L6.93745 16.1849C6.92285 15.9147 6.96667 15.7248 7.08352 15.6152C7.20038 15.5057 7.40488 15.4546 7.69703 15.4546L20.9678 15.1843C21.2599 15.1843 21.4571 15.2355 21.5813 15.345C21.6982 15.4546 21.7493 15.6445 21.7274 15.9147L21.4864 23.9706C21.4717 24.2409 21.406 24.4308 21.3111 24.5403C21.2088 24.6499 21.0189 24.701 20.7268 24.701L7.93805 24.9712ZM10.5162 21.7649L18.1121 21.6043L18.2216 18.376L10.4067 18.5367L10.5162 21.7649ZM19.0104 1.00791C19.0104 0.737671 19.0615 0.547776 19.1711 0.438221C19.2807 0.328665 19.4779 0.27754 19.77 0.27754H21.6689C21.9611 0.27754 22.1583 0.335969 22.2679 0.438221C22.3774 0.547776 22.4285 0.737671 22.4285 1.00791V5.26595L24.4663 5.18561C24.7219 5.171 24.8972 5.20752 24.9921 5.30977C25.0944 5.41202 25.1382 5.60192 25.1382 5.89406V7.57391C25.1382 7.88066 25.0871 8.07786 24.9921 8.17281C24.8899 8.26045 24.7219 8.31888 24.4882 8.33349L22.4285 8.41383V12.7303C22.4285 13.0005 22.3774 13.1904 22.2679 13.3C22.1583 13.4095 21.9611 13.4607 21.6689 13.4607H19.77C19.4779 13.4607 19.2807 13.4095 19.1711 13.3C19.0615 13.1904 19.0104 13.0005 19.0104 12.7303V1.00791V1.00791Z" fill="#191919"/>
<path d="M28.1256 1.28771C28.1256 1.01748 28.1768 0.827581 28.2863 0.718026C28.3959 0.608471 28.593 0.557345 28.8852 0.557345L45.3038 0.287109C45.596 0.287109 45.8005 0.345538 45.9247 0.44779C46.0488 0.557345 46.1 0.747241 46.0634 1.01748L45.1432 13.5798L45.8224 13.5506C46.078 13.5506 46.2533 13.5944 46.3483 13.6893C46.4505 13.7843 46.4944 13.9669 46.4944 14.259V15.9389C46.4944 16.2456 46.4432 16.4501 46.3483 16.5524C46.246 16.6546 46.078 16.6985 45.8443 16.6985L38.8693 16.808V22.7751C38.8693 23.0453 38.8182 23.2352 38.7086 23.3448C38.5991 23.4543 38.4019 23.5055 38.1097 23.5055H36.2108C35.9186 23.5055 35.7214 23.4543 35.6119 23.3448C35.5023 23.2352 35.4512 23.0453 35.4512 22.7751V16.8591L28.4762 16.9687C28.2425 16.9687 28.0745 16.9176 27.9722 16.8153C27.87 16.7131 27.8262 16.5159 27.8262 16.2018V14.522C27.8262 14.2298 27.8773 14.0399 27.9722 13.9523C28.0745 13.8646 28.2498 13.8135 28.4981 13.8135L41.6885 13.6236L42.4481 3.47881L28.8779 3.69792C28.5858 3.69792 28.3886 3.6468 28.279 3.53724C28.1694 3.42769 28.1183 3.23779 28.1183 2.96756V1.28771H28.1256Z" fill="#191919"/>
<path d="M50.6423 13.28C50.3502 13.2947 50.153 13.2508 50.0434 13.134C49.9339 13.0171 49.8828 12.8199 49.8828 12.5497L49.6929 1.01718C49.6929 0.746948 49.744 0.557052 49.8536 0.447497C49.9631 0.337942 50.1603 0.286817 50.4524 0.286817H52.3514C52.6435 0.286817 52.8407 0.345246 52.9503 0.447497C53.0599 0.549748 53.111 0.746948 53.111 1.01718L53.1402 3.72685L59.5163 3.58808L59.6258 0.739644C59.6405 0.469409 59.6989 0.279513 59.8011 0.169958C59.9034 0.0604032 60.0933 0.00927734 60.3854 0.00927734H62.2844C62.5765 0.00927734 62.7737 0.0604032 62.8979 0.169958C63.0148 0.279513 63.0659 0.469409 63.044 0.739644L62.6642 12.2721C62.6496 12.5424 62.5838 12.7323 62.4889 12.8272C62.3866 12.9295 62.1968 12.9879 61.9046 13.0025L50.6423 13.28ZM53.2498 10.0737L59.3264 9.91305L59.436 6.73596L53.1986 6.87473L53.2498 10.0737ZM57.2887 21.1461L57.3179 22.154L67.7621 21.9349C68.0178 21.9349 68.1931 21.9787 68.288 22.0737C68.3903 22.1613 68.4341 22.3512 68.4341 22.6434V24.0018C68.4341 24.294 68.383 24.4839 68.288 24.5715C68.1858 24.6592 68.0105 24.7103 67.7621 24.7103L54.6594 24.9805C54.4037 24.9805 54.2358 24.9367 54.1408 24.8418C54.0532 24.7541 53.9947 24.5642 53.9801 24.2721L53.8194 19.5758C53.8048 19.2837 53.8487 19.1011 53.9582 19.0207C54.0678 18.9404 54.2504 18.8893 54.4987 18.8674L65.5418 18.2685L65.593 17.2386L53.9509 17.4577C53.6953 17.4577 53.52 17.4139 53.425 17.319C53.3301 17.224 53.279 17.0414 53.279 16.7493V15.3908C53.279 15.0987 53.3301 14.9088 53.425 14.8211C53.5273 14.7335 53.7026 14.6823 53.9509 14.6823L68.4122 14.4121C68.6678 14.4121 68.8431 14.4559 68.9526 14.5509C69.0622 14.6458 69.106 14.8284 69.0914 15.1206L68.8504 19.8972C68.8285 20.1893 68.7773 20.3719 68.6897 20.4522C68.6021 20.5326 68.4268 20.5837 68.1711 20.5983L57.2887 21.1461ZM69.369 8.15287V12.1991C69.369 12.4693 69.3178 12.6592 69.2083 12.7688C69.0987 12.8783 68.9015 12.9295 68.6094 12.9295H66.7104C66.4183 12.9295 66.2211 12.8783 66.1115 12.7688C66.002 12.6592 65.9508 12.4693 65.9508 12.1991V1.00988C65.9508 0.739644 66.002 0.549749 66.1115 0.440194C66.2211 0.330639 66.4183 0.279513 66.7104 0.279513H68.6094C68.9015 0.279513 69.0987 0.337943 69.2083 0.440194C69.3178 0.549749 69.369 0.739644 69.369 1.00988V4.99768L71.4067 4.91734C71.6623 4.90274 71.8376 4.93925 71.9325 5.04151C72.0348 5.14376 72.0786 5.33365 72.0786 5.6258V7.36407C72.0786 7.65622 72.0275 7.83881 71.9325 7.91915C71.8303 7.99949 71.655 8.05062 71.4067 8.07253L69.369 8.15287Z" fill="#191919"/>
<path d="M92.1338 10.9429L87.8174 11.0524L87.7662 12.5424C87.7516 12.8126 87.6859 13.0025 87.5909 13.0975C87.4887 13.1997 87.2988 13.2581 87.0067 13.2727L75.7444 13.543C75.4522 13.5649 75.255 13.5138 75.1455 13.3969C75.0359 13.28 74.9848 13.0828 74.9848 12.8126L74.7949 1.00988C74.7949 0.739644 74.846 0.549749 74.9556 0.440194C75.0652 0.330639 75.2623 0.279513 75.5545 0.279513L87.3864 0.00927734C87.6786 0.00927734 87.8758 0.0604032 87.9999 0.169958C88.1168 0.279513 88.1679 0.469409 88.146 0.739644L88.0949 2.4487L92.1411 2.33915V1.00988C92.1411 0.739644 92.1923 0.549749 92.3018 0.440194C92.4114 0.330639 92.6086 0.279513 92.9007 0.279513H94.7997C95.0918 0.279513 95.289 0.337943 95.3986 0.440194C95.5081 0.542445 95.5593 0.739644 95.5593 1.00988V12.7323C95.5593 13.0025 95.5081 13.1924 95.3986 13.302C95.289 13.4115 95.0918 13.4626 94.7997 13.4626H92.9007C92.6086 13.4626 92.4114 13.4115 92.3018 13.302C92.1923 13.1924 92.1411 13.0025 92.1411 12.7323V10.9429H92.1338ZM78.3445 10.344L84.4212 10.1833L84.6403 3.20828L78.2349 3.36896L78.3445 10.344ZM87.0578 25.5137C85.8673 25.5137 84.8301 25.3676 83.9537 25.0682C83.0773 24.7687 82.3469 24.3743 81.7699 23.8777C81.1929 23.381 80.762 22.804 80.4845 22.154C80.2069 21.504 80.0609 20.8247 80.0609 20.1163C80.0609 19.4078 80.1996 18.7359 80.4845 18.0786C80.762 17.4285 81.1929 16.8515 81.7699 16.3549C82.3469 15.8582 83.0773 15.4565 83.9537 15.1644C84.8301 14.8649 85.8673 14.7189 87.0578 14.7189C88.2483 14.7189 89.2854 14.8649 90.1618 15.1644C91.0383 15.4638 91.7687 15.8582 92.3456 16.3549C92.9226 16.8515 93.3535 17.4285 93.6311 18.0786C93.9086 18.7286 94.0547 19.4078 94.0547 20.1163C94.0547 20.8247 93.9159 21.504 93.6311 22.154C93.3535 22.804 92.9226 23.381 92.3456 23.8777C91.7687 24.3743 91.0383 24.776 90.1618 25.0682C89.2854 25.3676 88.2483 25.5137 87.0578 25.5137ZM87.0578 22.5557C88.2483 22.5557 89.132 22.322 89.7017 21.8619C90.2714 21.4017 90.5562 20.8174 90.5562 20.109C90.5562 19.4005 90.2714 18.8235 89.7017 18.3561C89.132 17.896 88.2483 17.6622 87.0578 17.6622C85.8673 17.6622 84.9835 17.896 84.4138 18.3561C83.8442 18.8162 83.5593 19.4005 83.5593 20.109C83.5593 20.8174 83.8442 21.3944 84.4138 21.8619C84.9835 22.3293 85.86 22.5557 87.0578 22.5557ZM87.8977 7.90454L92.1338 7.79499V5.48703L87.9853 5.59658L87.8977 7.90454Z" fill="#191919"/>
<path d="M5.84841 31.2873V29.8192C5.84841 29.549 5.89954 29.3591 6.00909 29.2495C6.11865 29.14 6.31585 29.0889 6.608 29.0889H8.50695C8.7991 29.0889 8.9963 29.14 9.10585 29.2495C9.21541 29.3591 9.26654 29.549 9.26654 29.8192V31.1996L14.0723 31.0901C14.328 31.0901 14.5033 31.1339 14.5982 31.2288C14.7005 31.3165 14.7443 31.5064 14.7443 31.7985V33.4784C14.7443 33.7851 14.6932 33.9896 14.5982 34.0919C14.496 34.1941 14.328 34.238 14.0943 34.238L9.26654 34.3475V37.6049C9.26654 37.9336 9.27384 38.2038 9.29575 38.4157C9.31035 38.6348 9.44912 38.832 9.70475 39.0146L14.8319 42.6518C15.0145 42.7979 15.0949 42.9293 15.0876 43.0608C15.0803 43.185 14.9999 43.3383 14.8538 43.5209L13.6049 45.0109C13.4588 45.1935 13.3128 45.2811 13.174 45.2811C13.0279 45.2811 12.8599 45.2081 12.6554 45.062L7.57938 41.454L2.58367 45.4126C2.38647 45.5586 2.21849 45.6244 2.09433 45.6171C1.97016 45.6098 1.81678 45.5148 1.63419 45.3322L0.246499 43.9518C-0.0821663 43.6232 -0.0821663 43.331 0.246499 43.0535L5.40289 38.9853C5.63661 38.7881 5.76808 38.5836 5.79729 38.3718C5.82651 38.1673 5.84111 37.8971 5.84111 37.5684V34.4205L0.954956 34.5009C0.721238 34.5009 0.553252 34.4498 0.451001 34.3548C0.348749 34.2526 0.30493 34.0554 0.30493 33.7413V32.0615C0.30493 31.7693 0.356053 31.5794 0.451001 31.4918C0.553252 31.4041 0.728541 31.353 0.976866 31.353L5.84841 31.2873ZM5.49053 55.5136C5.19838 55.5136 5.00119 55.4624 4.89163 55.3529C4.78208 55.2433 4.73095 55.0534 4.73095 54.7832V47.2969C4.73095 47.0267 4.78208 46.8368 4.89163 46.7272C5.00119 46.6177 5.19838 46.5666 5.49053 46.5666H7.38949C7.68163 46.5666 7.87884 46.6177 7.98839 46.7272C8.09795 46.8368 8.14908 47.0267 8.14908 47.2969V52.3145L19.9518 52.0954C20.2074 52.0954 20.3827 52.1393 20.4777 52.2342C20.5799 52.3218 20.6237 52.5117 20.6237 52.8039V54.5422C20.6237 54.8343 20.5799 55.0242 20.485 55.1118C20.39 55.1995 20.222 55.2506 19.9664 55.2506L5.49053 55.5136ZM17.7826 36.1734V31.5575C17.7826 31.2873 17.8337 31.0974 17.9433 30.9878C18.0529 30.8783 18.25 30.8271 18.5422 30.8271H20.4411C20.7333 30.8271 20.9305 30.8856 21.04 30.9878C21.1496 31.0901 21.2007 31.2873 21.2007 31.5575V45.7193C21.2007 45.9896 21.1496 46.1795 21.04 46.289C20.9305 46.3986 20.7333 46.4497 20.4411 46.4497H18.5422C18.25 46.4497 18.0529 46.3986 17.9433 46.289C17.8337 46.1795 17.7826 45.9896 17.7826 45.7193V39.314L13.9847 39.3943C13.7291 39.3943 13.5538 39.3505 13.4588 39.2556C13.3639 39.1606 13.3128 38.978 13.3128 38.6859V36.9476C13.3128 36.6555 13.3639 36.4656 13.4588 36.3779C13.5611 36.2903 13.7364 36.2392 13.9847 36.2392L17.7826 36.1734Z" fill="#191919"/>
<path d="M35.6384 30.8276C35.894 30.8276 36.0693 30.8715 36.1643 30.9664C36.2592 31.0614 36.3104 31.2439 36.3104 31.5361V33.2159C36.3104 33.5227 36.2592 33.7272 36.1643 33.8294C36.062 33.9317 35.894 33.9755 35.6603 33.9755L32.0523 34.0851V40.4101C32.0523 40.7387 32.0815 40.987 32.1473 41.1696C32.213 41.3522 32.3226 41.564 32.4832 41.8197L36.5295 48.5756C36.7486 48.9188 36.6901 49.1964 36.3688 49.4155L34.6597 50.5548C34.3164 50.774 34.0389 50.7082 33.8198 50.365L30.3432 44.6973L26.7864 50.7228C26.6768 50.92 26.5673 51.0369 26.4504 51.0734C26.3335 51.1099 26.1656 51.0515 25.9464 50.9127L24.2374 49.7734C23.9306 49.5762 23.8722 49.3059 24.0767 48.9626L28.2033 41.827C28.3494 41.5713 28.4589 41.3595 28.532 41.1769C28.605 40.9943 28.6415 40.746 28.6415 40.4174V34.18L24.975 34.2604C24.7413 34.2604 24.5734 34.2092 24.4711 34.1143C24.3689 34.012 24.325 33.8075 24.325 33.5008V31.8209C24.325 31.5288 24.3762 31.3389 24.4711 31.2513C24.5734 31.1636 24.7487 31.1125 24.997 31.1125L35.6384 30.8276ZM44.5343 41.9803L41.7662 42.0315V49.5177C41.7662 49.788 41.7151 49.9779 41.6055 50.0874C41.496 50.197 41.2988 50.2481 41.0066 50.2481H39.1077C38.8155 50.2481 38.6183 50.197 38.5088 50.0874C38.3992 49.9779 38.3481 49.788 38.3481 49.5177V32.0985C38.3481 31.8282 38.3992 31.6383 38.5088 31.5288C38.6183 31.4192 38.8155 31.3681 39.1077 31.3681H41.0066C41.2988 31.3681 41.496 31.4192 41.6055 31.5288C41.7151 31.6383 41.7662 31.8282 41.7662 32.0985V38.8836L44.5343 38.8325V31.8355C44.5343 31.5653 44.5854 31.3754 44.695 31.2659C44.8045 31.1563 45.0017 31.1052 45.2939 31.1052H47.1928C47.485 31.1052 47.6822 31.1563 47.7917 31.2659C47.9013 31.3754 47.9524 31.5653 47.9524 31.8355V49.2548C47.9524 49.525 47.9013 49.7149 47.7917 49.8245C47.6822 49.934 47.485 49.9852 47.1928 49.9852H45.2939C45.0017 49.9852 44.8045 49.934 44.695 49.8245C44.5854 49.7149 44.5343 49.525 44.5343 49.2548V41.9803Z" fill="#191919"/>
<path d="M55.9063 31.4187V29.8192C55.9063 29.549 55.9574 29.3591 56.067 29.2495C56.1765 29.14 56.3737 29.0889 56.6659 29.0889H58.5648C58.857 29.0889 59.0542 29.14 59.1637 29.2495C59.2733 29.3591 59.3244 29.549 59.3244 29.8192V31.3384L64.1302 31.2288C64.3859 31.2288 64.5611 31.2727 64.6561 31.3676C64.7583 31.4626 64.8022 31.6452 64.8022 31.9373V33.6171C64.8022 33.9239 64.751 34.1284 64.6561 34.2307C64.5538 34.3329 64.3859 34.3767 64.1521 34.3767L51.0201 34.647C50.7864 34.647 50.6184 34.5958 50.5162 34.5009C50.4139 34.3986 50.3701 34.2014 50.3701 33.8874V32.2075C50.3701 31.9154 50.4212 31.7255 50.5162 31.6378C50.6184 31.5502 50.7937 31.4991 51.042 31.4991L55.9063 31.4187ZM57.8856 45.4783C55.7529 45.4783 54.095 45.0693 52.9191 44.244C51.7432 43.4187 51.1589 42.2136 51.1589 40.6214C51.1589 39.0292 51.7432 37.8168 52.9191 36.9841C54.095 36.1515 55.7529 35.7352 57.8856 35.7352C60.0183 35.7352 61.6762 36.1515 62.8521 36.9841C64.028 37.8168 64.6196 39.0292 64.6196 40.6214C64.6196 42.2136 64.028 43.4187 62.8521 44.244C61.6762 45.0693 60.0183 45.4783 57.8856 45.4783ZM67.2781 55.5136C66.986 55.5136 66.7815 55.4624 66.6646 55.3529C66.5477 55.2433 66.4966 55.0534 66.5185 54.7832L66.6792 50.0066L55.1175 50.2257C54.8619 50.2257 54.6866 50.1819 54.5916 50.0869C54.4894 49.9993 54.4456 49.8094 54.4456 49.5172V47.779C54.4456 47.4868 54.4967 47.2969 54.5916 47.2093C54.6939 47.1216 54.8692 47.0705 55.1175 47.0705L69.4984 46.8003C69.7541 46.8003 69.9293 46.8441 70.0389 46.939C70.1484 47.0267 70.1923 47.2166 70.1777 47.5087L69.9367 54.7832C69.922 55.0534 69.8563 55.2433 69.7614 55.3529C69.6591 55.4624 69.4692 55.5136 69.1771 55.5136H67.2781V55.5136ZM57.8856 42.6007C58.8643 42.6007 59.6458 42.44 60.2447 42.1259C60.8436 41.8119 61.143 41.3079 61.143 40.6214C61.143 39.9348 60.8436 39.4309 60.2447 39.1022C59.6458 38.7735 58.8643 38.6129 57.8856 38.6129C56.9069 38.6129 56.1181 38.7735 55.5265 39.1022C54.9276 39.4309 54.6281 39.9348 54.6281 40.6214C54.6281 41.3079 54.9276 41.8119 55.5265 42.1259C56.1254 42.44 56.9069 42.6007 57.8856 42.6007ZM67.1686 31.5575C67.1686 31.2873 67.2197 31.0974 67.3292 30.9878C67.4388 30.8783 67.636 30.8271 67.9281 30.8271H69.8271C70.1192 30.8271 70.3164 30.8856 70.426 30.9878C70.5355 31.0974 70.5867 31.2873 70.5867 31.5575V36.3633L72.6244 36.283C72.88 36.2684 73.0553 36.3049 73.1503 36.4071C73.2525 36.5094 73.2963 36.6993 73.2963 36.9914V38.6713C73.2963 38.978 73.2452 39.1752 73.1503 39.2702C73.048 39.3578 72.88 39.4163 72.6463 39.4309L70.5867 39.5112V44.3681C70.5867 44.6384 70.5355 44.8283 70.426 44.9378C70.3164 45.0474 70.1192 45.0985 69.8271 45.0985H67.9281C67.636 45.0985 67.4388 45.0474 67.3292 44.9378C67.2197 44.8283 67.1686 44.6384 67.1686 44.3681V31.5575V31.5575Z" fill="#191919"/>
<path d="M79.484 48.4587V39.592C79.484 39.3218 79.5351 39.1319 79.6446 39.0224C79.7542 38.9128 79.9514 38.8617 80.2435 38.8617H82.1425C82.4346 38.8617 82.6319 38.9128 82.7414 39.0224C82.851 39.1319 82.9021 39.3218 82.9021 39.592V48.4076L89.5776 48.2469C89.8333 48.2469 90.0086 48.2907 90.1035 48.3857C90.2057 48.4733 90.2496 48.6632 90.2496 48.9553V50.6352C90.2496 50.9419 90.1984 51.1464 90.1035 51.2487C90.0012 51.3509 89.8333 51.4021 89.5995 51.4021L76.5187 51.6723C76.2849 51.6723 76.117 51.6212 76.0147 51.5262C75.9125 51.424 75.8687 51.2195 75.8687 50.9127V49.2329C75.8687 48.9407 75.9198 48.7508 76.0147 48.6632C76.117 48.5756 76.2923 48.5244 76.5406 48.5244L79.484 48.4587ZM76.0147 31.8282C76.0147 31.558 76.0658 31.3681 76.1754 31.2586C76.2849 31.149 76.4822 31.0979 76.7743 31.0979L88.8765 30.8276C89.1686 30.8276 89.3658 30.8861 89.49 30.9883C89.6069 31.0979 89.658 31.2878 89.6361 31.558L89.0372 45.1793C89.0226 45.4496 88.9495 45.6395 88.8327 45.749C88.7158 45.8586 88.5113 45.9097 88.2192 45.9097H86.3202C86.0281 45.9097 85.8381 45.8586 85.7359 45.749C85.6336 45.6395 85.5971 45.4496 85.6117 45.1793L86.1011 34.0559L76.767 34.2458C76.4748 34.2458 76.2777 34.1946 76.1681 34.0851C76.0586 33.9755 76.0074 33.7856 76.0074 33.5154V31.8282H76.0147ZM95.6835 42.3309V49.525C95.6835 49.7953 95.6324 49.9852 95.5228 50.0947C95.4133 50.2043 95.2161 50.2554 94.9239 50.2554H93.025C92.7328 50.2554 92.5356 50.2043 92.4261 50.0947C92.3165 49.9852 92.2654 49.7953 92.2654 49.525V32.0985C92.2654 31.8282 92.3165 31.6383 92.4261 31.5288C92.5356 31.4192 92.7328 31.3681 93.025 31.3681H94.9239C95.2161 31.3681 95.4133 31.4192 95.5228 31.5288C95.6324 31.6383 95.6835 31.8282 95.6835 32.0985V39.183L97.7212 39.1027C97.9768 39.0881 98.1521 39.1246 98.2471 39.2269C98.3493 39.3291 98.3932 39.519 98.3932 39.8112V41.5494C98.3932 41.8416 98.342 42.0242 98.2471 42.1045C98.1448 42.1848 97.9695 42.236 97.7212 42.2506L95.6835 42.3309Z" fill="#191919"/>
</g>
</svg>
