<svg width="175" height="81" viewBox="0 0 175 81" fill="none" xmlns="http://www.w3.org/2000/svg">
<path d="M19.1203 30.6344C19.7271 30.4839 20.5274 30.1389 21.0394 29.3164C21.5995 29.4869 22.1641 29.4681 22.6463 29.3656L25.9538 28.6645L25.955 28.6643C26.6992 28.5061 27.5399 28.0866 28.032 27.1835C28.4864 26.3497 28.4358 25.4729 28.2983 24.8316C28.298 24.8304 28.2977 24.8291 28.2975 24.8279L27.5615 21.3549C27.9856 21.1679 28.4223 20.8726 28.7612 20.4056C29.2933 19.6725 29.3506 18.8435 29.2115 18.1702L29.2116 18.1702L29.2094 18.16L28.5081 14.8513L28.5081 14.8513L28.5052 14.8381C28.3674 14.2088 28.0071 13.4018 27.1521 12.9211C26.654 12.641 26.1469 12.5627 25.6997 12.5771L25.0203 9.38022C25.0199 9.37821 25.0195 9.37621 25.0191 9.3742C24.8859 8.73434 24.5794 7.91113 23.8277 7.33106C23.0102 6.70021 22.0687 6.65834 21.3236 6.81649C21.3234 6.81652 21.3232 6.81656 21.3231 6.8166C21.3229 6.81665 21.3226 6.81669 21.3224 6.81674L18.0149 7.51782L18.0105 7.51875C17.6435 7.59739 17.2542 7.73978 16.8952 7.97182C16.1376 7.54509 15.3195 7.55293 14.6698 7.71087L4.32596 10.164L4.30788 10.1683L4.28987 10.1729C3.72016 10.3193 3.01273 10.6349 2.51562 11.3198C1.9835 12.053 1.92623 12.882 2.06526 13.5552L2.0694 13.5753L2.07395 13.5952L5.8995 30.3779C6.03386 31.0083 6.33573 31.8518 7.1039 32.4366C7.95857 33.0873 8.92776 33.0806 9.64743 32.905L19.105 30.6381L19.1127 30.6363L19.1203 30.6344Z" fill="#2654A4" stroke="white" stroke-width="4"/>
<path d="M43.8226 23.6416L47.1843 23.2062C47.7502 23.1398 48.5096 22.923 49.0905 22.2725C49.7142 21.5741 49.8177 20.7345 49.7426 20.0879L49.4094 17.1286L49.4095 17.1286L49.4081 17.1174C49.3334 16.4851 49.0497 15.6934 48.2897 15.1511C48.2042 15.09 48.1176 15.0357 48.0304 14.9875L47.6223 5.03312C47.6045 4.41578 47.4675 3.43427 46.666 2.70996C45.833 1.95717 44.8193 1.9604 44.2279 2.02896L44.214 2.03057L44.2002 2.03238L28.8304 4.03271C28.2646 4.09928 27.5055 4.31617 26.9249 4.96636C26.3006 5.66539 26.1975 6.50591 26.2729 7.15276L26.6685 10.6168L26.6685 10.6168L26.6693 10.6236C26.7308 11.1467 26.9348 11.8488 27.5142 12.3938C27.3971 12.8127 27.393 13.2228 27.4324 13.5608C27.4325 13.5621 27.4327 13.5634 27.4328 13.5647L27.7997 16.7709L27.8005 16.7772C27.8341 17.063 27.9102 17.401 28.066 17.7373C27.468 18.4297 27.3694 19.2538 27.4438 19.8903C27.4439 19.8918 27.4441 19.8934 27.4443 19.8949L27.7828 22.8512L27.7828 22.8512L27.7837 22.8586C27.8585 23.491 28.1421 24.2826 28.9021 24.825C29.621 25.3381 30.4198 25.3763 30.9882 25.3126L31.0039 25.3108L31.0195 25.3088L34.3458 24.8824L34.5236 26.4502C34.5238 26.4515 34.5239 26.4528 34.524 26.4541C34.5803 26.9649 34.7296 27.8914 35.4576 28.5854C36.2845 29.3737 37.3046 29.3744 37.9054 29.305C37.906 29.3049 37.9066 29.3049 37.9072 29.3048L41.3655 28.9093L41.3686 28.9089C41.9683 28.8394 42.9581 28.6072 43.5852 27.6569C44.1388 26.818 44.0782 25.8827 44.0188 25.3705C44.0187 25.3697 44.0186 25.3688 44.0185 25.368L43.8226 23.6416Z" fill="#2654A4" stroke="white" stroke-width="4"/>
<path d="M66.3204 25.2639C66.2083 25.4257 66.0717 25.5821 65.9059 25.7281C65.2499 26.3056 64.4693 26.4067 64.0397 26.4348L64.0177 26.4362L63.9956 26.4372L50.9317 27.002C50.3963 27.0335 49.5716 26.9726 48.8622 26.383C48.0991 25.7488 47.9131 24.8812 47.8999 24.2637C47.8999 24.2615 47.8998 24.2594 47.8998 24.2573L47.8265 21.2871L47.8262 21.2766C47.8142 20.6553 47.9652 19.7792 48.7171 19.1173C49.2064 18.6866 49.765 18.5209 50.1956 18.4528C48.5024 16.7733 47.5882 14.4788 47.5267 11.9946L66.3204 25.2639ZM66.3204 25.2639C66.5297 25.2954 66.7352 25.3062 66.9303 25.3017L66.931 25.3016L70.3126 25.2225C70.3128 25.2225 70.313 25.2225 70.3133 25.2225C71.0814 25.2046 71.9855 24.9422 72.6333 24.1429C73.2299 23.4068 73.3408 22.5371 73.3235 21.8825C73.3234 21.8814 73.3234 21.8802 73.3234 21.879L72.9391 6.08457C72.9391 6.08287 72.939 6.08116 72.939 6.07946C72.9251 5.42924 72.7766 4.564 72.1452 3.8552C71.4576 3.08336 70.5394 2.86944 69.7791 2.88698L69.7785 2.887L66.3969 2.96616C66.3967 2.96617 66.3966 2.96617 66.3964 2.96617C66.3963 2.96618 66.3963 2.96618 66.3962 2.96618C65.628 2.98405 64.724 3.24646 64.0762 4.04571C63.8894 4.27616 63.7503 4.51969 63.6477 4.76562M66.3204 25.2639L63.6477 4.76562M63.6477 4.76562C61.9019 3.20148 59.543 2.35219 56.853 2.41759L63.6477 4.76562ZM49.9664 5.31172C51.6419 3.52915 54.0378 2.48581 56.8528 2.4176L49.9664 5.31172ZM49.9664 5.31172C48.2989 7.08574 47.4641 9.4653 47.5267 11.9945L49.9664 5.31172ZM57.5037 11.7546L57.5038 11.7555C57.5071 11.8949 57.4867 11.9745 57.4747 12.0085C57.4691 12.0244 57.4645 12.0328 57.4622 12.0365C57.4388 12.0536 57.3388 12.1104 57.0845 12.1175C56.9226 12.1209 56.8262 12.0977 56.7802 12.0818C56.7526 12.0723 56.7394 12.0643 56.7349 12.0611C56.7323 12.0576 56.7268 12.0488 56.7197 12.0313C56.7057 11.9969 56.6815 11.9177 56.6781 11.7788C56.6733 11.5729 56.7126 11.4857 56.7272 11.4618C56.7319 11.4584 56.7434 11.4513 56.7657 11.4423C56.8087 11.4251 56.9028 11.3974 57.0659 11.3937L57.0725 11.3935C57.3153 11.3872 57.4172 11.4334 57.4445 11.4501C57.4474 11.4545 57.4526 11.4636 57.4592 11.4799C57.4744 11.5177 57.5002 11.6037 57.5037 11.7546ZM57.4679 12.0317C57.468 12.0318 57.4665 12.0334 57.4631 12.0359C57.4661 12.0329 57.4678 12.0316 57.4679 12.0317ZM56.7364 12.0629C56.7364 12.063 56.736 12.0626 56.7352 12.0616C56.736 12.0624 56.7364 12.0629 56.7364 12.0629ZM56.7325 11.4547C56.7326 11.4548 56.7313 11.457 56.7278 11.4607C56.7306 11.4564 56.7323 11.4545 56.7325 11.4547ZM56.726 11.4627C56.7251 11.4636 56.7245 11.464 56.7245 11.464C56.7244 11.464 56.7249 11.4636 56.726 11.4627ZM57.4524 11.4558C57.4523 11.456 57.4501 11.4546 57.4463 11.4512C57.4506 11.454 57.4525 11.4557 57.4524 11.4558Z" fill="#2654A4" stroke="white" stroke-width="4"/>
<path d="M19.2402 35.3225V35.3372L19.2405 35.3519L19.7042 66.912L19.7045 66.9285L19.705 66.9451C19.7335 67.8572 19.8841 69.0124 20.64 69.9132C21.5017 70.9399 22.7027 71.1481 23.681 71.1157C23.6815 71.1156 23.6821 71.1156 23.6826 71.1156L38.7616 70.652L38.7714 70.6517L38.7813 70.6513C39.4672 70.6234 40.4385 70.4932 41.235 69.8298C41.6735 69.4646 41.9554 69.0301 42.1291 68.579C42.9361 69.4337 44.0145 69.731 45.0348 69.731H50.1081C51.1827 69.731 52.3218 69.4012 53.1403 68.4378C53.2395 68.3211 53.3292 68.2004 53.4103 68.0767C54.2206 68.9566 55.3134 69.2616 56.3466 69.2616H61.42C62.4946 69.2616 63.6336 68.9317 64.4522 67.9683C65.2173 67.0678 65.4222 65.9343 65.4222 64.9313V35.7863C65.4222 34.7833 65.2173 33.6498 64.4522 32.7493C63.6336 31.7859 62.4946 31.456 61.42 31.456H56.3466C55.2721 31.456 54.133 31.7859 53.3145 32.7493C53.2153 32.866 53.1256 32.9866 53.0445 33.1103C52.2342 32.2304 51.1414 31.9255 50.1081 31.9255H45.0348C44.1616 31.9255 43.2459 32.1432 42.4941 32.7418C42.331 32.4253 42.108 32.1229 41.8085 31.8538C40.9953 31.1232 39.9796 30.9674 39.1472 30.999L22.9533 31.4625L22.9533 31.4625L22.9478 31.4627C22.0644 31.4904 20.8979 31.6769 20.0733 32.6282C19.2972 33.5235 19.2402 34.6437 19.2402 35.3225ZM41.0326 44.1655V58.0388C40.2661 57.4859 39.3681 57.3655 38.6194 57.3958L38.6181 57.3958L33.9185 57.5887L33.7417 44.7431L39.2887 44.5381L39.296 44.5378C39.7853 44.5179 40.4198 44.446 41.0326 44.1655Z" fill="#FFCC51" stroke="white" stroke-width="4"/>
<path d="M82.3359 44.1362C81.7667 43.8859 81.1945 43.8659 80.824 43.8776L79.3112 43.9173C79.1937 43.4599 78.9731 42.9829 78.5667 42.5707C77.788 41.7809 76.7919 41.6992 76.2278 41.6992H72.1611C71.5971 41.6992 70.6009 41.7809 69.8222 42.5707C69.3477 43.0519 69.1265 43.6214 69.027 44.1451L67.4118 44.1711L67.3937 44.1714L67.3756 44.172C66.87 44.1894 65.84 44.2738 65.0803 45.1278C64.374 45.9217 64.3242 46.9225 64.3242 47.4944V49.9094C64.3242 50.4803 64.3746 51.4763 65.0575 52.2711C65.4587 52.7382 65.9363 52.9841 66.3868 53.1102C65.5852 54.2423 65.1783 55.6043 65.1783 57.0981C65.1783 59.3373 66.0905 61.2808 67.8752 62.5984C68.2215 62.8541 68.5925 63.0804 68.9858 63.2787C68.81 63.7011 68.7472 64.1367 68.7472 64.5244V68.1781C68.7472 68.879 68.9451 69.7828 69.7104 70.456C70.4345 71.0931 71.3064 71.2006 71.9327 71.1782L80.0016 70.946L79.9702 71.7164L79.9697 71.7281L79.9694 71.7398C79.9473 72.4992 80.0941 73.4409 80.7606 74.2088C81.4636 75.019 82.4202 75.2685 83.2355 75.2685H87.1833C88.017 75.2685 88.952 74.9992 89.6371 74.1963C90.2612 73.465 90.4273 72.5765 90.4491 71.8653L90.7147 64.7746L90.715 64.7654L90.7153 64.7562C90.7293 64.2596 90.6741 63.6756 90.4429 63.113C90.5174 63.0423 90.5897 62.9662 90.6594 62.8845C91.3052 62.1278 91.4514 61.2077 91.4514 60.486V58.5936C92.0118 58.5178 92.6323 58.3094 93.1596 57.8336C93.8559 57.2053 94.104 56.3715 94.104 55.6276V51.6797C94.104 50.9788 93.906 50.075 93.1408 49.4018C92.6054 48.9309 91.9893 48.7493 91.4514 48.6957V47.0532C91.4514 46.3316 91.3052 45.4114 90.6594 44.6548C89.9614 43.8369 89.0069 43.5826 88.1844 43.5826H84.2366C83.6227 43.5826 82.9353 43.7243 82.3359 44.1362ZM74.4785 56.4883C74.4797 56.4875 74.4808 56.4867 74.4819 56.4859C74.4832 56.4868 74.4844 56.4877 74.4857 56.4887C74.4868 56.4894 74.4879 56.4902 74.489 56.491C74.4919 56.4931 74.4947 56.4953 74.4976 56.4975C74.5934 56.5698 74.691 56.6788 74.7588 56.8184C74.8269 56.9587 74.8342 57.0665 74.8342 57.0981C74.8342 57.1331 74.8262 57.2417 74.7583 57.3813C74.6888 57.5242 74.5884 57.6342 74.4915 57.7055C74.4911 57.7058 74.4906 57.7062 74.4902 57.7065C74.4887 57.7076 74.4872 57.7087 74.4857 57.7097C74.4839 57.711 74.4821 57.7123 74.4804 57.7136C74.4798 57.7131 74.4791 57.7127 74.4785 57.7122C74.3888 57.6469 74.2895 57.5425 74.2186 57.4005C74.1483 57.2596 74.1373 57.145 74.1373 57.0981C74.1373 57.0547 74.1475 56.942 74.2171 56.802C74.2875 56.6604 74.3869 56.555 74.4785 56.4883ZM74.6147 56.4137C74.6189 56.4125 74.6211 56.412 74.6211 56.4121C74.6212 56.4122 74.6191 56.4128 74.6147 56.4137Z" fill="#2654A4" stroke="white" stroke-width="4"/>
<path d="M95.9208 60.212C95.7641 60.3086 95.6119 60.4209 95.4664 60.5509C94.6406 61.2889 94.3799 62.2813 94.3799 63.1529V68.6448C94.3799 69.5103 94.6356 70.5029 95.4582 71.2441C96.2427 71.951 97.2249 72.1379 98.054 72.1379H98.0705L98.0869 72.1377L126.29 71.6741C127.11 71.6714 128.08 71.4847 128.859 70.7886C129.685 70.0506 129.946 69.0582 129.946 68.1866V62.6947C129.946 61.8287 129.688 60.8377 128.865 60.0984C128.607 59.8668 128.328 59.6911 128.04 59.5596C128.049 59.5494 128.058 59.5391 128.067 59.5287C128.835 58.63 128.986 57.4777 129.012 56.5594C129.012 56.5586 129.012 56.5578 129.012 56.557L129.662 35.285L129.662 35.2794C129.688 34.3574 129.595 33.1447 128.785 32.1966C127.911 31.1735 126.68 30.9897 125.751 30.9897H125.734L125.718 30.99L97.9841 31.4536C97.076 31.4573 96.0508 31.7303 95.2992 32.5974C94.5911 33.4143 94.4195 34.4288 94.4195 35.2691V35.2842L94.4197 35.2993L94.7477 56.9955L94.748 57.0116L94.7485 57.0277C94.7782 57.9778 94.9536 59.1189 95.7261 60.0063C95.7894 60.079 95.8544 60.1475 95.9208 60.212ZM115.01 43.9789L114.94 47.8446L108.967 47.9843L108.923 44.118L115.01 43.9789Z" fill="#FFCC51" stroke="white" stroke-width="4"/>
<path d="M156.157 31.4533L152.515 31.544C152.45 30.6985 152.208 29.7706 151.491 29.0444C150.597 28.1381 149.426 28.0137 148.624 28.0137H142.199C141.396 28.0137 140.223 28.1371 139.328 29.046C138.521 29.8657 138.319 30.9414 138.291 31.8625L134.481 31.9222L134.462 31.9225L134.443 31.9231C133.699 31.9489 132.506 32.0753 131.643 33.045C130.834 33.9546 130.742 35.1445 130.742 36.0146V39.8267C130.742 40.7019 130.837 41.8947 131.622 42.809C132.504 43.8356 133.732 43.9516 134.567 43.9244L135.297 43.9088C133.181 45.7328 132.094 48.2601 132.094 51.1952C132.094 54.391 133.383 57.1033 135.885 58.9508C137.221 59.937 138.844 60.6343 140.697 61.0614C140.255 61.8644 140.217 62.7407 140.24 63.3701C140.24 63.3704 140.24 63.3706 140.24 63.3708C140.24 63.3708 140.24 63.3709 140.24 63.3709L140.658 75.1062L140.659 75.1179L140.659 75.1296C140.699 75.9653 140.951 76.9687 141.745 77.7463C142.556 78.5413 143.617 78.7914 144.623 78.7593L166.72 78.2958L166.738 78.2954L166.756 78.2947C167.676 78.2589 168.687 78.0166 169.479 77.2707C170.291 76.5049 170.551 75.5121 170.588 74.6557H170.588L170.588 74.6424L171.007 62.9068C171.007 62.9067 171.007 62.9067 171.007 62.9067C171.007 62.9066 171.007 62.9065 171.007 62.9064C171.036 62.0863 170.848 61.2621 170.386 60.5629C170.877 60.3586 171.336 60.0445 171.723 59.5883C172.489 58.6878 172.694 57.5543 172.694 56.5513V35.3189C172.694 34.316 172.489 33.1825 171.723 32.2819C170.905 31.3185 169.766 30.9887 168.691 30.9887H162.453C161.378 30.9887 160.239 31.3185 159.421 32.2819C159.328 32.3911 159.243 32.5038 159.166 32.6192C159.157 32.6072 159.147 32.5953 159.137 32.5835C158.25 31.5289 156.99 31.4265 156.157 31.4533ZM159.033 59.036L155.117 59.1151C156.52 58.1429 157.611 56.8799 158.317 55.3209L158.451 55.3192V56.5513C158.451 57.3581 158.583 58.2494 159.033 59.036ZM145.646 51.2879V51.2879H145.638C145.407 51.2879 145.235 51.2623 145.117 51.2308C145.081 51.2214 145.053 51.2121 145.03 51.2037C145.03 51.2009 145.03 51.1981 145.03 51.1952C145.03 51.1922 145.03 51.1894 145.03 51.1867C145.053 51.1783 145.081 51.1689 145.117 51.1595C145.235 51.1281 145.407 51.1025 145.638 51.1025C145.852 51.1025 146.018 51.127 146.137 51.1586C146.183 51.1711 146.219 51.1837 146.245 51.1946C146.245 51.1948 146.245 51.195 146.245 51.1952C146.245 51.1965 146.245 51.1979 146.245 51.1993C146.22 51.2096 146.185 51.2217 146.141 51.2336C146.024 51.2646 145.859 51.2887 145.646 51.2879ZM145.037 51.1088C145.037 51.1088 145.037 51.1095 145.037 51.1109L145.037 51.1088ZM145.037 51.2793C145.037 51.2807 145.037 51.2815 145.037 51.2815L145.037 51.2793ZM146.239 51.2687C146.239 51.2687 146.239 51.268 146.24 51.2666L146.239 51.2687ZM146.24 51.1264C146.24 51.125 146.24 51.1243 146.24 51.1244L146.24 51.1264Z" fill="#FFCC51" stroke="white" stroke-width="4"/>
</svg>
