<svg width="351" height="222" viewBox="0 0 351 222" fill="none" xmlns="http://www.w3.org/2000/svg">
<path d="M13.6418 218.012C11.492 211.776 10.0641 205.479 8.9787 199.209C8.162 194.478 7.14508 189.72 6.91851 184.895C6.69721 180.175 5.45899 175.482 4.76348 170.773C3.88355 164.796 3.12482 158.808 2.2765 152.825C1.31227 146.032 0.695797 139.216 0.284813 132.395C0.0687835 128.756 0.279544 125.106 0.0740525 121.461C-0.12617 117.882 0.137281 114.315 0.189971 110.741C0.35858 99.2997 0.490305 87.8524 0.753756 76.4107C0.922365 69.281 1.59153 62.1512 1.47561 55.027C1.41765 51.2609 1.40711 47.4672 1.48615 43.7232C1.61788 37.4647 1.42292 31.1841 2.15532 24.9201C2.4978 21.9811 3.35138 18.8215 2.50834 16.0976C1.56519 13.0373 3.69387 12.5906 6.25988 11.6532C13.4574 9.02852 21.1396 7.72168 29.0589 6.81737C34.5967 6.18325 40.1239 5.6153 45.7038 5.28997C55.0405 4.74408 64.3666 4.17061 73.756 4.10996C80.4003 4.06584 87.0551 3.64677 93.6993 3.86734C101.777 4.13201 109.817 3.5806 117.868 3.5806C125.266 3.5806 132.658 3.34901 140.04 3.2277C147.891 3.10088 155.768 2.78106 163.624 2.39507C172.524 1.95395 181.45 1.63413 190.381 1.43011C198.537 1.24814 206.709 1.45768 214.834 1.09375C223.317 0.707764 231.779 0.944869 240.252 0.823559C245.463 0.751876 250.7 1.24814 255.901 1.08272C265.938 0.768419 275.981 0.961412 286.019 0.641594C290.639 0.492714 295.218 -0.191033 299.85 0.051587C309.729 0.569911 319.63 0.277665 329.514 0.443087C333.334 0.509256 337.123 1.02207 340.99 0.933841C342.149 0.906271 344.905 0.795989 343.409 2.90788C343.356 2.97957 343.514 3.14499 343.604 3.24424C347.629 7.69963 347.471 12.8774 348.367 17.8566C349.679 25.1407 349.563 32.4799 349.299 39.7916C349.194 42.6314 349.447 45.4436 349.415 48.2723C349.368 52.6946 349.205 57.1224 349.526 61.5337C350.285 72.049 349.921 82.5644 349.869 93.0743C349.853 96.2173 349.21 99.3548 349.041 102.503C348.936 104.433 349.178 106.363 349.025 108.315C348.193 118.858 347.987 129.418 346.928 139.955C346.718 142.034 347.034 144.14 346.755 146.214C345.532 155.4 345.227 164.603 345.1 173.828C345.037 178.493 344.594 183.158 344.679 187.823C344.736 191.126 343.778 194.423 343.973 197.66C344.268 202.485 342.845 207.205 343.082 211.997C343.172 213.761 342.829 215.537 342.608 217.307C342.487 218.283 341.723 219.005 340.337 218.459C337.723 217.433 335.005 217.957 332.36 218.012C327.465 218.117 322.586 218.531 317.696 218.647C304.465 218.966 291.235 219.303 278.004 219.424C270.907 219.49 263.799 219.374 256.696 219.259C248.498 219.126 240.283 219.749 232.069 219.992C217.632 220.417 203.205 220.902 188.752 221.045C182.983 221.1 177.224 221.58 171.454 221.707C164.989 221.85 158.524 221.806 152.054 221.939C148.102 222.021 144.061 222.016 140.061 221.916C130.356 221.668 120.629 221.801 110.913 221.723C105.096 221.679 99.2844 221.464 93.4674 221.437C81.8229 221.382 70.1573 221.106 58.5338 221.475C48.4437 221.795 38.3693 221.663 28.2897 221.679C24.2062 221.685 20.1121 221.122 16.0339 220.77C15.0908 220.687 14.1371 220.455 13.2782 220.157C12.2297 219.794 10.591 219.567 10.9282 218.437C11.2286 217.395 12.7671 218.343 13.6418 218.012Z" fill="#30363E"/>
<path d="M63.1864 6.41464C70.8844 5.91286 81.4857 6.2437 92.0712 6.05622C99.1843 5.9294 106.303 6.32641 113.39 6.02865C120.282 5.73641 127.168 5.53238 134.065 5.36145C140.362 5.20705 146.653 4.97546 152.949 4.90378C164.251 4.77144 175.496 3.97741 186.761 3.44806C193.331 3.13927 199.907 3.21095 206.488 3.17787C218.775 3.11721 231.057 3.02899 243.345 2.99039C253.514 2.95731 263.678 2.95731 273.847 2.99039C286.472 3.04002 299.059 1.94823 311.7 2.32319C320.536 2.58235 329.372 2.79188 338.208 3.02899C338.472 3.0345 338.935 3.00142 338.967 3.06759C339.636 4.52331 342.376 4.41303 342.966 6.08931C344.009 9.04486 344.842 12.0225 345.047 15.0497C345.495 21.6721 346.333 28.267 345.996 34.9335C345.727 40.2656 346.012 45.6198 345.991 50.9685C345.959 59.1238 347.013 67.2736 347.118 75.429C347.192 81.2904 347.06 87.1685 346.47 93.0299C346.212 95.583 346.359 98.158 346.265 100.722C346.091 105.624 345.927 110.526 345.659 115.423C345.395 120.17 344.995 124.918 344.668 129.666C344.268 135.533 343.941 141.405 343.483 147.266C342.945 154.137 342.297 161.002 342.007 167.889C341.823 172.284 341.443 176.701 341.396 181.079C341.343 186.306 341.338 191.556 341.338 196.789C341.338 200.24 340.458 203.681 340.432 207.155C340.416 209.493 340.137 211.831 340.042 214.174C340 215.25 339.468 215.729 337.85 215.768C330.863 215.939 323.882 216.193 316.9 216.43C306.931 216.766 296.973 217.268 286.999 217.4C276.129 217.544 265.248 217.202 254.378 217.34C244.325 217.466 234.261 217.527 224.223 218.233C218.918 218.602 213.548 218.525 208.206 218.652C195.855 218.944 183.499 219.121 171.159 219.562C155.115 220.135 139.06 219.981 123.027 219.755C111.208 219.589 99.3951 219.694 87.5872 219.518C81.5647 219.424 75.537 219.165 69.5145 219.22C62.2485 219.286 54.9878 219.595 47.7324 219.832C40.714 220.063 33.7273 219.341 26.7142 219.485C25.4865 219.507 24.2589 219.446 23.0312 219.451C19.6432 219.457 17.6357 218.498 16.6873 216.187C14.7694 211.511 13.8631 206.681 12.7935 201.878C12.3772 200.014 12.4931 198.106 11.4183 196.303C10.4962 194.754 11.0916 193.056 10.9019 191.429C9.87443 182.529 8.88386 173.624 7.02389 164.79C5.79621 158.951 5.33781 153.067 4.61595 147.222C3.87302 141.195 3.10374 135.141 3.26708 129.048C3.47784 121.466 2.87717 113.873 3.18278 106.297C3.44623 99.7847 3.38827 93.267 3.66226 86.7549C3.90463 80.9817 3.95732 75.1974 4.15755 69.4241C4.29454 65.4816 4.55272 61.5059 4.70026 57.5578C4.80564 54.6519 4.60014 51.6743 4.74768 48.7739C5.03747 43.155 4.90048 37.5196 5.03747 31.8952C5.15866 26.9767 5.43265 22.0581 5.51168 17.1451C5.55911 14.2281 7.50337 13.0757 11.06 12.221C20.1438 10.0374 29.4541 8.85738 38.9015 7.90344C46.0252 7.18661 53.1278 6.60212 63.1864 6.41464Z" fill="#1AABB2"/>
<path d="M140.556 216.325C131.52 216.523 122.489 216.92 113.453 216.871C96.0807 216.782 78.7193 217.422 61.3262 217.058C53.781 216.898 46.2779 216.893 38.8011 216.049C35.4448 215.669 32.4572 214.582 29.4539 213.601C27.5202 212.967 26.3821 211.489 26.0923 209.906C25.0227 204.067 22.4198 198.437 21.993 192.498C20.9497 177.969 16.6871 163.715 14.7217 149.257C12.9408 136.161 12.6563 123.032 12.2664 109.903C11.829 95.1858 11.8501 80.4521 10.6488 65.7681C9.85314 56.0192 8.69396 46.2868 8.73084 36.5159C8.74138 33.3563 9.20505 30.1857 9.70034 27.0372C10.3326 22.9953 13.9419 20.8834 18.9527 19.3891C36.4564 14.1728 54.7768 12.7391 73.4924 12.3862C82.7817 12.2098 92.0657 11.6418 101.366 11.9286C106.002 12.0719 110.66 12.083 115.276 12.5902C116.472 12.7226 117.763 12.7667 118.932 12.5902C135.714 10.0483 152.77 10.2137 169.768 9.86629C195.128 9.34796 220.488 10.1751 245.853 9.82769C260.685 9.62367 275.48 10.6934 290.297 11.1511C298.185 11.3937 306.099 11.0463 313.965 11.7245C315.704 11.8734 317.448 12.0002 319.187 12.1712C321.711 12.4138 324.161 12.6288 326.695 11.9341C328.16 11.5315 329.398 11.5867 331.032 12.7943C336.58 16.8802 336.754 22.2123 337.618 27.1309C339.452 37.547 338.308 48.0403 337.175 58.4895C336.748 62.4266 337.049 66.3471 337.154 70.2841C337.302 75.8644 336.564 81.4502 336.97 87.036C338.14 103.137 338.777 119.26 338.587 135.372C338.44 147.741 339.025 160.125 337.855 172.493C336.975 181.796 336.316 191.114 335.537 200.422C335.321 202.992 334.193 205.418 332.728 207.717C330.968 210.485 327.154 211.18 323.513 211.489C313.322 212.36 303.095 213.022 292.879 213.711C275.554 214.886 258.108 213.926 240.805 214.985C219.65 216.281 198.516 214.952 177.382 215.343C165.105 215.564 152.823 215.784 140.556 216.325Z" fill="#FDFDFD"/>
</svg>
