<svg width="99" height="57" viewBox="0 0 99 57" fill="none" xmlns="http://www.w3.org/2000/svg">
<g opacity="0.94">
<path d="M23.5996 13.1232C23.8552 13.1232 24.0305 13.167 24.1255 13.2619C24.2277 13.3496 24.2715 13.5395 24.2715 13.8316V15.5115C24.2715 15.8182 24.2204 16.0227 24.1255 16.125C24.0232 16.2272 23.8552 16.271 23.6215 16.271L6.80114 16.5413C6.56742 16.5413 6.39946 16.4902 6.29721 16.3952C6.19495 16.293 6.15112 16.0958 6.15112 15.7817V14.1019C6.15112 13.8097 6.20226 13.6198 6.29721 13.5322C6.39946 13.4445 6.57475 13.3934 6.82307 13.3934L23.5996 13.1232ZM23.4681 0.67041C23.7237 0.67041 23.8991 0.714232 23.994 0.80918C24.0963 0.896824 24.14 1.08672 24.14 1.37887V2.67892C24.14 2.97107 24.089 3.16096 23.994 3.24861C23.8918 3.33625 23.7164 3.38738 23.4681 3.38738L9.73723 3.6284L9.76645 4.95766L23.1979 4.73855C23.4535 4.73855 23.6288 4.78238 23.7238 4.87732C23.826 4.96497 23.8698 5.15486 23.8698 5.44701V6.74706C23.8698 7.03921 23.8187 7.22911 23.7238 7.31675C23.6288 7.40439 23.4462 7.45552 23.1979 7.45552L9.84678 7.67463L9.876 9.08424L23.2563 8.84322C23.512 8.84322 23.6872 8.88704 23.7822 8.98199C23.8844 9.06963 23.9283 9.25953 23.9283 9.55167V10.8517C23.9283 11.1439 23.8771 11.3338 23.7822 11.4214C23.6799 11.5164 23.5047 11.5602 23.2563 11.5602L7.16632 11.8304C6.9326 11.8304 6.76463 11.7793 6.67699 11.6843C6.58934 11.5821 6.53091 11.3776 6.51631 11.0708L6.2753 1.70753C6.26069 1.40078 6.30449 1.19627 6.41404 1.09402C6.5236 0.991772 6.6916 0.94795 6.93262 0.94795L23.4681 0.67041ZM20.7804 25.9046C20.4882 25.9046 20.291 25.8535 20.1668 25.7439C20.0427 25.6344 19.9989 25.4445 20.0208 25.1742L20.1596 20.9381L7.67759 21.1572C7.42196 21.1572 7.24667 21.1134 7.15172 21.0184C7.04947 20.9308 7.00566 20.7409 7.00566 20.4487V18.7105C7.00566 18.4183 7.05677 18.2284 7.15172 18.1408C7.25397 18.0531 7.42926 18.002 7.67759 18.002L23.008 17.7318C23.2636 17.7318 23.4389 17.7756 23.5484 17.8706C23.658 17.9655 23.7018 18.1481 23.6872 18.4402L23.4462 25.1669C23.4243 25.4372 23.3659 25.6271 23.2709 25.7366C23.1687 25.8462 22.9788 25.8973 22.6866 25.8973H20.7804V25.9046Z" fill="#191919"/>
<path d="M34.7804 7.26959C35.036 7.12351 35.1894 6.99935 35.2551 6.9044C35.3209 6.80215 35.3501 6.60495 35.3501 6.29089V1.94521C35.3501 1.67498 35.4012 1.48508 35.5108 1.37552C35.6203 1.26597 35.8175 1.21484 36.1097 1.21484H38.0086C38.3008 1.21484 38.4979 1.27327 38.6075 1.37552C38.7171 1.48508 38.7682 1.67498 38.7682 1.94521V6.23246C38.7682 6.53922 38.7974 6.74372 38.8485 6.84597C38.8997 6.94822 39.0676 7.06508 39.3379 7.21116L46.1741 10.6804C46.4298 10.8046 46.5685 10.9433 46.605 11.0894C46.6415 11.2355 46.5904 11.4254 46.4444 11.6591L45.4438 13.3389C45.3196 13.5361 45.1881 13.653 45.0493 13.6895C44.9106 13.726 44.7207 13.6749 44.4651 13.5288L36.9788 9.65058L29.7043 13.7991C29.4852 13.9232 29.3099 13.9671 29.1639 13.9232C29.0178 13.8794 28.8644 13.726 28.7037 13.4777L27.8054 12.0389C27.6593 11.8198 27.6009 11.6372 27.6301 11.4838C27.6593 11.3304 27.7981 11.1844 28.0537 11.0383L34.7804 7.26959ZM45.4438 15.2963C45.6994 15.2963 45.8747 15.3401 45.9696 15.4351C46.0719 15.5227 46.1157 15.7126 46.1157 16.0048V17.6846C46.1157 17.9914 46.0646 18.1959 45.9696 18.2981C45.8674 18.4004 45.6994 18.4442 45.4657 18.4442L38.7609 18.5538V23.7101C38.7609 23.9804 38.7098 24.1703 38.6002 24.2798C38.4907 24.3894 38.2935 24.4405 38.0013 24.4405H36.1023C35.8102 24.4405 35.613 24.3894 35.5034 24.2798C35.3939 24.1703 35.3428 23.9804 35.3428 23.7101V18.6122L28.638 18.7217C28.4043 18.7217 28.2363 18.6706 28.1341 18.5757C28.0318 18.4734 27.988 18.2689 27.988 17.9622V16.2823C27.988 15.9902 28.0391 15.8003 28.1341 15.7126C28.2363 15.625 28.4116 15.5739 28.6599 15.5739L45.4438 15.2963Z" fill="#191919"/>
<path d="M50.0808 8.56751C50.0808 7.3405 50.2999 6.24495 50.7308 5.28086C51.1618 4.32408 51.7753 3.50607 52.5641 2.84144C53.3529 2.1695 54.2804 1.66554 55.3613 1.32227C56.435 0.978999 57.6182 0.803711 58.9037 0.803711C60.1891 0.803711 61.365 0.978999 62.4459 1.32227C63.5196 1.66554 64.4544 2.1695 65.2432 2.84144C66.032 3.51337 66.6382 4.32408 67.0765 5.28086C67.5074 6.23764 67.7265 7.33319 67.7265 8.56751C67.7265 10.0502 67.4124 11.3356 66.7916 12.4239C66.1708 13.5121 65.3163 14.3739 64.228 15.0313V18.6977L67.0253 18.6466C67.281 18.6466 67.4562 18.6904 67.5512 18.7853C67.6534 18.873 67.6973 19.0629 67.6973 19.355V21.0349C67.6973 21.3416 67.6461 21.5461 67.5512 21.6484C67.4489 21.7506 67.2809 21.8018 67.0472 21.8018L50.7674 22.072C50.5336 22.072 50.3657 22.0209 50.2634 21.9259C50.1612 21.8237 50.1173 21.6192 50.1173 21.3124V19.6326C50.1173 19.3404 50.1685 19.1505 50.2634 19.0629C50.3657 18.9752 50.541 18.9241 50.7893 18.9241L53.5866 18.8949V15.0386C52.4983 14.3885 51.6438 13.5194 51.023 12.4312C50.4022 11.3429 50.0808 10.0502 50.0808 8.56751ZM58.8963 13.1761C60.6492 13.1761 61.9931 12.7598 62.9134 11.9272C63.8336 11.0946 64.3011 9.97712 64.3011 8.56021C64.3011 7.1433 63.8409 6.02584 62.9134 5.19322C61.9931 4.3606 60.6492 3.94429 58.8963 3.94429C57.1435 3.94429 55.7996 4.3606 54.8793 5.19322C53.9591 6.02584 53.4989 7.1433 53.4989 8.56021C53.4989 9.97712 53.9591 11.0946 54.8793 11.9272C55.8069 12.7671 57.1435 13.1761 58.8963 13.1761ZM58.8963 16.324C58.5531 16.324 58.2244 16.3094 57.9176 16.2802C57.6109 16.251 57.3042 16.2218 56.9974 16.1852V18.8146L60.7953 18.7342V16.1852C60.4885 16.2218 60.1745 16.251 59.8604 16.2802C59.5464 16.3167 59.225 16.324 58.8963 16.324Z" fill="#191919"/>
<path d="M86.0878 13.205C86.3434 13.205 86.5187 13.2489 86.6137 13.3438C86.7159 13.4388 86.7598 13.6213 86.7598 13.9135V15.5933C86.7598 15.9001 86.7086 16.1046 86.6137 16.2068C86.5114 16.3091 86.3434 16.3529 86.1097 16.3529L78.0245 16.5136V20.18C78.0245 20.4503 77.9734 20.6402 77.8638 20.7497C77.7543 20.8593 77.5571 20.9104 77.265 20.9104H75.366C75.0739 20.9104 74.8766 20.8593 74.7671 20.7497C74.6575 20.6402 74.6064 20.4503 74.6064 20.18V16.572L71.9479 16.6305C71.7142 16.6305 71.5462 16.5793 71.4439 16.4771C71.3417 16.3748 71.2979 16.1776 71.2979 15.8636V14.1837C71.2979 13.8916 71.349 13.7017 71.4439 13.614C71.5462 13.5264 71.7215 13.4753 71.9698 13.4753L86.0878 13.205ZM78.6527 11.9342C76.4616 11.9342 74.7671 11.401 73.562 10.3347C72.3569 9.26836 71.758 7.80762 71.758 5.9671C71.758 4.12657 72.3569 2.66584 73.562 1.5995C74.7671 0.533168 76.4616 0 78.6527 0C80.6246 0 82.2022 0.445524 83.3854 1.34388C84.5686 2.24223 85.2625 3.46194 85.4597 5.01762L88.7683 4.93728V1.94278C88.7683 1.67254 88.8194 1.48265 88.9289 1.37309C89.0385 1.26353 89.2357 1.21241 89.5278 1.21241H91.4268C91.7189 1.21241 91.9161 1.27084 92.0257 1.37309C92.1352 1.47534 92.1864 1.67254 92.1864 1.94278V16.9226C92.1864 17.1928 92.1352 17.3827 92.0257 17.4923C91.9161 17.6018 91.7189 17.653 91.4268 17.653H89.5278C89.2357 17.653 89.0385 17.6018 88.9289 17.4923C88.8194 17.3827 88.7683 17.1928 88.7683 16.9226V8.07786L85.1602 8.1582C84.7439 9.3487 83.977 10.2763 82.8669 10.9409C81.7567 11.5982 80.3544 11.9342 78.6527 11.9342ZM78.6527 8.83744C79.8432 8.83744 80.7269 8.5599 81.282 8.01213C81.8444 7.46435 82.1219 6.77781 82.1219 5.9671C82.1219 5.15639 81.8444 4.46985 81.282 3.92207C80.7196 3.36699 79.8432 3.09676 78.6527 3.09676C77.4622 3.09676 76.5784 3.3743 76.0233 3.92207C75.461 4.47715 75.1834 5.15639 75.1834 5.9671C75.1834 6.77781 75.461 7.46435 76.0233 8.01213C76.5784 8.5599 77.4622 8.83744 78.6527 8.83744ZM80.2814 25.9061C79.9892 25.9061 79.792 25.855 79.6825 25.7454C79.5729 25.6359 79.5218 25.446 79.5218 25.1758V19.3182C79.5218 19.048 79.5729 18.8581 79.6825 18.7485C79.792 18.639 79.9892 18.5878 80.2814 18.5878H82.1803C82.4725 18.5878 82.6697 18.639 82.7792 18.7485C82.8888 18.8581 82.9399 19.048 82.9399 19.3182V22.6852L91.4852 22.4953C91.7408 22.4953 91.9161 22.5391 92.0111 22.6341C92.1133 22.7217 92.1571 22.9116 92.1571 23.2038V24.942C92.1571 25.2342 92.1133 25.4241 92.0184 25.5117C91.9307 25.5994 91.7555 25.6505 91.4998 25.6505L80.2814 25.9061Z" fill="#191919"/>
<path d="M7.69807 45.0879C6.50758 45.0879 5.42665 44.9199 4.46986 44.5693C3.51308 44.2261 2.70237 43.7513 2.04504 43.1451C1.38771 42.5389 0.876441 41.8086 0.525865 40.9613C0.175289 40.1141 0 39.1792 0 38.164C0 37.1488 0.175289 36.2213 0.525865 35.3667C0.876441 34.5122 1.38771 33.7818 2.04504 33.1683C2.70237 32.5548 3.51308 32.0728 4.46986 31.7295C5.42665 31.3862 6.50758 31.2109 7.69807 31.2109C8.88857 31.2109 9.96953 31.3862 10.9263 31.7295C11.8831 32.0728 12.7011 32.5548 13.3657 33.1683C14.0377 33.7818 14.5489 34.5122 14.8995 35.3667C15.2501 36.2213 15.4254 37.1488 15.4254 38.164C15.4254 39.1792 15.2501 40.1068 14.8995 40.9613C14.5489 41.8159 14.0377 42.5389 13.3657 43.1451C12.6938 43.7513 11.8831 44.2261 10.9263 44.5693C9.96953 44.9126 8.89588 45.0879 7.69807 45.0879ZM7.69807 41.94C9.10768 41.94 10.1813 41.5895 10.9117 40.881C11.6421 40.1725 12.0072 39.2742 12.0072 38.164C12.0072 37.0247 11.6421 36.1044 10.9117 35.4105C10.1813 34.7167 9.10768 34.3661 7.69807 34.3661C6.32498 34.3661 5.26595 34.7167 4.52097 35.4105C3.776 36.1044 3.41082 37.0247 3.41082 38.164C3.41082 39.2669 3.7833 40.1725 4.52097 40.881C5.25864 41.5895 6.32498 41.94 7.69807 41.94ZM13.5629 57.0002C12.3724 57.0002 11.3353 56.8541 10.4589 56.5547C9.58242 56.2552 8.85206 55.8608 8.27507 55.3642C7.69808 54.8675 7.26716 54.2905 6.98962 53.6405C6.71208 52.9905 6.56601 52.3112 6.56601 51.6028C6.56601 50.8943 6.70477 50.2224 6.98962 49.5651C7.26716 48.915 7.69808 48.338 8.27507 47.8414C8.85206 47.3447 9.58242 46.943 10.4589 46.6509C11.3353 46.3514 12.3724 46.2054 13.5629 46.2054C14.7534 46.2054 15.7905 46.3514 16.667 46.6509C17.5434 46.9503 18.2738 47.3447 18.8508 47.8414C19.4278 48.338 19.8587 48.915 20.1362 49.5651C20.4138 50.2151 20.5598 50.8943 20.5598 51.6028C20.5598 52.3112 20.4211 52.9905 20.1362 53.6405C19.8587 54.2905 19.4278 54.8675 18.8508 55.3642C18.2738 55.8608 17.5434 56.2625 16.667 56.5547C15.7905 56.8468 14.7534 57.0002 13.5629 57.0002ZM13.5629 54.0422C14.7534 54.0422 15.6372 53.8085 16.2068 53.3484C16.7765 52.8882 17.0614 52.3039 17.0614 51.5955C17.0614 50.887 16.7765 50.31 16.2068 49.8426C15.6372 49.3825 14.7534 49.1488 13.5629 49.1488C12.3724 49.1488 11.4887 49.3825 10.919 49.8426C10.3493 50.3027 10.0645 50.887 10.0645 51.5955C10.0645 52.3039 10.3493 52.8809 10.919 53.3484C11.4887 53.8158 12.3651 54.0422 13.5629 54.0422ZM21.5093 42.4002V44.2188C21.5093 44.489 21.4582 44.6789 21.3487 44.7885C21.2391 44.898 21.0419 44.9491 20.7498 44.9491H18.8508C18.5586 44.9491 18.3614 44.898 18.2519 44.7885C18.1423 44.6789 18.0912 44.489 18.0912 44.2188V32.4964C18.0912 32.2261 18.1423 32.0363 18.2519 31.9267C18.3614 31.8171 18.5586 31.766 18.8508 31.766H20.7498C21.0419 31.766 21.2391 31.8244 21.3487 31.9267C21.4582 32.0363 21.5093 32.2261 21.5093 32.4964V33.9352L23.547 33.8549C23.8027 33.8403 23.978 33.8768 24.0729 33.979C24.1752 34.0813 24.219 34.2712 24.219 34.5633V36.3016C24.219 36.5937 24.1679 36.7763 24.0729 36.8567C23.9707 36.937 23.7953 36.9881 23.547 37.0101L21.5093 37.0831V39.2523L23.547 39.1719C23.8027 39.1573 23.978 39.1938 24.0729 39.2961C24.1752 39.3984 24.219 39.5882 24.219 39.8804V41.6187C24.219 41.9108 24.1679 42.0934 24.0729 42.1737C23.9707 42.2541 23.7953 42.3052 23.547 42.3198L21.5093 42.4002Z" fill="#191919"/>
<path d="M35.7502 37.1905C35.7502 37.5192 35.7574 37.7894 35.7794 38.0012C35.794 38.2203 35.9327 38.4175 36.1884 38.6001L41.3156 42.2373C41.4981 42.3834 41.5785 42.5149 41.5712 42.6463C41.5639 42.7705 41.4836 42.9239 41.3375 43.1065L40.0885 44.5964C39.9425 44.779 39.7964 44.8667 39.6576 44.8667C39.5115 44.8667 39.3436 44.7936 39.1391 44.6475L34.063 41.0395L29.0673 44.9981C28.8701 45.1442 28.7021 45.2099 28.5779 45.2026C28.4538 45.1953 28.3004 45.1004 28.1178 44.9178L26.7301 43.5374C26.4015 43.2087 26.4015 42.9166 26.7301 42.639L31.8865 38.5709C32.1202 38.3737 32.2517 38.1692 32.2809 37.9574C32.3101 37.7529 32.3247 37.4826 32.3247 37.154V32.2167C32.3247 31.9465 32.3759 31.7566 32.4854 31.647C32.595 31.5375 32.7922 31.4863 33.0843 31.4863H34.9833C35.2754 31.4863 35.4726 31.5375 35.5822 31.647C35.6917 31.7566 35.7428 31.9465 35.7428 32.2167V37.1905H35.7502ZM39.1975 56.998C38.007 56.998 36.9698 56.852 36.0934 56.5525C35.217 56.2531 34.4866 55.8587 33.9096 55.362C33.3326 54.8654 32.9017 54.2884 32.6242 53.6384C32.3466 52.9883 32.2006 52.3091 32.2006 51.6006C32.2006 50.8922 32.3393 50.2202 32.6242 49.5629C32.9017 48.9129 33.3326 48.3359 33.9096 47.8392C34.4866 47.3426 35.217 46.9409 36.0934 46.6487C36.9698 46.3493 38.007 46.2032 39.1975 46.2032C40.388 46.2032 41.4251 46.3493 42.3015 46.6487C43.178 46.9482 43.9084 47.3426 44.4854 47.8392C45.0624 48.3359 45.4932 48.9129 45.7708 49.5629C46.0483 50.2129 46.1944 50.8922 46.1944 51.6006C46.1944 52.3091 46.0556 52.9883 45.7708 53.6384C45.4932 54.2884 45.0624 54.8654 44.4854 55.362C43.9084 55.8587 43.178 56.2604 42.3015 56.5525C41.4324 56.8447 40.3953 56.998 39.1975 56.998ZM39.1975 54.0401C40.388 54.0401 41.2718 53.8063 41.8414 53.3462C42.4111 52.8861 42.696 52.3018 42.696 51.5933C42.696 50.8849 42.4111 50.3079 41.8414 49.8405C41.2718 49.3803 40.388 49.1466 39.1975 49.1466C38.007 49.1466 37.1232 49.3803 36.5535 49.8405C35.9839 50.3006 35.699 50.8849 35.699 51.5933C35.699 52.3018 35.9839 52.8788 36.5535 53.3462C37.1232 53.8136 38.007 54.0401 39.1975 54.0401ZM44.2735 35.6129V32.4942C44.2735 32.224 44.3247 32.0341 44.4342 31.9245C44.5438 31.815 44.741 31.7639 45.0331 31.7639H46.9321C47.2242 31.7639 47.4214 31.8223 47.531 31.9245C47.6405 32.0268 47.6916 32.224 47.6916 32.4942V44.2166C47.6916 44.4869 47.6405 44.6768 47.531 44.7863C47.4214 44.8959 47.2242 44.947 46.9321 44.947H45.0331C44.741 44.947 44.5438 44.8959 44.4342 44.7863C44.3247 44.6768 44.2735 44.4869 44.2735 44.2166V38.7608L40.2054 38.8411C39.9497 38.8411 39.7745 38.7973 39.6795 38.7024C39.5773 38.6147 39.5335 38.4248 39.5335 38.1327V36.3944C39.5335 36.1022 39.5846 35.9124 39.6795 35.8247C39.7818 35.7371 39.9571 35.6859 40.2054 35.6859L44.2735 35.6129Z" fill="#191919"/>
<path d="M55.9466 32.3538V30.7543C55.9466 30.4841 55.9977 30.2942 56.1073 30.1846C56.2168 30.0751 56.414 30.0239 56.7062 30.0239H58.6051C58.8972 30.0239 59.0944 30.0751 59.204 30.1846C59.3136 30.2942 59.3647 30.4841 59.3647 30.7543V32.2735L64.1705 32.1639C64.4261 32.1639 64.6014 32.2077 64.6964 32.3027C64.7986 32.3976 64.8425 32.5802 64.8425 32.8724V34.5522C64.8425 34.859 64.7913 35.0635 64.6964 35.1657C64.5941 35.268 64.4261 35.3118 64.1924 35.3118L51.0604 35.582C50.8267 35.582 50.6587 35.5309 50.5565 35.4359C50.4542 35.3337 50.4104 35.1365 50.4104 34.8224V33.1426C50.4104 32.8504 50.4615 32.6606 50.5565 32.5729C50.6587 32.4853 50.834 32.4341 51.0823 32.4341L55.9466 32.3538ZM57.9259 46.4134C55.7932 46.4134 54.1353 46.0044 52.9594 45.179C51.7835 44.3537 51.1992 43.1486 51.1992 41.5564C51.1992 39.9642 51.7835 38.7518 52.9594 37.9192C54.1353 37.0866 55.7932 36.6703 57.9259 36.6703C60.0585 36.6703 61.7165 37.0866 62.8923 37.9192C64.0682 38.7518 64.6599 39.9642 64.6599 41.5564C64.6599 43.1486 64.0682 44.3537 62.8923 45.179C61.7165 46.0044 60.0585 46.4134 57.9259 46.4134ZM67.3111 56.4486C67.019 56.4486 66.8144 56.3975 66.6976 56.2879C66.5807 56.1784 66.5296 55.9885 66.5515 55.7182L66.7122 50.9416L55.1505 51.1607C54.8948 51.1607 54.7196 51.1169 54.6246 51.022C54.5224 50.9343 54.4785 50.7444 54.4785 50.4523V48.714C54.4785 48.4219 54.5297 48.232 54.6246 48.1443C54.7269 48.0567 54.9022 48.0056 55.1505 48.0056L69.5314 47.7353C69.787 47.7353 69.9623 47.7791 70.0719 47.8741C70.1814 47.9617 70.2252 48.1516 70.2106 48.4438L69.9696 55.7182C69.955 55.9885 69.8893 56.1784 69.7943 56.2879C69.6921 56.3975 69.5022 56.4486 69.21 56.4486H67.3111V56.4486ZM57.9259 43.5357C58.9046 43.5357 59.6861 43.375 60.285 43.061C60.8839 42.7469 61.1833 42.243 61.1833 41.5564C61.1833 40.8699 60.8839 40.3659 60.285 40.0373C59.6861 39.7086 58.9046 39.5479 57.9259 39.5479C56.9472 39.5479 56.1584 39.7086 55.5668 40.0373C54.9679 40.3659 54.6685 40.8699 54.6685 41.5564C54.6685 42.243 54.9679 42.7469 55.5668 43.061C56.1584 43.375 56.9472 43.5357 57.9259 43.5357ZM67.2015 32.4926C67.2015 32.2223 67.2527 32.0324 67.3622 31.9229C67.4718 31.8133 67.6689 31.7622 67.9611 31.7622H69.8601C70.1522 31.7622 70.3494 31.8206 70.459 31.9229C70.5685 32.0324 70.6196 32.2223 70.6196 32.4926V37.2984L72.6574 37.218C72.913 37.2034 73.0883 37.24 73.1832 37.3422C73.2855 37.4445 73.3293 37.6344 73.3293 37.9265V39.6063C73.3293 39.9131 73.2782 40.1103 73.1832 40.2052C73.081 40.2929 72.913 40.3513 72.6793 40.3659L70.6196 40.4463V45.3032C70.6196 45.5734 70.5685 45.7633 70.459 45.8729C70.3494 45.9824 70.1522 46.0336 69.8601 46.0336H67.9611C67.6689 46.0336 67.4718 45.9824 67.3622 45.8729C67.2527 45.7633 67.2015 45.5734 67.2015 45.3032V32.4926V32.4926Z" fill="#191919"/>
<path d="M79.523 49.3952V40.5286C79.523 40.2583 79.5742 40.0684 79.6837 39.9589C79.7933 39.8493 79.9905 39.7982 80.2826 39.7982H82.1816C82.4737 39.7982 82.6709 39.8493 82.7805 39.9589C82.89 40.0684 82.9412 40.2583 82.9412 40.5286V49.3441L89.6167 49.1834C89.8723 49.1834 90.0476 49.2272 90.1426 49.3222C90.2448 49.4098 90.2886 49.5997 90.2886 49.8919V51.5717C90.2886 51.8785 90.2375 52.083 90.1426 52.1852C90.0403 52.2875 89.8724 52.3386 89.6387 52.3386L76.5578 52.6088C76.324 52.6088 76.156 52.5577 76.0538 52.4628C75.9515 52.3605 75.9077 52.156 75.9077 51.8493V50.1694C75.9077 49.8773 75.9588 49.6874 76.0538 49.5997C76.156 49.5121 76.3314 49.461 76.5797 49.461L79.523 49.3952ZM76.0465 32.7648C76.0465 32.4945 76.0976 32.3046 76.2072 32.1951C76.3167 32.0855 76.5139 32.0344 76.8061 32.0344L88.9083 31.7642C89.2004 31.7642 89.3976 31.8226 89.5218 31.9248C89.6386 32.0344 89.6898 32.2243 89.6678 32.4945L89.0689 46.1159C89.0543 46.3861 88.9813 46.576 88.8644 46.6856C88.7476 46.7951 88.5431 46.8462 88.2509 46.8462H86.352C86.0599 46.8462 85.8699 46.7951 85.7677 46.6856C85.6654 46.576 85.6289 46.3861 85.6435 46.1159L86.1329 34.9924L76.7988 35.1823C76.5066 35.1823 76.3094 35.1312 76.1999 35.0216C76.0903 34.912 76.0392 34.7221 76.0392 34.4519V32.7648H76.0465ZM95.7226 43.2674V50.4616C95.7226 50.7318 95.6715 50.9217 95.5619 51.0312C95.4524 51.1408 95.2552 51.1919 94.963 51.1919H93.064C92.7719 51.1919 92.5747 51.1408 92.4652 51.0312C92.3556 50.9217 92.3045 50.7318 92.3045 50.4616V33.035C92.3045 32.7648 92.3556 32.5749 92.4652 32.4653C92.5747 32.3558 92.7719 32.3046 93.064 32.3046H94.963C95.2552 32.3046 95.4524 32.3558 95.5619 32.4653C95.6715 32.5749 95.7226 32.7648 95.7226 33.035V40.1196L97.7603 40.0392C98.016 40.0246 98.1912 40.0611 98.2862 40.1634C98.3884 40.2656 98.4323 40.4555 98.4323 40.7477V42.4859C98.4323 42.7781 98.3811 42.9607 98.2862 43.041C98.1839 43.1214 98.0087 43.1725 97.7603 43.1871L95.7226 43.2674Z" fill="#191919"/>
</g>
</svg>
