<svg width="296" height="46" viewBox="0 0 296 46" fill="none" xmlns="http://www.w3.org/2000/svg">
<path d="M21.8533 8.21267L21.2673 31.0933L23.8509 31.052C24.3379 31.052 24.668 31.1428 24.8496 31.3244C25.0312 31.506 25.122 31.8196 25.122 32.2736V35.0883C25.122 35.5423 25.0312 35.8642 24.8496 36.0458C24.668 36.2274 24.3379 36.3182 23.8509 36.3182L1.83694 36.7721C1.34994 36.7721 1.01978 36.6814 0.838186 36.4998C0.656594 36.3182 0.565796 36.0045 0.565796 35.5423V32.7276C0.565796 32.2736 0.656594 31.9517 0.838186 31.7701C1.01978 31.5885 1.34994 31.4977 1.83694 31.4977L4.56082 31.4565L4.37923 8.57585L1.38296 8.62538C0.895965 8.62538 0.565798 8.53458 0.384206 8.35299C0.202614 8.17139 0.111816 7.84948 0.111816 7.3955V4.58083C0.111816 4.12685 0.202614 3.81319 0.384206 3.62334C0.565798 3.44175 0.895965 3.35095 1.38296 3.35095L24.3544 2.89697C24.8414 2.89697 25.1715 2.98777 25.3531 3.16936C25.5347 3.35095 25.6255 3.67287 25.6255 4.12685V6.94152C25.6255 7.3955 25.5347 7.70916 25.3531 7.89075C25.1715 8.07235 24.8414 8.16314 24.3544 8.16314L21.8533 8.21267ZM10.2727 31.3657L15.5389 31.2253L16.0837 8.34474L10.0911 8.43553L10.2727 31.3657ZM30.025 5.03481C30.025 4.58083 30.1158 4.26717 30.2974 4.08557C30.479 3.90398 30.8091 3.81319 31.2961 3.81319H34.474C34.961 3.81319 35.2912 3.90398 35.4727 4.08557C35.6543 4.26717 35.7451 4.58083 35.7451 5.03481V34.1803C35.7451 34.6343 35.6543 34.948 35.4727 35.1296C35.2912 35.3112 34.961 35.402 34.474 35.402H31.2961C30.8091 35.402 30.479 35.3112 30.2974 35.1296C30.1158 34.948 30.025 34.6343 30.025 34.1803V5.03481Z" fill="#E42A27"/>
<path d="M59.7979 29.9875C60.1281 29.9875 60.3592 30.0453 60.4913 30.1608C60.6233 30.2764 60.6894 30.524 60.6894 30.9037V33.1076C60.6894 33.512 60.6233 33.7762 60.4913 33.9082C60.3592 34.0403 60.1446 34.1063 59.8309 34.1063L52.7323 34.2466V39.4633C52.7323 39.8182 52.658 40.0658 52.5177 40.2062C52.3774 40.3465 52.1133 40.4208 51.7336 40.4208H49.2491C48.8694 40.4208 48.6135 40.3465 48.4649 40.2062C48.3163 40.0658 48.2503 39.8182 48.2503 39.4633V34.3127L41.292 34.453C40.9866 34.453 40.7638 34.387 40.6317 34.2549C40.4996 34.1228 40.4336 33.8587 40.4336 33.4542V31.2504C40.4336 30.8707 40.4996 30.6231 40.6317 30.5075C40.7638 30.3919 40.9949 30.3342 41.325 30.3342L59.7979 29.9875ZM59.1211 26.3309C59.1211 26.6858 59.0468 26.9252 58.9065 27.0572C58.7661 27.1893 58.502 27.2636 58.1223 27.2884L42.3321 27.6433C41.9524 27.6681 41.6965 27.602 41.5479 27.4452C41.4076 27.2884 41.3333 27.0407 41.3333 26.6858L40.9784 11.3495C40.9784 10.9946 41.0527 10.747 41.193 10.6067C41.3333 10.4663 41.5974 10.392 41.9771 10.392L58.8734 10.0371C59.2531 10.0371 59.509 10.1114 59.6576 10.2517C59.7979 10.392 59.8722 10.6397 59.8722 10.9946V13.1985C59.8722 13.5534 59.7979 13.801 59.6576 13.9413C59.5173 14.0817 59.2531 14.156 58.8734 14.156L45.5264 14.4366L45.5594 16.8881L57.916 16.6074C58.2956 16.6074 58.5515 16.6817 58.7001 16.8221C58.8487 16.9624 58.9147 17.21 58.9147 17.5649V19.7688C58.9147 20.1237 58.8404 20.3714 58.7001 20.5117C58.5598 20.652 58.2956 20.7263 57.916 20.7263L45.6668 21.0069L45.6998 23.4584L58.1223 23.1778C58.502 23.153 58.7579 23.219 58.9065 23.3759C59.0468 23.5327 59.1211 23.7803 59.1211 24.1353V26.3309V26.3309ZM63.3142 11.7045C63.3142 11.3495 63.3885 11.1019 63.5288 10.9616C63.6691 10.8213 63.9333 10.747 64.313 10.747H66.7975C67.1772 10.747 67.433 10.8213 67.5816 10.9616C67.7219 11.1019 67.7962 11.3495 67.7962 11.7045V35.914C67.7962 36.2689 67.7219 36.5165 67.5816 36.6569C67.4413 36.7972 67.1772 36.8715 66.7975 36.8715H64.313C63.9333 36.8715 63.6774 36.7972 63.5288 36.6569C63.3885 36.5165 63.3142 36.2689 63.3142 35.914V11.7045Z" fill="#2F4038"/>
<path d="M71.6921 11.3495C71.6921 10.9946 71.7664 10.747 71.9067 10.6067C72.047 10.4663 72.3111 10.392 72.6908 10.392L89.2322 10.0371C89.6119 10.0371 89.8843 10.1114 90.0494 10.2517C90.2145 10.392 90.2723 10.6397 90.2227 10.9946L87.3503 35.2041C87.3008 35.5591 87.2017 35.8067 87.0449 35.947C86.888 36.0873 86.6239 36.1616 86.2442 36.1616H83.7597C83.38 36.1616 83.1241 36.0873 83.0003 35.947C82.8683 35.8067 82.827 35.5591 82.8765 35.2041L85.361 14.255L72.6826 14.5026C72.3029 14.5026 72.047 14.4283 71.8984 14.288C71.7499 14.1477 71.6838 13.9001 71.6838 13.5451V11.3495H71.6921ZM94.7378 11.7045C94.7378 11.3495 94.8121 11.1019 94.9524 10.9616C95.0927 10.8213 95.3568 10.747 95.7365 10.747H98.221C98.6007 10.747 98.8566 10.8213 99.0052 10.9616C99.1455 11.1019 99.2198 11.3495 99.2198 11.7045V34.5025C99.2198 34.8574 99.1455 35.1051 99.0052 35.2454C98.8649 35.3857 98.6007 35.46 98.221 35.46H95.7365C95.3568 35.46 95.1009 35.3857 94.9524 35.2454C94.8121 35.1051 94.7378 34.8574 94.7378 34.5025V11.7045Z" fill="#2F4038"/>
<path d="M126.615 25.6215C126.945 25.6215 127.177 25.6792 127.309 25.7948C127.441 25.9103 127.507 26.1662 127.507 26.5377V28.7415C127.507 29.146 127.441 29.4101 127.309 29.5422C127.177 29.6743 126.962 29.7403 126.648 29.7403L104.634 30.0952C104.329 30.0952 104.106 30.0292 103.974 29.8971C103.842 29.7651 103.776 29.5009 103.776 29.0965V26.8926C103.776 26.5129 103.842 26.2653 103.974 26.1497C104.106 26.0342 104.337 25.9681 104.667 25.9681L126.615 25.6215ZM107.408 9.68262C107.787 9.68262 108.043 9.75691 108.167 9.89723C108.299 10.0375 108.373 10.2852 108.398 10.6401L108.613 19.307L126.046 18.9851C126.425 18.9851 126.681 19.0594 126.83 19.1997C126.97 19.34 127.044 19.5876 127.044 19.9426V22.1464C127.044 22.5014 126.97 22.749 126.83 22.8893C126.69 23.0296 126.425 23.1039 126.046 23.1039L105.245 23.4589C104.865 23.4589 104.61 23.3846 104.461 23.2442C104.312 23.1039 104.246 22.8563 104.246 22.5014L103.924 10.6401C103.9 10.2852 103.966 10.0375 104.123 9.89723C104.279 9.75691 104.544 9.68262 104.923 9.68262H107.408V9.68262ZM105.385 42.3444C105.006 42.3444 104.75 42.2701 104.601 42.1298C104.461 41.9895 104.387 41.7419 104.387 41.3869V33.5372C104.387 33.1823 104.461 32.9347 104.601 32.7943C104.742 32.654 105.006 32.5797 105.385 32.5797H107.87C108.25 32.5797 108.506 32.654 108.654 32.7943C108.803 32.9347 108.869 33.1823 108.869 33.5372V38.1513L126.087 37.9037C126.417 37.9037 126.648 37.9615 126.78 38.077C126.912 38.1926 126.978 38.4402 126.978 38.8199V41.0898C126.978 41.4695 126.921 41.7171 126.805 41.8327C126.69 41.9482 126.458 42.006 126.128 42.006L105.385 42.3444Z" fill="#2F4038"/>
<path d="M154.316 13.0249C154.737 12.7855 155.001 12.5791 155.109 12.4141C155.216 12.249 155.266 11.9105 155.266 11.3905V4.12685C155.266 3.67287 155.356 3.35095 155.538 3.16936C155.72 2.98777 156.05 2.89697 156.537 2.89697H159.715C160.202 2.89697 160.532 2.98777 160.713 3.16936C160.895 3.35095 160.986 3.67287 160.986 4.12685V11.2997C160.986 11.8115 161.035 12.1582 161.126 12.3233C161.217 12.4883 161.489 12.6947 161.943 12.9341L173.384 18.745C173.804 18.9596 174.052 19.1825 174.11 19.4301C174.168 19.6695 174.077 19.9914 173.837 20.3793L172.162 23.194C171.947 23.5242 171.733 23.7223 171.502 23.7801C171.279 23.8378 170.949 23.747 170.528 23.5077L157.998 17.0116L145.831 23.9617C145.468 24.1763 145.162 24.2423 144.923 24.168C144.684 24.0937 144.428 23.8461 144.147 23.4169L142.653 21.0067C142.414 20.6435 142.315 20.3298 142.356 20.0739C142.397 19.8181 142.637 19.5704 143.058 19.3228L154.316 13.0249ZM172.154 26.4627C172.575 26.4627 172.872 26.537 173.037 26.6938C173.202 26.8424 173.284 27.1643 173.284 27.6513V30.4659C173.284 30.9777 173.202 31.3244 173.037 31.4895C172.872 31.6546 172.591 31.7371 172.195 31.7371L160.986 31.9187V40.5443C160.986 40.9983 160.895 41.3119 160.713 41.4935C160.532 41.6751 160.202 41.7659 159.715 41.7659H156.537C156.05 41.7659 155.72 41.6751 155.538 41.4935C155.356 41.3119 155.266 40.9983 155.266 40.5443V32.0012L144.056 32.1828C143.66 32.1828 143.38 32.1003 143.214 31.9352C143.049 31.7701 142.967 31.4317 142.967 30.9117V28.097C142.967 27.61 143.049 27.2963 143.214 27.1395C143.38 26.9909 143.677 26.9167 144.098 26.9167L172.154 26.4627Z" fill="#E42A27"/>
<path d="M178.65 4.1277C178.65 3.67372 178.74 3.35181 178.922 3.17021C179.104 2.98862 179.434 2.89783 179.921 2.89783L200.168 2.44385C200.655 2.44385 201.002 2.53464 201.217 2.71623C201.431 2.89783 201.506 3.21974 201.439 3.67372L198.674 23.4177C198.617 23.8717 198.484 24.1854 198.286 24.3752C198.088 24.5568 197.75 24.6476 197.263 24.6476H194.085C193.598 24.6476 193.276 24.5568 193.111 24.3752C192.946 24.1936 192.888 23.8717 192.954 23.4177L195.133 7.84209L179.929 8.15574C179.442 8.15574 179.112 8.06494 178.93 7.88335C178.749 7.70176 178.658 7.38811 178.658 6.93413V4.1277H178.65ZM200.078 45.118C198.08 45.118 196.347 44.8704 194.877 44.3669C193.408 43.8633 192.195 43.203 191.221 42.3693C190.255 41.5357 189.537 40.5782 189.066 39.4886C188.596 38.3991 188.365 37.2683 188.365 36.0797C188.365 34.8993 188.596 33.7685 189.066 32.6707C189.537 31.5811 190.255 30.6236 191.221 29.79C192.187 28.9563 193.408 28.2877 194.877 27.7924C196.347 27.2889 198.08 27.0413 200.078 27.0413C202.075 27.0413 203.808 27.2889 205.278 27.7924C206.747 28.2877 207.96 28.9563 208.934 29.79C209.9 30.6236 210.618 31.5811 211.089 32.6707C211.559 33.7602 211.79 34.8993 211.79 36.0797C211.79 37.26 211.559 38.3991 211.089 39.4886C210.618 40.5782 209.9 41.5357 208.934 42.3693C207.969 43.203 206.747 43.8633 205.278 44.3669C203.8 44.8704 202.067 45.118 200.078 45.118ZM200.078 40.1737C202.075 40.1737 203.553 39.7858 204.502 39.0181C205.451 38.2422 205.93 37.2683 205.93 36.0879C205.93 34.9076 205.451 33.9336 204.502 33.1577C203.544 32.3818 202.075 32.0021 200.078 32.0021C198.08 32.0021 196.603 32.39 195.653 33.1577C194.696 33.9253 194.225 34.9076 194.225 36.0879C194.225 37.2683 194.704 38.2422 195.653 39.0181C196.603 39.7858 198.08 40.1737 200.078 40.1737ZM206.293 4.1277C206.293 3.67372 206.384 3.35181 206.565 3.17021C206.747 2.98862 207.077 2.89783 207.564 2.89783H210.742C211.229 2.89783 211.559 2.98862 211.741 3.17021C211.922 3.35181 212.013 3.67372 212.013 4.1277V11.2511L215.422 11.1107C215.843 11.0777 216.14 11.152 216.305 11.3171C216.47 11.4822 216.553 11.8123 216.553 12.2911V15.1058C216.553 15.6175 216.47 15.9559 216.305 16.1045C216.14 16.2531 215.86 16.3439 215.463 16.3769L212.013 16.5172V23.7396C212.013 24.1936 211.922 24.5155 211.741 24.6971C211.559 24.8787 211.229 24.9695 210.742 24.9695H207.564C207.077 24.9695 206.747 24.8787 206.565 24.6971C206.384 24.5155 206.293 24.1936 206.293 23.7396V4.1277Z" fill="#E42A27"/>
<path d="M235.843 14.2473C235.843 14.7921 235.86 15.2461 235.893 15.6093C235.926 15.9725 236.148 16.3026 236.578 16.608L245.162 22.6914C245.467 22.9307 245.608 23.1619 245.591 23.3765C245.575 23.5911 245.451 23.8469 245.203 24.1441L243.115 26.6451C242.876 26.9505 242.628 27.0991 242.389 27.0991C242.149 27.0991 241.86 26.9753 241.522 26.7359L233.037 20.7021L224.683 27.3302C224.353 27.5696 224.081 27.6851 223.866 27.6686C223.652 27.6521 223.396 27.4953 223.09 27.1899L220.771 24.8787C220.226 24.3339 220.226 23.8387 220.771 23.3847L229.397 16.575C229.793 16.2448 230.007 15.8982 230.057 15.5515C230.106 15.2048 230.123 14.7591 230.123 14.2143V3.67372C230.123 3.21974 230.214 2.89783 230.395 2.71623C230.577 2.53464 230.907 2.44385 231.394 2.44385H234.572C235.059 2.44385 235.389 2.53464 235.571 2.71623C235.752 2.89783 235.843 3.21974 235.843 3.67372V14.2473V14.2473ZM229.537 44.21C229.05 44.21 228.72 44.1192 228.538 43.9376C228.356 43.756 228.266 43.4341 228.266 42.9801V30.4586C228.266 30.0046 228.356 29.6827 228.538 29.5011C228.72 29.3195 229.05 29.2287 229.537 29.2287H232.715C233.202 29.2287 233.532 29.3195 233.713 29.5011C233.895 29.6827 233.986 29.9963 233.986 30.4586V38.8531L253.738 38.4899C254.159 38.4899 254.456 38.5642 254.621 38.721C254.786 38.8696 254.869 39.1915 254.869 39.6702V42.5757C254.869 43.0627 254.795 43.3763 254.638 43.5332C254.489 43.6818 254.2 43.756 253.779 43.756L229.537 44.21ZM250.098 4.1277C250.098 3.67372 250.189 3.35181 250.37 3.17021C250.552 2.98862 250.882 2.89783 251.369 2.89783H254.547C255.034 2.89783 255.364 2.98862 255.546 3.17021C255.727 3.35181 255.818 3.67372 255.818 4.1277V27.8255C255.818 28.2794 255.727 28.5931 255.546 28.7829C255.364 28.9645 255.034 29.0553 254.547 29.0553H251.369C250.882 29.0553 250.552 28.9645 250.37 28.7829C250.189 28.6014 250.098 28.2794 250.098 27.8255V4.1277Z" fill="#E42A27"/>
<path d="M270.305 3.67311V1.22162C270.305 0.767639 270.395 0.453979 270.577 0.272386C270.759 0.0907944 271.089 0 271.576 0H274.754C275.241 0 275.571 0.0907944 275.752 0.272386C275.934 0.453979 276.025 0.767639 276.025 1.22162V3.54104L284.064 3.35945C284.485 3.35945 284.782 3.43374 284.947 3.59057C285.113 3.73914 285.195 4.06106 285.195 4.54805V7.36273C285.195 7.87449 285.113 8.22116 284.947 8.38625C284.782 8.55133 284.502 8.63388 284.106 8.63388L276.025 8.81547V11.9933C276.025 12.5381 276.041 12.9921 276.074 13.3553C276.107 13.7185 276.33 14.0486 276.759 14.354L285.344 20.4374C285.649 20.6767 285.789 20.9078 285.773 21.1225C285.756 21.3371 285.633 21.5929 285.385 21.8901L283.297 24.3911C283.057 24.6965 282.81 24.8451 282.57 24.8451C282.331 24.8451 282.042 24.7213 281.704 24.4819L273.218 18.4481L264.865 25.0762C264.535 25.3156 264.262 25.4311 264.048 25.4146C263.833 25.3981 263.577 25.2413 263.272 24.9359L260.953 22.6247C260.408 22.0799 260.408 21.5847 260.953 21.1307L269.578 14.321C269.974 13.9908 270.189 13.6442 270.238 13.2975C270.288 12.9508 270.305 12.5051 270.305 11.9603V8.96405L262.133 9.10436C261.737 9.10436 261.456 9.02182 261.291 8.85674C261.126 8.69165 261.043 8.35323 261.043 7.83322V5.01854C261.043 4.53155 261.126 4.21789 261.291 4.06106C261.456 3.91248 261.753 3.83819 262.174 3.83819L270.305 3.67311ZM281.786 45.1174C279.789 45.1174 278.055 44.8697 276.586 44.3662C275.117 43.8627 273.903 43.2024 272.929 42.3687C271.964 41.5351 271.245 40.5776 270.775 39.488C270.305 38.3985 270.073 37.2676 270.073 36.079C270.073 34.8987 270.305 33.7679 270.775 32.6701C271.245 31.5805 271.964 30.623 272.929 29.7893C273.895 28.9557 275.117 28.2871 276.586 27.7918C278.055 27.2883 279.789 27.0407 281.786 27.0407C283.784 27.0407 285.517 27.2883 286.986 27.7918C288.455 28.2871 289.669 28.9557 290.643 29.7893C291.609 30.623 292.327 31.5805 292.797 32.6701C293.268 33.7596 293.499 34.8987 293.499 36.079C293.499 37.2594 293.268 38.3985 292.797 39.488C292.327 40.5776 291.609 41.5351 290.643 42.3687C289.677 43.2024 288.455 43.8627 286.986 44.3662C285.517 44.8697 283.784 45.1174 281.786 45.1174ZM281.786 40.1731C283.784 40.1731 285.261 39.7852 286.21 39.0175C287.168 38.2416 287.638 37.2676 287.638 36.0873C287.638 34.9069 287.16 33.933 286.21 33.1571C285.261 32.3812 283.784 32.0015 281.786 32.0015C279.789 32.0015 278.311 32.3894 277.362 33.1571C276.413 33.9247 275.934 34.9069 275.934 36.0873C275.934 37.2676 276.413 38.2416 277.362 39.0175C278.319 39.7852 279.789 40.1731 281.786 40.1731ZM290.28 11.1679V4.12709C290.28 3.67311 290.37 3.3512 290.552 3.1696C290.734 2.98801 291.064 2.89722 291.551 2.89722H294.729C295.216 2.89722 295.546 2.98801 295.727 3.1696C295.909 3.3512 296 3.67311 296 4.12709V23.739C296 24.193 295.909 24.5149 295.727 24.6965C295.546 24.8781 295.216 24.9689 294.729 24.9689H291.551C291.064 24.9689 290.734 24.8781 290.552 24.6965C290.37 24.5149 290.28 24.193 290.28 23.739V16.4341L283.924 16.5744C283.503 16.5744 283.206 16.5001 283.041 16.3433C282.876 16.1947 282.793 15.8728 282.793 15.3858V12.4803C282.793 11.9933 282.876 11.6797 283.041 11.5228C283.206 11.3743 283.503 11.2917 283.924 11.2917L290.28 11.1679Z" fill="#E42A27"/>
</svg>
