<svg width="362" height="50" viewBox="0 0 362 50" fill="none" xmlns="http://www.w3.org/2000/svg">
<rect x="23" y="13" width="339" height="25" rx="12" fill="white"/>
<rect x="23" y="13" width="256" height="25" rx="12" fill="#228277"/>
<g clip-path="url(#clip0_285_1011)">
<path d="M15.4364 44.9948C15.4364 46.2544 15.4364 47.5294 15.4364 48.8045C15.4364 49.9873 15.4364 49.9873 14.2512 49.9873C13.6306 49.9873 13.0081 49.961 12.3895 49.997C12.0091 50.0193 11.9033 49.8688 11.8229 49.5299C11.2641 47.1546 10.6739 44.787 10.1161 42.4117C10.0426 42.099 9.88477 41.9058 9.64655 41.7184C5.47133 38.4419 2.80189 34.2331 1.69608 29.0649C-0.664555 18.0196 6.26343 6.86363 17.2892 3.9513C17.7617 3.82603 18.2764 3.79787 18.7068 3.59296C19.1881 3.36281 19.0489 2.75199 19.2597 2.33345C20.0371 0.792311 21.6713 -0.148686 23.3849 0.0193147C25.1073 0.188286 26.5484 1.41479 26.9445 3.09188C27.0298 3.45215 27.169 3.61433 27.5483 3.69299C36.186 5.46816 43.0238 12.4523 44.3786 21.1291C45.659 29.332 42.9709 36.1462 36.5752 41.5144C36.3556 41.6989 36.2076 41.8864 36.1311 42.1748C35.4773 44.6433 34.7959 47.1041 34.143 49.5726C34.0558 49.9018 33.9244 50.0077 33.5803 49.997C32.699 49.9698 31.8167 49.9737 30.9354 49.996C30.6089 50.0038 30.5227 49.9038 30.5256 49.5872C30.5423 48.1635 30.5266 46.7399 30.5374 45.3163C30.5393 45.0182 30.5119 44.924 30.1648 45.0405C25.3995 46.6496 20.6272 46.6642 15.853 45.0667C15.7334 45.0259 15.6207 44.9327 15.4364 44.9948Z" fill="#272F3C"/>
<path d="M6.74273 2.01994C8.44752 1.98207 9.94056 2.51812 11.2366 3.6174C11.514 3.85241 11.5699 4.00487 11.2728 4.29814C9.24649 6.29472 7.23975 8.30976 5.23106 10.3228C4.2674 11.2891 3.30471 12.2573 2.35771 13.24C2.10185 13.5061 1.95284 13.4886 1.69893 13.2264C-0.47838 10.9793 -0.576413 6.85116 1.48816 4.48945C2.46751 3.36977 3.64293 2.58124 5.09283 2.18794C5.6379 2.03936 6.18786 2.03548 6.74273 2.01994Z" fill="#F3AD3E"/>
<path d="M39.224 2.03558C42.0395 1.96955 44.6197 3.78065 45.5628 6.44147C46.4324 8.89252 45.9961 11.1824 44.3109 13.212C44.1168 13.446 43.9914 13.4936 43.7443 13.2498C41.4984 11.0396 39.2397 8.843 36.983 6.64248C36.1928 5.8724 35.4115 5.09358 34.6057 4.33903C34.3224 4.07392 34.3704 3.90689 34.642 3.68645C35.9634 2.61533 37.4457 1.9948 39.224 2.03558Z" fill="#F3AD3E"/>
<path d="M3.34888 24.6998C3.34496 14.0138 12.1375 5.27486 22.8976 5.26612C33.841 5.25738 42.4101 13.9147 42.617 24.3346C42.8316 35.1818 34.0283 44.1859 22.9447 44.18C12.1179 44.1742 3.35182 35.4625 3.34888 24.6998Z" fill="#FEFEFE"/>
<path d="M22.9926 23.8647C23.0416 23.8696 23.1024 23.8579 23.1367 23.8822C23.6975 24.2745 24.1494 23.8812 24.6141 23.6705C27.5345 22.3459 30.45 21.0106 33.3664 19.6773C33.587 19.5763 33.7645 19.42 33.9282 19.7968C34.0762 20.1357 33.9262 20.1978 33.6762 20.3115C30.5353 21.739 27.3992 23.1762 24.2592 24.6057C24.0288 24.7105 23.8367 24.8154 23.77 25.0883C23.7278 25.2631 23.5906 25.435 23.4181 25.469C22.9789 25.5554 22.9054 25.8943 22.7897 26.2293C22.226 27.8647 21.6535 29.4971 21.0908 31.1334C21.0065 31.3801 20.9614 31.5684 20.6006 31.4364C20.2428 31.3053 20.3339 31.1276 20.4183 30.8877C21.0182 29.1786 21.6113 27.4675 22.2074 25.7574C22.2868 25.5301 22.3279 25.3369 22.2005 25.0776C21.9064 24.4823 22.3407 23.8579 22.9926 23.8647Z" fill="#272F3B"/>
<path d="M22.4289 9.92059C22.4289 9.33793 22.4416 8.75527 22.425 8.17358C22.4132 7.74727 22.6759 7.71813 22.9985 7.71328C23.3328 7.70745 23.5808 7.76281 23.5778 8.17455C23.571 9.3389 23.568 10.5042 23.5778 11.6686C23.5818 12.1056 23.3298 12.1541 22.974 12.1551C22.6171 12.1561 22.4142 12.0638 22.425 11.6666C22.4397 11.0849 22.4289 10.5023 22.4289 9.92059Z" fill="#28303D"/>
<path d="M11.1797 36.995C10.9356 36.9649 10.7788 36.7202 10.6199 36.5085C10.4768 36.3172 10.6141 36.1521 10.7631 36.0064C11.5944 35.1878 12.4247 34.3691 13.2472 33.5427C13.5237 33.265 13.7462 33.3281 13.9893 33.5835C14.204 33.8088 14.403 34.0157 14.1001 34.3138C13.2462 35.1548 12.3953 35.9987 11.5424 36.8416C11.4611 36.9231 11.3719 36.9921 11.1797 36.995Z" fill="#282F3C"/>
<path d="M37.9015 25.3018C37.3163 25.3018 36.73 25.2921 36.1448 25.3057C35.7379 25.3154 35.6585 25.094 35.6615 24.7521C35.6644 24.4258 35.7066 24.1714 36.1222 24.1734C37.3094 24.1782 38.4975 24.1811 39.6847 24.1724C40.1308 24.1695 40.1621 24.4336 40.168 24.7774C40.1739 25.1435 40.0465 25.3125 39.6592 25.3008C39.074 25.2833 38.4877 25.2959 37.9025 25.2959C37.9015 25.2979 37.9015 25.2998 37.9015 25.3018Z" fill="#28303C"/>
<path d="M35.3712 36.4131C35.3261 36.653 35.0928 36.8229 34.8722 36.9715C34.6879 37.0958 34.5115 36.9754 34.3605 36.8239C33.538 35.9994 32.7155 35.174 31.8773 34.3641C31.5852 34.0815 31.6793 33.8717 31.9195 33.6348C32.1479 33.4105 32.3724 33.2444 32.6635 33.5338C33.5145 34.3757 34.3654 35.2186 35.2163 36.0625C35.2987 36.1422 35.3683 36.2315 35.3712 36.4131Z" fill="#292F3C"/>
<path d="M11.2061 12.4341C11.4159 12.436 11.5031 12.5341 11.5953 12.6254C12.4119 13.4353 13.2226 14.251 14.05 15.0502C14.3402 15.3299 14.3255 15.5406 14.0402 15.8155C13.7598 16.0854 13.5501 16.1738 13.2344 15.8475C12.4344 15.0221 11.6051 14.2248 10.7894 13.4139C10.6522 13.278 10.4806 13.1362 10.6434 12.9196C10.8061 12.705 10.962 12.472 11.2061 12.4341Z" fill="#272F3B"/>
<path d="M32.342 16.1018C32.0862 16.062 31.9126 15.8338 31.7617 15.6143C31.6313 15.425 31.7597 15.2589 31.9107 15.1103C32.7528 14.282 33.5919 13.4497 34.4252 12.6117C34.7007 12.3339 34.9007 12.4602 35.1203 12.6835C35.3399 12.9069 35.5379 13.1128 35.234 13.4119C34.3811 14.2528 33.5312 15.0967 32.6793 15.9387C32.5989 16.0193 32.5175 16.0999 32.342 16.1018Z" fill="#282F3C"/>
<path d="M22.4034 39.519C22.4034 38.9373 22.4191 38.3547 22.3985 37.773C22.3828 37.3185 22.6553 37.2991 23.0004 37.2932C23.368 37.2864 23.5376 37.4049 23.5318 37.7943C23.5171 38.9422 23.5141 40.09 23.5337 41.2379C23.5406 41.6729 23.318 41.7399 22.9543 41.7457C22.5652 41.7525 22.3809 41.6282 22.3975 41.2155C22.421 40.6513 22.4034 40.0852 22.4034 39.519Z" fill="#282E3B"/>
<path d="M8.02113 24.161C8.62501 24.161 9.2289 24.1717 9.8318 24.1571C10.2151 24.1474 10.3004 24.3455 10.2916 24.6747C10.2828 24.9816 10.3004 25.2739 9.86023 25.2729C8.65344 25.27 7.44666 25.2739 6.23889 25.2758C5.81147 25.2768 5.80265 24.9874 5.79872 24.6757C5.7948 24.3543 5.87127 24.1464 6.26046 24.1571C6.8467 24.1736 7.43391 24.161 8.02113 24.161Z" fill="#272F3A"/>
</g>
<defs>
<clipPath id="clip0_285_1011">
<rect width="46" height="50" fill="white"/>
</clipPath>
</defs>
</svg>
