<svg width="119" height="56" viewBox="0 0 119 56" fill="none" xmlns="http://www.w3.org/2000/svg">
<g opacity="0.94">
<path d="M19.5501 10.4735V6.72668C19.5501 6.45644 19.6012 6.26655 19.7108 6.15699C19.8203 6.04744 20.0175 5.99631 20.3097 5.99631H22.2086C22.5008 5.99631 22.698 6.04744 22.8075 6.15699C22.9171 6.26655 22.9682 6.45644 22.9682 6.72668V10.415L30.5129 10.2763C30.7685 10.2763 30.9438 10.3201 31.0388 10.415C31.141 10.5027 31.1849 10.6926 31.1849 10.9847V12.6646C31.1849 12.9713 31.1337 13.1758 31.0388 13.2781C30.9365 13.3803 30.7685 13.4314 30.5348 13.4314L13.7145 13.7017C13.4808 13.7017 13.3128 13.6506 13.2105 13.5556C13.1083 13.4534 13.0645 13.2489 13.0645 12.9421V11.2623C13.0645 10.9701 13.1156 10.7802 13.2105 10.6926C13.3128 10.6049 13.4881 10.5538 13.7364 10.5538L19.5501 10.4735ZM13.174 1.0006C13.174 0.730366 13.2251 0.540472 13.3347 0.430917C13.4442 0.321362 13.6414 0.270236 13.9336 0.270236L30.323 0C30.6152 0 30.8124 0.0511252 30.9365 0.16068C31.0607 0.270235 31.1045 0.460131 31.0826 0.730367L30.8416 7.7565C30.827 8.02673 30.7539 8.21663 30.6371 8.32618C30.5202 8.43574 30.3157 8.48686 30.0236 8.48686H28.1246C27.8325 8.48686 27.6426 8.43574 27.5403 8.32618C27.4381 8.21663 27.4016 8.02673 27.4162 7.7565L27.5768 3.19901L13.9263 3.41812C13.6341 3.41812 13.4369 3.36699 13.3274 3.25744C13.2178 3.14788 13.1667 2.95799 13.1667 2.68775V1.0006H13.174ZM22.1283 25.8039C20.9524 25.8039 19.9299 25.6651 19.0608 25.3802C18.1916 25.1027 17.4759 24.7229 16.9208 24.2555C16.3584 23.788 15.9421 23.233 15.6719 22.5976C15.4016 21.9621 15.2629 21.2975 15.2629 20.589C15.2629 19.8806 15.4016 19.216 15.6719 18.5805C15.9421 17.9451 16.3584 17.3973 16.9208 16.9226C17.4832 16.4552 18.1916 16.0754 19.0535 15.7978C19.9153 15.5203 20.9378 15.3742 22.1356 15.3742C23.3334 15.3742 24.3559 15.513 25.2178 15.7978C26.0796 16.0754 26.788 16.4552 27.3504 16.9226C27.9128 17.39 28.3291 17.9451 28.5994 18.5805C28.8696 19.216 29.0084 19.8806 29.0084 20.589C29.0084 21.2975 28.8696 21.9621 28.5994 22.5976C28.3291 23.233 27.9128 23.7807 27.3504 24.2555C26.788 24.7229 26.0796 25.1027 25.2178 25.3802C24.3559 25.6578 23.3188 25.8039 22.1283 25.8039ZM22.1283 22.9262C23.2677 22.9262 24.1076 22.6998 24.6408 22.247C25.1739 21.7941 25.4442 21.2464 25.4442 20.589C25.4442 19.9317 25.1739 19.3839 24.6408 18.9311C24.1076 18.4783 23.2677 18.2519 22.1283 18.2519C20.9889 18.2519 20.149 18.4783 19.6158 18.9311C19.0827 19.3839 18.8124 19.939 18.8124 20.589C18.8124 21.2391 19.0754 21.7941 19.6158 22.247C20.149 22.6998 20.9889 22.9262 22.1283 22.9262Z" fill="#191919"/>
<path d="M42.1492 14.6804C40.9587 14.6804 39.8778 14.4905 38.921 14.1107C37.9642 13.7309 37.1535 13.205 36.4962 12.5331C35.8389 11.8612 35.3276 11.087 34.977 10.2032C34.6265 9.31948 34.4512 8.37001 34.4512 7.3548C34.4512 6.33959 34.6265 5.39011 34.977 4.49176C35.3276 3.59341 35.8389 2.81922 36.4962 2.15458C37.1535 1.49725 37.9642 0.971388 38.921 0.584293C39.8778 0.197199 40.9587 0 42.1492 0C43.5077 0 44.7055 0.241021 45.7426 0.730367C46.7798 1.21971 47.6343 1.87704 48.3062 2.70966L53.6233 2.60011V1.27084C53.6233 1.0006 53.6744 0.810707 53.784 0.701152C53.8935 0.591597 54.0907 0.540471 54.3829 0.540471H56.2818C56.574 0.540471 56.7712 0.598901 56.8807 0.701152C56.9903 0.810707 57.0414 1.0006 57.0414 1.27084V15.4327C57.0414 15.7029 56.9903 15.8928 56.8807 16.0023C56.7712 16.1119 56.574 16.163 56.2818 16.163H54.3829C54.0907 16.163 53.8935 16.1119 53.784 16.0023C53.6744 15.8928 53.6233 15.7029 53.6233 15.4327V11.6055L48.4961 11.7151C47.8461 12.6207 46.9843 13.3365 45.9033 13.8697C44.8297 14.4101 43.5808 14.6804 42.1492 14.6804ZM42.1492 11.5325C42.8577 11.5325 43.4712 11.4229 44.0044 11.2038C44.5375 10.9847 44.9831 10.6853 45.3482 10.3055C45.7134 9.92569 45.9837 9.48016 46.1736 8.97621C46.3635 8.47226 46.4584 7.92448 46.4584 7.34749C46.4584 6.74859 46.3635 6.20082 46.1736 5.68956C45.9837 5.18561 45.7061 4.74008 45.3482 4.36029C44.9831 3.9805 44.5375 3.68105 44.0044 3.46194C43.4712 3.24283 42.8504 3.13327 42.1492 3.13327C41.4627 3.13327 40.8492 3.24283 40.316 3.46194C39.7829 3.68105 39.3373 3.9805 38.9721 4.36029C38.607 4.74008 38.3367 5.18561 38.1468 5.70417C37.9569 6.22273 37.862 6.7705 37.862 7.34749C37.862 7.92448 37.9569 8.47226 38.1468 8.97621C38.3367 9.48016 38.6143 9.92569 38.9721 10.3055C39.3373 10.6853 39.7829 10.9847 40.316 11.2038C40.8492 11.4229 41.4627 11.5325 42.1492 11.5325ZM41.3385 25.2342C41.0464 25.2342 40.8492 25.1831 40.7396 25.0735C40.6301 24.9639 40.579 24.774 40.579 24.5038V17.0102C40.579 16.74 40.6301 16.5501 40.7396 16.4406C40.8492 16.331 41.0464 16.2799 41.3385 16.2799H43.2375C43.5296 16.2799 43.7268 16.331 43.8364 16.4406C43.9459 16.5501 43.9971 16.74 43.9971 17.0102V22.0279L55.7998 21.8088C56.0554 21.8088 56.2307 21.8526 56.3257 21.9475C56.4279 22.0352 56.4717 22.2251 56.4717 22.5172V24.2555C56.4717 24.5476 56.4279 24.7375 56.333 24.8252C56.238 24.9128 56.07 24.9639 55.8144 24.9639L41.3385 25.2342ZM49.8838 7.3548C49.8838 7.7711 49.8546 8.1655 49.8035 8.54529L53.6306 8.46495V5.74799L49.7231 5.82833C49.8327 6.31767 49.8838 6.82893 49.8838 7.3548Z" fill="#191919"/>
<path d="M73.9268 0.268555C74.1825 0.268555 74.3578 0.312376 74.4527 0.407324C74.555 0.494968 74.5988 0.684864 74.5988 0.977011V2.65685C74.5988 2.96361 74.5477 3.16811 74.4527 3.27036C74.3505 3.37261 74.1825 3.41644 73.9487 3.41644L69.121 3.52599V7.3239C69.121 7.65256 69.1283 7.9228 69.1502 8.13461C69.1648 8.35372 69.3036 8.55092 69.5592 8.73351L74.6864 12.3707C74.869 12.5168 74.9494 12.6483 74.942 12.7797C74.9347 12.9039 74.8544 13.0573 74.7083 13.2399L73.4594 14.7298C73.3133 14.9124 73.1673 15.0001 73.0285 15.0001C72.8824 15.0001 72.7144 14.927 72.5099 14.7809L67.4339 11.1729L62.4382 15.1315C62.241 15.2776 62.073 15.3433 61.9488 15.336C61.8247 15.3287 61.6713 15.2338 61.4887 15.0512L60.101 13.6708C59.7723 13.3421 59.7723 13.05 60.101 12.7724L65.2574 8.70429C65.4911 8.50709 65.6226 8.30259 65.6518 8.09079C65.681 7.88628 65.6956 7.61605 65.6956 7.28738V3.59903L60.8094 3.67937C60.5757 3.67937 60.4077 3.62824 60.3055 3.5333C60.2032 3.43104 60.1594 3.23384 60.1594 2.91979V1.23994C60.1594 0.947795 60.2105 0.757901 60.3055 0.670257C60.4077 0.582613 60.583 0.531487 60.8314 0.531487L73.9268 0.268555ZM65.3523 25.2325C65.0602 25.2325 64.863 25.1814 64.7534 25.0718C64.6439 24.9623 64.5927 24.7724 64.5927 24.5021V17.0086C64.5927 16.7383 64.6439 16.5484 64.7534 16.4389C64.863 16.3293 65.0602 16.2782 65.3523 16.2782H67.2513C67.5434 16.2782 67.7406 16.3293 67.8502 16.4389C67.9597 16.5484 68.0109 16.7383 68.0109 17.0086V22.0262L79.8136 21.8071C80.0692 21.8071 80.2445 21.8509 80.3395 21.9458C80.4417 22.0335 80.4855 22.2234 80.4855 22.5155V24.2538C80.4855 24.546 80.4417 24.7358 80.3468 24.8235C80.2518 24.9111 80.0838 24.9623 79.8282 24.9623L65.3523 25.2325ZM77.6444 5.88508V1.26916C77.6444 0.998922 77.6955 0.809026 77.8051 0.699471C77.9146 0.589916 78.1118 0.53879 78.404 0.53879H80.3029C80.5951 0.53879 80.7923 0.59722 80.9018 0.699471C81.0114 0.801723 81.0625 0.998922 81.0625 1.26916V15.431C81.0625 15.7012 81.0114 15.8911 80.9018 16.0007C80.7923 16.1102 80.5951 16.1613 80.3029 16.1613H78.404C78.1118 16.1613 77.9146 16.1102 77.8051 16.0007C77.6955 15.8911 77.6444 15.7012 77.6444 15.431V9.03296L73.5763 9.1133C73.3206 9.1133 73.1453 9.06948 73.0504 8.97453C72.9481 8.88688 72.9043 8.69699 72.9043 8.40484V6.66657C72.9043 6.37442 72.9554 6.18453 73.0504 6.09688C73.1526 6.00924 73.3279 5.95811 73.5763 5.95811L77.6444 5.88508Z" fill="#191919"/>
<path d="M93.1359 10.122C93.1359 10.4506 93.1578 10.699 93.2016 10.8815C93.2455 11.0641 93.3696 11.2759 93.5668 11.5316L98.7232 18.0464C98.9788 18.3751 98.9423 18.6527 98.6137 18.8864L96.9849 20.2449C96.8023 20.3909 96.6563 20.4567 96.554 20.4494C96.4445 20.4421 96.3203 20.3471 96.1742 20.1645L91.4268 14.1974L86.5991 20.5224C86.453 20.705 86.3289 20.7999 86.2193 20.8072C86.1098 20.8145 85.9637 20.7488 85.7884 20.6027L84.1597 19.2223C83.8675 18.9521 83.8529 18.6527 84.1086 18.324L89.2942 11.5389C89.4768 11.2832 89.5936 11.0714 89.6447 10.8889C89.6959 10.7063 89.7251 10.4579 89.7251 10.1293V1.26992C89.7251 0.999682 89.7762 0.809787 89.8858 0.700232C89.9953 0.590677 90.1925 0.539551 90.4847 0.539551H92.3836C92.6758 0.539551 92.873 0.59798 92.9825 0.700232C93.0921 0.809787 93.1432 0.999682 93.1432 1.26992V10.122H93.1359ZM101.652 1.81769C101.652 1.54746 101.703 1.35756 101.813 1.24801C101.922 1.13845 102.119 1.08733 102.412 1.08733H104.311C104.603 1.08733 104.8 1.13845 104.909 1.24801C105.019 1.35756 105.07 1.54746 105.07 1.81769V19.2369C105.07 19.5072 105.019 19.6971 104.909 19.8066C104.8 19.9162 104.603 19.9673 104.311 19.9673H102.412C102.119 19.9673 101.922 19.9162 101.813 19.8066C101.703 19.6971 101.652 19.5072 101.652 19.2369V1.81769Z" fill="#191919"/>
<path d="M1.02982 51.3278C0.737671 51.3424 0.540472 51.2986 0.430917 51.1818C0.321361 51.0649 0.270236 50.8677 0.270236 50.5975L0 32.09C0 31.8197 0.0511257 31.6298 0.160681 31.5203C0.270236 31.4107 0.467435 31.3596 0.759582 31.3596L12.5915 31.0894C12.8837 31.0894 13.0809 31.1478 13.205 31.25C13.3219 31.3596 13.373 31.5495 13.3511 31.8197L12.7814 50.3272C12.7668 50.5975 12.7011 50.7874 12.6061 50.8823C12.5039 50.9846 12.314 51.043 12.0218 51.0576L1.02982 51.3278ZM3.63723 48.1288L9.41443 47.99L9.84535 34.2884L3.44733 34.449L3.63723 48.1288ZM19.6688 42.5926V49.7867C19.6688 50.057 19.6177 50.2469 19.5081 50.3564C19.3985 50.466 19.2013 50.5171 18.9092 50.5171H17.0102C16.7181 50.5171 16.5209 50.466 16.4113 50.3564C16.3018 50.2469 16.2507 50.057 16.2507 49.7867V32.3602C16.2507 32.09 16.3018 31.9001 16.4113 31.7905C16.5209 31.681 16.7181 31.6298 17.0102 31.6298H18.9092C19.2013 31.6298 19.3985 31.681 19.5081 31.7905C19.6177 31.9001 19.6688 32.09 19.6688 32.3602V39.4448L21.7065 39.3644C21.9621 39.3498 22.1374 39.3863 22.2324 39.4886C22.3346 39.5908 22.3784 39.7807 22.3784 40.0729V41.8111C22.3784 42.1033 22.3273 42.2859 22.2324 42.3662C22.1301 42.4466 21.9548 42.4977 21.7065 42.5123L19.6688 42.5926Z" fill="#191919"/>
<path d="M32.1303 39.0357C32.3859 38.8751 32.5393 38.7436 32.605 38.656C32.6707 38.5683 32.6999 38.3638 32.6999 38.0571V31.8197C32.6999 31.5495 32.7511 31.3596 32.8606 31.25C32.9702 31.1405 33.1674 31.0894 33.4595 31.0894H35.3585C35.6506 31.0894 35.8478 31.1478 35.9574 31.25C36.0669 31.3596 36.1181 31.5495 36.1181 31.8197V38.0059C36.1181 38.3127 36.1473 38.5172 36.213 38.6194C36.2787 38.7217 36.4321 38.8385 36.6877 38.9846L43.524 43.0016C43.7796 43.1477 43.9184 43.2865 43.9549 43.4253C43.9914 43.564 43.9403 43.7466 43.7942 43.9803L42.7936 45.6602C42.6475 45.9158 42.5161 46.0473 42.3846 46.0546C42.2604 46.0619 42.0706 45.9961 41.8149 45.8501L34.3287 41.4533L27.0542 46.1203C26.857 46.2664 26.6817 46.3102 26.5283 46.2591C26.375 46.208 26.2143 46.0546 26.0536 45.7989L25.1552 44.3601C25.0092 44.141 24.9507 43.9584 24.98 43.805C25.0092 43.6517 25.1479 43.5056 25.4036 43.3595L32.1303 39.0357ZM42.5161 48.5086C42.7717 48.5086 42.947 48.5524 43.0419 48.6474C43.1442 48.735 43.188 48.9249 43.188 49.2171V50.8969C43.188 51.2037 43.1369 51.4082 43.0419 51.5104C42.9397 51.6127 42.7717 51.6638 42.538 51.6638L26.2581 51.934C26.0244 51.934 25.8564 51.8829 25.7541 51.788C25.6519 51.6857 25.6081 51.4812 25.6081 51.1744V49.4946C25.6081 49.2025 25.6592 49.0126 25.7541 48.9249C25.8564 48.8373 26.0317 48.7862 26.28 48.7862L42.5161 48.5086Z" fill="#191919"/>
<path d="M59.7219 50.3272C59.7219 50.5975 59.6707 50.7874 59.5612 50.8823C59.4516 50.9846 59.2544 51.043 58.9623 51.0576L47.9702 51.3278C47.6781 51.3424 47.4809 51.2986 47.3713 51.1818C47.2618 51.0649 47.2107 50.8677 47.2107 50.5975L46.9404 32.09C46.9404 31.8197 46.9916 31.6298 47.1011 31.5203C47.2107 31.4107 47.4079 31.3596 47.7 31.3596L59.532 31.0894C59.8241 31.0894 60.0213 31.1478 60.1309 31.25C60.2404 31.3523 60.2915 31.5495 60.2915 31.8197V33.4996C60.2915 33.7698 60.2404 33.9597 60.1309 34.0693C60.0213 34.1788 59.8241 34.2299 59.532 34.2299L50.3878 34.449L50.4681 39.6858L57.4431 39.4959C57.7353 39.4813 57.9325 39.5251 58.042 39.642C58.1516 39.7588 58.2027 39.956 58.2027 40.2262V41.9061C58.2027 42.1763 58.1516 42.3662 58.042 42.4612C57.9325 42.5634 57.7353 42.6218 57.4431 42.6365L50.5265 42.8264L50.5777 48.1142L58.9623 47.8951C59.2544 47.8805 59.4516 47.9243 59.5612 48.0412C59.6707 48.158 59.7219 48.3552 59.7219 48.6255V50.3272ZM64.2793 39.1161V32.3602C64.2793 32.09 64.3305 31.9001 64.44 31.7905C64.5496 31.681 64.7468 31.6298 65.0389 31.6298H66.9379C67.23 31.6298 67.4272 31.681 67.5368 31.7905C67.6463 31.9001 67.6975 32.09 67.6975 32.3602V49.7794C67.6975 50.0497 67.6463 50.2396 67.5368 50.3491C67.4272 50.4587 67.23 50.5098 66.9379 50.5098H65.0389C64.7468 50.5098 64.5496 50.4587 64.44 50.3491C64.3305 50.2396 64.2793 50.0497 64.2793 49.7794V42.264L60.6129 42.3443C60.3573 42.3443 60.182 42.3005 60.087 42.2055C59.9848 42.1179 59.941 41.928 59.941 41.6359V39.8976C59.941 39.6054 59.9921 39.4155 60.087 39.3279C60.1893 39.2403 60.3646 39.1891 60.6129 39.1891L64.2793 39.1161Z" fill="#191919"/>
<path d="M75.9434 31.6829V30.0834C75.9434 29.8132 75.9946 29.6233 76.1041 29.5137C76.2137 29.4042 76.4109 29.353 76.703 29.353H78.602C78.8941 29.353 79.0913 29.4042 79.2009 29.5137C79.3104 29.6233 79.3615 29.8132 79.3615 30.0834V31.6026L84.1674 31.493C84.423 31.493 84.5983 31.5368 84.6932 31.6318C84.7955 31.7267 84.8393 31.9093 84.8393 32.2015V33.8813C84.8393 34.1881 84.7882 34.3926 84.6932 34.4948C84.591 34.5971 84.423 34.6409 84.1893 34.6409L71.0646 34.9111C70.8309 34.9111 70.6629 34.86 70.5606 34.765C70.4584 34.6628 70.4146 34.4656 70.4146 34.1515V32.4717C70.4146 32.1795 70.4657 31.9897 70.5606 31.902C70.6629 31.8144 70.8382 31.7632 71.0865 31.7632L75.9434 31.6829ZM77.93 45.7425C75.7974 45.7425 74.1394 45.3335 72.9635 44.5081C71.7876 43.6828 71.2033 42.4777 71.2033 40.8855C71.2033 39.2933 71.7876 38.0809 72.9635 37.2483C74.1394 36.4157 75.7974 35.9994 77.93 35.9994C80.0627 35.9994 81.7206 36.4157 82.8965 37.2483C84.0724 38.0809 84.664 39.2933 84.664 40.8855C84.664 42.4777 84.0724 43.6828 82.8965 44.5081C81.7133 45.3335 80.0627 45.7425 77.93 45.7425ZM87.3152 55.7777C87.0231 55.7777 86.8186 55.7266 86.7017 55.617C86.5849 55.5075 86.5338 55.3176 86.5557 55.0473L86.7163 50.2707L75.1546 50.4898C74.899 50.4898 74.7237 50.446 74.6288 50.3511C74.5265 50.2634 74.4827 50.0735 74.4827 49.7814V48.0431C74.4827 47.751 74.5338 47.5611 74.6288 47.4734C74.731 47.3858 74.9063 47.3347 75.1546 47.3347L89.5356 47.0644C89.7912 47.0644 89.9665 47.1082 90.076 47.2032C90.1856 47.2908 90.2294 47.4807 90.2148 47.7729L89.9738 55.0473C89.9592 55.3176 89.8934 55.5075 89.7985 55.617C89.6962 55.7266 89.5063 55.7777 89.2142 55.7777H87.3152V55.7777ZM77.93 42.8648C78.9087 42.8648 79.6902 42.7041 80.2891 42.3901C80.888 42.076 81.1875 41.5721 81.1875 40.8855C81.1875 40.199 80.888 39.695 80.2891 39.3664C79.6902 39.0377 78.9087 38.877 77.93 38.877C76.9513 38.877 76.1625 39.0377 75.5709 39.3664C74.972 39.695 74.6726 40.199 74.6726 40.8855C74.6726 41.5721 74.972 42.076 75.5709 42.3901C76.1625 42.7041 76.9513 42.8648 77.93 42.8648ZM87.2057 31.8217C87.2057 31.5514 87.2568 31.3615 87.3664 31.252C87.4759 31.1424 87.6731 31.0913 87.9653 31.0913H89.8642C90.1564 31.0913 90.3536 31.1497 90.4631 31.252C90.5727 31.3615 90.6238 31.5514 90.6238 31.8217V36.6275L92.6615 36.5471C92.9172 36.5325 93.0924 36.5691 93.1874 36.6713C93.2896 36.7736 93.3335 36.9635 93.3335 37.2556V38.9354C93.3335 39.2422 93.2823 39.4394 93.1874 39.5343C93.0851 39.622 92.9172 39.6804 92.6834 39.695L90.6238 39.7754V44.6323C90.6238 44.9025 90.5727 45.0924 90.4631 45.202C90.3536 45.3115 90.1564 45.3627 89.8642 45.3627H87.9653C87.6731 45.3627 87.4759 45.3115 87.3664 45.202C87.2568 45.0924 87.2057 44.9025 87.2057 44.6323V31.8217V31.8217Z" fill="#191919"/>
<path d="M99.5274 48.7204V39.8538C99.5274 39.5835 99.5786 39.3936 99.6881 39.2841C99.7977 39.1745 99.9949 39.1234 100.287 39.1234H102.186C102.478 39.1234 102.675 39.1745 102.785 39.2841C102.894 39.3936 102.946 39.5835 102.946 39.8538V48.6693L109.621 48.5086C109.877 48.5086 110.052 48.5524 110.147 48.6474C110.249 48.735 110.293 48.9249 110.293 49.2171V50.8969C110.293 51.2037 110.242 51.4082 110.147 51.5104C110.045 51.6127 109.877 51.6638 109.643 51.6638L96.5621 51.934C96.3284 51.934 96.1604 51.8829 96.0582 51.788C95.9559 51.6857 95.9121 51.4812 95.9121 51.1744V49.4946C95.9121 49.2025 95.9632 49.0126 96.0582 48.9249C96.1604 48.8373 96.3357 48.7862 96.584 48.7862L99.5274 48.7204ZM96.0509 32.09C96.0509 31.8197 96.102 31.6298 96.2116 31.5203C96.3211 31.4107 96.5183 31.3596 96.8105 31.3596L108.913 31.0894C109.205 31.0894 109.402 31.1478 109.526 31.25C109.643 31.3596 109.694 31.5495 109.672 31.8197L109.073 45.4411C109.059 45.7113 108.986 45.9012 108.869 46.0108C108.752 46.1203 108.547 46.1714 108.255 46.1714H106.356C106.064 46.1714 105.874 46.1203 105.772 46.0108C105.67 45.9012 105.633 45.7113 105.648 45.4411L106.137 34.3176L96.8031 34.5075C96.511 34.5075 96.3138 34.4563 96.2043 34.3468C96.0947 34.2372 96.0436 34.0473 96.0436 33.7771V32.09H96.0509ZM115.727 42.5926V49.7867C115.727 50.057 115.676 50.2469 115.566 50.3564C115.457 50.466 115.26 50.5171 114.967 50.5171H113.068C112.776 50.5171 112.579 50.466 112.47 50.3564C112.36 50.2469 112.309 50.057 112.309 49.7867V32.3602C112.309 32.09 112.36 31.9001 112.47 31.7905C112.579 31.681 112.776 31.6298 113.068 31.6298H114.967C115.26 31.6298 115.457 31.681 115.566 31.7905C115.676 31.9001 115.727 32.09 115.727 32.3602V39.4448L117.765 39.3644C118.02 39.3498 118.196 39.3863 118.291 39.4886C118.393 39.5908 118.437 39.7807 118.437 40.0729V41.8111C118.437 42.1033 118.386 42.2859 118.291 42.3662C118.188 42.4466 118.013 42.4977 117.765 42.5123L115.727 42.5926Z" fill="#191919"/>
</g>
</svg>
