<svg width="362" height="50" viewBox="0 0 362 50" fill="none" xmlns="http://www.w3.org/2000/svg">
<rect x="23" y="13" width="339" height="25" rx="12" fill="white"/>
<rect x="23" y="13" width="13" height="25" rx="6.5" fill="#228277"/>
<g clip-path="url(#clip0_396_5095)">
<path d="M15.4359 44.9948C15.4359 46.2544 15.4359 47.5294 15.4359 48.8045C15.4359 49.9873 15.4359 49.9873 14.2507 49.9873C13.6301 49.9873 13.0076 49.961 12.389 49.997C12.0087 50.0193 11.9028 49.8688 11.8224 49.5299C11.2636 47.1546 10.6734 44.787 10.1156 42.4117C10.0421 42.099 9.88428 41.9058 9.64606 41.7184C5.47084 38.4419 2.8014 34.2331 1.69559 29.0649C-0.665043 18.0196 6.26294 6.86363 17.2887 3.9513C17.7612 3.82603 18.2759 3.79787 18.7063 3.59296C19.1876 3.36281 19.0484 2.75199 19.2592 2.33345C20.0366 0.792311 21.6708 -0.148686 23.3844 0.0193147C25.1068 0.188286 26.5479 1.41479 26.944 3.09188C27.0293 3.45215 27.1685 3.61433 27.5479 3.69299C36.1855 5.46816 43.0233 12.4523 44.3782 21.1291C45.6585 29.332 42.9704 36.1462 36.5747 41.5144C36.3551 41.6989 36.2071 41.8864 36.1306 42.1748C35.4768 44.6433 34.7954 47.1041 34.1425 49.5726C34.0553 49.9018 33.9239 50.0077 33.5798 49.997C32.6985 49.9698 31.8162 49.9737 30.9349 49.996C30.6084 50.0038 30.5222 49.9038 30.5251 49.5872C30.5418 48.1635 30.5261 46.7399 30.5369 45.3163C30.5388 45.0182 30.5114 44.924 30.1644 45.0405C25.399 46.6496 20.6267 46.6642 15.8525 45.0667C15.7329 45.0259 15.6202 44.9327 15.4359 44.9948Z" fill="#272F3C"/>
<path d="M6.74297 2.01994C8.44776 1.98207 9.94081 2.51812 11.2368 3.6174C11.5142 3.85241 11.5701 4.00487 11.2731 4.29814C9.24673 6.29472 7.24 8.30976 5.2313 10.3228C4.26764 11.2891 3.30496 12.2573 2.35796 13.24C2.10209 13.5061 1.95308 13.4886 1.69918 13.2264C-0.478136 10.9793 -0.576169 6.85116 1.48841 4.48945C2.46775 3.36977 3.64317 2.58124 5.09308 2.18794C5.63814 2.03936 6.1881 2.03548 6.74297 2.01994Z" fill="#F3AD3E"/>
<path d="M39.2235 2.03558C42.039 1.96955 44.6193 3.78065 45.5623 6.44147C46.4319 8.89252 45.9956 11.1824 44.3105 13.212C44.1164 13.446 43.9909 13.4936 43.7438 13.2498C41.4979 11.0396 39.2392 8.843 36.9825 6.64248C36.1924 5.8724 35.411 5.09358 34.6052 4.33903C34.3219 4.07392 34.3699 3.90689 34.6415 3.68645C35.963 2.61533 37.4452 1.9948 39.2235 2.03558Z" fill="#F3AD3E"/>
<path d="M3.34863 24.6998C3.34471 14.0138 12.1373 5.27486 22.8974 5.26612C33.8408 5.25738 42.4099 13.9147 42.6167 24.3346C42.8314 35.1818 34.028 44.1859 22.9444 44.18C12.1177 44.1742 3.35158 35.4625 3.34863 24.6998Z" fill="#FEFEFE"/>
<path d="M22.9926 23.8647C23.0416 23.8696 23.1024 23.8579 23.1367 23.8822C23.6975 24.2745 24.1494 23.8812 24.6141 23.6705C27.5345 22.3459 30.45 21.0106 33.3664 19.6773C33.587 19.5763 33.7645 19.42 33.9282 19.7968C34.0762 20.1357 33.9262 20.1978 33.6762 20.3115C30.5353 21.739 27.3992 23.1762 24.2592 24.6057C24.0288 24.7105 23.8367 24.8154 23.77 25.0883C23.7278 25.2631 23.5906 25.435 23.4181 25.469C22.9789 25.5554 22.9054 25.8943 22.7897 26.2293C22.226 27.8647 21.6535 29.4971 21.0908 31.1334C21.0065 31.3801 20.9614 31.5684 20.6006 31.4364C20.2428 31.3053 20.3339 31.1276 20.4183 30.8877C21.0182 29.1786 21.6113 27.4675 22.2074 25.7574C22.2868 25.5301 22.3279 25.3369 22.2005 25.0776C21.9064 24.4823 22.3407 23.8579 22.9926 23.8647Z" fill="#272F3B"/>
<path d="M22.4291 9.92059C22.4291 9.33793 22.4419 8.75527 22.4252 8.17358C22.4134 7.74727 22.6762 7.71813 22.9987 7.71328C23.333 7.70745 23.581 7.76281 23.5781 8.17455C23.5712 9.3389 23.5683 10.5042 23.5781 11.6686C23.582 12.1056 23.3301 12.1541 22.9742 12.1551C22.6174 12.1561 22.4144 12.0638 22.4252 11.6666C22.4399 11.0849 22.4291 10.5023 22.4291 9.92059Z" fill="#28303D"/>
<path d="M11.1797 36.995C10.9356 36.9649 10.7788 36.7202 10.6199 36.5085C10.4768 36.3172 10.6141 36.1521 10.7631 36.0064C11.5944 35.1878 12.4247 34.3691 13.2472 33.5427C13.5237 33.265 13.7462 33.3281 13.9893 33.5835C14.204 33.8088 14.403 34.0157 14.1001 34.3138C13.2462 35.1548 12.3953 35.9987 11.5424 36.8416C11.4611 36.9231 11.3719 36.9921 11.1797 36.995Z" fill="#282F3C"/>
<path d="M37.9013 25.3018C37.316 25.3018 36.7298 25.2921 36.1445 25.3057C35.7377 25.3154 35.6583 25.094 35.6612 24.7521C35.6642 24.4258 35.7063 24.1714 36.122 24.1734C37.3091 24.1782 38.4973 24.1811 39.6845 24.1724C40.1305 24.1695 40.1619 24.4336 40.1678 24.7774C40.1737 25.1435 40.0462 25.3125 39.659 25.3008C39.0737 25.2833 38.4875 25.2959 37.9022 25.2959C37.9013 25.2979 37.9013 25.2998 37.9013 25.3018Z" fill="#28303C"/>
<path d="M35.371 36.4131C35.3259 36.653 35.0925 36.8229 34.872 36.9715C34.6877 37.0958 34.5112 36.9754 34.3602 36.8239C33.5377 35.9994 32.7152 35.174 31.8771 34.3641C31.5849 34.0815 31.679 33.8717 31.9192 33.6348C32.1476 33.4105 32.3721 33.2444 32.6633 33.5338C33.5142 34.3757 34.3651 35.2186 35.2161 36.0625C35.2984 36.1422 35.368 36.2315 35.371 36.4131Z" fill="#292F3C"/>
<path d="M11.2061 12.4341C11.4159 12.436 11.5031 12.5341 11.5953 12.6254C12.4119 13.4353 13.2226 14.251 14.05 15.0502C14.3402 15.3299 14.3255 15.5406 14.0402 15.8155C13.7598 16.0854 13.5501 16.1738 13.2344 15.8475C12.4344 15.0221 11.6051 14.2248 10.7894 13.4139C10.6522 13.278 10.4806 13.1362 10.6434 12.9196C10.8061 12.705 10.962 12.472 11.2061 12.4341Z" fill="#272F3B"/>
<path d="M32.3423 16.1018C32.0864 16.062 31.9129 15.8338 31.7619 15.6143C31.6315 15.425 31.7599 15.2589 31.9109 15.1103C32.753 14.282 33.5922 13.4497 34.4255 12.6117C34.7009 12.3339 34.9009 12.4602 35.1205 12.6835C35.3401 12.9069 35.5381 13.1128 35.2342 13.4119C34.3813 14.2528 33.5314 15.0967 32.6795 15.9387C32.5991 16.0193 32.5177 16.0999 32.3423 16.1018Z" fill="#282F3C"/>
<path d="M22.4034 39.519C22.4034 38.9373 22.4191 38.3547 22.3985 37.773C22.3828 37.3185 22.6553 37.2991 23.0004 37.2932C23.368 37.2864 23.5376 37.4049 23.5318 37.7943C23.5171 38.9422 23.5141 40.09 23.5337 41.2379C23.5406 41.6729 23.318 41.7399 22.9543 41.7457C22.5652 41.7525 22.3809 41.6282 22.3975 41.2155C22.421 40.6513 22.4034 40.0852 22.4034 39.519Z" fill="#282E3B"/>
<path d="M8.02138 24.161C8.62526 24.161 9.22914 24.1717 9.83204 24.1571C10.2154 24.1474 10.3006 24.3455 10.2918 24.6747C10.283 24.9816 10.3006 25.2739 9.86047 25.2729C8.65369 25.27 7.4469 25.2739 6.23914 25.2758C5.81171 25.2768 5.80289 24.9874 5.79897 24.6757C5.79505 24.3543 5.87151 24.1464 6.2607 24.1571C6.84694 24.1736 7.43416 24.161 8.02138 24.161Z" fill="#272F3A"/>
</g>
<defs>
<clipPath id="clip0_396_5095">
<rect width="46" height="50" fill="white"/>
</clipPath>
</defs>
</svg>
