<svg width="122" height="56" viewBox="0 0 122 56" fill="none" xmlns="http://www.w3.org/2000/svg">
<g opacity="0.94">
<path d="M33.3265 10.4735V6.72668C33.3265 6.45645 33.3776 6.26655 33.4871 6.157C33.5967 6.04744 33.7939 5.99632 34.086 5.99632H35.985C36.2771 5.99632 36.4743 6.04744 36.5839 6.157C36.6934 6.26655 36.7446 6.45645 36.7446 6.72668V10.415L44.2893 10.2763C44.5449 10.2763 44.7202 10.3201 44.8151 10.415C44.9174 10.5027 44.9612 10.6926 44.9612 10.9847V12.6646C44.9612 12.9713 44.9101 13.1758 44.8151 13.2781C44.7129 13.3803 44.5449 13.4315 44.3112 13.4315L27.4908 13.7017C27.2571 13.7017 27.0891 13.6506 26.9869 13.5556C26.8846 13.4534 26.8408 13.2489 26.8408 12.9421V11.2623C26.8408 10.9701 26.8919 10.7802 26.9869 10.6926C27.0891 10.6049 27.2644 10.5538 27.5127 10.5538L33.3265 10.4735ZM26.9504 1.00061C26.9504 0.730374 27.0015 0.54048 27.1111 0.430925C27.2206 0.32137 27.4178 0.270243 27.71 0.270243L44.0994 0C44.3915 0 44.5887 0.0511266 44.7129 0.160682C44.837 0.270237 44.8809 0.460131 44.859 0.730367L44.6179 7.7565C44.6033 8.02674 44.5303 8.21663 44.4134 8.32619C44.2966 8.43574 44.0921 8.48687 43.7999 8.48687H41.901C41.6088 8.48687 41.4189 8.43574 41.3167 8.32619C41.2144 8.21663 41.1779 8.02674 41.1925 7.7565L41.3532 3.19901L27.7026 3.41812C27.4105 3.41812 27.2133 3.367 27.1037 3.25744C26.9942 3.14789 26.9431 2.95799 26.9431 2.68776V1.00061H26.9504ZM35.9047 25.8039C34.7288 25.8039 33.7062 25.6651 32.8371 25.3802C31.968 25.1027 31.2522 24.7229 30.6972 24.2555C30.1348 23.7881 29.7184 23.233 29.4482 22.5976C29.178 21.9621 29.0392 21.2975 29.0392 20.589C29.0392 19.8806 29.178 19.216 29.4482 18.5805C29.7184 17.9451 30.1348 17.3973 30.6972 16.9226C31.2595 16.4552 31.968 16.0754 32.8298 15.7978C33.6917 15.5203 34.7142 15.3742 35.912 15.3742C37.1098 15.3742 38.1323 15.513 38.9941 15.7978C39.856 16.0754 40.5644 16.4552 41.1268 16.9226C41.6892 17.39 42.1055 17.9451 42.3757 18.5805C42.6459 19.216 42.7847 19.8806 42.7847 20.589C42.7847 21.2975 42.6459 21.9621 42.3757 22.5976C42.1055 23.233 41.6892 23.7808 41.1268 24.2555C40.5644 24.7229 39.856 25.1027 38.9941 25.3802C38.1323 25.6578 37.0952 25.8039 35.9047 25.8039ZM35.9047 22.9262C37.044 22.9262 37.8839 22.6998 38.4171 22.247C38.9503 21.7942 39.2205 21.2464 39.2205 20.589C39.2205 19.9317 38.9503 19.3839 38.4171 18.9311C37.8839 18.4783 37.044 18.2519 35.9047 18.2519C34.7653 18.2519 33.9254 18.4783 33.3922 18.9311C32.859 19.3839 32.5888 19.939 32.5888 20.589C32.5888 21.2391 32.8517 21.7942 33.3922 22.247C33.9254 22.6998 34.7653 22.9262 35.9047 22.9262Z" fill="#191919"/>
<path d="M62.0601 0.268555C62.3158 0.268555 62.4911 0.312378 62.586 0.407326C62.6883 0.49497 62.7321 0.684865 62.7321 0.977012V2.65686C62.7321 2.96361 62.681 3.16811 62.586 3.27036C62.4838 3.37261 62.3158 3.41643 62.0821 3.41643L57.2544 3.52599V6.23565C57.2544 6.56432 57.2616 6.83455 57.2836 7.05366C57.2982 7.27277 57.4369 7.46997 57.6926 7.65256L62.8197 11.2898C63.0023 11.4359 63.0827 11.5673 63.0754 11.6988C63.0681 11.823 62.9877 11.9763 62.8416 12.1589L61.5927 13.6489C61.4467 13.8315 61.3006 13.9191 61.1618 13.9191C61.0157 13.9191 60.8477 13.8461 60.6432 13.7L55.5672 10.092L50.5715 14.0506C50.3743 14.1966 50.2063 14.2624 50.0821 14.2551C49.958 14.2478 49.8046 14.1528 49.622 13.9702L48.2343 12.5898C47.9056 12.2612 47.9056 11.969 48.2343 11.6915L53.3907 7.62334C53.6244 7.42614 53.7559 7.22164 53.7851 7.00984C53.8143 6.79803 53.8289 6.5351 53.8289 6.20643V3.59903L48.9428 3.67937C48.7091 3.67937 48.5411 3.62824 48.4388 3.5333C48.3366 3.43104 48.2927 3.23384 48.2927 2.91978V1.23994C48.2927 0.947797 48.3439 0.757903 48.4388 0.670259C48.5411 0.582615 48.7163 0.531487 48.9647 0.531487L62.0601 0.268555ZM65.3468 25.2325C65.0546 25.2325 64.8502 25.1814 64.7333 25.0718C64.6164 24.9623 64.5653 24.7724 64.5872 24.5021L64.7479 18.6446L53.1862 18.8637C52.9306 18.8637 52.7553 18.8199 52.6603 18.7249C52.5581 18.6373 52.5142 18.4474 52.5142 18.1552V16.417C52.5142 16.1248 52.5654 15.9349 52.6603 15.8473C52.7626 15.7596 52.9379 15.7085 53.1862 15.7085L67.5671 15.4383C67.8228 15.4383 67.998 15.4821 68.1076 15.577C68.2172 15.6647 68.261 15.8546 68.2464 16.1467L68.0053 24.5021C67.9907 24.7724 67.925 24.9623 67.8301 25.0718C67.7351 25.1814 67.5379 25.2325 67.2458 25.2325H65.3468ZM65.7777 1.26915C65.7777 0.998918 65.8288 0.809024 65.9384 0.699469C66.0479 0.589913 66.2451 0.538787 66.5373 0.538787H68.4363C68.7284 0.538787 68.9256 0.597217 69.0351 0.699469C69.1447 0.80172 69.1958 0.998918 69.1958 1.26915V12.9915C69.1958 13.2618 69.1447 13.4517 69.0351 13.5612C68.9256 13.6708 68.7284 13.7219 68.4363 13.7219H66.5373C66.2451 13.7219 66.0479 13.6708 65.9384 13.5612C65.8288 13.4517 65.7777 13.2618 65.7777 12.9915V1.26915Z" fill="#191919"/>
<path d="M85.5259 0.539551C85.7816 0.539551 85.9569 0.583375 86.0518 0.678322C86.1541 0.765966 86.1978 0.955861 86.1978 1.24801V2.92785C86.1978 3.23461 86.1468 3.43911 86.0518 3.54136C85.9496 3.64361 85.7816 3.68743 85.5479 3.68743L80.9904 3.79699V10.122C80.9904 10.4506 81.0123 10.699 81.0561 10.8815C81.0999 11.0641 81.2241 11.2759 81.4213 11.5316L86.3878 18.1268C86.6434 18.4555 86.6069 18.733 86.2782 18.9667L84.5691 20.2448C84.3866 20.3909 84.2405 20.4567 84.1383 20.4493C84.0287 20.442 83.9045 20.3471 83.7584 20.1645L79.2813 14.2485L74.7238 20.5151C74.5997 20.6977 74.4755 20.7926 74.3586 20.7999C74.2418 20.8072 74.0884 20.7415 73.9131 20.5954L72.204 19.3173C71.8973 19.0836 71.8607 18.7987 72.0945 18.4774L77.1413 11.5316C77.3239 11.2759 77.4408 11.0641 77.4919 10.8815C77.543 10.699 77.5722 10.4506 77.5722 10.122V3.88463L72.9563 3.96497C72.7226 3.96497 72.5546 3.91385 72.4524 3.8189C72.3501 3.71665 72.3063 3.51215 72.3063 3.2054V1.52555C72.3063 1.2334 72.3574 1.04351 72.4524 0.955865C72.5546 0.868221 72.7299 0.817094 72.9782 0.817094L85.5259 0.539551ZM92.1212 12.0428V19.2369C92.1212 19.5072 92.07 19.6971 91.9605 19.8066C91.8509 19.9162 91.6537 19.9673 91.3615 19.9673H89.4626C89.1705 19.9673 88.9733 19.9162 88.8637 19.8066C88.7542 19.6971 88.703 19.5072 88.703 19.2369V1.81769C88.703 1.54746 88.7542 1.35756 88.8637 1.24801C88.9733 1.13845 89.1705 1.08733 89.4626 1.08733H91.3615C91.6537 1.08733 91.8509 1.13845 91.9605 1.24801C92.07 1.35756 92.1212 1.54746 92.1212 1.81769V8.90225L94.1589 8.82191C94.4145 8.8073 94.5898 8.84382 94.6848 8.94607C94.787 9.04832 94.8308 9.23822 94.8308 9.53037V11.2686C94.8308 11.5608 94.7797 11.7434 94.6848 11.8237C94.5825 11.9041 94.4072 11.9552 94.1589 11.9698L92.1212 12.0428Z" fill="#191919"/>
<path d="M12.7814 50.3272C12.7814 50.5975 12.7303 50.7874 12.6207 50.8823C12.5112 50.9846 12.314 51.043 12.0218 51.0576L1.0298 51.3278C0.737651 51.3424 0.540469 51.2986 0.430914 51.1817C0.321359 51.0649 0.270232 50.8677 0.270232 50.5975L0 32.09C0 31.8197 0.0511266 31.6298 0.160682 31.5203C0.270237 31.4107 0.467419 31.3596 0.759566 31.3596L12.5915 31.0894C12.8837 31.0894 13.0809 31.1478 13.1904 31.25C13.3 31.3523 13.3511 31.5495 13.3511 31.8197V33.4996C13.3511 33.7698 13.3 33.9597 13.1904 34.0693C13.0809 34.1788 12.8837 34.2299 12.5915 34.2299L3.44733 34.449L3.63721 48.1215L12.0218 47.9024C12.314 47.8878 12.5112 47.9316 12.6207 48.0485C12.7303 48.1653 12.7814 48.3625 12.7814 48.6328V50.3272ZM19.6761 42.5926V49.7868C19.6761 50.057 19.625 50.2469 19.5154 50.3564C19.4059 50.466 19.2086 50.5171 18.9165 50.5171H17.0175C16.7254 50.5171 16.5282 50.466 16.4186 50.3564C16.3091 50.2469 16.258 50.057 16.258 49.7868V32.3675C16.258 32.0973 16.3091 31.9074 16.4186 31.7978C16.5282 31.6883 16.7254 31.6371 17.0175 31.6371H18.9165C19.2086 31.6371 19.4059 31.6883 19.5154 31.7978C19.625 31.9074 19.6761 32.0973 19.6761 32.3675V39.4521L21.7138 39.3717C21.9694 39.3571 22.1447 39.3936 22.2397 39.4959C22.3419 39.5981 22.3857 39.788 22.3857 40.0802V41.8184C22.3857 42.1106 22.3346 42.2932 22.2397 42.3735C22.1374 42.4539 21.9621 42.505 21.7138 42.5196L19.6761 42.5926Z" fill="#191919"/>
<path d="M32.8672 47.9132C31.6183 47.9132 30.5008 47.716 29.5002 47.3289C28.5069 46.9418 27.667 46.4086 26.9877 45.7294C26.3085 45.0501 25.7899 44.254 25.4248 43.3265C25.0596 42.4062 24.8843 41.3983 24.8843 40.3174C24.8843 39.2364 25.0669 38.2212 25.4248 37.2936C25.7899 36.3588 26.3085 35.5554 26.9877 34.8761C27.667 34.1969 28.4996 33.6637 29.5002 33.2766C30.4935 32.8895 31.6183 32.6923 32.8672 32.6923C34.1161 32.6923 35.2336 32.8895 36.2342 33.2766C37.2275 33.6637 38.0674 34.1969 38.754 34.8761C39.4405 35.5554 39.9663 36.3588 40.3242 37.2936C40.6894 38.2285 40.8647 39.2364 40.8647 40.3174C40.8647 41.3983 40.6821 42.4062 40.3242 43.3265C39.959 44.2467 39.4405 45.0501 38.754 45.7294C38.0674 46.4086 37.2275 46.9418 36.2342 47.3289C35.2336 47.716 34.1088 47.9132 32.8672 47.9132ZM32.8672 44.7653C34.3352 44.7653 35.46 44.349 36.2561 43.5164C37.0522 42.6837 37.4466 41.6174 37.4466 40.3174C37.4466 38.9589 37.0522 37.8779 36.2561 37.0599C35.46 36.2492 34.3279 35.8402 32.8672 35.8402C31.4211 35.8402 30.2963 36.2492 29.5002 37.0745C28.7041 37.8998 28.3097 38.9808 28.3097 40.3174C28.3097 40.9674 28.412 41.5663 28.6238 42.1068C28.8283 42.6472 29.1277 43.122 29.5221 43.5164C29.9092 43.9108 30.384 44.2248 30.9463 44.4366C31.5014 44.6557 32.1368 44.7653 32.8672 44.7653ZM44.071 32.3637C44.071 32.0934 44.1222 31.9035 44.2317 31.794C44.3413 31.6844 44.5385 31.6333 44.8306 31.6333H46.7296C47.0217 31.6333 47.2189 31.6844 47.3285 31.794C47.438 31.9035 47.4891 32.0934 47.4891 32.3637V49.7829C47.4891 50.0531 47.438 50.243 47.3285 50.3526C47.2189 50.4622 47.0217 50.5133 46.7296 50.5133H44.8306C44.5385 50.5133 44.3413 50.4622 44.2317 50.3526C44.1222 50.243 44.071 50.0531 44.071 49.7829V32.3637Z" fill="#191919"/>
<path d="M60.8897 38.3588C60.875 38.629 60.8093 38.8116 60.7144 38.8993C60.6121 38.9869 60.4222 39.0526 60.1301 39.0892L54.2944 39.7684L54.3237 41.9376L60.2396 41.7477C60.5318 41.7331 60.729 41.7769 60.8385 41.8938C60.9481 42.0106 60.9992 42.2078 60.9992 42.4781V44.1579C60.9992 44.4281 60.9481 44.618 60.8385 44.713C60.729 44.8152 60.5318 44.8737 60.2396 44.8883L51.6943 45.1585C51.4022 45.1804 51.205 45.1293 51.0954 45.0124C50.9858 44.8956 50.9347 44.6984 50.9347 44.4281L50.8544 37.7015C50.8544 37.4458 50.9055 37.2779 51.0151 37.1829C51.1246 37.0953 51.3218 37.0295 51.614 36.993L57.5592 36.2626L57.6103 34.035L51.2342 34.2249C50.942 34.2468 50.7449 34.1957 50.6353 34.0788C50.5258 33.962 50.4746 33.7794 50.4746 33.5238V31.7855C50.4746 31.5299 50.5258 31.3546 50.6353 31.2596C50.7449 31.1574 50.942 31.099 51.2342 31.0843L60.3492 30.8141C60.8751 30.7995 61.1234 31.0405 61.1088 31.5445L60.8897 38.3588ZM69.004 55.7781C68.7119 55.7781 68.5074 55.7269 68.3905 55.6174C68.2737 55.5078 68.2225 55.3179 68.2445 55.0477L68.4051 49.7306L56.8434 49.9497C56.5878 49.9497 56.4125 49.9059 56.3175 49.811C56.2153 49.7233 56.1715 49.5334 56.1715 49.2413V47.503C56.1715 47.2108 56.2226 47.021 56.3175 46.9333C56.4198 46.8457 56.5951 46.7945 56.8434 46.7945L71.2243 46.5243C71.4799 46.5243 71.6553 46.5681 71.7648 46.6631C71.8744 46.7507 71.9182 46.9406 71.9036 47.2328L71.6626 55.0477C71.648 55.3179 71.5822 55.5078 71.4873 55.6174C71.385 55.7269 71.1951 55.7781 70.903 55.7781H69.004ZM64.9067 36.1385V32.0922C64.9067 31.822 64.9578 31.6321 65.0673 31.5226C65.1769 31.413 65.3741 31.3619 65.6662 31.3619H67.5652C67.8574 31.3619 68.0546 31.413 68.1641 31.5226C68.2737 31.6321 68.3248 31.822 68.3248 32.0922V44.0849C68.3248 44.3551 68.2737 44.545 68.1641 44.6546C68.0546 44.7641 67.8574 44.8152 67.5652 44.8152H65.6662C65.3741 44.8152 65.1769 44.7641 65.0673 44.6546C64.9578 44.545 64.9067 44.3551 64.9067 44.0849V39.2791L62.5184 39.3594C62.2627 39.3813 62.0875 39.3375 61.9925 39.2352C61.8903 39.133 61.8464 38.9431 61.8464 38.6509V36.9127C61.8464 36.6205 61.8976 36.4379 61.9925 36.3576C62.0948 36.2773 62.27 36.2261 62.5184 36.2042L64.9067 36.1385ZM70.8226 31.822C70.8226 31.5518 70.8738 31.3619 70.9833 31.2523C71.0929 31.1428 71.2901 31.0916 71.5822 31.0916H73.4812C73.7733 31.0916 73.9705 31.1501 74.0801 31.2523C74.1896 31.3619 74.2407 31.5518 74.2407 31.822V43.8146C74.2407 44.0849 74.1896 44.2748 74.0801 44.3843C73.9705 44.4939 73.7733 44.545 73.4812 44.545H71.5822C71.2901 44.545 71.0929 44.4939 70.9833 44.3843C70.8738 44.2748 70.8226 44.0849 70.8226 43.8146V31.822Z" fill="#191919"/>
<path d="M94.6185 48.5095C94.8741 48.5095 95.0494 48.5533 95.1443 48.6483C95.2466 48.7359 95.2904 48.9258 95.2904 49.218V50.8978C95.2904 51.2046 95.2393 51.4091 95.1443 51.5113C95.0421 51.6136 94.8741 51.6647 94.6404 51.6647L78.3605 51.9349C78.1268 51.9349 77.9588 51.8838 77.8565 51.7889C77.7543 51.6866 77.7104 51.4821 77.7104 51.1754V49.4955C77.7104 49.2034 77.7616 49.0135 77.8565 48.9258C77.9588 48.8382 78.1341 48.7871 78.3824 48.7871L94.6185 48.5095ZM95.137 33.5005C95.137 33.7707 95.0859 33.9606 94.9763 34.0702C94.8668 34.1797 94.6696 34.2309 94.3774 34.2309L81.187 34.4719L81.2162 37.1012L93.9977 36.8821C94.2898 36.8821 94.487 36.9332 94.5965 37.0428C94.7061 37.1523 94.7572 37.3422 94.7572 37.6124V39.2923C94.7572 39.5625 94.7061 39.7524 94.5965 39.862C94.487 39.9715 94.2898 40.0227 93.9977 40.0227L81.2746 40.2418L81.3039 42.9003L94.0049 42.6593C94.2971 42.6593 94.4943 42.7104 94.6038 42.82C94.7134 42.9295 94.7645 43.1194 94.7645 43.3896V45.0695C94.7645 45.3397 94.7134 45.5296 94.6038 45.6392C94.4943 45.7487 94.2971 45.7999 94.0049 45.7999L78.7038 46.0701C78.4116 46.0701 78.2144 46.019 78.1049 45.9094C77.9953 45.7999 77.9442 45.61 77.9442 45.3397L77.7543 32.069C77.7543 31.7987 77.8054 31.6088 77.915 31.4993C78.0245 31.3897 78.2217 31.3386 78.5139 31.3386L94.3847 31.0684C94.6769 31.0684 94.8741 31.1268 94.9836 31.229C95.0932 31.3386 95.1443 31.5285 95.1443 31.7987V33.5005H95.137Z" fill="#191919"/>
<path d="M102.514 48.7204V39.8538C102.514 39.5835 102.565 39.3936 102.674 39.2841C102.784 39.1745 102.981 39.1234 103.273 39.1234H105.172C105.464 39.1234 105.662 39.1745 105.771 39.2841C105.881 39.3936 105.932 39.5835 105.932 39.8538V48.6693L112.607 48.5086C112.863 48.5086 113.038 48.5524 113.133 48.6474C113.236 48.735 113.279 48.9249 113.279 49.2171V50.8969C113.279 51.2037 113.228 51.4082 113.133 51.5104C113.031 51.6127 112.863 51.6638 112.629 51.6638L99.5485 51.934C99.3148 51.934 99.1468 51.8829 99.0445 51.788C98.9423 51.6857 98.8984 51.4812 98.8984 51.1744V49.4946C98.8984 49.2025 98.9496 49.0126 99.0445 48.9249C99.1468 48.8373 99.3221 48.7861 99.5704 48.7861L102.514 48.7204ZM99.0445 32.09C99.0445 31.8197 99.0957 31.6298 99.2052 31.5203C99.3148 31.4107 99.5119 31.3596 99.8041 31.3596L111.906 31.0894C112.198 31.0894 112.396 31.1478 112.52 31.25C112.637 31.3596 112.688 31.5495 112.666 31.8197L112.067 45.4411C112.052 45.7113 111.979 45.9012 111.862 46.0107C111.746 46.1203 111.541 46.1714 111.249 46.1714H109.35C109.058 46.1714 108.868 46.1203 108.766 46.0107C108.663 45.9012 108.627 45.7113 108.642 45.4411L109.131 34.3176L99.7968 34.5075C99.5047 34.5075 99.3075 34.4564 99.1979 34.3468C99.0884 34.2372 99.0372 34.0473 99.0372 33.7771V32.09H99.0445ZM118.713 42.5926V49.7868C118.713 50.057 118.662 50.2469 118.553 50.3564C118.443 50.466 118.246 50.5171 117.954 50.5171H116.055C115.763 50.5171 115.565 50.466 115.456 50.3564C115.346 50.2469 115.295 50.057 115.295 49.7868V32.3675C115.295 32.0973 115.346 31.9074 115.456 31.7978C115.565 31.6883 115.763 31.6371 116.055 31.6371H117.954C118.246 31.6371 118.443 31.6883 118.553 31.7978C118.662 31.9074 118.713 32.0973 118.713 32.3675V39.4521L120.751 39.3717C121.007 39.3571 121.182 39.3936 121.277 39.4959C121.379 39.5981 121.423 39.788 121.423 40.0802V41.8184C121.423 42.1106 121.372 42.2932 121.277 42.3735C121.175 42.4539 120.999 42.505 120.751 42.5196L118.713 42.5926Z" fill="#191919"/>
</g>
</svg>
