<svg width="300" height="48" viewBox="0 0 300 48" fill="none" xmlns="http://www.w3.org/2000/svg">
<rect width="300" height="48" rx="24" fill="#D9D9D9"/>
<path d="M138.301 33.9373C138.276 33.8555 138.219 33.824 138.137 33.7988C138.08 33.7988 138.024 33.824 137.942 33.824C137.86 33.8492 137.747 33.8807 137.64 33.9059C137.501 33.931 137.419 33.931 137.331 33.931C137.274 33.931 137.218 33.9059 137.218 33.8177H136.109V33.761H135.996C135.996 33.7358 135.801 33.7358 135.41 33.7358V33.6792H135.329V33.6225H134.995V33.5658H134.913V33.5091H134.693V33.4651H134.529V33.4084H134.277C134.22 33.3265 134.082 33.2447 133.861 33.2132L133.805 33.0998H133.635C133.609 33.018 133.578 32.9865 133.496 32.9865V32.9298H133.389V32.8731H133.219C133.219 32.8479 133.194 32.8165 133.162 32.7913H132.973C132.948 32.7346 132.917 32.6779 132.892 32.6527C132.866 32.6275 132.835 32.5961 132.81 32.5709C132.785 32.5457 132.785 32.5457 132.753 32.5457H132.665C132.64 32.5457 132.608 32.489 132.608 32.4072C132.388 32.3505 132.249 32.2686 132.193 32.0986L131.972 32.0419C131.916 31.9286 131.834 31.8782 131.72 31.8215C131.607 31.7963 131.525 31.7082 131.5 31.5696H131.33C130.996 31.1792 130.832 30.984 130.832 30.9588H130.776C130.751 30.877 130.694 30.8203 130.662 30.7951V30.6314L130.499 30.5747L130.303 30.0772H130.196L129.945 29.3279L129.831 29.2712V29.1327L129.718 29.076V28.8556L129.554 28.7423V28.6037H129.529V28.44H129.472V28.3015H129.416V28.1377H129.359C129.359 28.0559 129.334 27.9992 129.246 27.974V27.7221H129.195V27.6088H129.139V27.3569H129.082V27.1932H129.057V27.1365H129.082V26.7776H129.057V26.6138H129C129 26.1416 129.025 25.6693 129.057 25.197H129.082L129.057 25.0018H129.082V24.8884C129.139 24.8884 129.139 24.8633 129.164 24.8318L129.082 24.5799H129.139V24.3028H129.195V24.221H129.252V23.7487H129.309V23.5283C129.334 23.5283 129.365 23.5031 129.39 23.4464C129.39 23.3646 129.416 23.3331 129.472 23.3331V22.9993H129.529L129.554 22.6404L129.718 22.5837L129.831 22.1114L129.945 22.0548V21.9162H129.97V21.8029H130.026V21.6392L130.14 21.5825V21.444L130.253 21.3873L130.366 21.0535H130.423C130.448 21.0283 130.448 20.9717 130.48 20.915C130.48 20.8898 130.505 20.8583 130.562 20.8583V20.745H130.618V20.6316H130.675V20.4931L130.895 20.3294V20.1342C130.921 20.109 130.952 20.0775 130.977 20.0775C131.002 19.9389 131.091 19.8256 131.198 19.7437V19.6115C131.254 19.5863 131.336 19.5296 131.418 19.473C131.5 19.4163 131.557 19.3092 131.557 19.1959C131.638 19.114 131.72 19.0574 131.777 19.0322V18.9188H131.802L131.916 18.8055C131.916 18.8307 131.941 18.8621 131.972 18.8621V18.7236C132.054 18.6984 132.086 18.6418 132.086 18.5599L132.249 18.4465V18.3332L132.558 18.1947V18.0813L132.753 17.9176C132.753 17.8609 132.81 17.8042 132.866 17.779V17.7224H132.98C133.005 17.6405 133.062 17.609 133.143 17.609C133.169 17.5272 133.225 17.4705 133.282 17.4138C133.364 17.4138 133.421 17.3886 133.446 17.3005H133.559L133.641 17.1367C133.723 17.1367 133.779 17.1116 133.861 17.0801C133.887 17.0234 133.943 16.9982 134.025 16.9982C134.025 16.9415 134.082 16.9164 134.164 16.8849C134.189 16.803 134.22 16.7463 134.22 16.7211C134.302 16.7211 134.359 16.696 134.441 16.6645V16.6078C134.579 16.6078 134.636 16.5826 134.636 16.5259C134.749 16.5007 134.856 16.4693 134.97 16.4693L134.995 16.3559C135.108 16.3307 135.19 16.2992 135.272 16.2992V16.2426H135.385V16.1859C135.442 16.1859 135.499 16.1292 135.524 16.0725C135.719 16.0725 135.801 16.0725 135.826 16.0474C135.826 16.0222 135.826 16.0222 135.851 15.9907H135.99L136.046 15.8773H136.267L136.323 15.764H136.626V15.7073H136.764V15.6506H137.098V15.6255H137.211V15.5814H138.131C138.187 15.5247 138.213 15.4995 138.269 15.4995L138.294 15.5247V15.5814H139.126L139.182 15.6632H139.655L139.711 15.7766H140.02V15.8333H140.133V15.8899H140.354L140.379 16.0033C140.517 16.0033 140.631 16.06 140.713 16.1985H140.851L140.908 16.3118C140.99 16.3118 141.021 16.337 141.021 16.4252H141.134L141.298 16.6204H141.38C141.437 16.7337 141.519 16.7841 141.6 16.7841V17.143H141.657V17.3634C141.632 17.3634 141.632 17.3634 141.6 17.3886C141.575 17.4138 141.575 17.4138 141.575 17.4453H141.38L141.355 17.502C141.355 17.6153 141.191 17.6657 140.857 17.6657V17.609H140.662V17.5524H140.549V17.4957H140.385L140.36 17.4138H140.083V17.3571H139.97V17.3005H139.611L139.554 17.1871H138.25V17.2438H137.999V17.3005H137.526L137.47 17.4138H137.249C137.249 17.439 137.224 17.439 137.167 17.439V17.4957L136.695 17.609V17.6657C136.613 17.6657 136.556 17.6909 136.531 17.779C136.475 17.779 136.393 17.8042 136.336 17.8357V17.8924L135.946 17.9176C135.946 17.9994 135.889 18.0309 135.75 18.0309C135.694 18.1443 135.612 18.1947 135.53 18.1947V18.2513C135.505 18.2765 135.448 18.2765 135.392 18.2765C135.31 18.2765 135.253 18.3332 135.228 18.4402H135.007V18.4969H134.97V18.6606L134.579 18.774C134.554 18.7992 134.523 18.8559 134.497 18.9125H134.384C134.359 18.9944 134.302 19.0259 134.22 19.0259V19.0825L134.057 19.1392C134.057 19.2211 134 19.3029 133.861 19.3344V19.4478H133.748C133.723 19.5611 133.666 19.643 133.609 19.6997C133.528 19.7815 133.471 19.8634 133.446 19.9767C133.332 20.0019 133.282 20.0334 133.282 20.0901C133.282 20.1153 133.257 20.1719 133.225 20.2286H133.162C133.162 20.2853 133.162 20.342 133.137 20.3671V20.449C133.055 20.449 132.999 20.4742 132.917 20.5057C132.722 20.8646 132.501 21.2298 132.281 21.5888H132.136C132.136 21.8407 132.111 22.0359 132.023 22.1744H131.972V22.2878H131.916C131.916 22.4011 131.859 22.483 131.777 22.5396L131.72 22.8167H131.664C131.638 22.9301 131.607 23.0371 131.607 23.1756L131.443 23.289V23.5409C131.361 23.5975 131.305 23.6794 131.305 23.7928C131.28 23.7928 131.248 23.8179 131.248 23.8494C131.273 23.8494 131.305 23.9061 131.305 24.0132L131.191 24.0698V24.4288H131.141V24.5421H131.084V25.0711H131.028V25.1529H130.971V26.9854H131.028V27.0987H131.084V27.4577L131.198 27.5143V27.7347H131.254C131.28 27.7914 131.28 27.8481 131.311 27.8985C131.311 27.9551 131.311 28.0118 131.311 28.0937C131.424 28.0937 131.475 28.1755 131.475 28.2889C131.475 28.3141 131.5 28.3455 131.557 28.3455V28.5093L131.67 28.5659V28.7297H131.727V28.8115H131.783V29.0886C131.84 29.1138 131.865 29.1705 131.865 29.2271H131.922V29.3405H131.979V29.4538H132.035V29.5672L132.199 29.6805C132.199 29.8442 132.256 29.9324 132.337 29.9324V30.0458C132.419 30.0458 132.451 30.1024 132.451 30.1843L132.615 30.2976V30.4614C132.64 30.4614 132.671 30.4865 132.671 30.518H132.866V30.5999C133.005 30.6566 133.118 30.7132 133.169 30.7951C133.251 30.877 133.307 30.9336 133.389 30.9336V30.9903H133.502V31.047C133.584 31.047 133.616 31.047 133.616 31.0722H133.698V31.1288H133.811L133.924 31.2926L134.227 31.3492V31.4059L134.447 31.4626V31.4878H134.586V31.5445H134.699V31.5759H134.976L135.001 31.6893H135.335V31.746H135.417V31.8026H135.75V31.8593H135.864V31.916H136.361V31.9412H136.475V31.9978H138.307V31.9412C138.389 31.9412 138.42 31.9412 138.42 31.916H138.836V31.8593H138.949V31.8026H139.145V31.746H139.258V31.6893H139.478L139.504 31.5759H139.724V31.5193H139.837V31.4626H140.058C140.114 31.3241 140.221 31.2674 140.36 31.2674L140.385 31.154C140.687 30.9336 140.883 30.7951 140.914 30.6818H141.078C141.134 30.4299 141.298 30.2347 141.55 30.0961C141.575 29.9828 141.663 29.8442 141.827 29.6238C141.909 29.5672 141.966 29.5105 141.966 29.4286H142.022C142.022 29.372 142.048 29.2649 142.136 29.1264H142.192V28.9627H142.218C142.218 28.8808 142.243 28.8241 142.331 28.7989V28.6037H142.388L142.444 28.3833H142.501V28.1881H142.558V28.0244H142.614V27.8292H142.671V27.6655H142.696V27.5521H142.753V27.4136H142.809V27.1932C142.835 27.1932 142.891 26.9161 142.973 26.362H143.03V26.2486H143.087V26.0534H143.112V25.9967H143.087V25.7763C142.891 25.7511 142.696 25.7197 142.451 25.7197V25.7763C142.369 25.7763 142.287 25.7511 142.199 25.7197L141.645 25.7448L140.87 25.7197C140.618 25.7197 140.423 25.7197 140.234 25.7448C140.07 25.7448 139.9 25.77 139.762 25.77C139.566 25.77 139.371 25.7449 139.208 25.7134C138.956 25.7386 138.622 25.77 138.263 25.77V25.7197C138.238 25.7448 138.181 25.7763 138.124 25.7763C138.099 25.7511 138.099 25.7511 138.099 25.7197C138.074 25.6945 138.043 25.6945 138.017 25.6945C137.992 25.6693 137.936 25.6378 137.854 25.6126C137.854 25.5307 137.854 25.4993 137.828 25.4741C137.803 25.4741 137.772 25.4489 137.747 25.3607H137.608C137.608 25.3355 137.583 25.3041 137.551 25.3041V25.0522H137.495L137.438 24.7751C137.495 24.7499 137.551 24.7184 137.577 24.6932C137.602 24.668 137.658 24.6114 137.74 24.5799C137.766 24.4414 137.822 24.3595 137.904 24.3028V24.2461H138.156V24.221H138.269V24.1643H138.603V24.1076H138.685V24.0509L139.214 23.9943L139.271 23.8809L139.629 23.9376V23.8809C139.686 23.8809 139.711 23.8809 139.711 23.8809C139.711 23.9061 139.711 23.9061 139.737 23.9376C140.486 23.9376 140.933 23.9376 141.071 23.9124C141.21 23.9124 141.38 23.9124 141.544 23.9124C141.796 23.9124 141.934 23.9376 141.991 23.9943C142.048 23.9943 142.129 23.9691 142.211 23.9376C142.293 23.9124 142.375 23.8809 142.463 23.8809V23.9376H142.576V23.9943H142.879V24.0509L142.992 23.9943C143.017 23.9943 143.049 24.0195 143.049 24.0509H143.244V24.1076H143.464V24.1643H143.578V24.221C143.634 24.221 143.691 24.2461 143.716 24.3028C143.83 24.328 143.911 24.3595 143.993 24.3595L144.189 24.6366C144.327 24.6366 144.44 24.7184 144.547 24.8884H144.604C144.604 24.9703 144.629 25.027 144.717 25.0522V25.3544C144.774 25.3544 144.799 25.3796 144.831 25.4111V26.299L144.717 26.3557V27.3569H144.661V27.4388H144.604C144.604 27.7473 144.579 27.911 144.491 27.911V28.3015L144.409 28.3266V28.6037L144.296 28.6604V28.9123L144.182 28.969V29.2208H144.126V29.3342H144.05V29.6113L143.968 29.6679V29.8065L143.855 29.8631V30.0269C143.798 30.052 143.741 30.1087 143.741 30.1654H143.685V30.2787H143.628C143.628 30.3921 143.571 30.4991 143.464 30.5873C143.439 30.6692 143.408 30.7258 143.326 30.751V30.9147C143.269 30.9399 143.212 30.9966 143.212 31.0533C143.131 31.11 143.074 31.1918 143.017 31.2485C142.961 31.3052 142.904 31.3618 142.797 31.387V31.4689H142.74C142.684 31.6641 142.602 31.7774 142.488 31.8026C142.463 31.8278 142.463 31.8593 142.463 31.8593C142.463 31.8845 142.463 31.8845 142.438 31.8845C142.413 31.9097 142.356 31.9097 142.325 31.9412C142.325 31.9664 142.299 31.9978 142.268 31.9978V32.1112H142.211L142.016 32.3883H141.903C141.878 32.5268 141.764 32.6653 141.594 32.7472C141.399 32.8039 141.292 32.8857 141.292 32.9991H141.179V33.0558L140.958 33.1124L140.901 33.2258H140.776C140.719 33.2824 140.662 33.3076 140.612 33.3076C140.587 33.3895 140.53 33.421 140.448 33.421V33.4651C140.114 33.5217 139.951 33.5784 139.951 33.6288H139.73V33.6855H139.617V33.7421H139.308V33.7673C139.113 33.7925 138.893 33.824 138.672 33.824V33.8807H138.37V33.9373H138.301V33.9373Z" fill="white" stroke="white" stroke-miterlimit="10" stroke-linecap="round" stroke-linejoin="round"/>
<path d="M153.13 34.4669V34.4103C153.105 34.4103 153.074 34.4103 153.049 34.4355C153.023 34.4607 152.967 34.4607 152.935 34.4607C152.879 34.4607 152.853 34.4355 152.853 34.404H152.772V34.4607C152.746 34.4607 152.715 34.4355 152.715 34.404H152.601V34.3473C152.293 34.3221 152.016 34.2906 151.77 34.2906V34.234H151.688V34.1773H151.38V34.1206H151.241V34.0387H150.964L149.686 33.4027V33.2894C149.384 33.2075 149.132 32.9808 148.937 32.5652C148.716 32.4267 148.521 32.2315 148.326 32.0363V31.9229H148.269V31.8096C148.187 31.7529 148.131 31.6962 148.105 31.6144C148.08 31.5325 148.024 31.4507 147.942 31.3625C147.828 31.2806 147.778 31.1421 147.778 31.0036H147.696V30.8902H147.639V30.5313H147.576C147.576 30.4494 147.52 30.3676 147.438 30.3361L147.52 30.1157L147.381 30.0338V29.5363C147.299 29.5112 147.268 29.4545 147.243 29.3978C147.243 29.2593 147.299 29.1459 147.381 29.0074C147.381 28.9507 147.381 28.9255 147.356 28.894C147.331 28.894 147.299 28.894 147.274 28.894V27.3135H147.331V27.2001H147.388V26.3689H147.444V26.2556H147.526V25.7266H147.576V25.6133H147.633V25.2165C147.658 25.1914 147.715 25.1599 147.772 25.1599V24.8261L147.885 24.7443V24.3538H147.91C147.935 24.3287 147.992 24.2972 148.024 24.2972C148.049 24.1838 148.049 24.102 148.08 24.0201C148.08 23.9634 148.137 23.8816 148.275 23.7997V23.5478L148.496 23.3274V23.1637L148.634 23.107V22.8866C148.773 22.7481 148.911 22.6347 149.05 22.5277C149.05 22.4458 149.075 22.364 149.107 22.2758H149.163C149.22 22.1625 149.277 22.1121 149.358 22.1121V22.0554H149.522L149.799 21.7217H149.913L150.076 21.4698H150.272C150.272 21.3879 150.328 21.3313 150.435 21.2494C150.549 21.1927 150.631 21.1109 150.656 20.9723C150.819 20.9723 150.908 20.9471 150.908 20.859H151.021C151.021 20.7456 151.134 20.6638 151.323 20.6386L151.38 20.5252H151.518C151.518 20.4434 151.575 20.4119 151.682 20.3867C151.764 20.3615 151.821 20.33 151.846 20.3048C151.846 20.2796 151.846 20.2796 151.871 20.2482H152.123L152.261 19.9963C152.343 19.9963 152.513 19.8577 152.759 19.5492H152.954L153.011 19.4106H154.346V19.4925H154.459V19.5492H154.85V19.6625H155.133L155.19 19.7444H155.58L155.719 19.9963H155.882L155.939 20.1096H156.134V20.1915C156.216 20.1915 156.247 20.1915 156.273 20.2167C156.298 20.2419 156.329 20.2733 156.411 20.2985C156.493 20.3237 156.55 20.3552 156.606 20.4371C156.663 20.5189 156.72 20.6008 156.77 20.6889H156.991C157.016 20.8275 157.072 20.9093 157.104 20.966H157.268C157.293 20.9912 157.324 21.0227 157.324 21.1046C157.406 21.1046 157.463 21.1864 157.463 21.325H157.715C157.771 21.4068 157.853 21.4887 157.935 21.5768C158.017 21.6587 158.099 21.7972 158.156 21.9358H158.319C158.344 22.0176 158.433 22.131 158.514 22.2695H158.571V22.4332L158.823 22.6284L158.987 23.1574C159.069 23.1826 159.1 23.2393 159.1 23.3211H159.157V23.5415L159.295 23.5667V23.7871C159.352 23.8123 159.377 23.869 159.409 23.9508H159.465V24.0642H159.522V24.3979L159.635 24.4546V24.6183H159.692V24.8135H159.749V25.0087H159.805V25.311L159.919 25.3677V25.84H160.032C160.057 26.3689 160.089 26.8664 160.089 27.3953H160.032V27.9495H159.919L159.944 28.0628C159.944 28.1447 159.944 28.2265 159.919 28.3147H159.862V28.5351H159.805V28.6485H159.749V29.1207C159.723 29.1459 159.692 29.1774 159.635 29.1774V29.486H159.579V29.6245H159.522V29.9016C159.497 29.9268 159.44 29.9582 159.409 29.9582V30.2353C159.327 30.2605 159.295 30.3172 159.295 30.399H159.213V30.5376H159.157V30.8398L159.043 30.8965V31.0602H158.987V31.1736H158.93C158.93 31.2554 158.905 31.2869 158.817 31.3121C158.817 31.4506 158.792 31.5325 158.735 31.5325V31.6459L158.571 31.7592C158.571 31.8411 158.546 31.8977 158.489 31.9229C158.433 31.9796 158.407 32.0363 158.407 32.1181H158.269C158.244 32.1433 158.244 32.1433 158.244 32.1433C158.244 32.1685 158.244 32.2 158.218 32.2252C158.193 32.2504 158.162 32.3071 158.162 32.3637H158.048V32.4204L157.885 32.4771C157.86 32.5589 157.803 32.6723 157.69 32.7793C157.608 32.8045 157.576 32.8612 157.576 32.8927C157.551 32.9179 157.519 32.9494 157.494 32.9494C157.469 32.9745 157.412 33.006 157.331 33.0312C157.274 33.1446 157.192 33.2516 157.054 33.3901C156.972 33.3901 156.915 33.4468 156.89 33.5287H156.77L156.575 33.7491H156.411V33.8058C156.298 33.8309 156.247 33.8624 156.216 33.8876C156.191 33.9128 156.077 33.9443 155.882 33.9443V34.0262L155.63 34.108V34.1647H155.549V34.2214H155.297V34.278H155.183V34.3347H154.686L154.629 34.4481H153.13V34.4669ZM153.855 32.4393H154.547V32.3826H154.661V32.3574H154.856V32.3008H154.938V32.2441L155.215 32.1874V32.1307H155.467C155.467 32.0489 155.492 32.0174 155.523 31.9922H155.687L155.744 31.8789C155.857 31.8789 155.939 31.8537 155.996 31.797C156.052 31.7403 156.134 31.6836 156.247 31.6585C156.304 31.5199 156.361 31.4066 156.468 31.3247C156.493 31.2995 156.525 31.268 156.581 31.2428C156.638 31.2428 156.663 31.1862 156.663 31.1043C156.72 30.991 156.827 30.8839 156.997 30.7706V30.4116H157.11L157.192 30.1912H157.249V29.9142H157.305V29.8008H157.387C157.387 29.719 157.444 29.6623 157.501 29.6371V29.4419L157.614 29.3852V29.0767H157.671V28.9633H157.727V28.5477C157.784 28.5477 157.809 28.5225 157.841 28.491V28.0754C157.897 28.0754 157.923 28.0754 157.954 28.0754C157.954 28.0502 157.979 28.0502 158.011 28.0187V26.0478L157.847 25.9911V25.544L157.734 25.4873V25.2165L157.62 25.1599V24.8576L157.507 24.8009V24.6057L157.394 24.5491V24.3853L157.255 24.3035V24.1397L157.173 24.0831V23.9193L156.978 23.7556L156.953 23.5352C156.896 23.5352 156.871 23.51 156.839 23.4786C156.783 23.4219 156.758 23.3967 156.726 23.3967C156.613 23.2833 156.531 23.1763 156.474 23.0063C156.31 22.9496 156.14 22.8111 156.002 22.5907C156.002 22.5655 155.889 22.534 155.725 22.5088C155.668 22.4836 155.611 22.4269 155.586 22.3451C155.504 22.3451 155.423 22.2884 155.391 22.2317C155.309 22.2317 155.253 22.1751 155.227 22.1184H155.064C155.064 22.0617 155.064 22.0365 155.007 22.005C154.868 21.9484 154.787 21.9232 154.787 21.8917L154.566 21.835V21.7783H154.402L154.346 21.6398H153.483V21.6965H153.37V21.7783H153.206V21.835H153.093V21.8917H152.954L152.929 22.005H152.734C152.709 22.0617 152.652 22.1184 152.595 22.1184V22.1751C152.513 22.1751 152.457 22.2002 152.431 22.2884L152.18 22.3451L152.123 22.4584H151.959V22.5151H151.846C151.821 22.597 151.764 22.6284 151.682 22.6284L151.518 22.8488H151.405V22.9055C151.323 22.9055 151.267 22.9307 151.241 23.0189H151.185C151.159 23.1007 151.128 23.1574 151.128 23.2141H151.071V23.3274C150.989 23.3526 150.933 23.3841 150.933 23.4408C150.908 23.4974 150.908 23.5226 150.876 23.5226C150.851 23.5478 150.819 23.5793 150.819 23.636C150.794 23.6927 150.738 23.7178 150.656 23.7178C150.656 23.9697 150.599 24.0768 150.492 24.0768L150.41 24.102V24.3224L150.272 24.4042V24.6246H150.215C150.19 24.7065 150.158 24.7632 150.158 24.8198C150.158 24.845 150.102 24.8765 149.994 24.8765V25.2921H149.881V25.7077H149.824V25.7896H149.768C149.743 25.9533 149.711 26.0667 149.711 26.18H149.629V26.816H149.573V27.0931H149.516V27.7858L149.403 27.8424C149.459 27.9558 149.459 28.0628 149.459 28.151C149.434 28.151 149.403 28.1762 149.403 28.2328C149.484 28.5351 149.516 28.957 149.516 29.4545H149.573V29.763H149.629V30.0401L149.768 30.0968V30.3172H149.824V30.4305H149.881V30.7895H149.994V30.9532C150.076 30.9532 150.158 31.0099 150.215 31.1169V31.2302L150.712 31.6773L150.769 31.7907L151.021 31.8474C151.021 31.9607 151.134 32.0111 151.298 32.0111V32.0929L151.632 32.2063V32.263H151.852V32.3196H151.965V32.3763H152.494L152.551 32.4582H152.998C153.332 32.5149 153.609 32.5149 153.886 32.5149V32.4393H153.855Z" fill="white" stroke="white" stroke-miterlimit="10" stroke-linecap="round" stroke-linejoin="round"/>
<path d="M165.101 35.2728L164.767 34.8823H164.572L164.295 34.5486H164.238V33.6859C164.32 33.6607 164.352 33.604 164.352 33.5474C164.352 33.4907 164.352 33.4655 164.408 33.434C164.433 33.434 164.465 33.4088 164.465 33.4088C164.465 33.3836 164.49 33.3836 164.49 33.3836C164.515 33.3836 164.547 33.3836 164.572 33.3584C164.597 33.2766 164.629 33.1947 164.654 33.1632C164.711 33.138 164.736 33.0814 164.767 32.968C165.019 32.9113 165.126 32.8043 165.158 32.6343C165.24 32.6091 165.321 32.5776 165.46 32.5776H166.014C166.071 32.6595 166.127 32.6909 166.178 32.6909C166.234 32.6909 166.26 32.7161 166.316 32.7728C166.43 32.9932 166.619 33.1317 166.87 33.2451V33.6355L167.009 33.6922V34.1078C166.896 34.1645 166.845 34.2463 166.814 34.3597C166.789 34.473 166.732 34.5549 166.593 34.6367L166.203 35.0838L165.951 35.1657L165.869 35.279H165.101V35.2728ZM166.656 30.8018C166.6 30.72 166.436 30.6633 166.159 30.6633C166.159 30.6381 166.134 30.5814 166.102 30.5814C166.077 30.5562 166.046 30.5248 166.02 30.4681C165.995 30.4429 165.907 30.4114 165.743 30.4114C165.718 30.191 165.687 29.8825 165.687 29.492V28.7679H165.743C165.8 28.6293 165.825 28.516 165.825 28.3523H165.882V28.2389C165.938 28.2389 165.938 28.2137 165.938 28.1571L165.882 27.9367H165.938V27.8233H166.02V27.6281H166.077C166.102 27.6029 166.134 27.3258 166.159 26.8536H166.241L166.266 26.1609C166.266 26.1042 166.291 26.079 166.348 26.0475V25.7957H166.404V25.5753H166.486V25.0211H166.543V24.8574H166.6V24.3599L166.738 24.3032V23.5791H166.795C166.82 23.5539 166.877 23.2201 166.959 22.5527H167.015V22.3008H167.072V22.1056H167.129L167.072 21.8285H167.129C167.154 21.7466 167.185 21.69 167.267 21.6333C167.267 21.6081 167.242 21.5766 167.211 21.5766C167.211 21.4948 167.236 21.4381 167.267 21.3814C167.267 21.3247 167.242 21.2429 167.211 21.161H167.267V20.9658C167.292 20.9658 167.324 20.9406 167.324 20.9091H167.267C167.267 20.8839 167.292 20.8525 167.324 20.8525C167.324 20.6572 167.349 20.5754 167.349 20.5754C167.374 20.5754 167.406 20.5502 167.406 20.5187H167.324V20.4368H167.406V20.0527H167.462V19.889H167.519V19.3349H167.632V19.2215H167.689C167.632 19.1396 167.632 19.0578 167.632 19.0011H167.689V18.7492H167.746V18.4973H167.802V18.0817H167.884V17.9432H167.941V17.2757H167.998V17.1624H168.054V16.8034L168.25 16.6901V15.9092H168.331V15.5818H168.413V15.1662H168.47V15.0528H168.527V14.6624H168.608V14.5491H168.665V13.9949L168.797 13.9446V13.6108L169.188 13.2771C169.188 13.1385 169.213 13.0567 169.27 13H169.855L169.88 13.0567C170.296 13.5038 170.548 13.7494 170.655 13.8375V15.9218C170.542 16.0037 170.491 16.0604 170.46 16.0856L170.435 16.6964H170.353V17.1687L170.239 17.2253C170.265 17.4457 170.296 17.6724 170.296 17.8928H170.239L170.183 18.1447H170.101C170.126 18.3399 170.126 18.5036 170.183 18.6737H170.101V19.0074L169.988 19.0893V19.2845L169.849 19.3412V20.2039L169.906 20.2605C169.906 20.3172 169.906 20.3424 169.849 20.3424C169.792 20.5061 169.736 20.6195 169.685 20.6195V21.2303H169.629V21.4507H169.572V22.0615L169.433 22.1182V22.7857H169.377V22.9809H169.32V23.428H169.263V23.5917H169.181V24.0891L169.043 24.1458C169.043 24.7 168.986 24.977 168.904 25.0337V25.7012L168.797 25.7201V26.249H168.716V26.3876H168.659V26.8599L168.52 26.9165V27.1684H168.464V27.3321H168.407V28.0563H168.325V28.1696H168.243V28.4215C168.218 28.4467 168.187 28.4467 168.161 28.5034H168.048C168.048 28.7553 168.048 28.919 167.991 29.0323H167.935V29.2276L167.796 29.2842V29.6872C167.714 29.6872 167.683 29.7124 167.683 29.7439L167.519 30.1343H167.462C167.406 30.2981 167.299 30.4114 167.129 30.4114L166.795 30.8018H166.656V30.8018Z" fill="white" stroke="white" stroke-miterlimit="10" stroke-linecap="round" stroke-linejoin="round"/>
</svg>
