<svg width="76" height="24" viewBox="0 0 76 24" fill="none" xmlns="http://www.w3.org/2000/svg">
<path d="M6.06285 22.549H5.9495V22.5238L5.83615 22.549L5.7291 22.4671L5.22534 22.5238L5.14347 22.442L5.00494 22.4986C4.89159 22.3601 4.80973 22.3034 4.75306 22.2782L4.30596 22.3034L4.28078 22.1334L4.02889 22.0201L3.89036 22.0767L3.77701 21.9634L3.49994 21.9382L3.38659 21.7745L3.02766 21.7493L3.00247 21.6674L2.86393 21.7178V21.6044L2.75059 21.6296C2.7254 21.5478 2.69391 21.5163 2.63724 21.4911C2.55538 21.2959 2.44203 21.1888 2.30349 21.1574L2.0831 20.7417L1.91937 20.6851L1.8627 20.4647C1.74935 20.4395 1.69898 20.3828 1.66749 20.2695H1.56044L1.50377 19.9357L1.34004 19.879L1.28337 19.6272H1.22669C1.20151 19.5453 1.17002 19.4634 1.11335 19.432C1.05667 19.2934 1.03149 19.1549 1 19.0415C1 18.6826 1.02519 18.4055 1.05667 18.2103C1.08186 18.1851 1.11335 18.1536 1.11335 18.1285C1.11335 18.1033 1.13854 18.0718 1.22669 17.9899L1.17002 17.7695H1.25818C1.25818 17.7129 1.28337 17.6562 1.37153 17.631L1.51006 17.3791C1.53525 17.3791 1.56674 17.3539 1.56674 17.2972L1.78713 17.2721C1.78713 17.1902 2.00753 17.0768 2.42314 16.9698C2.47981 17.165 2.505 17.2721 2.53649 17.3035C2.56167 17.3287 2.56167 17.4421 2.59316 17.5806H2.56167L2.58686 17.7758L2.53019 17.801L2.55538 17.8829L2.4987 17.9081L2.63724 18.4937C2.7191 18.5504 2.77577 18.6574 2.80096 18.8274C2.82615 18.8526 2.88282 18.9093 2.9395 19.0226L2.99617 18.9975L3.02136 19.136H3.07803L3.13471 19.3564C3.21657 19.3816 3.24806 19.4383 3.27324 19.5201C3.38659 19.5201 3.46845 19.602 3.52513 19.772L3.68885 19.7468C3.99111 20.0239 4.24299 20.1624 4.4382 20.1624C4.55155 20.1624 4.60193 20.1876 4.63341 20.2758C4.71527 20.2758 4.77195 20.301 4.79714 20.3891H5.24423L5.32609 20.5025C5.46462 20.4773 5.65983 20.4458 5.85504 20.4458L5.88023 20.5025L6.35251 20.3891V20.4458L6.51624 20.4206L6.54142 20.4773L7.31597 20.3387V20.2695L7.4545 20.2443L7.42931 20.1876L8.01494 20.0743C8.04013 19.9924 8.07161 19.9609 8.15348 19.9357V19.879L8.3172 19.8224C8.34239 19.7405 8.39906 19.709 8.48092 19.6838L8.61946 19.4886L8.59427 19.3249L8.75799 19.2997C8.89653 18.7141 8.97839 18.33 8.97839 18.1599L8.9532 17.9962C8.81467 17.9144 8.75799 17.801 8.75799 17.7191C8.73281 17.6373 8.64465 17.5554 8.45573 17.4673L8.43055 17.3539C8.12829 17.1902 7.95827 17.0768 7.8764 16.995L7.71268 17.0202L7.65601 16.9383C7.59933 16.9383 7.54266 16.9131 7.49228 16.825C7.37894 16.7998 7.2404 16.7683 7.10186 16.7116L7.07668 16.6549L6.93814 16.6801L6.71774 16.4597L6.69255 16.4849C6.61069 16.4849 6.52883 16.4597 6.49735 16.4282L6.30214 16.4534V16.3023L5.82986 16.2456L5.74799 16.1323L5.5276 16.1071C5.50241 16.0819 5.50241 16.0504 5.50241 16.0252C5.50241 16 5.47722 16 5.38906 15.9686C5.3072 15.9686 5.27571 15.9434 5.25052 15.8867C5.11199 15.8867 4.99864 15.83 4.91678 15.723L4.55785 15.6978C4.53266 15.6159 4.47598 15.5844 4.41931 15.5844L4.28078 15.4396L4.11705 15.4963L4.03519 15.3829L3.95333 15.4081L3.45586 14.961H3.39289C3.22916 14.961 3.141 14.9044 3.09063 14.7973C2.97728 14.7721 2.87023 14.684 2.7317 14.5769H2.53649V14.495H2.505L2.30979 14.3313L2.08939 14.3061L2.03272 14.0857L1.78084 13.9724V13.8339L1.6423 13.8087L1.61711 13.6135L1.56044 13.6386L1.53525 13.5001H1.45339C1.34004 12.8893 1.23299 12.2533 1.09446 11.6425H1.15113L1.12594 11.5291H1.18262L1.12594 11.1702L1.18262 11.145L1.12594 10.9498H1.18262L1.15743 10.8113C1.27077 10.7294 1.32115 10.6475 1.35264 10.5027C1.35264 10.3642 1.37782 10.2823 1.46598 10.2508V10.1123C1.52266 10.0556 1.57933 9.97375 1.60452 9.8604C1.62971 9.74705 1.71787 9.64 1.82492 9.55185C1.82492 9.46998 1.90678 9.35664 2.0768 9.24329L2.21534 8.94103C2.24052 8.91584 2.2972 8.88436 2.32868 8.85917C2.36017 8.83398 2.41054 8.80249 2.46722 8.77731L2.54908 8.5821L3.02136 8.27354C3.02136 8.19168 3.04655 8.135 3.13471 8.135L3.10952 8.07833L3.24806 8.05314V7.99647L3.63847 7.80126L3.5881 7.66272L3.89036 7.63754L3.94703 7.52419L4.16743 7.46751L4.14224 7.41084C4.28078 7.38565 4.39412 7.35417 4.47598 7.2723C4.55785 7.21563 4.77824 7.15896 5.16866 7.13377C5.44573 7.10858 5.77948 7.05191 6.13841 6.91337L6.25176 7.02672L6.91925 6.88818L6.97592 7.00153L7.42301 6.91967L7.50488 7.03302L7.72527 6.97634L7.78195 7.08969L7.94567 7.0645L8.02753 7.14636L8.19126 7.12118L8.24793 7.23452L8.41166 7.17785C8.49352 7.2912 8.57538 7.34157 8.66354 7.37306C8.9658 7.45492 9.13582 7.62494 9.21768 7.87053L9.43808 7.89571C9.46327 8.03425 9.51994 8.1476 9.6018 8.22946V8.25465L9.71515 8.19797L9.77182 8.44986H9.85369L9.87887 8.67026H9.96074L9.98592 9.36293L9.96074 9.38812L10.0993 10.1375L9.98592 10.1941L10.0678 10.4145L9.98592 10.4397C9.98592 10.4964 9.96074 10.5216 9.92925 10.5531C9.89776 10.5846 9.87258 10.5783 9.87258 10.6098C9.87258 10.6412 9.84739 10.6916 9.8159 10.7735C9.53883 10.8553 9.4003 10.912 9.34362 10.912C9.23027 10.912 9.14841 10.8868 9.09174 10.8302L8.92802 10.8553C8.84615 10.742 8.76429 10.6601 8.61946 10.6349L8.39906 9.52666L8.23534 9.30626L8.07161 9.33145L8.04643 9.16772L7.68749 8.97251L7.6623 8.91584L7.2467 8.89065L6.91295 8.94733V8.89065L6.83109 8.91584L6.8059 8.85917L5.05531 9.19291L5.03013 9.30626C4.89159 9.36293 4.80973 9.41961 4.80973 9.4448C4.67119 9.55814 4.53266 9.64 4.39412 9.66519C4.39412 9.72187 4.36893 9.77854 4.31226 9.80373L4.33745 9.88559L4.2304 9.94226V9.99894L4.03519 10.0241C4.01 10.106 3.95333 10.1627 3.87147 10.1627C3.83998 10.2445 3.75812 10.3012 3.66996 10.3327V10.3894L3.47475 10.5279C3.44956 10.6098 3.41808 10.6664 3.33621 10.6916C3.33621 10.8302 3.31103 10.9435 3.22287 11.0254L3.30473 11.3339L3.19138 11.3906L3.41178 12.4989H3.46845L3.49364 12.6626L3.55031 12.6374C3.5755 12.6941 3.60699 12.7508 3.63218 12.7759C3.63218 12.8011 3.65737 12.8578 3.71404 12.8893C3.73923 12.946 3.7959 13.0026 3.82739 13.053L4.10446 12.9963C4.12965 13.0782 4.18632 13.1349 4.24299 13.1916L4.38153 13.1664L4.40672 13.2797L4.6586 13.223V13.4182C4.79714 13.4434 4.91048 13.5001 5.01753 13.6386C5.15607 13.6386 5.26942 13.6953 5.35128 13.8339L5.43314 13.8087C5.48981 13.8087 5.62835 13.8905 5.82356 14.0291L6.01877 13.9724C6.10063 14.0543 6.21398 14.1109 6.35251 14.1361L6.3777 14.2998C6.71145 14.325 6.96333 14.4384 7.12705 14.6021L7.37894 14.5454V14.6273C7.4608 14.7091 7.68749 14.791 8.04643 14.9295V14.9044H8.15977L8.3235 15.0681H8.51871L8.87764 15.32C9.07285 15.32 9.21138 15.3766 9.23657 15.5152L9.8222 15.8741L9.87887 16.0126C9.99222 16.0378 10.0741 16.126 10.1308 16.2079L10.2441 16.1827C10.3008 16.2645 10.3575 16.3464 10.3826 16.3779C10.4078 16.4031 10.4645 16.5164 10.5212 16.6549C10.603 16.7368 10.6345 16.7935 10.6345 16.8187L10.7479 16.762L10.8297 17.1209L10.9431 17.1461L11.195 18.3929L11.1383 18.4181L11.195 18.5567H11.1446C11.1446 18.6133 11.1194 18.67 11.0627 18.7204L11.1194 18.9975L11.006 19.0793L11.0312 19.2179C10.8927 19.5768 10.7542 19.772 10.6156 19.8539L10.5338 20.4395H10.4519C10.3952 20.6347 10.3134 20.7166 10.2 20.7166L10.2252 20.8803C10.1119 20.9055 10.03 21.044 9.94814 21.2959C9.86628 21.2959 9.80961 21.3526 9.80961 21.4344L9.55772 21.573V21.6296L9.30584 21.6863V21.743C9.24917 21.743 9.19249 21.7997 9.19249 21.8563L8.97209 21.8815V21.9382L8.85875 21.9634V22.0201L8.36128 22.1334V22.1901H8.27942L8.30461 22.2467L6.77442 22.549L6.74923 22.4923H6.67366L6.64847 22.4671L6.06285 22.5805V22.549V22.549Z" fill="#F5DF70" stroke="#F5DF70" stroke-miterlimit="10" stroke-linecap="round" stroke-linejoin="round"/>
<path d="M17.3661 22.0765H17.2527V22.0198H17.089V21.9632L16.9505 21.9883V21.9317H16.8686C16.8119 21.8498 16.7301 21.7931 16.6167 21.7931C16.4215 21.6798 16.2578 21.4027 16.1444 20.9871H16.0059V20.54L15.924 20.5148L15.8674 19.6836L15.7036 19.6018L15.647 18.5753C15.6218 18.5501 15.5903 18.4935 15.5903 18.3549C15.6155 18.3297 15.647 18.3297 15.6722 18.3297C15.6722 18.3297 15.6722 18.3297 15.6722 18.3046C15.6722 18.2794 15.647 18.2479 15.6155 18.2227C15.5588 18.2227 15.5336 18.1975 15.5336 18.1408C15.5084 18.1408 15.4769 18.1156 15.4769 18.0275C15.5021 18.0023 15.5336 17.9708 15.5588 17.9708C15.5336 17.6119 15.5021 16.7744 15.4769 15.5024H15.5336V15.389H15.5588C15.5336 15.2505 15.5336 14.4444 15.5336 13.0024H15.6155C15.6407 12.8639 15.6973 12.782 15.7288 12.7505L15.6722 11.0818L15.754 10.9999L15.8107 9.52643L15.1432 9.55162C15.1432 9.57681 15.118 9.63348 15.0613 9.66497L12.9518 9.72164L12.87 9.58311L12.234 9.6083C12.234 9.58311 12.2088 9.55162 12.1521 9.55162L12.0387 9.35641C11.8435 9.27455 11.7302 9.07934 11.6798 8.72041C11.8183 8.63855 11.875 8.55668 11.9002 8.41815L12.1206 8.39296C12.1458 8.3111 12.2025 8.25443 12.2843 8.25443L12.4229 8.03403H12.6433L12.6181 7.95217H12.7314V7.89549L13.8397 7.8703V7.78844L15.3699 7.73177L15.3951 7.64991L15.924 7.59323L15.8988 6.20158H15.9807C15.9807 4.56434 16.0059 3.58829 16.0941 3.28603V2.94599C16.0941 2.53039 16.2578 2.25331 16.5663 2.08329L17.0638 2.05811L17.3724 2.41704L17.5676 2.44223L17.5928 2.75078H17.5361L17.5613 2.97118H17.6431V3.08453H17.6935L17.7187 4.19281H17.7754V4.30616H17.8887L17.7502 4.66509C17.832 4.69028 17.8887 4.80363 17.8887 4.99884L17.832 5.83005L17.9139 6.83129H17.8572V6.94463H17.7439C17.8258 6.94463 17.8572 7.0265 17.8572 7.22171H17.7439V7.53026C17.8258 7.55545 18.021 7.55545 18.3547 7.55545C18.6885 7.55545 19.0474 7.55545 19.3811 7.49878L19.463 7.63731C19.5197 7.63731 19.5763 7.61212 19.6015 7.58064C19.6267 7.54915 19.6582 7.55545 19.6834 7.55545C19.7401 7.55545 19.7653 7.58064 19.7653 7.61212L20.8232 7.58694L20.905 7.72547L21.3521 7.70028L21.434 7.83882L21.6859 7.81363C21.6859 7.83882 21.711 7.8703 21.7425 7.8703L21.7677 8.06551C21.9063 8.17886 21.9629 8.28591 21.9881 8.36777L21.9063 8.5315C21.9063 8.67003 21.9063 8.75189 21.8811 8.84005L21.7677 8.86524L21.5725 9.14231L21.3521 9.1675C21.3521 9.19269 21.3269 9.24936 21.2703 9.30604L19.7149 9.33122V9.3879H19.2174L18.827 9.36271L18.7136 9.41938L18.6318 9.36271H18.3295L18.2477 9.41938C18.191 9.41938 18.1343 9.3942 18.1091 9.36271C18.0839 9.33122 18.0524 9.33752 18.0273 9.33752V9.3942L17.7502 9.47606V9.83499H17.6935L17.7754 10.5843H17.7187V10.7481H17.7754L17.6935 11.4156H17.6683C17.6683 11.4407 17.6935 11.4974 17.7502 11.5541L17.555 11.7745C17.555 11.8564 17.555 11.9382 17.5802 11.9949C17.6054 12.0516 17.6054 12.1334 17.6054 12.272H17.5487L17.5739 13.6321H17.6305L17.6557 13.8525C17.6557 13.9092 17.6305 14.0162 17.5739 14.1611L17.6305 14.3563H17.5487V14.4696H17.5046C17.5613 15.8046 17.5865 17.2718 17.6179 18.8587H17.7313V19.8033C17.7565 19.8284 17.788 19.8599 17.8132 19.9418H18.2603C18.3169 19.8599 18.3988 19.8033 18.4806 19.7781C18.5625 19.7781 18.6192 19.7529 18.701 19.7214C18.7262 19.6395 18.7829 19.608 18.8648 19.5829V19.5577L19.1167 19.4758V19.4191L19.3685 19.3625L19.3937 19.2806L19.6141 19.2239L19.6393 19.1106H19.8345C19.8597 19.0287 19.8912 18.9972 19.9731 18.9972V18.972L20.1683 18.8587L20.1116 18.7453H20.3635L20.6154 18.3864H20.8106C20.8106 18.3046 20.8358 18.2731 20.9239 18.2479C20.9239 18.1912 20.9491 18.166 21.0058 18.1345V18.1093L21.308 17.8008C21.3332 17.7441 21.3647 17.7189 21.3899 17.6874H21.5032L21.5851 17.5237L21.7488 17.4985V17.4167H21.8874C21.9126 17.3348 21.9692 17.2781 22.0511 17.2529V17.1963H22.1644V17.1144L22.3848 17.1963L22.8823 17.1144C22.939 17.1396 22.9642 17.1711 22.9956 17.1963C23.0271 17.2215 23.0523 17.2529 23.0775 17.2781C23.1027 17.3033 23.1342 17.3348 23.1594 17.36L23.2412 17.3348L23.2664 18.1408C23.2097 18.1975 23.1846 18.2542 23.1531 18.336C23.1279 18.4179 23.0712 18.4746 23.0397 18.4998C22.9831 18.525 22.9579 18.5816 22.9579 18.6131C22.9579 18.6698 22.9012 18.7265 22.7941 18.7516C22.7941 18.8335 22.7375 18.9154 22.5989 18.972C22.5423 19.0287 22.5171 19.1106 22.4856 19.2239L22.3722 19.2491V19.2743C22.2904 19.2995 22.2589 19.3877 22.2337 19.5262C22.1518 19.5262 22.1204 19.5514 22.1204 19.6395H21.9566L21.7614 19.9166C21.6229 19.9418 21.5662 20.03 21.5662 20.137C21.4844 20.1937 21.4025 20.2755 21.3458 20.4141H21.1821L20.9302 20.7478C20.8169 20.773 20.735 20.8612 20.7098 20.943H20.5461V20.9682C20.5461 21.0249 20.5461 21.0501 20.4894 21.0816H20.3761L20.2942 21.2453L20.099 21.302V21.3838L19.7401 21.4405V21.4972H19.6015C19.6015 21.5224 19.5197 21.579 19.3496 21.6609V21.7176L19.0726 21.7428L19.0474 21.8561L18.7136 21.8813V21.9632L18.2665 21.9883L18.2414 22.1017L17.3535 22.1269V22.0765H17.3661Z" fill="#F5DF70" stroke="#F5DF70" stroke-miterlimit="10" stroke-linecap="round" stroke-linejoin="round"/>
<path d="M36.9437 21.5221V21.4088L36.6667 21.2136V21.1002C36.5029 20.9869 36.4148 20.8483 36.4148 20.7098C36.3329 20.6846 36.2763 20.5965 36.2763 20.5146H36.2196C36.1629 20.3509 36.081 20.2627 35.9992 20.206V20.0675H35.9173V19.9542H35.8606V19.7023L35.7221 19.6456V19.4504H35.6654L35.6402 19.337H35.5773V19.0033L35.4387 18.9214V18.5625L35.2183 18.0084H35.105L34.9665 18.1469L34.9917 18.3106L34.8531 18.3925V18.5877C34.7713 18.6129 34.7398 18.6695 34.7398 18.7514C34.6579 18.8081 34.6264 18.8648 34.6264 18.9466L34.3493 19.0852C34.3242 19.2804 34.2927 19.3937 34.2675 19.3937C34.2108 19.3937 34.1856 19.4504 34.1856 19.5574H34.1038C34.1038 19.6393 34.0471 19.696 33.94 19.696C33.8834 19.7526 33.8267 19.8345 33.8267 19.8912C33.8015 19.973 33.6882 20.0297 33.4929 20.0864C33.5181 20.1431 33.5181 20.1997 33.5181 20.2816H33.4363L33.4615 20.3383C33.3796 20.3383 33.2977 20.3635 33.2977 20.4201C33.2725 20.4453 33.2159 20.4768 33.134 20.4768V20.5335H32.9703L32.8318 20.8106L32.2461 21.031V21.0876L31.8872 21.2262V21.2828L31.6353 21.308C31.6353 21.3647 31.6101 21.3899 31.5786 21.4214L31.1945 21.4654C31.1945 21.5473 30.9741 21.604 30.5585 21.604C30.5585 21.6858 30.4767 21.7425 30.3381 21.7425L29.255 21.7677V21.7173H29.0913V21.6355L28.3986 21.6607V21.604H28.2853V21.5473H27.8949L27.8382 21.434H27.5359L27.4226 21.3206H27.2274C27.2274 21.2388 27.1455 21.2073 26.9755 21.2073C26.9755 21.1506 26.9188 21.0939 26.7803 21.0687V20.9554H26.5851V20.8735C26.4465 20.7602 26.3332 20.6783 26.2261 20.6216C26.1443 20.4831 26.0624 20.4012 25.9491 20.4012C25.8672 20.1494 25.7287 19.9856 25.5334 19.9038V19.7652L25.3949 19.7086V19.5448C25.313 19.4882 25.2564 19.4063 25.2564 19.293H25.1997V19.1355H25.143V18.9718H25.0612V18.8333H24.9982L24.973 18.3358H24.9163V18.1406L24.8597 18.1658C24.8597 18.0839 24.8848 18.0272 24.9163 18.0272C24.9163 17.9454 24.8911 17.8887 24.8597 17.832H24.8345C24.8345 17.7754 24.8345 17.6935 24.8597 17.6368C24.8848 17.555 24.8848 17.4983 24.9163 17.4416C24.9415 17.3598 24.9415 17.3283 24.9415 17.3031L24.9163 16.1633L25.0297 16.1066V15.6344L25.143 15.5777V15.1306L25.2501 15.0802V14.9417H25.3068L25.2501 14.6331H25.3068V14.4946H25.3634V14.186L25.4768 14.1294V13.909L25.5901 13.8271V13.6634L25.7538 13.5815L25.7287 13.4178L25.8672 13.3359V13.1407C25.8672 13.1407 25.8924 13.1155 25.9491 13.084C25.9742 13.0274 26.0057 12.9707 26.0057 12.8888L26.1695 12.8322L26.1946 12.3347L26.415 12.1962C26.415 12.1962 26.4402 12.171 26.4969 12.171C26.5221 11.9758 26.5788 11.8372 26.6606 11.7554C26.774 11.6735 26.8243 11.535 26.8558 11.3964H26.9944C27.0762 11.0375 27.3281 10.7289 27.7437 10.3952L27.7185 10.2818C27.8571 10.2 27.9956 10.0614 28.1656 9.89143C28.1656 9.83475 28.1908 9.80957 28.2223 9.75289L28.4742 9.69622C28.5309 9.58287 28.6127 9.53249 28.7261 9.50101V9.41915L28.8898 9.36247V9.24913C29.1102 9.16726 29.2487 9.05392 29.3369 8.94687C29.3369 8.92168 29.3936 8.92168 29.5321 8.92168V8.83982H29.6706V8.78314H29.784C29.784 8.72647 29.8406 8.6698 29.9477 8.6698C30.0296 8.6698 30.0862 8.58793 30.0862 8.47459H30.3381L30.3948 8.36124L30.6467 8.33605V8.27938H30.7852V8.2227L31.0623 8.19751L31.1756 8.00231C31.3393 8.00231 31.5094 8.02749 31.6227 8.05898V8.00231C31.7613 7.97712 31.8746 7.94563 31.9816 7.92044V7.86377L32.8443 7.97712C32.8443 8.00231 32.8444 8.03379 32.901 8.03379V7.95193L33.2096 8.0086L33.2663 7.95193L33.5433 8.0086C33.5433 7.98341 33.5685 7.95193 33.6 7.92674C33.6252 7.92674 33.6567 7.95193 33.6819 7.98341C33.707 8.0149 33.7385 8.06528 33.7952 8.12195H33.9086V8.17862H34.4375V8.2353H34.6327V8.29197H35.0798V8.34864H35.3317V8.40532H35.4702V8.46199H35.6654V8.51867L35.7788 8.57534V8.71387L36.1944 9.02243C36.1944 9.0791 36.2196 9.10429 36.2763 9.16097C36.3896 9.10429 36.4715 9.10429 36.5533 9.10429C36.6352 9.10429 36.717 9.10429 36.7737 9.16097C36.8556 9.18616 36.8871 9.35618 36.9123 9.63325H36.9689L36.9123 10.1307H36.8556V10.2126L36.9941 10.2693L36.9374 10.603L37.0508 10.6597L37.0256 11.1068L37.0823 11.132C37.0823 11.2453 37.0571 11.3523 37.0256 11.4342C37.0004 11.5161 36.9689 11.6294 36.9689 11.7931H37.0256C37.0508 11.8498 37.0508 11.9317 37.0508 11.9884H37.1075L37.0823 12.8762H37.139L37.0256 13.2667C36.9689 13.2667 36.9437 13.2918 36.9437 13.3485C36.9437 13.4052 37.0004 13.4619 37.0823 13.5122L37.1075 13.9845L37.1641 13.9279L37.1893 14.0664C37.1893 14.0916 37.1641 14.1482 37.1327 14.2301C37.076 14.312 37.0508 14.3938 37.0508 14.482H37.1075C37.1327 14.5953 37.1327 14.7024 37.1327 14.8409H37.1893C37.1893 14.9795 37.1641 15.0613 37.1327 15.1432H37.1893L37.1641 15.924H37.2208L37.246 16.2578H37.3027V16.3711H37.3594C37.3594 16.4845 37.3593 16.623 37.3027 16.7615H37.3845V17.0701L37.3279 17.1268H37.3845V17.2653L37.5231 17.322V17.5172H37.5797C37.5797 17.6809 37.5797 17.7943 37.5231 17.9076H37.6049L37.6616 18.1595H37.7435C37.7435 18.3232 37.7435 18.4114 37.7435 18.4366C37.7435 18.4617 37.7183 18.5184 37.6868 18.6003H37.7435V18.7136H37.8001L37.8253 19.1607H37.882C37.9072 19.2426 37.9387 19.2993 37.9387 19.3559C37.9639 19.3811 37.9954 19.4378 38.052 19.4378V19.7967H38.1339V20.0486H38.1906V20.1871L38.2724 20.162V20.4138C38.3291 20.4705 38.3858 20.5272 38.4676 20.5524C38.4676 20.609 38.4424 20.609 38.411 20.609C38.3858 20.6909 38.3858 20.7728 38.3858 20.8861C38.3858 21.1884 38.411 21.3332 38.4991 21.3836C38.4991 21.4088 38.4739 21.4403 38.4424 21.4403C38.3039 21.6921 37.945 21.7992 37.3594 21.7992C37.2208 21.6292 37.1075 21.5473 36.9437 21.5221ZM29.721 20.0486V19.9919L29.8595 19.9667L29.8343 19.9101H30.25V19.8282H30.3633V19.7715H30.6404L30.697 19.633L31.0875 19.6078V19.5511C31.1127 19.5259 31.1693 19.4945 31.226 19.4378C31.2827 19.3811 31.3645 19.3559 31.5346 19.3244C31.5912 19.1292 31.6983 18.9907 31.925 18.934V18.7388L32.0383 18.7136L32.3721 18.3232H32.4287C32.4539 18.1847 32.5106 18.128 32.5673 18.1028C32.5925 18.0776 32.6491 18.0776 32.6806 18.0461C32.7373 17.9328 32.7625 17.8824 32.794 17.8509C32.9325 17.8257 32.9892 17.7691 32.9892 17.7124C32.9892 17.6305 33.071 17.5172 33.2663 17.3786C33.2914 17.1834 33.3481 17.1016 33.3796 17.0701C33.4048 17.0449 33.4615 17.0134 33.5181 16.9567V16.7615H33.5748V16.6482L33.6315 16.623V16.4278L33.77 16.3711L33.7448 16.094H33.8267V15.9807H33.8834L33.94 15.7036H33.9967L34.1101 15.118L34.1919 15.0928V14.9795H34.2486V14.589L34.3619 14.5072V14.0349L34.4753 13.9782V13.5878L34.5886 13.5059V13.2163L34.7272 13.1344L34.702 12.4103L34.8405 12.3536L34.7838 10.8234H34.8405L34.8153 10.6849C34.8153 10.603 34.8405 10.5715 34.8972 10.5715V9.90402C34.8972 9.90402 34.9224 9.84735 34.9539 9.76549H34.872V9.70881L34.3431 9.59546L32.2587 9.65214V9.734H32.1202V9.79067L31.7298 9.81586C31.7046 9.89772 31.6164 9.92921 31.5346 9.92921V10.0111L31.1441 10.1496V10.2881C30.8671 10.3448 30.5585 10.5085 30.2563 10.7604C30.061 11.069 29.8406 11.2327 29.6202 11.3146C29.5636 11.4783 29.5069 11.5916 29.4565 11.6231C29.3747 11.6483 29.2928 11.705 29.2361 11.7868V11.9254C29.1795 11.9254 29.1543 11.9506 29.0976 12.0072C29.0724 12.0891 28.9842 12.1458 28.8457 12.2591L28.8205 12.6495L28.5434 12.7881L28.4868 13.0652H28.4301C28.3734 13.1218 28.3168 13.1785 28.2664 13.2037C28.2097 13.2289 28.1845 13.3422 28.1845 13.5059C28.1027 13.5311 28.046 13.5626 28.0208 13.6193C28.0208 13.6445 27.9956 13.6445 27.9389 13.676L27.8823 14.0664H27.8004L27.687 14.4568H27.58V14.5953H27.4981L27.5233 14.7906H27.4415L27.4666 14.9858H27.3911V15.1243L27.2777 15.2062V15.5147H27.2211V15.6532H27.1644V15.987H27.1077V16.1255H27.0259L27.051 16.5726H26.9692L26.9944 16.7112H26.9125L26.9377 17.0449H26.9944V17.1016L26.9377 17.1834V17.7124H27.0196L26.9377 17.7691L26.9629 18.4932H27.0447V18.6318H27.1014C27.1014 18.7451 27.1581 18.827 27.24 18.8836C27.2966 19.104 27.3785 19.2741 27.517 19.3307V19.5259C27.6556 19.5511 27.7374 19.6078 27.7941 19.7212H27.9326C27.9893 19.803 28.046 19.8597 28.1278 19.8849C28.2097 19.8849 28.2664 19.9101 28.2664 19.9667H28.6001L28.6568 20.0801L29.721 20.0486Z" fill="#F5DF70" stroke="#F5DF70" stroke-miterlimit="10" stroke-linecap="round" stroke-linejoin="round"/>
<path d="M41.5214 21.9379H41.301C41.301 21.8246 41.2759 21.7742 41.2192 21.7742C41.1625 21.7742 41.1058 21.7742 41.0555 21.7742C41.0303 21.749 40.9988 21.749 40.9736 21.6923H40.9169L40.8603 20.8863C40.7784 20.8296 40.7217 20.7478 40.7217 20.6659L40.5832 18.5249C40.5832 18.3297 40.5832 18.166 40.6084 17.9959C40.5265 17.637 40.4446 16.7743 40.388 15.4393H40.4698C40.5265 15.326 40.5265 15.2441 40.5265 15.1623C40.4698 14.9419 40.4132 14.4381 40.388 13.6887C40.388 13.4369 40.3628 12.9394 40.3313 12.19H40.388V11.9948H40.4446L40.3313 10.3576H40.388L40.4132 9.52638L40.3565 8.52515L40.4132 8.49996V8.36142H40.4698L40.4446 7.91433H40.5013V7.77579H40.5832V7.63726L40.4698 7.5554C40.495 7.53021 40.5265 7.49872 40.5265 7.47353C40.5265 7.44835 40.5517 7.39167 40.6084 7.36019C40.6336 7.335 40.6902 7.27833 40.7469 7.19646C40.8036 7.1146 40.8603 7.05793 40.9421 7.00125C40.9988 6.97607 41.0806 6.94458 41.1625 6.94458V7.00125C41.3262 7.00125 41.4648 7.02644 41.5781 7.05793L41.7167 7.22165H41.7985L41.8804 7.53021H41.9371L41.9622 7.88914C42.0756 8.1914 42.1826 9.11077 42.296 10.6662C42.296 11.2518 42.296 11.6107 42.2393 11.7492V12.5553H42.2645C42.2645 12.5805 42.2897 12.6119 42.3464 12.6371C42.3464 12.6938 42.3212 12.719 42.233 12.7505V15.1937L42.5668 14.1107C42.6234 13.8336 42.6486 13.5817 42.6801 13.3046C42.8753 13.1661 42.9572 13.0842 42.9572 13.0527C42.9824 12.9142 43.039 12.8323 43.1209 12.7442V12.6057H43.1776L43.3728 12.3538L43.4861 12.3286C43.8451 11.8563 44.1536 11.5226 44.3488 11.3588V11.3022L44.4874 11.1888H44.7078C44.7896 11.1888 44.8211 11.1069 44.8463 10.9369C44.8715 10.9369 44.903 10.9117 44.9282 10.9117C44.9534 10.8865 44.9533 10.8865 44.9848 10.8865C45.0163 10.8865 45.01 10.8865 45.01 10.8614C45.01 10.8362 45.01 10.8362 45.0352 10.8047V10.7228L46.005 10.3324L46.1435 10.112H46.3954L46.4521 9.97347L46.7858 9.94828C46.7858 9.9231 46.811 9.86642 46.8425 9.83494L47.51 9.77826L47.5666 9.66492L49.5124 9.52638V9.60824L49.7328 9.58305L49.758 9.63973L50.2555 9.61454V9.6964L50.8663 9.83494V9.89161C51.0615 10.0553 51.1434 10.1687 51.1434 10.2254H51.2252L51.2504 10.4772H51.3071L51.389 10.5906V10.811C51.3071 10.8362 51.2756 10.8928 51.2504 10.9747C51.2504 11.0566 51.1938 11.1132 51.1371 11.1384V11.2203L48.889 11.3588C48.8638 11.4155 48.8072 11.4407 48.7757 11.4407C48.5553 11.4659 48.4167 11.4659 48.3853 11.4974V11.554L48.1649 11.5792L48.19 11.6359L47.8563 11.6611V11.7178H47.743V11.8311L47.384 11.8563L47.4092 11.913H47.2707V11.9696L47.0755 11.9948L47.1007 12.0515C47.044 12.0515 47.0188 12.0515 46.9873 12.0767L46.6787 12.2152V12.2719H46.5654C46.5402 12.2971 46.5087 12.3538 46.4835 12.3853C46.4269 12.4419 46.4017 12.4986 46.3702 12.5238C46.345 12.5805 46.2883 12.6057 46.2317 12.6057C46.175 12.6057 46.1183 12.6308 46.0679 12.6308C45.9861 12.6308 45.9546 12.7127 45.9294 12.8512H45.7909C45.7342 12.9646 45.6523 13.0464 45.539 13.1031C45.4256 13.1598 45.3753 13.2165 45.3438 13.2417C45.3186 13.2983 45.3186 13.3235 45.2871 13.3235C45.2052 13.4369 45.0919 13.5187 45.01 13.6006C44.9282 13.6824 44.8715 13.7958 44.8715 13.9091L44.4811 14.2681L44.5063 14.4066C44.4244 14.4066 44.3929 14.4318 44.3929 14.4885C44.3677 14.5703 44.3362 14.627 44.2544 14.6522L44.2796 14.9041L44.0277 15.156V15.3512H43.9458C43.9458 15.5149 43.8891 15.6031 43.7821 15.6031V15.8801L43.6687 15.962V16.1005L43.505 16.2391L43.4484 16.4909H43.3917V16.768C43.3665 16.768 43.3098 16.7932 43.2531 16.8499C43.2531 17.0451 43.228 17.1584 43.1398 17.1584L43.165 17.5174L43.0264 17.574L43.0516 17.9645H42.9383L42.9635 18.4367C42.9383 18.4619 42.8816 18.4934 42.8249 18.5186L42.8501 18.9342H42.7683V19.6584H42.6864V19.7969H42.6927L42.7494 20.6596H42.6675L42.6927 20.8548H42.636L42.6612 21.3271L42.3527 21.7742L42.2393 21.7994L42.1008 22.0198L41.5718 22.045L41.5214 21.9379Z" fill="#F5DF70" stroke="#F5DF70" stroke-miterlimit="10" stroke-linecap="round" stroke-linejoin="round"/>
<path d="M58.1836 22.0765H58.0702V22.0198H57.9065V21.9632L57.768 21.9883V21.9317H57.6861C57.6294 21.8498 57.5476 21.7931 57.4342 21.7931C57.239 21.6798 57.0753 21.4027 56.9619 20.9871H56.8234V20.54L56.7415 20.5148L56.6849 19.6836L56.5211 19.6018L56.4645 18.5753C56.4393 18.5501 56.4078 18.4935 56.4078 18.3549C56.433 18.3297 56.4645 18.3297 56.4897 18.3297C56.4897 18.3297 56.4897 18.3297 56.4897 18.3046C56.4897 18.2794 56.4645 18.2479 56.433 18.2227C56.3763 18.2227 56.3511 18.1975 56.3511 18.1408C56.3259 18.1408 56.2945 18.1156 56.2945 18.0275C56.3196 18.0023 56.3511 17.9708 56.3763 17.9708C56.3511 17.6119 56.3196 16.7744 56.2945 15.5024H56.3511V15.389H56.3763C56.3511 15.2505 56.3511 14.4444 56.3511 13.0024H56.433C56.4582 12.8639 56.5148 12.782 56.5463 12.7505L56.4897 11.0818L56.5715 10.9999L56.6282 9.52643L55.9607 9.55162C55.9607 9.57681 55.9355 9.63348 55.8788 9.66497L53.7693 9.72164L53.6875 9.58311L53.0515 9.6083C53.0515 9.58311 53.0263 9.55162 52.9696 9.55162L52.8562 9.35641C52.661 9.27455 52.5477 9.07934 52.4973 8.72041C52.6359 8.63855 52.6925 8.55668 52.7177 8.41815L52.9381 8.39296C52.9633 8.3111 53.02 8.25443 53.1018 8.25443L53.2404 8.03403H53.4608L53.4356 7.95217H53.5489V7.89549L54.6572 7.8703V7.78844L56.1874 7.73177L56.2126 7.64991L56.7415 7.59323L56.7164 6.20158H56.7982C56.7982 4.56434 56.8234 3.58829 56.9116 3.28603V2.94599C56.9116 2.53039 57.0753 2.25331 57.3838 2.08329L57.8813 2.05811L58.1899 2.41704L58.3851 2.44223L58.4103 2.75078H58.3536L58.3788 2.97118H58.4606V3.08453H58.5173L58.5425 4.19281H58.5992V4.30616H58.7125L58.574 4.66509C58.6559 4.69028 58.7125 4.80363 58.7125 4.99884L58.6559 5.83005L58.7377 6.83129H58.6873V6.94463H58.574C58.6559 6.94463 58.6873 7.0265 58.6873 7.22171H58.574V7.53026C58.6559 7.55545 58.8511 7.55545 59.1848 7.55545C59.5186 7.55545 59.8775 7.55545 60.2112 7.49878L60.2931 7.63731C60.3498 7.63731 60.4064 7.61212 60.4316 7.58064C60.4568 7.54915 60.4883 7.55545 60.5135 7.55545C60.5702 7.55545 60.5954 7.58064 60.5954 7.61212L61.6533 7.58694L61.7351 7.72547L62.1822 7.70028L62.2641 7.83882L62.516 7.81363C62.516 7.83882 62.5411 7.8703 62.5726 7.8703L62.5978 8.06551C62.7364 8.17886 62.793 8.28591 62.8182 8.36777L62.7364 8.5315C62.7364 8.67003 62.7364 8.75189 62.7112 8.84005L62.5978 8.86524L62.4026 9.14231L62.1822 9.1675C62.1822 9.19269 62.157 9.24936 62.1004 9.30604L60.545 9.33122V9.3879H60.0475L59.6571 9.36271L59.5437 9.41938L59.4619 9.36271H59.1596L59.0778 9.41938C59.0211 9.41938 58.9644 9.3942 58.9392 9.36271C58.914 9.33122 58.8826 9.33752 58.8574 9.33752V9.3942L58.5803 9.47606V9.83499H58.5236L58.6055 10.5843H58.5488V10.7481H58.6055L58.5236 11.4156H58.4984C58.4984 11.4407 58.5236 11.4974 58.5803 11.5541L58.3851 11.7745C58.3851 11.8564 58.3851 11.9382 58.4103 11.9949C58.4355 12.0516 58.4355 12.1334 58.4355 12.272H58.3788L58.404 13.6321H58.4606L58.4858 13.8525C58.4858 13.9092 58.4606 14.0162 58.404 14.1611L58.4606 14.3563H58.3788V14.4696H58.3221C58.3788 15.8046 58.404 17.2718 58.4355 18.8587H58.5488V19.8033C58.574 19.8284 58.6055 19.8599 58.6307 19.9418H59.0778C59.1344 19.8599 59.2163 19.8033 59.2982 19.7781C59.38 19.7781 59.4367 19.7529 59.5186 19.7214C59.5437 19.6395 59.6004 19.608 59.6823 19.5829V19.5577L59.9342 19.4758V19.4191L60.186 19.3625L60.2112 19.2806L60.4316 19.2239L60.4568 19.1106H60.652C60.6772 19.0287 60.7087 18.9972 60.7906 18.9972V18.972L60.9858 18.8587L60.9291 18.7453H61.181L61.4329 18.3864H61.6281C61.6281 18.3046 61.6533 18.2731 61.7414 18.2479C61.7414 18.1912 61.7666 18.166 61.8233 18.1345V18.1093L62.1255 17.8008C62.1507 17.7441 62.1822 17.7189 62.2074 17.6874H62.3208L62.4026 17.5237L62.5663 17.4985V17.4167H62.7049C62.7301 17.3348 62.7867 17.2781 62.8686 17.2529V17.1963H62.9819V17.1144L63.2023 17.1963L63.6998 17.1144C63.7565 17.1396 63.7817 17.1711 63.8132 17.1963C63.8446 17.2215 63.8698 17.2529 63.895 17.2781C63.9202 17.3033 63.9517 17.3348 63.9769 17.36L64.0587 17.3348L64.0839 18.1408C64.0273 18.1975 64.0021 18.2542 63.9706 18.336C63.9454 18.4179 63.8887 18.4746 63.8572 18.4998C63.8006 18.525 63.7754 18.5816 63.7754 18.6131C63.7754 18.6698 63.7187 18.7265 63.6116 18.7516C63.6116 18.8335 63.555 18.9154 63.4164 18.972C63.3598 19.0287 63.3346 19.1106 63.3031 19.2239L63.1897 19.2491V19.2743C63.1079 19.2995 63.0764 19.3877 63.0512 19.5262C62.9693 19.5262 62.9379 19.5514 62.9379 19.6395H62.7741L62.5789 19.9166C62.4404 19.9418 62.3837 20.03 62.3837 20.137C62.3019 20.1937 62.22 20.2755 62.1633 20.4141H61.9996L61.7477 20.7478C61.6344 20.773 61.5525 20.8612 61.5273 20.943H61.3636V20.9682C61.3636 21.0249 61.3636 21.0501 61.3069 21.0816H61.1936L61.1117 21.2453L60.9165 21.302V21.3838L60.5576 21.4405V21.4972H60.419C60.419 21.5224 60.3372 21.579 60.1672 21.6609V21.7176L59.8901 21.7428L59.8649 21.8561L59.5311 21.8813V21.9632L59.0841 21.9883L59.0589 22.1017L58.171 22.1269V22.0765H58.1836Z" fill="#F5DF70" stroke="#F5DF70" stroke-miterlimit="10" stroke-linecap="round" stroke-linejoin="round"/>
<path d="M68.9898 23.2727L68.656 22.8823H68.4608L68.1838 22.5486H68.1271V21.6859C68.2089 21.6607 68.2404 21.604 68.2404 21.5473C68.2404 21.4907 68.2404 21.4655 68.2971 21.434C68.3223 21.434 68.3538 21.4088 68.3538 21.4088C68.3538 21.3836 68.379 21.3836 68.379 21.3836C68.4041 21.3836 68.4356 21.3836 68.4608 21.3584C68.486 21.2766 68.5175 21.1947 68.5427 21.1632C68.5994 21.138 68.6245 21.0814 68.656 20.968C68.9079 20.9113 69.015 20.8043 69.0465 20.6343C69.1283 20.6091 69.2102 20.5776 69.3487 20.5776H69.9029C69.9595 20.6595 70.0162 20.6909 70.0666 20.6909C70.1232 20.6909 70.1484 20.7161 70.2051 20.7728C70.3185 20.9932 70.5074 21.1317 70.7593 21.2451V21.6355L70.8978 21.6922V22.1078C70.7844 22.1645 70.7341 22.2463 70.7026 22.3597C70.6774 22.473 70.6207 22.5549 70.4822 22.6367L70.0918 23.0838L69.8399 23.1657L69.758 23.279H68.9898V23.2727ZM70.5452 18.8018C70.4885 18.72 70.3248 18.6633 70.0477 18.6633C70.0477 18.6381 70.0225 18.5814 69.991 18.5814C69.9658 18.5562 69.9343 18.5248 69.9091 18.4681C69.884 18.4429 69.7958 18.4114 69.6321 18.4114C69.6069 18.191 69.5754 17.8825 69.5754 17.492V16.7679H69.6321C69.6888 16.6293 69.7139 16.516 69.7139 16.3523H69.7706V16.2389C69.8273 16.2389 69.8273 16.2137 69.8273 16.1571L69.7706 15.9367H69.8273V15.8233H69.9091V15.6281H69.9595C69.9847 15.6029 70.0162 15.3258 70.0414 14.8536H70.1233L70.1484 14.1609C70.1484 14.1042 70.1736 14.079 70.2303 14.0475V13.7957H70.287V13.5753H70.3688V13.0211H70.4255V12.8574H70.4822V12.3599L70.6207 12.3032V11.5791H70.6774C70.7026 11.5539 70.7593 11.2201 70.8411 10.5527H70.8978V10.3008H70.9545V10.1056H71.0111L70.9545 9.8285H71.0111C71.0363 9.74663 71.0678 9.68996 71.1497 9.63329C71.1497 9.6081 71.1245 9.57661 71.093 9.57661C71.093 9.49475 71.1182 9.43808 71.1497 9.3814C71.1497 9.32473 71.1245 9.24287 71.093 9.16101H71.1497V8.9658C71.1749 8.9658 71.2063 8.94061 71.2063 8.90912H71.1497C71.1497 8.88394 71.1749 8.85245 71.2063 8.85245C71.2063 8.65724 71.2315 8.57538 71.2315 8.57538C71.2567 8.57538 71.2882 8.55019 71.2882 8.5187H71.2063V8.43684H71.2882V8.05272H71.3449V7.889H71.4016V7.33486H71.5149V7.22151H71.5716C71.5149 7.13965 71.5149 7.05778 71.5149 7.00111H71.5716V6.74923H71.6283V6.49734H71.6849V6.08174H71.7668V5.9432H71.8235V5.27571H71.8801V5.16237H71.9368V4.80343L72.132 4.69008V3.91554H72.2139V3.5818H72.2957V3.16619H72.3524V3.05285H72.4091V2.66872H72.4909V2.55538H72.5476V2.00123L72.6862 1.94456V1.61082L73.0766 1.27707C73.0766 1.13854 73.1018 1.05667 73.1584 1H73.7378L73.763 1.05667C74.1786 1.50377 74.4304 1.74935 74.5375 1.83751V3.92184C74.4241 4.0037 74.3738 4.06038 74.3423 4.08557L74.3171 4.69638H74.2352V5.16866L74.1219 5.22534C74.1471 5.44573 74.1786 5.67243 74.1786 5.89283H74.1219L74.0652 6.14471H73.9834C74.0085 6.33992 74.0085 6.50364 74.0652 6.67366H73.9834V7.00741L73.87 7.08927V7.28448L73.7378 7.32856V8.19126L73.7944 8.24793C73.7944 8.3046 73.7944 8.32979 73.7378 8.32979C73.6811 8.49352 73.6244 8.60686 73.574 8.60686V9.21768H73.5174V9.43808H73.4607V10.0489L73.3222 10.1056V10.7731H73.2655V10.9683H73.2088V11.4154H73.1521V11.5791H73.0703V12.0766L72.9317 12.1332C72.9317 12.6874 72.8751 12.9644 72.7932 13.0211V13.6886L72.6799 13.7138V14.2427H72.598V14.3813H72.5413V14.8536L72.4028 14.9102V15.1621H72.3461V15.3258H72.2894V16.05H72.2076V16.1634H72.1257V16.4152C72.1005 16.4404 72.069 16.4404 72.0439 16.4971H71.9305C71.9305 16.749 71.9305 16.9127 71.8738 17.0261H71.8172V17.2213L71.6786 17.2779V17.6872C71.5968 17.6872 71.5653 17.7124 71.5653 17.7439L71.4016 18.1343H71.3449C71.2882 18.2981 71.1812 18.4114 71.0111 18.4114L70.6774 18.8018H70.5452V18.8018Z" fill="#F5DF70" stroke="#F5DF70" stroke-miterlimit="10" stroke-linecap="round" stroke-linejoin="round"/>
</svg>
