<svg width="247" height="206" viewBox="0 0 247 206" fill="none" xmlns="http://www.w3.org/2000/svg">
<path d="M62.314 204.214L1.12781 102.676L62.314 1.15723H184.706L245.892 102.676L184.706 204.214H62.314Z" fill="white"/>
<path d="M184.142 2.08798L244.764 102.676L184.142 203.264H62.8777L2.23591 102.676L62.8777 2.08798H184.142ZM185.269 0.225586H61.75L0 102.676L61.75 205.126H185.25L247 102.676L185.269 0.225586Z" fill="#3D3D3D"/>
<path d="M73.8229 185.124L24.1274 102.676L73.8229 20.2461H173.195L222.89 102.676L173.195 185.124H73.8229Z" fill="white"/>
<path d="M173.059 20.4685L222.618 102.675L173.059 184.899H73.9594L24.4 102.675L73.9594 20.4685H173.059M173.331 20.0029H73.6677L23.8361 102.675L73.6677 185.346H173.331L223.163 102.675L173.331 20.0029Z" fill="#3D3D3D"/>
<path d="M85.3143 166.069L47.1094 102.673L85.3143 39.2959H161.705L199.91 102.673L161.705 166.069H85.3143Z" fill="white"/>
<path d="M161.569 39.5403L199.638 102.694L161.569 165.829H85.4508L47.382 102.676L85.4508 39.5217H161.569M161.841 39.0747H85.1592L46.8182 102.676L85.1592 166.295H161.841L200.182 102.676L161.841 39.0747Z" fill="#3D3D3D"/>
<path d="M97.4852 145.864L71.4515 102.675L97.4852 59.5049H149.533L175.567 102.675L149.533 145.864H97.4852Z" fill="white"/>
<path d="M149.398 59.7273L175.295 102.674L149.398 145.64H97.6217L71.7241 102.674L97.6217 59.7273H149.398ZM149.67 59.2617H97.3301L71.1602 102.674L97.3301 146.087H149.67L175.84 102.674L149.67 59.2617Z" fill="#3D3D3D"/>
<g opacity="0.58">
<path d="M143.642 70.3107L89.2027 46.0996L77.5371 101.971L97.3298 146.11L172.806 185.779L203.915 101.971L143.642 70.3107Z" fill="#00C0E2"/>
</g>
</svg>
