<svg width="295" height="108" viewBox="0 0 295 108" fill="none" xmlns="http://www.w3.org/2000/svg">
<path d="M7.65663 94.4987C6.74154 94.5461 6.43388 94.1906 6.43388 93.3217L6 63.5476C6 62.6786 6.30766 62.3705 7.22275 62.3705L26.2266 61.936C27.1417 61.936 27.4888 62.2441 27.4494 63.1131L26.5343 92.8793C26.4869 93.7483 26.2266 94.0169 25.3115 94.0563L7.65663 94.4987ZM11.8376 89.3481L21.1226 89.1269L21.8168 67.0867L11.53 67.3474L11.8376 89.3481ZM37.6021 80.4451V92.0103C37.6021 92.8793 37.2944 93.1874 36.3794 93.1874H33.3264C32.4113 93.1874 32.1037 92.8793 32.1037 92.0103V63.99C32.1037 63.121 32.4113 62.8129 33.3264 62.8129H36.3794C37.2944 62.8129 37.6021 63.121 37.6021 63.99V75.3814L40.868 75.2471C41.6963 75.1997 41.9567 75.4683 41.9567 76.3846V79.1811C41.9567 80.0975 41.6963 80.2713 40.868 80.3187L37.6021 80.4451Z" fill="#191919" stroke="white" stroke-width="11" stroke-miterlimit="10"/>
<path d="M46.7527 63.5476C46.7527 62.6786 47.0604 62.3705 47.9754 62.3705L74.3473 61.936C75.2624 61.936 75.6095 62.2441 75.5701 63.1131L74.0476 84.632L75.1835 84.5846C76.0119 84.5846 76.2722 84.8058 76.2722 85.7221V88.4317C76.2722 89.435 75.9645 89.6562 75.223 89.6562L64.021 89.83V98.1247C64.021 98.9937 63.7134 99.3018 62.7983 99.3018H59.7454C58.8303 99.3018 58.5226 98.9937 58.5226 98.1247V89.9169L47.3207 90.0907C46.5791 90.0907 46.2715 89.8695 46.2715 88.8662V86.1566C46.2715 85.2403 46.5318 85.0191 47.3601 85.0191L68.5413 84.711L68.9751 78.5966L48.7091 78.9442C47.794 78.9442 47.4863 78.6361 47.4863 77.7671V75.0733C47.4863 74.2043 47.794 73.8962 48.7091 73.8962L69.3222 73.5486L69.7561 67.0867L47.9597 67.4342C47.0446 67.4342 46.7369 67.1262 46.7369 66.2572V63.5476H46.7527Z" fill="#191919" stroke="white" stroke-width="11" stroke-miterlimit="10"/>
<path d="M105.358 80.9743C106.068 80.9743 106.289 81.1639 106.289 81.946V83.8893C106.289 84.7504 106.029 84.9321 105.398 84.9321L82.284 85.3034C81.6529 85.3034 81.3926 85.1138 81.3926 84.2606V82.3173C81.3926 81.5352 81.6135 81.3456 82.3234 81.3456L105.358 80.9743ZM83.3963 79.5919C82.7652 79.5919 82.5364 79.4023 82.5049 78.5491L82.284 72.5374C82.2446 71.7553 82.5049 71.6053 83.2149 71.5658L101.217 70.8153L101.288 69.5118L82.426 69.812C81.7949 69.812 81.5346 69.6224 81.5346 68.7692V67.0866C81.5346 66.3045 81.7555 66.1149 82.4654 66.1149L105.209 65.7437C105.919 65.7437 106.179 65.9332 106.139 66.7153L105.8 72.7665C105.761 73.6276 105.54 73.7777 104.909 73.8093L87.0488 74.5914L87.0882 75.8237L104.309 75.5235C105.019 75.5235 105.24 75.7131 105.24 76.4952V78.1778C105.24 79.0389 104.98 79.2206 104.349 79.2206L83.3963 79.5919ZM84.1063 100.463C83.4752 100.463 83.2464 100.273 83.2149 99.4202L82.994 93.4085C82.9545 92.6264 83.2149 92.4764 83.9248 92.4369L100.554 91.6864L100.625 90.3829L83.1439 90.6831C82.5128 90.6831 82.2524 90.4935 82.2524 89.6404V87.9577C82.2524 87.1756 82.4733 86.986 83.1833 86.986L104.546 86.6148C105.256 86.6148 105.516 86.8043 105.477 87.5864L105.138 93.6376C105.098 94.4987 104.877 94.6488 104.246 94.6804L87.7666 95.423L87.8061 96.6948L103.647 96.3946C104.357 96.3946 104.577 96.5842 104.577 97.3663V99.0489C104.577 99.91 104.317 100.092 103.686 100.092L84.1063 100.463Z" fill="#191919" stroke="white" stroke-width="11" stroke-miterlimit="10"/>
<path d="M121.42 63.5476C121.42 62.6786 121.728 62.3705 122.643 62.3705L142.956 61.936C143.871 61.936 144.305 62.2441 144.179 63.1131L140.645 92.8793C140.511 93.7483 140.211 94.0563 139.296 94.0563H136.243C135.328 94.0563 135.02 93.7483 135.154 92.8793L138.207 67.1262L122.651 67.4342C121.735 67.4342 121.428 67.1262 121.428 66.2572V63.5476H121.42ZM149.709 63.99C149.709 63.121 150.016 62.8129 150.932 62.8129H153.984C154.9 62.8129 155.207 63.121 155.207 63.99V92.0103C155.207 92.8793 154.9 93.1874 153.984 93.1874H150.932C150.016 93.1874 149.709 92.8793 149.709 92.0103V63.99Z" fill="#191919" stroke="white" stroke-width="11" stroke-miterlimit="10"/>
<path d="M160.082 72.4588C160.082 65.9099 164.744 61.0674 172.459 61.0674C179.039 61.0674 183.401 64.646 184.576 69.7571L190.895 69.6228V63.1213C190.895 62.2444 191.203 61.9443 192.118 61.9443H195.171C196.086 61.9443 196.394 62.2523 196.394 63.1213V81.978C196.394 82.8469 196.086 83.155 195.171 83.155H192.118C191.203 83.155 190.895 82.8469 190.895 81.978V74.6786L184.663 74.8129C183.614 80.0978 179.259 83.8028 172.459 83.8028C164.744 83.8028 160.082 78.9603 160.082 72.4588ZM179.394 72.4588C179.394 68.7933 176.995 66.1311 172.459 66.1311C168.057 66.1311 165.573 68.8407 165.573 72.4588C165.573 75.9979 168.057 78.747 172.459 78.747C176.948 78.7391 179.394 75.99 179.394 72.4588ZM190.201 101.656C189.286 101.656 188.939 101.348 188.978 100.479L189.239 91.0548L170.669 91.4024C169.84 91.4024 169.58 91.1812 169.58 90.2648V87.4683C169.58 86.5519 169.84 86.3307 170.669 86.3307L193.767 85.8962C194.595 85.8962 194.903 86.1174 194.855 87.0338L194.461 100.479C194.414 101.348 194.153 101.656 193.238 101.656H190.201Z" fill="#191919" stroke="white" stroke-width="11" stroke-miterlimit="10"/>
<path d="M209.646 63.3344V60.7591C209.646 59.8901 209.954 59.582 210.869 59.582H213.922C214.837 59.582 215.145 59.8901 215.145 60.7591V63.2001L222.86 63.0263C223.688 63.0263 223.949 63.2475 223.949 64.1639V66.8735C223.949 67.8768 223.641 68.0979 222.899 68.0979L201.805 68.5324C201.064 68.5324 200.756 68.3112 200.756 67.308V64.5984C200.756 63.682 201.016 63.4608 201.844 63.4608L209.646 63.3344ZM201.797 81.6223C201.797 75.3815 206.025 71.1472 212.826 71.1472C219.626 71.1472 223.854 75.3815 223.854 81.6223C223.854 87.9105 219.626 92.0578 212.826 92.0578C206.025 92.0578 201.797 87.9026 201.797 81.6223ZM218.49 81.6223C218.49 78.3518 216.352 76.1241 212.826 76.1241C209.299 76.1241 207.161 78.3518 207.161 81.6223C207.161 84.8059 209.213 87.081 212.826 87.081C216.352 87.0731 218.49 84.8059 218.49 81.6223ZM233.226 80.4452V92.0104C233.226 92.8794 232.918 93.1875 232.003 93.1875H228.95C228.035 93.1875 227.727 92.8794 227.727 92.0104V63.9901C227.727 63.1211 228.035 62.813 228.95 62.813H232.003C232.918 62.813 233.226 63.1211 233.226 63.9901V75.3815L236.492 75.2472C237.32 75.1998 237.58 75.4684 237.58 76.3848V79.1813C237.58 80.0976 237.32 80.2714 236.492 80.3188L233.226 80.4452Z" fill="#191919" stroke="white" stroke-width="11" stroke-miterlimit="10"/>
<path d="M262.95 61.936C263.779 61.936 264.039 62.1572 264.039 63.0736V65.7832C264.039 66.7865 263.731 67.0077 262.99 67.0077L255.669 67.1815V77.3484C255.669 78.3991 255.717 78.7862 256.363 79.6156L264.339 90.225C264.733 90.7464 264.686 91.1887 264.165 91.5758L261.42 93.6298C260.852 94.1116 260.592 94.0643 260.111 93.4955L252.916 83.9842L245.595 94.0643C245.201 94.633 244.854 94.6725 244.286 94.1985L241.541 92.1446C241.059 91.7496 240.973 91.3151 241.367 90.7938L249.477 79.6235C250.045 78.7941 250.171 78.3991 250.171 77.3563V67.3079L242.763 67.4421C242.022 67.4421 241.714 67.221 241.714 66.2177V63.5081C241.714 62.5917 241.974 62.3705 242.803 62.3705L262.95 61.936ZM273.545 80.4451V92.0103C273.545 92.8793 273.237 93.1874 272.322 93.1874H269.269C268.354 93.1874 268.047 92.8793 268.047 92.0103V63.99C268.047 63.121 268.354 62.8129 269.269 62.8129H272.322C273.237 62.8129 273.545 63.121 273.545 63.99V75.3814L276.811 75.2471C277.639 75.1997 277.9 75.4683 277.9 76.3847V79.1812C277.9 80.0975 277.639 80.2713 276.811 80.3187L273.545 80.4451Z" fill="#191919" stroke="white" stroke-width="11" stroke-miterlimit="10"/>
<path d="M286.317 89.9565C288.021 89.9565 289.322 91.1335 289.322 92.8399C289.322 94.5462 288.013 95.6759 286.317 95.6759C284.526 95.6759 283.264 94.5383 283.264 92.8399C283.264 91.1414 284.526 89.9565 286.317 89.9565ZM283.658 63.287C283.658 62.3706 283.918 62.0625 284.92 62.0625H287.886C288.888 62.0625 289.149 62.3706 289.149 63.287V85.3746C289.149 86.291 288.888 86.5991 287.886 86.5991H284.92C283.918 86.5991 283.658 86.291 283.658 85.3746V63.287Z" fill="#191919" stroke="white" stroke-width="11" stroke-miterlimit="10"/>
<path d="M7.65663 94.4987C6.74154 94.5461 6.43388 94.1906 6.43388 93.3217L6 63.5476C6 62.6786 6.30766 62.3705 7.22275 62.3705L26.2266 61.936C27.1417 61.936 27.4888 62.2441 27.4494 63.1131L26.5343 92.8793C26.4869 93.7483 26.2266 94.0169 25.3115 94.0563L7.65663 94.4987ZM11.8376 89.3481L21.1226 89.1269L21.8168 67.0867L11.53 67.3474L11.8376 89.3481ZM37.6021 80.4451V92.0103C37.6021 92.8793 37.2944 93.1874 36.3794 93.1874H33.3264C32.4113 93.1874 32.1037 92.8793 32.1037 92.0103V63.99C32.1037 63.121 32.4113 62.8129 33.3264 62.8129H36.3794C37.2944 62.8129 37.6021 63.121 37.6021 63.99V75.3814L40.868 75.2471C41.6963 75.1997 41.9567 75.4683 41.9567 76.3846V79.1811C41.9567 80.0975 41.6963 80.2713 40.868 80.3187L37.6021 80.4451Z" fill="#FF65BE"/>
<path d="M46.7527 63.5476C46.7527 62.6786 47.0604 62.3705 47.9754 62.3705L74.3473 61.936C75.2624 61.936 75.6095 62.2441 75.5701 63.1131L74.0476 84.632L75.1835 84.5846C76.0119 84.5846 76.2722 84.8058 76.2722 85.7221V88.4317C76.2722 89.435 75.9645 89.6562 75.223 89.6562L64.021 89.83V98.1247C64.021 98.9937 63.7134 99.3018 62.7983 99.3018H59.7454C58.8303 99.3018 58.5226 98.9937 58.5226 98.1247V89.9169L47.3207 90.0907C46.5791 90.0907 46.2715 89.8695 46.2715 88.8662V86.1566C46.2715 85.2403 46.5318 85.0191 47.3601 85.0191L68.5413 84.711L68.9751 78.5966L48.7091 78.9442C47.794 78.9442 47.4863 78.6361 47.4863 77.7671V75.0733C47.4863 74.2043 47.794 73.8962 48.7091 73.8962L69.3222 73.5486L69.7561 67.0867L47.9597 67.4342C47.0446 67.4342 46.7369 67.1262 46.7369 66.2572V63.5476H46.7527Z" fill="#FF65BE"/>
<path d="M105.358 80.9743C106.068 80.9743 106.289 81.1639 106.289 81.946V83.8893C106.289 84.7504 106.029 84.9321 105.398 84.9321L82.284 85.3034C81.6529 85.3034 81.3926 85.1138 81.3926 84.2606V82.3173C81.3926 81.5352 81.6135 81.3456 82.3234 81.3456L105.358 80.9743ZM83.3963 79.5919C82.7652 79.5919 82.5364 79.4023 82.5049 78.5491L82.284 72.5374C82.2446 71.7553 82.5049 71.6053 83.2149 71.5658L101.217 70.8153L101.288 69.5118L82.426 69.812C81.7949 69.812 81.5346 69.6224 81.5346 68.7692V67.0866C81.5346 66.3045 81.7555 66.1149 82.4654 66.1149L105.209 65.7437C105.919 65.7437 106.179 65.9332 106.139 66.7153L105.8 72.7665C105.761 73.6276 105.54 73.7777 104.909 73.8093L87.0488 74.5914L87.0882 75.8237L104.309 75.5235C105.019 75.5235 105.24 75.7131 105.24 76.4952V78.1778C105.24 79.0389 104.98 79.2206 104.349 79.2206L83.3963 79.5919ZM84.1063 100.463C83.4752 100.463 83.2464 100.273 83.2149 99.4202L82.994 93.4085C82.9545 92.6264 83.2149 92.4764 83.9248 92.4369L100.554 91.6864L100.625 90.3829L83.1439 90.6831C82.5128 90.6831 82.2524 90.4935 82.2524 89.6404V87.9577C82.2524 87.1756 82.4733 86.986 83.1833 86.986L104.546 86.6148C105.256 86.6148 105.516 86.8043 105.477 87.5864L105.138 93.6376C105.098 94.4987 104.877 94.6488 104.246 94.6804L87.7666 95.423L87.8061 96.6948L103.647 96.3946C104.357 96.3946 104.577 96.5842 104.577 97.3663V99.0489C104.577 99.91 104.317 100.092 103.686 100.092L84.1063 100.463Z" fill="#191919"/>
<path d="M121.42 63.5476C121.42 62.6786 121.728 62.3705 122.643 62.3705L142.956 61.936C143.871 61.936 144.305 62.2441 144.179 63.1131L140.645 92.8793C140.511 93.7483 140.211 94.0563 139.296 94.0563H136.243C135.328 94.0563 135.02 93.7483 135.154 92.8793L138.207 67.1262L122.651 67.4342C121.735 67.4342 121.428 67.1262 121.428 66.2572V63.5476H121.42ZM149.709 63.99C149.709 63.121 150.016 62.8129 150.932 62.8129H153.984C154.9 62.8129 155.207 63.121 155.207 63.99V92.0103C155.207 92.8793 154.9 93.1874 153.984 93.1874H150.932C150.016 93.1874 149.709 92.8793 149.709 92.0103V63.99Z" fill="#FF65BE"/>
<path d="M160.082 72.4588C160.082 65.9099 164.744 61.0674 172.459 61.0674C179.039 61.0674 183.401 64.646 184.576 69.7571L190.895 69.6228V63.1213C190.895 62.2444 191.203 61.9443 192.118 61.9443H195.171C196.086 61.9443 196.394 62.2523 196.394 63.1213V81.978C196.394 82.8469 196.086 83.155 195.171 83.155H192.118C191.203 83.155 190.895 82.8469 190.895 81.978V74.6786L184.663 74.8129C183.614 80.0978 179.259 83.8028 172.459 83.8028C164.744 83.8028 160.082 78.9603 160.082 72.4588ZM179.394 72.4588C179.394 68.7933 176.995 66.1311 172.459 66.1311C168.057 66.1311 165.573 68.8407 165.573 72.4588C165.573 75.9979 168.057 78.747 172.459 78.747C176.948 78.7391 179.394 75.99 179.394 72.4588ZM190.201 101.656C189.286 101.656 188.939 101.348 188.978 100.479L189.239 91.0548L170.669 91.4024C169.84 91.4024 169.58 91.1812 169.58 90.2648V87.4683C169.58 86.5519 169.84 86.3307 170.669 86.3307L193.767 85.8962C194.595 85.8962 194.903 86.1174 194.855 87.0338L194.461 100.479C194.414 101.348 194.153 101.656 193.238 101.656H190.201Z" fill="#FF65BE"/>
<path d="M209.646 63.3344V60.7591C209.646 59.8901 209.954 59.582 210.869 59.582H213.922C214.837 59.582 215.145 59.8901 215.145 60.7591V63.2001L222.86 63.0263C223.688 63.0263 223.949 63.2475 223.949 64.1639V66.8735C223.949 67.8768 223.641 68.0979 222.899 68.0979L201.805 68.5324C201.064 68.5324 200.756 68.3112 200.756 67.308V64.5984C200.756 63.682 201.016 63.4608 201.844 63.4608L209.646 63.3344ZM201.797 81.6223C201.797 75.3815 206.025 71.1472 212.826 71.1472C219.626 71.1472 223.854 75.3815 223.854 81.6223C223.854 87.9105 219.626 92.0578 212.826 92.0578C206.025 92.0578 201.797 87.9026 201.797 81.6223ZM218.49 81.6223C218.49 78.3518 216.352 76.1241 212.826 76.1241C209.299 76.1241 207.161 78.3518 207.161 81.6223C207.161 84.8059 209.213 87.081 212.826 87.081C216.352 87.0731 218.49 84.8059 218.49 81.6223ZM233.226 80.4452V92.0104C233.226 92.8794 232.918 93.1875 232.003 93.1875H228.95C228.035 93.1875 227.727 92.8794 227.727 92.0104V63.9901C227.727 63.1211 228.035 62.813 228.95 62.813H232.003C232.918 62.813 233.226 63.1211 233.226 63.9901V75.3815L236.492 75.2472C237.32 75.1998 237.58 75.4684 237.58 76.3848V79.1813C237.58 80.0976 237.32 80.2714 236.492 80.3188L233.226 80.4452Z" fill="#FF65BE"/>
<path d="M262.95 61.936C263.779 61.936 264.039 62.1572 264.039 63.0736V65.7832C264.039 66.7865 263.731 67.0077 262.99 67.0077L255.669 67.1815V77.3484C255.669 78.3991 255.717 78.7862 256.363 79.6156L264.339 90.225C264.733 90.7464 264.686 91.1887 264.165 91.5758L261.42 93.6298C260.852 94.1116 260.592 94.0643 260.111 93.4955L252.916 83.9842L245.595 94.0643C245.201 94.633 244.854 94.6725 244.286 94.1985L241.541 92.1446C241.059 91.7496 240.973 91.3151 241.367 90.7938L249.477 79.6235C250.045 78.7941 250.171 78.3991 250.171 77.3563V67.3079L242.763 67.4421C242.022 67.4421 241.714 67.221 241.714 66.2177V63.5081C241.714 62.5917 241.974 62.3705 242.803 62.3705L262.95 61.936ZM273.545 80.4451V92.0103C273.545 92.8793 273.237 93.1874 272.322 93.1874H269.269C268.354 93.1874 268.047 92.8793 268.047 92.0103V63.99C268.047 63.121 268.354 62.8129 269.269 62.8129H272.322C273.237 62.8129 273.545 63.121 273.545 63.99V75.3814L276.811 75.2471C277.639 75.1997 277.9 75.4683 277.9 76.3847V79.1812C277.9 80.0975 277.639 80.2713 276.811 80.3187L273.545 80.4451Z" fill="#FF65BE"/>
<path d="M286.317 89.9565C288.021 89.9565 289.322 91.1335 289.322 92.8399C289.322 94.5462 288.013 95.6759 286.317 95.6759C284.526 95.6759 283.264 94.5383 283.264 92.8399C283.264 91.1414 284.526 89.9565 286.317 89.9565ZM283.658 63.287C283.658 62.3706 283.918 62.0625 284.92 62.0625H287.886C288.888 62.0625 289.149 62.3706 289.149 63.287V85.3746C289.149 86.291 288.888 86.5991 287.886 86.5991H284.92C283.918 86.5991 283.658 86.291 283.658 85.3746V63.287Z" fill="#FF65BE"/>
<path d="M99.7352 33.189C99.6958 34.2713 99.5143 34.5715 98.5046 34.6821C96.3036 34.9428 93.9922 35.1324 91.4994 35.0929C84.3049 34.9823 77 30.6137 77 20.5336C77 10.5326 85.6855 5.86384 94.86 6.75651C95.7514 6.8671 95.9013 7.0172 95.9013 7.76767L95.8619 10.2719C95.8619 11.054 95.5621 11.133 94.8521 11.0935C86.9082 10.7933 81.7332 14.3798 81.7332 21.1735C81.7332 27.8567 86.8372 31.2536 94.5918 30.4715L95.3728 30.4004L95.5227 24.3492H90.1583C89.3774 24.3492 89.117 24.128 89.117 23.3381V20.9839C89.117 20.2019 89.3774 20.0123 90.1583 20.0123H99.0331C99.8141 20.0123 100.153 20.2019 100.114 20.9839L99.7352 33.189Z" fill="#3A3A3A" stroke="white" stroke-width="11" stroke-miterlimit="10" stroke-linecap="round" stroke-linejoin="round"/>
<path d="M102.86 34.7217C101.818 34.3109 101.59 34.1213 102 32.968L110.015 8.43929C110.496 6.94624 110.835 6.68555 112.137 6.68555H115.829C117.13 6.68555 117.469 6.94624 117.951 8.43929L126.005 32.968C126.415 34.2003 126.155 34.3109 125.145 34.7217L123.315 35.3932C122.384 35.7329 122.124 35.5038 121.785 34.5005L119.734 28.4177H108.216L106.204 34.5005C105.905 35.3616 105.605 35.7329 104.674 35.3932L102.86 34.7217ZM113.975 11.2753L109.691 24.0808H118.306L113.975 11.2753Z" fill="#3A3A3A" stroke="white" stroke-width="11" stroke-miterlimit="10" stroke-linecap="round" stroke-linejoin="round"/>
<path d="M132.868 34.4922C132.757 35.2032 132.647 35.3533 131.937 35.2427L128.995 34.9425C128.363 34.8319 128.174 34.6818 128.285 33.8207L131.077 7.9491C131.188 6.78784 131.377 6.67725 132.568 6.67725H135.479C136.489 6.67725 136.56 6.86684 136.931 8.1308L142.973 27.5799L149.016 8.1387C149.387 6.86684 149.466 6.68515 150.468 6.68515H153.378C154.57 6.68515 154.759 6.79574 154.869 7.957L157.662 33.8286C157.773 34.6897 157.591 34.8398 156.952 34.9504L154.01 35.2506C153.3 35.3612 153.189 35.2111 153.079 34.5001L151.067 15.3512L145.253 34.0893C144.993 34.982 144.843 35.1005 143.833 35.1005H142.121C141.112 35.1005 140.97 34.9899 140.701 34.0893L134.809 15.1616L132.868 34.4922Z" fill="#3A3A3A" stroke="white" stroke-width="11" stroke-miterlimit="10" stroke-linecap="round" stroke-linejoin="round"/>
<path d="M162.655 35.093C161.874 35.093 161.614 34.9034 161.614 34.1213L161.243 7.65721C161.243 6.87514 161.543 6.68555 162.324 6.68555H178.283C179.064 6.68555 179.363 6.87514 179.363 7.65721V10.0113C179.363 10.7934 179.064 11.0225 178.283 11.0225H165.945L166.016 18.5272H176.902C177.683 18.5272 177.983 18.7168 177.983 19.4989V21.853C177.983 22.6351 177.683 22.8642 176.902 22.8642H166.095L166.205 30.7797H177.052C177.833 30.7797 178.093 31.0009 178.093 31.7909V34.145C178.093 34.9271 177.833 35.1167 177.052 35.1167H162.655V35.093Z" fill="#3A3A3A" stroke="white" stroke-width="11" stroke-miterlimit="10" stroke-linecap="round" stroke-linejoin="round"/>
<path d="M194.155 31.6959C194.155 31.3957 194.345 30.8348 194.676 30.503C197.768 27.7065 206.272 20.7942 206.272 15.9833C206.272 12.5074 204.261 10.9038 200.829 10.9038C198.108 10.9038 195.575 12.065 194.266 12.7681C193.524 13.2184 193.224 13.2184 192.964 12.3573L192.294 10.3034C192.033 9.41071 192.144 9.15002 192.854 8.73923C194.944 7.54638 197.287 6.35352 201.5 6.35352C206.162 6.35352 210.966 8.62864 210.966 15.3513C210.966 21.1734 205.602 26.4741 200.679 30.8032H209.254C210.035 30.8032 210.296 30.9928 210.296 31.7749V34.129C210.296 34.9111 210.035 35.1006 209.254 35.1006H195.197C194.416 35.1006 194.155 34.9111 194.155 34.129V31.6959V31.6959Z" fill="#3A3A3A" stroke="white" stroke-width="11" stroke-miterlimit="10" stroke-linecap="round" stroke-linejoin="round"/>
<path d="M213.577 33.1099C213.577 31.4667 214.847 30.2344 216.599 30.2344C218.279 30.2344 219.58 31.4667 219.58 33.1099C219.58 34.753 218.279 35.9854 216.599 35.9854C214.847 35.9854 213.577 34.753 213.577 33.1099Z" fill="#3A3A3A" stroke="white" stroke-width="11" stroke-miterlimit="10" stroke-linecap="round" stroke-linejoin="round"/>
<path d="M99.7352 33.189C99.6958 34.2713 99.5143 34.5715 98.5046 34.6821C96.3036 34.9428 93.9922 35.1324 91.4994 35.0929C84.3049 34.9823 77 30.6137 77 20.5336C77 10.5326 85.6855 5.86384 94.86 6.75651C95.7514 6.8671 95.9013 7.0172 95.9013 7.76767L95.8619 10.2719C95.8619 11.054 95.5621 11.133 94.8521 11.0935C86.9082 10.7933 81.7332 14.3798 81.7332 21.1735C81.7332 27.8567 86.8372 31.2536 94.5918 30.4715L95.3728 30.4004L95.5227 24.3492H90.1583C89.3774 24.3492 89.117 24.128 89.117 23.3381V20.9839C89.117 20.2019 89.3774 20.0123 90.1583 20.0123H99.0331C99.8141 20.0123 100.153 20.2019 100.114 20.9839L99.7352 33.189Z" fill="#4CBCAF"/>
<path d="M102.86 34.7217C101.818 34.3109 101.59 34.1213 102 32.968L110.015 8.43929C110.496 6.94624 110.835 6.68555 112.137 6.68555H115.829C117.13 6.68555 117.469 6.94624 117.951 8.43929L126.005 32.968C126.415 34.2003 126.155 34.3109 125.145 34.7217L123.315 35.3932C122.384 35.7329 122.124 35.5038 121.785 34.5005L119.734 28.4177H108.216L106.204 34.5005C105.905 35.3616 105.605 35.7329 104.674 35.3932L102.86 34.7217ZM113.975 11.2753L109.691 24.0808H118.306L113.975 11.2753Z" fill="#4CBCAF"/>
<path d="M132.868 34.4922C132.757 35.2032 132.647 35.3533 131.937 35.2427L128.995 34.9425C128.363 34.8319 128.174 34.6818 128.285 33.8207L131.077 7.9491C131.188 6.78784 131.377 6.67725 132.568 6.67725H135.479C136.489 6.67725 136.56 6.86684 136.931 8.1308L142.973 27.5799L149.016 8.1387C149.387 6.86684 149.466 6.68515 150.468 6.68515H153.378C154.57 6.68515 154.759 6.79574 154.869 7.957L157.662 33.8286C157.773 34.6897 157.591 34.8398 156.952 34.9504L154.01 35.2506C153.3 35.3612 153.189 35.2111 153.079 34.5001L151.067 15.3512L145.253 34.0893C144.993 34.982 144.843 35.1005 143.833 35.1005H142.121C141.112 35.1005 140.97 34.9899 140.701 34.0893L134.809 15.1616L132.868 34.4922Z" fill="#4CBCAF"/>
<path d="M162.655 35.093C161.874 35.093 161.614 34.9034 161.614 34.1213L161.243 7.65721C161.243 6.87514 161.543 6.68555 162.324 6.68555H178.283C179.064 6.68555 179.363 6.87514 179.363 7.65721V10.0113C179.363 10.7934 179.064 11.0225 178.283 11.0225H165.945L166.016 18.5272H176.902C177.683 18.5272 177.983 18.7168 177.983 19.4989V21.853C177.983 22.6351 177.683 22.8642 176.902 22.8642H166.095L166.205 30.7797H177.052C177.833 30.7797 178.093 31.0009 178.093 31.7909V34.145C178.093 34.9271 177.833 35.1167 177.052 35.1167H162.655V35.093Z" fill="#4CBCAF"/>
<path d="M194.155 31.6959C194.155 31.3957 194.345 30.8348 194.676 30.503C197.768 27.7065 206.272 20.7942 206.272 15.9833C206.272 12.5074 204.261 10.9038 200.829 10.9038C198.108 10.9038 195.575 12.065 194.266 12.7681C193.524 13.2184 193.224 13.2184 192.964 12.3573L192.294 10.3034C192.033 9.41071 192.144 9.15002 192.854 8.73923C194.944 7.54638 197.287 6.35352 201.5 6.35352C206.162 6.35352 210.966 8.62864 210.966 15.3513C210.966 21.1734 205.602 26.4741 200.679 30.8032H209.254C210.035 30.8032 210.296 30.9928 210.296 31.7749V34.129C210.296 34.9111 210.035 35.1006 209.254 35.1006H195.197C194.416 35.1006 194.155 34.9111 194.155 34.129V31.6959V31.6959Z" fill="#4CBCAF"/>
<path d="M213.577 33.1099C213.577 31.4667 214.847 30.2344 216.599 30.2344C218.279 30.2344 219.58 31.4667 219.58 33.1099C219.58 34.753 218.279 35.9854 216.599 35.9854C214.847 35.9854 213.577 34.753 213.577 33.1099Z" fill="#4CBCAF"/>
</svg>
