<svg width="304" height="138" viewBox="0 0 304 138" fill="none" xmlns="http://www.w3.org/2000/svg">
<path d="M33.9044 48.7965C34.1241 48.4034 34.2523 47.9935 34.3169 47.5841C34.3677 47.6281 34.4201 47.671 34.4742 47.7128C35.4606 48.474 36.6238 48.5528 37.6446 48.336C37.645 48.3359 37.6454 48.3358 37.6458 48.3357L43.4946 47.096L43.4958 47.0957C44.5158 46.8789 45.5443 46.3356 46.1385 45.2452C46.6952 44.2237 46.6606 43.0958 46.4558 42.1422C46.4556 42.141 46.4553 42.1398 46.4551 42.1386L44.8651 34.636L45.251 34.5382L45.2575 34.5366C46.0639 34.3294 46.9386 33.9138 47.5335 33.0943C48.1633 32.2265 48.2488 31.228 48.0686 30.3549L48.0664 30.3447L46.8264 24.4947L46.8264 24.4947L46.8235 24.4815C46.6357 23.6241 46.1777 22.664 45.1788 22.1024C44.2192 21.5628 43.1893 21.6367 42.3939 21.8419C42.3919 21.8424 42.3899 21.843 42.3879 21.8435L42.1641 21.9002L40.6584 14.8143C40.658 14.8123 40.6576 14.8104 40.6572 14.8085C40.459 13.8544 40.0365 12.8069 39.1155 12.0961C38.1291 11.3349 36.966 11.2562 35.9451 11.4729C35.945 11.473 35.9448 11.473 35.9446 11.4731C35.9444 11.4731 35.9442 11.4731 35.944 11.4732L30.0951 12.7129L30.0908 12.7139C29.2736 12.889 28.4532 13.2751 27.8557 13.9832C27.7298 13.8516 27.5916 13.7274 27.44 13.6124C26.4269 12.8438 25.2376 12.7971 24.2212 13.0451L5.92835 17.3834L5.91026 17.3877L5.89226 17.3924C5.08579 17.5995 4.21112 18.0151 3.61626 18.8347C2.98641 19.7025 2.90089 20.7009 3.0812 21.574L3.08533 21.594L3.08988 21.614L9.85619 51.2978C10.0594 52.2577 10.4775 53.3314 11.4159 54.0458C12.4394 54.825 13.6285 54.846 14.6212 54.6031C14.6234 54.6026 14.6255 54.6021 14.6277 54.6015L31.346 50.5944L31.3537 50.5925L31.3613 50.5907C32.2674 50.3659 33.2972 49.8828 33.9044 48.7965ZM18.0507 27.9817L19.8572 37.5183L17.7118 28.0678L18.0507 27.9817Z" fill="#2654A4" stroke="white" stroke-width="4"/>
<path d="M81.351 25.4648C81.7125 25.5597 82.0727 25.7162 82.4117 25.9582C83.2988 26.5912 83.6574 27.5306 83.756 28.3649L83.7574 28.3761L83.7573 28.3761L84.3461 33.6049C84.3463 33.607 84.3465 33.6091 84.3468 33.6112C84.4458 34.4594 84.3025 35.4602 83.5741 36.2758C82.8876 37.0446 81.9579 37.3331 81.1618 37.4252L73.7091 38.3904L74.2265 42.9492C74.2266 42.9501 74.2268 42.951 74.2269 42.9519C74.3251 43.8 74.3644 44.9723 73.7042 45.9727C72.9706 47.0843 71.7897 47.4023 70.8902 47.5066L70.8872 47.5069L64.7702 48.2066L81.351 25.4648ZM81.351 25.4648L80.5888 6.8722C80.5624 5.91966 80.3535 4.70965 79.4034 3.85101C78.4237 2.96572 77.1906 2.92986 76.2996 3.03317L76.2857 3.03478L76.2718 3.03659L49.0873 6.57456C48.2913 6.6668 47.362 6.95534 46.6756 7.72394C45.9469 8.54001 45.8038 9.54159 45.9032 10.3901L46.6028 16.5168L46.6036 16.5235C46.7007 17.349 47.0377 18.3448 47.9742 18.9972C48.1494 19.1193 48.3293 19.2177 48.5112 19.2962C47.9474 20.0691 47.8653 20.9679 47.9532 21.7199C47.9533 21.7211 47.9534 21.7223 47.9536 21.7235L48.6029 27.3973L48.6036 27.4035C48.6866 28.1094 48.9449 28.9358 49.6002 29.567C49.2944 29.7351 49.003 29.9558 48.7456 30.2439C48.0167 31.0602 47.8737 32.0619 47.9732 32.9105C47.9734 32.912 47.9736 32.9134 47.9737 32.9148L48.5729 38.1474L48.5737 38.1548C48.6724 38.9892 49.031 39.9285 49.9181 40.5615C50.7641 41.1653 51.742 41.2372 52.5428 41.1474L52.5585 41.1456L52.5742 41.1436L60.0013 40.1916L60.4918 44.5179C60.492 44.5192 60.4921 44.5205 60.4922 44.5218C60.5853 45.368 60.8081 46.5212 61.6761 47.3487C62.6423 48.2697 63.8672 48.3108 64.7672 48.2069L81.351 25.4648Z" fill="#2654A4" stroke="white" stroke-width="4"/>
<path d="M114.358 40.7604C114.213 41.29 113.934 41.8172 113.435 42.256C112.666 42.9334 111.713 43.0822 111.051 43.1255L111.029 43.127L111.006 43.1279L87.8961 44.1271C87.1323 44.1737 86.129 44.076 85.298 43.3855C84.4155 42.652 84.168 41.6252 84.1506 40.7846C84.1505 40.7826 84.1505 40.7806 84.1505 40.7786L84.0207 35.5191L84.0204 35.5086C84.0041 34.6637 84.2094 33.6355 85.0748 32.8737C85.8442 32.1962 86.7976 32.0474 87.4595 32.0041L87.4816 32.0026L87.5037 32.0017L91.0076 31.8502C89.8616 31.239 88.8222 30.4841 87.9045 29.6008C85.1256 26.9264 83.5923 23.2002 83.4907 19.0892M114.358 40.7604L98.4814 3.7304C93.8723 3.84206 90.0407 5.54135 87.3878 8.36378C84.7429 11.1777 83.389 14.981 83.4907 19.0892M114.358 40.7604C114.957 41.0367 115.607 41.1336 116.226 41.1193L116.227 41.1193L122.206 40.9793C122.206 40.9793 122.207 40.9793 122.207 40.9793C123.257 40.9549 124.369 40.6045 125.151 39.6391C125.883 38.7365 126.055 37.6222 126.029 36.6487C126.029 36.6476 126.029 36.6465 126.029 36.6454L125.35 8.70928C125.35 8.70766 125.35 8.70604 125.35 8.70443C125.329 7.73334 125.108 6.62656 124.335 5.75825C123.505 4.82731 122.377 4.53628 121.334 4.56034L121.333 4.56036L115.354 4.70034C115.354 4.70035 115.354 4.70035 115.353 4.70036C114.303 4.72474 113.191 5.0751 112.409 6.04054C111.677 6.9431 111.505 8.05745 111.531 9.03093C111.531 9.03202 111.531 9.03312 111.531 9.03421L111.551 9.87964C111.033 9.13931 110.443 8.44886 109.785 7.81707C106.987 5.13074 103.072 3.61876 98.4817 3.7304L114.358 40.7604ZM83.4907 19.0892L85.4901 19.0398L83.4907 19.0892ZM110.614 31.0025L107.839 31.1225C108.74 30.53 109.562 29.8432 110.296 29.0716C110.925 28.4099 111.483 27.6925 111.966 26.9283L112.069 31.1527C111.569 31.0038 111.064 30.9753 110.614 31.0025ZM101.131 18.6669L101.131 18.6678C101.15 19.4809 100.909 19.9768 100.626 20.27C100.34 20.565 99.8155 20.8556 98.8911 20.8804C98.0012 20.9 97.4764 20.6412 97.1799 20.3611C96.884 20.0815 96.6192 19.5955 96.5995 18.7828C96.5795 17.9332 96.8274 17.4214 97.109 17.126C97.3893 16.832 97.8962 16.5496 98.7857 16.5293L98.7857 16.5293L98.7923 16.5291C99.7174 16.505 100.25 16.7681 100.545 17.0469C100.84 17.325 101.111 17.8184 101.131 18.6669Z" fill="#2654A4" stroke="white" stroke-width="4"/>
<path d="M33.48 60.3708V60.3855L33.4802 60.4001L34.3002 116.2L34.3004 116.217L34.301 116.233C34.349 117.771 34.6071 119.364 35.5955 120.541C36.6892 121.845 38.247 122.169 39.7437 122.12C39.7448 122.12 39.7458 122.12 39.7469 122.12L66.4114 121.3L66.4213 121.3L66.4311 121.299C67.5449 121.254 68.8378 121.043 69.8487 120.201C70.9616 119.274 71.31 117.958 71.31 116.671V105.561C71.31 104.312 70.9655 102.996 69.9071 102.047C68.8763 101.124 67.5343 100.881 66.2692 100.932L66.268 100.932L56.3815 101.338L56.0267 75.5472L67.3338 75.1294L67.3411 75.1291C68.4549 75.0839 69.7478 74.8733 70.7587 74.0313C71.4095 73.4892 71.7988 72.8142 72.01 72.0896V113.551C72.01 115.145 72.3398 116.725 73.3596 117.926C74.4328 119.189 75.9563 119.671 77.55 119.671H86.52C88.1137 119.671 89.6372 119.189 90.7104 117.926C91.6908 116.772 92.0335 115.266 92.0585 113.735C92.1821 114.972 92.5573 116.151 93.3596 117.096C94.4328 118.359 95.9563 118.841 97.55 118.841H106.52C108.114 118.841 109.637 118.359 110.71 117.096C111.73 115.895 112.06 114.315 112.06 112.721V61.1908C112.06 59.597 111.73 58.016 110.71 56.8158C109.637 55.5526 108.114 55.0708 106.52 55.0708H97.55C95.9563 55.0708 94.4328 55.5526 93.3596 56.8158C92.3791 57.9697 92.0365 59.4756 92.0115 61.0064C91.8879 59.77 91.5127 58.5901 90.7104 57.6458C89.6372 56.3826 88.1137 55.9008 86.52 55.9008H77.55C75.9563 55.9008 74.4328 56.3826 73.3596 57.6458C72.7768 58.3317 72.4193 59.1421 72.22 60.008V58.9008C72.22 57.6499 71.8773 56.3312 70.8192 55.3805C69.7912 54.4569 68.4531 54.2129 67.1918 54.2619L38.5528 55.0816L38.5473 55.0817C37.11 55.1268 35.6035 55.4296 34.5775 56.6133C33.6 57.741 33.48 59.2098 33.48 60.3708Z" fill="#FFCC51" stroke="white" stroke-width="4"/>
<path d="M143.664 77.8529C142.783 77.0915 141.673 77.0047 140.871 77.0305L136.832 77.1367C136.787 76.1608 136.551 75.0841 135.742 74.263C134.81 73.3179 133.581 73.1797 132.7 73.1797H125.51C124.629 73.1797 123.4 73.3179 122.468 74.263C121.562 75.1823 121.374 76.4219 121.37 77.4817L117.138 77.55L117.12 77.5502L117.101 77.5509C116.279 77.579 115.034 77.72 114.138 78.7266C113.296 79.673 113.19 80.9226 113.19 81.8897V86.1597C113.19 87.1259 113.297 88.3814 114.115 89.3342C115.031 90.3996 116.313 90.5285 117.225 90.499L118.742 90.4657C116.075 92.4811 114.7 95.41 114.7 98.8697C114.7 102.377 116.11 105.339 118.845 107.359C119.834 108.089 120.97 108.677 122.234 109.127C122.22 109.139 122.205 109.151 122.191 109.163C121.299 109.948 121.01 111.022 121.01 112V118.46C121.01 119.432 121.282 120.534 122.191 121.334C123.061 122.099 124.149 122.262 125.056 122.229L140.974 121.771L140.852 124.778L140.851 124.79L140.851 124.802C140.818 125.935 141.044 127.159 141.874 128.116C142.741 129.115 143.947 129.46 145.09 129.46H152.07C153.221 129.46 154.394 129.095 155.24 128.103C156.026 127.182 156.276 126.011 156.309 124.927L156.779 112.385L156.779 112.375L156.779 112.366C156.811 111.243 156.6 110.017 155.791 109.058C156.251 108.843 156.68 108.533 157.047 108.103C157.854 107.157 158.08 105.955 158.08 104.86V100.067L158.864 100.038L158.867 100.038C159.797 100.002 160.809 99.7497 161.607 99.0296C162.448 98.271 162.77 97.2503 162.77 96.2697V89.2897C162.77 88.3173 162.498 87.2158 161.588 86.4155C160.716 85.6479 159.623 85.4863 158.714 85.5211C158.714 85.5211 158.713 85.5211 158.713 85.5212L158.08 85.5445V81.1097C158.08 80.0145 157.854 78.8119 157.047 77.8663C156.188 76.8595 154.99 76.5097 153.84 76.5097H146.86C145.715 76.5097 144.522 76.8564 143.664 77.8529ZM143.476 107.88L139.497 107.956C139.809 107.767 140.109 107.567 140.396 107.354C141.277 106.703 142.021 105.954 142.624 105.121C142.656 106.058 142.869 107.051 143.476 107.88ZM142.62 92.6152C142.017 91.7844 141.274 91.038 140.395 90.389C140.214 90.2559 140.029 90.1275 139.839 90.0038L140.964 89.9792L140.975 89.979L140.986 89.9786C141.442 89.9635 142.032 89.9163 142.62 89.7053V92.6152ZM129.632 99.2097V99.2097H129.62C129.032 99.2097 128.775 99.0771 128.717 99.0349C128.711 99.0132 128.7 98.9621 128.7 98.8697C128.7 98.7784 128.711 98.7287 128.717 98.7083C128.718 98.7078 128.719 98.7072 128.719 98.7065C128.779 98.6629 129.036 98.5297 129.62 98.5297C130.168 98.5297 130.435 98.6584 130.511 98.7132C130.517 98.7177 130.521 98.7211 130.524 98.7235C130.529 98.74 130.54 98.7846 130.54 98.8697C130.54 98.9609 130.528 99.0079 130.523 99.0246C130.52 99.0267 130.516 99.0297 130.511 99.0336C130.44 99.0855 130.177 99.2131 129.632 99.2097ZM130.528 98.7278C130.528 98.7278 130.528 98.7275 130.527 98.7267C130.528 98.7274 130.528 98.7277 130.528 98.7278ZM130.527 99.0206C130.527 99.0205 130.527 99.0208 130.526 99.0215C130.526 99.021 130.527 99.0207 130.527 99.0206Z" fill="#2654A4" stroke="white" stroke-width="4"/>
<path d="M221.18 104.14H221.159L221.139 104.14L207.29 104.428V103.993L219.13 103.77C220.577 103.767 222.105 103.441 223.187 102.174C224.188 101.003 224.446 99.4214 224.489 97.8779C224.489 97.8771 224.489 97.8763 224.489 97.8755L225.639 60.2611L225.639 60.2555C225.682 58.708 225.5 57.0663 224.457 55.8457C223.35 54.55 221.742 54.25 220.26 54.25H220.243L220.227 54.2503L171.182 55.07C169.865 55.0736 168.534 55.462 167.58 56.5625C166.671 57.6118 166.4 58.9749 166.4 60.28V60.2951L166.4 60.3102L166.98 98.6702L166.981 98.6864L166.981 98.7025C167.03 100.278 167.323 101.848 168.333 103.008C169.418 104.255 170.929 104.59 172.36 104.59H172.377L172.394 104.59L185.18 104.374V104.731L171.273 104.95C170.027 104.953 168.733 105.236 167.739 106.125C166.698 107.055 166.33 108.333 166.33 109.58V119.29C166.33 120.531 166.692 121.811 167.729 122.745C168.727 123.644 170.031 123.93 171.29 123.93H171.307L171.323 123.93L221.198 123.11C222.444 123.107 223.737 122.824 224.732 121.935C225.772 121.005 226.14 119.727 226.14 118.48V108.77C226.14 107.53 225.776 106.254 224.739 105.322C223.741 104.426 222.439 104.14 221.18 104.14ZM202.833 74.1071L202.655 84.0154L189.067 84.3332L188.953 74.4243L202.833 74.1071Z" fill="#FFCC51" stroke="white" stroke-width="4"/>
<path d="M274.153 73.2298L274.165 73.2295L274.177 73.2291C275.443 73.1867 277.003 72.9788 278.079 71.7444C278.635 71.1063 278.931 70.3367 279.084 69.5302H279.25V67.5302V60.7702C279.25 59.3099 279.099 57.6956 278.112 56.5227C277.014 55.2173 275.413 55.0269 274.062 55.0711L266.08 55.2698V54.6902C266.08 53.0906 265.798 51.4928 264.676 50.3555C263.54 49.2037 262.002 48.9902 260.7 48.9902H249.34C248.036 48.9902 246.495 49.2028 245.359 50.3571C244.238 51.4957 243.96 53.0948 243.96 54.6902V55.7713L235.719 55.9005L235.7 55.9008L235.681 55.9014C234.435 55.9446 232.902 56.16 231.825 57.3709C230.801 58.5216 230.62 60.1045 230.62 61.6002V68.3402C230.62 69.8431 230.805 71.4475 231.806 72.6122C232.904 73.8905 234.474 74.094 235.805 74.0495L242.696 73.9022C241.374 74.4797 240.169 75.1668 239.09 75.9637C235.085 78.92 233.01 83.2418 233.01 88.4402C233.01 93.6387 235.085 97.9605 239.09 100.917C241.89 102.984 245.533 104.312 249.874 104.904C249.316 105.166 248.81 105.543 248.393 106.074C247.488 107.23 247.367 108.686 247.411 109.912C247.411 109.912 247.411 109.912 247.411 109.912L248.151 130.662L248.152 130.673L248.152 130.685C248.211 131.933 248.581 133.277 249.612 134.287C250.662 135.315 252.08 135.689 253.585 135.64L292.662 134.82L292.68 134.819L292.698 134.819C294.12 134.763 295.49 134.395 296.518 133.425C297.568 132.436 297.945 131.122 297.998 129.855L297.999 129.842L298.739 109.092C298.739 109.092 298.739 109.092 298.739 109.092C298.796 107.502 298.288 106.004 297.114 104.941C296.681 104.549 296.193 104.249 295.671 104.03H296.18C297.774 104.03 299.297 103.548 300.371 102.285C301.39 101.085 301.72 99.504 301.72 97.9102V60.3702C301.72 58.7765 301.39 57.1955 300.371 55.9953C299.297 54.7321 297.774 54.2502 296.18 54.2502H285.15C283.556 54.2502 282.033 54.7321 280.96 55.9953C279.94 57.1955 279.61 58.7765 279.61 60.3702V75.1878L270.643 75.3122C269.415 74.5667 268.067 73.923 266.598 73.3913L274.153 73.2298ZM279.61 94.176V97.9102C279.61 99.504 279.94 101.085 280.96 102.285C281.585 103.021 282.363 103.492 283.218 103.756L264.76 104.129C270.713 102.509 274.923 99.1657 276.806 94.2118L279.61 94.176ZM255.428 90.1402H255.42C254.357 90.1402 253.676 89.902 253.314 89.6357C253.04 89.4337 252.81 89.127 252.81 88.4402C252.81 87.7535 253.04 87.4467 253.314 87.2448C253.676 86.9785 254.357 86.7402 255.42 86.7402C256.433 86.7402 257.123 86.9739 257.505 87.2516C257.803 87.4678 258.03 87.7817 258.03 88.4402C258.03 89.1035 257.801 89.4193 257.506 89.6347C257.128 89.9105 256.441 90.1442 255.428 90.1402ZM277.05 119.24V120.018L269.11 120.29V119.513L277.05 119.24Z" fill="#FFCC51" stroke="white" stroke-width="4"/>
</svg>
