<svg width="300" height="48" viewBox="0 0 300 48" fill="none" xmlns="http://www.w3.org/2000/svg">
<rect width="300" height="48" rx="24" fill="#31B3A3"/>
<path d="M138.301 33.9376C138.276 33.8557 138.219 33.8242 138.137 33.799C138.081 33.799 138.024 33.8242 137.942 33.8242C137.86 33.8494 137.747 33.8809 137.64 33.9061C137.501 33.9313 137.419 33.9313 137.331 33.9313C137.274 33.9313 137.218 33.9061 137.218 33.8179H136.11V33.7613H135.996C135.996 33.7361 135.801 33.7361 135.411 33.7361V33.6794H135.329V33.6227H134.995V33.5661H134.913V33.5094H134.693V33.4653H134.529V33.4086H134.277C134.22 33.3268 134.082 33.2449 133.861 33.2134L133.805 33.1001H133.635C133.61 33.0182 133.578 32.9867 133.496 32.9867V32.9301H133.389V32.8734H133.219C133.219 32.8482 133.194 32.8167 133.162 32.7915H132.974C132.948 32.7348 132.917 32.6782 132.892 32.653C132.867 32.6278 132.835 32.5963 132.81 32.5711C132.785 32.5459 132.785 32.5459 132.753 32.5459H132.665C132.64 32.5459 132.608 32.4893 132.608 32.4074C132.388 32.3507 132.249 32.2689 132.193 32.0988L131.972 32.0422C131.916 31.9288 131.834 31.8784 131.72 31.8218C131.607 31.7966 131.525 31.7084 131.5 31.5699H131.33C130.996 31.1795 130.833 30.9843 130.833 30.9591H130.776C130.751 30.8772 130.694 30.8205 130.663 30.7953V30.6316L130.499 30.575L130.304 30.0775H130.197L129.945 29.3281L129.831 29.2715V29.1329L129.718 29.0762V28.8558L129.554 28.7425V28.604H129.529V28.4402H129.472V28.3017H129.416V28.138H129.359C129.359 28.0561 129.334 27.9994 129.246 27.9743V27.7224H129.195V27.609H129.139V27.3571H129.082V27.1934H129.057V27.1367H129.082V26.7778H129.057V26.6141H129C129 26.1418 129.025 25.6695 129.057 25.1972H129.082L129.057 25.002H129.082V24.8887C129.139 24.8887 129.139 24.8635 129.164 24.832L129.082 24.5801H129.139V24.3031H129.195V24.2212H129.252V23.7489H129.309V23.5285C129.334 23.5285 129.365 23.5033 129.391 23.4467C129.391 23.3648 129.416 23.3333 129.472 23.3333V22.9996H129.529L129.554 22.6406L129.718 22.584L129.831 22.1117L129.945 22.055V21.9165H129.97V21.8031H130.027V21.6394L130.14 21.5827V21.4442L130.253 21.3875L130.367 21.0538H130.423C130.448 21.0286 130.448 20.9719 130.48 20.9152C130.48 20.89 130.505 20.8586 130.562 20.8586V20.7452H130.618V20.6319H130.675V20.4933L130.896 20.3296V20.1344C130.921 20.1092 130.952 20.0777 130.977 20.0777C131.003 19.9392 131.091 19.8258 131.198 19.744V19.6117C131.254 19.5866 131.336 19.5299 131.418 19.4732C131.5 19.4165 131.557 19.3095 131.557 19.1961C131.639 19.1143 131.72 19.0576 131.777 19.0324V18.9191H131.802L131.916 18.8057C131.916 18.8309 131.941 18.8624 131.972 18.8624V18.7239C132.054 18.6987 132.086 18.642 132.086 18.5601L132.249 18.4468V18.3334L132.558 18.1949V18.0816L132.753 17.9178C132.753 17.8612 132.81 17.8045 132.867 17.7793V17.7226H132.98C133.005 17.6408 133.062 17.6093 133.144 17.6093C133.169 17.5274 133.225 17.4707 133.282 17.4141C133.364 17.4141 133.421 17.3889 133.446 17.3007H133.559L133.641 17.137C133.723 17.137 133.78 17.1118 133.861 17.0803C133.887 17.0236 133.943 16.9985 134.025 16.9985C134.025 16.9418 134.082 16.9166 134.164 16.8851C134.189 16.8032 134.22 16.7466 134.22 16.7214C134.302 16.7214 134.359 16.6962 134.441 16.6647V16.608C134.579 16.608 134.636 16.5829 134.636 16.5262C134.749 16.501 134.856 16.4695 134.97 16.4695L134.995 16.3562C135.108 16.331 135.19 16.2995 135.272 16.2995V16.2428H135.385V16.1861C135.442 16.1861 135.499 16.1295 135.524 16.0728C135.719 16.0728 135.801 16.0728 135.826 16.0476C135.826 16.0224 135.826 16.0224 135.851 15.9909H135.99L136.047 15.8776H136.267L136.324 15.7642H136.626V15.7076H136.764V15.6509H137.098V15.6257H137.212V15.5816H138.131C138.188 15.5249 138.213 15.4998 138.269 15.4998L138.295 15.5249V15.5816H139.126L139.182 15.6635H139.655L139.711 15.7768H140.02V15.8335H140.133V15.8902H140.354L140.379 16.0035C140.517 16.0035 140.631 16.0602 140.713 16.1987H140.851L140.908 16.3121C140.99 16.3121 141.021 16.3373 141.021 16.4254H141.135L141.298 16.6206H141.38C141.437 16.734 141.519 16.7844 141.601 16.7844V17.1433H141.657V17.3637C141.632 17.3637 141.632 17.3637 141.601 17.3889C141.575 17.4141 141.575 17.4141 141.575 17.4455H141.38L141.355 17.5022C141.355 17.6156 141.191 17.666 140.858 17.666V17.6093H140.662V17.5526H140.549V17.4959H140.385L140.36 17.4141H140.083V17.3574H139.97V17.3007H139.611L139.554 17.1874H138.251V17.244H137.999V17.3007H137.526L137.47 17.4141H137.249C137.249 17.4393 137.224 17.4393 137.167 17.4393V17.4959L136.695 17.6093V17.666C136.613 17.666 136.557 17.6911 136.531 17.7793C136.475 17.7793 136.393 17.8045 136.336 17.836V17.8926L135.946 17.9178C135.946 17.9997 135.889 18.0312 135.751 18.0312C135.694 18.1445 135.612 18.1949 135.53 18.1949V18.2516C135.505 18.2768 135.448 18.2768 135.392 18.2768C135.31 18.2768 135.253 18.3334 135.228 18.4405H135.008V18.4972H134.97V18.6609L134.579 18.7742C134.554 18.7994 134.523 18.8561 134.497 18.9128H134.384C134.359 18.9946 134.302 19.0261 134.22 19.0261V19.0828L134.057 19.1395C134.057 19.2213 134 19.3032 133.861 19.3347V19.448H133.748C133.723 19.5614 133.666 19.6432 133.61 19.6999C133.528 19.7818 133.471 19.8636 133.446 19.977C133.333 20.0022 133.282 20.0336 133.282 20.0903C133.282 20.1155 133.257 20.1722 133.225 20.2289H133.162C133.162 20.2855 133.162 20.3422 133.137 20.3674V20.4493C133.055 20.4493 132.999 20.4744 132.917 20.5059C132.722 20.8649 132.501 21.2301 132.281 21.589H132.136C132.136 21.8409 132.111 22.0361 132.023 22.1747H131.972V22.288H131.916C131.916 22.4013 131.859 22.4832 131.777 22.5399L131.72 22.817H131.664C131.639 22.9303 131.607 23.0374 131.607 23.1759L131.443 23.2892V23.5411C131.362 23.5978 131.305 23.6797 131.305 23.793C131.28 23.793 131.248 23.8182 131.248 23.8497C131.273 23.8497 131.305 23.9063 131.305 24.0134L131.192 24.0701V24.429H131.141V24.5424H131.084V25.0713H131.028V25.1532H130.971V26.9856H131.028V27.099H131.084V27.4579L131.198 27.5146V27.735H131.254C131.28 27.7916 131.28 27.8483 131.311 27.8987C131.311 27.9554 131.311 28.012 131.311 28.0939C131.424 28.0939 131.475 28.1758 131.475 28.2891C131.475 28.3143 131.5 28.3458 131.557 28.3458V28.5095L131.67 28.5662V28.7299H131.727V28.8118H131.783V29.0888C131.84 29.114 131.865 29.1707 131.865 29.2274H131.922V29.3407H131.979V29.4541H132.035V29.5674L132.199 29.6808C132.199 29.8445 132.256 29.9326 132.338 29.9326V30.046C132.419 30.046 132.451 30.1027 132.451 30.1845L132.615 30.2979V30.4616C132.64 30.4616 132.671 30.4868 132.671 30.5183H132.867V30.6001C133.005 30.6568 133.118 30.7135 133.169 30.7953C133.251 30.8772 133.307 30.9339 133.389 30.9339V30.9906H133.503V31.0472C133.584 31.0472 133.616 31.0472 133.616 31.0724H133.698V31.1291H133.811L133.924 31.2928L134.227 31.3495V31.4062L134.447 31.4628V31.488H134.586V31.5447H134.699V31.5762H134.976L135.001 31.6895H135.335V31.7462H135.417V31.8029H135.751V31.8595H135.864V31.9162H136.361V31.9414H136.475V31.9981H138.307V31.9414C138.389 31.9414 138.421 31.9414 138.421 31.9162H138.836V31.8595H138.949V31.8029H139.145V31.7462H139.258V31.6895H139.478L139.504 31.5762H139.724V31.5195H139.837V31.4628H140.058C140.114 31.3243 140.222 31.2676 140.36 31.2676L140.385 31.1543C140.687 30.9339 140.883 30.7953 140.914 30.682H141.078C141.135 30.4301 141.298 30.2349 141.55 30.0964C141.575 29.983 141.664 29.8445 141.827 29.6241C141.909 29.5674 141.966 29.5107 141.966 29.4289H142.022C142.022 29.3722 142.048 29.2652 142.136 29.1266H142.192V28.9629H142.218C142.218 28.881 142.243 28.8244 142.331 28.7992V28.604H142.388L142.444 28.3836H142.501V28.1884H142.558V28.0246H142.614V27.8294H142.671V27.6657H142.696V27.5524H142.753V27.4138H142.81V27.1934C142.835 27.1934 142.891 26.9163 142.973 26.3622H143.03V26.2489H143.087V26.0537H143.112V25.997H143.087V25.7766C142.891 25.7514 142.696 25.7199 142.451 25.7199V25.7766C142.369 25.7766 142.287 25.7514 142.199 25.7199L141.645 25.7451L140.87 25.7199C140.618 25.7199 140.423 25.7199 140.234 25.7451C140.07 25.7451 139.9 25.7703 139.762 25.7703C139.567 25.7703 139.371 25.7451 139.208 25.7136C138.956 25.7388 138.622 25.7703 138.263 25.7703V25.7199C138.238 25.7451 138.181 25.7766 138.125 25.7766C138.099 25.7514 138.099 25.7514 138.099 25.7199C138.074 25.6947 138.043 25.6947 138.018 25.6947C137.992 25.6695 137.936 25.638 137.854 25.6129C137.854 25.531 137.854 25.4995 137.829 25.4743C137.803 25.4743 137.772 25.4491 137.747 25.361H137.608C137.608 25.3358 137.583 25.3043 137.552 25.3043V25.0524H137.495L137.438 24.7753C137.495 24.7502 137.552 24.7187 137.577 24.6935C137.602 24.6683 137.659 24.6116 137.74 24.5801C137.766 24.4416 137.822 24.3597 137.904 24.3031V24.2464H138.156V24.2212H138.269V24.1645H138.603V24.1079H138.685V24.0512L139.214 23.9945L139.271 23.8812L139.63 23.9378V23.8812C139.686 23.8812 139.711 23.8812 139.711 23.8812C139.711 23.9063 139.711 23.9063 139.737 23.9378C140.486 23.9378 140.933 23.9378 141.072 23.9126C141.21 23.9126 141.38 23.9126 141.544 23.9126C141.796 23.9126 141.934 23.9378 141.991 23.9945C142.048 23.9945 142.13 23.9693 142.211 23.9378C142.293 23.9126 142.375 23.8812 142.463 23.8812V23.9378H142.577V23.9945H142.879V24.0512L142.992 23.9945C143.017 23.9945 143.049 24.0197 143.049 24.0512H143.244V24.1079H143.464V24.1645H143.578V24.2212C143.635 24.2212 143.691 24.2464 143.716 24.3031C143.83 24.3283 143.912 24.3597 143.993 24.3597L144.189 24.6368C144.327 24.6368 144.441 24.7187 144.548 24.8887H144.604C144.604 24.9706 144.629 25.0272 144.718 25.0524V25.3547C144.774 25.3547 144.799 25.3799 144.831 25.4113V26.2992L144.718 26.3559V27.3571H144.661V27.439H144.604C144.604 27.7476 144.579 27.9113 144.491 27.9113V28.3017L144.409 28.3269V28.604L144.296 28.6606V28.9125L144.182 28.9692V29.2211H144.126V29.3344H144.05V29.6115L143.968 29.6682V29.8067L143.855 29.8634V30.0271C143.798 30.0523 143.742 30.109 143.742 30.1656H143.685V30.279H143.628C143.628 30.3923 143.572 30.4994 143.464 30.5875C143.439 30.6694 143.408 30.7261 143.326 30.7513V30.915C143.269 30.9402 143.213 30.9969 143.213 31.0535C143.131 31.1102 143.074 31.1921 143.017 31.2487C142.961 31.3054 142.904 31.3621 142.797 31.3873V31.4691H142.74C142.684 31.6643 142.602 31.7777 142.488 31.8029C142.463 31.8281 142.463 31.8595 142.463 31.8595C142.463 31.8847 142.463 31.8847 142.438 31.8847C142.413 31.9099 142.356 31.9099 142.325 31.9414C142.325 31.9666 142.3 31.9981 142.268 31.9981V32.1114H142.211L142.016 32.3885H141.903C141.878 32.527 141.764 32.6656 141.594 32.7474C141.399 32.8041 141.292 32.886 141.292 32.9993H141.179V33.056L140.958 33.1127L140.902 33.226H140.776C140.719 33.2827 140.662 33.3079 140.612 33.3079C140.587 33.3897 140.53 33.4212 140.448 33.4212V33.4653C140.114 33.522 139.951 33.5787 139.951 33.629H139.73V33.6857H139.617V33.7424H139.308V33.7676C139.113 33.7928 138.893 33.8242 138.672 33.8242V33.8809H138.37V33.9376H138.301V33.9376Z" fill="#F5DF70" stroke="#F5DF70" stroke-miterlimit="10" stroke-linecap="round" stroke-linejoin="round"/>
<path d="M153.131 34.4669V34.4103C153.105 34.4103 153.074 34.4103 153.049 34.4355C153.024 34.4607 152.967 34.4607 152.935 34.4607C152.879 34.4607 152.853 34.4355 152.853 34.404H152.772V34.4607C152.746 34.4607 152.715 34.4355 152.715 34.404H152.602V34.3473C152.293 34.3221 152.016 34.2906 151.77 34.2906V34.234H151.689V34.1773H151.38V34.1206H151.241V34.0387H150.964L149.686 33.4027V33.2894C149.384 33.2075 149.132 32.9808 148.937 32.5652C148.716 32.4267 148.521 32.2315 148.326 32.0363V31.9229H148.269V31.8096C148.187 31.7529 148.131 31.6962 148.105 31.6144C148.08 31.5325 148.024 31.4507 147.942 31.3625C147.828 31.2806 147.778 31.1421 147.778 31.0036H147.696V30.8902H147.64V30.5313H147.577C147.577 30.4494 147.52 30.3676 147.438 30.3361L147.52 30.1157L147.381 30.0338V29.5363C147.299 29.5112 147.268 29.4545 147.243 29.3978C147.243 29.2593 147.299 29.1459 147.381 29.0074C147.381 28.9507 147.381 28.9255 147.356 28.894C147.331 28.894 147.299 28.894 147.274 28.894V27.3135H147.331V27.2001H147.388V26.3689H147.444V26.2556H147.526V25.7266H147.577V25.6133H147.633V25.2165C147.658 25.1914 147.715 25.1599 147.772 25.1599V24.8261L147.885 24.7443V24.3538H147.91C147.935 24.3287 147.992 24.2972 148.024 24.2972C148.049 24.1838 148.049 24.102 148.08 24.0201C148.08 23.9634 148.137 23.8816 148.276 23.7997V23.5478L148.496 23.3274V23.1637L148.634 23.107V22.8866C148.773 22.7481 148.912 22.6347 149.05 22.5277C149.05 22.4458 149.075 22.364 149.107 22.2758H149.163C149.22 22.1625 149.277 22.1121 149.359 22.1121V22.0554H149.522L149.799 21.7217H149.913L150.076 21.4698H150.272C150.272 21.3879 150.328 21.3313 150.435 21.2494C150.549 21.1927 150.631 21.1109 150.656 20.9723C150.82 20.9723 150.908 20.9471 150.908 20.859H151.021C151.021 20.7456 151.134 20.6638 151.323 20.6386L151.38 20.5252H151.519C151.519 20.4434 151.575 20.4119 151.682 20.3867C151.764 20.3615 151.821 20.33 151.846 20.3048C151.846 20.2796 151.846 20.2796 151.871 20.2482H152.123L152.262 19.9963C152.343 19.9963 152.513 19.8577 152.759 19.5492H152.954L153.011 19.4106H154.346V19.4925H154.459V19.5492H154.85V19.6625H155.133L155.19 19.7444H155.58L155.719 19.9963H155.882L155.939 20.1096H156.134V20.1915C156.216 20.1915 156.248 20.1915 156.273 20.2167C156.298 20.2419 156.329 20.2733 156.411 20.2985C156.493 20.3237 156.55 20.3552 156.607 20.4371C156.663 20.5189 156.72 20.6008 156.77 20.6889H156.991C157.016 20.8275 157.073 20.9093 157.104 20.966H157.268C157.293 20.9912 157.324 21.0227 157.324 21.1046C157.406 21.1046 157.463 21.1864 157.463 21.325H157.715C157.772 21.4068 157.853 21.4887 157.935 21.5768C158.017 21.6587 158.099 21.7972 158.156 21.9358H158.319C158.345 22.0176 158.433 22.131 158.515 22.2695H158.571V22.4332L158.823 22.6284L158.987 23.1574C159.069 23.1826 159.1 23.2393 159.1 23.3211H159.157V23.5415L159.295 23.5667V23.7871C159.352 23.8123 159.377 23.869 159.409 23.9508H159.465V24.0642H159.522V24.3979L159.635 24.4546V24.6183H159.692V24.8135H159.749V25.0087H159.805V25.311L159.919 25.3677V25.84H160.032C160.057 26.3689 160.089 26.8664 160.089 27.3953H160.032V27.9495H159.919L159.944 28.0628C159.944 28.1447 159.944 28.2265 159.919 28.3147H159.862V28.5351H159.805V28.6485H159.749V29.1207C159.724 29.1459 159.692 29.1774 159.635 29.1774V29.486H159.579V29.6245H159.522V29.9016C159.497 29.9268 159.44 29.9582 159.409 29.9582V30.2353C159.327 30.2605 159.295 30.3172 159.295 30.399H159.214V30.5376H159.157V30.8398L159.044 30.8965V31.0602H158.987V31.1736H158.93C158.93 31.2554 158.905 31.2869 158.817 31.3121C158.817 31.4506 158.792 31.5325 158.735 31.5325V31.6459L158.571 31.7592C158.571 31.8411 158.546 31.8977 158.489 31.9229C158.433 31.9796 158.408 32.0363 158.408 32.1181H158.269C158.244 32.1433 158.244 32.1433 158.244 32.1433C158.244 32.1685 158.244 32.2 158.219 32.2252C158.193 32.2504 158.162 32.3071 158.162 32.3637H158.049V32.4204L157.885 32.4771C157.86 32.5589 157.803 32.6723 157.69 32.7793C157.608 32.8045 157.576 32.8612 157.576 32.8927C157.551 32.9179 157.52 32.9494 157.494 32.9494C157.469 32.9745 157.413 33.006 157.331 33.0312C157.274 33.1446 157.192 33.2516 157.054 33.3901C156.972 33.3901 156.915 33.4468 156.89 33.5287H156.77L156.575 33.7491H156.411V33.8058C156.298 33.8309 156.248 33.8624 156.216 33.8876C156.191 33.9128 156.078 33.9443 155.882 33.9443V34.0262L155.631 34.108V34.1647H155.549V34.2214H155.297V34.278H155.183V34.3347H154.686L154.629 34.4481H153.131V34.4669ZM153.855 32.4393H154.547V32.3826H154.661V32.3574H154.856V32.3008H154.938V32.2441L155.215 32.1874V32.1307H155.467C155.467 32.0489 155.492 32.0174 155.523 31.9922H155.687L155.744 31.8789C155.857 31.8789 155.939 31.8537 155.996 31.797C156.052 31.7403 156.134 31.6836 156.248 31.6585C156.304 31.5199 156.361 31.4066 156.468 31.3247C156.493 31.2995 156.525 31.268 156.581 31.2428C156.638 31.2428 156.663 31.1862 156.663 31.1043C156.72 30.991 156.827 30.8839 156.997 30.7706V30.4116H157.11L157.192 30.1912H157.249V29.9142H157.306V29.8008H157.387C157.387 29.719 157.444 29.6623 157.501 29.6371V29.4419L157.614 29.3852V29.0767H157.671V28.9633H157.727V28.5477C157.784 28.5477 157.809 28.5225 157.841 28.491V28.0754C157.897 28.0754 157.923 28.0754 157.954 28.0754C157.954 28.0502 157.979 28.0502 158.011 28.0187V26.0478L157.847 25.9911V25.544L157.734 25.4873V25.2165L157.62 25.1599V24.8576L157.507 24.8009V24.6057L157.394 24.5491V24.3853L157.255 24.3035V24.1397L157.173 24.0831V23.9193L156.978 23.7556L156.953 23.5352C156.896 23.5352 156.871 23.51 156.84 23.4786C156.783 23.4219 156.758 23.3967 156.726 23.3967C156.613 23.2833 156.531 23.1763 156.474 23.0063C156.311 22.9496 156.141 22.8111 156.002 22.5907C156.002 22.5655 155.889 22.534 155.725 22.5088C155.668 22.4836 155.612 22.4269 155.586 22.3451C155.505 22.3451 155.423 22.2884 155.391 22.2317C155.309 22.2317 155.253 22.1751 155.227 22.1184H155.064C155.064 22.0617 155.064 22.0365 155.007 22.005C154.869 21.9484 154.787 21.9232 154.787 21.8917L154.566 21.835V21.7783H154.403L154.346 21.6398H153.483V21.6965H153.37V21.7783H153.206V21.835H153.093V21.8917H152.954L152.929 22.005H152.734C152.709 22.0617 152.652 22.1184 152.595 22.1184V22.1751C152.513 22.1751 152.457 22.2002 152.432 22.2884L152.18 22.3451L152.123 22.4584H151.959V22.5151H151.846C151.821 22.597 151.764 22.6284 151.682 22.6284L151.519 22.8488H151.405V22.9055C151.323 22.9055 151.267 22.9307 151.241 23.0189H151.185C151.16 23.1007 151.128 23.1574 151.128 23.2141H151.071V23.3274C150.99 23.3526 150.933 23.3841 150.933 23.4408C150.908 23.4974 150.908 23.5226 150.876 23.5226C150.851 23.5478 150.82 23.5793 150.82 23.636C150.794 23.6927 150.738 23.7178 150.656 23.7178C150.656 23.9697 150.599 24.0768 150.492 24.0768L150.41 24.102V24.3224L150.272 24.4042V24.6246H150.215C150.19 24.7065 150.158 24.7632 150.158 24.8198C150.158 24.845 150.102 24.8765 149.995 24.8765V25.2921H149.881V25.7077H149.825V25.7896H149.768C149.743 25.9533 149.711 26.0667 149.711 26.18H149.629V26.816H149.573V27.0931H149.516V27.7858L149.403 27.8424C149.459 27.9558 149.459 28.0628 149.459 28.151C149.434 28.151 149.403 28.1762 149.403 28.2328C149.485 28.5351 149.516 28.957 149.516 29.4545H149.573V29.763H149.629V30.0401L149.768 30.0968V30.3172H149.825V30.4305H149.881V30.7895H149.995V30.9532C150.076 30.9532 150.158 31.0099 150.215 31.1169V31.2302L150.712 31.6773L150.769 31.7907L151.021 31.8474C151.021 31.9607 151.134 32.0111 151.298 32.0111V32.0929L151.632 32.2063V32.263H151.852V32.3196H151.966V32.3763H152.495L152.551 32.4582H152.998C153.332 32.5149 153.609 32.5149 153.886 32.5149V32.4393H153.855Z" fill="#F5DF70" stroke="#F5DF70" stroke-miterlimit="10" stroke-linecap="round" stroke-linejoin="round"/>
<path d="M165.101 35.2728L164.767 34.8823H164.572L164.295 34.5486H164.238V33.6859C164.32 33.6607 164.352 33.604 164.352 33.5474C164.352 33.4907 164.352 33.4655 164.408 33.434C164.434 33.434 164.465 33.4088 164.465 33.4088C164.465 33.3836 164.49 33.3836 164.49 33.3836C164.515 33.3836 164.547 33.3836 164.572 33.3584C164.597 33.2766 164.629 33.1947 164.654 33.1632C164.711 33.138 164.736 33.0814 164.767 32.968C165.019 32.9113 165.126 32.8043 165.158 32.6343C165.24 32.6091 165.322 32.5776 165.46 32.5776H166.014C166.071 32.6595 166.128 32.6909 166.178 32.6909C166.235 32.6909 166.26 32.7161 166.316 32.7728C166.43 32.9932 166.619 33.1317 166.871 33.2451V33.6355L167.009 33.6922V34.1078C166.896 34.1645 166.845 34.2463 166.814 34.3597C166.789 34.473 166.732 34.5549 166.594 34.6367L166.203 35.0838L165.951 35.1657L165.869 35.279H165.101V35.2728ZM166.656 30.8018C166.6 30.72 166.436 30.6633 166.159 30.6633C166.159 30.6381 166.134 30.5814 166.102 30.5814C166.077 30.5562 166.046 30.5248 166.02 30.4681C165.995 30.4429 165.907 30.4114 165.743 30.4114C165.718 30.191 165.687 29.8825 165.687 29.492V28.7679H165.743C165.8 28.6293 165.825 28.516 165.825 28.3523H165.882V28.2389C165.939 28.2389 165.939 28.2137 165.939 28.1571L165.882 27.9367H165.939V27.8233H166.02V27.6281H166.077C166.102 27.6029 166.134 27.3258 166.159 26.8536H166.241L166.266 26.1609C166.266 26.1042 166.291 26.079 166.348 26.0475V25.7957H166.405V25.5753H166.486V25.0211H166.543V24.8574H166.6V24.3599L166.738 24.3032V23.5791H166.795C166.82 23.5539 166.877 23.2201 166.959 22.5527H167.015V22.3008H167.072V22.1056H167.129L167.072 21.8285H167.129C167.154 21.7466 167.185 21.69 167.267 21.6333C167.267 21.6081 167.242 21.5766 167.211 21.5766C167.211 21.4948 167.236 21.4381 167.267 21.3814C167.267 21.3247 167.242 21.2429 167.211 21.161H167.267V20.9658C167.292 20.9658 167.324 20.9406 167.324 20.9091H167.267C167.267 20.8839 167.292 20.8525 167.324 20.8525C167.324 20.6572 167.349 20.5754 167.349 20.5754C167.374 20.5754 167.406 20.5502 167.406 20.5187H167.324V20.4368H167.406V20.0527H167.463V19.889H167.519V19.3349H167.633V19.2215H167.689C167.633 19.1396 167.633 19.0578 167.633 19.0011H167.689V18.7492H167.746V18.4973H167.803V18.0817H167.884V17.9432H167.941V17.2757H167.998V17.1624H168.054V16.8034L168.25 16.6901V15.9092H168.332V15.5818H168.413V15.1662H168.47V15.0528H168.527V14.6624H168.609V14.5491H168.665V13.9949L168.797 13.9446V13.6108L169.188 13.2771C169.188 13.1385 169.213 13.0567 169.27 13H169.855L169.881 13.0567C170.296 13.5038 170.548 13.7494 170.655 13.8375V15.9218C170.542 16.0037 170.491 16.0604 170.46 16.0856L170.435 16.6964H170.353V17.1687L170.24 17.2253C170.265 17.4457 170.296 17.6724 170.296 17.8928H170.24L170.183 18.1447H170.101C170.126 18.3399 170.126 18.5036 170.183 18.6737H170.101V19.0074L169.988 19.0893V19.2845L169.849 19.3412V20.2039L169.906 20.2605C169.906 20.3172 169.906 20.3424 169.849 20.3424C169.792 20.5061 169.736 20.6195 169.685 20.6195V21.2303H169.629V21.4507H169.572V22.0615L169.433 22.1182V22.7857H169.377V22.9809H169.32V23.428H169.263V23.5917H169.182V24.0891L169.043 24.1458C169.043 24.7 168.986 24.977 168.905 25.0337V25.7012L168.797 25.7201V26.249H168.716V26.3876H168.659V26.8599L168.52 26.9165V27.1684H168.464V27.3321H168.407V28.0563H168.325V28.1696H168.243V28.4215C168.218 28.4467 168.187 28.4467 168.161 28.5034H168.048C168.048 28.7553 168.048 28.919 167.991 29.0323H167.935V29.2276L167.796 29.2842V29.6872C167.714 29.6872 167.683 29.7124 167.683 29.7439L167.519 30.1343H167.463C167.406 30.2981 167.299 30.4114 167.129 30.4114L166.795 30.8018H166.656V30.8018Z" fill="#F5DF70" stroke="#F5DF70" stroke-miterlimit="10" stroke-linecap="round" stroke-linejoin="round"/>
</svg>
