<svg width="344" height="103" viewBox="0 0 344 103" fill="none" xmlns="http://www.w3.org/2000/svg">
<path d="M131.09 35.1102C131.09 36.2402 130.52 36.6202 129.39 36.6702L110.35 37.1402C109.07 37.1902 108.41 36.4302 108.37 34.8702L107.9 2.12021C107.9 1.03021 108.47 0.470215 109.6 0.470215H116.78C117.91 0.470215 118.48 1.04021 118.48 2.12021L118.76 27.5402L129.39 27.2602C130.52 27.2102 131.09 27.7302 131.09 28.7702V35.1102V35.1102ZM133.64 3.78021C133.64 2.22021 134.3 1.42021 135.67 1.42021H142C143.37 1.42021 144.03 2.22021 144.03 3.78021V13.6602L146.49 13.5702C147.67 13.5202 148.29 14.0402 148.29 15.1802V21.5102C148.29 22.5002 147.68 23.0702 146.49 23.1202L144.03 23.2102V33.3702C144.03 34.9302 143.37 35.7302 142 35.7302H135.67C134.3 35.7302 133.64 34.9302 133.64 33.3702V3.78021Z" fill="#3A3A3A"/>
<path d="M184.01 20.37C185.14 20.37 185.71 20.89 185.71 21.88V27.46C185.71 28.45 185.14 28.97 184.01 28.97L154.43 29.44C153.3 29.44 152.73 28.92 152.73 27.93V22.35C152.73 21.36 153.3 20.84 154.43 20.84L184.01 20.37ZM163.64 10.16L183.35 9.83C184.67 9.78 185.1 10.4 185.1 11.86V16.78C185.1 18.24 184.67 18.81 183.35 18.81L155.33 19.28C154.05 19.28 153.39 18.52 153.35 17.01L152.92 2.27C152.87 0.61 153.48 0 154.85 0H161.51C162.88 0 163.4 0.61 163.45 2.27L163.64 10.16ZM155.56 44.89C154.19 44.89 153.53 44.09 153.53 42.53V33.22C153.53 31.57 154.14 30.95 155.47 30.95H161.99C163.36 30.95 163.93 31.56 163.93 33.22V35.72L183.4 35.39C184.49 35.39 185.01 36 185.01 37.19V42.67C185.01 43.95 184.58 44.47 183.31 44.47L155.56 44.89Z" fill="#3A3A3A"/>
<path d="M190.67 17.2499C190.67 9.30992 195.54 3.25992 204.56 3.25992C213.63 3.25992 218.5 9.30992 218.5 17.2499C218.5 25.1399 213.63 31.1899 204.56 31.1899C195.54 31.1899 190.67 25.1399 190.67 17.2499ZM208.63 17.2499C208.63 14.5999 207.26 12.8099 204.57 12.8099C201.92 12.8099 200.55 14.6099 200.55 17.2499C200.55 19.8999 201.92 21.6499 204.57 21.6499C207.26 21.6399 208.63 19.8999 208.63 17.2499ZM220.11 3.77992C220.11 2.21992 220.77 1.41992 222.14 1.41992H228.47C229.84 1.41992 230.5 2.21992 230.5 3.77992V6.56992L232.96 6.47992C234.14 6.42992 234.76 6.94992 234.76 8.08992V14.4199C234.76 15.4099 234.15 15.9799 232.96 16.0299L230.5 16.1199V19.3299L232.96 19.2399C234.14 19.1899 234.76 19.7099 234.76 20.8499V27.1799C234.76 28.1699 234.15 28.7399 232.96 28.7899L230.5 28.8799V33.3699C230.5 34.9299 229.84 35.7299 228.47 35.7299H222.14C220.77 35.7299 220.11 34.9299 220.11 33.3699V3.77992Z" fill="#3A3A3A"/>
<path d="M0 70.4102C0 62.7102 5.39 56.6602 14.13 56.6602C22.83 56.6602 28.31 62.7102 28.31 70.4102C28.31 78.1102 22.83 84.1102 14.13 84.1102C5.39 84.1202 0 78.1102 0 70.4102ZM1.84 94.8902C0.71 94.9402 0.14 94.4602 0.14 93.3802V87.8002C0.14 86.7102 0.71 86.3402 1.84 86.2902L26.32 85.8202C27.45 85.7702 28.02 86.2902 28.02 87.3302V92.9102C28.02 94.0002 27.45 94.3702 26.32 94.4202L1.84 94.8902ZM18.67 70.4102C18.67 67.7202 16.97 65.9702 14.13 65.9702C11.34 65.9702 9.64 67.7202 9.64 70.4102C9.64 73.0602 11.34 74.8002 14.13 74.8002C16.97 74.8102 18.67 73.0602 18.67 70.4102ZM29.91 60.4902C29.91 58.9302 30.57 58.1302 31.94 58.1302H38.27C39.64 58.1302 40.3 58.9302 40.3 60.4902V90.0702C40.3 91.6302 39.64 92.4302 38.27 92.4302H31.94C30.57 92.4302 29.91 91.6302 29.91 90.0702V60.4902V60.4902Z" fill="#3A3A3A"/>
<path d="M50.61 77.5V71.59C48.96 69.84 48.11 67.67 48.11 65.02C48.11 58.5 53.54 54.48 62.19 54.48C70.89 54.48 76.27 58.5 76.27 65.02C76.27 67.62 75.42 69.84 73.77 71.59V77.17L77.46 77.08C78.59 77.08 79.16 77.6 79.16 78.59V83.46C79.16 84.45 78.59 84.97 77.46 84.97L46.93 85.44C45.8 85.44 45.23 84.92 45.23 83.93V79.06C45.23 78.07 45.8 77.55 46.93 77.55L50.61 77.5ZM67.01 94.65L48.72 95.03C47.59 95.03 47.16 94.75 47.16 93.66V88.27C47.16 87.18 47.59 86.9 48.72 86.9L75.85 86.43C77.31 86.38 77.69 86.9 77.65 88.56L77.22 99.48C77.17 101.13 76.79 101.61 75.42 101.61H68.62C67.3 101.61 66.78 101.14 66.82 99.48L67.01 94.65ZM66.11 65.02C66.11 63.13 64.6 62 62.19 62C59.78 62 58.27 63.13 58.27 65.02C58.27 66.91 59.78 68.04 62.19 68.04C64.6 68.04 66.11 66.91 66.11 65.02ZM60.87 75.56C60.44 75.56 60.02 75.51 59.59 75.47V77.36L64.79 77.31V75.47C64.36 75.52 63.89 75.56 63.47 75.56H60.87Z" fill="#3A3A3A"/>
<path d="M114.17 72.2099L100.13 74.3399C99.14 74.4799 98.52 74.1999 98.33 73.4899L97.29 68.9999C97.05 68.0599 97.38 67.3499 98.28 67.1999L107.68 65.8299C108.39 65.7399 108.81 65.3599 108.91 64.6999L99.55 64.8399C98.42 64.8399 97.85 64.3199 97.85 63.3299V58.6999C97.85 57.7099 98.42 57.1899 99.55 57.1899L108.95 57.0499V55.4899C108.95 54.1199 109.42 53.6899 110.75 53.6899H117.56C118.93 53.6899 119.36 54.0199 119.36 55.4899V56.9099L128.67 56.7199C129.8 56.7199 130.37 57.2399 130.37 58.2299V62.8599C130.37 63.8499 129.8 64.3699 128.67 64.3699L119.36 64.5599C119.41 65.3199 119.83 65.7399 120.64 65.8399L130.04 66.6899C131.13 66.8299 131.36 67.4499 131.03 68.5299L129.94 73.1099C129.75 74.0099 129.18 74.0099 128.19 73.8699L114.17 72.2099ZM101.27 93.2799C101.27 89.1699 103.82 85.8599 108.97 84.5799V83.1599L99.38 83.2999C98.25 83.2999 97.68 82.7799 97.68 81.7899V76.6899C97.68 75.6999 98.25 75.1799 99.38 75.1799L128.96 74.7099C130.09 74.7099 130.66 75.2299 130.66 76.2199V81.3199C130.66 82.3099 130.09 82.8299 128.96 82.8299L119.37 83.0199V84.5299C124.52 85.8499 127.07 89.1599 127.07 93.2699C127.07 98.5599 122.82 102.58 114.17 102.58C105.57 102.59 101.27 98.5799 101.27 93.2799ZM117.38 93.2799C117.38 92.1899 116.48 91.3899 114.17 91.3899C111.85 91.3899 110.96 92.1899 110.96 93.2799C110.96 94.3699 111.86 95.1699 114.17 95.1699C116.48 95.1699 117.38 94.3699 117.38 93.2799Z" fill="#3A3A3A"/>
<path d="M138.36 83.1202C136.99 83.1702 136.33 82.4102 136.33 80.7602L136 58.7902C136 57.8002 136.61 57.2302 137.8 57.1802L157.7 56.7102C159.07 56.6602 159.78 57.4702 159.73 59.0702L159.07 80.2902C159.02 81.9402 158.41 82.6102 157.04 82.6502L138.36 83.1202ZM144.55 101.6C143.18 101.65 142.52 100.84 142.52 99.2402V87.4202C142.52 85.8602 143.18 85.0602 144.55 85.0602H150.88C152.25 85.0602 152.91 85.8602 152.91 87.4202V91.9602L169.92 91.5802C171.05 91.5302 171.62 92.1902 171.62 93.4702V99.2402C171.62 100.47 171.01 101.08 169.82 101.13L144.55 101.6ZM145.45 66.2102L145.54 74.0102L150.08 73.8202L150.13 66.0202L145.45 66.2102ZM161.75 59.5402C161.75 57.9802 162.41 57.1802 163.78 57.1802H170.11C171.48 57.1802 172.14 57.9802 172.14 59.5402V66.8602L174.6 66.7702C175.78 66.7202 176.4 67.2402 176.4 68.3802V74.7102C176.4 75.7002 175.79 76.2702 174.6 76.3202L172.14 76.4102V83.4502C172.14 85.0102 171.48 85.8102 170.11 85.8102H163.78C162.41 85.8102 161.75 85.0102 161.75 83.4502V59.5402Z" fill="#3A3A3A"/>
<path d="M203.72 87.1402L200.41 93.0902C199.89 94.0302 199.09 93.9402 198.19 93.3702L192.99 89.8702C192.09 89.2602 192.09 88.5002 192.61 87.5102L197.71 77.5902C198.23 76.6502 198.47 75.7902 198.47 74.6602V59.4502C198.47 57.8002 199.08 57.1802 200.41 57.1802H206.93C208.25 57.1802 208.87 57.7902 208.87 59.4502V74.6702C208.87 75.8002 209.06 76.7002 209.63 77.6002L214.4 85.6802C215.01 86.6702 215.25 87.6202 214.35 88.3302L209.06 92.3502C208.26 92.9602 207.41 93.0102 206.89 92.1102L203.72 87.1402ZM227.25 79.3902L224.98 79.4402V90.0702C224.98 91.6302 224.32 92.4302 222.95 92.4302H217.8C216.43 92.4302 215.77 91.6302 215.77 90.0702V60.4902C215.77 58.9302 216.43 58.1302 217.8 58.1302H222.95C224.32 58.1302 224.98 58.9302 224.98 60.4902V69.8902L227.25 69.8402V60.0102C227.25 58.4502 227.91 57.6502 229.28 57.6502H234.43C235.8 57.6502 236.46 58.4502 236.46 60.0102V89.6002C236.46 91.1602 235.8 91.9602 234.43 91.9602H229.28C227.91 91.9602 227.25 91.1602 227.25 89.6002V79.3902Z" fill="#3A3A3A" stroke="#3A3A3A" stroke-width="5" stroke-miterlimit="10"/>
<path d="M260.8 91.8202C260.8 92.9502 260.23 93.3302 259.1 93.3802L243.36 93.8502C242.08 93.9002 241.42 93.1402 241.38 91.5802L240.91 58.8302C240.91 57.7402 241.48 57.1802 242.61 57.1802H249.79C250.92 57.1802 251.49 57.7502 251.49 58.8302L251.77 84.2102L259.09 83.9702C260.22 83.9202 260.79 84.4402 260.79 85.4802V91.8202H260.8ZM274.51 79.3902L272.24 79.4402V90.0702C272.24 91.6302 271.58 92.4302 270.21 92.4302H265.06C263.69 92.4302 263.03 91.6302 263.03 90.0702V60.4902C263.03 58.9302 263.69 58.1302 265.06 58.1302H270.21C271.58 58.1302 272.24 58.9302 272.24 60.4902V69.8902L274.51 69.8402V60.0102C274.51 58.4502 275.17 57.6502 276.54 57.6502H281.69C283.06 57.6502 283.72 58.4502 283.72 60.0102V89.6002C283.72 91.1602 283.06 91.9602 281.69 91.9602H276.54C275.17 91.9602 274.51 91.1602 274.51 89.6002V79.3902Z" fill="#3A3A3A" stroke="#3A3A3A" stroke-width="5" stroke-miterlimit="10"/>
<path d="M302.05 67.3398L289.39 67.6698C288.26 67.7198 287.69 67.2398 287.69 66.1598V59.1698C287.69 58.0798 288.26 57.7098 289.39 57.6598L310.89 57.1898C312.31 57.1398 312.97 57.8998 312.83 59.4598L310.42 91.1198C310.28 92.7698 309.85 93.3898 308.48 93.3898H302.01C300.69 93.3898 299.93 92.7798 300.07 91.1198L302.05 67.3398ZM315.33 60.4898C315.33 58.9298 315.99 58.1298 317.36 58.1298H323.69C325.06 58.1298 325.72 58.9298 325.72 60.4898V90.0698C325.72 91.6298 325.06 92.4298 323.69 92.4298H317.36C315.99 92.4298 315.33 91.6298 315.33 90.0698V60.4898Z" fill="#3A3A3A" stroke="#3A3A3A" stroke-width="5" stroke-miterlimit="10"/>
<path d="M330.83 60.7701C330.83 59.1201 331.3 58.6401 332.63 58.6401H339.29C340.66 58.6401 341.09 59.1101 341.09 60.7701V79.9601C341.09 81.6101 340.66 82.0901 339.29 82.0901H332.63C331.31 82.0901 330.83 81.6201 330.83 79.9601V60.7701ZM335.89 84.1201C338.91 84.1201 340.9 86.3401 340.9 88.9901C340.9 90.3101 340.43 91.4901 339.53 92.3901C338.63 93.2901 337.4 93.8101 335.89 93.8101C334.33 93.8101 333.01 93.2901 332.2 92.3901C331.3 91.4901 330.83 90.3101 330.83 88.9901C330.83 86.3401 332.68 84.1201 335.89 84.1201Z" fill="#3A3A3A" stroke="#3A3A3A" stroke-width="5" stroke-miterlimit="10"/>
<path d="M204.08 87.4302L200.77 93.3802C200.25 94.3202 199.45 94.2302 198.55 93.6602L193.35 90.1602C192.45 89.5502 192.45 88.7902 192.97 87.8002L198.07 77.8802C198.59 76.9302 198.83 76.0802 198.83 74.9502V59.7402C198.83 58.0902 199.44 57.4702 200.77 57.4702H207.29C208.61 57.4702 209.23 58.0802 209.23 59.7402V74.9602C209.23 76.0902 209.42 76.9902 209.99 77.8902L214.76 85.9702C215.37 86.9602 215.61 87.9102 214.71 88.6202L209.42 92.6402C208.62 93.2502 207.77 93.3002 207.25 92.4002L204.08 87.4302ZM227.61 79.6802L225.34 79.7302V90.3602C225.34 91.9202 224.68 92.7202 223.31 92.7202H218.16C216.79 92.7202 216.13 91.9202 216.13 90.3602V60.7802C216.13 59.2202 216.79 58.4202 218.16 58.4202H223.31C224.68 58.4202 225.34 59.2202 225.34 60.7802V70.1802L227.61 70.1302V60.3002C227.61 58.7402 228.27 57.9402 229.64 57.9402H234.79C236.16 57.9402 236.82 58.7402 236.82 60.3002V89.8802C236.82 91.4402 236.16 92.2402 234.79 92.2402H229.64C228.27 92.2402 227.61 91.4402 227.61 89.8802V79.6802Z" fill="#F5DF70"/>
<path d="M261.17 92.1102C261.17 93.2402 260.6 93.6202 259.47 93.6702L243.73 94.1402C242.45 94.1902 241.79 93.4302 241.75 91.8702L241.28 59.1202C241.28 58.0302 241.85 57.4702 242.98 57.4702H250.16C251.29 57.4702 251.86 58.0402 251.86 59.1202L252.14 84.5002L259.46 84.2602C260.59 84.2102 261.16 84.7302 261.16 85.7702V92.1102H261.17ZM274.87 79.6802L272.6 79.7302V90.3602C272.6 91.9202 271.94 92.7202 270.57 92.7202H265.42C264.05 92.7202 263.39 91.9202 263.39 90.3602V60.7802C263.39 59.2202 264.05 58.4202 265.42 58.4202H270.57C271.94 58.4202 272.6 59.2202 272.6 60.7802V70.1802L274.87 70.1302V60.3002C274.87 58.7402 275.53 57.9402 276.9 57.9402H282.05C283.42 57.9402 284.08 58.7402 284.08 60.3002V89.8802C284.08 91.4402 283.42 92.2402 282.05 92.2402H276.9C275.53 92.2402 274.87 91.4402 274.87 89.8802V79.6802Z" fill="#F5DF70"/>
<path d="M302.42 67.6303L289.76 67.9603C288.63 68.0103 288.06 67.5303 288.06 66.4503V59.4603C288.06 58.3703 288.63 58.0003 289.76 57.9503L311.26 57.4803C312.68 57.4303 313.34 58.1903 313.2 59.7503L310.79 91.4103C310.65 93.0603 310.22 93.6803 308.85 93.6803H302.38C301.06 93.6803 300.3 93.0703 300.44 91.4103L302.42 67.6303ZM315.7 60.7803C315.7 59.2203 316.36 58.4203 317.73 58.4203H324.06C325.43 58.4203 326.09 59.2203 326.09 60.7803V90.3603C326.09 91.9203 325.43 92.7203 324.06 92.7203H317.73C316.36 92.7203 315.7 91.9203 315.7 90.3603V60.7803Z" fill="#F5DF70"/>
<path d="M331.2 61.0602C331.2 59.4102 331.67 58.9302 333 58.9302H339.66C341.03 58.9302 341.46 59.4002 341.46 61.0602V80.2502C341.46 81.9002 341.03 82.3802 339.66 82.3802H333C331.68 82.3802 331.2 81.9102 331.2 80.2502V61.0602ZM336.25 84.4102C339.27 84.4102 341.26 86.6302 341.26 89.2802C341.26 90.6002 340.79 91.7802 339.89 92.6802C338.99 93.5802 337.76 94.1002 336.25 94.1002C334.69 94.1002 333.37 93.5802 332.56 92.6802C331.66 91.7802 331.19 90.6002 331.19 89.2802C331.2 86.6302 333.04 84.4102 336.25 84.4102Z" fill="#F5DF70"/>
</svg>
