<svg width="44" height="24" viewBox="0 0 44 24" fill="none" xmlns="http://www.w3.org/2000/svg">
<path d="M10.3008 21.9373C10.2756 21.8555 10.2189 21.824 10.1371 21.7988C10.0804 21.7988 10.0237 21.824 9.94184 21.824C9.85998 21.8492 9.74664 21.8807 9.63958 21.9059C9.50105 21.931 9.41919 21.931 9.33103 21.931C9.27435 21.931 9.21768 21.9059 9.21768 21.8177H8.1094V21.761H7.99605C7.99605 21.7358 7.80084 21.7358 7.41042 21.7358V21.6792H7.32856V21.6225H6.99481V21.5658H6.91295V21.5091H6.69255V21.4651H6.52883V21.4084H6.27695C6.22027 21.3265 6.08174 21.2447 5.86134 21.2132L5.80467 21.0998H5.63465C5.60946 21.018 5.57797 20.9865 5.49611 20.9865V20.9298H5.38906V20.8731H5.21904C5.21904 20.8479 5.19385 20.8165 5.16237 20.7913H4.97345C4.94826 20.7346 4.91678 20.6779 4.89159 20.6527C4.8664 20.6275 4.83492 20.5961 4.80973 20.5709C4.78454 20.5457 4.78454 20.5457 4.75306 20.5457H4.6649C4.63971 20.5457 4.60822 20.489 4.60822 20.4072C4.38783 20.3505 4.24929 20.2686 4.19262 20.0986L3.97222 20.0419C3.91554 19.9286 3.83368 19.8782 3.72034 19.8215C3.60699 19.7963 3.52513 19.7082 3.49994 19.5696H3.32992C2.99617 19.1792 2.83245 18.984 2.83245 18.9588H2.77577C2.75059 18.877 2.69391 18.8203 2.66243 18.7951V18.6314L2.4987 18.5747L2.30349 18.0772H2.19644L1.94456 17.3279L1.83121 17.2712V17.1327L1.71787 17.076V16.8556L1.55414 16.7423V16.6037H1.52895V16.44H1.47228V16.3015H1.41561V16.1377H1.35893C1.35893 16.0559 1.33374 15.9992 1.24559 15.974V15.7221H1.19521V15.6088H1.13854V15.3569H1.08186V15.1932H1.05667V15.1365H1.08186V14.7776H1.05667V14.6138H1C1 14.1416 1.02519 13.6693 1.05667 13.197H1.08186L1.05667 13.0018H1.08186V12.8884C1.13854 12.8884 1.13854 12.8633 1.16372 12.8318L1.08186 12.5799H1.13854V12.3028H1.19521V12.221H1.25188V11.7487H1.30856V11.5283C1.33374 11.5283 1.36523 11.5031 1.39042 11.4464C1.39042 11.3646 1.41561 11.3331 1.47228 11.3331V10.9993H1.52895L1.55414 10.6404L1.71787 10.5837L1.83121 10.1114L1.94456 10.0548V9.91623H1.96975V9.80288H2.02642V9.63916L2.13977 9.58248V9.44395L2.25312 9.38727L2.36646 9.05353H2.42314C2.44833 9.02834 2.44833 8.97167 2.47981 8.91499C2.47981 8.88981 2.505 8.85832 2.56167 8.85832V8.74497H2.61835V8.63163H2.67502V8.49309L2.89542 8.32937V8.13416C2.92061 8.10897 2.95209 8.07748 2.97728 8.07748C3.00247 7.93895 3.09063 7.8256 3.19768 7.74374V7.6115C3.25435 7.58631 3.33621 7.52964 3.41808 7.47296C3.49994 7.41629 3.55661 7.30924 3.55661 7.19589C3.63847 7.11403 3.72034 7.05736 3.77701 7.03217V6.91882H3.8022L3.91555 6.80548C3.91555 6.83066 3.94073 6.86215 3.97222 6.86215V6.72361C4.05408 6.69842 4.08557 6.64175 4.08557 6.55989L4.24929 6.44654V6.33319L4.55785 6.19466V6.08131L4.75306 5.91759C4.75306 5.86091 4.80973 5.80424 4.8664 5.77905V5.72238H4.97975C5.00494 5.64052 5.06161 5.60903 5.14347 5.60903C5.16866 5.52717 5.22534 5.4705 5.28201 5.41382C5.36387 5.41382 5.42055 5.38863 5.44573 5.30048H5.55908L5.64094 5.13675C5.7228 5.13675 5.77948 5.11156 5.86134 5.08008C5.88653 5.0234 5.9432 4.99821 6.02506 4.99821C6.02506 4.94154 6.08174 4.91635 6.1636 4.88487C6.18879 4.803 6.22027 4.74633 6.22027 4.72115C6.30214 4.72115 6.35881 4.69595 6.44067 4.66447V4.6078C6.57921 4.6078 6.63588 4.58261 6.63588 4.52593C6.74923 4.50074 6.85628 4.46926 6.96963 4.46926L6.99481 4.35591C7.10816 4.33073 7.19002 4.29924 7.27189 4.29924V4.24257H7.38523V4.18589C7.44191 4.18589 7.49858 4.12922 7.52377 4.07254C7.71898 4.07254 7.80084 4.07254 7.82603 4.04735C7.82603 4.02217 7.82603 4.02217 7.85122 3.99068H7.98975L8.04642 3.87734H8.26682L8.3235 3.76399H8.62576V3.70732H8.76429V3.65064H9.09804V3.62545H9.21138V3.58137H10.1308C10.1874 3.5247 10.2126 3.49951 10.2693 3.49951L10.2945 3.5247V3.58137H11.1257L11.1824 3.66324H11.6546L11.7113 3.77658H12.0199V3.83326H12.1332V3.88993H12.3536L12.3788 4.00327C12.5173 4.00327 12.6307 4.05995 12.7126 4.19849H12.8511L12.9078 4.31183C12.9896 4.31183 13.0211 4.33702 13.0211 4.42518H13.1345L13.2982 4.62039H13.38C13.4367 4.73374 13.5186 4.78412 13.6004 4.78412V5.14305H13.6571V5.36344C13.6319 5.36344 13.6319 5.36345 13.6004 5.38863C13.5753 5.41382 13.5753 5.41382 13.5753 5.44531H13.38L13.3549 5.50198C13.3549 5.61533 13.1911 5.66571 12.8574 5.66571V5.60903H12.6622V5.55236H12.5488V5.49568H12.3851L12.3599 5.41382H12.0828V5.35715H11.9695V5.30048H11.6106L11.5539 5.18713H10.2504V5.2438H9.99852V5.30048H9.52624L9.46956 5.41382H9.24917C9.24917 5.43901 9.22398 5.43901 9.1673 5.43901V5.49568L8.69502 5.60903V5.66571C8.61316 5.66571 8.55649 5.69089 8.5313 5.77905C8.47463 5.77905 8.39276 5.80424 8.33609 5.83573V5.8924L7.94567 5.91759C7.94567 5.99945 7.889 6.03093 7.75046 6.03093C7.69379 6.14428 7.61193 6.19466 7.53007 6.19466V6.25133C7.50488 6.27652 7.4482 6.27652 7.39153 6.27652C7.30967 6.27652 7.25299 6.33319 7.22781 6.44024H7.00741V6.49692H6.96963V6.66064L6.57921 6.77399C6.55402 6.79918 6.52253 6.85585 6.49734 6.91252H6.384C6.35881 6.99439 6.30214 7.02587 6.22027 7.02587V7.08255L6.05655 7.13922C6.05655 7.22108 5.99988 7.30294 5.86134 7.33443V7.44777H5.74799C5.7228 7.56112 5.66613 7.64298 5.60946 7.69966C5.5276 7.78152 5.47092 7.86338 5.44573 7.97673C5.33239 8.00192 5.28201 8.03341 5.28201 8.09008C5.28201 8.11527 5.25682 8.17194 5.22534 8.22862H5.16237C5.16237 8.28529 5.16237 8.34196 5.13718 8.36715V8.44901C5.05532 8.44901 4.99864 8.4742 4.91678 8.50568C4.72157 8.86462 4.50117 9.22985 4.28078 9.58878H4.13594C4.13594 9.84066 4.11075 10.0359 4.0226 10.1744H3.97222V10.2878H3.91555C3.91555 10.4011 3.85887 10.483 3.77701 10.5396L3.72034 10.8167H3.66366C3.63847 10.9301 3.60699 11.0371 3.60699 11.1756L3.44326 11.289V11.5409C3.3614 11.5975 3.30473 11.6794 3.30473 11.7928C3.27954 11.7928 3.24806 11.8179 3.24806 11.8494C3.27324 11.8494 3.30473 11.9061 3.30473 12.0132L3.19138 12.0698V12.4288H3.14101V12.5421H3.08433V13.0711H3.02766V13.1529H2.97098V14.9854H3.02766V15.0987H3.08433V15.4577L3.19768 15.5143V15.7347H3.25435C3.27954 15.7914 3.27954 15.8481 3.31103 15.8985C3.31103 15.9551 3.31103 16.0118 3.31103 16.0937C3.42437 16.0937 3.47475 16.1755 3.47475 16.2889C3.47475 16.3141 3.49994 16.3455 3.55661 16.3455V16.5093L3.66996 16.5659V16.7297H3.72663V16.8115H3.78331V17.0886C3.83998 17.1138 3.86517 17.1705 3.86517 17.2271H3.92184V17.3405H3.97852V17.4538H4.03519V17.5672L4.19891 17.6805C4.19891 17.8442 4.25559 17.9324 4.33745 17.9324V18.0458C4.41931 18.0458 4.4508 18.1024 4.4508 18.1843L4.61452 18.2976V18.4614C4.63971 18.4614 4.67119 18.4865 4.67119 18.518H4.8664V18.5999C5.00494 18.6566 5.11829 18.7132 5.16866 18.7951C5.25052 18.877 5.3072 18.9336 5.38906 18.9336V18.9903H5.50241V19.047C5.58427 19.047 5.61575 19.047 5.61575 19.0722H5.69762V19.1288H5.81096L5.92431 19.2926L6.22657 19.3492V19.4059L6.44697 19.4626V19.4878H6.5855V19.5445H6.69885V19.5759H6.97592L7.00111 19.6893H7.33486V19.746H7.41672V19.8026H7.75046V19.8593H7.86381V19.916H8.36128V19.9412H8.47463V19.9978H10.3071V19.9412C10.3889 19.9412 10.4204 19.9412 10.4204 19.916H10.836V19.8593H10.9494V19.8026H11.1446V19.746H11.2579V19.6893H11.4783L11.5035 19.5759H11.7239V19.5193H11.8373V19.4626H12.0577C12.1143 19.3241 12.2214 19.2674 12.3599 19.2674L12.3851 19.154C12.6874 18.9336 12.8826 18.7951 12.9141 18.6818H13.0778C13.1345 18.4299 13.2982 18.2347 13.5501 18.0961C13.5753 17.9828 13.6634 17.8442 13.8271 17.6238C13.909 17.5672 13.9657 17.5105 13.9657 17.4286H14.0223C14.0223 17.372 14.0475 17.2649 14.1357 17.1264H14.1924V16.9627H14.2176C14.2176 16.8808 14.2427 16.8241 14.3309 16.7989V16.6037H14.3876L14.4443 16.3833H14.5009V16.1881H14.5576V16.0244H14.6143V15.8292H14.6709V15.6655H14.6961V15.5521H14.7528V15.4136H14.8095V15.1932C14.8347 15.1932 14.8913 14.9161 14.9732 14.362H15.0299V14.2486H15.0866V14.0534H15.1117V13.9967H15.0866V13.7763C14.8913 13.7511 14.6961 13.7197 14.4505 13.7197V13.7763C14.3687 13.7763 14.2868 13.7511 14.1987 13.7197L13.6445 13.7448L12.87 13.7197C12.6181 13.7197 12.4229 13.7197 12.234 13.7448C12.0703 13.7448 11.9002 13.77 11.7617 13.77C11.5665 13.77 11.3713 13.7449 11.2076 13.7134C10.9557 13.7386 10.6219 13.77 10.263 13.77V13.7197C10.2378 13.7448 10.1811 13.7763 10.1245 13.7763C10.0993 13.7511 10.0993 13.7511 10.0993 13.7197C10.0741 13.6945 10.0426 13.6945 10.0174 13.6945C9.99222 13.6693 9.93555 13.6378 9.85369 13.6126C9.85369 13.5307 9.85369 13.4993 9.8285 13.4741C9.80331 13.4741 9.77182 13.4489 9.74664 13.3607H9.6081C9.6081 13.3355 9.58291 13.3041 9.55143 13.3041V13.0522H9.49475L9.43808 12.7751C9.49475 12.7499 9.55143 12.7184 9.57661 12.6932C9.6018 12.668 9.65848 12.6114 9.74034 12.5799C9.76553 12.4414 9.8222 12.3595 9.90406 12.3028V12.2461H10.1559V12.221H10.2693V12.1643H10.603V12.1076H10.6849V12.0509L11.2139 11.9943L11.2705 11.8809L11.6295 11.9376V11.8809C11.6861 11.8809 11.7113 11.8809 11.7113 11.8809C11.7113 11.9061 11.7113 11.9061 11.7365 11.9376C12.4859 11.9376 12.933 11.9376 13.0715 11.9124C13.21 11.9124 13.38 11.9124 13.5438 11.9124C13.7957 11.9124 13.9342 11.9376 13.9909 11.9943C14.0475 11.9943 14.1294 11.9691 14.2113 11.9376C14.2931 11.9124 14.375 11.8809 14.4631 11.8809V11.9376H14.5765V11.9943H14.8788V12.0509L14.9921 11.9943C15.0173 11.9943 15.0488 12.0195 15.0488 12.0509H15.244V12.1076H15.4644V12.1643H15.5777V12.221C15.6344 12.221 15.6911 12.2461 15.7163 12.3028C15.8296 12.328 15.9115 12.3595 15.9933 12.3595L16.1885 12.6366C16.3271 12.6366 16.4404 12.7184 16.5475 12.8884H16.6041C16.6041 12.9703 16.6293 13.027 16.7175 13.0522V13.3544C16.7742 13.3544 16.7994 13.3796 16.8308 13.4111V14.299L16.7175 14.3557V15.3569H16.6608V15.4388H16.6041C16.6041 15.7473 16.579 15.911 16.4908 15.911V16.3015L16.4089 16.3266V16.6037L16.2956 16.6604V16.9123L16.1822 16.969V17.2208H16.1256V17.3342H16.05V17.6113L15.9681 17.6679V17.8065L15.8548 17.8631V18.0269C15.7981 18.052 15.7414 18.1087 15.7414 18.1654H15.6848V18.2787H15.6281C15.6281 18.3921 15.5714 18.4991 15.4644 18.5873C15.4392 18.6692 15.4077 18.7258 15.3258 18.751V18.9147C15.2692 18.9399 15.2125 18.9966 15.2125 19.0533C15.1306 19.11 15.074 19.1918 15.0173 19.2485C14.9606 19.3052 14.9039 19.3618 14.7969 19.387V19.4689H14.7402C14.6835 19.6641 14.6017 19.7774 14.4883 19.8026C14.4631 19.8278 14.4631 19.8593 14.4631 19.8593C14.4631 19.8845 14.4631 19.8845 14.438 19.8845C14.4128 19.9097 14.3561 19.9097 14.3246 19.9412C14.3246 19.9664 14.2994 19.9978 14.2679 19.9978V20.1112H14.2113L14.0161 20.3883H13.9027C13.8775 20.5268 13.7642 20.6653 13.5941 20.7472C13.3989 20.8039 13.2919 20.8857 13.2919 20.9991H13.1785V21.0558L12.9581 21.1124L12.9015 21.2258H12.7755C12.7189 21.2824 12.6622 21.3076 12.6118 21.3076C12.5866 21.3895 12.5299 21.421 12.4481 21.421V21.4651C12.1143 21.5217 11.9506 21.5784 11.9506 21.6288H11.7302V21.6855H11.6169V21.7421H11.3083V21.7673C11.1131 21.7925 10.8927 21.824 10.6723 21.824V21.8807H10.37V21.9373H10.3008V21.9373Z" fill="#E8D970" stroke="#E8D970" stroke-miterlimit="10" stroke-linecap="round" stroke-linejoin="round"/>
<path d="M25.1304 22.4669V22.4103C25.1053 22.4103 25.0738 22.4103 25.0486 22.4355C25.0234 22.4607 24.9667 22.4607 24.9352 22.4607C24.8786 22.4607 24.8534 22.4355 24.8534 22.404H24.7715V22.4607C24.7463 22.4607 24.7148 22.4355 24.7148 22.404H24.6015V22.3473C24.2929 22.3221 24.0159 22.2906 23.7703 22.2906V22.234H23.6884V22.1773H23.3799V22.1206H23.2413V22.0387H22.9642L21.6859 21.4027V21.2894C21.3837 21.2075 21.1318 20.9808 20.9366 20.5652C20.7162 20.4267 20.521 20.2315 20.3258 20.0363V19.9229H20.2691V19.8096C20.1872 19.7529 20.1306 19.6962 20.1054 19.6144C20.0802 19.5325 20.0235 19.4507 19.9417 19.3625C19.8283 19.2806 19.7779 19.1421 19.7779 19.0036H19.6961V18.8902H19.6394V18.5313H19.5764C19.5764 18.4494 19.5197 18.3676 19.4379 18.3361L19.5197 18.1157L19.3812 18.0338V17.5363C19.2994 17.5112 19.2679 17.4545 19.2427 17.3978C19.2427 17.2593 19.2994 17.1459 19.3812 17.0074C19.3812 16.9507 19.3812 16.9255 19.356 16.894C19.3308 16.894 19.2994 16.894 19.2742 16.894V15.3135H19.3308V15.2001H19.3875V14.3689H19.4442V14.2556H19.526V13.7266H19.5764V13.6133H19.6331V13.2165C19.6583 13.1914 19.715 13.1599 19.7716 13.1599V12.8261L19.885 12.7443V12.3538H19.9102C19.9354 12.3287 19.992 12.2972 20.0235 12.2972C20.0487 12.1838 20.0487 12.102 20.0802 12.0201C20.0802 11.9634 20.1369 11.8816 20.2754 11.7997V11.5478L20.4958 11.3274V11.1637L20.6343 11.107V10.8866C20.7729 10.7481 20.9114 10.6347 21.0499 10.5277C21.0499 10.4458 21.0751 10.364 21.1066 10.2758H21.1633C21.22 10.1625 21.2766 10.1121 21.3585 10.1121V10.0554H21.5222L21.7993 9.72167H21.9126L22.0764 9.46979H22.2716C22.2716 9.38792 22.3282 9.33125 22.4353 9.24939C22.5486 9.19272 22.6305 9.11086 22.6557 8.97232C22.8194 8.97232 22.9076 8.94713 22.9076 8.85897H23.0209C23.0209 8.74563 23.1343 8.66376 23.3232 8.63857L23.3799 8.52522H23.5184C23.5184 8.44336 23.5751 8.41188 23.6821 8.38669C23.764 8.3615 23.8206 8.33002 23.8458 8.30483C23.8458 8.27964 23.8458 8.27964 23.871 8.24816H24.1229L24.2614 7.99627C24.3433 7.99627 24.5133 7.85774 24.7589 7.54918H24.9541L25.0108 7.41064H26.3458V7.4925H26.4591V7.54918H26.8495V7.66253H27.1329L27.1896 7.74439H27.58L27.7185 7.99627H27.8823L27.9389 8.10962H28.1341V8.19148C28.216 8.19148 28.2475 8.19148 28.2727 8.21667C28.2979 8.24186 28.3294 8.27334 28.4112 8.29853C28.4931 8.32372 28.5498 8.3552 28.6064 8.43707C28.6631 8.51893 28.7198 8.60079 28.7701 8.68895H28.9905C29.0157 8.82749 29.0724 8.90935 29.1039 8.96602H29.2676C29.2928 8.99121 29.3243 9.0227 29.3243 9.10456C29.4062 9.10456 29.4628 9.18642 29.4628 9.32496H29.7147C29.7714 9.40682 29.8532 9.48868 29.9351 9.57684C30.017 9.6587 30.0988 9.79724 30.1555 9.93577H30.3192C30.3444 10.0176 30.4326 10.131 30.5144 10.2695H30.5711V10.4332L30.823 10.6284L30.9867 11.1574C31.0686 11.1826 31.1001 11.2393 31.1001 11.3211H31.1567V11.5415L31.2953 11.5667V11.7871C31.3519 11.8123 31.3771 11.869 31.4086 11.9508H31.4653V12.0642H31.522V12.3979L31.6353 12.4546V12.6183H31.692V12.8135H31.7487V13.0087H31.8053V13.311L31.9187 13.3677V13.84H32.032C32.0572 14.3689 32.0887 14.8664 32.0887 15.3953H32.032V15.9495H31.9187L31.9439 16.0628C31.9439 16.1447 31.9439 16.2265 31.9187 16.3147H31.862V16.5351H31.8053V16.6485H31.7487V17.1207C31.7235 17.1459 31.692 17.1774 31.6353 17.1774V17.486H31.5786V17.6245H31.522V17.9016C31.4968 17.9268 31.4401 17.9582 31.4086 17.9582V18.2353C31.3268 18.2605 31.2953 18.3172 31.2953 18.399H31.2134V18.5376H31.1567V18.8398L31.0434 18.8965V19.0602H30.9867V19.1736H30.93C30.93 19.2554 30.9049 19.2869 30.8167 19.3121C30.8167 19.4506 30.7915 19.5325 30.7348 19.5325V19.6459L30.5711 19.7592C30.5711 19.8411 30.5459 19.8977 30.4893 19.9229C30.4326 19.9796 30.4074 20.0363 30.4074 20.1181H30.2689C30.2437 20.1433 30.2437 20.1433 30.2437 20.1433C30.2437 20.1685 30.2437 20.2 30.2185 20.2252C30.1933 20.2504 30.1618 20.3071 30.1618 20.3637H30.0485V20.4204L29.8847 20.4771C29.8595 20.5589 29.8029 20.6723 29.6895 20.7793C29.6077 20.8045 29.5762 20.8612 29.5762 20.8927C29.551 20.9179 29.5195 20.9494 29.4943 20.9494C29.4691 20.9745 29.4125 21.006 29.3306 21.0312C29.2739 21.1446 29.1921 21.2516 29.0535 21.3901C28.9717 21.3901 28.915 21.4468 28.8898 21.5287H28.7701L28.5749 21.7491H28.4112V21.8058C28.2979 21.8309 28.2475 21.8624 28.216 21.8876C28.1908 21.9128 28.0775 21.9443 27.8823 21.9443V22.0262L27.6304 22.108V22.1647H27.5485V22.2214H27.2966V22.278H27.1833V22.3347H26.6858L26.6291 22.4481H25.1304V22.4669ZM25.8546 20.4393H26.5473V20.3826H26.6606V20.3574H26.8558V20.3008H26.9377V20.2441L27.2148 20.1874V20.1307H27.4667C27.4667 20.0489 27.4918 20.0174 27.5233 19.9922H27.6871L27.7437 19.8789C27.8571 19.8789 27.9389 19.8537 27.9956 19.797C28.0523 19.7403 28.1341 19.6836 28.2475 19.6585C28.3042 19.5199 28.3608 19.4066 28.4679 19.3247C28.4931 19.2995 28.5246 19.268 28.5812 19.2428C28.6379 19.2428 28.6631 19.1862 28.6631 19.1043C28.7198 18.991 28.8268 18.8839 28.9968 18.7706V18.4116H29.1102L29.1921 18.1912H29.2487V17.9142H29.3054V17.8008H29.3873C29.3873 17.719 29.4439 17.6623 29.5006 17.6371V17.4419L29.614 17.3852V17.0767H29.6706V16.9633H29.7273V16.5477C29.784 16.5477 29.8092 16.5225 29.8407 16.491V16.0754C29.8973 16.0754 29.9225 16.0754 29.954 16.0754C29.954 16.0502 29.9792 16.0502 30.0107 16.0187V14.0478L29.8469 13.9911V13.544L29.7336 13.4873V13.2165L29.6203 13.1599V12.8576L29.5069 12.8009V12.6057L29.3936 12.5491V12.3853L29.255 12.3035V12.1397L29.1732 12.0831V11.9193L28.978 11.7556L28.9528 11.5352C28.8961 11.5352 28.8709 11.51 28.8394 11.4786C28.7827 11.4219 28.7576 11.3967 28.7261 11.3967C28.6127 11.2833 28.5309 11.1763 28.4742 11.0063C28.3105 10.9496 28.1404 10.8111 28.0019 10.5907C28.0019 10.5655 27.8886 10.534 27.7248 10.5088C27.6682 10.4836 27.6115 10.4269 27.5863 10.3451C27.5044 10.3451 27.4226 10.2884 27.3911 10.2317C27.3092 10.2317 27.2526 10.1751 27.2274 10.1184H27.0636C27.0636 10.0617 27.0636 10.0365 27.007 10.005C26.8684 9.94837 26.7866 9.92318 26.7866 9.89169L26.5662 9.83502V9.77835H26.4024L26.3458 9.63981H25.4831V9.69648H25.3697V9.77835H25.206V9.83502H25.0927V9.89169H24.9541L24.9289 10.005H24.7337C24.7085 10.0617 24.6519 10.1184 24.5952 10.1184V10.1751C24.5133 10.1751 24.4567 10.2002 24.4315 10.2884L24.1796 10.3451L24.1229 10.4584H23.9592V10.5151H23.8458C23.8206 10.597 23.764 10.6284 23.6821 10.6284L23.5184 10.8488H23.405V10.9055C23.3232 10.9055 23.2665 10.9307 23.2413 11.0189H23.1846C23.1595 11.1007 23.128 11.1574 23.128 11.2141H23.0713V11.3274C22.9894 11.3526 22.9328 11.3841 22.9328 11.4408C22.9076 11.4974 22.9076 11.5226 22.8761 11.5226C22.8509 11.5478 22.8194 11.5793 22.8194 11.636C22.7942 11.6927 22.7376 11.7178 22.6557 11.7178C22.6557 11.9697 22.599 12.0768 22.492 12.0768L22.4101 12.102V12.3224L22.2716 12.4042V12.6246H22.2149C22.1897 12.7065 22.1582 12.7632 22.1582 12.8198C22.1582 12.845 22.1015 12.8765 21.9945 12.8765V13.2921H21.8811V13.7077H21.8245V13.7896H21.7678C21.7426 13.9533 21.7111 14.0667 21.7111 14.18H21.6293V14.816H21.5726V15.0931H21.5159V15.7858L21.4026 15.8424C21.4592 15.9558 21.4592 16.0628 21.4592 16.151C21.4341 16.151 21.4026 16.1762 21.4026 16.2328C21.4844 16.5351 21.5159 16.957 21.5159 17.4545H21.5726V17.763H21.6293V18.0401L21.7678 18.0968V18.3172H21.8245V18.4305H21.8811V18.7895H21.9945V18.9532C22.0764 18.9532 22.1582 19.0099 22.2149 19.1169V19.2302L22.7124 19.6773L22.769 19.7907L23.0209 19.8474C23.0209 19.9607 23.1343 20.0111 23.298 20.0111V20.0929L23.6317 20.2063V20.263H23.8521V20.3196H23.9655V20.3763H24.4944L24.5511 20.4582H24.9982C25.3319 20.5149 25.609 20.5149 25.8861 20.5149V20.4393H25.8546Z" fill="#E8D970" stroke="#E8D970" stroke-miterlimit="10" stroke-linecap="round" stroke-linejoin="round"/>
<path d="M37.101 23.2728L36.7672 22.8823H36.572L36.295 22.5486H36.2383V21.6859C36.3201 21.6607 36.3516 21.604 36.3516 21.5474C36.3516 21.4907 36.3516 21.4655 36.4083 21.434C36.4335 21.434 36.465 21.4088 36.465 21.4088C36.465 21.3836 36.4902 21.3836 36.4902 21.3836C36.5154 21.3836 36.5468 21.3836 36.572 21.3584C36.5972 21.2766 36.6287 21.1947 36.6539 21.1632C36.7106 21.138 36.7358 21.0814 36.7672 20.968C37.0191 20.9113 37.1262 20.8043 37.1577 20.6343C37.2395 20.6091 37.3214 20.5776 37.4599 20.5776H38.0141C38.0707 20.6595 38.1274 20.6909 38.1778 20.6909C38.2345 20.6909 38.2596 20.7161 38.3163 20.7728C38.4297 20.9932 38.6186 21.1317 38.8705 21.2451V21.6355L39.009 21.6922V22.1078C38.8956 22.1645 38.8453 22.2463 38.8138 22.3597C38.7886 22.473 38.7319 22.5549 38.5934 22.6367L38.203 23.0838L37.9511 23.1657L37.8692 23.279H37.101V23.2728ZM38.6564 18.8018C38.5997 18.72 38.436 18.6633 38.1589 18.6633C38.1589 18.6381 38.1337 18.5814 38.1022 18.5814C38.077 18.5562 38.0455 18.5248 38.0204 18.4681C37.9952 18.4429 37.907 18.4114 37.7433 18.4114C37.7181 18.191 37.6866 17.8825 37.6866 17.492V16.7679H37.7433C37.8 16.6293 37.8251 16.516 37.8251 16.3523H37.8818V16.2389C37.9385 16.2389 37.9385 16.2137 37.9385 16.1571L37.8818 15.9367H37.9385V15.8233H38.0204V15.6281H38.077C38.1022 15.6029 38.1337 15.3258 38.1589 14.8536H38.2408L38.2659 14.1609C38.2659 14.1042 38.2911 14.079 38.3478 14.0475V13.7957H38.4045V13.5753H38.4863V13.0211H38.543V12.8574H38.5997V12.3599L38.7382 12.3032V11.5791H38.7949C38.8201 11.5539 38.8768 11.2201 38.9586 10.5527H39.0153V10.3008H39.072V10.1056H39.1286L39.072 9.8285H39.1286C39.1538 9.74663 39.1853 9.68996 39.2672 9.63329C39.2672 9.6081 39.242 9.57662 39.2105 9.57662C39.2105 9.49475 39.2357 9.43808 39.2672 9.3814C39.2672 9.32473 39.242 9.24287 39.2105 9.16101H39.2672V8.9658C39.2924 8.9658 39.3238 8.94061 39.3238 8.90912H39.2672C39.2672 8.88394 39.2924 8.85245 39.3238 8.85245C39.3238 8.65724 39.349 8.57538 39.349 8.57538C39.3742 8.57538 39.4057 8.55019 39.4057 8.51871H39.3238V8.43684H39.4057V8.05272H39.4624V7.889H39.5191V7.33485H39.6324V7.22151H39.6891C39.6324 7.13965 39.6324 7.05778 39.6324 7.00111H39.6891V6.74923H39.7458V6.49735H39.8024V6.08174H39.8843V5.9432H39.941V5.27571H39.9976V5.16237H40.0543V4.80343L40.2495 4.69009V3.90925H40.3314V3.5818H40.4132V3.16619H40.4699V3.05285H40.5266V2.66243H40.6085V2.54908H40.6651V1.99494L40.7974 1.94456V1.61082L41.1878 1.27707C41.1878 1.13854 41.213 1.05667 41.2696 1H41.8553L41.8805 1.05667C42.2961 1.50376 42.5479 1.74935 42.655 1.83751V3.92184C42.5417 4.0037 42.4913 4.06038 42.4598 4.08557L42.4346 4.69638H42.3527V5.16866L42.2394 5.22534C42.2646 5.44573 42.2961 5.67243 42.2961 5.89282H42.2394L42.1827 6.14471H42.1009C42.126 6.33992 42.126 6.50364 42.1827 6.67366H42.1009V7.00741L41.9875 7.08927V7.28448L41.849 7.34115V8.20385L41.9056 8.26053C41.9056 8.3172 41.9056 8.34239 41.849 8.34239C41.7923 8.50611 41.7356 8.61946 41.6853 8.61946V9.23028H41.6286V9.45067H41.5719V10.0615L41.4334 10.1182V10.7857H41.3767V10.9809H41.32V11.428H41.2633V11.5917H41.1815V12.0891L41.0429 12.1458C41.0429 12.7 40.9863 12.977 40.9044 13.0337V13.7012L40.7974 13.7201V14.249H40.7155V14.3876H40.6588V14.8599L40.5203 14.9165V15.1684H40.4636V15.3321H40.4069V16.0563H40.3251V16.1696H40.2432V16.4215C40.218 16.4467 40.1865 16.4467 40.1614 16.5034H40.048C40.048 16.7553 40.048 16.919 39.9913 17.0323H39.9347V17.2276L39.7961 17.2842V17.6872C39.7143 17.6872 39.6828 17.7124 39.6828 17.7439L39.5191 18.1343H39.4624C39.4057 18.2981 39.2987 18.4114 39.1286 18.4114L38.7949 18.8018H38.6564V18.8018Z" fill="#E8D970" stroke="#E8D970" stroke-miterlimit="10" stroke-linecap="round" stroke-linejoin="round"/>
</svg>
