<svg width="306" height="56" viewBox="0 0 306 56" fill="none" xmlns="http://www.w3.org/2000/svg">
<g opacity="0.94">
<path d="M26.8533 13.2127L26.2673 36.0933L28.8509 36.052C29.3379 36.052 29.668 36.1428 29.8496 36.3244C30.0312 36.506 30.122 36.8196 30.122 37.2736V40.0883C30.122 40.5423 30.0312 40.8642 29.8496 41.0458C29.668 41.2274 29.3379 41.3182 28.8509 41.3182L6.83694 41.7721C6.34994 41.7721 6.01978 41.6814 5.83819 41.4998C5.65659 41.3182 5.5658 41.0045 5.5658 40.5423V37.7276C5.5658 37.2736 5.65659 36.9517 5.83819 36.7701C6.01978 36.5885 6.34994 36.4977 6.83694 36.4977L9.56082 36.4565L9.37923 13.5759L6.38296 13.6254C5.89596 13.6254 5.5658 13.5346 5.38421 13.353C5.20261 13.1714 5.11182 12.8495 5.11182 12.3955V9.58083C5.11182 9.12685 5.20261 8.81319 5.38421 8.62334C5.5658 8.44175 5.89596 8.35095 6.38296 8.35095L29.3544 7.89697C29.8414 7.89697 30.1715 7.98777 30.3531 8.16936C30.5347 8.35095 30.6255 8.67287 30.6255 9.12685V11.9415C30.6255 12.3955 30.5347 12.7092 30.3531 12.8908C30.1715 13.0723 29.8414 13.1631 29.3544 13.1631L26.8533 13.2127ZM15.2727 36.3657L20.5389 36.2253L21.0837 13.3447L15.0911 13.4355L15.2727 36.3657ZM35.025 10.0348C35.025 9.58083 35.1158 9.26717 35.2974 9.08557C35.479 8.90398 35.8091 8.81319 36.2961 8.81319H39.474C39.961 8.81319 40.2912 8.90398 40.4727 9.08557C40.6543 9.26717 40.7451 9.58083 40.7451 10.0348V39.1803C40.7451 39.6343 40.6543 39.948 40.4727 40.1296C40.2912 40.3112 39.961 40.402 39.474 40.402H36.2961C35.8091 40.402 35.479 40.3112 35.2974 40.1296C35.1158 39.948 35.025 39.6343 35.025 39.1803V10.0348Z" fill="#191919" stroke="white" stroke-width="10" stroke-miterlimit="10" stroke-linecap="round" stroke-linejoin="round"/>
<path d="M64.7979 34.9875C65.1281 34.9875 65.3592 35.0453 65.4913 35.1608C65.6233 35.2764 65.6894 35.524 65.6894 35.9037V38.1076C65.6894 38.512 65.6233 38.7762 65.4913 38.9082C65.3592 39.0403 65.1446 39.1063 64.8309 39.1063L57.7323 39.2466V44.4633C57.7323 44.8182 57.658 45.0658 57.5177 45.2062C57.3774 45.3465 57.1133 45.4208 56.7336 45.4208H54.2491C53.8694 45.4208 53.6135 45.3465 53.4649 45.2062C53.3163 45.0658 53.2503 44.8182 53.2503 44.4633V39.3127L46.292 39.453C45.9866 39.453 45.7638 39.387 45.6317 39.2549C45.4996 39.1228 45.4336 38.8587 45.4336 38.4542V36.2504C45.4336 35.8707 45.4996 35.6231 45.6317 35.5075C45.7638 35.3919 45.9949 35.3342 46.325 35.3342L64.7979 34.9875ZM64.1211 31.3309C64.1211 31.6858 64.0468 31.9252 63.9065 32.0572C63.7661 32.1893 63.502 32.2636 63.1223 32.2884L47.3321 32.6433C46.9524 32.6681 46.6965 32.602 46.5479 32.4452C46.4076 32.2884 46.3333 32.0407 46.3333 31.6858L45.9784 16.3495C45.9784 15.9946 46.0527 15.747 46.193 15.6067C46.3333 15.4663 46.5974 15.392 46.9771 15.392L63.8734 15.0371C64.2531 15.0371 64.509 15.1114 64.6576 15.2517C64.7979 15.392 64.8722 15.6397 64.8722 15.9946V18.1985C64.8722 18.5534 64.7979 18.801 64.6576 18.9413C64.5173 19.0817 64.2531 19.156 63.8734 19.156L50.5264 19.4366L50.5594 21.8881L62.916 21.6074C63.2956 21.6074 63.5515 21.6817 63.7001 21.8221C63.8487 21.9624 63.9147 22.21 63.9147 22.5649V24.7688C63.9147 25.1237 63.8404 25.3714 63.7001 25.5117C63.5598 25.652 63.2956 25.7263 62.916 25.7263L50.6668 26.0069L50.6998 28.4584L63.1223 28.1778C63.502 28.153 63.7579 28.219 63.9065 28.3759C64.0468 28.5327 64.1211 28.7803 64.1211 29.1353V31.3309V31.3309ZM68.3142 16.7045C68.3142 16.3495 68.3885 16.1019 68.5288 15.9616C68.6691 15.8213 68.9333 15.747 69.313 15.747H71.7975C72.1772 15.747 72.433 15.8213 72.5816 15.9616C72.7219 16.1019 72.7962 16.3495 72.7962 16.7045V40.914C72.7962 41.2689 72.7219 41.5165 72.5816 41.6569C72.4413 41.7972 72.1772 41.8715 71.7975 41.8715H69.313C68.9333 41.8715 68.6774 41.7972 68.5288 41.6569C68.3885 41.5165 68.3142 41.2689 68.3142 40.914V16.7045Z" fill="#191919" stroke="white" stroke-width="10" stroke-miterlimit="10" stroke-linecap="round" stroke-linejoin="round"/>
<path d="M76.6921 16.3495C76.6921 15.9946 76.7664 15.747 76.9067 15.6067C77.047 15.4663 77.3111 15.392 77.6908 15.392L94.2322 15.0371C94.6119 15.0371 94.8843 15.1114 95.0494 15.2517C95.2145 15.392 95.2723 15.6397 95.2227 15.9946L92.3503 40.2041C92.3008 40.5591 92.2017 40.8067 92.0449 40.947C91.888 41.0873 91.6239 41.1616 91.2442 41.1616H88.7597C88.38 41.1616 88.1241 41.0873 88.0003 40.947C87.8683 40.8067 87.827 40.5591 87.8765 40.2041L90.361 19.255L77.6826 19.5026C77.3029 19.5026 77.047 19.4283 76.8984 19.288C76.7499 19.1477 76.6838 18.9001 76.6838 18.5451V16.3495H76.6921ZM99.7378 16.7045C99.7378 16.3495 99.8121 16.1019 99.9524 15.9616C100.093 15.8213 100.357 15.747 100.737 15.747H103.221C103.601 15.747 103.857 15.8213 104.005 15.9616C104.146 16.1019 104.22 16.3495 104.22 16.7045V39.5025C104.22 39.8574 104.146 40.1051 104.005 40.2454C103.865 40.3857 103.601 40.46 103.221 40.46H100.737C100.357 40.46 100.101 40.3857 99.9524 40.2454C99.8121 40.1051 99.7378 39.8574 99.7378 39.5025V16.7045Z" fill="#191919" stroke="white" stroke-width="10" stroke-miterlimit="10" stroke-linecap="round" stroke-linejoin="round"/>
<path d="M131.615 30.6215C131.945 30.6215 132.177 30.6792 132.309 30.7948C132.441 30.9103 132.507 31.1662 132.507 31.5377V33.7415C132.507 34.146 132.441 34.4101 132.309 34.5422C132.177 34.6743 131.962 34.7403 131.648 34.7403L109.634 35.0952C109.329 35.0952 109.106 35.0292 108.974 34.8971C108.842 34.7651 108.776 34.5009 108.776 34.0965V31.8926C108.776 31.5129 108.842 31.2653 108.974 31.1497C109.106 31.0342 109.337 30.9681 109.667 30.9681L131.615 30.6215ZM112.408 14.6826C112.787 14.6826 113.043 14.7569 113.167 14.8972C113.299 15.0375 113.373 15.2852 113.398 15.6401L113.613 24.307L131.046 23.9851C131.425 23.9851 131.681 24.0594 131.83 24.1997C131.97 24.34 132.044 24.5876 132.044 24.9426V27.1464C132.044 27.5014 131.97 27.749 131.83 27.8893C131.69 28.0296 131.425 28.1039 131.046 28.1039L110.245 28.4589C109.865 28.4589 109.61 28.3846 109.461 28.2442C109.312 28.1039 109.246 27.8563 109.246 27.5014L108.924 15.6401C108.9 15.2852 108.966 15.0375 109.123 14.8972C109.279 14.7569 109.544 14.6826 109.923 14.6826H112.408V14.6826ZM110.385 47.3444C110.006 47.3444 109.75 47.2701 109.601 47.1298C109.461 46.9895 109.387 46.7419 109.387 46.3869V38.5372C109.387 38.1823 109.461 37.9347 109.601 37.7943C109.742 37.654 110.006 37.5797 110.385 37.5797H112.87C113.25 37.5797 113.506 37.654 113.654 37.7943C113.803 37.9347 113.869 38.1823 113.869 38.5372V43.1513L131.087 42.9037C131.417 42.9037 131.648 42.9615 131.78 43.077C131.912 43.1926 131.978 43.4402 131.978 43.8199V46.0898C131.978 46.4695 131.921 46.7171 131.805 46.8327C131.69 46.9482 131.458 47.006 131.128 47.006L110.385 47.3444Z" fill="#191919" stroke="white" stroke-width="10" stroke-miterlimit="10" stroke-linecap="round" stroke-linejoin="round"/>
<path d="M159.316 18.0249C159.737 17.7855 160.001 17.5791 160.109 17.4141C160.216 17.249 160.266 16.9105 160.266 16.3905V9.12685C160.266 8.67287 160.356 8.35095 160.538 8.16936C160.72 7.98777 161.05 7.89697 161.537 7.89697H164.715C165.202 7.89697 165.532 7.98777 165.713 8.16936C165.895 8.35095 165.986 8.67287 165.986 9.12685V16.2997C165.986 16.8115 166.035 17.1582 166.126 17.3233C166.217 17.4883 166.489 17.6947 166.943 17.9341L178.384 23.745C178.804 23.9596 179.052 24.1825 179.11 24.4301C179.168 24.6695 179.077 24.9914 178.837 25.3793L177.162 28.194C176.947 28.5242 176.733 28.7223 176.502 28.7801C176.279 28.8378 175.949 28.747 175.528 28.5077L162.998 22.0116L150.831 28.9617C150.468 29.1763 150.162 29.2423 149.923 29.168C149.684 29.0937 149.428 28.8461 149.147 28.4169L147.653 26.0067C147.414 25.6435 147.315 25.3298 147.356 25.0739C147.397 24.8181 147.637 24.5704 148.058 24.3228L159.316 18.0249ZM177.154 31.4627C177.575 31.4627 177.872 31.537 178.037 31.6938C178.202 31.8424 178.284 32.1643 178.284 32.6513V35.4659C178.284 35.9777 178.202 36.3244 178.037 36.4895C177.872 36.6546 177.591 36.7371 177.195 36.7371L165.986 36.9187V45.5443C165.986 45.9983 165.895 46.3119 165.713 46.4935C165.532 46.6751 165.202 46.7659 164.715 46.7659H161.537C161.05 46.7659 160.72 46.6751 160.538 46.4935C160.356 46.3119 160.266 45.9983 160.266 45.5443V37.0012L149.056 37.1828C148.66 37.1828 148.38 37.1003 148.214 36.9352C148.049 36.7701 147.967 36.4317 147.967 35.9117V33.097C147.967 32.61 148.049 32.2963 148.214 32.1395C148.38 31.9909 148.677 31.9167 149.098 31.9167L177.154 31.4627Z" fill="#191919" stroke="white" stroke-width="10" stroke-miterlimit="10" stroke-linecap="round" stroke-linejoin="round"/>
<path d="M183.65 9.1277C183.65 8.67372 183.74 8.35181 183.922 8.17021C184.104 7.98862 184.434 7.89783 184.921 7.89783L205.168 7.44385C205.655 7.44385 206.002 7.53464 206.217 7.71623C206.431 7.89783 206.506 8.21974 206.439 8.67372L203.674 28.4177C203.617 28.8717 203.484 29.1854 203.286 29.3752C203.088 29.5568 202.75 29.6476 202.263 29.6476H199.085C198.598 29.6476 198.276 29.5568 198.111 29.3752C197.946 29.1936 197.888 28.8717 197.954 28.4177L200.133 12.8421L184.929 13.1557C184.442 13.1557 184.112 13.0649 183.93 12.8834C183.749 12.7018 183.658 12.3881 183.658 11.9341V9.1277H183.65ZM205.078 50.118C203.08 50.118 201.347 49.8704 199.877 49.3669C198.408 48.8633 197.195 48.203 196.221 47.3693C195.255 46.5357 194.537 45.5782 194.066 44.4886C193.596 43.3991 193.365 42.2683 193.365 41.0797C193.365 39.8993 193.596 38.7685 194.066 37.6707C194.537 36.5811 195.255 35.6236 196.221 34.79C197.187 33.9563 198.408 33.2877 199.877 32.7924C201.347 32.2889 203.08 32.0413 205.078 32.0413C207.075 32.0413 208.808 32.2889 210.278 32.7924C211.747 33.2877 212.96 33.9563 213.934 34.79C214.9 35.6236 215.618 36.5811 216.089 37.6707C216.559 38.7602 216.79 39.8993 216.79 41.0797C216.79 42.26 216.559 43.3991 216.089 44.4886C215.618 45.5782 214.9 46.5357 213.934 47.3693C212.969 48.203 211.747 48.8633 210.278 49.3669C208.8 49.8704 207.067 50.118 205.078 50.118ZM205.078 45.1737C207.075 45.1737 208.553 44.7858 209.502 44.0181C210.451 43.2422 210.93 42.2683 210.93 41.0879C210.93 39.9076 210.451 38.9336 209.502 38.1577C208.544 37.3818 207.075 37.0021 205.078 37.0021C203.08 37.0021 201.603 37.39 200.653 38.1577C199.696 38.9253 199.225 39.9076 199.225 41.0879C199.225 42.2683 199.704 43.2422 200.653 44.0181C201.603 44.7858 203.08 45.1737 205.078 45.1737ZM211.293 9.1277C211.293 8.67372 211.384 8.35181 211.565 8.17021C211.747 7.98862 212.077 7.89783 212.564 7.89783H215.742C216.229 7.89783 216.559 7.98862 216.741 8.17021C216.922 8.35181 217.013 8.67372 217.013 9.1277V16.2511L220.422 16.1107C220.843 16.0777 221.14 16.152 221.305 16.3171C221.47 16.4822 221.553 16.8123 221.553 17.2911V20.1058C221.553 20.6175 221.47 20.9559 221.305 21.1045C221.14 21.2531 220.86 21.3439 220.463 21.3769L217.013 21.5172V28.7396C217.013 29.1936 216.922 29.5155 216.741 29.6971C216.559 29.8787 216.229 29.9695 215.742 29.9695H212.564C212.077 29.9695 211.747 29.8787 211.565 29.6971C211.384 29.5155 211.293 29.1936 211.293 28.7396V9.1277Z" fill="#191919" stroke="white" stroke-width="10" stroke-miterlimit="10" stroke-linecap="round" stroke-linejoin="round"/>
<path d="M240.843 19.2473C240.843 19.7921 240.86 20.2461 240.893 20.6093C240.926 20.9725 241.148 21.3026 241.578 21.608L250.162 27.6914C250.467 27.9307 250.608 28.1619 250.591 28.3765C250.575 28.5911 250.451 28.8469 250.203 29.1441L248.115 31.6451C247.876 31.9505 247.628 32.0991 247.389 32.0991C247.149 32.0991 246.86 31.9753 246.522 31.7359L238.037 25.7021L229.683 32.3302C229.353 32.5696 229.081 32.6851 228.866 32.6686C228.652 32.6521 228.396 32.4953 228.09 32.1899L225.771 29.8787C225.226 29.3339 225.226 28.8387 225.771 28.3847L234.397 21.575C234.793 21.2448 235.007 20.8982 235.057 20.5515C235.106 20.2048 235.123 19.7591 235.123 19.2143V8.67372C235.123 8.21974 235.214 7.89783 235.395 7.71623C235.577 7.53464 235.907 7.44385 236.394 7.44385H239.572C240.059 7.44385 240.389 7.53464 240.571 7.71623C240.752 7.89783 240.843 8.21974 240.843 8.67372V19.2473V19.2473ZM234.537 49.21C234.05 49.21 233.72 49.1192 233.538 48.9376C233.356 48.756 233.266 48.4341 233.266 47.9801V35.4586C233.266 35.0046 233.356 34.6827 233.538 34.5011C233.72 34.3195 234.05 34.2287 234.537 34.2287H237.715C238.202 34.2287 238.532 34.3195 238.713 34.5011C238.895 34.6827 238.986 34.9963 238.986 35.4586V43.8531L258.738 43.4899C259.159 43.4899 259.456 43.5642 259.621 43.721C259.786 43.8696 259.869 44.1915 259.869 44.6702V47.5757C259.869 48.0627 259.795 48.3763 259.638 48.5332C259.489 48.6818 259.2 48.756 258.779 48.756L234.537 49.21ZM255.098 9.1277C255.098 8.67372 255.189 8.35181 255.37 8.17021C255.552 7.98862 255.882 7.89783 256.369 7.89783H259.547C260.034 7.89783 260.364 7.98862 260.546 8.17021C260.727 8.35181 260.818 8.67372 260.818 9.1277V32.8255C260.818 33.2794 260.727 33.5931 260.546 33.7829C260.364 33.9645 260.034 34.0553 259.547 34.0553H256.369C255.882 34.0553 255.552 33.9645 255.37 33.7829C255.189 33.6014 255.098 33.2794 255.098 32.8255V9.1277Z" fill="#191919" stroke="white" stroke-width="10" stroke-miterlimit="10" stroke-linecap="round" stroke-linejoin="round"/>
<path d="M275.305 8.67311V6.22162C275.305 5.76764 275.395 5.45398 275.577 5.27239C275.759 5.09079 276.089 5 276.576 5H279.754C280.241 5 280.571 5.09079 280.752 5.27239C280.934 5.45398 281.025 5.76764 281.025 6.22162V8.54104L289.064 8.35945C289.485 8.35945 289.782 8.43374 289.947 8.59057C290.113 8.73914 290.195 9.06106 290.195 9.54805V12.3627C290.195 12.8745 290.113 13.2212 289.947 13.3862C289.782 13.5513 289.502 13.6339 289.106 13.6339L281.025 13.8155V16.9933C281.025 17.5381 281.041 17.9921 281.074 18.3553C281.107 18.7185 281.33 19.0486 281.759 19.354L290.344 25.4374C290.649 25.6767 290.789 25.9078 290.773 26.1225C290.756 26.3371 290.633 26.5929 290.385 26.8901L288.297 29.3911C288.057 29.6965 287.81 29.8451 287.57 29.8451C287.331 29.8451 287.042 29.7213 286.704 29.4819L278.218 23.4481L269.865 30.0762C269.535 30.3156 269.262 30.4311 269.048 30.4146C268.833 30.3981 268.577 30.2413 268.272 29.9359L265.953 27.6247C265.408 27.0799 265.408 26.5847 265.953 26.1307L274.578 19.321C274.974 18.9908 275.189 18.6442 275.238 18.2975C275.288 17.9508 275.305 17.5051 275.305 16.9603V13.964L267.133 14.1044C266.737 14.1044 266.456 14.0218 266.291 13.8567C266.126 13.6917 266.043 13.3532 266.043 12.8332V10.0185C266.043 9.53155 266.126 9.21789 266.291 9.06106C266.456 8.91248 266.753 8.83819 267.174 8.83819L275.305 8.67311ZM286.786 50.1174C284.789 50.1174 283.055 49.8697 281.586 49.3662C280.117 48.8627 278.903 48.2024 277.929 47.3687C276.964 46.5351 276.245 45.5776 275.775 44.488C275.305 43.3985 275.073 42.2676 275.073 41.079C275.073 39.8987 275.305 38.7679 275.775 37.6701C276.245 36.5805 276.964 35.623 277.929 34.7893C278.895 33.9557 280.117 33.2871 281.586 32.7918C283.055 32.2883 284.789 32.0407 286.786 32.0407C288.784 32.0407 290.517 32.2883 291.986 32.7918C293.455 33.2871 294.669 33.9557 295.643 34.7893C296.609 35.623 297.327 36.5805 297.797 37.6701C298.268 38.7596 298.499 39.8987 298.499 41.079C298.499 42.2594 298.268 43.3985 297.797 44.488C297.327 45.5776 296.609 46.5351 295.643 47.3687C294.677 48.2024 293.455 48.8627 291.986 49.3662C290.517 49.8697 288.784 50.1174 286.786 50.1174ZM286.786 45.1731C288.784 45.1731 290.261 44.7852 291.21 44.0175C292.168 43.2416 292.638 42.2676 292.638 41.0873C292.638 39.9069 292.16 38.933 291.21 38.1571C290.261 37.3812 288.784 37.0015 286.786 37.0015C284.789 37.0015 283.311 37.3894 282.362 38.1571C281.413 38.9247 280.934 39.9069 280.934 41.0873C280.934 42.2676 281.413 43.2416 282.362 44.0175C283.319 44.7852 284.789 45.1731 286.786 45.1731ZM295.28 16.1679V9.12709C295.28 8.67311 295.37 8.3512 295.552 8.1696C295.734 7.98801 296.064 7.89722 296.551 7.89722H299.729C300.216 7.89722 300.546 7.98801 300.727 8.1696C300.909 8.3512 301 8.67311 301 9.12709V28.739C301 29.193 300.909 29.5149 300.727 29.6965C300.546 29.8781 300.216 29.9689 299.729 29.9689H296.551C296.064 29.9689 295.734 29.8781 295.552 29.6965C295.37 29.5149 295.28 29.193 295.28 28.739V21.4341L288.924 21.5744C288.503 21.5744 288.206 21.5001 288.041 21.3433C287.876 21.1947 287.793 20.8728 287.793 20.3858V17.4803C287.793 16.9933 287.876 16.6797 288.041 16.5228C288.206 16.3743 288.503 16.2917 288.924 16.2917L295.28 16.1679Z" fill="#191919" stroke="white" stroke-width="10" stroke-miterlimit="10" stroke-linecap="round" stroke-linejoin="round"/>
</g>
</svg>
