<svg width="121" height="112" viewBox="0 0 121 112" fill="none" xmlns="http://www.w3.org/2000/svg">
<path d="M120.767 52.6973C120.145 64.9698 116.987 75.8644 109.619 85.4996C103.872 93.0162 97.1362 99.1648 88.8094 103.679C82.4298 107.141 75.7634 109.832 68.603 110.825C58.7592 112.188 48.8264 112.366 39.1901 109.487C33.4627 107.778 28.1109 105.15 23.0507 101.763C15.1539 96.4634 8.87301 89.8259 4.86531 81.2919C0.936686 72.9259 -0.699003 64.1006 0.274506 54.7024C1.11459 46.5783 3.44211 39.1111 7.39051 32.0538C10.8892 25.8016 15.4948 20.3691 20.8714 15.7712C26.3813 11.0598 32.6622 7.40024 39.4866 4.69388C47.4971 1.51341 55.8436 0.0713283 64.3531 0.00218762C70.041 -0.0471986 75.7288 0.738043 81.2536 2.51595C86.5017 4.20989 91.5521 6.24954 96.2022 9.20778C105.137 14.8823 111.956 22.4384 116.265 32.1378C119.23 38.7901 120.683 45.7832 120.767 52.6973Z" fill="#35363E"/>
<path d="M75.7288 77.0684C77.0778 78.0759 78.3676 78.6537 79.7513 77.0388C81.1448 75.409 82.2666 76.6881 83.6849 77.3055C88.6759 79.4933 91.7496 83.5281 94.6751 87.8149C95.9155 89.6323 96.0193 91.83 96.9088 93.761C97.3288 94.6746 96.716 95.2277 95.9946 95.7759C89.8323 100.448 83.1709 104.083 75.7139 106.335C68.7314 108.448 61.6845 109.999 54.3709 109.555C47.3339 109.13 40.4601 107.762 33.9321 104.952C31.402 103.865 28.7434 103.051 26.6036 101.208C26.1589 100.823 25.64 100.7 25.8624 99.7219C26.9545 94.882 28.4271 90.215 30.893 85.8641C31.8813 84.1208 33.433 82.9799 34.7722 81.607C35.3899 80.9699 36.9614 80.6736 36.146 79.5229C35.4294 78.5105 34.1792 79.2217 33.26 79.7797C30.7596 81.2909 29.198 83.6516 27.5969 86.0024C25.388 89.2323 24.627 92.9905 23.6139 96.6352C23.0456 98.6798 22.5317 98.9021 20.9504 97.5439C14.3928 91.9189 9.07552 85.2962 6.01663 77.2265C2.63159 68.2925 1.80633 59.0671 3.75334 49.5158C5.06289 43.0759 7.49419 37.11 10.7409 31.6528C13.6614 26.734 17.4418 22.1658 21.9881 18.4667C26.0353 15.1776 30.1863 12.0663 34.9551 9.77969C42.9062 5.96707 51.0847 3.31503 59.9698 2.7224C66.7547 2.26804 73.3271 3.21626 79.8205 4.77687C86.976 6.49551 93.3162 10.0711 99.177 14.4714C105.023 18.8618 109.495 24.5215 112.717 30.9516C116.755 39.0114 118.449 47.6392 117.723 56.7954C116.878 67.4035 112.752 76.5499 106.599 85.0097C104.86 87.4 103.007 89.6273 100.763 91.5633C99.7996 92.393 99.4191 92.2596 98.925 91.1287C97.1707 87.1037 95.7376 82.896 92.1845 79.9229C89.9855 78.0808 87.821 76.1449 85.1426 75.1127C83.5119 74.4855 83.8924 73.72 84.4854 72.7817C84.8264 72.2384 85.3304 71.7495 85.8592 71.3841C90.0744 68.495 91.3988 63.9761 92.1994 59.3931C92.6985 56.5188 91.9819 53.5309 90.5538 50.8641C90.1436 50.0986 89.9855 49.501 90.3759 48.6071C91.2555 46.5872 89.9212 44.7451 89.4024 42.9425C87.6777 36.9717 85.5676 31.1392 82.8102 25.524C80.1219 20.057 76.2328 20.6298 72.996 25.282C71.4394 27.5192 69.6357 29.6329 69.4578 32.5813C69.3935 33.6727 68.3805 33.5295 67.5404 33.5641C59.9253 33.8505 52.2904 33.811 44.6901 34.5222C44.0378 34.5814 43.2472 34.374 43.1137 35.258C42.9309 36.4779 44.0971 36.231 44.6605 36.3149C48.5051 36.8977 52.4041 36.7495 56.2339 36.4532C60.5875 36.1223 64.9263 36.2359 69.27 36.1766C71.1972 36.1519 72.3437 35.905 72.403 33.3221C72.4623 30.5071 73.6434 27.7464 75.7979 25.6327C77.5325 23.9338 78.5603 24.0424 79.7562 26.1315C82.568 31.0454 84.3569 36.3791 85.9975 41.7622C86.2347 42.5474 86.4324 43.3475 86.7091 44.1179C87.9693 47.654 87.9545 47.5898 84.52 48.943C82.741 49.6442 81.1844 50.9382 80.0972 52.3951C78.4071 54.652 76.2328 56.6571 75.373 59.4474C74.7651 61.4179 73.0257 60.5685 71.8693 60.9636C69.8581 61.6451 67.8073 62.6378 65.4946 61.7735C63.7007 61.1019 62.4208 60.1586 61.6351 58.3115C60.6814 56.0694 59.8018 56.0595 58.0672 57.7683C56.56 59.2499 55.1615 60.8154 53.4319 62.1044C50.9661 63.9416 48.5249 64.0453 45.8514 62.9242C45.0756 62.5983 44.0625 62.2723 43.6227 63.0082C43.01 64.0354 44.1021 64.6478 44.8137 65.1071C48.2926 67.369 51.5689 65.6404 54.865 64.4897C55.0133 64.4404 55.1418 64.312 55.2604 64.1984C57.6966 61.8871 59.782 60.8648 63.1275 63.5119C65.3661 65.2799 68.9191 65.5219 71.9385 63.8378C72.3338 63.6156 72.8478 63.6008 73.4408 63.4576C73.2629 65.5565 72.6303 67.4628 73.169 69.4086C73.4605 70.4754 73.8361 71.7693 75.1308 71.4483C76.2773 71.1668 75.4372 69.9963 75.4372 69.1864C75.4372 65.4874 76.7467 62.1785 78.5307 58.9931C80.2455 55.9311 82.0739 53.0519 85.2365 51.19C86.6845 50.3357 87.4356 50.5332 88.0483 51.995C89.9558 56.5386 89.3628 60.9981 87.2577 65.2305C85.5429 68.6777 82.9831 71.5372 79.7809 73.7398C78.9409 74.3176 78.3182 75.2411 77.0432 75.1769C75.6744 75.1078 75.9758 76.3326 75.8276 77.1573C72.6946 77.8388 69.606 78.708 66.4829 79.4291C64.6248 79.8587 62.7618 80.2242 60.8889 79.5526C60.118 79.276 59.4361 79.5822 58.7195 79.7205C54.9985 80.4415 51.3515 79.5328 47.6996 79.1229C45.9404 78.9253 45.1003 77.5969 45.0509 75.7745C44.868 69.0185 42.2193 63.1909 38.1177 57.9708C36.2003 55.5261 33.7542 53.8322 30.6014 53.1951C27.4882 52.5679 27.4338 51.6493 27.587 49.2195C28.1108 40.8189 30.2703 33.0455 35.1626 26.1167C35.889 25.0845 36.6303 24.0177 38.0831 24.2153C39.5409 24.4128 40.0104 25.6672 40.3711 26.8525C40.7961 28.26 41.3001 29.6725 41.1568 31.1886C40.6923 32.8628 39.7435 33.0011 38.429 32.0578C37.5 31.3911 36.5512 30.4478 35.6024 32.0282C34.8661 33.253 35.0489 36.0828 35.9533 36.6112C37.3172 37.4113 38.2907 36.6902 39.0715 35.6037C39.5953 34.8728 40.0054 34.058 40.8653 33.6382C42.7085 31.6874 40.9691 24.3437 38.4636 23.5337C37.4259 23.1979 36.7439 23.7906 36.0818 24.4474C33.0179 27.4748 31.3279 31.2923 29.8058 35.2235C28.096 39.6287 27.1917 44.2019 26.7519 48.8837C26.6827 49.6245 26.485 50.3357 26.2083 51.032C23.1099 58.8449 24.8592 67.206 30.7843 72.9496C31.4366 73.5818 32.1086 74.1843 32.8252 74.767C31.4366 72.9249 29.9985 71.1223 28.6001 69.2901C25.976 65.8479 25.0421 61.9167 24.8642 57.7387C24.7159 54.2273 26.406 52.7902 29.9392 53.2544C33.2007 53.684 35.8396 55.2693 37.8756 57.8078C41.7844 62.6773 44.1021 68.2135 44.6605 74.4658C44.952 77.7104 44.5024 78.2438 40.9147 78.4907C42.9013 78.9303 44.5369 79.9081 46.5482 79.7353C48.3124 79.5822 48.935 80.9551 48.9993 82.5058C49.0586 83.9825 49.5626 85.2073 50.5954 86.2641C52.2904 88.0025 54.0151 88.0075 55.7101 86.2296C59.3471 82.412 59.3422 82.4169 62.9595 86.2147C63.8688 87.1679 64.8027 88.0865 65.9393 88.7878C67.911 90.0027 69.5418 89.9582 71.1528 88.6001C73.0998 86.9555 73.9646 84.3578 73.3518 82.5009C72.9664 81.3354 71.3801 80.4415 72.3635 78.9451C73.1146 77.745 74.5576 77.6265 75.7288 77.0684Z" fill="#FDFDFD"/>
<path d="M75.7286 77.0685C75.615 79.1724 73.4209 78.5551 72.477 79.5675C75.951 83.3159 75.1406 87.9681 70.5498 90.3435C69.0969 91.0942 67.6342 91.1387 66.127 90.2102C64.0663 88.941 62.2428 87.3853 60.9975 85.3704C59.7127 83.2863 58.8133 83.4887 57.6075 85.3259C56.9849 86.2741 56.3128 87.3014 55.4085 87.9286C52.7845 89.7509 49.3599 88.1854 48.3567 84.832C48.2629 84.5209 48.1937 84.19 48.169 83.869C48.0207 81.7701 48.4655 78.9501 44.8284 81.1824C42.9258 79.9428 40.707 79.602 38.6019 78.9205C38.1967 78.7872 38.0089 78.2982 38.2411 77.8933C38.3746 77.6612 38.7353 77.5426 39.012 77.4241C39.1504 77.3649 39.3332 77.4192 39.5013 77.4142C44.4133 77.2562 44.4578 77.2463 43.425 72.3818C42.0709 66.0406 39.7978 60.1834 34.4015 56.0596C32.321 54.4694 30.0034 53.7533 27.3695 54.0101C25.803 54.1632 25.9216 55.3435 25.8771 56.3559C25.6695 61.4378 27.0532 66.0258 30.29 69.9915C31.5353 71.5175 32.8399 72.9942 34.1297 74.4807C34.6387 75.0733 35.6221 75.6511 34.8215 76.4858C34.0753 77.2661 33.1512 76.8117 32.4297 76.145C29.7266 73.6461 27.1619 71.0385 25.7239 67.5518C23.7472 62.7564 22.0967 57.803 24.3748 52.7656C26.3367 48.4245 25.7881 43.6587 27.3102 39.3078C29.3214 33.5543 30.9868 27.6033 35.7654 23.282C37.7173 21.514 38.5772 21.5634 40.3265 23.6672C42.9604 26.8329 42.7727 30.5714 42.5651 34.3248C42.5404 34.7989 42.3625 35.0606 41.8189 35.026C41.1913 34.9865 40.9245 34.7248 41.0678 34.0976C40.03 33.3617 40.2079 32.3938 40.5489 31.3912C40.0201 29.5195 39.521 27.6329 38.9478 25.776C38.4734 24.2351 37.658 24.1512 36.7833 25.4698C32.9684 31.2134 29.9441 37.2336 29.1287 44.2563C28.8421 46.7108 29.2769 49.3085 28.0712 51.7581C36.8179 52.568 40.875 58.6129 43.929 65.8381C45.3522 69.2062 46.1626 72.6682 46.133 76.3179C46.1231 77.3599 46.301 77.9229 47.5611 78.0612C50.7337 78.4069 53.9556 79.2415 57.0788 78.7032C60.706 78.0809 64.3579 79.5971 67.9702 78.0908C69.4181 77.4883 71.0835 77.192 72.6154 76.6734C73.8261 76.2586 74.8441 76.308 75.8127 77.1525C75.8077 77.1476 75.7286 77.0685 75.7286 77.0685Z" fill="#35373F"/>
<path d="M52.2856 51.5763C52.1176 53.6703 51.4851 55.2655 50.1657 56.4063C49.2613 57.1866 48.1248 56.7471 47.2056 56.1347C45.3278 54.8803 45.3772 53.0481 45.8911 51.1714C46.4298 49.191 47.9765 48.0798 49.8444 48.1884C51.9101 48.307 51.8458 50.3812 52.2856 51.5763Z" fill="#373941"/>
<path d="M74.9085 35.0325C76.2921 34.2966 73.0356 30.9285 76.9346 31.0174C79.5092 31.0766 81.8515 33.3385 81.7527 35.4078C81.6242 38.0746 80.3987 39.255 77.9278 39.092C75.4323 38.9241 74.7503 38.1092 74.9085 35.0325Z" fill="#3A3B42"/>
<path d="M40.5393 31.3918C40.7123 32.2955 40.8852 33.1944 41.0582 34.0981C40.144 35.6192 39.8277 37.649 37.5595 38.0046C35.568 38.3157 34.209 37.3231 34.1003 35.3081C34.046 34.2512 34.0855 33.2191 34.5154 32.1918C35.6471 29.4558 37.0653 29.1694 39.0914 31.4412C39.7042 32.1276 40.0946 32.7104 40.5393 31.3918Z" fill="#3A3B41"/>
<path d="M68.0889 51.2662C68.0148 53.2021 65.7268 55.4689 64.18 55.1775C62.3269 54.8318 61.7636 53.3947 61.8179 51.7007C61.8822 49.5129 63.1176 48.382 65.114 48.3721C67.2686 48.3622 67.8171 49.7599 68.0889 51.2662Z" fill="#383A43"/>
<path d="M61.6202 81.2277C64.6396 81.282 67.145 80.7141 69.6752 81.2376C72.0175 81.7216 72.5364 82.576 71.7853 84.8477C70.4164 88.9764 68.3557 89.4456 65.3067 86.3491C63.8835 84.907 62.5888 83.3859 61.6202 81.2277Z" fill="#FAFAFB"/>
<path d="M56.8268 81.3363C56.6933 82.7438 55.9867 83.6426 55.2751 84.5069C53.4813 86.6897 51.727 86.3885 50.7485 83.7611C50.0518 81.8894 50.8869 80.8474 52.8883 81.0992C54.1583 81.2622 55.4036 81.6573 56.8268 81.3363Z" fill="#F3F4F5"/>
<path d="M77.3153 33.4263C78.0071 34.3992 79.5045 34.6955 78.9856 36.1326C78.7929 36.666 77.9528 37.0907 77.34 36.6364C76.0848 35.7129 76.9694 34.651 77.3153 33.4263Z" fill="#E2E5E8"/>
<path d="M36.1709 32.0342C37.7918 32.8886 37.8412 33.9257 37.4113 35.0616C37.2878 35.3826 36.9221 35.9308 36.5416 35.5258C35.6521 34.5825 36.2451 33.417 36.1709 32.0342Z" fill="#F2F2F7"/>
</svg>
