<svg width="99" height="57" viewBox="0 0 99 57" fill="none" xmlns="http://www.w3.org/2000/svg">
<g opacity="0.94">
<path d="M23.5993 13.1232C23.855 13.1232 24.0303 13.167 24.1252 13.2619C24.2275 13.3496 24.2713 13.5395 24.2713 13.8316V15.5115C24.2713 15.8182 24.2202 16.0227 24.1252 16.125C24.023 16.2272 23.855 16.271 23.6213 16.271L6.80089 16.5413C6.56718 16.5413 6.39921 16.4902 6.29696 16.3952C6.19471 16.293 6.15088 16.0958 6.15088 15.7817V14.1019C6.15088 13.8097 6.20201 13.6198 6.29696 13.5322C6.39921 13.4445 6.5745 13.3934 6.82283 13.3934L23.5993 13.1232ZM23.4679 0.67041C23.7235 0.67041 23.8988 0.714232 23.9938 0.80918C24.096 0.896824 24.1398 1.08672 24.1398 1.37887V2.67892C24.1398 2.97107 24.0887 3.16096 23.9938 3.24861C23.8915 3.33625 23.7162 3.38738 23.4679 3.38738L9.73698 3.6284L9.7662 4.95766L23.1976 4.73855C23.4533 4.73855 23.6286 4.78238 23.7235 4.87732C23.8258 4.96497 23.8696 5.15486 23.8696 5.44701V6.74706C23.8696 7.03921 23.8185 7.22911 23.7235 7.31675C23.6286 7.40439 23.446 7.45552 23.1976 7.45552L9.84653 7.67463L9.87575 9.08424L23.2561 8.84322C23.5117 8.84322 23.687 8.88704 23.7819 8.98199C23.8842 9.06963 23.928 9.25953 23.928 9.55167V10.8517C23.928 11.1439 23.8769 11.3338 23.7819 11.4214C23.6797 11.5164 23.5044 11.5602 23.2561 11.5602L7.16608 11.8304C6.93236 11.8304 6.76439 11.7793 6.67674 11.6843C6.5891 11.5821 6.53067 11.3776 6.51606 11.0708L6.27505 1.70753C6.26044 1.40078 6.30425 1.19627 6.4138 1.09402C6.52336 0.991772 6.69136 0.94795 6.93238 0.94795L23.4679 0.67041ZM20.7801 25.9046C20.488 25.9046 20.2908 25.8535 20.1666 25.7439C20.0424 25.6344 19.9986 25.4445 20.0205 25.1742L20.1593 20.9381L7.67734 21.1572C7.42171 21.1572 7.24643 21.1134 7.15148 21.0184C7.04923 20.9308 7.00542 20.7409 7.00542 20.4487V18.7105C7.00542 18.4183 7.05653 18.2284 7.15148 18.1408C7.25373 18.0531 7.42902 18.002 7.67734 18.002L23.0077 17.7318C23.2634 17.7318 23.4386 17.7756 23.5482 17.8706C23.6578 17.9655 23.7016 18.1481 23.687 18.4402L23.446 25.1669C23.4241 25.4372 23.3656 25.6271 23.2707 25.7366C23.1684 25.8462 22.9785 25.8973 22.6864 25.8973H20.7801V25.9046Z" fill="#191919"/>
<path d="M34.7801 7.26959C35.0358 7.12351 35.1892 6.99935 35.2549 6.9044C35.3206 6.80215 35.3498 6.60495 35.3498 6.29089V1.94521C35.3498 1.67498 35.401 1.48508 35.5105 1.37552C35.6201 1.26597 35.8173 1.21484 36.1094 1.21484H38.0084C38.3005 1.21484 38.4977 1.27327 38.6073 1.37552C38.7168 1.48508 38.768 1.67498 38.768 1.94521V6.23246C38.768 6.53922 38.7972 6.74372 38.8483 6.84597C38.8994 6.94822 39.0674 7.06508 39.3376 7.21116L46.1739 10.6804C46.4295 10.8046 46.5683 10.9433 46.6048 11.0894C46.6413 11.2355 46.5902 11.4254 46.4441 11.6591L45.4435 13.3389C45.3194 13.5361 45.1879 13.653 45.0491 13.6895C44.9103 13.726 44.7204 13.6749 44.4648 13.5288L36.9786 9.65058L29.7041 13.7991C29.485 13.9232 29.3097 13.9671 29.1636 13.9232C29.0175 13.8794 28.8642 13.726 28.7035 13.4777L27.8051 12.0389C27.6591 11.8198 27.6006 11.6372 27.6299 11.4838C27.6591 11.3304 27.7979 11.1844 28.0535 11.0383L34.7801 7.26959ZM45.4435 15.2963C45.6992 15.2963 45.8744 15.3401 45.9694 15.4351C46.0716 15.5227 46.1154 15.7126 46.1154 16.0048V17.6846C46.1154 17.9914 46.0643 18.1959 45.9694 18.2981C45.8671 18.4004 45.6991 18.4442 45.4654 18.4442L38.7606 18.5538V23.7101C38.7606 23.9804 38.7095 24.1703 38.6 24.2798C38.4904 24.3894 38.2932 24.4405 38.0011 24.4405H36.1021C35.81 24.4405 35.6128 24.3894 35.5032 24.2798C35.3936 24.1703 35.3425 23.9804 35.3425 23.7101V18.6122L28.6378 18.7217C28.4041 18.7217 28.2361 18.6706 28.1338 18.5757C28.0316 18.4734 27.9877 18.2689 27.9877 17.9622V16.2823C27.9877 15.9902 28.0389 15.8003 28.1338 15.7126C28.2361 15.625 28.4113 15.5739 28.6597 15.5739L45.4435 15.2963Z" fill="#191919"/>
<path d="M50.0811 8.56751C50.0811 7.3405 50.3002 6.24495 50.7311 5.28086C51.162 4.32408 51.7755 3.50607 52.5643 2.84144C53.3531 2.1695 54.2807 1.66554 55.3616 1.32227C56.4352 0.978999 57.6185 0.803711 58.9039 0.803711C60.1893 0.803711 61.3652 0.978999 62.4462 1.32227C63.5198 1.66554 64.4547 2.1695 65.2435 2.84144C66.0323 3.51337 66.6385 4.32408 67.0767 5.28086C67.5076 6.23764 67.7267 7.33319 67.7267 8.56751C67.7267 10.0502 67.4127 11.3356 66.7919 12.4239C66.171 13.5121 65.3165 14.3739 64.2283 15.0313V18.6977L67.0256 18.6466C67.2812 18.6466 67.4565 18.6904 67.5514 18.7853C67.6537 18.873 67.6975 19.0629 67.6975 19.355V21.0349C67.6975 21.3416 67.6464 21.5461 67.5514 21.6484C67.4492 21.7506 67.2812 21.8018 67.0475 21.8018L50.7676 22.072C50.5339 22.072 50.3659 22.0209 50.2636 21.9259C50.1614 21.8237 50.1176 21.6192 50.1176 21.3124V19.6326C50.1176 19.3404 50.1687 19.1505 50.2636 19.0629C50.3659 18.9752 50.5412 18.9241 50.7895 18.9241L53.5868 18.8949V15.0386C52.4986 14.3885 51.644 13.5194 51.0232 12.4312C50.4024 11.3429 50.0811 10.0502 50.0811 8.56751ZM58.8966 13.1761C60.6495 13.1761 61.9933 12.7598 62.9136 11.9272C63.8339 11.0946 64.3013 9.97712 64.3013 8.56021C64.3013 7.1433 63.8412 6.02584 62.9136 5.19322C61.9933 4.3606 60.6495 3.94429 58.8966 3.94429C57.1437 3.94429 55.7998 4.3606 54.8796 5.19322C53.9593 6.02584 53.4992 7.1433 53.4992 8.56021C53.4992 9.97712 53.9593 11.0946 54.8796 11.9272C55.8071 12.7671 57.1437 13.1761 58.8966 13.1761ZM58.8966 16.324C58.5533 16.324 58.2246 16.3094 57.9179 16.2802C57.6111 16.251 57.3044 16.2218 56.9977 16.1852V18.8146L60.7955 18.7342V16.1852C60.4888 16.2218 60.1747 16.251 59.8607 16.2802C59.5466 16.3167 59.2253 16.324 58.8966 16.324Z" fill="#191919"/>
<path d="M86.0878 13.205C86.3434 13.205 86.5187 13.2489 86.6137 13.3438C86.7159 13.4388 86.7598 13.6213 86.7598 13.9135V15.5933C86.7598 15.9001 86.7086 16.1046 86.6137 16.2068C86.5114 16.3091 86.3434 16.3529 86.1097 16.3529L78.0245 16.5136V20.18C78.0245 20.4503 77.9734 20.6402 77.8638 20.7497C77.7543 20.8593 77.5571 20.9104 77.265 20.9104H75.366C75.0739 20.9104 74.8766 20.8593 74.7671 20.7497C74.6575 20.6402 74.6064 20.4503 74.6064 20.18V16.572L71.9479 16.6305C71.7142 16.6305 71.5462 16.5793 71.4439 16.4771C71.3417 16.3748 71.2979 16.1776 71.2979 15.8636V14.1837C71.2979 13.8916 71.349 13.7017 71.4439 13.614C71.5462 13.5264 71.7215 13.4753 71.9698 13.4753L86.0878 13.205ZM78.6527 11.9342C76.4616 11.9342 74.7671 11.401 73.562 10.3347C72.3569 9.26836 71.758 7.80762 71.758 5.9671C71.758 4.12657 72.3569 2.66584 73.562 1.5995C74.7671 0.533168 76.4616 0 78.6527 0C80.6246 0 82.2022 0.445524 83.3854 1.34388C84.5686 2.24223 85.2625 3.46194 85.4597 5.01762L88.7683 4.93728V1.94278C88.7683 1.67254 88.8194 1.48265 88.9289 1.37309C89.0385 1.26353 89.2357 1.21241 89.5278 1.21241H91.4268C91.7189 1.21241 91.9161 1.27084 92.0257 1.37309C92.1352 1.47534 92.1864 1.67254 92.1864 1.94278V16.9226C92.1864 17.1928 92.1352 17.3827 92.0257 17.4923C91.9161 17.6018 91.7189 17.653 91.4268 17.653H89.5278C89.2357 17.653 89.0385 17.6018 88.9289 17.4923C88.8194 17.3827 88.7683 17.1928 88.7683 16.9226V8.07786L85.1602 8.1582C84.7439 9.3487 83.977 10.2763 82.8669 10.9409C81.7567 11.5982 80.3544 11.9342 78.6527 11.9342ZM78.6527 8.83744C79.8432 8.83744 80.7269 8.5599 81.282 8.01213C81.8444 7.46435 82.1219 6.77781 82.1219 5.9671C82.1219 5.15639 81.8444 4.46985 81.282 3.92207C80.7196 3.36699 79.8432 3.09676 78.6527 3.09676C77.4622 3.09676 76.5784 3.3743 76.0233 3.92207C75.461 4.47715 75.1834 5.15639 75.1834 5.9671C75.1834 6.77781 75.461 7.46435 76.0233 8.01213C76.5784 8.5599 77.4622 8.83744 78.6527 8.83744ZM80.2814 25.9061C79.9892 25.9061 79.792 25.855 79.6825 25.7454C79.5729 25.6359 79.5218 25.446 79.5218 25.1758V19.3182C79.5218 19.048 79.5729 18.8581 79.6825 18.7485C79.792 18.639 79.9892 18.5878 80.2814 18.5878H82.1803C82.4725 18.5878 82.6697 18.639 82.7792 18.7485C82.8888 18.8581 82.9399 19.048 82.9399 19.3182V22.6852L91.4852 22.4953C91.7408 22.4953 91.9161 22.5391 92.0111 22.6341C92.1133 22.7217 92.1571 22.9116 92.1571 23.2038V24.942C92.1571 25.2342 92.1133 25.4241 92.0184 25.5117C91.9307 25.5994 91.7555 25.6505 91.4998 25.6505L80.2814 25.9061Z" fill="#191919"/>
<path d="M7.69807 45.0879C6.50758 45.0879 5.42665 44.9199 4.46986 44.5693C3.51308 44.2261 2.70237 43.7513 2.04504 43.1451C1.38771 42.5389 0.876441 41.8086 0.525865 40.9613C0.175289 40.1141 0 39.1792 0 38.164C0 37.1488 0.175289 36.2213 0.525865 35.3667C0.876441 34.5122 1.38771 33.7818 2.04504 33.1683C2.70237 32.5548 3.51308 32.0728 4.46986 31.7295C5.42665 31.3862 6.50758 31.2109 7.69807 31.2109C8.88857 31.2109 9.96953 31.3862 10.9263 31.7295C11.8831 32.0728 12.7011 32.5548 13.3657 33.1683C14.0377 33.7818 14.5489 34.5122 14.8995 35.3667C15.2501 36.2213 15.4254 37.1488 15.4254 38.164C15.4254 39.1792 15.2501 40.1068 14.8995 40.9613C14.5489 41.8159 14.0377 42.5389 13.3657 43.1451C12.6938 43.7513 11.8831 44.2261 10.9263 44.5693C9.96953 44.9126 8.89588 45.0879 7.69807 45.0879ZM7.69807 41.94C9.10768 41.94 10.1813 41.5895 10.9117 40.881C11.6421 40.1725 12.0072 39.2742 12.0072 38.164C12.0072 37.0247 11.6421 36.1044 10.9117 35.4105C10.1813 34.7167 9.10768 34.3661 7.69807 34.3661C6.32498 34.3661 5.26595 34.7167 4.52097 35.4105C3.776 36.1044 3.41082 37.0247 3.41082 38.164C3.41082 39.2669 3.7833 40.1725 4.52097 40.881C5.25864 41.5895 6.32498 41.94 7.69807 41.94ZM13.5629 57.0002C12.3724 57.0002 11.3353 56.8541 10.4589 56.5547C9.58242 56.2552 8.85206 55.8608 8.27507 55.3642C7.69808 54.8675 7.26716 54.2905 6.98962 53.6405C6.71208 52.9905 6.56601 52.3112 6.56601 51.6028C6.56601 50.8943 6.70477 50.2224 6.98962 49.5651C7.26716 48.915 7.69808 48.338 8.27507 47.8414C8.85206 47.3447 9.58242 46.943 10.4589 46.6509C11.3353 46.3514 12.3724 46.2054 13.5629 46.2054C14.7534 46.2054 15.7905 46.3514 16.667 46.6509C17.5434 46.9503 18.2738 47.3447 18.8508 47.8414C19.4278 48.338 19.8587 48.915 20.1362 49.5651C20.4138 50.2151 20.5598 50.8943 20.5598 51.6028C20.5598 52.3112 20.4211 52.9905 20.1362 53.6405C19.8587 54.2905 19.4278 54.8675 18.8508 55.3642C18.2738 55.8608 17.5434 56.2625 16.667 56.5547C15.7905 56.8468 14.7534 57.0002 13.5629 57.0002ZM13.5629 54.0422C14.7534 54.0422 15.6372 53.8085 16.2068 53.3484C16.7765 52.8882 17.0614 52.3039 17.0614 51.5955C17.0614 50.887 16.7765 50.31 16.2068 49.8426C15.6372 49.3825 14.7534 49.1488 13.5629 49.1488C12.3724 49.1488 11.4887 49.3825 10.919 49.8426C10.3493 50.3027 10.0645 50.887 10.0645 51.5955C10.0645 52.3039 10.3493 52.8809 10.919 53.3484C11.4887 53.8158 12.3651 54.0422 13.5629 54.0422ZM21.5093 42.4002V44.2188C21.5093 44.489 21.4582 44.6789 21.3487 44.7885C21.2391 44.898 21.0419 44.9491 20.7498 44.9491H18.8508C18.5586 44.9491 18.3614 44.898 18.2519 44.7885C18.1423 44.6789 18.0912 44.489 18.0912 44.2188V32.4964C18.0912 32.2261 18.1423 32.0363 18.2519 31.9267C18.3614 31.8171 18.5586 31.766 18.8508 31.766H20.7498C21.0419 31.766 21.2391 31.8244 21.3487 31.9267C21.4582 32.0363 21.5093 32.2261 21.5093 32.4964V33.9352L23.547 33.8549C23.8027 33.8403 23.978 33.8768 24.0729 33.979C24.1752 34.0813 24.219 34.2712 24.219 34.5633V36.3016C24.219 36.5937 24.1679 36.7763 24.0729 36.8567C23.9707 36.937 23.7953 36.9881 23.547 37.0101L21.5093 37.0831V39.2523L23.547 39.1719C23.8027 39.1573 23.978 39.1938 24.0729 39.2961C24.1752 39.3984 24.219 39.5882 24.219 39.8804V41.6187C24.219 41.9108 24.1679 42.0934 24.0729 42.1737C23.9707 42.2541 23.7953 42.3052 23.547 42.3198L21.5093 42.4002Z" fill="#191919"/>
<path d="M35.7504 37.1905C35.7504 37.5192 35.7577 37.7894 35.7796 38.0012C35.7942 38.2203 35.933 38.4175 36.1886 38.6001L41.3158 42.2373C41.4984 42.3834 41.5787 42.5149 41.5714 42.6463C41.5641 42.7705 41.4838 42.9239 41.3377 43.1065L40.0888 44.5964C39.9427 44.779 39.7966 44.8667 39.6578 44.8667C39.5118 44.8667 39.3438 44.7936 39.1393 44.6475L34.0633 41.0395L29.0675 44.9981C28.8703 45.1442 28.7024 45.2099 28.5782 45.2026C28.454 45.1953 28.3006 45.1004 28.1181 44.9178L26.7304 43.5374C26.4017 43.2087 26.4017 42.9166 26.7304 42.639L31.8868 38.5709C32.1205 38.3737 32.2519 38.1692 32.2812 37.9574C32.3104 37.7529 32.325 37.4826 32.325 37.154V32.2167C32.325 31.9465 32.3761 31.7566 32.4857 31.647C32.5952 31.5375 32.7924 31.4863 33.0845 31.4863H34.9835C35.2757 31.4863 35.4729 31.5375 35.5824 31.647C35.692 31.7566 35.7431 31.9465 35.7431 32.2167V37.1905H35.7504ZM39.1977 56.998C38.0072 56.998 36.9701 56.852 36.0937 56.5525C35.2172 56.2531 34.4869 55.8587 33.9099 55.362C33.3329 54.8654 32.9019 54.2884 32.6244 53.6384C32.3469 52.9883 32.2008 52.3091 32.2008 51.6006C32.2008 50.8922 32.3396 50.2202 32.6244 49.5629C32.9019 48.9129 33.3329 48.3359 33.9099 47.8392C34.4869 47.3426 35.2172 46.9409 36.0937 46.6487C36.9701 46.3493 38.0072 46.2032 39.1977 46.2032C40.3882 46.2032 41.4253 46.3493 42.3018 46.6487C43.1782 46.9482 43.9086 47.3426 44.4856 47.8392C45.0626 48.3359 45.4935 48.9129 45.771 49.5629C46.0486 50.2129 46.1946 50.8922 46.1946 51.6006C46.1946 52.3091 46.0559 52.9883 45.771 53.6384C45.4935 54.2884 45.0626 54.8654 44.4856 55.362C43.9086 55.8587 43.1782 56.2604 42.3018 56.5525C41.4326 56.8447 40.3955 56.998 39.1977 56.998ZM39.1977 54.0401C40.3882 54.0401 41.272 53.8063 41.8417 53.3462C42.4114 52.8861 42.6962 52.3018 42.6962 51.5933C42.6962 50.8849 42.4114 50.3079 41.8417 49.8405C41.272 49.3803 40.3882 49.1466 39.1977 49.1466C38.0072 49.1466 37.1235 49.3803 36.5538 49.8405C35.9841 50.3006 35.6993 50.8849 35.6993 51.5933C35.6993 52.3018 35.9841 52.8788 36.5538 53.3462C37.1235 53.8136 38.0072 54.0401 39.1977 54.0401ZM44.2738 35.6129V32.4942C44.2738 32.224 44.3249 32.0341 44.4345 31.9245C44.544 31.815 44.7412 31.7639 45.0334 31.7639H46.9323C47.2245 31.7639 47.4217 31.8223 47.5312 31.9245C47.6408 32.0268 47.6919 32.224 47.6919 32.4942V44.2166C47.6919 44.4869 47.6408 44.6768 47.5312 44.7863C47.4217 44.8959 47.2245 44.947 46.9323 44.947H45.0334C44.7412 44.947 44.544 44.8959 44.4345 44.7863C44.3249 44.6768 44.2738 44.4869 44.2738 44.2166V38.7608L40.2056 38.8411C39.95 38.8411 39.7747 38.7973 39.6798 38.7024C39.5775 38.6147 39.5337 38.4248 39.5337 38.1327V36.3944C39.5337 36.1022 39.5848 35.9124 39.6798 35.8247C39.782 35.7371 39.9573 35.6859 40.2056 35.6859L44.2738 35.6129Z" fill="#191919"/>
<path d="M55.9464 32.3538V30.7543C55.9464 30.4841 55.9975 30.2942 56.107 30.1846C56.2166 30.0751 56.4138 30.0239 56.7059 30.0239H58.6049C58.897 30.0239 59.0942 30.0751 59.2038 30.1846C59.3133 30.2942 59.3645 30.4841 59.3645 30.7543V32.2735L64.1702 32.1639C64.4259 32.1639 64.6012 32.2077 64.6961 32.3027C64.7984 32.3976 64.8422 32.5802 64.8422 32.8724V34.5522C64.8422 34.859 64.7911 35.0635 64.6961 35.1657C64.5939 35.268 64.4259 35.3118 64.1922 35.3118L51.0602 35.582C50.8265 35.582 50.6585 35.5309 50.5562 35.4359C50.454 35.3337 50.4102 35.1365 50.4102 34.8224V33.1426C50.4102 32.8504 50.4613 32.6606 50.5562 32.5729C50.6585 32.4853 50.8338 32.4341 51.0821 32.4341L55.9464 32.3538ZM57.9256 46.4134C55.7929 46.4134 54.135 46.0044 52.9591 45.179C51.7832 44.3537 51.199 43.1486 51.199 41.5564C51.199 39.9642 51.7832 38.7518 52.9591 37.9192C54.135 37.0866 55.7929 36.6703 57.9256 36.6703C60.0583 36.6703 61.7162 37.0866 62.8921 37.9192C64.068 38.7518 64.6596 39.9642 64.6596 41.5564C64.6596 43.1486 64.068 44.3537 62.8921 45.179C61.7162 46.0044 60.0583 46.4134 57.9256 46.4134ZM67.3109 56.4486C67.0187 56.4486 66.8142 56.3975 66.6973 56.2879C66.5805 56.1784 66.5293 55.9885 66.5512 55.7182L66.712 50.9416L55.1502 51.1607C54.8946 51.1607 54.7193 51.1169 54.6244 51.022C54.5221 50.9343 54.4783 50.7444 54.4783 50.4523V48.714C54.4783 48.4219 54.5294 48.232 54.6244 48.1443C54.7266 48.0567 54.9019 48.0056 55.1502 48.0056L69.5312 47.7353C69.7868 47.7353 69.9621 47.7791 70.0716 47.8741C70.1812 47.9617 70.225 48.1516 70.2104 48.4438L69.9694 55.7182C69.9548 55.9885 69.889 56.1784 69.7941 56.2879C69.6918 56.3975 69.5019 56.4486 69.2098 56.4486H67.3109V56.4486ZM57.9256 43.5357C58.9043 43.5357 59.6858 43.375 60.2847 43.061C60.8836 42.7469 61.1831 42.243 61.1831 41.5564C61.1831 40.8699 60.8836 40.3659 60.2847 40.0373C59.6858 39.7086 58.9043 39.5479 57.9256 39.5479C56.9469 39.5479 56.1581 39.7086 55.5665 40.0373C54.9676 40.3659 54.6682 40.8699 54.6682 41.5564C54.6682 42.243 54.9676 42.7469 55.5665 43.061C56.1581 43.375 56.9469 43.5357 57.9256 43.5357ZM67.2013 32.4926C67.2013 32.2223 67.2524 32.0324 67.362 31.9229C67.4715 31.8133 67.6687 31.7622 67.9609 31.7622H69.8598C70.152 31.7622 70.3492 31.8206 70.4587 31.9229C70.5683 32.0324 70.6194 32.2223 70.6194 32.4926V37.2984L72.6572 37.218C72.9128 37.2034 73.088 37.24 73.183 37.3422C73.2852 37.4445 73.3291 37.6344 73.3291 37.9265V39.6063C73.3291 39.9131 73.2779 40.1103 73.183 40.2052C73.0807 40.2929 72.9128 40.3513 72.679 40.3659L70.6194 40.4463V45.3032C70.6194 45.5734 70.5683 45.7633 70.4587 45.8729C70.3492 45.9824 70.152 46.0336 69.8598 46.0336H67.9609C67.6687 46.0336 67.4715 45.9824 67.362 45.8729C67.2524 45.7633 67.2013 45.5734 67.2013 45.3032V32.4926V32.4926Z" fill="#191919"/>
<path d="M79.523 49.3952V40.5286C79.523 40.2583 79.5742 40.0684 79.6837 39.9589C79.7933 39.8493 79.9905 39.7982 80.2826 39.7982H82.1816C82.4737 39.7982 82.6709 39.8493 82.7805 39.9589C82.89 40.0684 82.9412 40.2583 82.9412 40.5286V49.3441L89.6167 49.1834C89.8723 49.1834 90.0476 49.2272 90.1426 49.3222C90.2448 49.4098 90.2886 49.5997 90.2886 49.8919V51.5717C90.2886 51.8785 90.2375 52.083 90.1426 52.1852C90.0403 52.2875 89.8724 52.3386 89.6387 52.3386L76.5578 52.6088C76.324 52.6088 76.156 52.5577 76.0538 52.4628C75.9515 52.3605 75.9077 52.156 75.9077 51.8493V50.1694C75.9077 49.8773 75.9588 49.6874 76.0538 49.5997C76.156 49.5121 76.3314 49.461 76.5797 49.461L79.523 49.3952ZM76.0465 32.7648C76.0465 32.4945 76.0976 32.3046 76.2072 32.1951C76.3167 32.0855 76.5139 32.0344 76.8061 32.0344L88.9083 31.7642C89.2004 31.7642 89.3976 31.8226 89.5218 31.9248C89.6386 32.0344 89.6898 32.2243 89.6678 32.4945L89.0689 46.1159C89.0543 46.3861 88.9813 46.576 88.8644 46.6856C88.7476 46.7951 88.5431 46.8462 88.2509 46.8462H86.352C86.0599 46.8462 85.8699 46.7951 85.7677 46.6856C85.6654 46.576 85.6289 46.3861 85.6435 46.1159L86.1329 34.9924L76.7988 35.1823C76.5066 35.1823 76.3094 35.1312 76.1999 35.0216C76.0903 34.912 76.0392 34.7221 76.0392 34.4519V32.7648H76.0465ZM95.7226 43.2674V50.4616C95.7226 50.7318 95.6715 50.9217 95.5619 51.0312C95.4524 51.1408 95.2552 51.1919 94.963 51.1919H93.064C92.7719 51.1919 92.5747 51.1408 92.4652 51.0312C92.3556 50.9217 92.3045 50.7318 92.3045 50.4616V33.035C92.3045 32.7648 92.3556 32.5749 92.4652 32.4653C92.5747 32.3558 92.7719 32.3046 93.064 32.3046H94.963C95.2552 32.3046 95.4524 32.3558 95.5619 32.4653C95.6715 32.5749 95.7226 32.7648 95.7226 33.035V40.1196L97.7603 40.0392C98.016 40.0246 98.1912 40.0611 98.2862 40.1634C98.3884 40.2656 98.4323 40.4555 98.4323 40.7477V42.4859C98.4323 42.7781 98.3811 42.9607 98.2862 43.041C98.1839 43.1214 98.0087 43.1725 97.7603 43.1871L95.7226 43.2674Z" fill="#191919"/>
</g>
</svg>
