<svg width="240" height="90" viewBox="0 0 240 90" fill="none" xmlns="http://www.w3.org/2000/svg">
<path d="M28.14 77.6699C23.94 77.5999 20.54 76.4799 17.91 74.3099C15.29 72.1399 13.24 69.3799 11.77 66.0199C10.3 62.7299 9.31 59.1099 8.78 55.1599C8.26 51.2199 8 47.4599 8 43.8899C8 41.9299 8.19 39.8999 8.58 37.8099C8.96 35.7099 9.58 33.6499 10.42 31.6199C11.26 29.5899 12.31 27.6299 13.57 25.7499C14.83 23.8599 16.33 22.1499 18.08 20.6099C21.86 17.3999 25.68 15.1599 29.57 13.8999C33.45 12.6399 37.59 11.8399 42 11.4899C43.19 11.4199 44.29 11.5099 45.3 11.7499C46.31 11.9999 46.82 12.7099 46.82 13.8999C46.82 14.4599 46.72 15.1199 46.51 15.8899C46.3 16.6599 46.02 17.3999 45.67 18.0899C45.25 18.7899 44.78 19.3799 44.25 19.8699C43.73 20.3599 43.15 20.5999 42.52 20.5999C41.19 20.5299 39.72 20.5799 38.11 20.7599C36.5 20.9299 34.86 21.2699 33.18 21.7599C31.43 22.2499 29.72 22.9099 28.04 23.7499C26.36 24.5899 24.75 25.6699 23.21 26.9999C20.97 28.9599 19.26 31.4799 18.07 34.5499C16.88 37.6299 16.29 40.8799 16.29 44.2999C16.29 46.3999 16.41 48.8799 16.66 51.7499C16.9 54.6199 17.45 57.3399 18.29 59.9299C19.13 62.5899 20.39 64.8799 22.07 66.7999C23.75 68.7199 26.06 69.8199 28.99 70.0999C30.18 70.2399 31.49 70.1399 32.92 69.7899C34.35 69.4399 35.84 68.9199 37.38 68.2199C38.85 67.5199 40.35 66.6499 41.89 65.5999C43.43 64.5499 44.86 63.3299 46.19 61.9299C46.82 61.2299 47.62 60.9899 48.6 61.1999C49.58 61.4099 50.42 61.8699 51.12 62.5599C51.82 63.2599 52.27 64.1199 52.48 65.1299C52.69 66.1499 52.38 67.1099 51.54 68.0099C49.86 69.8999 47.97 71.4499 45.88 72.6799C43.78 73.8999 41.65 74.8999 39.48 75.6699C37.31 76.4399 35.23 76.9599 33.24 77.2399C31.23 77.5299 29.54 77.6699 28.14 77.6699Z" fill="#F5DF70" stroke="#52D2C4" stroke-width="16" stroke-miterlimit="10" stroke-linecap="round" stroke-linejoin="round"/>
<path d="M68.5198 59.9399C68.5198 62.0399 68.5698 64.2099 68.6798 66.4399C68.7798 68.6799 68.8398 71.1599 68.8398 73.8899V75.1499L67.8998 76.0899L66.9598 75.9899C66.1898 75.9899 65.5098 76.0199 64.9098 76.0899C64.3098 76.1599 63.6698 76.5099 62.9698 77.1399C62.6898 77.3499 62.4298 77.5399 62.1798 77.7199C61.9298 77.8899 61.6398 78.0899 61.2898 78.2999C60.7998 78.0899 60.3498 77.8099 59.9298 77.4599C59.5098 77.1099 59.2998 76.7299 59.2998 76.3099C59.2998 73.3699 59.3298 70.3499 59.3998 67.2399C59.4698 64.1299 59.5698 61.0999 59.7098 58.1699C59.8498 55.5799 59.9498 52.9599 60.0198 50.2999C60.0898 47.6399 60.2598 44.9499 60.5398 42.2199C60.6098 41.3799 60.7098 40.0699 60.8498 38.2899C60.9898 36.5099 61.1298 34.6399 61.2698 32.6799C61.3398 30.7199 61.4298 28.8499 61.5298 27.0699C61.6298 25.2899 61.6898 23.9799 61.6898 23.1399C61.6898 21.2499 61.6898 19.5199 61.6898 17.9499C61.6898 16.3799 61.7198 15.3099 61.7898 14.7499C61.9298 13.3499 62.3698 12.5299 63.0998 12.2899C63.8298 12.0499 64.6898 11.9199 65.6698 11.9199C66.2298 11.9199 66.7398 12.0899 67.1898 12.4399C67.6398 12.7899 67.9098 13.5199 67.9798 14.6399C67.9798 15.1999 68.0098 16.4599 68.0798 18.4199C68.1498 20.3799 68.2198 22.5499 68.2898 24.9199C68.3598 27.2999 68.4298 29.6199 68.4998 31.8999C68.5698 34.1699 68.5998 35.8699 68.5998 36.9899L68.5198 59.9399Z" fill="#F5DF70" stroke="#52D2C4" stroke-width="16" stroke-miterlimit="10" stroke-linecap="round" stroke-linejoin="round"/>
<path d="M97.8895 76.6201C92.4395 76.3401 88.1295 74.5001 84.9895 71.1101C81.8395 67.7201 80.2695 63.0501 80.2695 57.1101C80.2695 56.2001 80.2995 55.2901 80.3695 54.3801C80.4395 53.4701 80.5395 52.5301 80.6795 51.5501C81.6595 45.8201 83.8795 41.4301 87.3395 38.3901C90.7995 35.3501 95.4995 33.8301 101.45 33.8301C103.34 33.8301 105.19 34.0601 107.01 34.5101C108.83 34.9701 110.51 35.6501 112.04 36.5601C113.51 37.4701 114.77 38.6201 115.82 40.0201C116.87 41.4201 117.57 43.0601 117.92 44.9501C118.27 46.6301 118.3 48.3101 118.02 49.9901C117.74 51.6701 117.22 53.1701 116.45 54.5001C115.61 55.8301 114.51 56.9601 113.15 57.9101C111.79 58.8501 110.19 59.4301 108.38 59.6401C106.98 59.8501 105.62 59.9501 104.29 59.9501C101.63 59.9501 99.0795 59.6001 96.6295 58.9001C94.1795 58.2001 91.7995 56.8001 89.4995 54.7001C89.4295 55.3301 89.3795 55.9101 89.3395 56.4301C89.2995 56.9501 89.2895 57.5301 89.2895 58.1601C89.2895 59.7001 89.4495 61.1501 89.7595 62.5101C90.0695 63.8701 90.6195 65.0801 91.3895 66.1301C92.1595 67.1801 93.1695 68.0001 94.4295 68.5901C95.6895 69.1801 97.2295 69.4801 99.0495 69.4801C99.9595 69.4801 101.08 69.4101 102.41 69.2701C103.74 69.1301 105.14 68.9201 106.61 68.6401C108.08 68.3601 109.51 67.9801 110.91 67.4901C112.31 67.0001 113.6 66.4401 114.79 65.8101C115.28 65.5301 115.82 65.7201 116.42 66.3901C117.01 67.0601 117.52 67.8401 117.94 68.7501C118.36 69.7301 118.62 70.6901 118.73 71.6301C118.83 72.5701 118.64 73.1801 118.15 73.4701C116.54 74.3101 114.72 74.9501 112.7 75.4101C110.67 75.8701 108.71 76.2001 106.83 76.4101C104.87 76.6201 103.07 76.7201 101.43 76.7201C99.7595 76.7301 98.5895 76.6901 97.8895 76.6201ZM101.46 40.9601C100.34 40.9601 99.1995 41.1401 98.0495 41.4801C96.8995 41.8301 95.8295 42.3601 94.8495 43.0501C93.7995 43.8201 92.8895 44.7301 92.1195 45.7801C91.3495 46.8301 90.7895 48.0201 90.4395 49.3501C93.2395 50.7501 95.5795 51.6801 97.4695 52.1301C99.3595 52.5901 101.35 52.8101 103.45 52.8101C104.85 52.8101 106.05 52.5801 107.07 52.1301C108.08 51.6701 108.84 50.8901 109.33 49.7701C110.03 48.1601 110.1 46.5901 109.54 45.0501C109.12 43.9301 108.12 42.9701 106.55 42.1701C104.97 41.3601 103.28 40.9601 101.46 40.9601Z" fill="#F5DF70" stroke="#52D2C4" stroke-width="16" stroke-miterlimit="10" stroke-linecap="round" stroke-linejoin="round"/>
<path d="M155.79 38.12C156 38.4 156.21 38.66 156.42 38.91C156.63 39.16 156.8 39.38 156.94 39.59C157.36 39.87 157.99 40.43 158.83 41.27C159.11 41.55 159.28 41.83 159.35 42.11C159.42 42.39 159.52 42.67 159.66 42.95C160.22 43.79 160.67 45.01 161.02 46.62C161.37 48.23 161.54 49.66 161.54 50.92C161.54 52.95 161.26 55.01 160.7 57.11C160.77 58.65 160.98 60.14 161.33 61.57C161.68 63 162.1 64.32 162.59 65.5C163.08 66.69 163.6 67.72 164.16 68.59C164.72 69.47 165.28 70.11 165.84 70.53C166.89 71.3 167.32 71.98 167.15 72.57C166.97 73.16 166.33 74.02 165.21 75.14C164.86 75.49 164.39 75.8 163.79 76.08C163.19 76.36 162.62 76.32 162.06 75.98C160.87 75.28 159.72 74.3 158.6 73.04C157.48 71.78 156.5 70.24 155.66 68.42C155.38 68.84 155.06 69.3 154.72 69.78C154.37 70.27 153.95 70.79 153.46 71.35C151.85 73.17 149.91 74.56 147.64 75.55C145.37 76.53 143.01 77.02 140.56 77.02C137.48 77.02 134.86 76.11 132.69 74.29C130.87 72.68 129.56 70.37 128.76 67.37C127.96 64.36 127.55 61.08 127.55 57.51C127.55 54.78 127.78 52.02 128.23 49.22C128.68 46.42 129.4 44.08 130.38 42.19C131.92 39.11 133.96 36.86 136.52 35.42C139.07 33.99 141.71 33.27 144.44 33.27C146.47 33.27 148.46 33.62 150.42 34.32C152.4 35.05 154.18 36.31 155.79 38.12ZM138.9 69.91C140.16 70.54 141.42 70.66 142.68 70.28C143.94 69.89 145.13 69.25 146.25 68.34C147.3 67.43 148.24 66.37 149.08 65.14C149.92 63.92 150.58 62.78 151.07 61.73C151.21 61.38 151.42 60.79 151.7 59.95C151.98 59.11 152.19 58.52 152.33 58.17C152.12 57.12 151.93 56 151.75 54.81C151.57 53.62 151.45 52.4 151.38 51.14C151.24 49.95 151.15 48.78 151.12 47.63C151.08 46.48 151.07 45.45 151.07 44.54C150.93 44.4 150.76 44.28 150.55 44.17C150.34 44.06 150.16 43.94 150.03 43.8C149.4 42.89 148.6 42.19 147.62 41.7C146.64 41.21 145.63 40.97 144.58 40.97C143.04 40.97 141.49 41.57 139.91 42.75C138.34 43.94 137.24 45.48 136.61 47.37C136.19 48.63 135.82 50.38 135.51 52.62C135.2 54.86 135.04 57.06 135.04 59.23C135.04 61.54 135.3 63.72 135.83 65.79C136.33 67.83 137.37 69.21 138.9 69.91Z" fill="#F5DF70" stroke="#52D2C4" stroke-width="16" stroke-miterlimit="10" stroke-linecap="round" stroke-linejoin="round"/>
<path d="M176.04 60.7802C176.18 59.5902 176.34 58.3302 176.51 57.0002C176.68 55.6702 176.84 54.5502 176.98 53.6402C177.26 52.1702 177.4 50.4102 177.4 48.3402C177.4 46.2802 177.5 44.2302 177.71 42.2002C177.85 41.2902 177.94 40.3802 177.97 39.4702C178 38.5602 178.09 37.5802 178.23 36.5302C178.37 35.1302 178.98 34.3102 180.07 34.0602C181.15 33.8202 182.29 33.6902 183.48 33.6902C184.74 33.6902 185.44 34.6402 185.58 36.5202V38.0902C188.03 36.2702 190.74 35.0802 193.71 34.5202C196.68 33.9602 199.6 33.6802 202.47 33.6802C204.01 33.6802 205.35 33.7702 206.51 33.9402C207.66 34.1202 208.24 34.5902 208.24 35.3602L208.34 38.5102C208.34 39.2802 208.06 40.0002 207.5 40.6602C206.94 41.3302 206.38 41.7602 205.82 41.9702C205.47 42.1102 204.88 42.1802 204.04 42.1802C203.2 42.1802 201.77 42.1802 199.74 42.1802C198.83 42.1802 197.83 42.2002 196.75 42.2302C195.67 42.2702 194.53 42.4202 193.34 42.7002C192.15 42.9802 190.91 43.4302 189.62 44.0602C188.33 44.6902 187.05 45.5602 185.79 46.6802C185.79 47.5202 185.77 48.3402 185.74 49.1402C185.7 49.9402 185.69 50.6602 185.69 51.2902C185.55 52.6902 185.5 54.1102 185.53 55.5402C185.56 56.9702 185.58 58.5002 185.58 60.1002C185.51 62.4102 185.48 64.6502 185.48 66.8102C185.48 68.9802 185.48 71.2802 185.48 73.7302V74.9902L184.54 75.9302C184.4 76.0702 184.17 76.0902 183.86 75.9802C183.55 75.8802 183.35 75.8202 183.28 75.8202C182.51 75.6802 181.76 75.7202 181.03 75.9302C180.3 76.1402 179.54 76.5902 178.77 77.2902C178.63 77.3602 178.42 77.5202 178.14 77.7602C177.86 78.0002 177.65 78.0902 177.51 78.0202C177.23 77.8802 176.84 77.6302 176.36 77.2902C175.87 76.9402 175.63 76.5602 175.63 76.1402C175.63 73.0602 175.65 70.3902 175.68 68.1202C175.7 65.9002 175.83 63.4402 176.04 60.7802Z" fill="#F5DF70" stroke="#52D2C4" stroke-width="16" stroke-miterlimit="10" stroke-linecap="round" stroke-linejoin="round"/>
<path d="M230.27 39.59C230.27 40.99 230.3 42.74 230.37 44.83C230.44 46.93 230.51 48.99 230.58 51.02C230.58 53.12 230.6 55.01 230.63 56.68C230.66 58.36 230.65 59.48 230.58 60.04C230.51 61.65 229.95 62.45 228.9 62.45C227.78 62.45 226.7 62.34 225.65 62.13C224.6 61.92 224.08 61.22 224.08 60.03C224.08 58.91 224.04 57.55 223.98 55.94C223.91 54.33 223.8 52.65 223.67 50.9C223.53 49.15 223.39 47.49 223.25 45.92C223.11 44.35 222.97 43.07 222.83 42.09C222.69 41.18 222.57 39.85 222.46 38.1C222.36 36.35 222.27 34.53 222.2 32.64C222.06 30.82 221.95 29.06 221.89 27.34C221.82 25.63 221.75 24.32 221.68 23.41C221.47 20.4 221.35 17.9 221.31 15.91C221.27 13.92 221.26 11.77 221.26 9.46C221.26 9.18 221.47 8.87 221.89 8.52C222.31 8.17 222.62 8 222.83 8C223.04 8 223.28 8.12 223.56 8.37C223.84 8.62 224.05 8.81 224.19 8.95C225.38 10 226.81 10.42 228.49 10.21C228.7 10.21 228.93 10.19 229.17 10.16C229.41 10.13 229.61 10.11 229.75 10.11L230.27 10.63V11.89C230.27 14.41 230.25 16.61 230.22 18.5C230.18 20.39 230.17 22.52 230.17 24.9C230.17 25.53 230.17 26.53 230.17 27.89C230.17 29.25 230.2 30.7 230.27 32.24C230.27 33.78 230.27 35.25 230.27 36.65C230.27 38.06 230.27 39.03 230.27 39.59ZM224.18 69.8C224.39 69.45 224.74 69.19 225.23 69.01C225.72 68.84 226.24 68.75 226.8 68.75C227.36 68.75 227.88 68.82 228.37 68.96C228.86 69.1 229.21 69.35 229.42 69.69C229.91 70.46 230.29 71.47 230.57 72.73C230.85 73.99 231.02 75.25 231.09 76.51C231.09 77.7 231 78.76 230.83 79.71C230.65 80.65 230.36 81.23 229.94 81.44C229.17 81.79 228.19 81.96 227 81.96C225.81 81.96 224.94 81.86 224.38 81.65C223.82 81.44 223.4 80.97 223.12 80.23C222.84 79.5 222.7 78.67 222.7 77.77C222.7 77.28 222.73 76.67 222.8 75.93C222.87 75.2 222.97 74.44 223.11 73.67C223.25 72.83 223.41 72.08 223.58 71.42C223.78 70.76 223.97 70.22 224.18 69.8Z" fill="#F5DF70" stroke="#52D2C4" stroke-width="16" stroke-miterlimit="10" stroke-linecap="round" stroke-linejoin="round"/>
<path d="M28.14 77.6699C23.94 77.5999 20.54 76.4799 17.91 74.3099C15.29 72.1399 13.24 69.3799 11.77 66.0199C10.3 62.7299 9.31 59.1099 8.78 55.1599C8.26 51.2199 8 47.4599 8 43.8899C8 41.9299 8.19 39.8999 8.58 37.8099C8.96 35.7099 9.58 33.6499 10.42 31.6199C11.26 29.5899 12.31 27.6299 13.57 25.7499C14.83 23.8599 16.33 22.1499 18.08 20.6099C21.86 17.3999 25.68 15.1599 29.57 13.8999C33.45 12.6399 37.59 11.8399 42 11.4899C43.19 11.4199 44.29 11.5099 45.3 11.7499C46.31 11.9999 46.82 12.7099 46.82 13.8999C46.82 14.4599 46.72 15.1199 46.51 15.8899C46.3 16.6599 46.02 17.3999 45.67 18.0899C45.25 18.7899 44.78 19.3799 44.25 19.8699C43.73 20.3599 43.15 20.5999 42.52 20.5999C41.19 20.5299 39.72 20.5799 38.11 20.7599C36.5 20.9299 34.86 21.2699 33.18 21.7599C31.43 22.2499 29.72 22.9099 28.04 23.7499C26.36 24.5899 24.75 25.6699 23.21 26.9999C20.97 28.9599 19.26 31.4799 18.07 34.5499C16.88 37.6299 16.29 40.8799 16.29 44.2999C16.29 46.3999 16.41 48.8799 16.66 51.7499C16.9 54.6199 17.45 57.3399 18.29 59.9299C19.13 62.5899 20.39 64.8799 22.07 66.7999C23.75 68.7199 26.06 69.8199 28.99 70.0999C30.18 70.2399 31.49 70.1399 32.92 69.7899C34.35 69.4399 35.84 68.9199 37.38 68.2199C38.85 67.5199 40.35 66.6499 41.89 65.5999C43.43 64.5499 44.86 63.3299 46.19 61.9299C46.82 61.2299 47.62 60.9899 48.6 61.1999C49.58 61.4099 50.42 61.8699 51.12 62.5599C51.82 63.2599 52.27 64.1199 52.48 65.1299C52.69 66.1499 52.38 67.1099 51.54 68.0099C49.86 69.8999 47.97 71.4499 45.88 72.6799C43.78 73.8999 41.65 74.8999 39.48 75.6699C37.31 76.4399 35.23 76.9599 33.24 77.2399C31.23 77.5299 29.54 77.6699 28.14 77.6699Z" fill="white" stroke="white" stroke-width="5" stroke-miterlimit="10" stroke-linecap="round" stroke-linejoin="round"/>
<path d="M68.5198 59.9399C68.5198 62.0399 68.5698 64.2099 68.6798 66.4399C68.7798 68.6799 68.8398 71.1599 68.8398 73.8899V75.1499L67.8998 76.0899L66.9598 75.9899C66.1898 75.9899 65.5098 76.0199 64.9098 76.0899C64.3098 76.1599 63.6698 76.5099 62.9698 77.1399C62.6898 77.3499 62.4298 77.5399 62.1798 77.7199C61.9298 77.8899 61.6398 78.0899 61.2898 78.2999C60.7998 78.0899 60.3498 77.8099 59.9298 77.4599C59.5098 77.1099 59.2998 76.7299 59.2998 76.3099C59.2998 73.3699 59.3298 70.3499 59.3998 67.2399C59.4698 64.1299 59.5698 61.0999 59.7098 58.1699C59.8498 55.5799 59.9498 52.9599 60.0198 50.2999C60.0898 47.6399 60.2598 44.9499 60.5398 42.2199C60.6098 41.3799 60.7098 40.0699 60.8498 38.2899C60.9898 36.5099 61.1298 34.6399 61.2698 32.6799C61.3398 30.7199 61.4298 28.8499 61.5298 27.0699C61.6298 25.2899 61.6898 23.9799 61.6898 23.1399C61.6898 21.2499 61.6898 19.5199 61.6898 17.9499C61.6898 16.3799 61.7198 15.3099 61.7898 14.7499C61.9298 13.3499 62.3698 12.5299 63.0998 12.2899C63.8298 12.0499 64.6898 11.9199 65.6698 11.9199C66.2298 11.9199 66.7398 12.0899 67.1898 12.4399C67.6398 12.7899 67.9098 13.5199 67.9798 14.6399C67.9798 15.1999 68.0098 16.4599 68.0798 18.4199C68.1498 20.3799 68.2198 22.5499 68.2898 24.9199C68.3598 27.2999 68.4298 29.6199 68.4998 31.8999C68.5698 34.1699 68.5998 35.8699 68.5998 36.9899L68.5198 59.9399Z" fill="white" stroke="white" stroke-width="5" stroke-miterlimit="10" stroke-linecap="round" stroke-linejoin="round"/>
<path d="M97.8895 76.6201C92.4395 76.3401 88.1295 74.5001 84.9895 71.1101C81.8395 67.7201 80.2695 63.0501 80.2695 57.1101C80.2695 56.2001 80.2995 55.2901 80.3695 54.3801C80.4395 53.4701 80.5395 52.5301 80.6795 51.5501C81.6595 45.8201 83.8795 41.4301 87.3395 38.3901C90.7995 35.3501 95.4995 33.8301 101.45 33.8301C103.34 33.8301 105.19 34.0601 107.01 34.5101C108.83 34.9701 110.51 35.6501 112.04 36.5601C113.51 37.4701 114.77 38.6201 115.82 40.0201C116.87 41.4201 117.57 43.0601 117.92 44.9501C118.27 46.6301 118.3 48.3101 118.02 49.9901C117.74 51.6701 117.22 53.1701 116.45 54.5001C115.61 55.8301 114.51 56.9601 113.15 57.9101C111.79 58.8501 110.19 59.4301 108.38 59.6401C106.98 59.8501 105.62 59.9501 104.29 59.9501C101.63 59.9501 99.0795 59.6001 96.6295 58.9001C94.1795 58.2001 91.7995 56.8001 89.4995 54.7001C89.4295 55.3301 89.3795 55.9101 89.3395 56.4301C89.2995 56.9501 89.2895 57.5301 89.2895 58.1601C89.2895 59.7001 89.4495 61.1501 89.7595 62.5101C90.0695 63.8701 90.6195 65.0801 91.3895 66.1301C92.1595 67.1801 93.1695 68.0001 94.4295 68.5901C95.6895 69.1801 97.2295 69.4801 99.0495 69.4801C99.9595 69.4801 101.08 69.4101 102.41 69.2701C103.74 69.1301 105.14 68.9201 106.61 68.6401C108.08 68.3601 109.51 67.9801 110.91 67.4901C112.31 67.0001 113.6 66.4401 114.79 65.8101C115.28 65.5301 115.82 65.7201 116.42 66.3901C117.01 67.0601 117.52 67.8401 117.94 68.7501C118.36 69.7301 118.62 70.6901 118.73 71.6301C118.83 72.5701 118.64 73.1801 118.15 73.4701C116.54 74.3101 114.72 74.9501 112.7 75.4101C110.67 75.8701 108.71 76.2001 106.83 76.4101C104.87 76.6201 103.07 76.7201 101.43 76.7201C99.7595 76.7301 98.5895 76.6901 97.8895 76.6201ZM101.46 40.9601C100.34 40.9601 99.1995 41.1401 98.0495 41.4801C96.8995 41.8301 95.8295 42.3601 94.8495 43.0501C93.7995 43.8201 92.8895 44.7301 92.1195 45.7801C91.3495 46.8301 90.7895 48.0201 90.4395 49.3501C93.2395 50.7501 95.5795 51.6801 97.4695 52.1301C99.3595 52.5901 101.35 52.8101 103.45 52.8101C104.85 52.8101 106.05 52.5801 107.07 52.1301C108.08 51.6701 108.84 50.8901 109.33 49.7701C110.03 48.1601 110.1 46.5901 109.54 45.0501C109.12 43.9301 108.12 42.9701 106.55 42.1701C104.97 41.3601 103.28 40.9601 101.46 40.9601Z" fill="white" stroke="white" stroke-width="5" stroke-miterlimit="10" stroke-linecap="round" stroke-linejoin="round"/>
<path d="M155.79 38.12C156 38.4 156.21 38.66 156.42 38.91C156.63 39.16 156.8 39.38 156.94 39.59C157.36 39.87 157.99 40.43 158.83 41.27C159.11 41.55 159.28 41.83 159.35 42.11C159.42 42.39 159.52 42.67 159.66 42.95C160.22 43.79 160.67 45.01 161.02 46.62C161.37 48.23 161.54 49.66 161.54 50.92C161.54 52.95 161.26 55.01 160.7 57.11C160.77 58.65 160.98 60.14 161.33 61.57C161.68 63 162.1 64.32 162.59 65.5C163.08 66.69 163.6 67.72 164.16 68.59C164.72 69.47 165.28 70.11 165.84 70.53C166.89 71.3 167.32 71.98 167.15 72.57C166.97 73.16 166.33 74.02 165.21 75.14C164.86 75.49 164.39 75.8 163.79 76.08C163.19 76.36 162.62 76.32 162.06 75.98C160.87 75.28 159.72 74.3 158.6 73.04C157.48 71.78 156.5 70.24 155.66 68.42C155.38 68.84 155.06 69.3 154.72 69.78C154.37 70.27 153.95 70.79 153.46 71.35C151.85 73.17 149.91 74.56 147.64 75.55C145.37 76.53 143.01 77.02 140.56 77.02C137.48 77.02 134.86 76.11 132.69 74.29C130.87 72.68 129.56 70.37 128.76 67.37C127.96 64.36 127.55 61.08 127.55 57.51C127.55 54.78 127.78 52.02 128.23 49.22C128.68 46.42 129.4 44.08 130.38 42.19C131.92 39.11 133.96 36.86 136.52 35.42C139.07 33.99 141.71 33.27 144.44 33.27C146.47 33.27 148.46 33.62 150.42 34.32C152.4 35.05 154.18 36.31 155.79 38.12ZM138.9 69.91C140.16 70.54 141.42 70.66 142.68 70.28C143.94 69.89 145.13 69.25 146.25 68.34C147.3 67.43 148.24 66.37 149.08 65.14C149.92 63.92 150.58 62.78 151.07 61.73C151.21 61.38 151.42 60.79 151.7 59.95C151.98 59.11 152.19 58.52 152.33 58.17C152.12 57.12 151.93 56 151.75 54.81C151.57 53.62 151.45 52.4 151.38 51.14C151.24 49.95 151.15 48.78 151.12 47.63C151.08 46.48 151.07 45.45 151.07 44.54C150.93 44.4 150.76 44.28 150.55 44.17C150.34 44.06 150.16 43.94 150.03 43.8C149.4 42.89 148.6 42.19 147.62 41.7C146.64 41.21 145.63 40.97 144.58 40.97C143.04 40.97 141.49 41.57 139.91 42.75C138.34 43.94 137.24 45.48 136.61 47.37C136.19 48.63 135.82 50.38 135.51 52.62C135.2 54.86 135.04 57.06 135.04 59.23C135.04 61.54 135.3 63.72 135.83 65.79C136.33 67.83 137.37 69.21 138.9 69.91Z" fill="white" stroke="white" stroke-width="5" stroke-miterlimit="10" stroke-linecap="round" stroke-linejoin="round"/>
<path d="M176.04 60.7802C176.18 59.5902 176.34 58.3302 176.51 57.0002C176.68 55.6702 176.84 54.5502 176.98 53.6402C177.26 52.1702 177.4 50.4102 177.4 48.3402C177.4 46.2802 177.5 44.2302 177.71 42.2002C177.85 41.2902 177.94 40.3802 177.97 39.4702C178 38.5602 178.09 37.5802 178.23 36.5302C178.37 35.1302 178.98 34.3102 180.07 34.0602C181.15 33.8202 182.29 33.6902 183.48 33.6902C184.74 33.6902 185.44 34.6402 185.58 36.5202V38.0902C188.03 36.2702 190.74 35.0802 193.71 34.5202C196.68 33.9602 199.6 33.6802 202.47 33.6802C204.01 33.6802 205.35 33.7702 206.51 33.9402C207.66 34.1202 208.24 34.5902 208.24 35.3602L208.34 38.5102C208.34 39.2802 208.06 40.0002 207.5 40.6602C206.94 41.3302 206.38 41.7602 205.82 41.9702C205.47 42.1102 204.88 42.1802 204.04 42.1802C203.2 42.1802 201.77 42.1802 199.74 42.1802C198.83 42.1802 197.83 42.2002 196.75 42.2302C195.67 42.2702 194.53 42.4202 193.34 42.7002C192.15 42.9802 190.91 43.4302 189.62 44.0602C188.33 44.6902 187.05 45.5602 185.79 46.6802C185.79 47.5202 185.77 48.3402 185.74 49.1402C185.7 49.9402 185.69 50.6602 185.69 51.2902C185.55 52.6902 185.5 54.1102 185.53 55.5402C185.56 56.9702 185.58 58.5002 185.58 60.1002C185.51 62.4102 185.48 64.6502 185.48 66.8102C185.48 68.9802 185.48 71.2802 185.48 73.7302V74.9902L184.54 75.9302C184.4 76.0702 184.17 76.0902 183.86 75.9802C183.55 75.8802 183.35 75.8202 183.28 75.8202C182.51 75.6802 181.76 75.7202 181.03 75.9302C180.3 76.1402 179.54 76.5902 178.77 77.2902C178.63 77.3602 178.42 77.5202 178.14 77.7602C177.86 78.0002 177.65 78.0902 177.51 78.0202C177.23 77.8802 176.84 77.6302 176.36 77.2902C175.87 76.9402 175.63 76.5602 175.63 76.1402C175.63 73.0602 175.65 70.3902 175.68 68.1202C175.7 65.9002 175.83 63.4402 176.04 60.7802Z" fill="white" stroke="white" stroke-width="5" stroke-miterlimit="10" stroke-linecap="round" stroke-linejoin="round"/>
<path d="M230.27 39.59C230.27 40.99 230.3 42.74 230.37 44.83C230.44 46.93 230.51 48.99 230.58 51.02C230.58 53.12 230.6 55.01 230.63 56.68C230.66 58.36 230.65 59.48 230.58 60.04C230.51 61.65 229.95 62.45 228.9 62.45C227.78 62.45 226.7 62.34 225.65 62.13C224.6 61.92 224.08 61.22 224.08 60.03C224.08 58.91 224.04 57.55 223.98 55.94C223.91 54.33 223.8 52.65 223.67 50.9C223.53 49.15 223.39 47.49 223.25 45.92C223.11 44.35 222.97 43.07 222.83 42.09C222.69 41.18 222.57 39.85 222.46 38.1C222.36 36.35 222.27 34.53 222.2 32.64C222.06 30.82 221.95 29.06 221.89 27.34C221.82 25.63 221.75 24.32 221.68 23.41C221.47 20.4 221.35 17.9 221.31 15.91C221.27 13.92 221.26 11.77 221.26 9.46C221.26 9.18 221.47 8.87 221.89 8.52C222.31 8.17 222.62 8 222.83 8C223.04 8 223.28 8.12 223.56 8.37C223.84 8.62 224.05 8.81 224.19 8.95C225.38 10 226.81 10.42 228.49 10.21C228.7 10.21 228.93 10.19 229.17 10.16C229.41 10.13 229.61 10.11 229.75 10.11L230.27 10.63V11.89C230.27 14.41 230.25 16.61 230.22 18.5C230.18 20.39 230.17 22.52 230.17 24.9C230.17 25.53 230.17 26.53 230.17 27.89C230.17 29.25 230.2 30.7 230.27 32.24C230.27 33.78 230.27 35.25 230.27 36.65C230.27 38.06 230.27 39.03 230.27 39.59ZM224.18 69.8C224.39 69.45 224.74 69.19 225.23 69.01C225.72 68.84 226.24 68.75 226.8 68.75C227.36 68.75 227.88 68.82 228.37 68.96C228.86 69.1 229.21 69.35 229.42 69.69C229.91 70.46 230.29 71.47 230.57 72.73C230.85 73.99 231.02 75.25 231.09 76.51C231.09 77.7 231 78.76 230.83 79.71C230.65 80.65 230.36 81.23 229.94 81.44C229.17 81.79 228.19 81.96 227 81.96C225.81 81.96 224.94 81.86 224.38 81.65C223.82 81.44 223.4 80.97 223.12 80.23C222.84 79.5 222.7 78.67 222.7 77.77C222.7 77.28 222.73 76.67 222.8 75.93C222.87 75.2 222.97 74.44 223.11 73.67C223.25 72.83 223.41 72.08 223.58 71.42C223.78 70.76 223.97 70.22 224.18 69.8Z" fill="white" stroke="white" stroke-width="5" stroke-miterlimit="10" stroke-linecap="round" stroke-linejoin="round"/>
</svg>
