<svg width="129" height="120" viewBox="0 0 129 120" fill="none" xmlns="http://www.w3.org/2000/svg">
<path d="M128.767 56.6452C128.103 69.7306 124.736 81.3469 116.88 91.6204C110.752 99.6349 103.571 106.191 94.6925 111.004C87.8902 114.695 80.7823 117.565 73.1474 118.623C62.6516 120.077 52.0608 120.266 41.7862 117.196C35.6794 115.374 29.9731 112.573 24.5776 108.961C16.1577 103.31 9.46078 96.2332 5.18761 87.134C0.998735 78.2138 -0.745307 68.8038 0.29269 58.7831C1.18842 50.1209 3.67013 42.159 7.88008 34.6342C11.6105 27.9678 16.5213 22.1754 22.254 17.273C28.1289 12.2494 34.8258 8.34749 42.1024 5.46185C50.6434 2.07069 59.5428 0.533085 68.6161 0.459364C74.6807 0.406706 80.7454 1.24396 86.6361 3.13964C92.2318 4.9458 97.6168 7.12057 102.575 10.2748C112.101 16.3251 119.373 24.3818 123.967 34.7237C127.129 41.8167 128.678 49.2731 128.767 56.6452Z" fill="#35363E"/>
<path d="M80.7452 82.6318C82.1837 83.706 83.5589 84.3221 85.0342 82.6002C86.5201 80.8624 87.7162 82.2263 89.2284 82.8845C94.5501 85.2172 97.8274 89.5194 100.947 94.0901C102.269 96.0279 102.38 98.3711 103.328 100.43C103.776 101.404 103.123 101.994 102.354 102.578C95.783 107.56 88.6804 111.436 80.7294 113.837C73.2843 116.09 65.7707 117.744 57.9725 117.27C50.4694 116.817 43.1402 115.359 36.1799 112.362C33.4821 111.204 30.6474 110.335 28.3659 108.371C27.8917 107.96 27.3384 107.828 27.5756 106.786C28.74 101.625 30.3102 96.6492 32.9394 92.0101C33.9932 90.1513 35.6477 88.9349 37.0756 87.471C37.7342 86.7917 39.4098 86.4758 38.5404 85.2488C37.7764 84.1694 36.4433 84.9276 35.4633 85.5227C32.7972 87.134 31.1321 89.651 29.425 92.1575C27.0697 95.6013 26.2583 99.6086 25.1782 103.495C24.5722 105.675 24.0242 105.912 22.3382 104.464C15.3462 98.4659 9.67669 91.4045 6.41517 82.8003C2.80589 73.2745 1.92596 63.438 4.00196 53.254C5.39825 46.3874 7.9906 40.0264 11.4524 34.2077C14.5663 28.963 18.5971 24.0922 23.4446 20.1481C27.76 16.6411 32.186 13.3236 37.2706 10.8856C45.7484 6.82042 54.4686 3.9927 63.9423 3.36081C71.1767 2.87636 78.1845 3.88739 85.108 5.55137C92.7375 7.38386 99.4977 11.1963 105.747 15.8881C111.98 20.5694 116.748 26.6039 120.184 33.46C124.489 42.0537 126.296 51.253 125.521 61.0158C124.62 72.3266 120.221 82.0788 113.661 91.0991C111.806 93.6477 109.83 96.0226 107.438 98.0868C106.411 98.9714 106.005 98.8293 105.478 97.6234C103.608 93.3318 102.08 88.8454 98.2911 85.6754C95.9464 83.7112 93.6385 81.647 90.7827 80.5465C89.044 79.8777 89.4497 79.0616 90.082 78.0611C90.4455 77.4818 90.983 76.9605 91.5467 76.5708C96.0412 73.4904 97.4533 68.6722 98.3069 63.7855C98.8391 60.7209 98.0751 57.5351 96.5523 54.6916C96.115 53.8754 95.9464 53.2382 96.3626 52.2851C97.3005 50.1314 95.8779 48.1673 95.3246 46.2453C93.4857 39.8789 91.2359 33.6601 88.2958 27.6729C85.4294 21.8437 81.2827 22.4545 77.8315 27.4149C76.1717 29.8002 74.2485 32.054 74.0589 35.1977C73.9904 36.3614 72.9102 36.2087 72.0145 36.2456C63.8949 36.551 55.7543 36.5088 47.6505 37.2671C46.955 37.3303 46.112 37.1091 45.9697 38.0517C45.7747 39.3524 47.0182 39.0891 47.6189 39.1786C51.7182 39.8 55.8755 39.642 59.959 39.326C64.601 38.9732 69.2272 39.0943 73.8586 39.0312C75.9135 39.0048 77.136 38.7415 77.1992 35.9875C77.2624 32.986 78.5217 30.0425 80.819 27.7887C82.6684 25.9773 83.7644 26.0931 85.0395 28.3206C88.0376 33.56 89.945 39.247 91.6943 44.9867C91.9472 45.824 92.1579 46.6771 92.453 47.4985C93.7966 51.2688 93.7808 51.2003 90.1188 52.6432C88.222 53.3909 86.5622 54.7705 85.4031 56.3239C83.6011 58.7304 81.2827 60.8683 80.3659 63.8435C79.7178 65.9445 77.8631 65.0388 76.6301 65.4601C74.4856 66.1867 72.299 67.2452 69.8331 66.3236C67.9204 65.6075 66.5558 64.6017 65.718 62.6323C64.7011 60.2417 63.7632 60.2312 61.9138 62.0531C60.3067 63.6328 58.8156 65.3021 56.9714 66.6765C54.3422 68.6353 51.7393 68.7459 48.8887 67.5506C48.0615 67.203 46.9814 66.8555 46.5124 67.6401C45.8591 68.7354 47.0235 69.3883 47.7822 69.878C51.4916 72.2898 54.985 70.4467 58.4994 69.2198C58.6575 69.1672 58.7945 69.0303 58.921 68.9091C61.5186 66.4448 63.7421 65.3547 67.3092 68.1772C69.6961 70.0623 73.4845 70.3204 76.7039 68.5247C77.1254 68.2878 77.6734 68.272 78.3057 68.1193C78.116 70.3572 77.4416 72.3898 78.0159 74.4645C78.3268 75.6019 78.7272 76.9816 80.1077 76.6393C81.3301 76.3392 80.4344 75.0912 80.4344 74.2276C80.4344 70.2835 81.8307 66.7554 83.7328 63.359C85.5611 60.0942 87.5107 57.0243 90.8829 55.0391C92.4267 54.1281 93.2276 54.3388 93.8809 55.8974C95.9148 60.7419 95.2825 65.4969 93.0379 70.0097C91.2095 73.6852 88.4802 76.7341 85.0658 79.0826C84.1701 79.6987 83.5062 80.6834 82.1468 80.615C80.6873 80.5412 81.0087 81.8471 80.8506 82.7265C77.5101 83.4532 74.2169 84.38 70.8869 85.1488C68.9058 85.6069 66.9193 85.9966 64.9224 85.2804C64.1004 84.9856 63.3733 85.312 62.6093 85.4595C58.6417 86.2283 54.7532 85.2594 50.8594 84.8223C48.9836 84.6117 48.0879 83.1952 48.0352 81.2521C47.8402 74.0485 45.016 67.8349 40.6427 62.269C38.5984 59.6624 35.9902 57.8563 32.6285 57.177C29.3091 56.5082 29.2511 55.5288 29.4144 52.9381C29.973 43.981 32.2755 35.6926 37.4919 28.3048C38.2664 27.2042 39.0568 26.0668 40.6058 26.2774C42.1602 26.4881 42.6608 27.8256 43.0454 29.0894C43.4985 30.5901 44.036 32.0961 43.8832 33.7127C43.3879 35.4978 42.3762 35.6453 40.9747 34.6395C39.9841 33.9286 38.9725 32.9229 37.9608 34.6079C37.1757 35.9138 37.3707 38.9311 38.3349 39.4945C39.7891 40.3476 40.8271 39.5788 41.6596 38.4203C42.2182 37.641 42.6555 36.7721 43.5723 36.3245C45.5377 34.2446 43.6829 26.4144 41.0116 25.5508C39.9051 25.1927 39.1779 25.8246 38.4719 26.5249C35.2051 29.7529 33.4031 33.8233 31.7802 38.0149C29.9572 42.7119 28.9929 47.588 28.524 52.58C28.4502 53.3698 28.2395 54.1281 27.9444 54.8706C24.6407 63.201 26.506 72.116 32.8235 78.2401C33.519 78.9141 34.2356 79.5565 34.9996 80.1779C33.519 78.2138 31.9857 76.2918 30.4946 74.3382C27.6967 70.6679 26.7009 66.4764 26.5112 62.0215C26.3531 58.2776 28.1551 56.7452 31.9225 57.2402C35.4 57.6983 38.2137 59.3886 40.3845 62.0952C44.5523 67.2873 47.0235 73.1902 47.6189 79.8567C47.9298 83.3163 47.4503 83.885 43.625 84.1483C45.7431 84.6169 47.4872 85.6596 49.6317 85.4753C51.5127 85.312 52.1766 86.7759 52.2451 88.4294C52.3083 90.0038 52.8458 91.3097 53.947 92.4366C55.7543 94.2902 57.5932 94.2954 59.4004 92.3998C63.2784 88.3293 63.2732 88.3346 67.1301 92.384C68.0996 93.4003 69.0954 94.3797 70.3073 95.1274C72.4097 96.4228 74.1484 96.3754 75.8661 94.9273C77.9421 93.1738 78.8642 90.404 78.2108 88.4241C77.7999 87.1814 76.1085 86.2283 77.157 84.6327C77.9579 83.3532 79.4965 83.2268 80.7452 82.6318Z" fill="#FDFDFD"/>
<path d="M80.7452 82.6318C80.624 84.875 78.2845 84.2167 77.2782 85.2962C80.9823 89.293 80.1182 94.2533 75.2232 96.7861C73.6742 97.5865 72.1145 97.6339 70.5075 96.644C68.3103 95.2907 66.366 93.6319 65.0382 91.4835C63.6683 89.2614 62.7093 89.4773 61.4237 91.4361C60.7598 92.4471 60.0432 93.5424 59.079 94.2112C56.2811 96.1542 52.6297 94.485 51.5601 90.9095C51.46 90.5778 51.3862 90.225 51.3598 89.8827C51.2018 87.6448 51.676 84.638 47.798 87.0181C45.7694 85.6964 43.4036 85.3331 41.159 84.6064C40.727 84.4642 40.5267 83.9429 40.7744 83.5111C40.9166 83.2636 41.3013 83.1373 41.5964 83.0109C41.7439 82.9477 41.9388 83.0056 42.118 83.0004C47.3554 82.8319 47.4028 82.8213 46.3016 77.6345C44.8579 70.8733 42.4341 64.6281 36.6803 60.2312C34.4621 58.5356 31.9909 57.772 29.1825 58.0459C27.5123 58.2091 27.6387 59.4676 27.5913 60.5471C27.37 65.9656 28.8453 70.8575 32.2965 75.0859C33.6243 76.713 35.0153 78.2875 36.3906 79.8725C36.9333 80.5044 37.9818 81.1205 37.1282 82.0104C36.3326 82.8424 35.3473 82.3579 34.578 81.647C31.6959 78.9826 28.9612 76.2022 27.4279 72.4846C25.3203 67.3715 23.5605 62.09 25.9895 56.7189C28.0813 52.0903 27.4965 47.0088 29.1193 42.3697C31.2638 36.235 33.0395 29.8898 38.1346 25.2822C40.2159 23.3971 41.1327 23.4497 42.9979 25.693C45.8063 29.0683 45.6061 33.0545 45.3848 37.0565C45.3584 37.562 45.1687 37.8411 44.5892 37.8042C43.92 37.7621 43.6355 37.483 43.7883 36.8143C42.6818 36.0297 42.8714 34.9976 43.235 33.9286C42.6712 31.9329 42.1391 29.9214 41.5279 27.9414C41.022 26.2985 40.1526 26.209 39.22 27.615C35.1523 33.7391 31.9277 40.158 31.0583 47.646C30.7527 50.263 31.2164 53.0328 29.9307 55.6447C39.2569 56.5083 43.5828 62.9536 46.839 70.6574C48.3565 74.2486 49.2206 77.9399 49.189 81.8314C49.1785 82.9424 49.3681 83.5427 50.7117 83.6902C54.0945 84.0588 57.5299 84.9487 60.8599 84.3747C64.7273 83.7112 68.6212 85.3278 72.4728 83.7218C74.0166 83.0793 75.7923 82.7634 77.4257 82.2105C78.7166 81.7682 79.802 81.8208 80.8347 82.7213C80.8295 82.716 80.7452 82.6318 80.7452 82.6318Z" fill="#35373F"/>
<path d="M55.7492 55.4497C55.57 57.6824 54.8956 59.3832 53.4888 60.5996C52.5245 61.4316 51.3127 60.963 50.3326 60.31C48.3304 58.9725 48.3831 57.0189 48.9311 55.0179C49.5054 52.9063 51.1546 51.7215 53.1463 51.8374C55.3487 51.9637 55.2802 54.1754 55.7492 55.4497Z" fill="#373941"/>
<path d="M79.8707 37.8093C81.346 37.0247 77.8737 33.4334 82.031 33.5282C84.7761 33.5914 87.2736 36.0031 87.1683 38.2095C87.0313 41.053 85.7245 42.3115 83.09 42.1377C80.4292 41.9587 79.702 41.0899 79.8707 37.8093Z" fill="#3A3B42"/>
<path d="M43.2248 33.9288C43.4092 34.8925 43.5936 35.8508 43.778 36.8145C42.8032 38.4363 42.466 40.6006 40.0475 40.9797C37.9241 41.3114 36.4751 40.253 36.3592 38.1046C36.3013 36.9777 36.3434 35.8772 36.8018 34.7819C38.0084 31.8646 39.5206 31.5592 41.6809 33.9815C42.3343 34.7134 42.7505 35.3348 43.2248 33.9288Z" fill="#3A3B41"/>
<path d="M72.5993 55.118C72.5203 57.1822 70.0807 59.5992 68.4315 59.2885C66.4557 58.9199 65.855 57.3876 65.9129 55.5814C65.9814 53.2487 67.2987 52.0428 69.4274 52.0323C71.7247 52.0218 72.3095 53.512 72.5993 55.118Z" fill="#383A43"/>
<path d="M65.7021 87.0656C68.9215 87.1235 71.5929 86.5179 74.2906 87.0761C76.7882 87.5922 77.3414 88.5031 76.5405 90.9254C75.081 95.3276 72.8838 95.8278 69.6328 92.5262C68.1154 90.9886 66.7349 89.3667 65.7021 87.0656Z" fill="#FAFAFB"/>
<path d="M60.5912 87.1816C60.4489 88.6823 59.6954 89.6407 58.9367 90.5622C57.024 92.8897 55.1535 92.5685 54.1103 89.7671C53.3673 87.7714 54.2578 86.6603 56.3918 86.9288C57.7459 87.1026 59.0737 87.5239 60.5912 87.1816Z" fill="#F3F4F5"/>
<path d="M82.4369 36.0981C83.1746 37.1355 84.7711 37.4514 84.2179 38.9838C84.0124 39.5525 83.1166 40.0053 82.4633 39.5209C81.1249 38.5362 82.0681 37.4041 82.4369 36.0981Z" fill="#E2E5E8"/>
<path d="M38.567 34.6133C40.2953 35.5243 40.348 36.6301 39.8895 37.8412C39.7578 38.1835 39.3679 38.768 38.9622 38.3362C38.0138 37.3304 38.6461 36.0877 38.567 34.6133Z" fill="#F2F2F7"/>
</svg>
