<svg width="100" height="56" viewBox="0 0 100 56" fill="none" xmlns="http://www.w3.org/2000/svg">
<g opacity="0.94">
<path d="M8.75593 10.121C8.75593 10.4497 8.78515 10.698 8.85088 10.8806C8.91661 11.0632 9.02617 11.275 9.18685 11.5306L13.2331 18.2865C13.4522 18.6298 13.3938 18.9073 13.0724 19.1265L11.3633 20.2658C11.0201 20.4849 10.7425 20.4192 10.5234 20.0759L7.04687 14.4083L3.48999 20.4338C3.38043 20.631 3.27087 20.7479 3.15402 20.7844C3.03716 20.8209 2.86917 20.7625 2.65006 20.6237L0.941004 19.4843C0.63425 19.2871 0.57582 19.0169 0.780323 18.6736L4.9069 11.5379C5.05298 11.2823 5.16253 11.0705 5.23557 10.8879C5.3086 10.7053 5.34512 10.457 5.34512 10.1283V1.28359C5.34512 1.01335 5.39624 0.823459 5.5058 0.713904C5.61535 0.604349 5.81256 0.553223 6.1047 0.553223H8.00365C8.2958 0.553223 8.493 0.611653 8.60256 0.713904C8.71211 0.816156 8.76324 1.01335 8.76324 1.28359V10.121H8.75593ZM15.3219 8.00296V1.81675C15.3219 1.54652 15.3731 1.35662 15.4826 1.24707C15.5922 1.13751 15.7894 1.08639 16.0815 1.08639H17.9805C18.2726 1.08639 18.4698 1.13751 18.5794 1.24707C18.6889 1.35662 18.74 1.54652 18.74 1.81675V19.236C18.74 19.5062 18.6889 19.6961 18.5794 19.8057C18.4698 19.9153 18.2726 19.9664 17.9805 19.9664H16.0815C15.7894 19.9664 15.5922 19.9153 15.4826 19.8057C15.3731 19.6961 15.3219 19.5062 15.3219 19.236V11.1508L11.8454 11.2604C11.5898 11.2604 11.4145 11.2166 11.3195 11.1216C11.2173 11.034 11.1734 10.8441 11.1734 10.5519V8.81367C11.1734 8.52152 11.2246 8.33163 11.3195 8.24399C11.4218 8.15634 11.5971 8.10521 11.8454 8.10521L15.3219 8.00296ZM21.2379 1.54652C21.2379 1.27629 21.289 1.08639 21.3986 0.976837C21.5081 0.867282 21.7053 0.816155 21.9975 0.816155H23.8964C24.1886 0.816155 24.3858 0.867282 24.4953 0.976837C24.6049 1.08639 24.656 1.27629 24.656 1.54652V18.9658C24.656 19.236 24.6049 19.4259 24.4953 19.5355C24.3858 19.645 24.1886 19.6961 23.8964 19.6961H21.9975C21.7053 19.6961 21.5081 19.645 21.3986 19.5355C21.289 19.4259 21.2379 19.236 21.2379 18.9658V1.54652Z" fill="#191919"/>
<path d="M27.3452 1.55251C27.3452 1.28227 27.3963 1.09237 27.5059 0.99742C27.6154 0.895168 27.8126 0.836746 28.1048 0.822139L38.308 0.551895C38.8704 0.537288 39.1187 0.778309 39.0676 1.28226L38.6074 5.10939L41.7845 5.02905V1.83004C41.7845 1.5598 41.8357 1.36991 41.9452 1.26035C42.0548 1.1508 42.252 1.09967 42.5441 1.09967H44.4431C44.7352 1.09967 44.9324 1.1508 45.042 1.26035C45.1515 1.36991 45.2027 1.5598 45.2027 1.83004V19.2493C45.2027 19.5195 45.1515 19.7094 45.042 19.819C44.9324 19.9285 44.7352 19.9797 44.4431 19.9797H42.5441C42.252 19.9797 42.0548 19.9285 41.9452 19.819C41.8357 19.7094 41.7845 19.5195 41.7845 19.2493V15.5025L37.3585 15.6121L36.8692 19.7898C36.8327 20.06 36.7523 20.2499 36.6354 20.3595C36.5186 20.469 36.3141 20.5201 36.0219 20.5201H34.123C33.8308 20.5201 33.641 20.469 33.5387 20.3595C33.4364 20.2499 33.4072 20.06 33.4437 19.7898L35.3427 3.78013L28.0975 3.97002C27.8053 3.98463 27.6081 3.94081 27.4986 3.82395C27.389 3.70709 27.3379 3.50989 27.3379 3.23965V1.55251H27.3452ZM37.7383 12.4277L41.7845 12.3473V8.16963L38.2276 8.24997L37.7383 12.4277ZM47.6932 1.55251C47.6932 1.28227 47.7443 1.09238 47.8539 0.98282C47.9635 0.873265 48.1606 0.822139 48.4528 0.822139H50.3517C50.6439 0.822139 50.8411 0.873265 50.9506 0.98282C51.0602 1.09238 51.1113 1.28227 51.1113 1.55251V18.9718C51.1113 19.242 51.0602 19.4319 50.9506 19.5414C50.8411 19.651 50.6439 19.7021 50.3517 19.7021H48.4528C48.1606 19.7021 47.9635 19.651 47.8539 19.5414C47.7443 19.4319 47.6932 19.242 47.6932 18.9718V1.55251Z" fill="#191919"/>
<path d="M60.8021 10.4735V6.72668C60.8021 6.45645 60.8532 6.26655 60.9627 6.157C61.0723 6.04744 61.2695 5.99632 61.5617 5.99632H63.4606C63.7528 5.99632 63.95 6.04744 64.0595 6.157C64.1691 6.26655 64.2202 6.45645 64.2202 6.72668V10.415L71.7649 10.2763C72.0205 10.2763 72.1958 10.3201 72.2907 10.415C72.393 10.5027 72.4368 10.6926 72.4368 10.9847V12.6646C72.4368 12.9713 72.3857 13.1758 72.2907 13.2781C72.1885 13.3803 72.0205 13.4315 71.7868 13.4315L54.9664 13.7017C54.7327 13.7017 54.5647 13.6506 54.4625 13.5556C54.3602 13.4534 54.3164 13.2489 54.3164 12.9421V11.2623C54.3164 10.9701 54.3675 10.7802 54.4625 10.6926C54.5647 10.6049 54.74 10.5538 54.9884 10.5538L60.8021 10.4735ZM54.426 1.00061C54.426 0.730374 54.4771 0.54048 54.5867 0.430925C54.6962 0.32137 54.8934 0.270243 55.1855 0.270243L71.575 0C71.8671 0 72.0643 0.0511266 72.1885 0.160682C72.3126 0.270237 72.3565 0.460131 72.3346 0.730367L72.0936 7.7565C72.0789 8.02674 72.0059 8.21663 71.8891 8.32619C71.7722 8.43574 71.5677 8.48687 71.2755 8.48687H69.3766C69.0844 8.48687 68.8945 8.43574 68.7923 8.32619C68.69 8.21663 68.6535 8.02674 68.6681 7.7565L68.8288 3.19901L55.1783 3.41812C54.8861 3.41812 54.6889 3.367 54.5793 3.25744C54.4698 3.14789 54.4187 2.95799 54.4187 2.68776V1.00061H54.426ZM63.3803 25.8039C62.2044 25.8039 61.1819 25.6651 60.3127 25.3802C59.4436 25.1027 58.7278 24.7229 58.1728 24.2555C57.6104 23.7881 57.1941 23.233 56.9238 22.5976C56.6536 21.9621 56.5148 21.2975 56.5148 20.589C56.5148 19.8806 56.6536 19.216 56.9238 18.5805C57.1941 17.9451 57.6104 17.3973 58.1728 16.9226C58.7351 16.4552 59.4436 16.0754 60.3054 15.7978C61.1673 15.5203 62.1898 15.3742 63.3876 15.3742C64.5854 15.3742 65.6079 15.513 66.4697 15.7978C67.3316 16.0754 68.04 16.4552 68.6024 16.9226C69.1648 17.39 69.5811 17.9451 69.8513 18.5805C70.1216 19.216 70.2603 19.8806 70.2603 20.589C70.2603 21.2975 70.1216 21.9621 69.8513 22.5976C69.5811 23.233 69.1648 23.7808 68.6024 24.2555C68.04 24.7229 67.3316 25.1027 66.4697 25.3802C65.6079 25.6578 64.5708 25.8039 63.3803 25.8039ZM63.3803 22.9262C64.5196 22.9262 65.3596 22.6998 65.8927 22.247C66.4259 21.7942 66.6961 21.2464 66.6961 20.589C66.6961 19.9317 66.4259 19.3839 65.8927 18.9311C65.3596 18.4783 64.5196 18.2519 63.3803 18.2519C62.2409 18.2519 61.401 18.4783 60.8678 18.9311C60.3346 19.3839 60.0644 19.939 60.0644 20.589C60.0644 21.2391 60.3273 21.7942 60.8678 22.247C61.401 22.6998 62.2409 22.9262 63.3803 22.9262Z" fill="#191919"/>
<path d="M83.4017 14.6804C82.2112 14.6804 81.1302 14.4905 80.1735 14.1107C79.2167 13.7309 78.406 13.205 77.7486 12.5331C77.0913 11.8612 76.58 11.087 76.2295 10.2032C75.8789 9.31948 75.7036 8.37001 75.7036 7.3548C75.7036 6.33959 75.8789 5.39012 76.2295 4.49176C76.58 3.59341 77.0913 2.81923 77.7486 2.15459C78.406 1.49726 79.2167 0.97139 80.1735 0.584296C81.1302 0.197201 82.2112 0 83.4017 0C84.5922 0 85.6731 0.197201 86.6299 0.584296C87.5867 0.97139 88.4047 1.49726 89.0693 2.15459C89.7413 2.81192 90.2525 3.59341 90.6031 4.49176C90.9537 5.39012 91.129 6.33959 91.129 7.3548C91.129 8.37001 90.9537 9.31948 90.6031 10.2032C90.2525 11.087 89.7413 11.8685 89.0693 12.5331C88.3974 13.205 87.5867 13.7236 86.6299 14.1107C85.6731 14.4905 84.5995 14.6804 83.4017 14.6804ZM83.4017 11.5325C84.1101 11.5325 84.7236 11.4229 85.2568 11.2038C85.79 10.9847 86.2355 10.6853 86.6007 10.3055C86.9659 9.92569 87.2361 9.48017 87.426 8.97622C87.6159 8.47226 87.7108 7.92449 87.7108 7.3475C87.7108 6.7486 87.6159 6.20082 87.426 5.68957C87.2361 5.18561 86.9586 4.74008 86.6007 4.36029C86.2355 3.9805 85.79 3.68105 85.2568 3.46194C84.7236 3.24283 84.1028 3.13328 83.4017 3.13328C82.7151 3.13328 82.1016 3.24283 81.5685 3.46194C81.0353 3.68105 80.5897 3.9805 80.2246 4.36029C79.8594 4.74008 79.5892 5.18562 79.3993 5.70418C79.2094 6.22274 79.1144 6.77051 79.1144 7.3475C79.1144 7.92449 79.2094 8.47226 79.3993 8.97622C79.5892 9.48017 79.8667 9.92569 80.2246 10.3055C80.5897 10.6853 81.0353 10.9847 81.5685 11.2038C82.1016 11.4229 82.7151 11.5325 83.4017 11.5325ZM82.0505 25.2342C81.7583 25.2342 81.5612 25.1831 81.4516 25.0735C81.342 24.9639 81.2909 24.7741 81.2909 24.5038V17.0176C81.2909 16.7473 81.342 16.5574 81.4516 16.4479C81.5612 16.3383 81.7583 16.2872 82.0505 16.2872H83.9494C84.2416 16.2872 84.4388 16.3383 84.5483 16.4479C84.6579 16.5574 84.709 16.7473 84.709 17.0176V22.0352L96.5118 21.8161C96.7674 21.8161 96.9427 21.8599 97.0376 21.9548C97.1399 22.0425 97.1837 22.2324 97.1837 22.5245V24.2628C97.1837 24.5549 97.1399 24.7448 97.0449 24.8325C96.9573 24.9201 96.782 24.9713 96.5264 24.9713L82.0505 25.2342ZM94.3426 1.27084C94.3426 1.00061 94.3937 0.810712 94.5033 0.701157C94.6128 0.591602 94.81 0.540476 95.1022 0.540476H97.0011C97.2932 0.540476 97.4904 0.598906 97.6 0.701157C97.7096 0.810712 97.7607 1.00061 97.7607 1.27084V15.4327C97.7607 15.7029 97.7096 15.8928 97.6 16.0023C97.4904 16.1119 97.2932 16.163 97.0011 16.163H95.1022C94.81 16.163 94.6128 16.1119 94.5033 16.0023C94.3937 15.8928 94.3426 15.7029 94.3426 15.4327V1.27084Z" fill="#191919"/>
<path d="M7.69806 45.2277C6.50757 45.2277 5.42662 45.0379 4.46984 44.6581C3.51306 44.2783 2.70235 43.7524 2.04502 43.0805C1.38769 42.4085 0.876441 41.6343 0.525865 40.7506C0.175289 39.8668 0 38.9174 0 37.9022C0 36.887 0.175289 35.9375 0.525865 35.0391C0.876441 34.1408 1.38769 33.3666 2.04502 32.7019C2.70235 32.0446 3.51306 31.5188 4.46984 31.1317C5.42662 30.7446 6.50757 30.5474 7.69806 30.5474C8.88856 30.5474 9.9695 30.7446 10.9263 31.1317C11.8831 31.5188 12.7011 32.0446 13.3657 32.7019C14.0376 33.3593 14.5489 34.1408 14.8995 35.0391C15.2501 35.9375 15.4253 36.887 15.4253 37.9022C15.4253 38.9174 15.2501 39.8668 14.8995 40.7506C14.5489 41.6343 14.0376 42.4158 13.3657 43.0805C12.6938 43.7524 11.8831 44.271 10.9263 44.6581C9.9695 45.0379 8.89587 45.2277 7.69806 45.2277ZM7.69806 42.0799C8.40652 42.0799 9.02003 41.9703 9.5532 41.7512C10.0864 41.5321 10.5319 41.2326 10.8971 40.8528C11.2623 40.4731 11.5325 40.0275 11.7224 39.5236C11.9123 39.0196 12.0072 38.4718 12.0072 37.8949C12.0072 37.296 11.9123 36.7482 11.7224 36.2369C11.5325 35.733 11.255 35.2874 10.8971 34.9077C10.5319 34.5279 10.0864 34.2284 9.5532 34.0093C9.02003 33.7902 8.39922 33.6806 7.69806 33.6806C7.01152 33.6806 6.39801 33.7902 5.86485 34.0093C5.33168 34.2284 4.88615 34.5279 4.52096 34.9077C4.15578 35.2874 3.88555 35.733 3.69566 36.2515C3.50576 36.7701 3.41081 37.3179 3.41081 37.8949C3.41081 38.4718 3.50576 39.0196 3.69566 39.5236C3.88555 40.0275 4.16308 40.4731 4.52096 40.8528C4.88615 41.2326 5.33168 41.5321 5.86485 41.7512C6.39801 41.9703 7.01152 42.0799 7.69806 42.0799ZM6.34688 55.7815C6.05473 55.7815 5.85754 55.7304 5.74799 55.6209C5.63843 55.5113 5.5873 55.3214 5.5873 55.0512V47.5649C5.5873 47.2947 5.63843 47.1048 5.74799 46.9952C5.85754 46.8857 6.05473 46.8346 6.34688 46.8346H8.24584C8.53799 46.8346 8.73519 46.8857 8.84475 46.9952C8.9543 47.1048 9.00543 47.2947 9.00543 47.5649V52.5825L20.8082 52.3634C21.0638 52.3634 21.2391 52.4072 21.334 52.5022C21.4363 52.5898 21.4801 52.7797 21.4801 53.0719V54.8102C21.4801 55.1023 21.4363 55.2922 21.3413 55.3798C21.2537 55.4675 21.0784 55.5186 20.8228 55.5186L6.34688 55.7815ZM18.639 31.8255C18.639 31.5553 18.6901 31.3654 18.7997 31.2558C18.9092 31.1463 19.1064 31.0951 19.3985 31.0951H21.2975C21.5896 31.0951 21.7868 31.1536 21.8964 31.2558C22.006 31.3654 22.0571 31.5553 22.0571 31.8255V45.9873C22.0571 46.2576 22.006 46.4475 21.8964 46.557C21.7868 46.6666 21.5896 46.7177 21.2975 46.7177H19.3985C19.1064 46.7177 18.9092 46.6666 18.7997 46.557C18.6901 46.4475 18.639 46.2576 18.639 45.9873V31.8255Z" fill="#191919"/>
<path d="M27.7543 42.432C27.9004 42.1617 27.9734 41.9426 27.988 41.7673C27.9953 41.592 28.0026 41.3437 28.0026 41.0224V33.317C28.0026 33.0467 28.0537 32.8568 28.1633 32.7473C28.2728 32.6377 28.47 32.5866 28.7622 32.5866H30.6612C30.9533 32.5866 31.1505 32.6377 31.2601 32.7473C31.3696 32.8568 31.4207 33.0467 31.4207 33.317V41.0224C31.4207 41.3656 31.4353 41.6285 31.4718 41.8111C31.5084 41.9937 31.6106 42.1982 31.7713 42.432L33.6703 45.0101L34.8096 42.6511C34.9338 42.3808 35.0068 42.1617 35.0288 41.9864C35.0434 41.8184 35.058 41.5628 35.058 41.2415V31.8197C35.058 31.5495 35.1091 31.3596 35.2186 31.25C35.3282 31.1405 35.5254 31.0894 35.8175 31.0894H37.7165C38.0086 31.0894 38.2058 31.1478 38.3154 31.25C38.425 31.3596 38.4761 31.5495 38.4761 31.8197V41.2853C38.4761 41.6139 38.4834 41.855 38.5053 42.0156C38.5199 42.1763 38.5929 42.4027 38.7244 42.6949L41.6021 48.9322C41.6897 49.1513 41.7262 49.3193 41.697 49.4362C41.6678 49.553 41.5728 49.6553 41.4122 49.7502L39.8126 50.6997C39.4694 50.8969 39.2137 50.8166 39.0531 50.4587L36.7451 45.5214L34.1669 50.8093C34.0793 51.0065 33.977 51.1233 33.8674 51.1598C33.7579 51.1964 33.5899 51.1379 33.3489 50.9992L31.8005 50.1008C31.6179 49.9913 31.5084 49.8817 31.4718 49.7721C31.4353 49.6626 31.4719 49.5019 31.5814 49.2828L32.1803 48.0339L29.8724 44.886L27.5425 49.6042C27.4548 49.8014 27.3526 49.9182 27.243 49.9547C27.1335 49.9913 26.9655 49.9401 26.7245 49.7941L25.1761 48.8957C24.9935 48.7862 24.884 48.6766 24.8474 48.567C24.8109 48.4575 24.8474 48.2968 24.957 48.0777L27.7543 42.432ZM46.8826 42.5634V49.7794C46.8826 50.0497 46.8315 50.2396 46.7219 50.3491C46.6124 50.4587 46.4152 50.5098 46.123 50.5098H44.2241C43.9319 50.5098 43.7347 50.4587 43.6252 50.3491C43.5156 50.2396 43.4645 50.0497 43.4645 49.7794V32.3602C43.4645 32.09 43.5156 31.9001 43.6252 31.7905C43.7347 31.681 43.9319 31.6298 44.2241 31.6298H46.123C46.4152 31.6298 46.6124 31.681 46.7219 31.7905C46.8315 31.9001 46.8826 32.09 46.8826 32.3602V39.4155L48.3725 39.3644C48.6282 39.3498 48.8035 39.3863 48.8984 39.4886C49.0007 39.5908 49.0445 39.7807 49.0445 40.0729V41.8111C49.0445 42.1033 48.9934 42.2859 48.8984 42.3662C48.8035 42.4466 48.6209 42.4977 48.3725 42.5123L46.8826 42.5634Z" fill="#191919"/>
<path d="M56.7571 31.6829V30.0834C56.7571 29.8132 56.8083 29.6233 56.9178 29.5137C57.0274 29.4042 57.2246 29.353 57.5167 29.353H59.4157C59.7078 29.353 59.905 29.4042 60.0146 29.5137C60.1241 29.6233 60.1753 29.8132 60.1753 30.0834V31.6026L64.9811 31.493C65.2367 31.493 65.412 31.5368 65.5069 31.6318C65.6092 31.7267 65.653 31.9093 65.653 32.2015V33.8813C65.653 34.1881 65.6019 34.3926 65.5069 34.4948C65.4047 34.5971 65.2367 34.6409 65.003 34.6409L51.871 34.9111C51.6373 34.9111 51.4693 34.86 51.367 34.765C51.2648 34.6628 51.2209 34.4656 51.2209 34.1515V32.4717C51.2209 32.1796 51.2721 31.9897 51.367 31.902C51.4693 31.8144 51.6446 31.7632 51.8929 31.7632L56.7571 31.6829ZM58.7364 45.7425C56.6038 45.7425 54.9458 45.3335 53.7699 44.5081C52.594 43.6828 52.0098 42.4777 52.0098 40.8855C52.0098 39.2933 52.594 38.0809 53.7699 37.2483C54.9458 36.4157 56.6038 35.9994 58.7364 35.9994C60.8691 35.9994 62.527 36.4157 63.7029 37.2483C64.8788 38.0809 65.4704 39.2933 65.4704 40.8855C65.4704 42.4777 64.8788 43.6828 63.7029 44.5081C62.527 45.3335 60.8764 45.7425 58.7364 45.7425ZM68.1289 55.7777C67.8368 55.7777 67.6323 55.7266 67.5154 55.617C67.3986 55.5075 67.3475 55.3176 67.3694 55.0473L67.5301 50.2707L55.9683 50.4898C55.7127 50.4898 55.5374 50.446 55.4425 50.3511C55.3402 50.2634 55.2964 50.0735 55.2964 49.7814V48.0431C55.2964 47.751 55.3475 47.5611 55.4425 47.4734C55.5447 47.3858 55.72 47.3347 55.9683 47.3347L70.3493 47.0644C70.6049 47.0644 70.7802 47.1082 70.8897 47.2032C70.9993 47.2908 71.0431 47.4807 71.0285 47.7729L70.7875 55.0473C70.7729 55.3176 70.7072 55.5075 70.6122 55.617C70.51 55.7266 70.32 55.7777 70.0279 55.7777H68.1289V55.7777ZM58.7364 42.8648C59.7151 42.8648 60.4966 42.7041 61.0955 42.3901C61.6944 42.076 61.9939 41.5721 61.9939 40.8855C61.9939 40.199 61.6944 39.695 61.0955 39.3664C60.4966 39.0377 59.7151 38.877 58.7364 38.877C57.7577 38.877 56.9689 39.0377 56.3773 39.3664C55.7784 39.695 55.479 40.199 55.479 40.8855C55.479 41.5721 55.7784 42.076 56.3773 42.3901C56.9762 42.7041 57.765 42.8648 58.7364 42.8648ZM68.0194 31.8217C68.0194 31.5514 68.0705 31.3615 68.1801 31.252C68.2896 31.1424 68.4868 31.0913 68.779 31.0913H70.6779C70.9701 31.0913 71.1673 31.1497 71.2768 31.252C71.3864 31.3615 71.4375 31.5514 71.4375 31.8217V36.6275L73.4752 36.5471C73.7309 36.5325 73.9061 36.5691 74.0011 36.6713C74.1033 36.7736 74.1472 36.9635 74.1472 37.2556V38.9354C74.1472 39.2422 74.096 39.4394 74.0011 39.5343C73.8988 39.622 73.7309 39.6804 73.4971 39.695L71.4375 39.7754V44.6323C71.4375 44.9025 71.3864 45.0924 71.2768 45.202C71.1673 45.3116 70.9701 45.3627 70.6779 45.3627H68.779C68.4868 45.3627 68.2896 45.3116 68.1801 45.202C68.0705 45.0924 68.0194 44.9025 68.0194 44.6323V31.8217V31.8217Z" fill="#191919"/>
<path d="M80.3394 48.7204V39.8538C80.3394 39.5835 80.3906 39.3936 80.5001 39.2841C80.6097 39.1745 80.8069 39.1234 81.099 39.1234H82.998C83.2901 39.1234 83.4873 39.1745 83.5969 39.2841C83.7064 39.3936 83.7576 39.5835 83.7576 39.8538V48.6693L90.4331 48.5086C90.6887 48.5086 90.864 48.5524 90.959 48.6474C91.0612 48.735 91.105 48.9249 91.105 49.2171V50.8969C91.105 51.2037 91.0539 51.4082 90.959 51.5104C90.8567 51.6127 90.6887 51.6638 90.455 51.6638L77.3741 51.934C77.1404 51.934 76.9724 51.8829 76.8702 51.788C76.7679 51.6857 76.7241 51.4812 76.7241 51.1744V49.4946C76.7241 49.2025 76.7752 49.0126 76.8702 48.9249C76.9724 48.8373 77.1477 48.7861 77.396 48.7861L80.3394 48.7204ZM76.8629 32.09C76.8629 31.8197 76.914 31.6298 77.0236 31.5203C77.1331 31.4107 77.3303 31.3596 77.6225 31.3596L89.7246 31.0894C90.0168 31.0894 90.214 31.1478 90.3382 31.25C90.455 31.3596 90.5061 31.5495 90.4842 31.8197L89.8853 45.4411C89.8707 45.7113 89.7977 45.9012 89.6808 46.0107C89.564 46.1203 89.3595 46.1714 89.0673 46.1714H87.1684C86.8762 46.1714 86.6863 46.1203 86.5841 46.0107C86.4818 45.9012 86.4453 45.7113 86.4599 45.4411L86.9493 34.3176L77.6152 34.5075C77.323 34.5075 77.1258 34.4564 77.0163 34.3468C76.9067 34.2372 76.8556 34.0473 76.8556 33.7771V32.09H76.8629ZM96.539 42.5926V49.7868C96.539 50.057 96.4879 50.2469 96.3783 50.3564C96.2687 50.466 96.0715 50.5171 95.7794 50.5171H93.8804C93.5883 50.5171 93.3911 50.466 93.2815 50.3564C93.172 50.2469 93.1208 50.057 93.1208 49.7868V32.3675C93.1208 32.0973 93.172 31.9074 93.2815 31.7978C93.3911 31.6883 93.5883 31.6371 93.8804 31.6371H95.7794C96.0715 31.6371 96.2687 31.6883 96.3783 31.7978C96.4879 31.9074 96.539 32.0973 96.539 32.3675V39.4521L98.5767 39.3717C98.8323 39.3571 99.0076 39.3936 99.1026 39.4959C99.2048 39.5981 99.2486 39.788 99.2486 40.0802V41.8184C99.2486 42.1106 99.1975 42.2932 99.1026 42.3735C99.0003 42.4539 98.825 42.505 98.5767 42.5196L96.539 42.5926Z" fill="#191919"/>
</g>
</svg>
