<svg width="304" height="51" viewBox="0 0 304 51" fill="none" xmlns="http://www.w3.org/2000/svg">
<g filter="url(#filter0_d_396_4390)">
<rect x="2" width="300" height="47" rx="23.5" fill="#31B3A3"/>
</g>
<path d="M120.063 34.549H119.95V34.5238L119.836 34.549L119.729 34.4671L119.225 34.5238L119.143 34.442L119.005 34.4986C118.892 34.3601 118.81 34.3034 118.753 34.2782L118.306 34.3034L118.281 34.1334L118.029 34.0201L117.89 34.0767L117.777 33.9634L117.5 33.9382L117.387 33.7745L117.028 33.7493L117.002 33.6674L116.864 33.7178V33.6044L116.751 33.6296C116.725 33.5478 116.694 33.5163 116.637 33.4911C116.555 33.2959 116.442 33.1888 116.303 33.1574L116.083 32.7417L115.919 32.6851L115.863 32.4647C115.749 32.4395 115.699 32.3828 115.667 32.2695H115.56L115.504 31.9357L115.34 31.879L115.283 31.6272H115.227C115.202 31.5453 115.17 31.4634 115.113 31.432C115.057 31.2934 115.031 31.1549 115 31.0415C115 30.6826 115.025 30.4055 115.057 30.2103C115.082 30.1851 115.113 30.1536 115.113 30.1285C115.113 30.1033 115.139 30.0718 115.227 29.9899L115.17 29.7695H115.258C115.258 29.7129 115.283 29.6562 115.372 29.631L115.51 29.3791C115.535 29.3791 115.567 29.3539 115.567 29.2972L115.787 29.2721C115.787 29.1902 116.008 29.0768 116.423 28.9698C116.48 29.165 116.505 29.2721 116.536 29.3035C116.562 29.3287 116.562 29.4421 116.593 29.5806H116.562L116.587 29.7758L116.53 29.801L116.555 29.8829L116.499 29.9081L116.637 30.4937C116.719 30.5504 116.776 30.6574 116.801 30.8274C116.826 30.8526 116.883 30.9093 116.939 31.0226L116.996 30.9975L117.021 31.136H117.078L117.135 31.3564C117.217 31.3816 117.248 31.4383 117.273 31.5201C117.387 31.5201 117.468 31.602 117.525 31.772L117.689 31.7468C117.991 32.0239 118.243 32.1624 118.438 32.1624C118.552 32.1624 118.602 32.1876 118.633 32.2758C118.715 32.2758 118.772 32.301 118.797 32.3891H119.244L119.326 32.5025C119.465 32.4773 119.66 32.4458 119.855 32.4458L119.88 32.5025L120.353 32.3891V32.4458L120.516 32.4206L120.541 32.4773L121.316 32.3387V32.2695L121.455 32.2443L121.429 32.1876L122.015 32.0743C122.04 31.9924 122.072 31.9609 122.153 31.9357V31.879L122.317 31.8224C122.342 31.7405 122.399 31.709 122.481 31.6838L122.619 31.4886L122.594 31.3249L122.758 31.2997C122.897 30.7141 122.978 30.33 122.978 30.1599L122.953 29.9962C122.815 29.9144 122.758 29.801 122.758 29.7191C122.733 29.6373 122.645 29.5554 122.456 29.4673L122.431 29.3539C122.128 29.1902 121.958 29.0768 121.876 28.995L121.713 29.0202L121.656 28.9383C121.599 28.9383 121.543 28.9131 121.492 28.825C121.379 28.7998 121.24 28.7683 121.102 28.7116L121.077 28.6549L120.938 28.6801L120.718 28.4597L120.693 28.4849C120.611 28.4849 120.529 28.4597 120.497 28.4282L120.302 28.4534V28.3023L119.83 28.2456L119.748 28.1323L119.528 28.1071C119.502 28.0819 119.502 28.0504 119.502 28.0252C119.502 28 119.477 28 119.389 27.9686C119.307 27.9686 119.276 27.9434 119.251 27.8867C119.112 27.8867 118.999 27.83 118.917 27.723L118.558 27.6978C118.533 27.6159 118.476 27.5844 118.419 27.5844L118.281 27.4396L118.117 27.4963L118.035 27.3829L117.953 27.4081L117.456 26.961H117.393C117.229 26.961 117.141 26.9044 117.091 26.7973C116.977 26.7721 116.87 26.684 116.732 26.5769H116.536V26.495H116.505L116.31 26.3313L116.089 26.3061L116.033 26.0857L115.781 25.9724V25.8339L115.642 25.8087L115.617 25.6135L115.56 25.6386L115.535 25.5001H115.453C115.34 24.8893 115.233 24.2533 115.094 23.6425H115.151L115.126 23.5291H115.183L115.126 23.1702L115.183 23.145L115.126 22.9498H115.183L115.157 22.8113C115.271 22.7294 115.321 22.6475 115.353 22.5027C115.353 22.3642 115.378 22.2823 115.466 22.2508V22.1123C115.523 22.0556 115.579 21.9737 115.605 21.8604C115.63 21.7471 115.718 21.64 115.825 21.5518C115.825 21.47 115.907 21.3566 116.077 21.2433L116.215 20.941C116.241 20.9158 116.297 20.8844 116.329 20.8592C116.36 20.834 116.411 20.8025 116.467 20.7773L116.549 20.5821L117.021 20.2735C117.021 20.1917 117.047 20.135 117.135 20.135L117.11 20.0783L117.248 20.0531V19.9965L117.638 19.8013L117.588 19.6627L117.89 19.6375L117.947 19.5242L118.167 19.4675L118.142 19.4108C118.281 19.3857 118.394 19.3542 118.476 19.2723C118.558 19.2156 118.778 19.159 119.169 19.1338C119.446 19.1086 119.779 19.0519 120.138 18.9134L120.252 19.0267L120.919 18.8882L120.976 19.0015L121.423 18.9197L121.505 19.033L121.725 18.9763L121.782 19.0897L121.946 19.0645L122.028 19.1464L122.191 19.1212L122.248 19.2345L122.412 19.1778C122.494 19.2912 122.575 19.3416 122.664 19.3731C122.966 19.4549 123.136 19.6249 123.218 19.8705L123.438 19.8957C123.463 20.0343 123.52 20.1476 123.602 20.2295V20.2546L123.715 20.198L123.772 20.4499H123.854L123.879 20.6703H123.961L123.986 21.3629L123.961 21.3881L124.099 22.1375L123.986 22.1941L124.068 22.4145L123.986 22.4397C123.986 22.4964 123.961 22.5216 123.929 22.5531C123.898 22.5846 123.873 22.5783 123.873 22.6098C123.873 22.6412 123.847 22.6916 123.816 22.7735C123.539 22.8553 123.4 22.912 123.344 22.912C123.23 22.912 123.148 22.8868 123.092 22.8302L122.928 22.8553C122.846 22.742 122.764 22.6601 122.619 22.6349L122.399 21.5267L122.235 21.3063L122.072 21.3314L122.046 21.1677L121.687 20.9725L121.662 20.9158L121.247 20.8907L120.913 20.9473V20.8907L120.831 20.9158L120.806 20.8592L119.055 21.1929L119.03 21.3063C118.892 21.3629 118.81 21.4196 118.81 21.4448C118.671 21.5581 118.533 21.64 118.394 21.6652C118.394 21.7219 118.369 21.7785 118.312 21.8037L118.337 21.8856L118.23 21.9423V21.9989L118.035 22.0241C118.01 22.106 117.953 22.1627 117.871 22.1627C117.84 22.2445 117.758 22.3012 117.67 22.3327V22.3894L117.475 22.5279C117.45 22.6098 117.418 22.6664 117.336 22.6916C117.336 22.8302 117.311 22.9435 117.223 23.0254L117.305 23.3339L117.191 23.3906L117.412 24.4989H117.468L117.494 24.6626L117.55 24.6374C117.576 24.6941 117.607 24.7508 117.632 24.7759C117.632 24.8011 117.657 24.8578 117.714 24.8893C117.739 24.946 117.796 25.0026 117.827 25.053L118.104 24.9963C118.13 25.0782 118.186 25.1349 118.243 25.1916L118.382 25.1664L118.407 25.2797L118.659 25.223V25.4182C118.797 25.4434 118.91 25.5001 119.018 25.6386C119.156 25.6386 119.269 25.6953 119.351 25.8339L119.433 25.8087C119.49 25.8087 119.628 25.8905 119.824 26.0291L120.019 25.9724C120.101 26.0543 120.214 26.1109 120.353 26.1361L120.378 26.2998C120.711 26.325 120.963 26.4384 121.127 26.6021L121.379 26.5454V26.6273C121.461 26.7091 121.687 26.791 122.046 26.9295V26.9044H122.16L122.323 27.0681H122.519L122.878 27.32C123.073 27.32 123.211 27.3766 123.237 27.5152L123.822 27.8741L123.879 28.0126C123.992 28.0378 124.074 28.126 124.131 28.2079L124.244 28.1827C124.301 28.2645 124.357 28.3464 124.383 28.3779C124.408 28.4031 124.465 28.5164 124.521 28.6549C124.603 28.7368 124.635 28.7935 124.635 28.8187L124.748 28.762L124.83 29.1209L124.943 29.1461L125.195 30.3929L125.138 30.4181L125.195 30.5567H125.145C125.145 30.6133 125.119 30.67 125.063 30.7204L125.119 30.9975L125.006 31.0793L125.031 31.2179C124.893 31.5768 124.754 31.772 124.616 31.8539L124.534 32.4395H124.452C124.395 32.6347 124.313 32.7166 124.2 32.7166L124.225 32.8803C124.112 32.9055 124.03 33.044 123.948 33.2959C123.866 33.2959 123.81 33.3526 123.81 33.4344L123.558 33.573V33.6296L123.306 33.6863V33.743C123.249 33.743 123.192 33.7997 123.192 33.8563L122.972 33.8815V33.9382L122.859 33.9634V34.0201L122.361 34.1334V34.1901H122.279L122.305 34.2467L120.774 34.549L120.749 34.4923H120.674L120.648 34.4671L120.063 34.5805V34.549V34.549Z" fill="#F5DF70" stroke="#F5DF70" stroke-miterlimit="10" stroke-linecap="round" stroke-linejoin="round"/>
<path d="M131.366 34.0765H131.253V34.0198H131.089V33.9632L130.95 33.9883V33.9317H130.868C130.812 33.8498 130.73 33.7931 130.617 33.7931C130.421 33.6798 130.258 33.4027 130.144 32.9871H130.006V32.54L129.924 32.5148L129.867 31.6836L129.704 31.6018L129.647 30.5753C129.622 30.5501 129.59 30.4935 129.59 30.3549C129.615 30.3297 129.647 30.3297 129.672 30.3297C129.672 30.3297 129.672 30.3297 129.672 30.3046C129.672 30.2794 129.647 30.2479 129.615 30.2227C129.559 30.2227 129.533 30.1975 129.533 30.1408C129.508 30.1408 129.477 30.1156 129.477 30.0275C129.502 30.0023 129.533 29.9708 129.559 29.9708C129.533 29.6119 129.502 28.7744 129.477 27.5024H129.533V27.389H129.559C129.533 27.2505 129.533 26.4444 129.533 25.0024H129.615C129.641 24.8639 129.697 24.782 129.729 24.7505L129.672 23.0818L129.754 22.9999L129.811 21.5264L129.143 21.5516C129.143 21.5768 129.118 21.6335 129.061 21.665L126.952 21.7216L126.87 21.5831L126.234 21.6083C126.234 21.5831 126.209 21.5516 126.152 21.5516L126.039 21.3564C125.843 21.2746 125.73 21.0793 125.68 20.7204C125.818 20.6385 125.875 20.5567 125.9 20.4181L126.12 20.393C126.146 20.3111 126.202 20.2544 126.284 20.2544L126.423 20.034H126.643L126.618 19.9522H126.731V19.8955L127.84 19.8703V19.7884L129.37 19.7318L129.395 19.6499L129.924 19.5932L129.899 18.2016H129.981C129.981 16.5643 130.006 15.5883 130.094 15.286V14.946C130.094 14.5304 130.258 14.2533 130.566 14.0833L131.064 14.0581L131.372 14.417L131.567 14.4422L131.593 14.7508H131.536L131.561 14.9712H131.643V15.0845H131.693L131.719 16.1928H131.775V16.3062H131.889L131.75 16.6651C131.832 16.6903 131.889 16.8036 131.889 16.9988L131.832 17.8301L131.914 18.8313H131.857V18.9446H131.744C131.826 18.9446 131.857 19.0265 131.857 19.2217H131.744V19.5303C131.826 19.5555 132.021 19.5555 132.355 19.5555C132.688 19.5555 133.047 19.5555 133.381 19.4988L133.463 19.6373C133.52 19.6373 133.576 19.6121 133.601 19.5806C133.627 19.5492 133.658 19.5555 133.683 19.5555C133.74 19.5555 133.765 19.5806 133.765 19.6121L134.823 19.5869L134.905 19.7255L135.352 19.7003L135.434 19.8388L135.686 19.8136C135.686 19.8388 135.711 19.8703 135.742 19.8703L135.768 20.0655C135.906 20.1789 135.963 20.2859 135.988 20.3678L135.906 20.5315C135.906 20.67 135.906 20.7519 135.881 20.8401L135.768 20.8652L135.572 21.1423L135.352 21.1675C135.352 21.1927 135.327 21.2494 135.27 21.306L133.715 21.3312V21.3879H133.217L132.827 21.3627L132.714 21.4194L132.632 21.3627H132.329L132.248 21.4194C132.191 21.4194 132.134 21.3942 132.109 21.3627C132.084 21.3312 132.052 21.3375 132.027 21.3375V21.3942L131.75 21.4761V21.835H131.693L131.775 22.5843H131.719V22.7481H131.775L131.693 23.4156H131.668C131.668 23.4407 131.693 23.4974 131.75 23.5541L131.555 23.7745C131.555 23.8564 131.555 23.9382 131.58 23.9949C131.605 24.0516 131.605 24.1334 131.605 24.272H131.549L131.574 25.6321H131.63L131.656 25.8525C131.656 25.9092 131.63 26.0162 131.574 26.1611L131.63 26.3563H131.549V26.4696H131.504C131.561 27.8046 131.586 29.2718 131.618 30.8587H131.731V31.8033C131.756 31.8284 131.788 31.8599 131.813 31.9418H132.26C132.317 31.8599 132.399 31.8033 132.481 31.7781C132.562 31.7781 132.619 31.7529 132.701 31.7214C132.726 31.6395 132.783 31.608 132.865 31.5829V31.5577L133.117 31.4758V31.4191L133.368 31.3625L133.394 31.2806L133.614 31.2239L133.639 31.1106H133.834C133.86 31.0287 133.891 30.9972 133.973 30.9972V30.972L134.168 30.8587L134.111 30.7453H134.363L134.615 30.3864H134.81C134.81 30.3046 134.836 30.2731 134.924 30.2479C134.924 30.1912 134.949 30.166 135.006 30.1345V30.1093L135.308 29.8008C135.333 29.7441 135.365 29.7189 135.39 29.6874H135.503L135.585 29.5237L135.749 29.4985V29.4167H135.887C135.912 29.3348 135.969 29.2781 136.051 29.2529V29.1963H136.164V29.1144L136.385 29.1963L136.882 29.1144C136.939 29.1396 136.964 29.1711 136.996 29.1963C137.027 29.2215 137.052 29.2529 137.077 29.2781C137.103 29.3033 137.134 29.3348 137.159 29.36L137.241 29.3348L137.266 30.1408C137.21 30.1975 137.184 30.2542 137.153 30.336C137.128 30.4179 137.071 30.4746 137.04 30.4998C136.983 30.525 136.958 30.5816 136.958 30.6131C136.958 30.6698 136.901 30.7265 136.794 30.7516C136.794 30.8335 136.737 30.9154 136.599 30.972C136.542 31.0287 136.517 31.1106 136.485 31.2239L136.372 31.2491V31.2743C136.29 31.2995 136.259 31.3877 136.234 31.5262C136.152 31.5262 136.12 31.5514 136.12 31.6395H135.957L135.761 31.9166C135.623 31.9418 135.566 32.03 135.566 32.137C135.484 32.1937 135.402 32.2755 135.346 32.4141H135.182L134.93 32.7478C134.817 32.773 134.735 32.8612 134.71 32.943H134.546V32.9682C134.546 33.0249 134.546 33.0501 134.489 33.0816H134.376L134.294 33.2453L134.099 33.302V33.3838L133.74 33.4405V33.4972H133.601C133.601 33.5224 133.52 33.579 133.35 33.6609V33.7176L133.072 33.7428L133.047 33.8561L132.714 33.8813V33.9632L132.266 33.9883L132.241 34.1017L131.353 34.1269V34.0765H131.366Z" fill="#F5DF70" stroke="#F5DF70" stroke-miterlimit="10" stroke-linecap="round" stroke-linejoin="round"/>
<path d="M150.944 33.5221V33.4088L150.667 33.2136V33.1002C150.503 32.9869 150.415 32.8483 150.415 32.7098C150.333 32.6846 150.276 32.5965 150.276 32.5146H150.22C150.163 32.3509 150.081 32.2627 149.999 32.206V32.0675H149.917V31.9542H149.861V31.7023L149.722 31.6456V31.4504H149.665L149.64 31.337H149.577V31.0033L149.439 30.9214V30.5625L149.218 30.0084H149.105L148.966 30.1469L148.992 30.3106L148.853 30.3925V30.5877C148.771 30.6129 148.74 30.6695 148.74 30.7514C148.658 30.8081 148.626 30.8648 148.626 30.9466L148.349 31.0852C148.324 31.2804 148.293 31.3937 148.267 31.3937C148.211 31.3937 148.186 31.4504 148.186 31.5574H148.104C148.104 31.6393 148.047 31.696 147.94 31.696C147.883 31.7526 147.827 31.8345 147.827 31.8912C147.802 31.973 147.688 32.0297 147.493 32.0864C147.518 32.1431 147.518 32.1997 147.518 32.2816H147.436L147.461 32.3383C147.38 32.3383 147.298 32.3635 147.298 32.4201C147.273 32.4453 147.216 32.4768 147.134 32.4768V32.5335H146.97L146.832 32.8106L146.246 33.031V33.0876L145.887 33.2262V33.2828L145.635 33.308C145.635 33.3647 145.61 33.3899 145.579 33.4214L145.195 33.4654C145.195 33.5473 144.974 33.604 144.559 33.604C144.559 33.6858 144.477 33.7425 144.338 33.7425L143.255 33.7677V33.7173H143.091V33.6355L142.399 33.6607V33.604H142.285V33.5473H141.895L141.838 33.434H141.536L141.423 33.3206H141.227C141.227 33.2388 141.145 33.2073 140.975 33.2073C140.975 33.1506 140.919 33.0939 140.78 33.0687V32.9554H140.585V32.8735C140.447 32.7602 140.333 32.6783 140.226 32.6216C140.144 32.4831 140.062 32.4012 139.949 32.4012C139.867 32.1494 139.729 31.9856 139.533 31.9038V31.7652L139.395 31.7086V31.5448C139.313 31.4882 139.256 31.4063 139.256 31.293H139.2V31.1355H139.143V30.9718H139.061V30.8333H138.998L138.973 30.3358H138.916V30.1406L138.86 30.1658C138.86 30.0839 138.885 30.0272 138.916 30.0272C138.916 29.9454 138.891 29.8887 138.86 29.832H138.834C138.834 29.7754 138.834 29.6935 138.86 29.6368C138.885 29.555 138.885 29.4983 138.916 29.4416C138.942 29.3598 138.942 29.3283 138.942 29.3031L138.916 28.1633L139.03 28.1066V27.6344L139.143 27.5777V27.1306L139.25 27.0802V26.9417H139.307L139.25 26.6331H139.307V26.4946H139.363V26.186L139.477 26.1294V25.909L139.59 25.8271V25.6634L139.754 25.5815L139.729 25.4178L139.867 25.3359V25.1407C139.867 25.1407 139.892 25.1155 139.949 25.084C139.974 25.0274 140.006 24.9707 140.006 24.8888L140.169 24.8322L140.195 24.3347L140.415 24.1962C140.415 24.1962 140.44 24.171 140.497 24.171C140.522 23.9758 140.579 23.8372 140.661 23.7554C140.774 23.6735 140.824 23.535 140.856 23.3964H140.994C141.076 23.0375 141.328 22.7289 141.744 22.3952L141.719 22.2818C141.857 22.2 141.996 22.0614 142.166 21.8914C142.166 21.8348 142.191 21.8096 142.222 21.7529L142.474 21.6962C142.531 21.5829 142.613 21.5325 142.726 21.501V21.4191L142.89 21.3625V21.2491C143.11 21.1673 143.249 21.0539 143.337 20.9469C143.337 20.9217 143.394 20.9217 143.532 20.9217V20.8398H143.671V20.7831H143.784C143.784 20.7265 143.841 20.6698 143.948 20.6698C144.03 20.6698 144.086 20.5879 144.086 20.4746H144.338L144.395 20.3612L144.647 20.3361V20.2794H144.785V20.2227L145.062 20.1975L145.176 20.0023C145.339 20.0023 145.509 20.0275 145.623 20.059V20.0023C145.761 19.9771 145.875 19.9456 145.982 19.9204V19.8638L146.844 19.9771C146.844 20.0023 146.844 20.0338 146.901 20.0338V19.9519L147.21 20.0086L147.266 19.9519L147.543 20.0086C147.543 19.9834 147.569 19.9519 147.6 19.9267C147.625 19.9267 147.657 19.9519 147.682 19.9834C147.707 20.0149 147.739 20.0653 147.795 20.122H147.909V20.1786H148.438V20.2353H148.633V20.292H149.08V20.3486H149.332V20.4053H149.47V20.462H149.665V20.5187L149.779 20.5753V20.7139L150.194 21.0224C150.194 21.0791 150.22 21.1043 150.276 21.161C150.39 21.1043 150.471 21.1043 150.553 21.1043C150.635 21.1043 150.717 21.1043 150.774 21.161C150.856 21.1862 150.887 21.3562 150.912 21.6332H150.969L150.912 22.1307H150.856V22.2126L150.994 22.2693L150.937 22.603L151.051 22.6597L151.026 23.1068L151.082 23.132C151.082 23.2453 151.057 23.3523 151.026 23.4342C151 23.5161 150.969 23.6294 150.969 23.7931H151.026C151.051 23.8498 151.051 23.9317 151.051 23.9884H151.107L151.082 24.8762H151.139L151.026 25.2667C150.969 25.2667 150.944 25.2918 150.944 25.3485C150.944 25.4052 151 25.4619 151.082 25.5122L151.107 25.9845L151.164 25.9279L151.189 26.0664C151.189 26.0916 151.164 26.1482 151.133 26.2301C151.076 26.312 151.051 26.3938 151.051 26.482H151.107C151.133 26.5953 151.133 26.7024 151.133 26.8409H151.189C151.189 26.9795 151.164 27.0613 151.133 27.1432H151.189L151.164 27.924H151.221L151.246 28.2578H151.303V28.3711H151.359C151.359 28.4845 151.359 28.623 151.303 28.7615H151.385V29.0701L151.328 29.1268H151.385V29.2653L151.523 29.322V29.5172H151.58C151.58 29.6809 151.58 29.7943 151.523 29.9076H151.605L151.662 30.1595H151.743C151.743 30.3232 151.743 30.4114 151.743 30.4366C151.743 30.4617 151.718 30.5184 151.687 30.6003H151.743V30.7136H151.8L151.825 31.1607H151.882C151.907 31.2426 151.939 31.2993 151.939 31.3559C151.964 31.3811 151.995 31.4378 152.052 31.4378V31.7967H152.134V32.0486H152.191V32.1871L152.272 32.162V32.4138C152.329 32.4705 152.386 32.5272 152.468 32.5524C152.468 32.609 152.442 32.609 152.411 32.609C152.386 32.6909 152.386 32.7728 152.386 32.8861C152.386 33.1884 152.411 33.3332 152.499 33.3836C152.499 33.4088 152.474 33.4403 152.442 33.4403C152.304 33.6921 151.945 33.7992 151.359 33.7992C151.221 33.6292 151.107 33.5473 150.944 33.5221ZM143.721 32.0486V31.9919L143.86 31.9667L143.834 31.9101H144.25V31.8282H144.363V31.7715H144.64L144.697 31.633L145.087 31.6078V31.5511C145.113 31.5259 145.169 31.4945 145.226 31.4378C145.283 31.3811 145.365 31.3559 145.535 31.3244C145.591 31.1292 145.698 30.9907 145.925 30.934V30.7388L146.038 30.7136L146.372 30.3232H146.429C146.454 30.1847 146.511 30.128 146.567 30.1028C146.592 30.0776 146.649 30.0776 146.681 30.0461C146.737 29.9328 146.762 29.8824 146.794 29.8509C146.933 29.8257 146.989 29.7691 146.989 29.7124C146.989 29.6305 147.071 29.5172 147.266 29.3786C147.291 29.1834 147.348 29.1016 147.38 29.0701C147.405 29.0449 147.461 29.0134 147.518 28.9567V28.7615H147.575V28.6482L147.631 28.623V28.4278L147.77 28.3711L147.745 28.094H147.827V27.9807H147.883L147.94 27.7036H147.997L148.11 27.118L148.192 27.0928V26.9795H148.249V26.589L148.362 26.5072V26.0349L148.475 25.9782V25.5878L148.589 25.5059V25.2163L148.727 25.1344L148.702 24.4103L148.841 24.3536L148.784 22.8234H148.841L148.815 22.6849C148.815 22.603 148.841 22.5715 148.897 22.5715V21.904C148.897 21.904 148.922 21.8473 148.954 21.7655H148.872V21.7088L148.343 21.5955L146.259 21.6521V21.734H146.12V21.7907L145.73 21.8159C145.705 21.8977 145.616 21.9292 145.535 21.9292V22.0111L145.144 22.1496V22.2881C144.867 22.3448 144.559 22.5085 144.256 22.7604C144.061 23.069 143.841 23.2327 143.62 23.3146C143.564 23.4783 143.507 23.5916 143.457 23.6231C143.375 23.6483 143.293 23.705 143.236 23.7868V23.9254C143.179 23.9254 143.154 23.9506 143.098 24.0072C143.072 24.0891 142.984 24.1458 142.846 24.2591L142.821 24.6495L142.543 24.7881L142.487 25.0652H142.43C142.373 25.1218 142.317 25.1785 142.266 25.2037C142.21 25.2289 142.185 25.3422 142.185 25.5059C142.103 25.5311 142.046 25.5626 142.021 25.6193C142.021 25.6445 141.996 25.6445 141.939 25.676L141.882 26.0664H141.8L141.687 26.4568H141.58V26.5953H141.498L141.523 26.7906H141.441L141.467 26.9858H141.391V27.1243L141.278 27.2062V27.5147H141.221V27.6532H141.164V27.987H141.108V28.1255H141.026L141.051 28.5726H140.969L140.994 28.7112H140.913L140.938 29.0449H140.994V29.1016L140.938 29.1834V29.7124H141.02L140.938 29.7691L140.963 30.4932H141.045V30.6318H141.101C141.101 30.7451 141.158 30.827 141.24 30.8836C141.297 31.104 141.378 31.2741 141.517 31.3307V31.5259C141.656 31.5511 141.737 31.6078 141.794 31.7212H141.933C141.989 31.803 142.046 31.8597 142.128 31.8849C142.21 31.8849 142.266 31.9101 142.266 31.9667H142.6L142.657 32.0801L143.721 32.0486Z" fill="#F5DF70" stroke="#F5DF70" stroke-miterlimit="10" stroke-linecap="round" stroke-linejoin="round"/>
<path d="M155.522 33.9379H155.301C155.301 33.8246 155.276 33.7742 155.219 33.7742C155.163 33.7742 155.106 33.7742 155.056 33.7742C155.031 33.749 154.999 33.749 154.974 33.6923H154.917L154.86 32.8863C154.779 32.8296 154.722 32.7478 154.722 32.6659L154.583 30.5249C154.583 30.3297 154.583 30.166 154.609 29.9959C154.527 29.637 154.445 28.7743 154.388 27.4393H154.47C154.527 27.326 154.527 27.2441 154.527 27.1623C154.47 26.9419 154.413 26.4381 154.388 25.6887C154.388 25.4369 154.363 24.9394 154.332 24.19H154.388V23.9948H154.445L154.332 22.3576H154.388L154.413 21.5264L154.357 20.5251L154.413 20.5V20.3614H154.47L154.445 19.9143H154.502V19.7758H154.583V19.6373L154.47 19.5554C154.495 19.5302 154.527 19.4987 154.527 19.4735C154.527 19.4483 154.552 19.3917 154.609 19.3602C154.634 19.335 154.69 19.2783 154.747 19.1965C154.804 19.1146 154.86 19.0579 154.942 19.0013C154.999 18.9761 155.081 18.9446 155.163 18.9446V19.0013C155.326 19.0013 155.465 19.0264 155.578 19.0579L155.717 19.2217H155.799L155.881 19.5302H155.937L155.962 19.8891C156.076 20.1914 156.183 21.1108 156.296 22.6662C156.296 23.2518 156.296 23.6107 156.24 23.7492V24.5553H156.265C156.265 24.5805 156.29 24.6119 156.347 24.6371C156.347 24.6938 156.321 24.719 156.233 24.7505V27.1937L156.567 26.1107C156.624 25.8336 156.649 25.5817 156.68 25.3046C156.876 25.1661 156.957 25.0842 156.957 25.0527C156.983 24.9142 157.039 24.8323 157.121 24.7442V24.6057H157.178L157.373 24.3538L157.486 24.3286C157.845 23.8563 158.154 23.5226 158.349 23.3588V23.3022L158.488 23.1888H158.708C158.79 23.1888 158.821 23.1069 158.847 22.9369C158.872 22.9369 158.903 22.9117 158.928 22.9117C158.954 22.8865 158.954 22.8865 158.985 22.8865C159.017 22.8865 159.01 22.8865 159.01 22.8614C159.01 22.8362 159.01 22.8362 159.035 22.8047V22.7228L160.005 22.3324L160.144 22.112H160.396L160.452 21.9735L160.786 21.9483C160.786 21.9231 160.811 21.8664 160.843 21.8349L161.51 21.7783L161.567 21.6649L163.513 21.5264V21.6082L163.733 21.5831L163.758 21.6397L164.256 21.6145V21.6964L164.867 21.8349V21.8916C165.062 22.0553 165.144 22.1687 165.144 22.2254H165.225L165.251 22.4772H165.307L165.389 22.5906V22.811C165.307 22.8362 165.276 22.8928 165.251 22.9747C165.251 23.0566 165.194 23.1132 165.137 23.1384V23.2203L162.889 23.3588C162.864 23.4155 162.807 23.4407 162.776 23.4407C162.556 23.4659 162.417 23.4659 162.385 23.4974V23.554L162.165 23.5792L162.19 23.6359L161.857 23.6611V23.7178H161.743V23.8311L161.384 23.8563L161.409 23.913H161.271V23.9696L161.076 23.9948L161.101 24.0515C161.044 24.0515 161.019 24.0515 160.988 24.0767L160.679 24.2152V24.2719H160.566C160.54 24.2971 160.509 24.3538 160.484 24.3853C160.427 24.4419 160.402 24.4986 160.37 24.5238C160.345 24.5805 160.289 24.6057 160.232 24.6057C160.175 24.6057 160.119 24.6308 160.068 24.6308C159.986 24.6308 159.955 24.7127 159.93 24.8512H159.791C159.734 24.9646 159.653 25.0464 159.539 25.1031C159.426 25.1598 159.376 25.2165 159.344 25.2417C159.319 25.2983 159.319 25.3235 159.287 25.3235C159.205 25.4369 159.092 25.5187 159.01 25.6006C158.928 25.6824 158.872 25.7958 158.872 25.9091L158.481 26.2681L158.507 26.4066C158.425 26.4066 158.393 26.4318 158.393 26.4885C158.368 26.5703 158.336 26.627 158.255 26.6522L158.28 26.9041L158.028 27.156V27.3512H157.946C157.946 27.5149 157.889 27.6031 157.782 27.6031V27.8801L157.669 27.962V28.1005L157.505 28.2391L157.449 28.4909H157.392V28.768C157.367 28.768 157.31 28.7932 157.253 28.8499C157.253 29.0451 157.228 29.1584 157.14 29.1584L157.165 29.5174L157.027 29.574L157.052 29.9645H156.939L156.964 30.4367C156.939 30.4619 156.882 30.4934 156.825 30.5186L156.85 30.9342H156.769V31.6584H156.687V31.7969H156.693L156.75 32.6596H156.668L156.693 32.8548H156.636L156.661 33.3271L156.353 33.7742L156.24 33.7994L156.101 34.0198L155.572 34.045L155.522 33.9379Z" fill="#F5DF70" stroke="#F5DF70" stroke-miterlimit="10" stroke-linecap="round" stroke-linejoin="round"/>
<path d="M172.184 34.0765H172.07V34.0198H171.907V33.9632L171.768 33.9883V33.9317H171.686C171.63 33.8498 171.548 33.7931 171.434 33.7931C171.239 33.6798 171.076 33.4027 170.962 32.9871H170.824V32.54L170.742 32.5148L170.685 31.6836L170.521 31.6018L170.465 30.5753C170.44 30.5501 170.408 30.4935 170.408 30.3549C170.433 30.3297 170.465 30.3297 170.49 30.3297C170.49 30.3297 170.49 30.3297 170.49 30.3046C170.49 30.2794 170.465 30.2479 170.433 30.2227C170.377 30.2227 170.351 30.1975 170.351 30.1408C170.326 30.1408 170.295 30.1156 170.295 30.0275C170.32 30.0023 170.351 29.9708 170.377 29.9708C170.351 29.6119 170.32 28.7744 170.295 27.5024H170.351V27.389H170.377C170.351 27.2505 170.351 26.4444 170.351 25.0024H170.433C170.458 24.8639 170.515 24.782 170.547 24.7505L170.49 23.0818L170.572 22.9999L170.628 21.5264L169.961 21.5516C169.961 21.5768 169.936 21.6335 169.879 21.665L167.77 21.7216L167.688 21.5831L167.052 21.6083C167.052 21.5831 167.027 21.5516 166.97 21.5516L166.856 21.3564C166.661 21.2746 166.548 21.0793 166.498 20.7204C166.636 20.6385 166.693 20.5567 166.718 20.4181L166.938 20.393C166.964 20.3111 167.02 20.2544 167.102 20.2544L167.241 20.034H167.461L167.436 19.9522H167.549V19.8955L168.657 19.8703V19.7884L170.188 19.7318L170.213 19.6499L170.742 19.5932L170.717 18.2016H170.798C170.798 16.5643 170.824 15.5883 170.912 15.286V14.946C170.912 14.5304 171.076 14.2533 171.384 14.0833L171.882 14.0581L172.19 14.417L172.385 14.4422L172.411 14.7508H172.354L172.379 14.9712H172.461V15.0845H172.518L172.543 16.1928H172.599V16.3062H172.713L172.574 16.6651C172.656 16.6903 172.713 16.8036 172.713 16.9988L172.656 17.8301L172.738 18.8313H172.688V18.9446H172.574C172.656 18.9446 172.688 19.0265 172.688 19.2217H172.574V19.5303C172.656 19.5555 172.851 19.5555 173.185 19.5555C173.519 19.5555 173.878 19.5555 174.211 19.4988L174.293 19.6373C174.35 19.6373 174.407 19.6121 174.432 19.5806C174.457 19.5492 174.489 19.5555 174.514 19.5555C174.57 19.5555 174.596 19.5806 174.596 19.6121L175.654 19.5869L175.735 19.7255L176.182 19.7003L176.264 19.8388L176.516 19.8136C176.516 19.8388 176.541 19.8703 176.573 19.8703L176.598 20.0655C176.737 20.1789 176.793 20.2859 176.818 20.3678L176.737 20.5315C176.737 20.67 176.737 20.7519 176.711 20.8401L176.598 20.8652L176.403 21.1423L176.182 21.1675C176.182 21.1927 176.157 21.2494 176.101 21.306L174.545 21.3312V21.3879H174.048L173.657 21.3627L173.544 21.4194L173.462 21.3627H173.16L173.078 21.4194C173.021 21.4194 172.965 21.3942 172.939 21.3627C172.914 21.3312 172.883 21.3375 172.858 21.3375V21.3942L172.581 21.4761V21.835H172.524L172.606 22.5843H172.549V22.7481H172.606L172.524 23.4156H172.499C172.499 23.4407 172.524 23.4974 172.581 23.5541L172.385 23.7745C172.385 23.8564 172.385 23.9382 172.411 23.9949C172.436 24.0516 172.436 24.1334 172.436 24.272H172.379L172.404 25.6321H172.461L172.486 25.8525C172.486 25.9092 172.461 26.0162 172.404 26.1611L172.461 26.3563H172.379V26.4696H172.322C172.379 27.8046 172.404 29.2718 172.436 30.8587H172.549V31.8033C172.574 31.8284 172.606 31.8599 172.631 31.9418H173.078C173.135 31.8599 173.217 31.8033 173.298 31.7781C173.38 31.7781 173.437 31.7529 173.519 31.7214C173.544 31.6395 173.601 31.608 173.683 31.5829V31.5577L173.934 31.4758V31.4191L174.186 31.3625L174.211 31.2806L174.432 31.2239L174.457 31.1106H174.652C174.677 31.0287 174.709 30.9972 174.791 30.9972V30.972L174.986 30.8587L174.929 30.7453H175.181L175.433 30.3864H175.628C175.628 30.3046 175.654 30.2731 175.742 30.2479C175.742 30.1912 175.767 30.166 175.824 30.1345V30.1093L176.126 29.8008C176.151 29.7441 176.182 29.7189 176.208 29.6874H176.321L176.403 29.5237L176.567 29.4985V29.4167H176.705C176.73 29.3348 176.787 29.2781 176.869 29.2529V29.1963H176.982V29.1144L177.203 29.1963L177.7 29.1144C177.757 29.1396 177.782 29.1711 177.813 29.1963C177.845 29.2215 177.87 29.2529 177.895 29.2781C177.92 29.3033 177.952 29.3348 177.977 29.36L178.059 29.3348L178.084 30.1408C178.028 30.1975 178.002 30.2542 177.971 30.336C177.946 30.4179 177.889 30.4746 177.857 30.4998C177.801 30.525 177.776 30.5816 177.776 30.6131C177.776 30.6698 177.719 30.7265 177.612 30.7516C177.612 30.8335 177.555 30.9154 177.417 30.972C177.36 31.0287 177.335 31.1106 177.303 31.2239L177.19 31.2491V31.2743C177.108 31.2995 177.077 31.3877 177.051 31.5262C176.97 31.5262 176.938 31.5514 176.938 31.6395H176.774L176.579 31.9166C176.441 31.9418 176.384 32.03 176.384 32.137C176.302 32.1937 176.22 32.2755 176.164 32.4141H176L175.748 32.7478C175.635 32.773 175.553 32.8612 175.528 32.943H175.364V32.9682C175.364 33.0249 175.364 33.0501 175.307 33.0816H175.194L175.112 33.2453L174.917 33.302V33.3838L174.558 33.4405V33.4972H174.419C174.419 33.5224 174.337 33.579 174.167 33.6609V33.7176L173.89 33.7428L173.865 33.8561L173.531 33.8813V33.9632L173.084 33.9883L173.059 34.1017L172.171 34.1269V34.0765H172.184Z" fill="#F5DF70" stroke="#F5DF70" stroke-miterlimit="10" stroke-linecap="round" stroke-linejoin="round"/>
<path d="M182.99 35.2727L182.656 34.8823H182.461L182.184 34.5486H182.127V33.6859C182.209 33.6607 182.24 33.604 182.24 33.5473C182.24 33.4907 182.24 33.4655 182.297 33.434C182.322 33.434 182.354 33.4088 182.354 33.4088C182.354 33.3836 182.379 33.3836 182.379 33.3836C182.404 33.3836 182.436 33.3836 182.461 33.3584C182.486 33.2766 182.517 33.1947 182.543 33.1632C182.599 33.138 182.624 33.0814 182.656 32.968C182.908 32.9113 183.015 32.8043 183.046 32.6343C183.128 32.6091 183.21 32.5776 183.349 32.5776H183.903C183.959 32.6595 184.016 32.6909 184.066 32.6909C184.123 32.6909 184.148 32.7161 184.205 32.7728C184.318 32.9932 184.507 33.1317 184.759 33.2451V33.6355L184.898 33.6922V34.1078C184.784 34.1645 184.734 34.2463 184.702 34.3597C184.677 34.473 184.621 34.5549 184.482 34.6367L184.092 35.0838L183.84 35.1657L183.758 35.279H182.99V35.2727ZM184.545 30.8018C184.488 30.72 184.325 30.6633 184.048 30.6633C184.048 30.6381 184.022 30.5814 183.991 30.5814C183.966 30.5562 183.934 30.5248 183.909 30.4681C183.884 30.4429 183.796 30.4114 183.632 30.4114C183.607 30.191 183.575 29.8825 183.575 29.492V28.7679H183.632C183.689 28.6293 183.714 28.516 183.714 28.3523H183.77V28.2389C183.827 28.2389 183.827 28.2137 183.827 28.1571L183.77 27.9367H183.827V27.8233H183.909V27.6281H183.959C183.985 27.6029 184.016 27.3258 184.041 26.8536H184.123L184.148 26.1609C184.148 26.1042 184.174 26.079 184.23 26.0475V25.7957H184.287V25.5753H184.369V25.0211H184.425V24.8574H184.482V24.3599L184.621 24.3032V23.5791H184.677C184.702 23.5539 184.759 23.2201 184.841 22.5527H184.898V22.3008H184.954V22.1056H185.011L184.954 21.8285H185.011C185.036 21.7466 185.068 21.69 185.15 21.6333C185.15 21.6081 185.124 21.5766 185.093 21.5766C185.093 21.4948 185.118 21.4381 185.15 21.3814C185.15 21.3247 185.124 21.2429 185.093 21.161H185.15V20.9658C185.175 20.9658 185.206 20.9406 185.206 20.9091H185.15C185.15 20.8839 185.175 20.8524 185.206 20.8524C185.206 20.6572 185.231 20.5754 185.231 20.5754C185.257 20.5754 185.288 20.5502 185.288 20.5187H185.206V20.4368H185.288V20.0527H185.345V19.889H185.401V19.3349H185.515V19.2215H185.571C185.515 19.1396 185.515 19.0578 185.515 19.0011H185.571V18.7492H185.628V18.4973H185.685V18.0817H185.767V17.9432H185.823V17.2757H185.88V17.1624H185.937V16.8034L186.132 16.6901V15.9155H186.214V15.5818H186.296V15.1662H186.352V15.0528H186.409V14.6687H186.491V14.5554H186.548V14.0012L186.686 13.9446V13.6108L187.076 13.2771C187.076 13.1385 187.102 13.0567 187.158 13H187.738L187.763 13.0567C188.178 13.5038 188.43 13.7494 188.537 13.8375V15.9218C188.424 16.0037 188.374 16.0604 188.342 16.0856L188.317 16.6964H188.235V17.1687L188.122 17.2253C188.147 17.4457 188.178 17.6724 188.178 17.8928H188.122L188.065 18.1447H187.983C188.008 18.3399 188.008 18.5036 188.065 18.6737H187.983V19.0074L187.87 19.0893V19.2845L187.738 19.3286V20.1913L187.794 20.2479C187.794 20.3046 187.794 20.3298 187.738 20.3298C187.681 20.4935 187.624 20.6069 187.574 20.6069V21.2177H187.517V21.4381H187.461V22.0489L187.322 22.1056V22.7731H187.265V22.9683H187.209V23.4154H187.152V23.5791H187.07V24.0766L186.932 24.1332C186.932 24.6874 186.875 24.9644 186.793 25.0211V25.6886L186.68 25.7138V26.2427H186.598V26.3813H186.541V26.8536L186.403 26.9102V27.1621H186.346V27.3258H186.289V28.05H186.207V28.1634H186.126V28.4152C186.1 28.4404 186.069 28.4404 186.044 28.4971H185.93C185.93 28.749 185.93 28.9127 185.874 29.0261H185.817V29.2213L185.679 29.2779V29.6872C185.597 29.6872 185.565 29.7124 185.565 29.7439L185.401 30.1343H185.345C185.288 30.2981 185.181 30.4114 185.011 30.4114L184.677 30.8018H184.545V30.8018Z" fill="#F5DF70" stroke="#F5DF70" stroke-miterlimit="10" stroke-linecap="round" stroke-linejoin="round"/>
<defs>
<filter id="filter0_d_396_4390" x="0" y="0" width="304" height="51" filterUnits="userSpaceOnUse" color-interpolation-filters="sRGB">
<feFlood flood-opacity="0" result="BackgroundImageFix"/>
<feColorMatrix in="SourceAlpha" type="matrix" values="0 0 0 0 0 0 0 0 0 0 0 0 0 0 0 0 0 0 127 0" result="hardAlpha"/>
<feOffset dy="2"/>
<feGaussianBlur stdDeviation="1"/>
<feComposite in2="hardAlpha" operator="out"/>
<feColorMatrix type="matrix" values="0 0 0 0 0 0 0 0 0 0 0 0 0 0 0 0 0 0 0.25 0"/>
<feBlend mode="normal" in2="BackgroundImageFix" result="effect1_dropShadow_396_4390"/>
<feBlend mode="normal" in="SourceGraphic" in2="effect1_dropShadow_396_4390" result="shape"/>
</filter>
</defs>
</svg>
